<svg xmlns="http://www.w3.org/2000/svg" width="660.179" height="580.218">
<title>1.13	Слизька дорога</title>
<path d="M31.961 579.11a31 31 0 0 1-26.846-46.5L303.153 16.39a31 31 0 0 1 53.694 0L654.886 532.61a31 31 0 0 1-26.848 46.5z" transform="translate(.09 .109)" style="fill:#fff"/><path d="M330.09 2a29.72 29.72 0 0 1 25.98 15L654.11 533.218a30 30 0 0 1-25.981 45H32.051a30 30 0 0 1-25.98-45L304.108 17a29.72 29.72 0 0 1 25.98-15m0-2a31.675 31.675 0 0 0-27.712 16L4.338 532.218a32 32 0 0 0 27.713 48h596.077a32 32 0 0 0 27.713-48L357.802 16A31.675 31.675 0 0 0 330.09 0z"/><path d="M567.418 523.219H92.583a10 10 0 0 1-8.66-15L321.34 96.999a10 10 0 0 1 17.32 0l237.418 411.22a10 10 0 0 1-8.66 15zM330 11.999a19.813 19.813 0 0 0-17.32 10L14.64 538.219a20 20 0 0 0 17.321 30h596.078a20 20 0 0 0 17.32-30L347.322 21.999a19.813 19.813 0 0 0-17.321-10z" transform="translate(.09 .109)" style="fill:#da251d"/><g><path d="M232.09 494.109h80.739s25.26-21 25.26-37-9.258-25.597-51-44c-47.968-21.149-56-21-39-51 0 0-44 13-44 34s61 44 61 61c0 10-15 25-33 37zM442.742 494.109s9.348-9 9.348-19c0-14-20-22-71.047-40.024-33.95-11.987-41.953-14.976-41.953-25.976 0-22 41-32 41-32l-5.224 18.282a11 11 0 0 0 6.672 13.306l69.552 26.412s65 24 64.956 59zM410.485 271.41l-4.973-.523-2.299-33.996a15.001 15.001 0 0 0-13.4-13.907L281.65 211.616a15.001 15.001 0 0 0-15.998 10.817l-9.317 32.775-4.973-.522a10.004 10.004 0 0 0-10.99 8.9l-4.6 43.759a10.004 10.004 0 0 0 8.9 10.99l159.124 16.724a10.004 10.004 0 0 0 10.99-8.9l4.6-43.758a10.004 10.004 0 0 0-8.9-10.991zm-141.223-14.843 6.642-26.833a10.008 10.008 0 0 1 10.756-7.537l96.051 10.096a10.008 10.008 0 0 1 8.955 9.608l.917 27.627zM245.143 323.412l27.847 2.927-1.673 15.912a14 14 0 0 1-15.386 12.46 14 14 0 0 1-12.46-15.387l1.672-15.912zM376.21 339.199l27.848 2.927-1.673 15.912a14 14 0 0 1-15.387 12.46 14 14 0 0 1-12.46-15.387l1.673-15.912z"/></g>
</svg>