<svg xmlns="http://www.w3.org/2000/svg" width="660.179" height="580.218" viewBox="0 0 660.179 580.218"><defs><style>.a { fill: rgb(255, 255, 255); }.b { fill: rgb(218, 37, 29); }</style></defs><g><path class="a" d="M31.96143,579.10938a31,31,0,0,1-26.84668-46.5L303.15332,16.39111a30.99981,30.99981,0,0,1,53.69336,0L654.88574,532.60938a31,31,0,0,1-26.84765,46.5Z" transform="translate(0.08956 0.10891)"/><path d="M330,1.89109a29.71926,29.71926,0,0,1,25.9808,15l298.03837,516.2178a30,30,0,0,1-25.98072,45H31.96155a30,30,0,0,1-25.98082-45L304.0192,16.89109a29.71926,29.71926,0,0,1,25.9808-15m0-2a31.67452,31.67452,0,0,0-27.71292,16L4.24864,532.10889a32.00008,32.00008,0,0,0,27.71291,48h596.0769a31.99994,31.99994,0,0,0,27.71283-48L357.71292,15.89109A31.67452,31.67452,0,0,0,330-.10891Z" transform="translate(0.08956 0.10891)"/></g><path class="b" d="M567.41753,523.21885H92.58272a10,10,0,0,1-8.66026-15L321.33979,96.99906a10,10,0,0,1,17.32051,0l237.41748,411.2198A10,10,0,0,1,567.41753,523.21885ZM330,11.999A19.81282,19.81282,0,0,0,312.67946,21.999L14.64044,538.21885a20,20,0,0,0,17.3206,30H628.039a20.00012,20.00012,0,0,0,17.32062-30L347.32063,21.999A19.81284,19.81284,0,0,0,330,11.999Z" transform="translate(0.08956 0.10891)"/><path d="M558,504,459.85,334H435v94.63A32.59938,32.59938,0,0,0,420,425c-19.76,0-26.34,16.57-45,16.57S349.76,425,330,425s-26.34,16.57-45,16.57S259.76,425,240,425a32.59938,32.59938,0,0,0-15,3.63V334H200.15L102,504H225V491.83a25.90905,25.90905,0,0,1,15-4.4c19.76,0,19.76,16.57,45,16.57s25.24-16.57,45-16.57S349.76,504,375,504s25.24-16.57,45-16.57a25.90905,25.90905,0,0,1,15,4.4V504ZM225,441.83a25.90905,25.90905,0,0,1,15-4.4c19.76,0,19.76,16.57,45,16.57s25.24-16.57,45-16.57S349.76,454,375,454s25.24-16.57,45-16.57a25.90905,25.90905,0,0,1,15,4.4v11.8A32.59938,32.59938,0,0,0,420,450c-19.76,0-26.34,16.57-45,16.57S349.76,450,330,450s-26.34,16.57-45,16.57S259.76,450,240,450a32.59938,32.59938,0,0,0-15,3.63ZM420,475c-19.76,0-26.34,16.57-45,16.57S349.76,475,330,475s-26.34,16.57-45,16.57S259.76,475,240,475a32.59938,32.59938,0,0,0-15,3.63v-11.8a25.90905,25.90905,0,0,1,15-4.4c19.76,0,19.76,16.57,45,16.57s25.24-16.57,45-16.57S349.76,479,375,479s25.24-16.57,45-16.57a25.90905,25.90905,0,0,1,15,4.4v11.8A32.59938,32.59938,0,0,0,420,475Z" transform="translate(0.08956 0.10891)"/><rect x="206.819" y="259.497" width="198.906" height="30.844" transform="translate(-104.6023 297.20267) rotate(-45.00074)"/></svg>