<svg xmlns="http://www.w3.org/2000/svg" width="660.179" height="580.218" viewBox="0 0 660.179 580.218"><defs><style>.a { fill: rgb(255, 255, 255); }.b { fill: rgb(218, 37, 29); }</style></defs><g><path class="a" d="M31.96143,579.10938a31,31,0,0,1-26.84668-46.5L303.15332,16.39111a30.99981,30.99981,0,0,1,53.69336,0L654.88574,532.60938a31,31,0,0,1-26.84765,46.5Z" transform="translate(0.08956 0.10891)"/><path d="M330,1.89109a29.71926,29.71926,0,0,1,25.9808,15l298.03837,516.2178a30,30,0,0,1-25.98072,45H31.96155a30,30,0,0,1-25.98082-45L304.0192,16.89109a29.71926,29.71926,0,0,1,25.9808-15m0-2a31.67452,31.67452,0,0,0-27.71292,16L4.24864,532.10889a32.00008,32.00008,0,0,0,27.71291,48h596.0769a31.99994,31.99994,0,0,0,27.71283-48L357.71292,15.89109A31.67452,31.67452,0,0,0,330-.10891Z" transform="translate(0.08956 0.10891)"/></g><path class="b" d="M567.41753,523.21885H92.58272a10,10,0,0,1-8.66026-15L321.33979,96.99906a10,10,0,0,1,17.32051,0l237.41748,411.2198A10,10,0,0,1,567.41753,523.21885ZM330,11.999A19.81282,19.81282,0,0,0,312.67946,21.999L14.64044,538.21885a20,20,0,0,0,17.3206,30H628.039a20.00012,20.00012,0,0,0,17.32062-30L347.32063,21.999A19.81284,19.81284,0,0,0,330,11.999Z" transform="translate(0.08956 0.10891)"/><g><g><path d="M302.09528,314.1638v-37.32l-52.30887,44.784A14.37584,14.37584,0,0,0,268.053,343.19048Z" transform="translate(0.08956 0.10891)"/><path d="M300.43468,176.4944a51.44369,51.44369,0,0,0-.8303,9.952,60.18054,60.18054,0,0,0,.8303,9.952,20.91419,20.91419,0,0,0,8.86962,11.631c3.43175,2.04043,8.09659,3.28617,14.37877,2.4677,19.09689-2.488,34.04228-22.392,34.04228-34.00268s-2.46487-20.97954-24.909-23.22135c-5.08135-.50754-13.423-.90054-21.07893,4.57766C302.99268,164.10805,300.93205,174.086,300.43468,176.4944Z" transform="translate(0.08956 0.10891)"/><path d="M221.55622,465.10254c-3.68377,9.649,1.6015,20.314,10.7939,23.22134,8.48439,2.68339,18.18213-1.9109,21.58778-10.78133q13.33337-38.051,26.66671-76.10194a24.88071,24.88071,0,0,1,8.08286-11.31427l65.87746-51.90956a13.239,13.239,0,0,0,4.821-10.65778l-2.4909-77.2539,33.9107,24.885a16.58043,16.58043,0,0,1,6.774,13.36691v37.21746c-.50389,8.39215,6.537,14.74626,13.28479,14.09867a12.33553,12.33553,0,0,0,7.4727-3.31733c2.52554-2.59644,3.64581-6.58537,3.3212-10.78134v-53.947a16.5801,16.5801,0,0,0-6.59078-13.23052l-58.16082-43.92409a12.46393,12.46393,0,0,0-7.5114-2.51712s-5.89381.56924-8.61121,1.73446a65.32709,65.32709,0,0,0-17.10114,10.70555,95.4136,95.4136,0,0,0-9.69238,9.06422,8.13736,8.13736,0,0,0-1.9278,5.315c.04146,28.34721.08287,58.1517.12428,86.40069a8.28987,8.28987,0,0,1-2.99147,6.09267L260.90935,371.5469a37.32015,37.32015,0,0,0-11.25377,16.003Z" transform="translate(0.08956 0.10891)"/><path d="M332.81636,370.55849,359.386,351.48382l71.71208,109.455a17.71858,17.71858,0,0,1,2.95029,11.21284c-.6768,7.68353-5.39334,14.3552-11.5596,16.17219-3.82,1.12565-8.05128,1.35377-11.83843-.628a18.992,18.992,0,0,1-7.05785-6.61087Z" transform="translate(0.08956 0.10891)"/></g><g><polygon points="128.123 507.011 167.863 444.716 202.175 444.716 185.37 507.011 128.123 507.011"/><polygon points="525.466 507.011 485.726 444.716 451.414 444.716 468.219 507.011 525.466 507.011"/><polygon points="299.406 507.011 311.221 444.716 345.591 444.716 356.331 507.011 299.406 507.011"/></g></g></svg>