<svg xmlns="http://www.w3.org/2000/svg" width="660.179" height="580.218" viewBox="0 0 660.179 580.218"><defs><style>.a { fill: rgb(255, 255, 255); }.b { fill: rgb(218, 37, 29); }</style></defs><g><path class="a" d="M31.96143,579.10938a31,31,0,0,1-26.84668-46.5L303.15332,16.39111a30.99981,30.99981,0,0,1,53.69336,0L654.88574,532.60938a31,31,0,0,1-26.84765,46.5Z" transform="translate(0.08956 0.10891)"/><path d="M330,1.89109a29.71926,29.71926,0,0,1,25.9808,15l298.03837,516.2178a30,30,0,0,1-25.98072,45H31.96155a30,30,0,0,1-25.98082-45L304.0192,16.89109a29.71926,29.71926,0,0,1,25.9808-15m0-2a31.67452,31.67452,0,0,0-27.71292,16L4.24864,532.10889a32.00008,32.00008,0,0,0,27.71291,48h596.0769a31.99994,31.99994,0,0,0,27.71283-48L357.71292,15.89109A31.67452,31.67452,0,0,0,330-.10891Z" transform="translate(0.08956 0.10891)"/></g><path class="b" d="M567.41753,523.21885H92.58272a10,10,0,0,1-8.66026-15L321.33979,96.99906a10,10,0,0,1,17.32051,0l237.41748,411.2198A10,10,0,0,1,567.41753,523.21885ZM330,11.999A19.81282,19.81282,0,0,0,312.67946,21.999L14.64044,538.21885a20,20,0,0,0,17.3206,30H628.039a20.00012,20.00012,0,0,0,17.32062-30L347.32063,21.999A19.81284,19.81284,0,0,0,330,11.999Z" transform="translate(0.08956 0.10891)"/><g><path d="M433.53,347.09a14.99988,14.99988,0,0,1-4.82,20.08L368,406v76a13,13,0,0,1-26,0V403.13a15.00387,15.00387,0,0,1,6.81-12.57l47.84-31.18-32.2-55.77a15.01505,15.01505,0,0,1,1.16-16.72l7.89-10.11A14.9768,14.9768,0,0,1,385.33,271h43.11l15.01,26H404.61Z" transform="translate(0.08956 0.10891)"/><path d="M444.707,436.12333,412.3913,386.3589l22.42535-14.57217,23.45242,36.12018,39.15876-25.43179L512,404.91111l-52.46046,34.33728A10.6991,10.6991,0,0,1,444.707,436.12333Z" transform="translate(0.08956 0.10891)"/><path d="M325,248c0,15,7,34,22,34s33-21,33-41c0-11-3-24-22-24S325,235,325,248Z" transform="translate(0.08956 0.10891)"/><path d="M356.30435,307.609,337,343l-27.03189-15.94188a14,14,0,0,0-19.11669,4.85618l-.26916.4486a14,14,0,0,0,5.427,19.56139l37.25053,19.8269a14,14,0,0,0,18.58279-5.15552L372,333Z" transform="translate(0.08956 0.10891)"/><polygon points="302.12 471.109 302.09 471.109 302.09 471.059 302.12 471.109"/><path d="M334,445v26H308.046a10,10,0,0,1-8.83456-5.31485L280.08,429.61,299.82,417l16.52,28Z" transform="translate(0.08956 0.10891)"/><path d="M311.01543,263.24526a14,14,0,0,0-19.23423,4.78608l-46.87979,78.133a20,20,0,0,0-.39207,19.89621L262,396l-18.50211,12.61507a20.00015,20.00015,0,0,0-5.72939,5.98265l-39.22184,63.23521a14.3478,14.3478,0,0,0,4.6044,19.73947l.00008,0a14,14,0,0,0,19.26564-4.44435L262,430l33.86289-21.90143a15,15,0,0,0,5.32816-19.18627l-19.47475-39.813a15,15,0,0,1,.86108-14.70926l33.14592-51.49887a14,14,0,0,0-3.96609-19.1986Z" transform="translate(0.08956 0.10891)"/><path d="M221.65841,405.51647l28.45165-19.92279-13.33239-19.03992-17.78822,12.4559-18.13939-24.80041a12,12,0,0,0-17.14952-2.31209l-.71568.56849a12,12,0,0,0-2.27832,16.40287l24.32666,33.82475A12,12,0,0,0,221.65841,405.51647Z" transform="translate(0.08956 0.10891)"/><path d="M207.91022,308.01c0,13.72014,6.40273,31.099,20.12287,31.099s30.1843-19.20819,30.1843-37.50171c0-10.06144-2.744-21.95222-20.12287-21.95222S207.91022,296.11918,207.91022,308.01Z" transform="translate(0.08956 0.10891)"/></g></svg>