<svg xmlns="http://www.w3.org/2000/svg" width="660.179" height="580.218"><path d="M31.961 579.11a31 31 0 0 1-26.846-46.5L303.153 16.39a31 31 0 0 1 53.694 0L654.886 532.61a31 31 0 0 1-26.848 46.5z" transform="translate(.09 .109)" style="fill:#ffdf00"/><path d="M330.09 2a29.72 29.72 0 0 1 25.98 15L654.11 533.218a30 30 0 0 1-25.981 45H32.051a30 30 0 0 1-25.98-45L304.108 17a29.72 29.72 0 0 1 25.98-15m0-2a31.675 31.675 0 0 0-27.712 16L4.338 532.218a32 32 0 0 0 27.713 48h596.077a32 32 0 0 0 27.713-48L357.802 16A31.675 31.675 0 0 0 330.09 0z"/><path d="M581.274 511.219a10 10 0 0 1-8.66 15H87.386a10 10 0 0 1-8.66-15L321.34 90.999a10 10 0 0 1 17.32 0zM330 11.999a19.813 19.813 0 0 0-17.32 10L14.64 538.219a20 20 0 0 0 17.32 30H628.04a20 20 0 0 0 17.32-30L347.322 21.999a19.813 19.813 0 0 0-17.321-10z" transform="translate(.09 .109)" style="fill:#da251d"/><path d="m267.646 390.345 32.919 20.366.76 26.043-2.772 7.483-40.414 61.039c-6.573 9.202-14.849 13.56-25.05 7.529-10.956-7.044-7.932-19.31-3.04-25.57l39.117-58.985z"/><path d="M442.467 471.636c-2.454 1.132-11.718 3.48-13.725 3.842a70.342 70.342 0 0 0-11.283 3.457c-6.294 2.328-11.886 4.065-14.69 6.842a46.988 46.988 0 0 0-12.087 12.14l-13.293 17.22h192.053l-63.558-108.021-13.434 8.735c-4.965 3.92-8.04 7.644-8.303 11.078a25.81 25.81 0 0 1-4.692 11.523L465.73 457.65l-78.065-49.918-24.25-94.733a41 41 0 0 0-5.032-11.946l-21.668-34.672a24.018 24.018 0 0 0-20.51-11.29h-40.973a20 20 0 0 0-16.631 8.892l-33.626 50.343c-7.734 9.163-7.731 16.948.483 22.468 6.75 4.5 12.62 3.62 20.642-7.24l25.72 17.763-6.756 9.785a14 14 0 0 0 3.91 19.703l73.925 47.896-1.112 74.682c-.258 11.073 4.896 16.677 15.548 16.726 11.314.066 17.038-6.637 16.928-20.405l.274-61.652 6.286.312a10 10 0 0 0 7.991-3.367l5.697-6.45 65.795 41.149c-2.78 3.783-12.457 3.602-17.84 5.94zM277.094 339.111l-25.52-17.261 21.363-30.508a10 10 0 0 1 8.41-4.261l28.771.629zm41.045 25.59 20.79-28.848 11.89 50.558zM398.09 245.109c0 15.735-17.03 33-31.368 33s-21.632-17.265-21.632-33c0-13.039 1.287-21.288 8-28 5-5 12.056-5 15.306-5 11.694 0 29.694 14.006 29.694 33z"/></svg>