<svg xmlns="http://www.w3.org/2000/svg" width="660.179" height="580.218" viewBox="0 0 660.179 580.218"><defs><style>.a { fill: rgb(255, 223, 0); }.b { fill: rgb(218, 37, 29); }</style></defs><g><path class="a" d="M31.96143,579.10938a31,31,0,0,1-26.84668-46.5L303.15332,16.39111a30.99981,30.99981,0,0,1,53.69336,0L654.88574,532.60938a31,31,0,0,1-26.84765,46.5Z" transform="translate(0.08956 0.10891)"/><path d="M330,1.89109a29.71926,29.71926,0,0,1,25.9808,15l298.03837,516.2178a30,30,0,0,1-25.98072,45H31.96155a30,30,0,0,1-25.98082-45L304.0192,16.89109a29.71926,29.71926,0,0,1,25.9808-15m0-2a31.67452,31.67452,0,0,0-27.71292,16L4.24864,532.10889a32.00008,32.00008,0,0,0,27.71291,48h596.0769a31.99994,31.99994,0,0,0,27.71283-48L357.71292,15.89109A31.67452,31.67452,0,0,0,330-.10891Z" transform="translate(0.08956 0.10891)"/></g><path class="b" d="M567.41753,523.21885H92.58272a10,10,0,0,1-8.66026-15L321.33979,96.99906a10,10,0,0,1,17.32051,0l237.41748,411.2198A10,10,0,0,1,567.41753,523.21885ZM330,11.999A19.81282,19.81282,0,0,0,312.67946,21.999L14.64044,538.21885a20,20,0,0,0,17.3206,30H628.039a20.00012,20.00012,0,0,0,17.32062-30L347.32063,21.999A19.81284,19.81284,0,0,0,330,11.999Z" transform="translate(0.08956 0.10891)"/><g><path d="M289.89,431.55h-1.22l-4.93-13.49-6.2-16.99a12.22677,12.22677,0,0,0-11.48-8.03H202.68a12.20253,12.20253,0,0,0-11.8,9.04l-7.96,29.47h-3.05a6.11143,6.11143,0,0,0-6.12,6.11v25.06a9.17573,9.17573,0,0,0,9.17,9.17H286.83a9.16931,9.16931,0,0,0,9.17-9.17V437.66A6.10928,6.10928,0,0,0,289.89,431.55Zm-99.02,0,6.76-27.37a6.20754,6.20754,0,0,1,5.96-4.42h62.02a6.19478,6.19478,0,0,1,5.93,4.32l4.36,13.98,4.21,13.49Z" transform="translate(0.08956 0.10891)"/><path d="M183.01273,477.49826h20.78168a0,0,0,0,1,0,0v14.37733a8.84926,8.84926,0,0,1-8.84926,8.84926H191.862a8.84926,8.84926,0,0,1-8.84926-8.84926V477.49826A0,0,0,0,1,183.01273,477.49826Z"/><path d="M269.1956,477.49829h20.78168a0,0,0,0,1,0,0v14.37733a8.84926,8.84926,0,0,1-8.84926,8.84926h-3.08317a8.84926,8.84926,0,0,1-8.84926-8.84926V477.49829A0,0,0,0,1,269.1956,477.49829Z"/></g><g><path d="M425.01,324.72h-1.22l-11.13-30.47a12.22192,12.22192,0,0,0-11.48-8.04H337.8a12.22273,12.22273,0,0,0-11.8,9.04l-7.95,29.47h-3.06a6.10929,6.10929,0,0,0-6.11,6.11v6.38h25.3c7.51566.00743,11.75479,4.63787,13.48,10.04l6.51,17.81h67.78a9.16291,9.16291,0,0,0,9.17-9.17V330.83A6.10929,6.10929,0,0,0,425.01,324.72Zm-99.02,0,6.76-27.37a6.19861,6.19861,0,0,1,5.96-4.41h62.03a6.17346,6.17346,0,0,1,5.92,4.31l8.57,27.47Z" transform="translate(0.08956 0.10891)"/><path d="M404.3182,370.67022h20.78168a0,0,0,0,1,0,0v14.37733a8.84926,8.84926,0,0,1-8.84926,8.84926h-3.08317a8.84926,8.84926,0,0,1-8.84926-8.84926V370.67022A0,0,0,0,1,404.3182,370.67022Z"/></g><g><path d="M358.01,377.72h-1.22l-4.62-12.66-6.51-17.81a12.22192,12.22192,0,0,0-11.48-8.04H270.8a12.22273,12.22273,0,0,0-11.8,9.04l-7.95,29.47h-3.06a6.10929,6.10929,0,0,0-6.11,6.11v7.21h24.18c7.12478.047,11.527,4.35132,13.48,10.03l6.2,16.99h69.21a9.16291,9.16291,0,0,0,9.17-9.17V383.83A6.10929,6.10929,0,0,0,358.01,377.72Zm-99.02,0,6.76-27.37a6.19861,6.19861,0,0,1,5.96-4.41h62.03a6.17346,6.17346,0,0,1,5.92,4.31L344.28,365.06l3.95,12.66Z" transform="translate(0.08956 0.10891)"/><path d="M337.3182,423.67022h20.78168a0,0,0,0,1,0,0v14.37733a8.84926,8.84926,0,0,1-8.84926,8.84926h-3.08317a8.84926,8.84926,0,0,1-8.84926-8.84926V423.67022a0,0,0,0,1,0,0Z"/></g></svg>