<svg xmlns="http://www.w3.org/2000/svg" width="2254" height="504"><defs>
<title>1.4.1 Напрямок повороту</title>
<style>.b{fill:#da251d}</style></defs><path style="fill:#fff" d="M1 1h2252v502H1z"/><path d="M2252 2v500H2V2h2250m2-2H0v504h2254V0z"/><g><path class="b" d="M372 252 132 492H12V12h120l240 240z"/><path class="b" d="M922 252 682 492H352l240-240L352 12h330l240 240z"/><path class="b" d="m1472 252-240 240H902l240-240L902 12h330l240 240z"/><path class="b" d="m2022 252-240 240h-330l240-240-240-240h330l240 240zM2242 252v240h-240zM2002 12l240 240V12z"/></g>
</svg>