<svg xmlns="http://www.w3.org/2000/svg" width="660.179" height="580.218">
<title>2.1 Дати дорогу</title>
<path d="M330 579.11a30.683 30.683 0 0 1-26.847-15.5L5.115 47.39A31 31 0 0 1 31.96.891h596.077a31 31 0 0 1 26.848 46.5L356.846 563.61A30.683 30.683 0 0 1 330 579.11z" transform="translate(.09 .109)" style="fill:#fff"/><path d="M628.128 2a30 30 0 0 1 25.98 45L356.072 563.218a30 30 0 0 1-51.962 0L6.07 47A30 30 0 0 1 32.051 2h596.077m0-2H32.051A31.674 31.674 0 0 0 4.338 16a31.674 31.674 0 0 0 0 32l298.039 516.218a32 32 0 0 0 55.426 0L655.84 48a31.674 31.674 0 0 0 0-32 31.674 31.674 0 0 0-27.713-16z"/><path d="M92.582 56.781h474.835a10 10 0 0 1 8.66 15L338.66 483.001a10 10 0 0 1-17.32 0L83.922 71.781a10 10 0 0 1 8.66-15zM330 568.001a19.813 19.813 0 0 0 17.32-10l298.04-516.22a20 20 0 0 0-17.321-30H31.961a20 20 0 0 0-17.32 30l298.039 516.22a19.813 19.813 0 0 0 17.32 10z" transform="translate(.09 .109)" style="fill:#da251d"/>
</svg>