<svg data-name="Слой 1" xmlns="http://www.w3.org/2000/svg" width="815.204" height="815.248">
<title>2.4 Кінець головної дороги</title>
<path d="M406 812.624a45.698 45.698 0 0 1-32.527-13.473L12.849 438.526a46 46 0 0 1 0-65.053L373.474 12.849a46 46 0 0 1 65.053 0l360.624 360.625a46.053 46.053 0 0 1 0 65.053L438.526 799.151A45.697 45.697 0 0 1 406 812.624z" transform="translate(1.602 1.624)" style="fill:#fff"/><path d="M407.602 2a44.85 44.85 0 0 1 31.82 13.18l360.624 360.625a45 45 0 0 1 0 63.64L439.422 800.067a45 45 0 0 1-63.64 0L15.158 439.444a45 45 0 0 1 0-63.64L375.783 15.18A44.869 44.869 0 0 1 407.603 2m.003-2v2l-.001-2a46.7 46.7 0 0 0-33.237 13.766L13.744 374.39a47.053 47.053 0 0 0 0 66.468l360.624 360.624a47 47 0 0 0 66.468 0L801.46 440.86a47.053 47.053 0 0 0 0-66.469L440.836 13.766A46.688 46.688 0 0 0 407.606 0z"/><path d="M406 669.345a29.803 29.803 0 0 1-21.213-8.786L151.442 427.214a30.035 30.035 0 0 1 0-42.427l233.345-233.345a30 30 0 0 1 42.427 0l233.345 233.345a30.036 30.036 0 0 1 0 42.427L427.214 660.559A29.808 29.808 0 0 1 406 669.345z" transform="translate(1.602 1.624)" style="fill:#fff500"/><path d="M407.602 149.28a24.836 24.836 0 0 1 17.678 7.321l233.345 233.346a25 25 0 0 1 0 35.355L425.28 658.647a25 25 0 0 1-35.356 0L156.58 425.302a25 25 0 0 1 0-35.356l233.346-233.345a24.836 24.836 0 0 1 17.677-7.322m0-10a34.89 34.89 0 0 0-24.748 10.251L149.508 382.875a35 35 0 0 0 0 49.498l233.345 233.345a35 35 0 0 0 49.498 0l233.345-233.345a35 35 0 0 0 0-49.497L432.35 149.53a34.89 34.89 0 0 0-24.749-10.25z"/><g><path d="M407.641 12.004h-.039a34.856 34.856 0 0 0-24.75 10.25l-360.62 360.62a35 35 0 0 0 0 49.5l162.63 162.63 14.14 14.15h.01l7.06 7.07h.01l35.35 35.35 7.07 7.07 134.35 134.35a35.006 35.006 0 0 0 49.5 0l360.62-360.62a35 35 0 0 0 0-49.5l-134.35-134.35-7.07-7.07-14.14-14.14-21.21-21.21-7.07-7.07-14.15-14.15-162.63-162.63a34.831 34.831 0 0 0-24.71-10.25zm-243.989 547.65-134.35-134.35a25.03 25.03 0 0 1 0-35.36l360.62-360.62a25.011 25.011 0 0 1 35.36 0l134.35 134.35-395.98 395.98zm21.21 21.21-14.14-14.14 395.98-395.98 14.14 14.14-395.98 395.98zm21.22 21.22-14.15-14.15 395.98-395.98 14.15 14.15-395.98 395.98zm21.21 21.21-14.14-14.14 395.98-395.98 14.14 14.14-395.98 395.98zm21.21 21.21-14.14-14.14 395.98-395.98 14.14 14.14-395.98 395.98zm159.1 148.74a24.84 24.84 0 0 1-17.68-7.32l-134.35-134.35 395.98-395.98 134.35 134.35a25.011 25.011 0 0 1 0 35.36l-360.62 360.62a24.84 24.84 0 0 1-17.68 7.32z"/><path d="M199.012 609.154h-.01l7.07 7.07-7.06-7.07zM609.132 199.034l7.07 7.07v-.01l-7.07-7.06z"/></g>
</svg>