<svg xmlns="http://www.w3.org/2000/svg" width="600" height="600" xmlns:v="https://vecta.io/nano"><rect x=".5" y=".5" width="599" height="599" rx="44.5" fill="#fff"/><path d="M555 1a44.05 44.05 0 0 1 44 44v510a44.05 44.05 0 0 1-44 44H45a44.05 44.05 0 0 1-44-44V45A44.05 44.05 0 0 1 45 1h510m0-1H45A45 45 0 0 0 0 45v510a45 45 0 0 0 45 45h510a45 45 0 0 0 45-45V45a45 45 0 0 0-45-45z"/><rect x="10" y="10" width="580" height="580" rx="35" fill="#005ca0"/><path d="M454 300h-62.5v290h-61V300H268l93-166 93 166zM301.5 135L223 276l-78.5-141H198V10h50v125h53.5z" fill="#fff"/><path d="M291.5 140L223 265l-68.5-125H203V10h40v130h48.5z" fill="#d92a22"/></svg>