<svg xmlns="http://www.w3.org/2000/svg" width="604" height="604">
   <title>3.1 Рух заборонено</title>
   <path d="M302 603c-121.743 0-231.499-73.336-278.088-185.812S3.076 175.246 89.161 89.161C165.197 13.102 276.038-16.61 379.922 11.221s185.027 108.973 212.857 212.857-1.881 214.725-77.941 290.761A299.03 299.03 0 0 1 302 603z" fill="#fff" fill-rule="evenodd"/><path d="M302 2c121.339 0 230.73 73.093 277.164 185.195s20.767 241.138-65.032 326.937c-75.783 75.81-186.257 105.426-289.798 77.688S39.917 483.208 12.18 379.666s1.878-214.015 77.688-289.798C146.006 33.423 222.392 1.783 302 2m0-2C179.852 0 69.732 73.58 22.988 186.43S2.082 429.175 88.454 515.546c76.288 76.315 187.498 106.127 291.73 78.205s185.645-109.336 213.567-213.567-1.89-215.441-78.205-291.73C459.034 31.632 382.139-.219 302 0z"/><path d="M302 12C141.84 12 12 141.84 12 302s129.84 290 290 290 290-129.84 290-290S462.16 12 302 12zm0 530C169.45 542 62 434.55 62 302S169.45 62 302 62s240 107.45 240 240-107.45 240-240 240z" fill="#da251d"/>
</svg>