<svg id="Слой_1" data-name="Слой 1" xmlns="http://www.w3.org/2000/svg" width="600" height="600" viewBox="0 0 600 600">
  <defs>
    <style>
      .cls-1 {
        fill: #fff;
      }

      .cls-2 {
        fill: #da251d;
      }

      .cls-3 {
        fill: #fff500;
      }

      .cls-4 {
        fill: #005ca0;
      }
    </style>
  </defs>
  <g>
    <path class="cls-1" d="M301,601A298.99982,298.99982,0,0,1,89.5752,90.5752,298.99982,298.99982,0,1,1,512.4248,513.4248,297.04178,297.04178,0,0,1,301,601Z" transform="translate(-1 -2)"/>
    <path d="M301,4A298.07913,298.07913,0,0,1,416.99442,576.58252,298.07768,298.07768,0,0,1,185.00558,27.4175,296.13159,296.13159,0,0,1,301,4m0-2C135.31459,2,1,136.31459,1,302S135.31459,602,301,602,601,467.68542,601,302,466.68542,2,301,2Z" transform="translate(-1 -2)"/>
  </g>
  <path class="cls-2" d="M300,60a240.07656,240.07656,0,0,1,93.40341,461.16022A240.07514,240.07514,0,0,1,206.5966,78.8398,238.45013,238.45013,0,0,1,300,60m0-50C139.8374,10,10,139.8374,10,300S139.8374,590,300,590,590,460.1626,590,300,460.1626,10,300,10Z" transform="translate(-1 -2)"/>
  <g>
    <g>
      <g>
        <ellipse class="cls-3" cx="304" cy="180" rx="130" ry="73"/>
        <path d="M305,111c34.57687,0,67.02319,7.61591,91.362,21.44479C419.98837,145.86888,433,163.46791,433,182s-13.01163,36.13112-36.638,49.55521C372.02319,245.38408,339.57687,253,305,253s-67.02321-7.61592-91.36205-21.44479C190.01163,218.13112,177,200.53209,177,182s13.01163-36.13112,36.63795-49.55521C237.97679,118.61591,270.42313,111,305,111m0-4c-72.90158,0-132,33.57863-132,75s59.09842,75,132,75,132-33.57863,132-75-59.09842-75-132-75Z" transform="translate(-1 -2)"/>
      </g>
      <polygon points="441 280 167 280 167 247 205 247 227 261 381 261 403 247 441 247 441 280"/>
      <rect x="170" y="290" width="29" height="93"/>
      <rect x="408" y="290" width="29" height="93"/>
      <path d="M399,292v93H370V350H329.34A26.51366,26.51366,0,0,1,280.66,350H239v35H210V292h29v36h42.12a26.50848,26.50848,0,0,1,47.76,0H370V292Z" transform="translate(-1 -2)"/>
    </g>
    <g>
      <path class="cls-4" d="M454,420v15c-18-13-31-20-48-20-23,0-32,6-45,11-18,9-39,13-57,13s-39-4-57-13c-13-5-22-11-45-11-17,0-30,7-48,20V420c15-10.85,29-19,48-19s29.66,4.87,46,12c24,10,38,11,56,11s32-1,56-11c16.34-7.13,27-12,46-12S439,409.15,454,420Z" transform="translate(-1 -2)"/>
      <path class="cls-4" d="M454,449v15c-18-13-31-20-48-20-23,0-32,6-45,11-18,9-39,13-57,13s-39-4-57-13c-13-5-22-11-45-11-17,0-30,7-48,20V449c15-10.85,29-19,48-19s29.66,4.87,46,12c24,10,38,11,56,11s32-1,56-11c16.34-7.13,27-12,46-12S439,438.15,454,449Z" transform="translate(-1 -2)"/>
    </g>
  </g>
</svg>
