<svg data-name="Слой 1" xmlns="http://www.w3.org/2000/svg" width="604" height="604"><path d="M300 601A301 301 0 0 1 87.161 87.161 301 301 0 1 1 512.84 512.84 299.026 299.026 0 0 1 300 601z" transform="translate(2 2)" style="fill:#fff;fill-rule:evenodd"/><path d="M302 2a300 300 0 0 1 212.132 512.132A300 300 0 1 1 89.868 89.868 298.035 298.035 0 0 1 302 2m0-2A302 302 0 0 0 88.454 515.546 302 302 0 1 0 515.546 88.454 300.021 300.021 0 0 0 302 0z"/><path d="M299.166 590c-160.16 0-290-129.84-290-290s129.84-290 290-290 290 129.84 290 290-129.84 290-290 290zm0-530c-132.55 0-240 107.45-240 240s107.45 240 240 240 240-107.45 240-240-107.45-240-240-240z" transform="translate(2 2)" style="fill:#da251d"/><path d="M229.402 420.646h-46.107l81.781-191.424H149.977v-36.075h161.88v35.1zM330.578 286.642h119.336v28.946H407.73v105.058h-34.968V315.588h-42.184z"/></svg>