<svg xmlns="http://www.w3.org/2000/svg" width="604" height="604" viewBox="0 0 604 604"><defs><style>.a { fill: none; }.b { fill: rgb(255, 255, 255); fill-rule: evenodd; }.c { clip-path: url("#a"); }.d { fill: rgb(218, 37, 29); }</style><clipPath id="a"><path class="a" d="M110.862,156.82391,447.17609,493.138c-94.06639,71.65114-228.947,64.50231-314.88172-21.4324S39.21083,250.8903,110.862,156.82391Zm360.84366-24.52954C385.77092,46.35966,250.8903,39.21083,156.82391,110.862L493.138,447.17609C564.78917,353.1097,557.64034,218.22908,471.70563,132.29437Z"/></clipPath></defs><path class="b" d="M302,603A300.99962,300.99962,0,0,1,89.16113,89.16113,300.99962,300.99962,0,1,1,514.83887,514.83887,299.0265,299.0265,0,0,1,302,603Z"/><path d="M302,2A299.99973,299.99973,0,0,1,514.13184,514.13184,299.99973,299.99973,0,1,1,89.86816,89.86816,298.03491,298.03491,0,0,1,302,2m0-2A301.99976,301.99976,0,0,0,88.45393,515.54608,301.99976,301.99976,0,1,0,515.54608,88.45393,300.02142,300.02142,0,0,0,302,0Z"/><path d="M399,215V485H339V215a55,55,0,0,0-55-55h-2a55,55,0,0,0-55,55V327h50L197,469,117,327h50V215A115,115,0,0,1,282,100h2A115,115,0,0,1,399,215Z" class="c"/><path class="d" d="M302,12C141.84,12,12,141.84,12,302S141.84,592,302,592,592,462.16,592,302,462.16,12,302,12Zm93.4,511.16A240.0153,240.0153,0,0,1,115.52,150.87L453.13,488.48A239.18155,239.18155,0,0,1,395.4,523.16Zm93.08-70.03L150.87,115.52A240.01533,240.01533,0,0,1,488.48,453.13Z"/></svg>