<svg xmlns="http://www.w3.org/2000/svg" width="604" height="604" viewBox="0 0 604 604"><defs><style>.a { fill: rgb(255, 255, 255); fill-rule: evenodd; }.b { fill: rgb(218, 37, 29); }</style></defs><path class="a" d="M302,603A300.99962,300.99962,0,0,1,89.16113,89.16113,300.99962,300.99962,0,1,1,514.83887,514.83887,299.0265,299.0265,0,0,1,302,603Z"/><path d="M302,2A299.99973,299.99973,0,0,1,514.13184,514.13184,299.99973,299.99973,0,1,1,89.86816,89.86816,298.035,298.035,0,0,1,302,2m0-2A301.99975,301.99975,0,0,0,88.45393,515.54607,301.99976,301.99976,0,1,0,515.54608,88.45392,300.02132,300.02132,0,0,0,302,0Z"/><path class="b" d="M301.16556,592c-160.16,0-290-129.84-290-290s129.84-290,290-290,290,129.84,290,290S461.32554,592,301.16556,592Zm0-530c-132.55,0-240,107.45-240,240s107.45,240,240,240,240-107.45,240-240S433.71555,62,301.16556,62Z"/><path class="b" d="M294.5,202V369h-8v43.45a16.15,16.15,0,1,1-32.3,0V369H225.87a33.014,33.014,0,0,1-57.74,0H142.55v43.45a16.15,16.15,0,1,1-32.3,0V369H102.5V202a24.99631,24.99631,0,0,1,25-25h142A24.99631,24.99631,0,0,1,294.5,202Z"/><path d="M493.5,321.25h-1.9L474.31179,273.888a19.00443,19.00443,0,0,0-17.8523-12.488H357.954a18.9928,18.9928,0,0,0-18.3445,14.0505L327.25,321.25H322.5a9.5,9.5,0,0,0-9.5,9.5V369.7a14.25,14.25,0,0,0,14.25,14.25h161.5A14.25,14.25,0,0,0,503,369.7h0V330.75A9.5,9.5,0,0,0,493.5,321.25Zm-153.9,0,10.50843-42.5315a9.628,9.628,0,0,1,9.25632-6.8685h96.40609a9.615,9.615,0,0,1,9.20814,6.707L478.3,321.25Z"/><path d="M327.25,392.5h32.3v19.95A16.15,16.15,0,0,1,343.4,428.6h0a16.15,16.15,0,0,1-16.15-16.15V392.5Z"/><path d="M461.2,392.5h32.3v19.95a16.15,16.15,0,0,1-16.15,16.15h0a16.15,16.15,0,0,1-16.15-16.15V392.5Z"/></svg>