<svg id="Слой_1" data-name="Слой 1" xmlns="http://www.w3.org/2000/svg" width="600" height="600" viewBox="0 0 600 600">
  <defs>
    <style>
      .cls-1 {
        fill: #fff;
      }

      .cls-2 {
        fill: #d92727;
      }
    </style>
  </defs>
  <g>
    <path class="cls-1" d="M300,599C134.867,599.00012,1.0001,465.13339,1,300.00037A298.99983,298.99983,0,0,1,88.5752,88.5752c116.76669-116.76669,306.08291-116.76669,422.8496,0s116.76667,306.08291,0,422.8496A297.04155,297.04155,0,0,1,300,599Z"/>
    <path d="M300,2c164.62451.10544,297.99359,133.64546,297.88818,298.27A298.07913,298.07913,0,0,1,415.99442,574.58252C264.305,638.54565,89.484,567.42944,25.5208,415.74-38.38345,264.19025,32.53923,89.51913,184.00558,25.4175A296.13172,296.13172,0,0,1,300,2m0-2C134.31459,0,0,134.31459,0,300S134.31459,600,300,600,600,465.68542,600,300,465.68542,0,300,0Z"/>
  </g>
  <path class="cls-2" d="M300,58a242.07656,242.07656,0,0,1,94.18259,465.0022A242.07516,242.07516,0,0,1,205.8174,76.9978,240.44077,240.44077,0,0,1,300,58m0-48C139.8374,10,10,139.8374,10,300S139.8374,590,300,590,590,460.1626,590,300,460.1626,10,300,10Z"/>
  <path d="M444,328.99c.08,16.89-5.84,32.57-16.23,43A43.853,43.853,0,0,1,396,385H211c-23.62,0-34.38-16.99-34.38-32.77,0-15.52,10.45-32.23,33.38-32.23H400v18H210c-10.22,0-14.88,7.4-14.88,14.27,0,6.83,4.6,13.73,14.88,13.73H387c25.92,0,38-11.76,38-37,0-27.34-11.36-39-38-39H218c-20.74,0-65.55,27.43-86.34,58.25l-1.68,2.49-1.65-2.51c-31.2-47.44-31.17-92.67.07-134.43l1.64-2.19,1.59,2.23C154.9,246.43,192.03,271,218,271H396c13.98,0,26.56,6.57,35.43,18.49C439.35,300.14,443.93,314.54,444,328.99Z"/>
  <path d="M515,329a22.50771,22.50771,0,0,1-42.14,11H454V318h18.86A22.50771,22.50771,0,0,1,515,329Z"/>
</svg>
