<svg xmlns="http://www.w3.org/2000/svg" width="604" height="604" viewBox="0 0 604 604"><defs><style>.a { fill: rgb(255, 255, 255); }</style></defs><path class="a" d="M302,603A301.00031,301.00031,0,0,1,89.16064,89.16064,301,301,0,1,1,514.83887,514.83887,299.0265,299.0265,0,0,1,302,603Z"/><path d="M302,2C467.68539,2,602,136.31454,602,302S467.68539,602,302,602,2,467.68538,2,302,136.31454,2,302,2m0-2A302.07918,302.07918,0,0,0,184.44731,580.26654,302.0777,302.0777,0,0,0,419.55261,23.73346,300.11115,300.11115,0,0,0,302,0Z"/><path d="M507.06177,96.93823c-113.251-113.251-296.87256-113.251-410.12354,0s-113.251,296.87256,0,410.12354,296.87256,113.251,410.12354,0S620.31274,210.18921,507.06177,96.93823ZM104.0083,104.0083C200.0391,7.97744,348.48038-3.72261,457.27136,68.938L68.938,457.27136C-3.72261,348.48038,7.97744,200.0391,104.0083,104.0083ZM74.738,465.62141,465.62141,74.738q6.12007,4.41,12.03013,9.19008L83.92811,477.65154Q79.14306,471.74148,74.738,465.62141Zm15.63014,19.73015L485.35156,90.36817q5.64006,4.875,11.0701,10.1401L100.50827,496.42166Q95.25823,491.00663,90.36817,485.35156Zm17.21017,18.14017L503.49173,107.57834q5.25,5.415,10.1401,11.0701L118.64844,513.63183Q113.00838,508.75679,107.57834,503.49173Zm18.77012,16.58016L520.07189,126.34846q4.785,5.91006,9.19008,12.03013L138.37859,529.262Q132.25851,524.85193,126.34846,520.07189ZM499.9917,499.9917C403.9609,596.02256,255.51962,607.72261,146.72864,535.062L535.062,146.72864C607.72261,255.51962,596.02256,403.9609,499.9917,499.9917Z"/></svg>