<svg id="Слой_1" data-name="Слой 1" xmlns="http://www.w3.org/2000/svg" width="600" height="600" viewBox="0 0 600 600">
  <defs>
    <style>
      .cls-1 {
        fill: #fff;
      }

      .cls-2 {
        fill: #d92727;
      }
    </style>
  </defs>
  <g>
    <path class="cls-1" d="M300,599C134.867,599.00012,1.0001,465.13339,1,300.00037A298.99983,298.99983,0,0,1,88.5752,88.5752c116.76669-116.76669,306.08291-116.76669,422.8496,0s116.76667,306.08291,0,422.8496A297.04155,297.04155,0,0,1,300,599Z"/>
    <path d="M300,2c164.62451.10544,297.99359,133.64546,297.88818,298.27A298.07913,298.07913,0,0,1,415.99442,574.58252C264.305,638.54565,89.484,567.42944,25.5208,415.74-38.38345,264.19025,32.53923,89.51913,184.00558,25.4175A296.13172,296.13172,0,0,1,300,2m0-2C134.31459,0,0,134.31459,0,300S134.31459,600,300,600,600,465.68542,600,300,465.68542,0,300,0Z"/>
  </g>
  <path class="cls-2" d="M300,58a242.07656,242.07656,0,0,1,94.18259,465.0022A242.07516,242.07516,0,0,1,205.8174,76.9978,240.44077,240.44077,0,0,1,300,58m0-48C139.8374,10,10,139.8374,10,300S139.8374,590,300,590,590,460.1626,590,300,460.1626,10,300,10Z"/>
  <g>
    <path d="M155,360a27,27,0,1,1-27,27,27.03059,27.03059,0,0,1,27-27m0-18a45,45,0,1,0,45,45,45,45,0,0,0-45-45Z"/>
    <path d="M419,322a44,44,0,1,1-44,44,44.04978,44.04978,0,0,1,44-44m0-22a66,66,0,1,0,66,66,66,66,0,0,0-66-66Z"/>
    <path d="M447,248V180a27.00216,27.00216,0,0,0-27-27H350.9a36.00434,36.00434,0,0,0-33.18,22.03L287,248H246V173H218v75H146.5a15.00543,15.00543,0,0,0-15,15v76.48A53.05284,53.05284,0,0,1,205.22,370H344.11c-.07-1.32-.11-2.66-.11-4a75.06,75.06,0,0,1,98.12-71.37L465,272Zm-22-20a20,20,0,0,1-20,20H324.37a12.00037,12.00037,0,0,1-10.98884-16.82264L331.28,190.39A25.20461,25.20461,0,0,1,355.33,174H406c10.81,0,19,8.23,19,20Z"/>
  </g>
</svg>
