<svg id="Слой_1" data-name="Слой 1" xmlns="http://www.w3.org/2000/svg" width="600" height="600" viewBox="0 0 600 600">
  <defs>
    <style>
      .cls-1 {
        fill: #fff;
      }

      .cls-2 {
        fill: #d92727;
      }
    </style>
  </defs>
  <g>
    <path class="cls-1" d="M300,599C134.867,599.00012,1.0001,465.13339,1,300.00037A298.99983,298.99983,0,0,1,88.5752,88.5752c116.76669-116.76669,306.08291-116.76669,422.8496,0s116.76667,306.08291,0,422.8496A297.04155,297.04155,0,0,1,300,599Z"/>
    <path d="M300,2c164.62451.10544,297.99359,133.64546,297.88818,298.27A298.07913,298.07913,0,0,1,415.99442,574.58252C264.305,638.54565,89.484,567.42944,25.5208,415.74-38.38345,264.19025,32.53923,89.51913,184.00558,25.4175A296.13172,296.13172,0,0,1,300,2m0-2C134.31459,0,0,134.31459,0,300S134.31459,600,300,600,600,465.68542,600,300,465.68542,0,300,0Z"/>
  </g>
  <path class="cls-2" d="M300,58a242.07656,242.07656,0,0,1,94.18259,465.0022A242.07516,242.07516,0,0,1,205.8174,76.9978,240.44077,240.44077,0,0,1,300,58m0-48C139.8374,10,10,139.8374,10,300S139.8374,590,300,590,590,460.1626,590,300,460.1626,10,300,10Z"/>
  <g>
    <path d="M432.215,281.00814a66.0486,66.0486,0,0,0-14.42755,1.58658l-5.366-15.453h29.14535v-6.414a20.73536,20.73536,0,0,0-20.67391-20.73518l-73.58247-.21284a28.18316,28.18316,0,0,0-24.74357,14.54689l-7.088,12.81517h81.309l7.06221,20.2805a65.8111,65.8111,0,1,0,28.365-6.414Zm31.01245,96.79749a43.85829,43.85829,0,1,1-52.10236-69.4838l8.32953,23.92446a19.3513,19.3513,0,1,0,13.91487-4.7662l-8.31988-23.96316a44.38623,44.38623,0,0,1,7.16539-.58045,43.85824,43.85824,0,0,1,31.01245,74.86915Z"/>
    <path d="M364.45,280.40834l-55.42064,0-15.86581,33.42462a8.067,8.067,0,0,1-7.27182,4.58239H262.13815a8.06258,8.06258,0,0,1-7.91356-6.514l-8.05866-41.2156a8.3835,8.3835,0,0,1,8.22958-9.99352h37.5426a12.8996,12.8996,0,0,0,12.899-12.899v-3.86971a12.89959,12.89959,0,0,0-12.899-12.899H228.16534a2.28615,2.28615,0,0,1-1.97678-3.42146L234.531,213.127a2.2616,2.2616,0,0,1,1.95743-1.12867h19.00994a6.44774,6.44774,0,0,0,6.44951-6.44951,6.1326,6.1326,0,0,0-6.127-6.127H200.03257a9.67366,9.67366,0,0,0-9.67426,9.67427v12.57655a9.67366,9.67366,0,0,0,9.67426,9.67427h3.94387a1.93521,1.93521,0,0,1,1.80265,2.63784l-19.33887,49.70639a65.81466,65.81466,0,1,0,13.42466,5.65622L219.394,239.928a1.934,1.934,0,0,1,3.67946.258l25.79159,106.60721s3.6085,19.34853,23.34078,19.34853h82.93749c-7.09446-48.04886,18.38111-71.912,18.38111-71.912v-4.792A9.02833,9.02833,0,0,0,364.45,280.40834ZM198.79749,315.78067A43.86211,43.86211,0,1,1,167.785,302.93648a44.136,44.136,0,0,1,10.66427,1.29957l-9.05835,23.27628q-.79327-.0677-1.60592-.0677a19.34693,19.34693,0,1,0,14.45981,6.49143l9.455-23.92124A44.29067,44.29067,0,0,1,198.79749,315.78067Z"/>
  </g>
</svg>
