<svg id="Layer_1" data-name="Layer 1" xmlns="http://www.w3.org/2000/svg" width="600" height="600" viewBox="0 0 600 600">
  <defs>
    <style>
      .cls-1, .cls-3 {
        fill: #fff;
      }

      .cls-1 {
        fill-rule: evenodd;
      }

      .cls-2 {
        fill: #005da2;
      }
    </style>
  </defs>
  <g id="base">
    <path class="cls-1" d="M300,599A298.99982,298.99982,0,0,1,88.5752,88.5752,298.99982,298.99982,0,1,1,511.4248,511.4248,297.0401,297.0401,0,0,1,300,599Z"/>
    <path d="M300,2A297.99972,297.99972,0,0,1,510.71762,510.71762,297.99971,297.99971,0,1,1,89.28239,89.28239,296.0472,296.0472,0,0,1,300,2m0-2A299.99973,299.99973,0,0,0,87.86816,512.13184,299.99973,299.99973,0,1,0,512.13184,87.86816,298.03491,298.03491,0,0,0,300,0Z"/>
  </g>
  <circle id="blue_circle" data-name="blue circle" class="cls-2" cx="300" cy="300" r="290"/>
  <g id="icon">
    <path id="path845-1" class="cls-3" d="M248.38214,348.96729c.3189-.01612.66078,0,.98377,0h24.83882a5.15087,5.15087,0,1,1,0,10.3017h-24.8388a8.41326,8.41326,0,0,0-8.41633,8.38894,7.13232,7.13232,0,0,0,4.80925,6.72206,17.30649,17.30649,0,0,1,11.1214,21.01331h88.644l3.03323-7.10464H325.79526a7.73313,7.73313,0,1,1,0-15.46625h35.49583a7.73317,7.73317,0,1,1,0,15.46625h-2.89662l-4.64526,10.93021,19.40119,27.70805a51.615,51.615,0,1,1-28.80125,53.64H314.09989l-71.23763-54.487-4.0987,8.79881a51.57151,51.57151,0,1,1-8.5256-6.14828l15.54816-33.3371.73781-1.53022a7.13947,7.13947,0,0,0-4.12626-9.72788,17.42856,17.42856,0,0,1-11.74985-16.47727,18.70262,18.70262,0,0,1,17.73424-18.69064Zm4.78189,58.03933-5.24648,8.27962,67.22069,51.39925,25.46736-59.6789Zm96.95094,7.26859-23.33611,54.6783h17.26976a51.5551,51.5551,0,0,1,19.26458-35.82372Zm-146.73791,15.3296a43.87182,43.87182,0,1,0,31.97085,12.65174l-9.89184,21.17726a18.6569,18.6569,0,0,1-7.59661,8.27961l-10.76613,6.23021a5.16034,5.16034,0,1,1-5.16454-8.93543L212.695,462.778a8.39729,8.39729,0,0,0,3.41567-3.71628l10.84826-23.2813a43.59352,43.59352,0,0,0-22.43423-6.17558C204.14612,429.60481,203.75335,429.59446,203.37706,429.60481Zm192.09824,0a43.6395,43.6395,0,0,0-17.81632,3.77091l25.22158,36.015a7.1052,7.1052,0,0,1-5.82047,11.17611H352.19163a43.87248,43.87248,0,1,0,43.28367-50.96208Zm-27.70817,9.8645a43.88089,43.88089,0,0,0-15.93063,29.4842H388.398Z"/>
    <path id="path12204-0" class="cls-1" d="M232.13611,85.53977l-37.42035,88.93985a9.23467,9.23467,0,0,0,17.02392,7.16257l29.01913-68.97161v62.47208L211.282,293.364a11.69763,11.69763,0,1,0,22.70028,5.66l26.3239-105.57624L286.63006,299.024a11.69763,11.69763,0,1,0,22.70028-5.66L279.85352,175.14264V112.67056l29.01912,68.97163a9.23461,9.23461,0,1,0,17.02379-7.16258L288.47624,85.53977Z"/>
    <circle id="path2738-6" class="cls-3" cx="260.30633" cy="56.89379" r="21.48641"/>
    <path id="rect14901-4" class="cls-1" d="M384.56762,179.99545l20.89871,49.67126a6.92571,6.92571,0,0,1-12.76737,5.37178l-12.69632-30.17513v26.62531l16.90607,67.80366a6.92593,6.92593,0,1,1-13.44039,3.35113L368.36394,242.0649l-15.10429,60.57856a6.92594,6.92594,0,1,1-13.4404-3.35113l16.90586-67.80366V193.10233l-30.17523,12.69592a6.92571,6.92571,0,0,1-5.37186-12.76734l30.98218-13.03547Z"/>
    <circle id="ellipse12610-4" class="cls-3" cx="368.36406" cy="156.43869" r="16.3972"/>
  </g>
</svg>
