<svg id="Слой_1" data-name="Слой 1" xmlns="http://www.w3.org/2000/svg" width="600" height="600" viewBox="0 0 600 600">
  <defs>
    <style>
      .cls-1 {
        fill: #fff;
      }

      .cls-2 {
        fill: #055c9d;
      }
    </style>
  </defs>
  <g>
    <rect class="cls-1" x="0.5" y="0.5" width="599" height="599" rx="34.5"/>
    <path d="M565,1a34.03848,34.03848,0,0,1,34,34V565a34.03849,34.03849,0,0,1-34,34H35A34.03848,34.03848,0,0,1,1,565V35A34.03847,34.03847,0,0,1,35,1H565m0-1H35A35,35,0,0,0,0,35V565a35,35,0,0,0,35,35H565a35.00008,35.00008,0,0,0,35-35V35A35,35,0,0,0,565,0Z"/>
  </g>
  <rect class="cls-2" x="15" y="15" width="570" height="570" rx="25"/>
  <rect class="cls-1" x="291" y="15" width="18" height="570" transform="translate(600) rotate(90)"/>
  <polygon class="cls-1" points="175 80 175 125.5 263 125.5 263 177.5 175 177.5 175 223 52 151.5 175 80"/>
  <g>
    <path class="cls-1" d="M392.5,213.5a23,23,0,1,1-23,23,23.02607,23.02607,0,0,1,23-23m0-19a42,42,0,1,0,42,42,42,42,0,0,0-42-42Z"/>
    <path class="cls-1" d="M547,72h38V60H362.92A15.02616,15.02616,0,0,0,350.53,66.54l-32.44,47.53A35.02935,35.02935,0,0,0,312,133.81V219a11.99669,11.99669,0,0,0,12,12h18.3a50.50046,50.50046,0,0,1,100.4,0H585V134H547a5.00181,5.00181,0,0,1-5-5V77A5.00181,5.00181,0,0,1,547,72ZM417,124a7.99782,7.99782,0,0,1-8,8H339.41a7.999,7.999,0,0,1-6.79-12.23L360.95,74.3a6.98865,6.98865,0,0,1,5.94-3.3H409a7.99778,7.99778,0,0,1,8,8Zm106,5a5.00181,5.00181,0,0,1-5,5H442a5.00181,5.00181,0,0,1-5-5V77a5.00181,5.00181,0,0,1,5-5h76a5.00181,5.00181,0,0,1,5,5Z"/>
  </g>
  <polygon class="cls-1" points="585 471 585 413 216 413 216 353 53 442 216 531 216 471 585 471"/>
</svg>
