<svg id="Слой_1" data-name="Слой 1" xmlns="http://www.w3.org/2000/svg" width="600" height="600" viewBox="0 0 600 600">
  <defs>
    <style>
      .cls-1 {
        fill: #fff;
      }

      .cls-2 {
        fill: #005da2;
      }
    </style>
  </defs>
  <g>
    <rect class="cls-1" x="0.5" y="0.5" width="599" height="599" rx="39.5"/>
    <path d="M560,1a39.04414,39.04414,0,0,1,39,39V560a39.04414,39.04414,0,0,1-39,39H40A39.04414,39.04414,0,0,1,1,560V40A39.04415,39.04415,0,0,1,40,1H560m0-1H40A40,40,0,0,0,0,40V560a40,40,0,0,0,40,40H560a40,40,0,0,0,40-40V40A40,40,0,0,0,560,0Z"/>
  </g>
  <rect class="cls-2" x="15" y="15" width="570" height="570" rx="25"/>
  <path class="cls-1" d="M395,267.5V211c0,.35,152,89,152,89L395,389V332.5H205V389c0-.35-152-89-152-89l152-89v56.5Z"/>
</svg>
