<svg xmlns="http://www.w3.org/2000/svg" width="904" height="1354" viewBox="0 0 904 1354">
   <title>5.2 Кінець автомагістралі</title>
   <defs><style>.a { fill: rgb(255, 255, 255); }.b { fill: rgb(4, 174, 103); }.c { fill: rgb(226, 0, 26); }</style></defs><g><rect class="a" x="1" y="1" width="902" height="1352" rx="46"/><path d="M857,2a45,45,0,0,1,45,45V1307a45,45,0,0,1-45,45H47a45.00008,45.00008,0,0,1-45-45V47A45.00011,45.00011,0,0,1,47,2H857m0-2H47A47.05332,47.05332,0,0,0,0,47V1307a47.05335,47.05335,0,0,0,47,47H857a47.05334,47.05334,0,0,0,47-47V47A47.05331,47.05331,0,0,0,857,0Z"/></g><rect class="b" x="22" y="22" width="860" height="1310" rx="25"/><path class="a" d="M279,447H429l-30,885H50Zm345,0H474l30,885H853ZM22,347v68H137v99h67l26-99H674l26,99h67V415H882V347Zm296-30H429L442,22H391ZM513,22H462l13,295H586Z"/><path class="c" d="M22,1240,790,22h67a25,25,0,0,1,25,25v67L114,1332H47a25,25,0,0,1-25-25Z"/>
</svg>