<svg id="Слой_1" data-name="Слой 1" xmlns="http://www.w3.org/2000/svg" width="700" height="700" viewBox="0 0 700 700">
  <defs>
    <style>
      .cls-1 {
        fill: #fff;
      }

      .cls-2 {
        fill: #005da2;
      }
    </style>
  </defs>
  <g>
    <rect class="cls-1" x="0.5" y="0.5" width="699" height="699" rx="44.5"/>
    <path d="M655,1a44.04978,44.04978,0,0,1,44,44V655a44.04978,44.04978,0,0,1-44,44H45A44.04978,44.04978,0,0,1,1,655V45A44.04977,44.04977,0,0,1,45,1H655m0-1H45A45,45,0,0,0,0,45V655a45,45,0,0,0,45,45H655a45,45,0,0,0,45-45V45A45,45,0,0,0,655,0Z"/>
  </g>
  <rect class="cls-2" x="15" y="15" width="670" height="670" rx="35"/>
  <path class="cls-1" d="M606,225H538v95.25a150.008,150.008,0,0,1-47.7,109.7L466,452.61,283.44,622.85A79.93894,79.93894,0,0,0,258.02,680H258v5H186V225H118L222,40,326,225H258V549.76q8.625-9.675,18.19-18.6L437.38,380.85A90.009,90.009,0,0,0,466,315.03V225H398L502,40Z"/>
  <g>
    <rect class="cls-1" x="357" y="222" width="18" height="76"/>
    <rect class="cls-1" x="357" y="118" width="18" height="76"/>
    <rect class="cls-1" x="357" y="15" width="18" height="72"/>
  </g>
</svg>
