<svg id="Слой_1" data-name="Слой 1" xmlns="http://www.w3.org/2000/svg" width="1400" height="700" viewBox="0 0 1400 700">
  <defs>
    <style>
      .cls-1 {
        fill: #fff;
      }

      .cls-2 {
        fill: #005da2;
      }
    </style>
  </defs>
  <g>
    <rect class="cls-1" x="0.5" y="0.5" width="1399" height="699" rx="44.5"/>
    <path d="M1355,1a44.0499,44.0499,0,0,1,44,44V655a44.04991,44.04991,0,0,1-44,44H45A44.04989,44.04989,0,0,1,1,655V45A44.04987,44.04987,0,0,1,45,1H1355m0-1H45A45,45,0,0,0,0,45V655a45.00011,45.00011,0,0,0,45,45H1355a45.00008,45.00008,0,0,0,45-45V45a45,45,0,0,0-45-45Z"/>
  </g>
  <rect class="cls-2" x="20" y="20" width="1360" height="660" rx="35"/>
  <g>
    <rect class="cls-1" x="452" y="20" width="24" height="67" transform="translate(928 107) rotate(180)"/>
    <rect class="cls-1" x="452" y="114" width="24" height="70" transform="translate(928 298) rotate(180)"/>
    <rect class="cls-1" x="452" y="216" width="24" height="70" transform="translate(928 502) rotate(180)"/>
    <rect class="cls-1" x="452" y="317" width="24" height="70" transform="translate(928 704) rotate(180)"/>
    <rect class="cls-1" x="452" y="415" width="24" height="70" transform="translate(928 900) rotate(180)"/>
    <rect class="cls-1" x="452" y="514" width="24" height="70" transform="translate(928 1098) rotate(180)"/>
    <rect class="cls-1" x="452" y="614" width="24" height="66" transform="translate(928 1294) rotate(180)"/>
  </g>
  <polygon class="cls-1" points="133 259 202 259 202 680 270 680 270 259 339 259 236 76 133 259"/>
  <path class="cls-1" d="M1271,259h-69v52.07a119.94845,119.94845,0,0,1-56.39,100.79l-11.6,7.25-.01.01L751.17,658.33A27.96384,27.96384,0,0,0,738.09,680H670V259H601L704,76,807,259H738V586.36l372.5-232.74a49.95677,49.95677,0,0,0,23.5-41.87c.01-.18.01-.36.01-.54V259H1065L1168,76Z"/>
  <g>
    <rect class="cls-1" x="939" y="20" width="24" height="67" transform="translate(1902 107) rotate(180)"/>
    <rect class="cls-1" x="939" y="114" width="24" height="70" transform="translate(1902 298) rotate(180)"/>
    <rect class="cls-1" x="939" y="216" width="24" height="70" transform="translate(1902 502) rotate(180)"/>
  </g>
  <g>
    <circle class="cls-1" cx="236" cy="447" r="111.5"/>
    <circle class="cls-2" cx="236" cy="447" r="106.5"/>
    <g>
      <path class="cls-1" d="M172.61292,489.44772l-1.792-14.01282s9.77667,5.37657,20.04277,5.37657c20.5316,0,21.67261-30.14613,21.67261-30.14613-5.70386,4.56285-13.68793,9.12569-21.67261,9.12569-6.84427,0-22.813-4.56284-22.813-26.23545,0-18.25017,12.54692-34.05558,27.37526-34.05558,19.39119,0,33.07912,14.665,33.07912,43.18127,0,27.37586-10.2655,51.81873-36.50095,51.81873C182.879,494.5,172.61292,489.44772,172.61292,489.44772Zm39.434-54.58778c-.65157-4.72559-3.42183-20.69494-14.33951-20.69494-10.10275,0-14.82834,10.2661-14.82834,18.25017,0,9.12569,6.84367,13.68854,11.40651,13.68854C205.692,446.10371,212.04687,434.85994,212.04687,434.85994Z"/>
      <path class="cls-1" d="M303.94932,447.24412c0,27.37586-12.54752,46.76644-30.7977,46.76644-18.25077,0-30.79769-19.39058-30.79769-46.76644s12.54692-46.76645,30.79769-46.76645C291.4018,400.47767,303.94932,421.33535,303.94932,447.24412Zm-45.62664,0c0,22.813,6.02934,32.58968,14.82894,32.58968,8.799,0,14.82835-9.77667,14.82835-32.58968s-6.02935-32.59089-14.82835-32.59089C264.352,414.65323,258.32268,424.4311,258.32268,447.24412Z"/>
    </g>
  </g>
  <rect class="cls-1" x="1134.01001" y="258.96997" width="68" height="0.03003"/>
  <g>
    <circle class="cls-1" cx="704" cy="447" r="111.5"/>
    <circle class="cls-2" cx="704" cy="447" r="106.5"/>
    <g>
      <path class="cls-1" d="M653.35692,415.71862v22.01255c3.47551-4.63442,9.76472-5.79271,15.06093-5.79271A28.39661,28.39661,0,0,1,696.22312,460.902c0,18.53766-13.90263,33.598-35.91519,33.598-10.42651,0-22.01255-4.63442-22.01255-4.63442l-2.31659-15.06031c5.6268,3.80671,14.39913,4.63441,22.01194,4.63441,9.26883,0,20.85425-5.79271,20.85425-17.37814,0-8.11053-5.79271-17.37936-16.21984-17.37936-6.951,0-11.58542,5.79271-13.90263,6.95224l-10.42713-5.79272V400.6583h53.29333l-4.63381,15.06032Z"/>
      <path class="cls-1" d="M772.02121,447c0,27.80527-12.74433,47.5-31.28077,47.5-18.53705,0-31.28077-19.69473-31.28077-47.5s12.74372-47.5,31.28077-47.5C759.27688,399.5,772.02121,420.68485,772.02121,447Zm-46.34231,0c0,23.17085,6.12392,33.10087,15.06154,33.10087,8.937,0,15.06093-9.93,15.06093-33.10087s-6.12391-33.10209-15.06093-33.10209C731.80282,413.89791,725.6789,423.82915,725.6789,447Z"/>
    </g>
  </g>
</svg>
