<svg id="Слой_1" data-name="Слой 1" xmlns="http://www.w3.org/2000/svg" width="1400" height="700" viewBox="0 0 1400 700">
  <defs>
    <style>
      .cls-1 {
        fill: #fff;
      }

      .cls-2 {
        fill: #005da2;
      }

      .cls-3 {
        fill: #da251d;
      }
    </style>
  </defs>
  <g>
    <rect class="cls-1" x="0.5" y="0.5" width="1399" height="699" rx="44.5"/>
    <path d="M1355,1a44.04992,44.04992,0,0,1,44,44V655a44.04992,44.04992,0,0,1-44,44H45A44.04989,44.04989,0,0,1,1,655V45A44.04989,44.04989,0,0,1,45,1H1355m0-1H45A45.00011,45.00011,0,0,0,0,45V655a45.00011,45.00011,0,0,0,45,45H1355a45.00008,45.00008,0,0,0,45-45V45a45.00008,45.00008,0,0,0-45-45Z"/>
  </g>
  <rect class="cls-2" x="20" y="20" width="1360" height="660" rx="35"/>
  <g>
    <rect class="cls-1" x="435" y="20" width="24" height="67" transform="translate(894 107) rotate(180)"/>
    <rect class="cls-1" x="435" y="114" width="24" height="70" transform="translate(894 298) rotate(180)"/>
    <rect class="cls-1" x="435" y="216" width="24" height="70" transform="translate(894 502) rotate(180)"/>
    <rect class="cls-1" x="435" y="317" width="24" height="70" transform="translate(894 704) rotate(180)"/>
    <rect class="cls-1" x="435" y="415" width="24" height="70" transform="translate(894 900) rotate(180)"/>
    <rect class="cls-1" x="435" y="514" width="24" height="70" transform="translate(894 1098) rotate(180)"/>
    <rect class="cls-1" x="435" y="614" width="24" height="66" transform="translate(894 1294) rotate(180)"/>
  </g>
  <polygon class="cls-1" points="133 259 202 259 202 680 270 680 270 259 339 259 236 76 133 259"/>
  <polygon class="cls-1" points="594 259 663 259 663 680 731 680 731 259 800 259 697 76 594 259"/>
  <polygon class="cls-1" points="1061 259 1130 259 1130 680 1198 680 1198 259 1267 259 1164 76 1061 259"/>
  <g>
    <rect class="cls-1" x="924" y="20" width="24" height="67" transform="translate(1872 107) rotate(180)"/>
    <rect class="cls-1" x="924" y="114" width="24" height="70" transform="translate(1872 298) rotate(180)"/>
    <rect class="cls-1" x="924" y="216" width="24" height="70" transform="translate(1872 502) rotate(180)"/>
    <rect class="cls-1" x="924" y="317" width="24" height="70" transform="translate(1872 704) rotate(180)"/>
    <rect class="cls-1" x="924" y="415" width="24" height="70" transform="translate(1872 900) rotate(180)"/>
    <rect class="cls-1" x="924" y="514" width="24" height="70" transform="translate(1872 1098) rotate(180)"/>
    <rect class="cls-1" x="924" y="614" width="24" height="66" transform="translate(1872 1294) rotate(180)"/>
  </g>
  <g>
    <circle class="cls-1" cx="236" cy="447" r="103"/>
    <path class="cls-3" d="M236,361a86,86,0,1,1-86,86,86.09737,86.09737,0,0,1,86-86m0-12a98,98,0,1,0,98,98,98,98,0,0,0-98-98Z"/>
    <g>
      <path d="M180.125,413.84229h10.24805v68.3164H178.417V429.21338l-9.14941,5.7334-4.02539-5.24512Z"/>
      <path d="M251.126,448.00049c0,20.49512-9.39356,35.01172-23.05664,35.01172s-23.05664-14.5166-23.05664-35.01172,9.39355-35.0127,23.05664-35.0127S251.126,428.603,251.126,448.00049Zm-34.15821,0c0,17.0791,4.51368,24.39844,11.10157,24.39844s11.10156-7.31934,11.10156-24.39844-4.51367-24.39942-11.10156-24.39942S216.96777,430.92139,216.96777,448.00049Z"/>
      <path d="M306.75781,448.00049c0,20.49512-9.39355,35.01172-23.05664,35.01172s-23.05664-14.5166-23.05664-35.01172,9.39356-35.0127,23.05664-35.0127S306.75781,428.603,306.75781,448.00049Zm-34.1582,0c0,17.0791,4.51367,24.39844,11.10156,24.39844s11.10156-7.31934,11.10156-24.39844-4.51367-24.39942-11.10156-24.39942S272.59961,430.92139,272.59961,448.00049Z"/>
    </g>
  </g>
  <g>
    <circle class="cls-1" cx="695" cy="443" r="103"/>
    <path class="cls-3" d="M695,357a86,86,0,1,1-86,86,86.09737,86.09737,0,0,1,86-86m0-12a98,98,0,1,0,98,98,98,98,0,0,0-98-98Z"/>
    <g>
      <path d="M688.53271,425.92139c0,11.95507-11.95507,15.37109-11.95507,15.37109s13.66308,5.124,13.66308,17.0791c0,8.54-5.97754,19.64063-23.05664,19.64063s-23.05664-11.10059-23.05664-19.64063c0-11.95508,13.66309-17.0791,13.66309-17.0791s-11.95508-3.416-11.95508-15.37109c0-11.95606,10.24707-17.9336,21.34863-17.9336S688.53271,413.96533,688.53271,425.92139ZM656.08252,459.2251c0,5.97851,5.97754,8.54,11.10156,8.54s11.10156-2.56153,11.10156-8.54c0-6.83106-11.10156-12.8086-11.10156-12.8086S656.08252,453.24756,656.08252,459.2251Zm1.708-33.30371c0,5.124,9.39355,10.24707,9.39355,10.24707s9.39356-5.123,9.39356-10.24707c0-5.97754-4.26953-8.17383-9.39356-8.17383S657.79053,419.94385,657.79053,425.92139Z"/>
      <path d="M745.87256,443.00049c0,20.49512-9.39356,35.01172-23.05664,35.01172s-23.05664-14.5166-23.05664-35.01172,9.39355-35.0127,23.05664-35.0127S745.87256,423.603,745.87256,443.00049Zm-34.1582,0c0,17.0791,4.51367,24.39844,11.10156,24.39844s11.10156-7.31934,11.10156-24.39844-4.51367-24.39942-11.10156-24.39942S711.71436,425.92139,711.71436,443.00049Z"/>
    </g>
  </g>
  <g>
    <circle class="cls-1" cx="1164" cy="443" r="103"/>
    <path class="cls-3" d="M1164,357a86,86,0,1,1-86,86,86.09737,86.09737,0,0,1,86-86m0-12a98,98,0,1,0,98,98,98,98,0,0,0-98-98Z"/>
    <g>
      <path d="M1126.66943,419.94385v16.22461c2.56153-3.416,7.19825-4.26953,11.10157-4.26953a20.93091,20.93091,0,0,1,20.49511,21.34863c0,13.66406-10.248,24.76465-26.47265,24.76465-7.68555,0-16.22559-3.415-16.22559-3.415l-1.708-11.10156c4.14844,2.80566,10.61426,3.416,16.22559,3.416,6.832,0,15.37109-4.27051,15.37109-12.80957,0-5.97754-4.26953-12.80957-11.95508-12.80957-5.124,0-8.54,4.26953-10.248,5.124l-7.68555-4.2705V408.84229h39.28223l-3.416,11.10156Z"/>
      <path d="M1214.14014,443.00049c0,20.49512-9.39356,35.01172-23.05664,35.01172s-23.05664-14.5166-23.05664-35.01172,9.39355-35.0127,23.05664-35.0127S1214.14014,423.603,1214.14014,443.00049Zm-34.15821,0c0,17.0791,4.51368,24.39844,11.10157,24.39844s11.10156-7.31934,11.10156-24.39844-4.51367-24.39942-11.10156-24.39942S1179.98193,425.92139,1179.98193,443.00049Z"/>
    </g>
  </g>
</svg>
