<?xml version="1.0" encoding="UTF-8" standalone="no"?>
<svg
   id="SVG"
   viewBox="0 0 599.0272 895.3817"
   version="1.1"
   sodipodi:docname="Ukraine_road_sign_5.24.2.svg"
   xml:space="preserve"
   inkscape:version="1.2.2 (732a01da63, 2022-12-09)"
   xmlns:inkscape="http://www.inkscape.org/namespaces/inkscape"
   xmlns:sodipodi="http://sodipodi.sourceforge.net/DTD/sodipodi-0.dtd"
   xmlns="http://www.w3.org/2000/svg"
   xmlns:svg="http://www.w3.org/2000/svg"
   xmlns:rdf="http://www.w3.org/1999/02/22-rdf-syntax-ns#"
   xmlns:cc="http://creativecommons.org/ns#"
   xmlns:dc="http://purl.org/dc/elements/1.1/"><title
     id="title4954">5.27.1 Зміна напрямку руху на дорозі з розділювальною смугою</title><sodipodi:namedview
     id="namedview4534"
     pagecolor="#ffffff"
     bordercolor="#000000"
     borderopacity="0.25"
     inkscape:showpageshadow="2"
     inkscape:pageopacity="0.0"
     inkscape:pagecheckerboard="0"
     inkscape:deskcolor="#d1d1d1"
     showgrid="false"
     inkscape:zoom="0.46348947"
     inkscape:cx="367.86164"
     inkscape:cy="469.26632"
     inkscape:window-width="1920"
     inkscape:window-height="991"
     inkscape:window-x="-9"
     inkscape:window-y="-9"
     inkscape:window-maximized="1"
     inkscape:current-layer="SVG" /><defs
     id="defs4517"><style
       id="style4515">.cls-1{fill:#000;}.cls-1,.cls-2,.cls-3{stroke-width:0px;}.cls-4{fill:#fff500;}.cls-4,.cls-5{stroke:#000;stroke-miterlimit:10;}.cls-5{fill:none;stroke-width:11px;}.cls-2{fill:#da251d;}.cls-3{fill:#fff;}</style></defs><rect
     id="Background_and_thin_black_border"
     class="cls-4"
     x=".5"
     y=".5"
     width="598.0272"
     height="894.3817"
     rx="48.3913"
     ry="48.3913" /><g
     id="g4723"
     transform="matrix(-1,0,0,1,599.9836,0)"><path
       style="color:#000000;fill:#000000;stroke-miterlimit:10;-inkscape-stroke:none"
       d="M 49.296875,8.9238281 C 27.34045,8.9238281 9.4921875,26.772091 9.4921875,48.728516 V 846.98828 c 0,21.95643 17.8482625,39.80469 39.8046875,39.80469 H 550.6875 c 21.95642,0 39.80469,-17.84826 39.80469,-39.80469 V 48.728516 c 0,-21.956425 -17.84827,-39.8046879 -39.80469,-39.8046879 z m 0,10.9999999 H 550.6875 c 16.0527,0 28.80469,12.751988 28.80469,28.804688 V 846.98828 c 0,16.0527 -12.75199,28.80469 -28.80469,28.80469 H 49.296875 c -16.0527,0 -28.804688,-12.75199 -28.804688,-28.80469 V 48.728516 c 0,-16.0527 12.751988,-28.804688 28.804688,-28.804688 z"
       id="Sign_inner_border" /><g
       id="Black_rectangles"><rect
         class="cls-1"
         x="262.5163"
         y="19.902201"
         width="63.0009"
         height="255.9783"
         id="rect4521" /><rect
         class="cls-1"
         x="262.5163"
         y="609.8587"
         width="66.888603"
         height="267.0451"
         id="rect4523" /></g><path
       class="cls-1"
       d="m 230.3226,364.9769 31.4119,29.6616 -43.134,41.8724 -41.7391,41.6087 -56.9234,55.7075 c -9.2261,9.0291 -17.1843,19.2725 -23.5708,30.491 -6.0391,10.6083 -11.8521,23.3347 -11.8521,33.0188 v 16.9614 l 0.618,262.5767 h 52.3696 V 613.8696 c 0,0 0.0439,-9.0582 4.9239,-20.1848 3.6921,-8.4183 10.5223,-17.7262 20.087,-26.8696 6.9435,-6.6376 14.1215,-15.0002 21.587,-22.663 16.4103,-16.8441 31.7609,-32.25 31.7609,-32.25 l 80.6232,-84.45 0.7355,0.6946 29.559,32.2853 38.1985,-132.2286 -134.655,36.7735 z"
       id="path4526" /><g
       id="STOP_Sign"><circle
         class="cls-3"
         cx="137.33971"
         cy="161.55431"
         r="96.097801"
         id="circle4528" /><path
         d="m 137.33971,65.456304 c 53.07261,0 96.098,43.025396 96.098,96.098006 0,53.0726 -43.02539,96.098 -96.098,96.098 -53.07261,0 -96.098004,-43.0254 -96.098004,-96.098 0,-53.07261 43.025394,-96.098006 96.098004,-96.098006 z m 0,175.627386 c 43.92341,0 79.52938,-35.60597 79.52938,-79.52938 0,-43.92342 -35.60597,-79.529385 -79.52938,-79.529385 -43.923417,0 -79.529383,35.605965 -79.529383,79.529385 0,43.92341 35.605966,79.52938 79.529383,79.52938 z"
         fill="#da251d"
         id="path4792"
         style="stroke-width:0.331372" /></g><path
       id="rect4712"
       style="fill:#000000;fill-rule:evenodd;stroke-width:12.8858;stroke-linecap:round;paint-order:stroke fill markers"
       d="M 478.78048 19.902344 L 478.78048 506.33984 L 521.71798 506.33984 L 452.50508 627.55859 L 383.29219 506.33984 L 426.22969 506.33984 L 426.22969 19.902344 L 478.78048 19.902344 z " /></g><metadata
     id="metadata4952"><rdf:RDF><cc:Work
         rdf:about=""><dc:title>5.27.1 Зміна напрямку руху на дорозі з розділювальною смугою</dc:title></cc:Work></rdf:RDF></metadata></svg>
