<svg id="svg2" xmlns="http://www.w3.org/2000/svg" width="600" height="600" viewBox="0 0 600 600">
  <defs>
    <style>
      .cls-1, .cls-3 {
        fill: #fff;
      }

      .cls-1 {
        stroke: #000;
        stroke-width: 2px;
      }

      .cls-2 {
        fill: #727270;
      }
    </style>
  </defs>
  <g id="layer1">
    <path id="rect3041" class="cls-1" d="M30.30066,1H569.69933A29.30067,29.30067,0,0,1,599,30.30067V569.69934A29.30066,29.30066,0,0,1,569.69934,599H30.30066A29.30066,29.30066,0,0,1,1,569.69934V30.30066A29.30066,29.30066,0,0,1,30.30066,1Z"/>
    <path id="path8875-4" d="M136.1673,493.6015H147.75a16.96586,16.96586,0,0,1,11.74355,4.5044q4.78581,4.424,4.987,12.22619a13.94888,13.94888,0,0,1-5.79134,11.1001,22.24531,22.24531,0,0,1-13.51313,4.34351q-14.43822-.72392-21.3958-5.79132t-6.91744-5.79133l-11.58269,14.15662q.36195.88476,11.10007,7.07825t27.50887,7.07837q18.45984-.72392,28.47413-10.61744,10.01407-9.89355,10.13485-20.26971-.40532-10.20034-5.67218-15.82489a31.38029,31.38029,0,0,0-10.53408-7.81714q-5.26709-2.1925-5.67216-2.09729.33357.1072,4.6712-1.71594a24.37248,24.37248,0,0,0,8.6751-6.86383q4.33745-5.04052,4.67123-14.58563a26.38748,26.38748,0,0,0-9.00877-19.948q-8.848-8.04337-24.45235-8.3653-15.73091.7241-25.46353,5.79132-9.73272,5.06754-10.01995,5.79132l9.74417,15.07587q-.0804-.62036,6.11309-4.964,6.19347-4.34336,19.62622-4.964,10.33584.523,13.674,5.6305,3.338,5.10772,3.05655,8.52612.08054,3.33819-3.21741,7.88263-3.298,4.54467-10.9392,4.987H136.1673Z" transform="translate(0 -1)"/>
    <path id="path8877-8" d="M242.73686,434.40106q-21.20052.58622-31.57663,15.85724-10.37617,15.27137-10.34167,38.19531-.03465,22.92417,10.34167,38.19532,10.37613,15.27126,31.57663,15.85723,21.20034-.586,31.57662-15.85723,10.376-15.27119,10.34167-38.19532.03451-22.924-10.34167-38.19531Q263.93721,434.98722,242.73686,434.40106Zm0,16.73053q10.81845.161,17.5349,9.974,6.71622,9.81327,6.91745,27.348-.2012,17.53491-6.91745,27.348-6.71644,9.81308-17.5349,9.974-10.81863-.16075-17.53493-9.974t-6.91743-27.348q.201-17.53482,6.91745-27.348,6.71626-9.813,17.5349-9.974Z" transform="translate(0 -1)"/>
    <path id="path8879-5" d="M308.24142,539.93225h18.01752V493.60144h38.60895v46.33081h18.01752V436.975H364.86789V478.1579H326.25894V436.975H308.24142Z" transform="translate(0 -1)"/>
    <path id="path8881-2" d="M438.09433,503.89722,450.964,460.14038l12.86966,43.75684Zm2.57391-66.92218L407.20715,539.93231h19.30451l6.43481-20.59149h36.035l6.43481,20.59149h19.30447L461.2597,436.975Z" transform="translate(0 -1)"/>
    <circle id="circle182" class="cls-2" cx="300" cy="232.00001" r="172.99999"/>
    <path id="path12204" class="cls-3" d="M253.99677,176.57826l-25.24338,59.99792a6.22961,6.22961,0,0,0,11.48417,4.83179l19.576-46.52755v42.143l-19.88477,79.75089a7.89111,7.89111,0,0,0,15.31339,3.8182L273,249.37185l17.75783,71.22066a7.8911,7.8911,0,1,0,15.31338-3.81815l-19.88476-79.75092v-42.143l19.576,46.52757a6.2296,6.2296,0,1,0,11.48412-4.83182l-25.24333-59.99791Z" transform="translate(0 -1)"/>
    <circle id="path2738" class="cls-3" cx="273" cy="154" r="15"/>
    <path id="rect14901" class="cls-3" d="M360.33286,238.6153l14.78008,35.12878a4.898,4.898,0,1,1-9.02937,3.79906l-8.97915-21.3406v18.83009l11.95634,47.95244a4.89821,4.89821,0,1,1-9.50541,2.37L348.87319,282.5124,338.191,325.3551a4.89818,4.89818,0,1,1-9.50535-2.37L340.642,275.03263v-27.1478l-21.34075,8.97888a4.898,4.898,0,0,1-3.79906-9.02939l21.91132-9.219Z" transform="translate(0 -1)"/>
    <circle id="ellipse12610" class="cls-3" cx="349" cy="220.50001" r="11.99998"/>
    <path id="rect8666" d="M45,20A24.9453,24.9453,0,0,0,20,45V555a24.94532,24.94532,0,0,0,25,25H555a24.94533,24.94533,0,0,0,25-25V45a24.94532,24.94532,0,0,0-25-25Zm0,10H486.93749L30,486.9375V45A14.96718,14.96718,0,0,1,45,30Zm456.07812,0h23.85547L30,524.93359V501.08008Zm37.99805,0H555a14.91639,14.91639,0,0,1,6.43555,1.49219L31.49414,561.43555A14.91354,14.91354,0,0,1,30,555V539.07617Zm29.43164,8.56445A14.91611,14.91611,0,0,1,570,45V60.92383L60.92383,570H45a14.91347,14.91347,0,0,1-6.43555-1.49414ZM570,75.06641V98.91992L98.91992,570H75.06836Zm0,37.9961V555a14.96718,14.96718,0,0,1-15,15H113.0625Z" transform="translate(0 -1)"/>
  </g>
</svg>
