<svg id="Слой_1" data-name="Слой 1" xmlns="http://www.w3.org/2000/svg" width="700" height="700" viewBox="0 0 700 700">
  <defs>
    <style>
      .cls-1 {
        fill: #fff;
      }

      .cls-2 {
        fill: #055c9d;
      }
    </style>
  </defs>
  <g>
    <rect class="cls-1" x="0.5" y="0.5" width="699" height="699" rx="44.5"/>
    <path d="M655,1a44.04978,44.04978,0,0,1,44,44V655a44.04978,44.04978,0,0,1-44,44H45A44.04978,44.04978,0,0,1,1,655V45A44.04977,44.04977,0,0,1,45,1H655m0-1H45A45,45,0,0,0,0,45V655a45,45,0,0,0,45,45H655a45,45,0,0,0,45-45V45A45,45,0,0,0,655,0Z"/>
  </g>
  <rect class="cls-2" x="10" y="10" width="680" height="680" rx="35"/>
  <path class="cls-1" d="M382,230H237V625h54V481h91c63.41787,0,115-54.22989,115-126C497,277.84713,444.79885,230,382,230ZM372,427H291V283h81c39.47356,0,71,32.52644,71,72C443,394.635,411.635,427,372,427Z"/>
  <polygon class="cls-1" points="72 190 72 250 350 140 621 250 621 190 350 80 72 190"/>
</svg>
