<svg xmlns="http://www.w3.org/2000/svg" viewBox="0 0 600 690"><path d="M45 .5h510c24.6 0 44.5 19.9 44.5 44.5v600c0 24.6-19.9 44.5-44.5 44.5H45C20.4 689.5.5 669.6.5 645V45C.5 20.4 20.4.5 45 .5z" fill="#fff"/><path d="M555 1c24.3 0 44 19.7 44 44v600c0 24.3-19.7 44-44 44H45c-24.3 0-44-19.7-44-44V45C1 20.7 20.7 1 45 1h510m0-1H45C20.1 0 0 20.1 0 45v600c0 24.9 20.1 45 45 45h510c24.9 0 45-20.1 45-45V45c0-24.9-20.1-45-45-45zm35 380V45c0-19.3-15.7-35-35-35H45c-19.3 0-35 15.7-35 35v335c0 12.3 6.4 23.7 17 30-10.5 6.3-17 17.7-17 30v205c0 19.3 15.7 35 35 35h510c19.3 0 35-15.7 35-35V440c0-12.3-6.4-23.7-17-30 10.6-6.3 17-17.7 17-30zm-10 60v205c0 13.8-11.2 25-25 25H45c-13.8 0-25-11.2-25-25V440c0-13.8 11.2-25 25-25h510c13.8 0 25 11.2 25 25zm-25-35H45c-13.8 0-25-11.2-25-25V45c0-13.8 11.2-25 25-25h510c13.8 0 25 11.2 25 25v335c0 13.8-11.2 25-25 25zM127.9 520.1h-13.3v-69.3h26.8c14.6 0 24 8.7 24 22.2s-9.5 22.2-24 22.2h-13.6l.1 24.9zm11.7-57.5h-11.7v20.8h11.8c8.1 0 12.3-3.5 12.3-10.4 0-6.8-4.3-10.4-12.4-10.4zm54.8 58.4c-14.8 0-23.1-9.2-23.1-25.6s8.3-25.6 23.1-25.6 23.1 9.2 23.1 25.6c-.1 16.4-8.4 25.6-23.1 25.6zm0-11c6.9 0 10.5-4.9 10.5-14.6s-3.6-14.6-10.5-14.6-10.5 4.9-10.5 14.6 3.5 14.6 10.5 14.6h0zm39.8-23.9l-8.9-5.1c4.3-7.6 11.1-11.2 21.3-11.2 12.2 0 19.5 5.1 19.5 14.3.2 4.5-2.1 8.7-6 10.9 4.5 2 7.3 6.6 7.1 11.6 0 9.2-7.6 14.6-20.7 14.6-10.6 0-17.4-3.6-21.7-11.1l8.9-5.1c2.4 4.1 6.1 5.9 11.9 5.9s9-2.1 9-5.9c0-3.3-2.2-5.2-6.2-5.2h-8.7V491h7.9c3.8 0 5.9-2 5.9-5.1 0-3.6-2.8-5.5-8-5.5-5.4-.3-9 1.5-11.3 5.7zm56.9 14.2v19.8h-12.5v-49.5h12.5V489h4.7l12.4-18.3h14.7l-16.8 24 18.3 25.5h-14.8l-13.8-19.8h-4.7zm36 10.3c8.4-2.3 10.2-8 11.6-40h35.9v49.5h-12.5v-38.9h-12.4c-1.2 28.3-5.4 36.9-19.9 40.2l-2.7-10.8zm60.2-34a31.41 31.41 0 0 1 20.4-6.8c13.3 0 20.1 5.8 20.1 17.3v19.8c-.1 2.8 1.7 5.3 4.4 6.1l-3.8 7.9c-5.3 0-9.2-1.7-11.3-5-2.9 3.3-8.1 5.1-14.5 5.1-10.8 0-17-5.4-17-14.4 0-9.5 7-15.4 18.8-16.2l10.9-.7v-2.1c0-4.6-3.2-7.1-8.9-7.1-4.6 0-9.1 1.6-12.7 4.5l-6.4-8.4zm18.1 22.5c-5 .3-7.8 2.7-7.8 6.4 0 3.9 2.8 6 8.2 6 6.2 0 9.5-3.1 9.5-9.4v-3.7l-9.9.7zM436 534v-24.6h5.3c4.5-4 5.4-13.5 6.3-38.8H484v38.8h7.4V534h-9.5l-2.3-13.9h-32l-2.2 13.9H436zm35.7-24.5v-28.2h-12.9c-.5 13.4-1.6 22.2-4 28.2h16.9zm-245 60.3c13 0 20.3 9.2 20.3 25.6s-7.2 25.6-20.3 25.6c-5.7 0-10.2-2-13.3-5.6V638H201v-67.3h11.8v5.6c3.1-4.4 7.8-6.5 13.9-6.5zm-2.6 11c-7 0-10.6 4.9-10.6 14.6S217 610 224.1 610c6.9 0 10.5-4.9 10.5-14.5 0-9.8-3.6-14.7-10.5-14.7zm40.5 58.1c-2.8.1-5.6-.5-8.2-1.6l1.2-10.5c1.5.7 3.2 1 4.9 1 4.1 0 6.4-2.1 8.2-7.8l-18.8-49.3h13.4l11.4 32.4 11.3-32.4h13.4L281 624.5c-4.3 10.7-8.4 14.4-16.4 14.4zm53.2-18.8h-14.3l17.5-25.5-16.4-24h14.3l9.4 14.9 9.5-14.9h14.3l-16.4 24 17.4 25.5h-14.2l-10.6-15.9-10.5 15.9zm50.5 18.8c-2.8.1-5.6-.5-8.2-1.6l1.2-10.5c1.5.7 3.2 1 4.9 1 4.1 0 6.4-2.1 8.2-7.8l-18.8-49.3H369l11.4 32.4 11.3-32.4h13.4l-20.4 53.8c-4.2 10.7-8.4 14.4-16.4 14.4z"/><circle cx="157.6" cy="341.9" r="26.6"/><circle cx="211.4" cy="341.9" r="26.6"/><circle cx="388" cy="341.9" r="26.6"/><circle cx="441.8" cy="341.9" r="26.6"/><path d="M515.8 236.5l-27.2-50.7c-2.8-5.3-8.4-8.6-14.4-8.6H130.8c-5.6 0-10.8 2.9-13.8 7.6L84.9 236c-2.2 3.5-3.3 7.5-3.3 11.5v72c0 9 7.3 16.3 16.3 16.3h20.6c1.2-18.3 16.5-32.6 34.8-32.6h293.2c18.4 0 33.6 14.3 34.8 32.6h20.6c9 0 16.3-7.3 16.3-16.3v-72.8c.2-3.5-.7-7-2.4-10.2zm-370.1 1.6a10.93 10.93 0 0 1-10.9 10.9h-23.9a10.93 10.93 0 0 1-10.9-10.9c0-1.8.5-3.7 1.4-5.3l20.5-36.9c1.9-3.4 5.6-5.6 9.5-5.6h3.4a10.93 10.93 0 0 1 10.9 10.9v36.9zm94.5 0a10.93 10.93 0 0 1-10.9 10.9h-56.5a10.93 10.93 0 0 1-10.9-10.9v-36.9a10.93 10.93 0 0 1 10.9-10.9h56.5a10.93 10.93 0 0 1 10.9 10.9v36.9zm103.3 0a10.93 10.93 0 0 1-10.9 10.9h-65.2a10.93 10.93 0 0 1-10.9-10.9v-36.9a10.93 10.93 0 0 1 10.9-10.9h65.2a10.93 10.93 0 0 1 10.9 10.9v36.9zm94.5 0a10.93 10.93 0 0 1-10.9 10.9h-56.5a10.93 10.93 0 0 1-10.9-10.9v-36.9a10.93 10.93 0 0 1 10.9-10.9h56.5a10.93 10.93 0 0 1 10.9 10.9v36.9zm51.1 10.9h-23.9a10.93 10.93 0 0 1-10.9-10.9v-36.9a10.93 10.93 0 0 1 10.9-10.9h3.4c3.9 0 7.6 2.1 9.5 5.6l20.5 36.9c2.9 5.3 1 11.9-4.2 14.8-1.7.9-3.5 1.4-5.3 1.4zm-122.8 63c-9.4 6.8-15 17.7-15.2 29.3H248.4c-.2-11.4-5.6-22.1-14.7-28.9v-.4h132.6zM308.7 71.8V52.3h-17.4v19.6l-64.1 54.3 34.5 39.1h76.5l34.6-39.1-64.1-54.4zm22.8 81.5h-63l-22.8-27.2L300 80.5l54.3 45.6-22.8 27.2z"/></svg>