<svg xmlns="http://www.w3.org/2000/svg" viewBox="0 0 600 690"><path d="M45 .5h510c24.6 0 44.5 19.9 44.5 44.5v600c0 24.6-19.9 44.5-44.5 44.5H45C20.4 689.5.5 669.6.5 645V45C.5 20.4 20.4.5 45 .5z" fill="#fff"/><path d="M555 1c24.3 0 44 19.7 44 44v600c0 24.3-19.7 44-44 44H45c-24.3 0-44-19.7-44-44V45C1 20.7 20.7 1 45 1h510m0-1H45C20.1 0 0 20.1 0 45v600c0 24.9 20.1 45 45 45h510c24.9 0 45-20.1 45-45V45c0-24.9-20.1-45-45-45zm35 380V45c0-19.3-15.7-35-35-35H45c-19.3 0-35 15.7-35 35v335c0 12.3 6.4 23.7 17 30-10.5 6.3-17 17.7-17 30v205c0 19.3 15.7 35 35 35h510c19.3 0 35-15.7 35-35V440c0-12.3-6.4-23.7-17-30 10.6-6.3 17-17.7 17-30zm-10 60v205c0 13.8-11.2 25-25 25H45c-13.8 0-25-11.2-25-25V440c0-13.8 11.2-25 25-25h510c13.8 0 25 11.2 25 25zm-25-35H45c-13.8 0-25-11.2-25-25V45c0-13.8 11.2-25 25-25h510c13.8 0 25 11.2 25 25v335c0 13.8-11.2 25-25 25zM127.9 520.1h-13.3v-69.3h26.8c14.6 0 24 8.7 24 22.2s-9.5 22.2-24 22.2h-13.6l.1 24.9zm11.7-57.5h-11.7v20.8h11.8c8.1 0 12.3-3.5 12.3-10.4 0-6.8-4.3-10.4-12.4-10.4zm54.8 58.4c-14.8 0-23.1-9.2-23.1-25.6s8.3-25.6 23.1-25.6 23.1 9.2 23.1 25.6c-.1 16.4-8.4 25.6-23.1 25.6zm0-11c6.9 0 10.5-4.9 10.5-14.6s-3.6-14.6-10.5-14.6-10.5 4.9-10.5 14.6 3.5 14.6 10.5 14.6h0zm39.8-23.9l-8.9-5.1c4.3-7.6 11.1-11.2 21.3-11.2 12.2 0 19.5 5.1 19.5 14.3.2 4.5-2.1 8.7-6 10.9 4.5 2 7.3 6.6 7.1 11.6 0 9.2-7.6 14.6-20.7 14.6-10.6 0-17.4-3.6-21.7-11.1l8.9-5.1c2.4 4.1 6.1 5.9 11.9 5.9s9-2.1 9-5.9c0-3.3-2.2-5.2-6.2-5.2h-8.7V491h7.9c3.8 0 5.9-2 5.9-5.1 0-3.6-2.8-5.5-8-5.5-5.4-.3-9 1.5-11.3 5.7zm56.9 14.2v19.8h-12.5v-49.5h12.5V489h4.7l12.4-18.3h14.7l-16.8 24 18.3 25.5h-14.8l-13.8-19.8h-4.7zm36 10.3c8.4-2.3 10.2-8 11.6-40h35.9v49.5h-12.5v-38.9h-12.4c-1.2 28.3-5.4 36.9-19.9 40.2l-2.7-10.8zm60.2-34a31.41 31.41 0 0 1 20.4-6.8c13.3 0 20.1 5.8 20.1 17.3v19.8c-.1 2.8 1.7 5.3 4.4 6.1l-3.8 7.9c-5.3 0-9.2-1.7-11.3-5-2.9 3.3-8.1 5.1-14.5 5.1-10.8 0-17-5.4-17-14.4 0-9.5 7-15.4 18.8-16.2l10.9-.7v-2.1c0-4.6-3.2-7.1-8.9-7.1-4.6 0-9.1 1.6-12.7 4.5l-6.4-8.4zm18.1 22.5c-5 .3-7.8 2.7-7.8 6.4 0 3.9 2.8 6 8.2 6 6.2 0 9.5-3.1 9.5-9.4v-3.7l-9.9.7zM436 534v-24.6h5.3c4.5-4 5.4-13.5 6.3-38.8H484v38.8h7.4V534h-9.5l-2.3-13.9h-32l-2.2 13.9H436zm35.7-24.5v-28.2h-12.9c-.5 13.4-1.6 22.2-4 28.2h16.9zm-245 60.3c13 0 20.3 9.2 20.3 25.6s-7.2 25.6-20.3 25.6c-5.7 0-10.2-2-13.3-5.6V638H201v-67.3h11.8v5.6c3.1-4.4 7.8-6.5 13.9-6.5zm-2.6 11c-7 0-10.6 4.9-10.6 14.6S217 610 224.1 610c6.9 0 10.5-4.9 10.5-14.5 0-9.8-3.6-14.7-10.5-14.7zm40.5 58.1c-2.8.1-5.6-.5-8.2-1.6l1.2-10.5c1.5.7 3.2 1 4.9 1 4.1 0 6.4-2.1 8.2-7.8l-18.8-49.3h13.4l11.4 32.4 11.3-32.4h13.4L281 624.5c-4.3 10.7-8.4 14.4-16.4 14.4zm53.2-18.8h-14.3l17.5-25.5-16.4-24h14.3l9.4 14.9 9.5-14.9h14.3l-16.4 24 17.4 25.5h-14.2l-10.6-15.9-10.5 15.9zm50.5 18.8c-2.8.1-5.6-.5-8.2-1.6l1.2-10.5c1.5.7 3.2 1 4.9 1 4.1 0 6.4-2.1 8.2-7.8l-18.8-49.3H369l11.4 32.4 11.3-32.4h13.4l-20.4 53.8c-4.2 10.7-8.4 14.4-16.4 14.4zM158.9 308.4a21.5 21.5 0 1 1 0 43 21.5 21.5 0 1 1 0-43zm0-17.2c-21.3 0-38.6 17.3-38.6 38.6s17.3 38.6 38.6 38.6 38.6-17.3 38.6-38.6-17.3-38.6-38.6-38.6zm260.8 16.1a21.5 21.5 0 1 1 0 43 21.5 21.5 0 1 1 0-43zm0-17.2c-21.3 0-38.6 17.3-38.6 38.6s17.3 38.6 38.6 38.6 38.6-17.3 38.6-38.6-17.3-38.6-38.6-38.6h0zm69.5-120.7c-1.8-3.6-5.5-5.9-9.6-5.9H187.8v-10.7h-45.1v10.7h-13.6c-3.6 0-6.9 1.8-8.9 4.7L87 217.6c-3.6 5.3-5.5 11.6-5.5 18v76l10.7 11.8H112c3.6-25.8 27.4-43.9 53.2-40.3 21 2.9 37.5 19.4 40.3 40.3h167.1c3-25.9 26.4-44.5 52.3-41.5 21.8 2.5 39 19.7 41.5 41.5h35.7c8.9 0 16.1-7.2 16.1-16.1v-80.5l-29-57.4zm-306.7 50.8c.1 6-4.8 10.9-10.7 10.9h-61.7c-4.2-.1-7.6-3.6-7.5-7.8 0-1.4.4-2.7 1.1-3.9l24.1-40c1.9-3.2 5.4-5.2 9.1-5.2h34.8c6 .1 10.8 5 10.7 10.9v35.1zm99.8 5.6c0 2.9-2.4 5.3-5.4 5.3h-69.8c-2.9 0-5.3-2.3-5.4-5.3v-46.3c0-2.9 2.4-5.3 5.4-5.3h69.8c2.9 0 5.3 2.3 5.4 5.3v46.3zm99.8 0c0 2.9-2.4 5.3-5.4 5.3H307c-2.9 0-5.3-2.3-5.4-5.3v-46.3c0-2.9 2.4-5.3 5.4-5.3h69.8c2.9 0 5.3 2.3 5.4 5.3v46.3zm100.1 5.3h-71.1c-5.9.1-10.7-4.7-10.7-10.5v-35.8c.1-5.9 4.9-10.6 10.7-10.5H461c4.2 0 8 2.4 9.8 6.3l18.2 40.3c1.6 3.7 0 8.1-3.8 9.7a9.93 9.93 0 0 1-3 .5zM178 139.5l134.6-90.8 6 8.9L184 148.4l-6-8.9z"/></svg>