<svg xmlns="http://www.w3.org/2000/svg" width="700" height="350" xmlns:v="https://vecta.io/nano"><rect x=".5" y=".5" width="699" height="349" rx="39.5" fill="#fff"/><path d="M660 1a39.044 39.044 0 0 1 39 39v270a39.044 39.044 0 0 1-39 39H40a39.044 39.044 0 0 1-39-39V40A39.044 39.044 0 0 1 40 1h620m0-1H40A40 40 0 0 0 0 40v270a40 40 0 0 0 40 40h620a40 40 0 0 0 40-40V40a40 40 0 0 0-40-40zm-5 20a25.028 25.028 0 0 1 25 25v260a25.028 25.028 0 0 1-25 25H45a25.028 25.028 0 0 1-25-25V45a25.028 25.028 0 0 1 25-25h610m0-10H45a35 35 0 0 0-35 35v260a35 35 0 0 0 35 35h610a35 35 0 0 0 35-35V45a35 35 0 0 0-35-35zM46 230.569l51.623-28.524 51.622 28.524v25.293h12.619v-25.293L203.162 111l42.446 119.569v25.293h12.618V231.01l20.649-29.184h47.034V189.18h34.416v12.646h47.033l20.899 30.521-.249 23.515h13.766V225.97l47.034-44.838 47.034 44.838v29.892h12.618v-93.125l52.77-28.743L654 162.737V301.85L46 303v-72.431z"/></svg>