<svg id="Слой_1" data-name="Слой 1" xmlns="http://www.w3.org/2000/svg" width="1200" height="2250" viewBox="0 0 1200 2250">
  <defs>
    <style>
      .cls-1 {
        fill: #fff;
      }

      .cls-2 {
        fill: #005999;
      }

      .cls-3 {
        fill: #e30013;
      }

      .cls-4 {
        fill: #04ae67;
      }

      .cls-5 {
        fill: #ffea00;
        stroke: #000;
        stroke-linejoin: round;
        stroke-width: 0.994px;
      }

      .cls-5, .cls-6 {
        fill-rule: evenodd;
      }
    </style>
  </defs>
  <rect class="cls-1" x="0.5" y="0.5" width="1199" height="2249" rx="44.5"/>
  <path d="M1155,1a44.05,44.05,0,0,1,44,44V2205a44.05011,44.05011,0,0,1-44,44H45a44.05,44.05,0,0,1-44-44V45A44.05,44.05,0,0,1,45,1H1155m0-1H45A45,45,0,0,0,0,45V2205a45,45,0,0,0,45,45H1155a45,45,0,0,0,45-45h0V45A45,45,0,0,0,1155,0Z"/>
  <rect class="cls-2" x="20" y="20" width="1160" height="2210" rx="25"/>
  <path class="cls-1" d="M92.707,476.41H1109.28V848.33H92.707Zm0,412.697H1109.28v371.908H92.707Zm0,412.697H1109.293v371.92H92.707Zm.012,417.038H1109.28v375.152H92.719Z"/>
  <path d="M594.932,684.929V807.947H1060.72V658.404l-21.459-18.255-22.934-72.263-23.914,72.359-21.646,18.159v54.401H956.385V700.924s-24.021-27.328-50.567-27.45-46.353,27.45-46.353,27.45V644.779H798.34l.001,56.145-12.607-12.123v-74.28l-57.827-99.866-60.953,99.866v86.403h-6.951l-38.79-34.243Z"/>
  <path d="M594.932,1097.62305V1220.641H1060.72V1071.098l-21.459-18.255-22.934-72.263L992.413,1052.939,970.767,1071.098v54.401H956.385v-11.881s-24.021-27.328-50.567-27.45-46.353,27.45-46.353,27.45v-56.145H798.34l.001,56.145-12.607-12.123v-74.28l-57.827-99.866-60.953,99.866v86.40295h-6.951l-38.79-34.243Z"/>
  <path class="cls-3" d="M958.188,928.714,594.933,1220.641h106.4l363.042-291.927Z"/>
  <path class="cls-4" d="M784.626,1314.137a11.355,11.355,0,0,0-11.31513,11.39478l.00012.02417v319.15a11.355,11.355,0,0,0,11.29181,11.41785l.0232.00012H987.961a11.308,11.308,0,0,0,11.2594-11.35644l-.00043-.06153v-319.15a11.30789,11.30789,0,0,0-11.19641-11.41846l-.06256-.00049Zm89.182,9h10.367l-3.456,78.522H856.584Zm17.279,0h10.312l17.223,78.522H894.487Zm-108.858,88.984H992.978v13.893H963.436v24.355H949.669l-6.912-24.355H832.449l-6.856,24.355H811.77v-24.355H782.228Zm64.044,24.299H880.72l-6.911,210.705H791.092Zm48.214,0h34.502l55.126,210.705H901.398Z"/>
  <path id="B" class="cls-3" d="M282.16,528.664a138.5,138.5,0,1,1-97.934,40.566,138.5,138.5,0,0,1,97.934-40.566m0-28a166.5,166.5,0,1,0,166.5,166.5,166.5,166.5,0,0,0-166.5-166.5Z"/>
  <path d="M205.862,679.184c4.752-6.818,11.364-10.744,19.422-10.744,13.017,0,21.282,9.505,21.282,24.794s-8.678,24.794-22.315,24.794c-10.951,0-19.422-6.405-21.902-17.356l-28.1,5.372c4.546,23.968,22.521,37.811,49.382,37.811,32.026,0,52.481-19.629,52.481-51.655,0-29.547-17.356-48.349-45.25-48.349-10.331,0-19.422,2.686-25.207,7.852l1.24-28.72,59.92.207v-25.827H182.308l-3.719,79.342Zm82.623-9.711c0,50.002,16.323,74.383,50.829,74.383s50.828-24.381,50.828-74.383c0-50.415-16.323-74.796-50.828-74.796S288.485,619.058,288.485,669.473Zm50.829-48.969c13.843,0,21.489,17.563,21.489,48.969,0,31.2-7.645,48.556-21.489,48.556s-21.489-17.356-21.489-48.556C317.825,638.067,325.47,620.504,339.314,620.504Z"/>
  <path id="B-2" data-name="B" class="cls-3" d="M282.16,941.358a138.5,138.5,0,1,1-97.934,40.566,138.5,138.5,0,0,1,97.934-40.566m0-28a166.5,166.5,0,1,0,166.5,166.5,166.5,166.5,0,0,0-166.5-166.5Z"/>
  <path d="M173.698,1057.75305c0,26.861,18.389,45.87,45.25,45.87,13.224,0,23.761-4.959,27.274-11.984-.207,24.588-22.315,39.87805-59.507,39.87805l6.405,25.621c52.481,0,83.268-30.373,83.268-82.441,0-41.53-18.596-65.912-51.448-65.912-29.96,0-51.242,20.042-51.242,48.969Zm70.251-1.446c0,11.984-7.645,21.69494-20.455,21.69494s-20.455-10.124-20.455-22.108c0-11.777,7.645-21.282,20.249-21.282s20.662,9.298,20.662,21.69494Zm45.017,26.447c0,50.002,16.323,74.383,50.829,74.383s50.828-24.381,50.828-74.383c0-50.415-16.323-74.796-50.828-74.796S288.966,1032.339,288.966,1082.754Zm50.829-48.969c13.843,0,21.489,17.563,21.489,48.969,0,31.2-7.645,48.556-21.489,48.556s-21.489-17.356-21.489-48.556C318.306,1051.348,325.951,1033.785,339.795,1033.785Z"/>
  <path id="B-3" data-name="B" class="cls-3" d="M282.283,1354.052a138.5,138.5,0,1,1-97.934,40.566,138.5,138.5,0,0,1,97.934-40.566m0-28a166.5,166.5,0,1,0,166.5,166.5,166.5,166.5,0,0,0-166.5-166.5Z"/>
  <path d="M212.853,1432.786H188.962c-5.881,9.189-18.561,17.64295-31.058,20.032v25.545c11.578-1.838,23.707-7.351,28.669-13.783v96.85h26.28Zm60.394,21.318c10.292,0,16.724,5.881,16.724,15.07,0,9.373-6.248,15.621-16.172,15.621h-8.086v21.318h8.086c11.21,0,18.561,7.167,18.561,17.459s-7.351,16.54-18.561,16.54c-11.394,0-19.848-6.432-22.053-16.54l-25.361,4.043c2.389,20.583,21.869,35.469,47.047,35.469,26.28,0,45.209-16.172,45.209-39.328,0-13.783-6.616-24.442-18.378-29.40405a29.87511,29.87511,0,0,0,15.989-27.015c0-21.134-18.01-36.204-42.452-36.204-23.707,0-42.268,14.151-45.209,33.999l25.177,3.124c1.654-8.63794,9.556-14.151,19.48-14.151Zm48.51,42.82c0,44.474,14.518,66.15906,45.209,66.15906s45.209-21.686,45.209-66.15894c0-44.84094-14.518-66.527-45.209-66.527s-45.209,21.686-45.209,66.527Zm45.209-43.55505c12.313,0,19.113,15.621,19.113,43.55505,0,27.75-6.8,43.187-19.113,43.187s-19.113-15.437-19.113-43.187C347.853,1468.99,354.653,1453.3689,366.966,1453.3689Z"/>
  <path d="M319.917,1804.718c0,29.64294,9.677,44.097,30.133,44.097s30.133-14.454,30.133-44.097c0-29.88794-9.677-44.34094-30.133-44.34094S319.917,1774.83105,319.917,1804.718Zm30.133-29.03c8.207,0,12.739,10.412,12.739,29.03,0,18.496-4.532,28.785-12.739,28.785s-12.739-10.28894-12.739-28.785C337.311,1786.099,341.843,1775.688,350.05,1775.688Zm73.495-13.719H407.621c-3.92,6.124-12.372,11.759-20.701,13.351v17.026c7.717-1.225,15.801-4.9,19.109-9.187v64.553h17.516Zm12.332,75.577c0,6.859,4.9,11.759,11.637,11.759s11.637-4.9,11.637-11.759a11.637,11.637,0,0,0-23.273,0Zm66.084-75.577H486.037c-3.92,6.124-12.372,11.759-20.701,13.351v17.026c7.717-1.225,15.801-4.9,19.109-9.187v64.553h17.516Zm13.067,42.749c0,29.64294,9.677,44.097,30.133,44.097s30.133-14.454,30.133-44.097c0-29.88794-9.677-44.34094-30.133-44.34094S515.028,1774.83105,515.028,1804.718Zm30.133-29.03c8.207,0,12.739,10.412,12.739,29.03,0,18.496-4.532,28.785-12.739,28.785s-12.739-10.28894-12.739-28.785C532.422,1786.099,536.954,1775.688,545.161,1775.688Zm70.432,29.276H580.928v15.924h34.665Zm5.602-.246c0,29.64294,9.677,44.097,30.133,44.097s30.133-14.454,30.133-44.097c0-29.88794-9.677-44.34094-30.133-44.34094S621.195,1774.83105,621.195,1804.718Zm30.133-29.03c8.207,0,12.739,10.412,12.739,29.03,0,18.496-4.532,28.785-12.739,28.785s-12.739-10.28894-12.739-28.785C638.589,1786.099,643.121,1775.688,651.328,1775.688Zm73.495-13.719H708.899c-3.92,6.124-12.372,11.759-20.701,13.351v17.026c7.717-1.225,15.801-4.9,19.109-9.187v64.553h17.516Zm12.332,75.577c0,6.859,4.9,11.759,11.636,11.759s11.636-4.9,11.636-11.759a11.637,11.637,0,0,0-23.273-.2146q-.001.10729,0,.2146Zm27.62195-32.828c0,29.64294,9.677,44.097,30.133,44.097s30.133-14.454,30.133-44.097c0-29.88794-9.677-44.34094-30.133-44.34094S764.777,1774.83105,764.777,1804.718Zm30.133-29.03c8.207,0,12.739,10.412,12.739,29.03,0,18.496-4.532,28.785-12.739,28.785s-12.739-10.28894-12.739-28.785C782.171,1786.099,786.703,1775.688,794.91,1775.688Zm53.774,34.788c2.817-4.042,6.737-6.37,11.514-6.37,7.717,0,12.616,5.635,12.616,14.699s-5.145,14.699-13.229,14.699c-6.492,0-11.514-3.797-12.984-10.28894L829.942,1826.4c2.695,14.209,13.351,22.416,29.275,22.416,18.986,0,31.113-11.637,31.113-30.623,0-17.516-10.289-28.663-26.825-28.663-6.124,0-11.514,1.592-14.944,4.655l.735-17.026,35.522.123v-15.311H834.72l-2.205,47.036Z"/>
  <path class="cls-1" d="M158.081,342.245c-30.097,0-44.294-15.333-44.294-47.986V170.746H80.566V301.358c0,42.875,30.097,70.417,77.231,70.417s77.515-27.542,77.515-70.417V170.746H201.807V294.26c0,32.653-14.197,47.986-43.727,47.986Zm123.415-31.801,31.233-35.776,60.195,94.836h39.184L336.012,249.966l68.146-79.219H362.987l-81.491,95.972V170.748H248.275V369.505h33.221Zm176.795-19.592h38.616l43.443,78.651h38.048l-48.27-84.614c25.271-7.95,39.468-26.974,39.468-54.8,0-36.06-24.987-59.343-63.318-59.343H425.07V369.503h33.221Zm40.603-90.577c24.135,0,37.196,11.074,37.196,31.517s-13.061,31.233-37.196,31.233h-40.603V200.274ZM731.625,369.504h35.208L697.268,170.747H660.924L591.359,369.504h35.208l13.913-41.455h77.515Zm-82.058-69.281,29.53-88.589,29.53,88.589Zm163.45-129.477H779.796V369.503h33.221Zm45.615,59.059L950.06,369.503h36.06V170.746H953.183V310.728L861.755,170.746H825.979V369.503h32.653ZM1131.967,339.69h-99.663V283.47h82.342V253.94h-82.342V200.275h98.243v-29.53H999.083V369.502h132.884Z"/>
  <path d="M152.602,1998.34094v83.892H470.248V1980.252l-14.633-12.449-15.64-49.28-16.308,49.345-14.761,12.384v37.099h-9.808v-8.102s-16.381-18.636-34.484-18.72-31.611,18.72-31.611,18.72v-38.288H291.32l.001,38.288-8.598-8.267v-50.656l-39.435-68.104-41.568,68.104v58.923h-4.74l-26.453-23.352Z"/>
  <path class="cls-3" d="M400.324,1883.153,152.601,2082.23389h72.56l247.577-199.08106Z"/>
  <path d="M776.38,1904.43a78.64538,78.64538,0,0,0-36.13-12.8c-1.61-.15-3.22-.25-4.84-.28V1891.34a43.21833,43.21833,0,0,0-4.83.17,30.44763,30.44763,0,0,0-9.66,2.48c-3.9,1.75-6.18,5.08-7.66,8.2a75.99283,75.99283,0,0,0-3.17,8.66,95.78618,95.78618,0,0,0-5.02,37.44c.33,5.02.15,11.49,1.14,17.78.98,6.3,3.33,12.96,9.43,16.82,7.09,4.48,14.38,3.82,21.42,3.4,14.13-.84,29.86-5.74,41.11-13.83,10.7-7.69,19.27-20.93,18.84-34.79C796.59,1923.83,786.95,1911.69,776.38,1904.43Zm-3.55,60.61c-9.3,6.68-23.97,11.39-36.32,12.12-7.16.43006-11.59.77-15.98-2-2.96-1.87994-4.49-5.37994-5.29-10.5s-.67-11.3-1.05-16.98a87.00526,87.00526,0,0,1,4.54-33.84c.96-2.78,1.79-5.6,2.79-7.72,1.01-2.12,2.03-3.28,3.13995-3.78a21.07828,21.07828,0,0,1,6.85-1.74005,33.74841,33.74841,0,0,1,3.76-.12c1.31.03,2.69.12,4.15.25a71.25154,71.25154,0,0,1,31.79,11.24c8.65,5.95,16.37,16.49,16.66,25.98C788.17,1947.59,781.22,1959,772.83,1965.04Zm-84.095-65.461a4.57312,4.57312,0,0,0-1.958.424L648.911,1917.537a4.573,4.573,0,1,0,3.72687,8.35217q.059-.02619.11712-.0542l37.864-17.531a4.573,4.573,0,0,0,2.229-6.07h0a4.573,4.573,0,0,0-4.113-2.653Zm0,21.94995a4.57312,4.57312,0,0,0-1.958.424l-37.866,17.53406a4.573,4.573,0,1,0,3.72687,8.35217q.059-.02617.11712-.0542l37.864-17.531a4.573,4.573,0,0,0,2.229-6.06995h0a4.57294,4.57294,0,0,0-4.113-2.653Zm0,21.949a4.573,4.573,0,0,0-1.958.42395l-37.866,17.534a4.573,4.573,0,1,0,3.72687,8.35218q.059-.02619.11712-.0542l37.864-17.531a4.573,4.573,0,0,0,2.229-6.07h0a4.573,4.573,0,0,0-4.113-2.65295Zm0,21.949a4.57312,4.57312,0,0,0-1.958.424l-37.866,17.53406a4.573,4.573,0,1,0,3.72687,8.35217q.059-.02619.11712-.0542l37.864-17.531a4.573,4.573,0,0,0,2.229-6.06995h0a4.57294,4.57294,0,0,0-4.113-2.653Z"/>
  <g>
    <path class="cls-5" d="M932.32,1974.355l-4.327,35.106L869.316,2064.78H657.494Z"/>
    <path class="cls-6" d="M657.494,2064.78h445.679v15.33105H657.494Z"/>
  </g>
  <path d="M977.12,1999.96a32.655,32.655,0,1,0,32.66,32.65A32.65272,32.65272,0,0,0,977.12,1999.96Zm0,52.09a19.435,19.435,0,1,1,19.44-19.44A19.44183,19.44183,0,0,1,977.12,2052.05Zm111.261-157.827a14.77459,14.77459,0,0,0-10.809,4.688l-51.452,55.17a14.74976,14.74976,0,0,1-8.737,4.558l-78.813,11.08105a14.76,14.76,0,0,0-12.691,14.89295l.509,28.011a12.441,12.441,0,0,0,12.087,11.99305,39.497,39.497,0,0,1,78.126,8.00305h92.562v-73.105h-51.778a9.314,9.314,0,0,1-6.808-15.687l32.605-34.984a9.38208,9.38208,0,0,1,6.855-2.948h19.12695l-.061-11.674Z"/>
</svg>
