<svg xmlns="http://www.w3.org/2000/svg" width="2824" height="1894">
<title>5.57 Попередній покажчик напрямків</title>
<defs><style>.a{fill:#fff}</style></defs><rect class="a" x="1" y="1" width="2822" height="1892" rx="46"/><path d="M2777 2a45 45 0 0 1 45 45v1800a45 45 0 0 1-45 45H47a45 45 0 0 1-45-45V47A45 45 0 0 1 47 2h2730m0-2H47A47.053 47.053 0 0 0 0 47v1800a47.053 47.053 0 0 0 47 47h2730a47.053 47.053 0 0 0 47-47V47a47.053 47.053 0 0 0-47-47z"/><path d="M2777 1836.783a10 10 0 0 1-10 10H57a10 10 0 0 1-10-10v-1780a10 10 0 0 1 10-10h2710a10 10 0 0 1 10 10zm0-1815H47a25 25 0 0 0-25 25v1800a25 25 0 0 0 25 25h2730a25 25 0 0 0 25-25v-1800a25 25 0 0 0-25-25z"/><path d="m2358.21 598.7-71.1 139.55-79 25.67 48.89-95.94-1765.84 573.73a80 80 0 0 0-55.28 76.084V1810h-93.76V536.38L239 639.5V527l150-150 150 150v112.5L435.88 536.38v653.12a156.286 156.286 0 0 1 25.61-10.93l1774.12-576.42-95.94-48.89 78.99-25.67zM220.912 213.177c0 33.97 11.61 51.6 33.754 51.6 15.05 0 25.8-8.17 31.175-23.65l28.164 4.515c-7.525 28.81-28.594 44.719-59.124 44.719-40.204 0-62.994-27.95-62.994-76.969 0-49.45 23.005-77.399 62.994-77.399 30.315 0 51.384 15.91 59.124 44.505l-28.164 4.515c-5.375-15.48-15.695-23.435-30.96-23.435-22.36 0-33.97 17.63-33.97 51.6zM329.7 234.677c0-35.045 18.275-55.684 49.234-55.684s48.374 20.424 48.374 56.758v7.31h-70.734c.43 15.91 10.75 24.08 27.305 24.08 9.89 0 18.92-3.225 26.015-10.535l15.694 16.77c-11.395 10.75-23.864 16.985-42.569 16.985-33.754 0-53.32-19.565-53.32-55.684zm26.874-10.75h45.58c-1.29-14.62-9.46-22.575-22.36-22.575-13.545 0-21.715 7.955-23.22 22.575zM540.827 210.382c0 10.105-4.3 17.845-12.04 23.005 10.105 4.945 15.48 13.33 15.48 24.724 0 19.35-15.48 30.315-42.785 30.315h-49.879V180.928h48.16c26.229 0 41.064 10.75 41.064 29.454zm-40.205 14.19c8.17 0 12.9-4.085 12.9-11.18 0-6.88-4.73-10.965-12.9-10.965h-21.93v22.145zm2.365 42.354c8.815 0 13.975-4.3 13.975-11.824 0-7.31-5.16-11.395-13.975-11.395h-24.294v23.22zM565.768 193.827c13.115-10.104 26.875-14.834 44.29-14.834 28.809 0 43.644 12.684 43.644 37.624v43c0 6.45 3.44 11.394 9.46 13.33l-8.17 17.198c-11.61 0-19.995-3.654-24.51-10.964-6.235 7.095-17.63 11.18-31.39 11.18-23.434 0-36.979-11.825-36.979-31.174 0-20.64 15.265-33.54 40.85-35.26l23.649-1.505v-4.515c0-9.89-6.88-15.48-19.35-15.48a43.47 43.47 0 0 0-27.52 9.675zm39.344 48.804c-10.965.645-16.985 5.806-16.985 13.975 0 8.385 6.02 13.115 17.845 13.115 13.545 0 20.64-6.665 20.64-20.425v-7.954zM704.01 234.677c0 20.425 8.816 31.82 24.08 31.82 9.03 0 15.48-4.086 20.64-12.685l19.995 14.404c-9.246 14.62-23.22 22.145-42.14 22.145-31.82 0-49.879-20.21-49.879-55.684 0-35.475 18.275-55.684 49.88-55.684 19.134 0 32.893 7.31 42.139 22.144l-19.995 14.62c-4.945-8.6-11.61-12.685-20.855-12.685-15.265 0-23.864 11.18-23.864 31.605zM779.046 180.928h92.45v23.22h-32.68v84.278h-27.09v-84.279h-32.68zM932.339 290.36c-32.035 0-50.094-19.994-50.094-55.683s18.06-55.684 50.094-55.684c32.034 0 50.094 19.994 50.094 55.684s-18.06 55.684-50.094 55.684zm0-24.079c15.05 0 22.79-10.535 22.79-31.604 0-21.07-7.74-31.605-22.79-31.605s-22.79 10.535-22.79 31.605 7.74 31.604 22.79 31.604zM1006.727 288.426V180.928h94.813v107.498h-27.305v-84.279h-40.419v84.279zM1175.713 290.36c-32.035 0-50.094-19.994-50.094-55.683s18.06-55.684 50.094-55.684c32.034 0 50.094 19.994 50.094 55.684s-18.06 55.684-50.094 55.684zm0-24.079c15.05 0 22.79-10.535 22.79-31.604 0-21.07-7.74-31.605-22.79-31.605s-22.79 10.535-22.79 31.605 7.74 31.604 22.79 31.604zM1236.987 267.786c18.275-4.945 22.145-17.414 25.155-86.858h78.044v107.498h-27.09v-84.494h-26.874c-2.58 61.49-11.826 80.194-43.215 87.289zM1459.292 253.596c0 22.145-15.265 34.83-42.57 34.83h-46.008V180.928h27.09v37.624h18.919c27.304 0 42.569 12.685 42.569 35.044zm-42.57 12.47c10.106 0 15.266-4.3 15.266-12.47 0-8.17-5.16-12.684-15.265-12.684h-18.92v25.154zM1504.228 234.677c0 20.425 8.815 31.82 24.08 31.82 9.029 0 15.48-4.086 20.64-12.685l19.993 14.404c-9.244 14.62-23.218 22.145-42.138 22.145-31.82 0-49.88-20.21-49.88-55.684 0-35.475 18.275-55.684 49.88-55.684 19.134 0 32.894 7.31 42.138 22.144l-19.994 14.62c-4.945-8.6-11.61-12.685-20.854-12.685-15.265 0-23.865 11.18-23.865 31.605zM1679.236 253.596c0 22.145-15.264 34.83-42.568 34.83h-46.01V180.928h27.09v37.624h18.92c27.304 0 42.568 12.685 42.568 35.044zm-42.568 12.47c10.104 0 15.265-4.3 15.265-12.47 0-8.17-5.16-12.684-15.265-12.684h-18.92v25.154zM1730.191 245.427v42.999h-27.09V180.928h27.09v39.774h10.105l26.875-39.774h31.82l-36.55 52.029 39.774 55.469h-32.034l-29.885-43zM1815.334 193.827c13.114-10.104 26.874-14.834 44.29-14.834 28.809 0 43.644 12.684 43.644 37.624v43c0 6.45 3.44 11.394 9.46 13.33l-8.17 17.198c-11.61 0-19.995-3.654-24.51-10.964-6.235 7.095-17.63 11.18-31.39 11.18-23.434 0-36.98-11.825-36.98-31.174 0-20.64 15.265-33.54 40.85-35.26l23.65-1.505v-4.515c0-9.89-6.88-15.48-19.35-15.48a43.47 43.47 0 0 0-27.52 9.675zm39.345 48.804c-10.965.645-16.986 5.806-16.986 13.975 0 8.385 6.02 13.115 17.845 13.115 13.545 0 20.64-6.665 20.64-20.425v-7.954zM1981.956 288.426V180.928h94.814v107.498h-27.305v-84.279h-40.42v84.279zM2095.259 267.786c18.274-4.945 22.144-17.414 25.154-86.858h78.043v107.498h-27.089v-84.494h-26.875c-2.58 61.49-11.824 80.194-43.214 87.289zM2243.174 252.951c11.18 0 19.135 7.955 19.135 18.92 0 11.18-7.955 19.135-19.135 19.135-11.18 0-19.134-7.955-19.134-19.135 0-10.965 7.954-18.92 19.134-18.92z"/><path d="M1203.164 1236.65c0 9.212-3.92 16.268-10.976 20.972 9.212 4.508 14.112 12.151 14.112 22.54 0 17.64-14.112 27.636-39.004 27.636h-45.472v-98h43.904c23.912 0 37.436 9.8 37.436 26.852zm-36.652 12.936c7.448 0 11.76-3.724 11.76-10.191 0-6.273-4.312-9.997-11.76-9.997h-19.992v20.188zm2.156 38.611c8.036 0 12.74-3.92 12.74-10.779 0-6.664-4.704-10.388-12.74-10.388h-22.148v21.167zM1239.817 1344.842c-5.488 0-11.564-.784-16.268-3.137l2.352-20.775a23.407 23.407 0 0 0 9.604 1.96c8.036 0 12.74-4.117 16.268-15.484l-37.24-97.607h26.46l22.54 64.092 22.343-64.092h26.46l-40.375 106.427c-8.036 21.364-16.268 28.616-32.144 28.616zM1312.535 1288.982c16.66-4.507 20.188-15.877 22.932-79.183h71.148v97.999h-24.696v-77.028h-24.5c-2.352 56.056-10.78 73.108-39.396 79.576zM1447.38 1275.458c10.192 0 17.444 7.252 17.444 17.248 0 10.192-7.252 17.444-17.443 17.444-10.193 0-17.444-7.252-17.444-17.444 0-9.996 7.251-17.248 17.444-17.248zM1554.982 1239.198c0 30.968 10.584 47.04 30.773 47.04 13.72 0 23.52-7.448 28.42-21.56l25.676 4.116c-6.86 26.265-26.069 40.768-53.9 40.768-36.652 0-57.429-25.48-57.429-70.168 0-45.08 20.973-70.56 57.43-70.56 27.635 0 46.843 14.504 53.899 40.572l-25.676 4.116c-4.9-14.112-14.309-21.364-28.224-21.364-20.385 0-30.969 16.072-30.969 47.04zM1649.845 1209.799h84.279v21.168h-29.792v76.83h-24.695v-76.83h-29.792zM1765.481 1344.842c-5.488 0-11.563-.784-16.267-3.137l2.351-20.775a23.41 23.41 0 0 0 9.605 1.96c8.036 0 12.74-4.117 16.267-15.484l-37.24-97.607h26.46l22.54 64.092 22.344-64.092h26.46l-40.376 106.427c-8.035 21.364-16.268 28.616-32.144 28.616zM1838.592 1335.238v-48.608h10.584c8.82-7.84 10.78-26.655 12.544-76.831h72.128v76.83h14.699v48.61h-18.816l-4.507-27.441h-63.308l-4.313 27.44zm70.56-48.608v-55.86h-25.48c-.98 26.46-3.137 43.904-7.841 55.86zM1960.502 1258.798c0-31.948 16.66-50.764 44.884-50.764s44.1 18.62 44.1 51.743v6.664h-64.484c.393 14.504 9.8 21.954 24.892 21.954 9.016 0 17.248-2.94 23.716-9.605l14.308 15.288c-10.388 9.8-21.756 15.484-38.808 15.484-30.772 0-48.608-17.835-48.608-50.764zm24.5-9.8h41.552c-1.176-13.328-8.624-20.58-20.384-20.58-12.348 0-19.796 7.252-21.168 20.58zM2096.33 1307.798h-24.697v-98h24.696v37.828h37.827v-37.827h24.893v97.999h-24.893v-39.2h-37.827zM2176.688 1209.799h84.279v21.168h-29.792v76.83h-24.696v-76.83h-29.792zM2295.657 1258.798c0 18.62 8.036 29.009 21.952 29.009 8.232 0 14.112-3.725 18.816-11.565l18.227 13.132c-8.427 13.327-21.167 20.188-38.415 20.188-29.007 0-45.471-18.424-45.471-50.764s16.66-50.764 45.471-50.764c17.444 0 29.988 6.664 38.415 20.189l-18.227 13.328c-4.508-7.841-10.584-11.565-19.012-11.565-13.916 0-21.756 10.192-21.756 28.812zM2455.201 1276.046c0 20.188-13.916 31.752-38.808 31.752h-41.944v-98h24.697v34.3h17.247c24.892 0 38.808 11.564 38.808 31.948zm-38.808 11.368c9.211 0 13.916-3.92 13.916-11.368s-4.705-11.564-13.916-11.564h-17.247v22.932zM2501.653 1268.598v39.2h-24.696v-98h24.696v36.26h9.212l24.5-36.26h29.008l-33.32 47.432 36.26 50.568h-29.205l-27.243-39.2zM2579.27 1221.559c11.957-9.213 24.5-13.525 40.377-13.525 26.263 0 39.788 11.564 39.788 34.3v39.2c0 5.88 3.135 10.388 8.624 12.152l-7.449 15.68c-10.584 0-18.228-3.333-22.343-9.996-5.685 6.468-16.073 10.193-28.617 10.193-21.364 0-33.712-10.782-33.712-28.42 0-18.817 13.916-30.577 37.24-32.145l21.56-1.372v-4.116c0-9.016-6.271-14.112-17.64-14.112a39.627 39.627 0 0 0-25.087 8.82zm35.869 44.49c-9.996.59-15.485 5.293-15.485 12.741 0 7.644 5.489 11.956 16.269 11.956 12.348 0 18.815-6.076 18.815-18.62v-7.252zM759.625 1756.867l2.97-62.532h66.327v18.314h-48.839l-1.154 26.234c4.62-4.29 12.54-6.93 21.284-6.93 22.109 0 35.968 15.18 35.968 38.443 0 25.245-16.004 40.92-41.248 40.92-20.789 0-35.473-11.055-38.938-29.535l19.964-3.63c2.145 9.075 9.9 14.685 19.47 14.685 12.209 0 19.798-8.415 19.798-21.78 0-13.199-7.424-21.449-18.809-21.449a20.219 20.219 0 0 0-17.324 9.076zM893.272 1692.354c27.06 0 40.094 19.635 40.094 59.563 0 39.764-13.034 59.398-40.094 59.398-27.058 0-40.093-19.634-40.093-59.398 0-39.928 13.035-59.563 40.093-59.563zm-19.139 59.563c0 26.234 6.765 40.919 19.14 40.919s19.139-14.685 19.139-40.919c0-26.398-6.765-41.083-19.14-41.083s-19.139 14.685-19.139 41.083zM1032.036 1796.136l-20.79-35.144v48.838h-19.634v-82.497h21.12l23.594 39.434 23.429-39.434h21.284v82.497h-19.634v-48.838l-20.79 35.144z"/><circle class="a" cx="798" cy="1094" r="275"/><path d="M798 819c-151.876 0-275 123.124-275 275s123.124 275 275 275 275-123.124 275-275-123.124-275-275-275zm88.569 484.72c-115.86 48.827-249.368-5.518-298.195-121.388-48.77-115.728 5.396-249.103 121.057-298.053A226.085 226.085 0 0 1 798 866.414c125.732.095 227.577 102.1 227.482 227.833a227.644 227.644 0 0 1-138.913 209.474z" style="fill:#da251d"/><path d="M689.897 1155.638a16.12 16.12 0 1 1-16.121 16.12 16.139 16.139 0 0 1 16.12-16.12m0-13.276a29.397 29.397 0 1 0 29.397 29.397 29.397 29.397 0 0 0-29.396-29.397zM891.88 1155.638a16.12 16.12 0 1 1-16.121 16.12 16.139 16.139 0 0 1 16.12-16.12m0-13.276a29.397 29.397 0 1 0 29.397 29.397 29.397 29.397 0 0 0-29.397-29.397z"/><path d="M717.397 1092.103a9.486 9.486 0 0 1-9.483 9.483h-51.501a9.487 9.487 0 0 1-7.9-14.745l14.405-21.593a14.222 14.222 0 0 1 11.835-6.334h33.16a9.486 9.486 0 0 1 9.484 9.483zm15.172 49.31v-78.706a14.23 14.23 0 0 0-14.224-14.224h-54.716a9.498 9.498 0 0 0-7.851 4.153l-28.856 42.483a14.24 14.24 0 0 0-2.456 7.994v54.422a14.23 14.23 0 0 0 14.224 14.224h15.646a35.56 35.56 0 0 1 71.121 0h131.336a35.06 35.06 0 0 1 17.467-30.345z"/><path d="M754.38 997.276h184.913a14.224 14.224 0 0 1 14.224 14.224v118.534H740.155V1011.5a14.224 14.224 0 0 1 14.224-14.224zM956.362 1141.414v30.345h-29.396a35.06 35.06 0 0 0-17.468-30.345z"/></svg>