<svg xmlns="http://www.w3.org/2000/svg" width="1424" height="404">
<title>5.59 Покажчик напрямку</title>
<defs><style>.a{fill:#fff}.b{fill:none;stroke:#000;stroke-miterlimit:10;stroke-width:4px}</style></defs><rect class="a" x="1" y="1" width="1422" height="402" rx="46"/><path d="M1377 2a45 45 0 0 1 45 45v310a45 45 0 0 1-45 45H47a45 45 0 0 1-45-45V47A45 45 0 0 1 47 2h1330m0-2H47A47.053 47.053 0 0 0 0 47v310a47.053 47.053 0 0 0 47 47h1330a47.053 47.053 0 0 0 47-47V47a47.053 47.053 0 0 0-47-47z"/><rect class="a" x="17" y="17" width="1390" height="370" rx="30"/><path d="M1377 22a25.028 25.028 0 0 1 25 25v310a25.028 25.028 0 0 1-25 25H47a25.028 25.028 0 0 1-25-25V47a25.028 25.028 0 0 1 25-25h1330m0-10H47a35 35 0 0 0-35 35v310a35 35 0 0 0 35 35h1330a35 35 0 0 0 35-35V47a35 35 0 0 0-35-35z"/><circle cx="186" cy="202" r="50"/><circle class="b" cx="186" cy="202" r="77.5"/><circle class="b" cx="186" cy="202" r="105"/><path d="M404.483 173.672V69.37h19.967v86.57h41.72V69.37h20.116v87.017h13.112v39.633h-15.496l-3.278-22.35zM508.187 136.421c0-24.287 12.665-38.591 34.122-38.591 21.456 0 33.525 14.155 33.525 39.337v5.065h-49.021c.297 11.027 7.449 16.689 18.922 16.689a24.274 24.274 0 0 0 18.03-7.301l10.877 11.622c-7.898 7.45-16.54 11.77-29.502 11.77-23.394 0-36.953-13.558-36.953-38.59zm18.626-7.45H558.4c-.893-10.132-6.555-15.645-15.496-15.645-9.386 0-15.049 5.513-16.091 15.645zM611.443 173.672H592.67V99.17h18.774v28.757H640.2V99.171h18.924v74.5H640.2v-29.8h-28.757zM672.531 99.17h64.07v16.093h-22.648v58.409H695.18v-58.409H672.53zM788.898 97.83c19.52 0 30.546 13.857 30.546 38.591s-10.877 38.592-30.546 38.592c-8.641 0-15.346-2.98-19.965-8.493v33.972h-18.775V99.171h17.732v8.493q7.151-9.834 21.008-9.834zm-4.022 16.688c-10.58 0-15.943 7.301-15.943 21.903s5.364 21.904 15.943 21.904c10.43 0 15.794-7.302 15.794-21.755 0-14.75-5.364-22.052-15.794-22.052zM416.708 254.962c0 18.012 6.042 27.36 17.897 27.36 7.98 0 13.68-4.333 16.53-12.54l14.82 2.394c-3.876 15.275-15.048 23.712-31.235 23.712-21.318 0-33.402-14.82-33.402-40.812 0-26.22 12.084-41.04 33.402-41.04 16.073 0 27.245 8.437 31.235 23.598l-14.82 2.394c-2.85-8.208-8.322-12.425-16.415-12.425-11.97 0-18.012 9.347-18.012 27.359zM474.39 266.361c0-18.58 9.69-29.525 26.106-29.525s25.65 10.83 25.65 30.096v3.876H488.64c.227 8.435 5.699 12.767 14.477 12.767a18.571 18.571 0 0 0 13.794-5.586l8.321 8.893c-6.042 5.7-12.653 9.006-22.57 9.006-17.898 0-28.272-10.374-28.272-29.527zm14.25-5.699h24.168c-.684-7.752-5.016-11.97-11.856-11.97-7.181 0-11.514 4.218-12.311 11.97zM553.393 294.861h-14.365v-56.999h13.567v5.928c4.217-4.674 9.69-6.954 16.529-6.954 12.882 0 20.178 7.866 20.178 21.66v36.365h-14.478v-34.997c0-6.612-3.761-10.26-10.374-10.26-6.954 0-11.057 3.99-11.057 11.058zM606.06 237.862V223.84l14.48-5.243v19.265h12.082v10.944H620.54v29.07c0 3.42 2.166 5.243 5.928 5.243a27.353 27.353 0 0 0 5.357-.683l1.254 11.628a52.372 52.372 0 0 1-9.006.912c-11.628 0-18.011-6.042-18.011-16.758v-29.412h-7.752v-10.944zM644.25 237.862h13.566v7.98c4.104-5.928 9.576-9.006 16.986-9.006a21.633 21.633 0 0 1 7.98 1.482l-5.7 13.11a11.255 11.255 0 0 0-5.814-1.482c-8.094 0-12.654 6.042-12.654 16.644v28.271H644.25zM687.913 266.361c0-18.58 9.69-29.525 26.106-29.525s25.649 10.83 25.649 30.096v3.876h-37.505c.228 8.435 5.7 12.767 14.478 12.767a18.571 18.571 0 0 0 13.794-5.586l8.32 8.893c-6.041 5.7-12.652 9.006-22.57 9.006-17.898 0-28.272-10.374-28.272-29.527zm14.25-5.699h24.167c-.684-7.752-5.016-11.97-11.855-11.97-7.182 0-11.514 4.218-12.312 11.97zM953.508 173.2l-18.178-2.384c2.533-15.645 17.135-26.82 35.91-26.82 19.667 0 33.822 11.92 33.822 28.907 0 9.983-4.917 18.029-13.558 22.2 9.834 4.024 15.644 12.815 15.644 24.288 0 18.626-14.899 31.588-36.057 31.588-19.967 0-35.314-11.622-37.698-28.012l18.327-2.98c2.235 8.791 9.685 14.304 19.669 14.304 10.132 0 16.837-5.662 16.837-15.049 0-9.238-6.556-15.496-16.987-15.496h-6.11V188.25h6.11c9.09 0 14.9-5.514 14.9-14.006 0-8.345-5.96-13.56-15.198-13.56-8.94 0-15.794 4.769-17.433 12.517zM1337 204l-80 80h-60l55-55h-155v-50h155l-55-55h60l80 80z"/></svg>