<svg id="Слой_1" data-name="Слой 1" xmlns="http://www.w3.org/2000/svg" width="2000" height="350" viewBox="0 0 2000 350">
  <defs>
    <style>
      .cls-1 {
        fill: #fff;
      }

      .cls-2 {
        fill: #04ae67;
      }
    </style>
  </defs>
  <g>
    <rect class="cls-1" x="1" y="1" width="1998" height="348" rx="34"/>
    <path d="M1965,2a33.03736,33.03736,0,0,1,33,33V315a33.03736,33.03736,0,0,1-33,33H35A33.03738,33.03738,0,0,1,2,315V35A33.03739,33.03739,0,0,1,35,2H1965m0-2H35A35,35,0,0,0,0,35V315a35,35,0,0,0,35,35H1965a35,35,0,0,0,35-35V35a35,35,0,0,0-35-35Z"/>
  </g>
  <rect class="cls-2" x="15" y="15" width="1970" height="320" rx="25"/>
  <g>
    <rect class="cls-1" x="64" y="56" width="240" height="240" rx="15"/>
    <path d="M92,147v10l14.06642,18L92,195v10h16.0759l24.11386-19h22.10437l-52.24669,80h22.07361a20.13634,20.13634,0,0,0,15.07369-6.7741L200.51235,190h47.223c19.59894,0,28.39367-11,28.26325-15s-10.17786-15-28.26325-15H199.50761L138.19729,88.87158A20.13557,20.13557,0,0,0,123.03782,82H107.15853l47.1356,82H132.18976l-23.10911-17Z"/>
  </g>
  <g>
    <path class="cls-1" d="M415.28711,90.22949c7.772-6.29834,16.48242-9.24609,27.20215-9.24609,17.28662,0,26.39892,7.772,26.39892,22.78027V131.502c0,4.69043,2.27784,8.04,6.29786,8.97852l-4.55616,9.64844c-6.96777,0-11.92627-2.5459-14.47217-7.10254-3.752,4.42187-11.12207,7.10254-19.9663,7.10254-14.87452,0-23.18262-7.10254-23.18262-19.16309,0-12.5957,9.38037-20.63574,25.19238-21.708l15.8125-.8042v-4.02c0-6.834-4.55615-10.72021-13.13232-10.72021a28.38649,28.38649,0,0,0-17.95606,6.43213ZM439.40723,119.71c-7.772.40234-12.19385,4.02-12.19385,9.916,0,5.89648,4.28808,9.1123,12.59619,9.1123,9.11231,0,14.2041-4.28808,14.2041-12.5957v-7.23633Z"/>
    <path class="cls-1" d="M484.16162,115.42188c0-21.57422,11.12207-34.43848,30.0166-34.43848,19.02832,0,29.61475,12.59619,29.61475,34.70654v4.42236h-45.0249c.26806,11.25586,7.23584,17.28614,18.49218,17.28614,6.56641,0,12.32813-2.00977,16.88428-6.7002l8.57617,9.2461c-6.834,6.5664-14.606,10.18457-25.99658,10.18457C496.08789,150.12891,484.16162,137.80078,484.16162,115.42188Zm14.60645-5.896h31.35644c-.66992-10.45215-6.29785-16.34815-15.41015-16.34815C505.334,93.17773,499.57178,99.07373,498.76807,109.52588Z"/>
    <path class="cls-1" d="M594.041,80.9834c17.55419,0,27.60449,12.46191,27.60449,34.57275,0,22.10987-10.0503,34.57276-27.73828,34.57276-8.3086,0-14.74073-3.082-18.89453-8.97852v32.02637H560.13818V82.05518h13.93653v8.97851C578.36279,84.46729,585.063,80.9834,594.041,80.9834Zm-3.082,13.13232c-10.45214,0-15.94628,7.23584-15.94628,21.44043,0,14.20362,5.49414,21.43994,15.94628,21.43994,10.31836,0,15.8125-7.23632,15.8125-21.30615C606.77148,101.48584,601.27734,94.11572,590.959,94.11572Z"/>
    <path class="cls-1" d="M637.85645,149.05664V82.05518h57.88916v67.00146h-14.874v-54.271H652.731v54.271Z"/>
    <path class="cls-1" d="M724.01855,128.55469c6.43213,0,11.12207,4.55566,11.12207,10.9873A10.772,10.772,0,0,1,724.01855,150.665c-6.43212,0-10.98828-4.69043-10.98828-11.12305A10.55415,10.55415,0,0,1,724.01855,128.55469Z"/>
    <path class="cls-1" d="M785.25391,55.25488h59.49755v13.936H800.93262V91.30127h19.832c19.29639,0,31.75879,11.39062,31.75879,29.07861,0,17.4209-12.4624,28.67676-31.89258,28.67676H785.25391Zm15.67871,50.1167v29.61475h17.5542c11.92627,0,18.22412-5.0918,18.22412-14.74024s-6.29785-14.87451-18.09033-14.87451Z"/>
    <path class="cls-1" d="M893.52441,150.12891c-19.69824,0-30.68652-12.46289-30.68652-34.57276,0-22.11084,10.98828-34.57275,30.68652-34.57275,19.56446,0,30.82032,12.46191,30.82032,34.57275C924.34473,137.666,913.08887,150.12891,893.52441,150.12891Zm0-13.13282c10.31836,0,15.94629-7.23632,15.94629-21.43994,0-14.20459-5.62793-21.44043-15.94629-21.44043-10.45214,0-15.8125,7.23584-15.8125,21.44043C877.71191,129.626,883.07227,136.99609,893.52441,136.99609Z"/>
    <path class="cls-1" d="M974.459,80.9834c17.55469,0,27.6045,12.46191,27.6045,34.57275,0,22.10987-10.04981,34.57276-27.73828,34.57276-8.3086,0-14.74024-3.082-18.89454-8.97852v32.02637h-14.874V82.05518h13.93555v8.97851C958.78027,84.46729,965.48047,80.9834,974.459,80.9834Zm-3.082,13.13232c-10.45215,0-15.94629,7.23584-15.94629,21.44043,0,14.20362,5.49414,21.43994,15.94629,21.43994,10.31836,0,15.8125-7.23632,15.8125-21.30615C987.18945,101.48584,981.69531,94.11572,971.377,94.11572Z"/>
    <path class="cls-1" d="M1063.70215,82.05518h13.93652v67.00146h-14.875V105.90771l-30.55273,43.14893h-13.93555V82.05518h14.874V125.2041Z"/>
    <path class="cls-1" d="M1108.85645,115.55615c0,13.80225,6.03027,21.57471,16.48242,21.57471,6.29883,0,10.7207-2.81445,14.2041-8.71094l10.98828,7.90625c-5.89551,9.2461-14.2041,13.80274-25.8623,13.80274-19.69825,0-30.68653-12.59668-30.68653-34.57276,0-21.97656,11.12207-34.57275,30.68653-34.57275,11.6582,0,19.96679,4.42187,25.8623,13.668l-10.98828,8.04052c-3.34961-5.7622-7.90527-8.57617-14.2041-8.57617C1114.88672,94.11572,1108.85645,101.75391,1108.85645,115.55615Z"/>
    <path class="cls-1" d="M1165.27148,149.05664V82.05518h57.88868v67.00146h-14.874v-54.271h-28.14062v54.271Z"/>
    <path class="cls-1" d="M1250.89746,52.7085A8.97827,8.97827,0,1,1,1241.919,61.687,8.8451,8.8451,0,0,1,1250.89746,52.7085Zm7.50391,96.34814h-14.874V82.05518h14.874Z"/>
    <path class="cls-1" d="M1271.12793,137.80078c11.52441-3.2168,13.93652-11.6582,15.8125-55.7456h47.30273v67.00146h-14.874V94.65137H1300.207c-1.6084,39.79883-7.23633,51.457-25.86328,56.01367Z"/>
    <path class="cls-1" d="M1408.34473,127.75c0,13.53418-9.38086,21.30664-25.72852,21.30664h-28.14062V82.05518h14.874v24.52246h13.2666C1398.96387,106.57764,1408.34473,114.21582,1408.34473,127.75Zm-25.72852,8.97852c7.10156,0,10.85352-3.082,10.85352-8.97852,0-5.76172-3.752-8.978-10.85352-8.978h-13.2666v17.95655Z"/>
  </g>
  <g>
    <path class="cls-1" d="M413.81641,258.85645V187.45312h28.35742c13.77051,0,22.543,7.24219,22.543,18.56446,0,7.24219-3.77442,13.1582-9.99659,15.50488,7.95655,2.958,12.24073,8.77246,12.24073,16.93262,0,12.44531-9.48633,20.40137-24.3794,20.40137Zm27.3374-60.79493H425.751v19.38086h15.40283c7.34424,0,11.62842-3.57031,11.62842-9.69043S448.49805,198.06152,441.15381,198.06152Zm1.32568,29.377H425.751v20.707h16.72851c7.95655,0,12.44483-3.77344,12.44483-10.4043C454.92432,231.11133,450.436,227.43848,442.47949,227.43848Z"/>
    <path class="cls-1" d="M500.5166,259.67285c-14.89258,0-23.35889-9.4873-23.35889-26.31836,0-16.83008,8.46631-26.3164,23.35889-26.3164,14.99463,0,23.46143,9.48632,23.46143,26.3164C523.978,250.18555,515.51123,259.67285,500.5166,259.67285Zm0-9.99707c7.95654,0,12.13867-5.50781,12.13867-16.32129,0-10.8125-4.18213-16.32031-12.13867-16.32031-7.85449,0-12.03662,5.50781-12.03662,16.32031C488.48,244.06543,492.66211,249.67578,500.5166,249.67578Z"/>
    <path class="cls-1" d="M536.31641,207.85352H546.9248v7.65039a17.248,17.248,0,0,1,15.50489-8.46582,18.67364,18.67364,0,0,1,7.44629,1.32519l-4.48828,10.40527a10.6465,10.6465,0,0,0-5.61036-1.42871c-7.75244,0-12.13867,5.71289-12.13867,15.81153v25.70508H536.31641Z"/>
    <path class="cls-1" d="M585.68408,278.0332a19.24467,19.24467,0,0,1-8.0581-1.53027l1.12207-9.58789a10.84476,10.84476,0,0,0,4.998,1.12207c4.28418,0,6.83448-2.44824,9.07862-9.18066l-19.585-51.00293h12.03662l12.85254,35.70214,12.95459-35.70214h12.03662l-21.01319,54.8789C597.7207,274.15723,593.64062,278.0332,585.68408,278.0332Z"/>
    <path class="cls-1" d="M648.61963,259.67285c-9.18067,0-16.5249-2.75488-21.42139-8.05859l6.42627-6.835c3.26416,3.46875,8.87451,5.61035,15.30078,5.61035,6.73242,0,10.71045-2.44727,10.71045-6.32422,0-3.46777-3.36572-4.998-11.01611-5.916-13.9751-1.63183-19.89111-6.32421-19.89111-15.50488,0-10.09863,7.03808-15.60644,19.99267-15.60644,8.16065,0,14.791,2.1416,19.38135,6.42578l-6.83447,6.63086c-2.958-2.34668-7.75245-3.77442-12.85254-3.77442-5.81446,0-9.38477,2.04-9.38477,5.50781,0,3.26465,3.06055,4.998,10.91455,5.917,14.07666,1.7334,19.99317,6.01758,19.99317,15.30078C669.93848,253.6543,662.28809,259.67285,648.61963,259.67285Z"/>
    <path class="cls-1" d="M706.35107,207.03809c13.26075,0,20.91114,9.48632,20.91114,26.3164,0,16.83106-7.54834,26.31836-20.91114,26.31836-6.42627,0-11.22021-2.34668-14.38281-6.835v24.37988H680.646V207.85352h10.60839v6.835C694.51855,209.68945,699.51709,207.03809,706.35107,207.03809Zm-2.34619,9.99609c-7.854,0-12.03662,5.50781-12.03662,16.32031,0,10.81348,4.18262,16.32129,12.03662,16.32129,7.8545,0,11.93457-5.50781,11.93457-16.21875C715.93945,222.64453,711.85938,217.03418,704.00488,217.03418Z"/>
    <path class="cls-1" d="M745.31348,185.51465a6.83447,6.83447,0,1,1-6.83448,6.834A6.73228,6.73228,0,0,1,745.31348,185.51465Zm5.71191,73.3418H739.70312V207.85352h11.32227Z"/>
    <path class="cls-1" d="M786.21484,249.57422l.50977,9.07812a31.47777,31.47777,0,0,1-6.32422.71387c-8.87451,0-13.87256-4.48828-13.87256-12.64844V187.45312H777.8501v57.42872c0,3.46777,1.63232,5.10058,5.10058,5.10058A12.99,12.99,0,0,0,786.21484,249.57422Z"/>
    <path class="cls-1" d="M855.67822,243.96387H827.83105l-4.99853,14.89258H810.18408l24.99121-71.40333h13.05664l24.99121,71.40333H860.57471ZM852.312,233.9668l-10.6084-31.8252-10.6084,31.8252Z"/>
    <path class="cls-1" d="M887.80615,185.51465a6.83447,6.83447,0,1,1-6.834,6.834A6.7324,6.7324,0,0,1,887.80615,185.51465Zm5.71289,73.3418H882.1958V207.85352H893.519Z"/>
    <path class="cls-1" d="M909.02,207.85352h10.60937v7.65039a17.24591,17.24591,0,0,1,15.50391-8.46582,18.67855,18.67855,0,0,1,7.44727,1.32519l-4.48828,10.40527a10.649,10.649,0,0,0-5.61036-1.42871c-7.75293,0-12.13867,5.71289-12.13867,15.81153v25.70508H909.02Z"/>
    <path class="cls-1" d="M977.97412,207.03809c13.26074,0,20.91113,9.48632,20.91113,26.3164,0,16.83106-7.54882,26.31836-20.91113,26.31836-6.42676,0-11.2207-2.34668-14.38281-6.835v24.37988H952.26807V207.85352h10.60937v6.835C966.14111,209.68945,971.13916,207.03809,977.97412,207.03809Zm-2.34668,9.99609c-7.85449,0-12.03613,5.50781-12.03613,16.32031,0,10.81348,4.18164,16.32129,12.03613,16.32129S987.562,244.168,987.562,233.457C987.562,222.64453,983.48193,217.03418,975.62744,217.03418Z"/>
    <path class="cls-1" d="M1031.624,259.67285c-14.89355,0-23.35937-9.4873-23.35937-26.31836,0-16.83008,8.46582-26.3164,23.35937-26.3164,14.99414,0,23.46094,9.48632,23.46094,26.3164C1055.085,250.18555,1046.61816,259.67285,1031.624,259.67285Zm0-9.99707c7.95606,0,12.13868-5.50781,12.13868-16.32129,0-10.8125-4.18262-16.32031-12.13868-16.32031-7.85449,0-12.03711,5.50781-12.03711,16.32031C1019.58691,244.06543,1023.76953,249.67578,1031.624,249.67578Z"/>
    <path class="cls-1" d="M1067.42383,207.85352h10.60937v7.65039a17.2459,17.2459,0,0,1,15.50391-8.46582,18.67858,18.67858,0,0,1,7.44727,1.32519l-4.48829,10.40527a10.64891,10.64891,0,0,0-5.61035-1.42871c-7.75293,0-12.13867,5.71289-12.13867,15.81153v25.70508h-11.32324Z"/>
    <path class="cls-1" d="M1112.81348,207.85352V195.001l11.32226-4.08008v16.93262h11.22071v8.67089h-11.22071v27.74512c0,3.46875,2.24414,5.40625,5.917,5.40625a23.59867,23.59867,0,0,0,4.79395-.6123l.918,9.18066a39.46733,39.46733,0,0,1-7.44629.81641c-9.99707,0-15.50488-5.30469-15.50488-14.58692V216.52441h-7.14063v-8.67089Z"/>
  </g>
  <path class="cls-1" d="M1525.65137,152.30859l-14.2041-1.876c2.41211-13.93653,15.1416-23.4502,31.75781-23.4502,17.28711,0,29.749,10.31836,29.749,25.46,0,9.38086-4.69043,16.751-12.86426,20.36914,9.2461,3.34961,14.874,11.38965,14.874,22.24414,0,16.48243-12.99805,27.87305-31.89258,27.87305-17.41992,0-30.9541-9.916-33.36621-24.38867l14.33789-2.41211c2.41211,8.44238,9.51465,13.668,19.29687,13.668,10.1836,0,16.75-5.62793,16.75-14.874s-6.43164-15.27637-17.01855-15.27637h-5.0918V167.31738h5.0918c9.24609,0,15.00879-5.36035,15.00879-13.80273s-5.89649-13.40039-15.14258-13.40039C1533.959,140.11426,1527.39355,144.80469,1525.65137,152.30859Z"/>
  <polygon class="cls-1" points="1668 195 1810 195 1768 245 1819 245 1888 175 1819 105 1768 105 1810 155 1668 155 1668 195"/>
</svg>
