<svg xmlns="http://www.w3.org/2000/svg" width="1284" height="1284">
<title>5.62 Схема руху</title>
<defs><clipPath id="a"><path d="m351.658 952.394 202.948 202.948a144.842 144.842 0 0 1-202.948-202.948zm217.75-14.803a144.842 144.842 0 0 0-190.014-12.933l202.948 202.948a144.842 144.842 0 0 0-12.933-190.015z" style="fill:none"/></clipPath><style>.b{fill:#fff}</style></defs><rect class="b" x="1" y="1" width="1282" height="1282" rx="46"/><path d="M1237 2a45 45 0 0 1 45 45v1190a45 45 0 0 1-45 45H47a45 45 0 0 1-45-45V47A45 45 0 0 1 47 2h1190m0-2H47A47.053 47.053 0 0 0 0 47v1190a47.053 47.053 0 0 0 47 47h1190a47.053 47.053 0 0 0 47-47V47a47.053 47.053 0 0 0-47-47z"/><path d="M918 251H512a70.077 70.077 0 0 0-70 70v375H157l55-55h-60l-80 80 80 80h60l-55-55h285v516h50V746h426a70.077 70.077 0 0 0 70-70V321a70.077 70.077 0 0 0-70-70zm20 425a20.02 20.02 0 0 1-20 20H492V321a20.02 20.02 0 0 1 20-20h406a20.02 20.02 0 0 1 20 20z"/><path d="M47 22h315v594H22V47a24.996 24.996 0 0 1 25-25zM22 1237a24.996 24.996 0 0 0 25 25h315V826H22zM856 22H572v149h284zm0 359H572v235h284zm381-359h-171v594h196V47a24.996 24.996 0 0 0-25-25zM572 1262h665a24.996 24.996 0 0 0 25-25V826H572z" style="fill:#005da2"/><circle class="b" cx="467" cy="1040" r="180"/><path d="M438.034 1030.345v-30.173h49.483a18.103 18.103 0 0 1 18.104 18.104v130.345h36.207v-136.38a48.276 48.276 0 0 0-48.276-48.275h-55.518v-30.173l-85.69 48.276z" style="clip-path:url(#a)"/><path d="M467 865a175 175 0 1 0 175 175 175.002 175.002 0 0 0-175-175zm56.362 308.459A144.837 144.837 0 0 1 354.47 948.8l203.73 203.73a144.333 144.333 0 0 1-34.837 20.928zm56.17-42.26L375.8 927.47a144.837 144.837 0 0 1 203.73 203.73z" style="fill:#da251d"/></svg>