<svg xmlns="http://www.w3.org/2000/svg" width="1054" height="604"><rect x="1" y="1" width="1052" height="602" rx="46" style="fill:#fff"/><path d="M1007 2a45 45 0 0 1 45 45v510a45 45 0 0 1-45 45H47a45 45 0 0 1-45-45V47A45 45 0 0 1 47 2h960m0-2H47A47.053 47.053 0 0 0 0 47v510a47.053 47.053 0 0 0 47 47h960a47.053 47.053 0 0 0 47-47V47a47.053 47.053 0 0 0-47-47z"/><rect x="17" y="17" width="1020" height="570" rx="30" style="fill:#ffdf00"/><path d="M1007 22a25.028 25.028 0 0 1 25 25v510a25.028 25.028 0 0 1-25 25H47a25.028 25.028 0 0 1-25-25V47a25.028 25.028 0 0 1 25-25h960m0-10H47a35 35 0 0 0-35 35v510a35 35 0 0 0 35 35h960a35 35 0 0 0 35-35V47a35 35 0 0 0-35-35z"/><path d="M866.055 229.755v40.19h-99v62h99v43.3l126-72.74-126-72.75zM142.107 270.617c-31.291 0-48.932-19.531-48.932-54.392 0-34.861 17.64-54.392 48.932-54.392s48.932 19.53 48.932 54.392c0 34.86-17.641 54.392-48.932 54.392zm0-23.521c14.7 0 22.26-10.29 22.26-30.87 0-20.582-7.56-30.872-22.26-30.872-14.7 0-22.26 10.29-22.26 30.871 0 20.58 7.56 30.87 22.26 30.87zM299.395 145.033l-36.96 3.57c-20.581 1.89-29.821 11.97-31.291 34.44 4.83-10.71 17.01-17.01 32.55-17.01 28.141 0 44.312 18.48 44.312 51.452 0 34.02-17.64 53.132-48.511 53.132-31.081 0-49.772-19.531-49.772-72.033 0-48.301 16.17-71.822 52.502-75.182l37.17-3.57zm-39.9 102.063c14.49 0 22.05-9.87 22.05-29.191 0-19.32-7.56-29.191-22.05-29.191-14.491 0-22.051 9.66-22.051 28.98 0 19.322 7.56 29.402 22.05 29.402zM352.525 171.704h-24.99v-49.982h24.99zM377.092 119.202c7.77 0 13.23 5.67 13.23 13.44s-5.46 13.02-13.23 13.02c-7.77 0-13.23-5.46-13.23-13.02 0-7.77 5.67-13.44 13.23-13.44zm31.08 149.525h-26.46V163.723h26.46zm4.62-149.525c7.771 0 13.231 5.67 13.231 13.44s-5.46 13.02-13.23 13.02c-7.77 0-13.23-5.25-13.23-13.02s5.46-13.44 13.23-13.44zM450.59 196.484l-18.9-10.92c9.03-16.17 23.52-23.731 45.152-23.731 25.83 0 41.37 10.92 41.37 30.241 0 10.29-4.41 18.27-12.81 23.1 9.871 4.83 15.121 13.231 15.121 24.572 0 19.53-16.17 30.87-43.891 30.87-22.47 0-36.961-7.56-45.991-23.52l18.9-10.92c5.04 8.61 13.02 12.6 25.201 12.6 12.39 0 19.11-4.41 19.11-12.6 0-6.93-4.62-11.131-13.23-11.131h-18.48v-18.69h16.8c7.98 0 12.6-4.2 12.6-10.92 0-7.561-5.88-11.761-17.01-11.761-11.34 0-18.901 3.99-23.941 12.81zM532.488 298.127v-52.081h11.34c9.45-8.4 11.55-28.561 13.44-82.323h77.284v82.323h15.75v52.081h-20.16l-4.83-29.4h-67.833l-4.62 29.4zm75.603-52.081v-59.852H580.79c-1.05 28.351-3.36 47.041-8.4 59.852zM136.017 465.627c-27.301 0-42.842-19.531-42.842-54.393s15.54-54.391 43.052-54.391c11.97 0 21.42 3.99 27.93 11.97v-52.081h26.672v147.004h-25.202v-11.97c-6.51 9.03-16.38 13.861-29.61 13.861zm5.88-23.521c14.7 0 22.26-10.29 22.26-30.872 0-20.58-7.56-30.87-22.26-30.87-14.7 0-22.05 10.29-22.05 30.66 0 20.791 7.35 31.081 22.05 31.081zM214.344 411.234c0-34.23 17.85-54.391 48.092-54.391 30.24 0 47.251 19.95 47.251 55.442v7.14h-69.092c.42 15.54 10.5 23.52 26.671 23.52 9.66 0 18.48-3.15 25.41-10.29l15.33 16.38c-11.129 10.501-23.31 16.592-41.58 16.592-32.971 0-52.082-19.111-52.082-54.393zm26.251-10.5h44.522c-1.26-14.28-9.241-22.05-21.841-22.05-13.23 0-21.211 7.77-22.68 22.05zM336.985 358.732v-25.83l26.67-9.66v35.49h22.262v20.162h-22.261v53.551c0 6.301 3.99 9.66 10.92 9.66a50.431 50.431 0 0 0 9.87-1.26l2.31 21.42a96.473 96.473 0 0 1-16.59 1.681c-21.42 0-33.181-11.13-33.181-30.87v-54.182h-14.28v-20.162zM449.967 465.627c-31.29 0-48.931-19.531-48.931-54.393s17.64-54.391 48.931-54.391 48.932 19.53 48.932 54.391-17.64 54.393-48.932 54.393zm0-23.521c14.7 0 22.261-10.29 22.261-30.872 0-20.58-7.56-30.87-22.26-30.87-14.91 0-22.261 10.29-22.261 30.87 0 20.581 7.35 30.871 22.26 30.871zM587.515 358.732h26.671v105.004h-24.571v-10.92c-7.77 8.4-18.06 12.811-31.081 12.811-23.52 0-36.961-14.491-36.961-39.902v-66.993h26.46v64.473c0 12.18 7.141 18.9 19.321 18.9 12.6 0 20.161-7.35 20.161-20.58zM643.792 358.732h24.99v14.702c7.561-10.92 17.641-16.591 31.292-16.591a39.853 39.853 0 0 1 14.7 2.73l-10.5 24.15a20.74 20.74 0 0 0-10.711-2.729c-14.91 0-23.31 11.13-23.31 30.66v52.082H643.79z"/></svg>