<svg id="Слой_1" data-name="Слой 1" xmlns="http://www.w3.org/2000/svg" width="1000" height="380" viewBox="0 0 1000 380">
  <defs>
    <style>
      .cls-1 {
        fill: #fff;
      }
    </style>
  </defs>
  <g>
    <rect class="cls-1" x="0.5" y="0.5" width="999" height="379" rx="39.5"/>
    <path d="M960,1a39.04421,39.04421,0,0,1,39,39V340a39.04422,39.04422,0,0,1-39,39H40A39.04423,39.04423,0,0,1,1,340V40A39.04422,39.04422,0,0,1,40,1H960m0-1H40A40,40,0,0,0,0,40V340a40,40,0,0,0,40,40H960a40,40,0,0,0,40-40V40A40,40,0,0,0,960,0Z"/>
  </g>
  <path d="M955,20a25.02839,25.02839,0,0,1,25,25V335a25.02839,25.02839,0,0,1-25,25H45a25.02837,25.02837,0,0,1-25-25V45A25.02837,25.02837,0,0,1,45,20H955m0-10H45A35,35,0,0,0,10,45V335a35,35,0,0,0,35,35H955a34.99994,34.99994,0,0,0,35-35V45a35,35,0,0,0-35-35Z"/>
  <g>
    <path d="M163.40088,109.72754a18.20132,18.20132,0,0,1-8.34424,15.94336c7.00342,3.42724,10.728,9.23828,10.728,17.13525,0,13.41016-10.728,21.00928-29.65137,21.00928H101.56494v-74.501h33.37647C153.11963,89.31445,163.40088,96.76465,163.40088,109.72754ZM135.5376,119.562c5.66211,0,8.93994-2.83105,8.93994-7.74853,0-4.76807-3.27783-7.59864-8.93994-7.59864H120.33936V119.562Zm1.63867,29.353c6.10937,0,9.68555-2.98,9.68555-8.19483,0-5.0664-3.57618-7.897-9.68555-7.897H120.33936V148.915Z"/>
    <path d="M191.26367,191.97656c-4.17187,0-8.791-.5957-12.36719-2.38379l1.78809-15.79443a17.787,17.787,0,0,0,7.30078,1.49072c6.10938,0,9.68555-3.12939,12.36719-11.77148L172.04248,89.31445h20.11523L209.293,138.03809,226.2793,89.31445h20.11523L215.7002,170.22266C209.59082,186.46387,203.333,191.97656,191.26367,191.97656Z"/>
    <path d="M246.544,149.51123c12.66552-3.42725,15.34765-12.06934,17.43359-60.19678h54.08789v74.501H299.291V105.25781H280.66553c-1.78809,42.61426-8.19483,55.57764-29.94922,60.49463Z"/>
    <path d="M349.0542,139.23c7.74853,0,13.26123,5.51318,13.26123,13.11231,0,7.748-5.5127,13.26123-13.26123,13.26123-7.748,0-13.26123-5.51319-13.26123-13.26123C335.793,144.74316,341.30615,139.23,349.0542,139.23Z"/>
    <path d="M430.854,111.66455c0,23.54248,8.0459,35.76074,23.39307,35.76074,10.43018,0,17.88037-5.66211,21.60547-16.39013l19.519,3.1289c-5.21484,19.96631-19.81738,30.99219-40.97558,30.99219-27.86329,0-43.65772-19.37012-43.65772-53.34277,0-34.27,15.94336-53.64063,43.65772-53.64063,21.00927,0,35.61181,11.02637,40.97558,30.84375l-19.519,3.12891c-3.7251-10.728-10.87744-16.24121-21.45654-16.24121C438.8999,75.9043,430.854,88.12256,430.854,111.66455Z"/>
    <path d="M508.481,98.25439c9.08886-7.00293,18.625-10.28125,30.69433-10.28125,19.96631,0,30.24756,8.79151,30.24756,26.07569v29.80029a9.182,9.182,0,0,0,6.55615,9.23828l-5.66211,11.91992c-8.04638,0-13.85742-2.53271-16.98632-7.59912-4.32129,4.917-12.21827,7.74805-21.7544,7.74805-16.24121,0-25.62842-8.19482-25.62842-21.605,0-14.3042,10.57911-23.24463,28.31055-24.43652l16.39014-1.043v-3.12891c0-6.854-4.76807-10.728-13.41016-10.728a30.12634,30.12634,0,0,0-19.07226,6.70508Zm27.26709,33.82373c-7.59864.44678-11.771,4.02295-11.771,9.68506,0,5.811,4.17236,9.08887,12.36719,9.08887,9.38721,0,14.3042-4.61865,14.3042-14.15478v-5.51319Z"/>
    <path d="M581.7876,184.67578V147.72314h8.0459c6.70507-5.96,8.19531-20.26416,9.53613-58.40869h54.833v58.40869h11.1748v36.95264h-14.3042l-3.42676-20.86035H599.51855l-3.27783,20.86035Zm53.64062-36.95264V105.25781H616.05811c-.74512,20.11524-2.38428,33.37647-5.96045,42.46533Z"/>
    <path d="M709.18164,165.15625c-22.20117,0-34.71728-13.85693-34.71728-38.59131s12.51611-38.5918,34.71728-38.5918,34.71777,13.85743,34.71777,38.5918S731.38281,165.15625,709.18164,165.15625Zm0-16.688c10.42969,0,15.79395-7.30127,15.79395-21.90332s-5.36426-21.90332-15.79395-21.90332c-10.43018,0-15.79443,7.30127-15.79443,21.90332S698.75146,148.46826,709.18164,148.46826Z"/>
    <path d="M822.56934,109.72754a18.20307,18.20307,0,0,1-8.34375,15.94336c7.00293,3.42724,10.72753,9.23828,10.72753,17.13525,0,13.41016-10.72753,21.00928-29.65136,21.00928H760.7334v-74.501h33.377C812.28809,89.31445,822.56934,96.76465,822.56934,109.72754ZM794.70605,119.562c5.66211,0,8.94043-2.83105,8.94043-7.74853,0-4.76807-3.27832-7.59864-8.94043-7.59864H779.50781V119.562Zm1.63868,29.353c6.10937,0,9.68554-2.98,9.68554-8.19483,0-5.0664-3.57617-7.897-9.68554-7.897H779.50781V148.915Z"/>
    <path d="M839.85254,98.25439c9.08887-7.00293,18.625-10.28125,30.69434-10.28125,19.96679,0,30.24707,8.79151,30.24707,26.07569v29.80029a9.183,9.183,0,0,0,6.55664,9.23828l-5.66211,11.91992c-8.0459,0-13.85743-2.53271-16.98633-7.59912-4.32129,4.917-12.21777,7.74805-21.75391,7.74805-16.24121,0-25.6289-8.19482-25.6289-21.605,0-14.3042,10.5791-23.24463,28.31054-24.43652l16.39063-1.043v-3.12891c0-6.854-4.76856-10.728-13.41016-10.728a30.12537,30.12537,0,0,0-19.07226,6.70508Zm27.26758,33.82373c-7.59961.44678-11.77149,4.02295-11.77149,9.68506,0,5.811,4.17188,9.08887,12.36719,9.08887,9.38672,0,14.30469-4.61865,14.30469-14.15478v-5.51319Z"/>
  </g>
  <g>
    <path d="M124.91016,296.65527c-11.41358,0-22.71436-3.16406-30.62452-12.65722l10.62256-9.49219c5.085,5.877,12.76953,8.70117,21.01905,8.70117,9.2666,0,14.69091-3.50293,14.69091-9.37891,0-6.10253-5.76318-9.94531-17.17675-11.64062-17.40332-2.59863-26.55664-10.84766-26.55664-24.07031,0-14.01172,10.62255-22.60059,28.59033-22.60059,10.62256,0,21.13232,3.05176,28.02588,10.50879l-10.73584,9.1543c-4.40723-4.52051-10.50928-6.21485-16.72461-6.21485-8.81494,0-13.89991,3.38965-13.89991,9.15235,0,5.4248,4.7461,8.58984,15.36866,10.17187,18.42041,2.82422,28.252,11.29981,28.252,24.86133C155.76123,287.72754,144.46045,296.65527,124.91016,296.65527Z"/>
    <path d="M166.49219,245.916a35.98135,35.98135,0,0,1,23.27929-7.79883c15.14258,0,22.94043,6.668,22.94043,19.77734v22.60059a6.96524,6.96524,0,0,0,4.97217,7.00683l-4.29443,9.041c-6.102,0-10.50977-1.92188-12.88281-5.76367-3.27686,3.72851-9.26661,5.876-16.499,5.876-12.31738,0-19.437-6.21582-19.437-16.38574,0-10.84961,8.02344-17.62891,21.47119-18.5332l12.43067-.791v-2.373c0-5.19922-3.61621-8.13672-10.17041-8.13672a22.84622,22.84622,0,0,0-14.46485,5.08593Zm20.68017,25.65234c-5.76367.33789-8.92773,3.05078-8.92773,7.34473,0,4.40722,3.16406,6.89355,9.37939,6.89355,7.11963,0,10.84864-3.50391,10.84864-10.73633v-4.18066Z"/>
    <path d="M247.85352,296.65527c-14.69092,0-23.05372-10.50976-23.05372-29.26855,0-18.75977,8.3628-29.26953,23.16651-29.26953,6.4414,0,11.52685,2.14843,15.02978,6.4414V216.5332h14.35205v79.10547h-13.561v-6.4414C260.28418,294.05664,254.97266,296.65527,247.85352,296.65527Zm3.16406-12.65722c7.91015,0,11.97851-5.53711,11.97851-16.61133s-4.06836-16.61231-11.97851-16.61231c-7.91065,0-11.86572,5.53809-11.86572,16.499C239.15186,278.46094,243.10693,283.99805,251.01758,283.99805Z"/>
    <path d="M316.33105,296.65527c-16.83789,0-26.33056-10.50976-26.33056-29.26855,0-18.75977,9.49267-29.26953,26.33056-29.26953s26.33057,10.50976,26.33057,29.26953C342.66162,286.14551,333.169,296.65527,316.33105,296.65527Zm0-12.65722c7.91065,0,11.979-5.53711,11.979-16.61133s-4.06836-16.61231-11.979-16.61231c-8.02343,0-11.97851,5.53809-11.97851,16.61231S308.30762,283.99805,316.33105,283.99805Z"/>
    <path d="M383.45215,295.63867H368.76123l-20.793-56.5039h15.25586l12.99561,38.64843,12.88281-38.64843H404.3584Z"/>
    <path d="M410.68457,245.916a35.98138,35.98138,0,0,1,23.2793-7.79883c15.14258,0,22.94043,6.668,22.94043,19.77734v22.60059a6.96523,6.96523,0,0,0,4.97216,7.00683l-4.29443,9.041c-6.102,0-10.50976-1.92188-12.88281-5.76367-3.27686,3.72851-9.2666,5.876-16.499,5.876-12.31739,0-19.437-6.21582-19.437-16.38574,0-10.84961,8.02344-17.62891,21.4712-18.5332l12.43066-.791v-2.373c0-5.19922-3.61621-8.13672-10.17041-8.13672a22.84619,22.84619,0,0,0-14.46484,5.08593Zm20.68018,25.65234c-5.76368.33789-8.92774,3.05078-8.92774,7.34473,0,4.40722,3.16406,6.89355,9.3794,6.89355,7.11963,0,10.84863-3.50391,10.84863-10.73633v-4.18066Z"/>
    <path d="M517.24463,296.65527c-10.62305,0-18.75928-3.27734-24.18359-9.15332l8.02343-8.70117c3.50342,3.8418,9.60547,6.10156,16.61182,6.10156,6.66748,0,10.62256-2.25976,10.62256-5.76367,0-3.27734-3.39014-4.74609-11.3003-5.65039-15.59521-1.80762-22.14941-7.11914-22.14941-17.6289,0-11.52637,7.91065-17.74219,22.48828-17.74219,9.3794,0,16.95117,2.48633,22.14942,7.459l-8.58887,8.36328c-3.16406-2.59961-8.249-4.06836-13.78662-4.06836-5.76319,0-9.2666,1.80762-9.2666,4.97168,0,3.05176,2.93847,4.7461,10.96191,5.53809,15.93359,1.91992,22.48828,6.7793,22.48828,17.40234C541.31494,289.875,532.72656,296.65527,517.24463,296.65527Z"/>
    <path d="M554.4209,239.13477V225.23438l14.35156-5.19727v19.09766h11.979V249.9834h-11.979v28.81738c0,3.38965,2.14746,5.19727,5.87647,5.19727a27.12232,27.12232,0,0,0,5.31152-.67774l1.24267,11.52735a52.00278,52.00278,0,0,1-8.92724.90332c-11.52686,0-17.855-5.98926-17.855-16.61231V249.9834h-7.68457V239.13477Z"/>
    <path d="M592.27539,239.13477h13.44775v7.91015c4.06836-5.876,9.49268-8.92773,16.8379-8.92773a21.46729,21.46729,0,0,1,7.91064,1.46972L624.82129,252.582a11.163,11.163,0,0,0-5.76318-1.46875c-8.02344,0-12.544,5.99024-12.544,16.5v28.02539H592.27539Z"/>
    <path d="M639.73633,276.99219a10.00114,10.00114,0,1,1-10.05762,9.94433A9.64553,9.64553,0,0,1,639.73633,276.99219Z"/>
  </g>
</svg>
