<svg xmlns="http://www.w3.org/2000/svg" width="930" height="520" viewBox="0 0 930 520">
  <g>
    <rect x="0.5" y="0.5" width="929" height="519" rx="29.5" style="fill: #fff"/>
    <path d="M900,1a29,29,0,0,1,29,29V490a29,29,0,0,1-29,29H30A29,29,0,0,1,1,490V30A29,29,0,0,1,30,1H900m0-1H30A30,30,0,0,0,0,30V490a30,30,0,0,0,30,30H900a30,30,0,0,0,30-30V30A30,30,0,0,0,900,0Z"/>
  </g>
  <rect x="10" y="10" width="910" height="500" rx="25" style="fill: #005999"/>
  <g>
    <path d="M154.74,87.55c21.62,0,34,15.34,34,42.56s-12.37,42.57-34.15,42.57c-10.23,0-18.15-3.79-23.27-11.05v39.43H113V88.87h17.16v11C135.44,91.84,143.69,87.55,154.74,87.55ZM151,103.71c-12.87,0-19.64,8.91-19.64,26.4s6.77,26.4,19.64,26.4c12.7,0,19.47-8.91,19.47-26.23C170.42,112.79,163.65,103.71,151,103.71Z" style="fill: #fff"/>
    <path d="M216.78,146.12c7.92,0,13.7,5.61,13.7,13.53a13.26,13.26,0,0,1-13.7,13.69c-7.92,0-13.53-5.77-13.53-13.69S208.86,146.12,216.78,146.12Z" style="fill: #fff"/>
    <path d="M282,154.53h11.55c9.73-11.22,12.37-33.82,15-98.66H380v98.66h14.52v41.58h-15l-3.3-24.75h-75.9L297,196.11H282Zm78.7,0V73H325.35c-2.31,43.72-5,67.64-11.71,81.5Z" style="fill: #fff"/>
    <path d="M429.63,171.36H411.31V88.87h18.32V121.7H465.1V88.87h18.32v82.49H465.1v-34H429.63Z" style="fill: #fff"/>
    <path d="M517.57,52.73a10.89,10.89,0,0,1,11.22,11.06c0,6.43-4.78,11.05-11.22,11.05a11.06,11.06,0,0,1,0-22.11Zm9.24,118.63H508.5V88.87h18.31Z" style="fill: #fff"/>
    <path d="M551.89,171.36V88.87h71.28v82.49H604.85V104.54H570.2v66.82Z" style="fill: #fff"/>
    <path d="M690,87.55c21.62,0,34,15.34,34,42.56s-12.37,42.57-34.15,42.57c-10.23,0-18.15-3.79-23.27-11.05v39.43H648.25V88.87h17.16v11C670.69,91.84,678.94,87.55,690,87.55Zm-3.79,16.16c-12.87,0-19.64,8.91-19.64,26.4s6.77,26.4,19.64,26.4c12.7,0,19.47-8.91,19.47-26.23C705.67,112.79,698.9,103.71,686.2,103.71Z" style="fill: #fff"/>
    <path d="M776.78,172.68c-24.25,0-37.78-15.34-37.78-42.57s13.53-42.56,37.78-42.56c24.09,0,38,15.34,38,42.56S800.87,172.68,776.78,172.68Zm0-16.17c12.71,0,19.64-8.91,19.64-26.4s-6.93-26.4-19.64-26.4c-12.87,0-19.47,8.91-19.47,26.4C757.31,147.44,763.91,156.51,776.78,156.51Z" style="fill: #fff"/>
  </g>
  <g>
    <path d="M113,327.79V241h33.48c23.56,0,35,17.23,35,43.39s-11.28,43.4-35,43.4Zm14.51-73.9v60.88h15.37c18,0,23.93-11.16,23.93-30.38s-5.95-30.5-23.93-30.5Z" style="fill: #fff"/>
    <path d="M211.08,327.79H197.32v-62h12.89v6.95c4.59-5.33,10.67-7.94,18.48-7.94,14.13,0,22.19,8.43,22.19,23.31v39.68H237.12V289.23c0-7.81-4.71-12.28-12.77-12.28-8.43,0-13.27,4.72-13.27,13.15Z" style="fill: #fff"/>
    <path d="M275.93,238.64a8.31,8.31,0,1,1-8.3,8.31A8.18,8.18,0,0,1,275.93,238.64Zm6.95,89.15H269.11v-62h13.77Z" style="fill: #fff"/>
    <path d="M333,264.8c16.12,0,25.42,11.53,25.42,32s-9.18,32-25.42,32c-7.81,0-13.64-2.85-17.48-8.31v29.64H301.72V265.79h12.9v8.31C318.59,268,324.66,264.8,333,264.8ZM330.12,277c-9.55,0-14.63,6.7-14.63,19.84s5.08,19.84,14.63,19.84,14.5-6.7,14.5-19.71S339.66,277,330.12,277Z" style="fill: #fff"/>
    <path d="M373.52,265.79h12.89v9.3c4.34-6.82,10.54-10.29,18.85-10.29a22.79,22.79,0,0,1,9.05,1.61l-5.45,12.65a13,13,0,0,0-6.82-1.73c-9.43,0-14.76,6.94-14.76,19.21v31.25H373.52Z" style="fill: #fff"/>
    <path d="M449,328.78c-18.1,0-28.39-11.53-28.39-32s10.29-32,28.39-32,28.52,11.53,28.52,32S467.26,328.78,449,328.78Zm0-12.15c9.67,0,14.76-6.7,14.76-19.84S458.7,277,449,277s-14.63,6.7-14.63,19.84S439.49,316.63,449,316.63Z" style="fill: #fff"/>
    <path d="M521.57,265.79h12.9v9.3c4.34-6.82,10.54-10.29,18.84-10.29a22.84,22.84,0,0,1,9.06,1.61l-5.46,12.65a13,13,0,0,0-6.82-1.73c-9.42,0-14.75,6.94-14.75,19.21v31.25H521.57Z" style="fill: #fff"/>
    <path d="M581,238.64a8.31,8.31,0,1,1-8.31,8.31A8.19,8.19,0,0,1,581,238.64Zm6.94,89.15H574.15v-62h13.76Z" style="fill: #fff"/>
    <path d="M636.39,327.79H622.26l-23.19-62H613.7l15.62,45,15.75-45H659.7Z" style="fill: #fff"/>
    <path d="M670.25,308.82A10.23,10.23,0,1,1,660.08,319,9.77,9.77,0,0,1,670.25,308.82Z" style="fill: #fff"/>
  </g>
  <path d="M811.92,444.48S796,444.3,777,430.06C759,415.33,755.46,390,755.46,390H730s-3.51,25.33-21.51,40.06c-20.53,15.36-35.2,13.41-35.2,13.41s-14.66,1.95-35.19-13.41c-18-14.73-21.51-40.06-21.51-40.06H591.2s-3.51,25.33-21.51,40.06c-20.52,15.36-35.19,13.41-35.19,13.41s-14.67,1.95-35.19-13.41C481.31,415.33,477.8,390,477.8,390H452.37s-3.51,25.33-21.51,40.06c-20.53,15.36-35.19,13.41-35.19,13.41s-14.67,1.95-35.2-13.41C342.47,415.33,339,390,339,390H313.54S310,415.33,292,430.06c-20.53,15.36-35.2,13.41-35.2,13.41s-14.66,1.95-35.19-13.41c-18-14.73-21.51-40.06-21.51-40.06H174.7s-3.51,25.33-21.51,40.06C132.67,445.42,118,445.47,118,445.47V465s20,.86,37.15-9.24c16-9.44,32.27-29.79,32.27-29.79s16.27,20.35,32.27,29.79c17.11,10.1,37.14,9.24,37.14,9.24s20,.86,37.15-9.24C310,446.3,326.25,426,326.25,426s16.27,20.35,32.27,29.79c17.12,10.1,37.15,9.24,37.15,9.24s20,.86,37.14-9.24c16-9.44,32.27-29.79,32.27-29.79s16.28,20.35,32.27,29.79c17.12,10.1,37.15,9.24,37.15,9.24s20,.86,37.15-9.24c16-9.44,32.27-29.79,32.27-29.79s16.27,20.35,32.27,29.79c17.11,10.1,37.14,9.24,37.14,9.24s20,.86,37.15-9.24c16-9.44,32.27-29.79,32.27-29.79S759,446.3,775,455.74c16.69,9.85,37.1,9.24,37.1,9.24Z" style="fill: #fff"/>
</svg>
