<svg xmlns="http://www.w3.org/2000/svg" width="1384" height="454">
<title>5.67.2 Номер і напрямок маршруту (дороги)</title>
<defs><style>.a{fill:#fff}.b{fill:#da251d}</style></defs><rect class="a" x="1" y="1" width="1382" height="452" rx="46"/><path d="M1337 2a45 45 0 0 1 45 45v360a45 45 0 0 1-45 45H47a45 45 0 0 1-45-45V47A45 45 0 0 1 47 2h1290m0-2H47A47.053 47.053 0 0 0 0 47v360a47.053 47.053 0 0 0 47 47h1290a47.053 47.053 0 0 0 47-47V47a47.053 47.053 0 0 0-47-47z"/><rect class="b" x="452" y="22" width="910" height="410" rx="25"/><rect class="b" x="22" y="22" width="410" height="410" rx="25"/><path class="a" d="M174 127h60l-75 75h221v50H159l75 75h-60L74 227l100-100zM609.725 337.358h-42.881V113.354h42.88v90.881h90.563v-90.881h42.881v224.004h-42.88v-95.042h-90.563zM876.605 265.997h-88.001v-37.121h88.001zM990.201 109.513c52.483 0 77.762 38.08 77.762 115.523 0 77.121-25.28 115.202-77.762 115.202-52.48 0-77.762-38.08-77.762-115.202 0-77.442 25.282-115.523 77.762-115.523zm-37.12 115.523c0 50.881 13.12 79.361 37.12 79.361s37.121-28.48 37.121-79.36c0-51.203-13.12-79.683-37.12-79.683s-37.122 28.48-37.122 79.682zM1141.24 173.194l-39.04-5.12c5.439-33.6 36.8-57.601 77.12-57.601 42.24 0 72.643 25.6 72.643 62.082 0 21.44-10.56 38.72-29.121 47.68 21.119 8.64 33.6 27.522 33.6 52.161 0 40.001-32 67.842-77.442 67.842-42.88 0-75.842-24.96-80.96-60.16l39.358-6.401c4.801 18.88 20.801 30.72 42.243 30.72 21.76 0 36.16-12.16 36.16-32.32 0-19.84-14.08-33.281-36.48-33.281h-13.122v-33.28h13.121c19.52 0 32-11.841 32-30.081 0-17.921-12.799-29.122-32.64-29.122-19.2 0-33.92 10.24-37.44 26.881z"/></svg>