<svg id="Слой_1" data-name="Слой 1" xmlns="http://www.w3.org/2000/svg" width="600" height="900" viewBox="0 0 600 900">
  <defs>
    <style>
      .cls-1 {
        fill: #fff;
      }

      .cls-2 {
        fill: #055c9d;
      }
    </style>
  </defs>
  <g>
    <g>
      <rect class="cls-1" x="0.5" y="0.5" width="599" height="899" rx="49.5"/>
      <path d="M550,1a49.05552,49.05552,0,0,1,49,49V850a49.05551,49.05551,0,0,1-49,49H50A49.05552,49.05552,0,0,1,1,850V50A49.05552,49.05552,0,0,1,50,1H550m0-1H50A50,50,0,0,0,0,50V850a50,50,0,0,0,50,50H550a50,50,0,0,0,50-50V50A50,50,0,0,0,550,0Z"/>
    </g>
    <rect class="cls-2" x="12.5" y="12.5" width="575" height="875" rx="39.88095"/>
    <rect class="cls-1" x="65" y="131" width="470" height="470" rx="32.76087"/>
    <path d="M430.01,376.11,459,450H431l-37-61-7,4H324.74l56.22,159h-36L230.07,393H146.33a20.08259,20.08259,0,0,1-6.61005-1.12q-59.44491-20.88006,0-41.76A20.08259,20.08259,0,0,1,146.33,349h83.79L345,190h36L324.78,349H387l7,4,37-61h28l-28.99,73.89A13.97792,13.97792,0,0,0,430.01,376.11Z"/>
  </g>
</svg>
