<svg xmlns="http://www.w3.org/2000/svg" width="600" height="900"><path d="M550 0H50C22.5 0 0 22.5 0 50v800c0 27.5 22.5 50 50 50h500c27.5 0 50-22.5 50-50V50c0-27.5-22.5-50-50-50h0z"/><path fill="#fff" d="M550 .5c27.295 0 49.5 22.206 49.5 49.5v800c0 27.295-22.205 49.5-49.5 49.5H50C22.706 899.5.5 877.295.5 850V50C.5 22.706 22.706.5 50 .5h500"/><path fill="#005ca1" d="M587.791 851c0 19.25-15.75 35-35 35H48.209c-19.25 0-35.015-16.75-35.015-36V48.103c0-19.25 14.765-35.641 34.015-35.641h506.582c19.25 0 34 15.4 34 34.641V851z"/><path fill="#fff" d="M534.625 566.463c0 18.461-13.926 33.57-32.39 33.57H98.765c-18.463 0-32.515-15.109-32.515-33.57V164.57c0-18.464 14.052-33.57 32.515-33.57h403.471c18.464 0 32.39 15.1 32.39 33.57l-.001 401.893h0z"/><path d="M375.5 436h-17V263h15.063c1.938 0 1.938 1.813 1.938 1.813L375.5 436h0zm28.75 0h-16.5V278.75h14.625c1.875 0 1.875 2.375 1.875 2.375V436zm79.188-116.25h-48s-1.938.188-1.938-1.938V297s.188-2-2-2h-15.25v155H358.5v16.75h75V432h51.75V321.625s0-1.875-1.812-1.875zM345.503 489c0 17.6-14.399 32-32 32H153.577c-17.6 0-32-14.4-32-32V242.972c0-17.6 14.4-32 32-32h159.926c17.601 0 32 14.4 32 32V489z"/><circle fill="#fff" cx="218.5" cy="419" r="59.1"/><circle cx="218.5" cy="419" r="43.215"/><circle fill="#fff" cx="283.649" cy="271" r="39.052"/><circle cx="283.649" cy="271" r="26.601"/></svg>