<svg id="Слой_1" data-name="Слой 1" xmlns="http://www.w3.org/2000/svg" xmlns:xlink="http://www.w3.org/1999/xlink" width="1592" height="352" viewBox="0 0 1592 352">
  <defs>
    <style>
      .cls-1 {
        fill: none;
      }

      .cls-2 {
        fill: #fff;
      }

      .cls-3 {
        fill: #055c9d;
      }

      .cls-4 {
        clip-path: url(#clip-path);
      }

      .cls-5 {
        fill: #da251d;
      }
    </style>
    <clipPath id="clip-path" transform="translate(1 1)">
      <rect id="SVGID" class="cls-1" x="10" y="10" width="1570" height="330" rx="35"/>
    </clipPath>
  </defs>
  <g>
    <rect class="cls-2" x="0.5" y="0.5" width="1591" height="351" rx="45.5"/>
    <path d="M1545,0a45,45,0,0,1,45,45V305a45,45,0,0,1-45,45H45A45,45,0,0,1,0,305V45A45,45,0,0,1,45,0H1545m0-1H45A46.05221,46.05221,0,0,0-1,45V305a46.0522,46.0522,0,0,0,46,46H1545a46.05221,46.05221,0,0,0,46-46V45a46.05222,46.05222,0,0,0-46-46Z" transform="translate(1 1)"/>
  </g>
  <rect class="cls-3" x="11" y="11" width="1570" height="330" rx="35"/>
  <g>
    <rect class="cls-2" x="109" y="28" width="296" height="296" rx="20"/>
    <g>
      <polygon points="335.5 40 179.5 40 126.5 312 387.5 312 335.5 40"/>
      <g>
        <polygon class="cls-2" points="271.5 312 242.5 312 248 210 266 210 271.5 312"/>
        <polygon class="cls-2" points="266 186 248 186 250 123 264 123 266 186"/>
        <polygon class="cls-2" points="264 110 250 110 252 77 262 77 264 110"/>
        <polygon class="cls-2" points="262 67 252 67 253 40 261 40 262 67"/>
      </g>
      <g>
        <circle class="cls-2" cx="197" cy="253" r="41"/>
        <path d="M189.45459,235.63623v11.30615c1.78516-2.38037,5.01514-2.97558,7.73535-2.97558a14.58518,14.58518,0,0,1,14.28125,14.87646c0,9.52051-7.14062,17.25635-18.44629,17.25635a35.92417,35.92417,0,0,1-11.30615-2.38037l-1.18994-7.73584c2.89014,1.95556,7.39551,2.38037,11.30566,2.38037,4.76074,0,10.71094-2.9751,10.71094-8.92578,0-4.165-2.9751-8.92578-8.33057-8.92578-3.57031,0-5.95068,2.97558-7.14062,3.57031l-5.35547-2.9751v-23.207h27.37207l-2.37988,7.73584Z" transform="translate(1 1)"/>
      </g>
      <g>
        <circle class="cls-2" cx="318" cy="213" r="41"/>
        <g>
          <path d="M298.12964,188.19775h7.14062v47.604H296.9397V198.90869l-6.37549,3.99561L287.759,199.249Z" transform="translate(1 1)"/>
          <path d="M346.241,212c0,14.28076-6.54541,24.397-16.06592,24.397-9.521,0-16.06641-10.11621-16.06641-24.397,0-14.28125,6.54541-24.397,16.06641-24.397C339.69556,187.603,346.241,198.48389,346.241,212Zm-23.80176,0c0,11.90088,3.14551,17.00146,7.73584,17.00146S337.9104,223.90088,337.9104,212s-3.145-17.00146-7.73535-17.00146S322.43921,200.09912,322.43921,212Z" transform="translate(1 1)"/>
        </g>
      </g>
    </g>
  </g>
  <g>
    <path class="cls-2" d="M536.93555,66.833h58.46289v80.63867H581.28711V78.9292H551.04688v68.54248H536.93555Z" transform="translate(1 1)"/>
    <path class="cls-2" d="M626.28711,121.26416c1.00781-6.04785,1.00781-36.28711,1.00781-54.43115h50.39844v80.63867H663.582V78.9292H641.40625s0,30.23926-1.00781,40.31885c-2.87989,28.22363-27.21582,30.23974-27.21582,30.23974l-2.30371-13.53564S624.415,132.35205,626.28711,121.26416Z" transform="translate(1 1)"/>
    <path class="cls-2" d="M731.81348,66.833l26.208,80.63867H742.90137l-5.04-16.12793H709.63867l-5.04,16.12793H689.47852l26.208-80.63867Zm2.0166,52.415L723.75,84.97705l-10.08008,34.271Z" transform="translate(1 1)"/>
    <path class="cls-2" d="M826.2373,66.833V78.9292H804.06152v68.54248h-14.1123V78.9292H767.77441V66.833Z" transform="translate(1 1)"/>
    <path class="cls-2" d="M836.01367,66.833H850.126V99.08887h30.23925V66.833h14.11133v80.63867H880.36523V111.18457H850.126v36.28711H836.01367Z" transform="translate(1 1)"/>
    <path class="cls-2" d="M946.59668,66.833l26.207,80.63867H957.68457l-5.04-16.12793H924.4209l-5.04,16.12793H904.26172l26.207-80.63867Zm2.01562,52.415-10.0791-34.271-10.08008,34.271Z" transform="translate(1 1)"/>
    <path class="cls-2" d="M1044.21289,135.376c4.03125-10.08008,9.07129-37.00733,9.07129-56.44678V66.833h47.375v68.543h9.07227V161.5835h-12.09571V147.47168h-50.39941V161.5835h-12.09571V135.376Zm42.335,0V78.9292h-19.15137c0,19.15137-4.03222,43.34277-9.5039,56.44678Z" transform="translate(1 1)"/>
    <path class="cls-2" d="M1177.55566,107.15234c0,23.32764-10.65625,42.33545-32.832,42.33545s-32.83105-19.00781-32.83105-42.33545,10.65527-42.335,32.83105-42.335S1177.55566,83.82471,1177.55566,107.15234Zm-51.98339,0c0,18.14356,8.06347,29.23145,19.15136,29.23145s19.15137-11.08789,19.15137-29.23145-8.06348-29.23144-19.15137-29.23144S1125.57227,89.00879,1125.57227,107.15234Z" transform="translate(1 1)"/>
    <path class="cls-2" d="M1217.97949,66.833c19.15137,0,26.207,15.12011,26.207,26.20752,0,11.08789-7.05566,26.20752-26.207,26.20752H1204.876v28.22363h-14.11231V66.833ZM1204.876,107.15234h9.07129c8.06445,0,16.12793-4.03173,16.12793-14.11181,0-10.07959-8.06348-14.11133-16.12793-14.11133H1204.876Z" transform="translate(1 1)"/>
    <path class="cls-2" d="M1319.06738,107.15234c0,23.32764-10.65625,42.33545-32.832,42.33545S1253.4043,130.48,1253.4043,107.15234s10.65527-42.335,32.83105-42.335S1319.06738,83.82471,1319.06738,107.15234Zm-51.9834,0c0,18.14356,8.06348,29.23145,19.15137,29.23145s19.15137-11.08789,19.15137-29.23145-8.06348-29.23144-19.15137-29.23144S1267.084,89.00879,1267.084,107.15234Z" transform="translate(1 1)"/>
    <path class="cls-2" d="M1332.27539,66.833h50.39941V78.9292h-36.2871v68.54248h-14.11231Z" transform="translate(1 1)"/>
    <path class="cls-2" d="M1420.75391,66.833l26.207,80.63867H1431.8418l-5.04-16.12793h-28.22364l-5.04,16.12793H1378.419L1404.626,66.833Zm2.01562,52.415-10.0791-34.271-10.08008,34.271Z" transform="translate(1 1)"/>
  </g>
  <g>
    <path class="cls-2" d="M754.3623,204.25586v12.09619H732.18652v68.54248H718.0752V216.35205H695.89941V204.25586Z" transform="translate(1 1)"/>
    <path class="cls-2" d="M824.20215,244.5752c0,23.32763-10.65625,42.33544-32.832,42.33544s-32.83106-19.00781-32.83106-42.33544,10.65528-42.335,32.83106-42.335S824.20215,221.24756,824.20215,244.5752Zm-51.9834,0c0,18.14355,8.06348,29.23144,19.15137,29.23144s19.15136-11.08789,19.15136-29.23144-8.06347-29.23145-19.15136-29.23145S772.21875,226.43164,772.21875,244.5752Z" transform="translate(1 1)"/>
    <path class="cls-2" d="M832.41016,204.25586h14.1123v68.543h36.28711v12.0957H832.41016Z" transform="translate(1 1)"/>
    <path class="cls-2" d="M890.58594,204.25586h14.1123v68.543h36.28711v12.0957H890.58594Z" transform="translate(1 1)"/>
    <path class="cls-2" d="M1034.58594,204.25586c20.15918,0,25.19922,14.11182,25.19922,22.17578,0,11.08789-7.05567,18.14356-15.11914,21.16748,13.10351,3.02393,17.13574,33.26367,26.207,37.29541H1053.7373c-3.14355-4.19238-5.74511-12.74365-9.499-19.98877-3.4668-6.68994-5.62012-12.2666-14.69238-12.2666h-8.06348v32.25537h-14.1123V204.25586Zm-13.10352,36.2876h9.07129c8.06445,0,15.12012-3.45606,15.12012-12.09571,0-8.64013-7.05567-12.0957-15.12012-12.0957h-9.07129Z" transform="translate(1 1)"/>
    <path class="cls-2" d="M1142.72852,244.5752c0,23.32763-10.65625,42.33544-32.832,42.33544s-32.83105-19.00781-32.83105-42.33544,10.65527-42.335,32.83105-42.335S1142.72852,221.24756,1142.72852,244.5752Zm-51.9834,0c0,18.14355,8.06347,29.23144,19.15136,29.23144s19.15137-11.08789,19.15137-29.23144-8.06347-29.23145-19.15137-29.23145S1090.74512,226.43164,1090.74512,244.5752Z" transform="translate(1 1)"/>
    <path class="cls-2" d="M1190.249,204.25586l26.207,80.63867h-15.11914l-5.04-16.12793h-28.22364l-5.04,16.12793h-15.11914l26.207-80.63867Zm2.01563,52.415-10.0791-34.271-10.08008,34.271Z" transform="translate(1 1)"/>
    <path class="cls-2" d="M1287.30371,244.5752c0,23.32763-12.67187,40.31933-34.84766,40.31933h-27.21582V204.25586h27.21582C1274.63184,204.25586,1287.30371,221.24756,1287.30371,244.5752Zm-47.95117-28.22315v56.44678h12.0957c11.08789,0,21.167-9.07178,21.167-28.22363,0-19.15137-10.0791-28.22315-21.167-28.22315Z" transform="translate(1 1)"/>
  </g>
  <g class="cls-4">
    <polygon class="cls-5" points="143.303 341 1581 26 1581 11 1448.697 11 11 316 11 341 143.303 341"/>
  </g>
</svg>
