<svg id="Слой_1" data-name="Слой 1" xmlns="http://www.w3.org/2000/svg" xmlns:xlink="http://www.w3.org/1999/xlink" width="1800" height="350" viewBox="0 0 1800 350">
  <defs>
    <style>
      .cls-1 {
        fill: none;
      }

      .cls-2 {
        fill: #fff;
      }

      .cls-3 {
        fill: #055c9d;
      }

      .cls-4 {
        clip-path: url(#clip-path);
      }

      .cls-5 {
        fill: #da251d;
      }
    </style>
    <clipPath id="clip-path">
      <rect class="cls-1" x="10" y="10" width="1780" height="330" rx="35"/>
    </clipPath>
  </defs>
  <g>
    <rect class="cls-2" x="0.5" y="0.5" width="1799" height="349" rx="44.5"/>
    <path d="M1755,1a44.04994,44.04994,0,0,1,44,44V305a44.04994,44.04994,0,0,1-44,44H45A44.04994,44.04994,0,0,1,1,305V45A44.05,44.05,0,0,1,45,1H1755m0-1H45A45.00011,45.00011,0,0,0,0,45V305a45.00011,45.00011,0,0,0,45,45H1755a45.00008,45.00008,0,0,0,45-45V45a45.00008,45.00008,0,0,0-45-45Z"/>
  </g>
  <rect class="cls-3" x="10" y="10" width="1780" height="330" rx="35"/>
  <g>
    <path class="cls-2" d="M119.93359,122.6416H195.854V227.35938H177.52881V138.34912H138.25928v89.01026H119.93359Z"/>
    <path class="cls-2" d="M249.14941,122.6416c24.87061,0,34.0337,19.63428,34.0337,34.0332,0,14.39844-9.16309,34.03321-34.0337,34.03321h-17.0166v36.65137H213.80713V122.6416Zm-17.0166,52.35889h11.78076c10.47168,0,20.94385-5.23584,20.94385-18.32569s-10.47217-18.32568-20.94385-18.32568H232.13281Z"/>
    <path class="cls-2" d="M302.44482,122.6416h18.32569v71.99317L358.731,122.6416h19.63427V227.35938H360.04V155.36572l-37.96045,71.99366H302.44482Z"/>
    <path class="cls-2" d="M395.00928,122.6416H413.335v39.082c.374.374,1.12207.374,2.05713.374,19.07373,0,24.49658-39.45606,51.61084-42.07422l3.92725,18.32568c-10.09815,0-12.71582,5.60986-18.32569,13.08984-5.04883,6.54493-13.27685,18.32569-18.32568,18.32569,13.08984,1.30859,17.0166,11.03271,23.56152,22.25244,7.667,13.27686,14.39844,28.23633,23.56153,35.34229H458.58838c-3.36621-6.54493-13.83789-23.56153-20.38281-35.34229-4.67481-8.228-9.1626-13.08984-17.01661-13.08984-2.61816,0-7.854.561-7.854.561v47.8711H395.00928Z"/>
    <path class="cls-2" d="M570.78809,175.00049c0,30.29346-13.83789,54.977-42.63575,54.977-28.79736,0-42.63525-24.68359-42.63525-54.977s13.83789-54.97705,42.63525-54.97705C556.9502,120.02344,570.78809,144.707,570.78809,175.00049Zm-67.50635,0c0,23.56152,10.47168,37.96,24.8706,37.96,14.39942,0,24.8711-14.39844,24.8711-37.96S542.55176,137.04,528.15234,137.04C513.75342,137.04,503.28174,151.439,503.28174,175.00049Z"/>
    <path class="cls-2" d="M619.4082,122.6416c24.87012,0,34.03321,19.63428,34.03321,34.0332,0,14.39844-9.16309,34.03321-34.03321,34.03321H602.3916v36.65137H584.06543V122.6416Zm-17.0166,52.35889h11.78028c10.47167,0,20.94335-5.23584,20.94335-18.32569s-10.47168-18.32568-20.94335-18.32568H602.3916Z"/>
    <path class="cls-2" d="M676.62988,211.65186c5.23633-13.08985,11.78125-48.05811,11.78125-73.30274V122.6416h61.52149v89.01026h11.78125v34.0332h-15.708V227.35938H680.55664v18.32568h-15.707v-34.0332Zm54.97754,0V138.34912H706.73633c0,24.87061-5.23535,56.28565-12.3418,73.30274Z"/>
    <path class="cls-2" d="M852.4082,175.00049c0,30.29346-13.83789,54.977-42.63574,54.977-28.79687,0-42.63476-24.68359-42.63476-54.977s13.83789-54.97705,42.63476-54.97705C838.57031,120.02344,852.4082,144.707,852.4082,175.00049Zm-67.50586,0c0,23.56152,10.47168,37.96,24.87012,37.96,14.39942,0,24.87109-14.39844,24.87109-37.96S824.17188,137.04,809.77246,137.04C795.374,137.04,784.90234,151.439,784.90234,175.00049Z"/>
    <path class="cls-2" d="M865.68555,122.6416h18.32617v41.88672h39.26855V122.6416h18.32618V227.35938H923.28027v-47.123H884.01172v47.123H865.68555Z"/>
    <path class="cls-2" d="M959.55859,122.6416h18.32618v41.88672h39.26855V122.6416h18.32617V227.35938h-18.32617v-47.123H977.88477v47.123H959.55859Z"/>
    <path class="cls-2" d="M1104.48145,122.6416l34.0332,104.71778h-19.63379l-6.54492-20.94336h-36.65137l-6.54492,20.94336h-19.63477l34.03321-104.71778Zm2.61816,68.06641-13.08984-44.50489L1080.91992,190.708Z"/>
    <path class="cls-2" d="M1305.87988,148.8208l-17.57812,6.54492C1284.375,142.27588,1277.62793,137.04,1267.919,137.04c-14.39844,0-24.87012,14.39892-24.87012,37.96045s10.47168,37.96,24.87012,37.96c9.709,0,16.45605-5.23584,20.38281-18.32568l17.57812,6.54492c-6.54492,17.01709-18.06543,28.79785-37.96093,28.79785-28.79688,0-42.63477-24.61426-42.63477-54.977,0-30.36328,13.83789-54.97705,42.63477-54.97705C1287.81445,120.02344,1299.335,131.8042,1305.87988,148.8208Z"/>
    <path class="cls-2" d="M1325.1416,122.6416h18.32617l23.56153,51.04981,23.56152-51.04981h18.3252l11.78125,104.71778H1401.0625l-6.54492-77.2295-27.48828,61.522-27.48926-61.522-6.54492,77.2295h-19.63379Z"/>
    <path class="cls-2" d="M1446.50391,122.6416l24.87011,54.97656,20.94434-54.97656h19.63476L1477.919,210.34277c-3.73926,9.91065-15.707,17.39063-24.87012,17.39063-5.23633,0-7.85352-.374-9.16309-.93506l-3.92676-16.45557a49.53145,49.53145,0,0,0,10.47168,1.30909c6.54493,0,12.5293-6.54493,12.5293-10.47217,0-3.92676-36.09082-78.53809-36.09082-78.53809Z"/>
    <path class="cls-2" d="M1522.05176,122.6416H1587.501v15.70752h-47.123v89.01026h-18.32617Z"/>
    <path class="cls-2" d="M1649.958,122.6416l34.0332,104.71778h-19.63379L1657.8125,206.416h-36.65137l-6.54492,20.94336h-19.63476l34.0332-104.71778Zm2.61816,68.06641-13.08984-44.50489L1626.39648,190.708Z"/>
  </g>
  <g class="cls-4">
    <polygon class="cls-5" points="160 340 1790 25 1790 10 1640 10 10 315 10 340 160 340"/>
  </g>
</svg>
