<?xml version="1.0" encoding="UTF-8" standalone="no"?>
<svg
   width="605"
   height="605"
   version="1.1"
   id="svg24"
   sodipodi:docname="UA_road_sign_5.94.1.svg"
   inkscape:version="1.2.2 (732a01da63, 2022-12-09)"
   xmlns:inkscape="http://www.inkscape.org/namespaces/inkscape"
   xmlns:sodipodi="http://sodipodi.sourceforge.net/DTD/sodipodi-0.dtd"
   xmlns="http://www.w3.org/2000/svg"
   xmlns:svg="http://www.w3.org/2000/svg"
   xmlns:rdf="http://www.w3.org/1999/02/22-rdf-syntax-ns#"
   xmlns:cc="http://creativecommons.org/ns#"
   xmlns:dc="http://purl.org/dc/elements/1.1/">
  <title
     id="title3405">5.94.2 Кінець дороги із зустрічною велосипедною смугою </title>
  <defs
     id="defs28" />
  <sodipodi:namedview
     id="namedview26"
     pagecolor="#ffffff"
     bordercolor="#666666"
     borderopacity="1.0"
     inkscape:pageshadow="2"
     inkscape:pageopacity="0.0"
     inkscape:pagecheckerboard="0"
     showgrid="false"
     showguides="true"
     inkscape:guide-bbox="true"
     inkscape:snap-intersection-paths="false"
     inkscape:snap-bbox="false"
     inkscape:snap-bbox-edge-midpoints="false"
     inkscape:bbox-nodes="false"
     inkscape:snap-bbox-midpoints="false"
     inkscape:snap-smooth-nodes="false"
     inkscape:object-paths="false"
     inkscape:zoom="0.81620326"
     inkscape:cx="48.394808"
     inkscape:cy="305.68366"
     inkscape:window-width="1920"
     inkscape:window-height="991"
     inkscape:window-x="-9"
     inkscape:window-y="-9"
     inkscape:window-maximized="1"
     inkscape:current-layer="g3403"
     inkscape:showpageshadow="2"
     inkscape:deskcolor="#d1d1d1" />
  <rect
     style="fill:#000000;fill-opacity:1;stroke-width:10.6573;stroke-linejoin:round"
     id="rect6072"
     width="603"
     height="603"
     x="0"
     y="0"
     ry="36.89286"
     inkscape:label="rect2" />
  <rect
     style="fill:#ffffff;fill-opacity:1;stroke-width:10.6396;stroke-linejoin:round"
     id="rect6072-2"
     width="602"
     height="602"
     x="0.5"
     y="0.5"
     ry="36.39286"
     inkscape:label="rect4" />
  <path
     id="rect2916"
     style="fill:#005da2;stroke-width:13.7276;stroke-linejoin:round;fill-opacity:1"
     inkscape:label="rect6"
     d="M 296.5,592.5 V 12.5 H 38.892578 C 24.270934,12.5 12.5,24.270934 12.5,38.892578 V 566.10742 C 12.5,580.72906 24.270934,592.5 38.892578,592.5 Z"
     sodipodi:nodetypes="ccssssc" />
  <path
     style="color:#000000;font-style:normal;font-weight:normal;font-size:299.984px;line-height:1.25;font-family:sans-serif;display:inline;overflow:visible;visibility:visible;fill:#ffffff;fill-opacity:1;fill-rule:nonzero;stroke:none;stroke-width:0.741559px;marker:none;enable-background:accumulate"
     d="m 110.72486,95.13823 c 0.27047,-0.0135 0.56039,0 0.83433,0 h 21.0649 c 2.41748,0 4.37989,1.93909 4.37989,4.35668 -2e-5,2.41753 -1.96241,4.3798 -4.37989,4.3798 h -21.0649 c -3.92851,0 -7.13758,3.18584 -7.13757,7.11435 0,2.56891 1.64964,4.86449 4.07861,5.70075 5.96191,2.0529 9.9648,7.66824 9.96479,13.97377 1e-5,1.30678 -0.19372,2.59314 -0.53315,3.84684 h 75.17553 l 2.5724,-6.02522 h -19.30375 c -3.62633,0 -6.55818,-2.93184 -6.55818,-6.55817 0,-3.62633 2.93185,-6.55809 6.55819,-6.55809 h 30.10265 c 3.62634,0 6.58125,2.93176 6.58125,6.55809 0,3.62633 -2.95491,6.55817 -6.58125,6.55817 h -2.45651 l -3.93944,9.26953 16.45334,23.49816 c 5.73242,-2.75608 12.14692,-4.31036 18.93294,-4.31036 24.17562,0 43.77503,19.59952 43.77503,43.77519 0,24.17566 -19.59942,43.77509 -43.77503,43.77509 -22.13378,0 -40.42511,-16.42236 -43.35808,-37.74997 h -25.65324 l -60.41391,-46.2084 -3.47602,7.46193 c 9.02515,8.01853 14.71526,19.69891 14.71526,32.72135 1e-5,24.17566 -19.576349,43.77509 -43.751979,43.77506 -24.17561,0 -43.77514,-19.59943 -43.77514,-43.77509 0,-24.17568 19.59953,-43.77518 43.77514,-43.77519 7.94895,0 15.38107,2.1362 21.80651,5.8398 l 13.185789,-28.27192 0.62574,-1.29774 c 0.37138,-0.7965 0.55611,-1.67023 0.55611,-2.54909 0,-2.5689 -1.62658,-4.86439 -4.05542,-5.70075 -5.962039,-2.0529 -9.964579,-7.66824 -9.964579,-13.97378 0,-8.48981 6.655159,-15.42644 15.039619,-15.85082 z m 4.05544,49.22101 -4.44941,7.02162 57.00738,43.5897 21.59783,-50.61132 z m 82.2204,6.16419 -19.79055,46.37058 h 14.64587 c 1.06429,-12.2834 7.2332,-23.10677 16.33757,-30.3807 z m -124.442869,13.0004 c -20.105449,0.50944 -36.24369,16.96571 -36.243679,37.19389 -1e-5,20.54929 16.66768,37.21693 37.21696,37.21693 20.54937,-1e-5 37.193758,-16.66764 37.193718,-37.21696 1e-5,-10.36139 -4.22012,-19.71809 -11.053838,-26.46443 l -8.38884,17.95969 c -1.37626,2.95124 -3.62217,5.3935 -6.44242,7.0216 l -9.13037,5.28355 c -2.09369,1.2088 -4.79322,0.49474 -6.00196,-1.59891 -1.20885,-2.09375 -0.4715,-4.77007 1.62219,-5.97889 l 9.13035,-5.28354 c 1.26433,-0.72992 2.27979,-1.8286 2.89676,-3.15167 l 9.2,-19.74397 c -5.57119,-3.3256 -12.06592,-5.23731 -19.02563,-5.23732 -0.32109,0 -0.6541,-0.009 -0.973271,0 z m 162.911199,0 c -5.38488,2e-5 -10.48851,1.13986 -15.10937,3.19799 l 21.38945,30.54297 c 1.9066,2.72283 1.23968,6.48223 -1.48326,8.3889 -1.01186,0.70848 -2.21755,1.08915 -3.45284,1.08915 h -38.05129 c 2.87988,17.68373 18.20966,31.1918 36.70732,31.19181 20.54927,-1e-5 37.21682,-16.66764 37.21684,-37.21693 0,-20.54935 -16.66757,-37.19389 -37.21684,-37.19389 z m -23.49823,8.36577 c -7.41905,6.06243 -12.47982,14.94842 -13.51025,25.00441 l 31.00641,1e-5 z"
     id="path845-1"
     sodipodi:nodetypes="ssssssscscccsssssscccsssccccsssscccsssscccccccccccssscccccccccscsccsscssscccc"
     inkscape:label="path8" />
  <path
     style="display:inline;fill:#ffffff;fill-opacity:1;stroke:none;stroke-width:1.01425px;stroke-linecap:butt;stroke-linejoin:miter;stroke-opacity:1"
     d="m 69.15614,386.49233 64.00821,64.00815 10e-5,-149.3524 h 42.6721 l 5e-5,149.3524 64.00815,-64.00815 v 64.00734 l -85.34431,85.3442 -85.3443,-85.34429 z"
     id="path13113"
     sodipodi:nodetypes="cccccccccc"
     inkscape:label="path10" />
  <path
     id="rect2916-1"
     style="fill:#005da2;fill-opacity:1;stroke-width:13.7276;stroke-linejoin:round"
     inkscape:label="path12"
     d="m 308.5,12.5 v 580 h 93.69922 l 0,-206.00767 H 321.69727 L 450.5,200.71772 579.30273,386.49233 h -80.50195 l 0,206.00767 h 67.30664 C 580.72906,592.5 592.5,580.72906 592.5,566.10742 V 38.892578 C 592.5,24.270934 580.72906,12.5 566.10742,12.5 Z"
     sodipodi:nodetypes="cccccccccssssc" />
  <metadata
     id="metadata845">
    <rdf:RDF>
      <cc:Work
         rdf:about="">
        <dc:title>5.94.2 Кінець дороги із зустрічною велосипедною смугою </dc:title>
      </cc:Work>
    </rdf:RDF>
  </metadata>
  <g
     id="g3403"
     transform="matrix(1.0175439,0,0,1.0175439,541.86249,-19.143308)">
    <path
       class="cls-3"
       d="m -520.23552,556.09773 525,-524.999997 h 20 a 25,25 0 0 1 25,25 v 20 l -525,524.999997 h -20 a 25,25 0 0 1 -25,-25 z"
       id="path3192"
       style="fill:#da251d" />
  </g>
</svg>
