<svg xmlns="http://www.w3.org/2000/svg" width="600" height="900"><path d="M550 0H50C22.5 0 0 22.5 0 50v800c0 27.5 22.5 50 50 50h500c27.5 0 50-22.5 50-50V50c0-27.5-22.5-50-50-50h0z"/><path fill="#fff" d="M550 .5c27.295 0 49.5 22.206 49.5 49.5v800c0 27.295-22.205 49.5-49.5 49.5H50C22.706 899.5.5 877.295.5 850V50C.5 22.706 22.706.5 50 .5h500"/><path fill="#005ca1" d="M587.791 851c0 19.25-15.75 35-35 35H48.209c-19.25 0-35.015-16.75-35.015-36V48.103c0-19.25 14.765-35.641 34.015-35.641h506.582c19.25 0 34 15.4 34 34.641V851z"/><path fill="#fff" d="M534.625 566.463c0 18.461-13.926 33.57-32.39 33.57H98.765c-18.463 0-32.515-15.109-32.515-33.57V164.57c0-18.464 14.052-33.57 32.515-33.57h403.471c18.464 0 32.39 15.1 32.39 33.57l-.001 401.893h0z"/><path d="M405.582 349.49l-88.205-149.422 27.441-43.323-9.59-7.745-25.144 37.977-22.927-36.255-10.572 7.376 25.611 41.931-85.001 148.584h-41.792v17.262h272.193V349.49h-42.014zm-144.747-.877l49.928-86.753 47.697 86.753h-97.625 0zm-69.832 156.838V574h220.003v-22.844l-87.428.013-7.072-22.481s6.328-4.388 6.328-11.146-5.156-10.958-10.125-10.958-11.113 3.025-11.113 10.776 5.311 11.145 5.311 11.145l-7.13 22.914h-86.553l.138-33.163 76.405.229c.532-4.271 3.949-22.985 22.964-22.985 17 0 21.76 17.05 22.92 23.122l76.849.229V401.396S411.901 385 395.407 385H225.683c-10.433 0-12.322 13.781-12.322 13.781v106.691l-22.358-.021zm142.794-77.126h56.839v44.518h-56.839v-44.518zm-99.171 0h56.64v44.518h-56.64v-44.518h0z"/></svg>