<svg xmlns="http://www.w3.org/2000/svg" width="604" height="904">
<title>6.4 Вогнегасник</title>
<defs><style>.cls-1{fill:#fff}</style></defs><rect class="cls-1" x="2" y="2" width="600" height="900" rx="45"/><path d="M557 2a45 45 0 0 1 45 45v810a45 45 0 0 1-45 45H47a45 45 0 0 1-45-45V47A45 45 0 0 1 47 2h510m0-2H47A47.053 47.053 0 0 0 0 47v810a47.053 47.053 0 0 0 47 47h510a47.053 47.053 0 0 0 47-47V47a47.053 47.053 0 0 0-47-47z"/><rect x="12" y="12" width="580" height="880" rx="35" style="fill:#005da2"/><rect class="cls-1" x="53" y="129" width="498" height="498" rx="35"/><path d="M370 258v328H234V258a19.994 19.994 0 0 1 20-20h25v-43.55h-.24L217 234v47l-26 15v-76.7l79.72-51.75 87.12-1.05.32 27-32.16.38V238h24a19.994 19.994 0 0 1 20 20z" style="fill:red"/></svg>