<svg xmlns="http://www.w3.org/2000/svg" width="600" height="900"><path d="M550 0H50C22.5 0 0 22.5 0 50v800c0 27.5 22.5 50 50 50h500c27.5 0 50-22.5 50-50V50c0-27.5-22.5-50-50-50h0z"/><path fill="#fff" d="M550 .5c27.295 0 49.5 22.206 49.5 49.5v800c0 27.295-22.205 49.5-49.5 49.5H50C22.706 899.5.5 877.295.5 850V50C.5 22.706 22.706.5 50 .5h500"/><path fill="#005ca1" d="M587.791 851c0 19.25-15.75 35-35 35H48.209c-19.25 0-35.015-16.75-35.015-36V48.103c0-19.25 14.765-35.641 34.015-35.641h506.582c19.25 0 34 15.4 34 34.641V851z"/><path d="M534.556 568.033c0 18.147-14.85 33-33 33H98.955c-18.15 0-33-14.853-33-33V164.956c0-18.15 14.85-33 33-33h402.601c18.15 0 33 14.85 33 33v403.077zM96.5 721.833V734.5s11-4 18.333-10V775h14.333v-70.667h-11c.001 0-4.666 10.667-21.666 17.5zm78.5-17.5c-18.666 0-24.5 16.155-24.5 36.083S156.333 776.5 175 776.5c21 0 24.5-16.155 24.5-36.084s-4.167-36.083-24.5-36.083zm.583 60.988c-4.249 0-9.499-2.237-9.499-25.063 0-22.261 5.167-25.06 9.499-25.06 4.084 0 9.084 2.882 9.084 25.214 0 21.089-4.917 24.909-9.084 24.909zm57.858-60.988c-18.666 0-24.5 16.155-24.5 36.083s5.833 36.084 24.5 36.084c21 0 24.5-16.155 24.5-36.084s-4.166-36.083-24.5-36.083zm.583 60.988c-4.249 0-9.499-2.237-9.499-25.063 0-22.261 5.167-25.06 9.499-25.06 4.084 0 9.084 2.882 9.084 25.214.001 21.089-4.916 24.909-9.084 24.909zm82.143-41.404L302.5 759.084l-13.333-35.167h-17.584v51.5h12.084v-34.063l12.416 34.063H308.5l13.584-33.416v33.416h12.083v-51.5zm158.583 17.451l-61.625-38.375v23.375h-28.25v30h28.25v23.375z" fill="#fff"/><path d="M371 229.25V178.5H264.25l-65.343 34.722-3.157 16.028h86.5v24H197v9.25l16.5 17.5H246c24.75 1 26.5 18.25 26.5 18.25v16.5c-8.75 11.75-10.5 29.5-10.5 29.5v179.5c0 23.75 17.587 39.1 39.17 39.084S340.25 547 340.25 523.75V343.5c0-15.25-9.5-27.25-9.5-27.25v-18.5c2.625-16.875 26.75-17.5 26.75-17.5H369v-27h-46.75v-24H371z"/></svg>