<svg id="Слой_1" data-name="Слой 1" xmlns="http://www.w3.org/2000/svg" width="600" height="600" viewBox="0 0 600 600">
  <defs>
    <style>
      .cls-1 {
        fill: #fff;
      }
    </style>
  </defs>
  <g>
    <rect class="cls-1" x="5" y="5" width="590" height="590" rx="40"/>
    <path d="M555,10a35.03961,35.03961,0,0,1,35,35V555a35.03963,35.03963,0,0,1-35,35H45a35.03961,35.03961,0,0,1-35-35V45A35.0396,35.0396,0,0,1,45,10H555m0-10H45A45,45,0,0,0,0,45V555a45,45,0,0,0,45,45H555a45,45,0,0,0,45-45V45A45,45,0,0,0,555,0Z"/>
  </g>
  <g>
    <path d="M90.16016,203.47949a45.00613,45.00613,0,0,0,32.89453,14.18994c18.49023,0,23.64941-12.04,23.64941-16.55468v-.21485c0-4.73-.21484-14.835-27.08887-18.70508-33.54-4.94482-37.625-24.50927-37.625-33.75439,0-21.06934,18.05957-37.624,43.64454-37.624,21.06933,0,40.63476,16.55468,40.63476,16.55468L152.294,142.4209s-10.96485-12.04-26.65918-12.04c-18.05957,0-22.57422,11.82471-22.57422,17.62988,0,11.60987,15.0498,13.54444,31.60449,16.98438,21.06934,4.51513,34.18359,16.55468,34.18359,34.61474,0,15.04981-16.124,37.624-46.22363,37.624-27.08984,0-47.2998-21.06934-47.2998-21.06934Z"/>
    <path d="M283.22949,113.82617v18.05957H250.11914V234.22412H229.0498V131.88574H195.94043V113.82617Z"/>
    <path d="M409.00293,174.02539c0,34.8291-15.90918,63.2085-49.01953,63.2085-33.1084,0-49.01856-28.3794-49.01856-63.2085,0-34.82959,15.91016-63.209,49.01856-63.209C393.09375,110.81641,409.00293,139.1958,409.00293,174.02539Zm-77.61328,0c0,27.08936,12.04,43.644,28.59375,43.644,16.55469,0,28.59472-16.55468,28.59472-43.644,0-27.08984-12.04-43.64453-28.59472-43.64453C343.42969,130.38086,331.38965,146.93555,331.38965,174.02539Z"/>
    <path d="M483.39355,113.82617c28.59473,0,39.12891,22.57471,39.12891,39.1294S511.98828,192.085,483.39355,192.085H463.8291v42.13916H442.75879V113.82617ZM463.8291,174.02539h13.54395c12.04,0,24.08007-6.02,24.08007-21.06982s-12.04-21.06983-24.08007-21.06983H463.8291Z"/>
  </g>
  <g>
    <path d="M123.98486,358.29639c16.55469,0,34.61426,13.54492,34.61426,31.60449,0,15.0498-2.79492,19.7793-10.53467,29.23926-9.46,12.04-23.6499,25.15527-39.12939,41.49511h49.66406c0,4.51368-1.50488,12.03907-4.51514,19.56446H81.8457V462.13916a457.91306,457.91306,0,0,0,43.85889-45.5791c7.31006-8.59961,12.68506-14.62012,12.68506-26.65918,0-7.52539-6.87988-15.69531-17.415-15.69531-9.02979,0-16.55469,8.16992-24.07959,15.69531L84.85547,376.356C93.88525,366.03564,105.9248,358.29639,123.98486,358.29639Z"/>
    <path d="M221.27246,379.36572v28.59473c4.51514-6.02051,12.68506-7.52441,19.56494-7.52441,16.55469,0,36.11914,13.54492,36.11914,37.624s-18.05957,43.64355-46.65381,43.64355c-13.54492,0-28.59472-6.01953-28.59472-6.01953l-3.00977-19.56445c7.30957,4.94531,18.70459,6.01953,28.59424,6.01953,12.04,0,27.08984-7.52441,27.08984-22.57422,0-10.53515-7.5249-22.57422-21.06982-22.57422-9.02979,0-15.0498,7.52442-18.05957,9.0293L201.708,418.49463V359.80127h69.229l-6.02,19.56445Z"/>
    <path d="M386.74414,420.00049c0,36.11914-16.55469,61.70312-40.63379,61.70312s-40.63379-25.584-40.63379-61.70312,16.55469-61.7041,40.63379-61.7041S386.74414,385.81592,386.74414,420.00049Zm-60.19824,0c0,30.09961,7.95508,42.999,19.56445,42.999s19.56445-12.89941,19.56445-42.999-7.95507-43-19.56445-43S326.5459,389.90088,326.5459,420.00049Z"/>
    <path d="M432.37109,395.92041h18.05957L471.5,438.06006l21.06934-42.13965h18.05957l7.52539,84.2793H500.09473l-4.51563-58.69434L471.5,469.66455l-24.08008-48.15918-4.51465,58.69434H424.8457Z"/>
  </g>
</svg>
