<svg id="Слой_1" data-name="Слой 1" xmlns="http://www.w3.org/2000/svg" width="600" height="300" viewBox="0 0 600 300">
  <defs>
    <style>
      .cls-1 {
        fill: #fff;
      }
    </style>
  </defs>
  <g>
    <rect class="cls-1" x="5" y="5" width="590" height="290" rx="40"/>
    <path d="M555,10a35.03961,35.03961,0,0,1,35,35V255a35.03961,35.03961,0,0,1-35,35H45a35.0396,35.0396,0,0,1-35-35V45A35.0396,35.0396,0,0,1,45,10H555m0-10H45A45,45,0,0,0,0,45V255a45,45,0,0,0,45,45H555a45,45,0,0,0,45-45V45A45,45,0,0,0,555,0Z"/>
  </g>
  <polygon points="404 125 404 171 481 171 481 213 580 148 481 83 481 125 404 125"/>
  <g>
    <path d="M78.46582,90.79883H95.68555V205.6001H75.5957V116.62939l-15.37549,9.63477-6.76513-8.81494Z"/>
    <path d="M197.77441,148.19971c0,34.43994-15.78515,58.83545-38.74609,58.83545-22.96,0-38.74512-24.39551-38.74512-58.83545,0-34.44043,15.78516-58.83545,38.74512-58.83545C181.98926,89.36426,197.77441,115.60449,197.77441,148.19971Zm-57.40136,0c0,28.70019,7.58593,41.00049,18.65527,41.00049,11.07031,0,18.65527-12.3003,18.65527-41.00049s-7.585-41.00049-18.65527-41.00049C147.959,107.19922,140.37305,119.49951,140.37305,148.19971Z"/>
    <path d="M291.25391,148.19971c0,34.43994-15.78516,58.83545-38.7461,58.83545-22.96,0-38.74511-24.39551-38.74511-58.83545,0-34.44043,15.78515-58.83545,38.74511-58.83545C275.46875,89.36426,291.25391,115.60449,291.25391,148.19971Zm-57.40137,0c0,28.70019,7.58594,41.00049,18.65527,41.00049,11.07031,0,18.65528-12.3003,18.65528-41.00049s-7.585-41.00049-18.65528-41.00049C241.43848,107.19922,233.85254,119.49951,233.85254,148.19971Z"/>
    <path d="M314.71191,134.25342H330l17.83691,35.67334,17.83692-35.67334h15.28906L387.333,205.6001H372.044l-3.82227-49.688-20.38477,40.76953-20.38476-40.76953-3.82227,49.688H308.3418Z"/>
  </g>
</svg>
