<svg xmlns="http://www.w3.org/2000/svg" width="600" height="300"><rect x="5" y="5" width="590" height="290" rx="40" style="fill:#fff"/><path d="M555 10a35.04 35.04 0 0 1 35 35v210a35.04 35.04 0 0 1-35 35H45a35.04 35.04 0 0 1-35-35V45a35.04 35.04 0 0 1 35-35h510m0-10H45A45 45 0 0 0 0 45v210a45 45 0 0 0 45 45h510a45 45 0 0 0 45-45V45a45 45 0 0 0-45-45z"/><path d="m331.546 202.45-16.918.597c.033.655.045 1.31.045 1.976a53.047 53.047 0 1 1-67.675-50.994l-1.49-17.11a69.98 69.98 0 1 0 86.095 68.104c0-.858-.012-1.716-.057-2.574z"/><path d="m408.352 230.982-42.89 10.158-19.187-49.661-77.199 3.088a7.9 7.9 0 0 1-8.179-7.124l-7.443-75.897a22.574 22.574 0 0 1 20.09-24.808 21.372 21.372 0 0 1 2.393-.124 22.572 22.572 0 0 1 22.426 20.214l6.005 57.145 47.946-.587a13.534 13.534 0 0 1 12.957 9.108l17.122 49.459 22.573-2.258z"/><path d="m309.707 108.639 32.034-3.934a10 10 0 0 1 11.145 8.707l.313 2.554a10 10 0 0 1-8.706 11.144l-32.035 3.934-2.751-22.405z"/><circle cx="268.397" cy="50.395" r="25.395"/><path style="fill:#da251d" d="M525 10h-92L85 290h92L525 10z"/></svg>