<svg id="Слой_1" data-name="Слой 1" xmlns="http://www.w3.org/2000/svg" width="600" height="300" viewBox="0 0 600 300">
  <defs>
    <style>
      .cls-1 {
        fill: #fff;
      }
    </style>
  </defs>
  <g>
    <rect class="cls-1" x="5" y="5" width="590" height="290" rx="40"/>
    <path d="M555,10a35.03961,35.03961,0,0,1,35,35V255a35.03961,35.03961,0,0,1-35,35H45a35.0396,35.0396,0,0,1-35-35V45A35.0396,35.0396,0,0,1,45,10H555m0-10H45A45,45,0,0,0,0,45V255a45,45,0,0,0,45,45H555a45,45,0,0,0,45-45V45A45,45,0,0,0,555,0Z"/>
  </g>
  <g>
    <path d="M154.814,71.66113c18.62012,0,39.90137,13.3003,39.90137,33.78272s-14.89648,35.3789-29.793,37.24072c9.31055,1.86231,36.17676,13.03467,36.17676,37.24121,0,22.34424-19.41894,48.41309-54.79736,48.41309-14.89649,0-38.03906-6.38428-38.03906-6.38428l-3.1919-26.06836c9.04443,6.11816,25.27051,8.24609,37.50684,8.24609,16.75879,0,31.65527-7.44824,31.9209-24.73877,0-6.38427-2.12793-21.8125-26.33448-21.8125-4.52246,0-9.31054,0-13.03467,1.86231V138.96045c18.62012-3.72363,33.51661-16.7583,33.51661-27.93066,0-9.31006-9.30957-16.75831-18.62012-16.75831-14.89649,0-22.34473,3.72413-32.98486,12.76856l-9.84229-22.07861C116.50928,79.375,139.91748,71.66113,154.814,71.66113Z"/>
    <path d="M315.47705,150.13281c0,44.689-20.48242,76.34375-50.27539,76.34375-29.792,0-50.27441-31.65478-50.27441-76.34375s20.48242-76.34375,50.27441-76.34375C294.99463,73.78906,315.47705,107.83789,315.47705,150.13281Zm-74.48144,0c0,37.24121,9.84179,53.20166,24.20605,53.20166,14.36523,0,24.207-15.96045,24.207-53.20166,0-37.24072-9.8418-53.20117-24.207-53.20117C250.8374,96.93164,240.99561,112.89209,240.99561,150.13281Z"/>
    <path d="M381.6665,160.49365l14.42676-25.64844h24.0459l-27.251,42.13672,30.457,47.63282H400.90283L381.6665,192.5542l-19.23632,32.06055H339.98779l30.457-47.63282-27.251-42.13672h24.0459Z"/>
    <path d="M432.73193,134.84521H477.6167c16.03027,0,27.252,11.2212,27.252,25.64844,0,8.01514-3.207,15.57227-14.42773,18.77832,11.2207,3.20606,16.48828,11.6792,16.48828,19.69434,0,22.44238-19.69434,25.64844-30.916,25.64844H432.73193Zm43.28125,36.86963c6.41211,0,9.61914-4.80908,9.61914-9.61816s-3.207-9.61816-9.61914-9.61816H451.96826v19.23632Zm0,35.26661c6.41211,0,11.22168-3.20606,11.22168-9.61817a10.95768,10.95768,0,0,0-11.22168-11.22119H451.96826v20.83936Z"/>
  </g>
</svg>
