<svg id="Слой_1" data-name="Слой 1" xmlns="http://www.w3.org/2000/svg" width="600" height="300" viewBox="0 0 600 300">
  <defs>
    <style>
      .cls-1 {
        fill: #fff;
      }
    </style>
  </defs>
  <g>
    <rect class="cls-1" x="5" y="5" width="590" height="290" rx="40"/>
    <path d="M555,10a35.03961,35.03961,0,0,1,35,35V255a35.03961,35.03961,0,0,1-35,35H45a35.0396,35.0396,0,0,1-35-35V45A35.0396,35.0396,0,0,1,45,10H555m0-10H45A45,45,0,0,0,0,45V255a45,45,0,0,0,45,45H555a45,45,0,0,0,45-45V45A45,45,0,0,0,555,0Z"/>
  </g>
  <g>
    <path d="M92.145,72.48047c18.76025,0,40.20068,13.40039,40.20068,34.03662s-15.0083,35.64453-30.0166,37.521c9.38037,1.876,36.44873,13.13183,36.44873,37.5205,0,22.5127-19.56445,48.77686-55.209,48.77686-15.0083,0-38.32471-6.43213-38.32471-6.43213l-3.21631-26.26465c9.11231,6.16455,25.46045,8.3086,37.78858,8.3086,16.88476,0,31.89306-7.5044,32.16113-24.92481,0-6.43213-2.14453-21.97656-26.53272-21.97656-4.55615,0-9.38037,0-13.13232,1.87646V140.28564c18.76025-3.75195,33.76855-16.88427,33.76855-28.14062,0-9.37988-9.37988-16.88428-18.76025-16.88428-15.0083,0-22.51221,3.752-33.23291,12.86426l-9.916-22.24414C53.55225,80.25244,77.13672,72.48047,92.145,72.48047Z"/>
    <path d="M256.15918,151.542c0,45.0249-20.63574,76.91748-50.65234,76.91748s-50.65332-31.89258-50.65332-76.91748,20.63671-76.91748,50.65332-76.91748S256.15918,108.9292,256.15918,151.542Zm-75.041,0c0,37.52051,9.916,53.60108,24.38868,53.60108,14.47216,0,24.38818-16.08057,24.38818-53.60108s-9.916-53.60107-24.38818-53.60107C191.03418,97.94092,181.11816,114.02148,181.11816,151.542Z"/>
    <path d="M284.93359,135.24707h19.57129l22.835,45.668,22.834-45.668h19.57226l8.1543,91.33643H358.3291l-4.89355-63.60938L327.33984,215.1665l-26.09668-52.19238-4.89257,63.60938H276.77832Z"/>
  </g>
  <polygon points="478 198 478 168 400 168 400 128 478 128 478 98 558 148 478 198"/>
</svg>
