<svg id="Слой_1" data-name="Слой 1" xmlns="http://www.w3.org/2000/svg" width="300.0002" height="600" viewBox="0 0 300.0002 600">
  <defs>
    <style>
      .cls-1 {
        fill: #fff;
      }
    </style>
  </defs>
  <g>
    <rect class="cls-1" x="5.00011" y="5" width="290" height="590" rx="40"/>
    <path d="M255.00009,10a35.0396,35.0396,0,0,1,35,35l-.00018,510.00009a35.03958,35.03958,0,0,1-35,34.99991h-210a35.03969,35.03969,0,0,1-35-35.00009L10.00011,45a35.03959,35.03959,0,0,1,35-35h210m0-10h-210a44.99993,44.99993,0,0,0-45,45L-.00011,554.99991a45,45,0,0,0,45,45.00009h210a44.99994,44.99994,0,0,0,45-44.99991L300.00009,45a45,45,0,0,0-45-45Z" transform="translate(0.00011)"/>
  </g>
  <polygon points="178 396 233 396 148 547 63 396 118 396 118 221 63 221 148 70 233 221 178 221 178 396"/>
</svg>
