<svg id="Слой_1" data-name="Слой 1" xmlns="http://www.w3.org/2000/svg" width="600" height="300" viewBox="0 0 600 300">
  <defs>
    <style>
      .cls-1 {
        fill: #fff;
      }
    </style>
  </defs>
  <g>
    <rect class="cls-1" x="5" y="5" width="590" height="290" rx="40"/>
    <path d="M555,10a35.03961,35.03961,0,0,1,35,35V255a35.03961,35.03961,0,0,1-35,35H45a35.0396,35.0396,0,0,1-35-35V45A35.0396,35.0396,0,0,1,45,10H555m0-10H45A45,45,0,0,0,0,45V255a45,45,0,0,0,45,45H555a45,45,0,0,0,45-45V45A45,45,0,0,0,555,0Z"/>
  </g>
  <g>
    <polygon points="111 151 92 192 72 192 91 151 72 110 92 110 111 151"/>
    <path d="M187.4917,79.80371c19.09619,0,39.92822,15.624,39.92822,36.45606,0,17.36035-3.22363,22.8164-12.15185,33.72851-10.91211,13.8877-27.28028,29.01611-45.13623,47.86426h57.28808c0,5.208-1.73584,13.88769-5.208,22.56787H138.88379v-20.832a528.416,528.416,0,0,0,50.59228-52.57617c8.43164-9.92041,14.63184-16.86426,14.63184-30.75244,0-8.67969-7.936-18.104-20.08789-18.104-10.416,0-19.09619,9.42432-27.77637,18.104l-13.88818-15.624C152.77148,88.73193,166.65967,79.80371,187.4917,79.80371Z"/>
    <path d="M340.75391,116.25977c0,24.30419-24.30469,31.24853-24.30469,31.24853s27.77637,10.416,27.77637,34.71973c0,17.36035-12.15137,39.92822-46.87207,39.92822-34.71973,0-46.87207-22.56787-46.87207-39.92822,0-24.30371,27.77636-34.71973,27.77636-34.71973s-24.3042-6.94434-24.3042-31.24853c0-24.30372,20.832-36.45606,43.39991-36.45606C319.92188,79.80371,340.75391,91.95605,340.75391,116.25977Zm-65.96827,67.70459c0,12.15185,12.15186,17.35986,22.56788,17.35986s22.56836-5.208,22.56836-17.35986c0-13.88819-22.56836-26.04-22.56836-26.04S274.78564,171.812,274.78564,183.96436Zm3.47217-67.70459c0,10.416,19.09571,20.832,19.09571,20.832s19.0957-10.416,19.0957-20.832c0-12.15186-8.67969-16.61573-19.0957-16.61573S278.25781,104.10791,278.25781,116.25977Z"/>
    <path d="M379.68848,111.2998a20.08813,20.08813,0,1,1,20.08789-20.08789A20.00409,20.00409,0,0,1,379.68848,111.2998Zm0-30.25585a10.168,10.168,0,1,0,10.168,10.168A10.05679,10.05679,0,0,0,379.68848,81.044Z"/>
    <path d="M522.78516,116.25977l-23.3125,8.68017c-5.208-17.35986-14.15625-24.3042-27.03223-24.3042-19.0957,0-32.98438,19.09619-32.98438,50.34424s13.88868,50.34424,32.98438,50.34424c12.876,0,21.82422-6.94385,27.03223-24.3042l23.3125,8.68018c-8.68067,22.56835-23.959,38.19238-50.34473,38.19238-38.19238,0-56.54395-32.644-56.54395-72.9126,0-40.26807,18.35157-72.91211,56.544-72.91211C498.82617,78.06787,514.10449,93.69189,522.78516,116.25977Z"/>
  </g>
</svg>
