<svg id="Слой_1" data-name="Слой 1" xmlns="http://www.w3.org/2000/svg" width="600" height="300" viewBox="0 0 600 300">
  <defs>
    <style>
      .cls-1 {
        fill: #fff;
      }
    </style>
  </defs>
  <g>
    <rect class="cls-1" x="5" y="5" width="590" height="290" rx="40"/>
    <path d="M555,10a35.03961,35.03961,0,0,1,35,35V255a35.03961,35.03961,0,0,1-35,35H45a35.0396,35.0396,0,0,1-35-35V45A35.0396,35.0396,0,0,1,45,10H555m0-10H45A45,45,0,0,0,0,45V255a45,45,0,0,0,45,45H555a45,45,0,0,0,45-45V45A45,45,0,0,0,555,0Z"/>
  </g>
  <g>
    <path d="M558,146H521V118h37a7,7,0,0,0,0-14H521V93H501l-44,14.15V124H430a5.00181,5.00181,0,0,0-5,5v35a5.00181,5.00181,0,0,1-5,5H406.93l5.86-21.96a35.01248,35.01248,0,0,0-4.47-28.09L377.39,71.38A24.9904,24.9904,0,0,0,356.43,60H213.76a29.99057,29.99057,0,0,0-18.79,6.61L126,122,54.5,133A22.99973,22.99973,0,0,0,35,155.73V185.8a22.00031,22.00031,0,0,0,22,22h5.17c-.11-1.25-.17-2.52-.17-3.8a42,42,0,0,1,84,0c0,1.28-.06,2.55-.17,3.8H146V215H304.4a43.80281,43.80281,0,0,1-1.4-11,42.00367,42.00367,0,0,1,83.95-2.19l.05-.01c8.48-2.84,13.91-8.71,16.09-17.8H437a5.00181,5.00181,0,0,0,5-5V146a5.00181,5.00181,0,0,1,5-5h10v13l44,17h20V160h37a7,7,0,0,0,0-14ZM365.62,129H147l54.4-46.24A20.00986,20.00986,0,0,1,214.35,78H340.12a19.99054,19.99054,0,0,1,16.79,9.14l17.1,26.43A9.99655,9.99655,0,0,1,365.62,129Z"/>
    <path d="M104,182a22,22,0,1,1-22,22,22.02489,22.02489,0,0,1,22-22m0-15a37,37,0,1,0,37,37,37,37,0,0,0-37-37Z"/>
    <path d="M345,182a22,22,0,1,1-22,22,22.02489,22.02489,0,0,1,22-22m0-15a37,37,0,1,0,37,37,37,37,0,0,0-37-37Z"/>
  </g>
</svg>
