<svg id="Слой_1" data-name="Слой 1" xmlns="http://www.w3.org/2000/svg" width="600" height="300" viewBox="0 0 600 300">
  <defs>
    <style>
      .cls-1 {
        fill: #fff;
      }
    </style>
  </defs>
  <g>
    <rect class="cls-1" x="5" y="5" width="590" height="290" rx="40"/>
    <path d="M555,10a35.03961,35.03961,0,0,1,35,35V255a35.03961,35.03961,0,0,1-35,35H45a35.0396,35.0396,0,0,1-35-35V45A35.0396,35.0396,0,0,1,45,10H555m0-10H45A45,45,0,0,0,0,45V255a45,45,0,0,0,45,45H555a45,45,0,0,0,45-45V45A45,45,0,0,0,555,0Z"/>
  </g>
  <g>
    <rect x="48" y="230" width="500" height="18"/>
    <path d="M490.25184,181.12173a24.93765,24.93765,0,0,0,3.85117-19.8894l-9.11293-39.37314a17.79943,17.79943,0,0,0-11.2562-12.72259L378.24551,74.38124a21.36082,21.36082,0,0,0-14.18633-.15335L304.40452,94.49863,253.87022,84.443a16.38158,16.38158,0,0,0-18.58844,10.46275l-7.32525,20.12572a15.66971,15.66971,0,0,0,9.36515,20.08384l3.46025,1.25945c.23089-.86342.50012-1.728.81193-2.58473a29.91452,29.91452,0,0,1,56.22082,20.463c-.31181.85668-.66135,1.69208-1.03947,2.50191l.11377.04141-1.754,4.81893,106.01642,38.58731a31.19857,31.19857,0,0,1,1.74264-7.70331,29.91713,29.91713,0,0,1,56.72086,18.985l.0359.00547c6.36746.165,11.4317-2.441,15.10518-7.99381Zm-27.176-23.565L316.75447,104.29944l47.67406-17.696a14.252,14.252,0,0,1,9.82692-.03116l84.1773,30.63841a14.2383,14.2383,0,0,1,9.01089,10.20752l5.00645,21.85516A7.12,7.12,0,0,1,463.07584,157.55673Z"/>
    <path d="M275.06362,129.297a15.66951,15.66951,0,1,1-20.08385,9.36516,15.68725,15.68725,0,0,1,20.08385-9.36516m3.6541-10.03943A26.35326,26.35326,0,1,0,294.4682,153.035a26.35326,26.35326,0,0,0-15.75048-33.77738Z"/>
    <path d="M436.36382,188.00622A15.66951,15.66951,0,1,1,416.28,197.37137a15.68724,15.68724,0,0,1,20.08385-9.36515m3.6541-10.03943a26.35326,26.35326,0,1,0,15.75048,33.77738,26.35326,26.35326,0,0,0-15.75048-33.77738Z"/>
  </g>
  <path d="M148.00006,193.33049a15.66951,15.66951,0,1,1-15.66957,15.66945,15.68724,15.68724,0,0,1,15.66957-15.66945m0-10.68375a26.35326,26.35326,0,1,0,26.35317,26.35335,26.35325,26.35325,0,0,0-26.35317-26.35335Z"/>
  <path d="M238.93,172,177,77V57H162V73L65.39,141H10v62H117.23a31.34943,31.34943,0,0,1,61.54,0H198V141H177V90l58,90h67v-8ZM162,141H78.3L162,82.22Z"/>
</svg>
