<svg xmlns="http://www.w3.org/2000/svg" width="600" height="300"><rect x="5" y="5" width="590" height="290" rx="40" style="fill:#fff"/><path d="M555 10a35.04 35.04 0 0 1 35 35v210a35.04 35.04 0 0 1-35 35H45a35.04 35.04 0 0 1-35-35V45a35.04 35.04 0 0 1 35-35h510m0-10H45A45 45 0 0 0 0 45v210a45 45 0 0 0 45 45h510a45 45 0 0 0 45-45V45a45 45 0 0 0-45-45z"/><path d="M147 144v33h-39v39H75v-39H36v-33h39v-39h33v39h39zM251.68 202.623a18.926 18.926 0 1 1-18.927 18.926 18.948 18.948 0 0 1 18.926-18.926zm0-15.14a34.067 34.067 0 1 0 34.067 34.066 34.067 34.067 0 0 0-34.068-34.067zM481.634 201.677a18.926 18.926 0 1 1-18.926 18.926 18.948 18.948 0 0 1 18.926-18.926zm0-15.141a34.067 34.067 0 1 0 34.067 34.067 34.067 34.067 0 0 0-34.067-34.067z"/><path d="M542.936 80.047a9.459 9.459 0 0 0-8.432-5.176H225.495a9.475 9.475 0 0 0-7.854 4.182l-29.27 43.521a28.43 28.43 0 0 0-4.826 15.842v67.046l9.463 10.41h17.422a41.639 41.639 0 0 1 82.5 0H440.26a41.643 41.643 0 0 1 82.746 0H554.5a14.2 14.2 0 0 0 14.195-14.195v-70.974zm-270.438 44.799a9.56 9.56 0 0 1-9.463 9.643h-54.384a6.756 6.756 0 0 1-5.64-10.296l21.292-35.27a9.421 9.421 0 0 1 8.062-4.59h30.67a9.56 9.56 0 0 1 9.463 9.644zm88.008 4.996a4.691 4.691 0 0 1-4.732 4.647h-61.51a4.691 4.691 0 0 1-4.732-4.647V88.98a4.691 4.691 0 0 1 4.732-4.646h61.51a4.691 4.691 0 0 1 4.732 4.646zm88.007 0a4.691 4.691 0 0 1-4.732 4.647h-61.51a4.691 4.691 0 0 1-4.732-4.647V88.98a4.691 4.691 0 0 1 4.732-4.646h61.51a4.691 4.691 0 0 1 4.732 4.646zm88.225 4.647h-62.675a9.381 9.381 0 0 1-9.463-9.284V93.617a9.381 9.381 0 0 1 9.463-9.283h44.004a9.49 9.49 0 0 1 8.65 5.517l16.077 35.496a6.516 6.516 0 0 1-6.056 9.142z"/></svg>