<svg id="Слой_1" data-name="Слой 1" xmlns="http://www.w3.org/2000/svg" width="600" height="300" viewBox="0 0 600 300">
  <defs>
    <style>
      .cls-1 {
        fill: #fff;
      }
    </style>
  </defs>
  <g>
    <rect class="cls-1" x="5" y="5" width="590" height="290" rx="40"/>
    <path d="M555,10a35.03961,35.03961,0,0,1,35,35V255a35.03961,35.03961,0,0,1-35,35H45a35.0396,35.0396,0,0,1-35-35V45A35.0396,35.0396,0,0,1,45,10H555m0-10H45A45,45,0,0,0,0,45V255a45,45,0,0,0,45,45H555a45,45,0,0,0,45-45V45A45,45,0,0,0,555,0Z"/>
  </g>
  <path d="M395.46789,96.56913a48.72861,48.72861,0,0,0-23.60336,5.003L351.683,72.68029l7.66826-18.00841h3.70507a3.56242,3.56242,0,0,0,3.56241-3.56242v-.00008a3.5625,3.5625,0,0,0-3.5625-3.5625H323.50352a3.5624,3.5624,0,0,0-3.56241,3.56241v.00009a3.56249,3.56249,0,0,0,3.5625,3.56249h28.10812l-6.07407,14.25H254.29312c2.13752-9.60988-1.47841-16.30735-11.15064-20.84957-3.25075-2.88561-3.07262-7.75731-1.88812-11.12389,1.30033-3.72281,3.92768-6.32342,6.3769-6.32342h26.54062a3.56251,3.56251,0,0,0,3.5625-3.5625v-.00009A3.56242,3.56242,0,0,0,274.172,23.5h-26.5407c-5.59315,0-10.74093,4.35517-13.10111,11.08829-2.61844,7.46339-.86388,15.04262,4.462,19.29983l.34735.285.4008.17813c8.00671,3.64263,9.69886,7.77514,6.63511,16.34295l-7.40109,16.10252-1.1222,2.4403-6.4748,14.08078a49.06222,49.06222,0,1,0,5.94045,4.13251l6.29672-13.6889,67.30454,52.84966A24.2212,24.2212,0,0,0,325.80138,151.75h19.12175a48.98829,48.98829,0,1,0,50.54476-55.18087Zm-147.12414,48.9465A41.88012,41.88012,0,1,1,228.376,109.8461L220.28906,127.427a18.52979,18.52979,0,0,1-4.42638,6.03841c-2.59957,2.35787-7.67263,6.26852-10.80623,8.64364a3.55744,3.55744,0,0,0-.79289,4.8341l0,.00007a3.37626,3.37626,0,0,0,4.78668.8376c3.34568-2.44035,8.80822-6.50779,11.60392-9.04287a25.72093,25.72093,0,0,0,6.10972-8.32737l7.45453-16.21831A41.7614,41.7614,0,0,1,248.34375,145.51563Zm-1.64763-58.38938L251.933,76.04688h90.5676l-27.53811,64.66826Zm74.60762,56.88422L348.38767,80.4109,365.70142,105.197a48.89356,48.89356,0,0,0-21.16125,39.428H325.80138A16.60842,16.60842,0,0,1,321.30374,144.01047Zm48.48562-32.962L393.24845,144.625H351.67408A41.8114,41.8114,0,0,1,369.78936,111.04843ZM393.51563,187.375a41.922,41.922,0,0,1-41.39624-35.625h42.839a6.23263,6.23263,0,0,0,5.10327-9.80579L376.006,107.49484A41.85918,41.85918,0,1,1,393.51563,187.375Z"/>
  <polygon points="121 254 127.52 260 146 277 168 277 149.52 260 479 260 479 248 149.52 248 168 231 146 231 127.52 248 121 254"/>
  <polygon points="479 215 472.48 221 454 238 432 238 450.48 221 121 221 121 209 450.48 209 432 192 454 192 472.48 209 479 215"/>
</svg>
