<svg id="Слой_1" data-name="Слой 1" xmlns="http://www.w3.org/2000/svg" width="600" height="300" viewBox="0 0 600 300">
  <defs>
    <style>
      .cls-1 {
        fill: #fff;
      }
    </style>
  </defs>
  <g>
    <rect class="cls-1" x="5" y="5" width="590" height="290" rx="40"/>
    <path d="M555,10a35.03961,35.03961,0,0,1,35,35V255a35.03961,35.03961,0,0,1-35,35H45a35.0396,35.0396,0,0,1-35-35V45A35.0396,35.0396,0,0,1,45,10H555m0-10H45A45,45,0,0,0,0,45V255a45,45,0,0,0,45,45H555a45,45,0,0,0,45-45V45A45,45,0,0,0,555,0Z"/>
  </g>
  <polygon points="536 75 536 115 498.5 77.5 498.5 273 477.5 273 477.5 77.5 440 115 440 75 488 27 536 75"/>
  <path d="M349.192,136.04253A54.71285,54.71285,0,0,0,322.69,141.66l-22.66-32.44L308.64,89h4.16008A3.9999,3.9999,0,0,0,316.8,85.0001V85a4,4,0,0,0-4-4H268.38991a3.9999,3.9999,0,0,0-3.9999,3.9999V85a4,4,0,0,0,4,4h31.56l-6.82,16H190.68c2.4-10.79-1.66-18.31-12.52-23.41-3.65-3.24-3.45-8.71-2.12-12.49,1.46-4.18,4.41-7.1,7.16-7.1H213a4,4,0,0,0,4-4v-.0001A3.9999,3.9999,0,0,0,213.0001,54H183.2c-6.28,0-12.06,4.89-14.71,12.45-2.94,8.37995-.97,16.89,5.01,21.67l.39.32.45.2c8.99,4.09,10.88995,8.73,7.45,18.35l-8.31,18.08-1.26,2.74-7.27,15.81a55.0873,55.0873,0,1,0,6.67,4.64l7.07-15.37,75.57,59.34A27.1957,27.1957,0,0,0,270.97,198h21.47a55.0044,55.0044,0,1,0,56.752-61.95747ZM184,191a47.02329,47.02329,0,1,1-22.42-40.05l-9.08,19.74a20.80553,20.80553,0,0,1-4.97,6.78c-2.91882,2.64743-8.61489,7.03834-12.13332,9.70513a3.99434,3.99434,0,0,0-.89026,5.42777l0,.00007a3.79088,3.79088,0,0,0,5.37452.94047c3.75655-2.74,9.88993-7.307,13.02895-10.1534a28.87958,28.87958,0,0,0,6.86005-9.35l8.37-18.21A46.88992,46.88992,0,0,1,184,191Zm-1.85-65.56L188.03,113H289.72L258.8,185.61Zm83.77,63.87,30.41-71.41,19.44,27.83A54.898,54.898,0,0,0,292.01,190H270.97A18.64811,18.64811,0,0,1,265.92,189.31Zm54.44-37.01L346.7,190H300.02A46.94612,46.94612,0,0,1,320.36,152.3ZM347,238a47.07035,47.07035,0,0,1-46.48-40h48.1a6.998,6.998,0,0,0,5.73-11.01l-27.01-38.68A46.99977,46.99977,0,1,1,347,238Z"/>
</svg>
