<svg id="Слой_1" data-name="Слой 1" xmlns="http://www.w3.org/2000/svg" width="600" height="300" viewBox="0 0 600 300">
  <defs>
    <style>
      .cls-1 {
        fill: #fff;
      }
    </style>
  </defs>
  <g>
    <rect class="cls-1" x="5" y="5" width="590" height="290" rx="40"/>
    <path d="M555,10a35.03961,35.03961,0,0,1,35,35V255a35.03961,35.03961,0,0,1-35,35H45a35.0396,35.0396,0,0,1-35-35V45A35.0396,35.0396,0,0,1,45,10H555m0-10H45A45,45,0,0,0,0,45V255a45,45,0,0,0,45,45H555a45,45,0,0,0,45-45V45A45,45,0,0,0,555,0Z"/>
  </g>
  <g>
    <path d="M10,203.11251H66.73074a45.2488,45.2488,0,0,0-19.82723,37.46266q0,.83871.03358,1.67743H10Z"/>
    <path d="M10,47.67045H166.62494a10,10,0,0,1,10,10V191.92963a0,0,0,0,1,0,0H10a0,0,0,0,1,0,0V47.67045A0,0,0,0,1,10,47.67045Z"/>
    <path d="M92.19418,222.12341a18.45176,18.45176,0,1,1-18.45175,18.45176,18.47264,18.47264,0,0,1,18.45175-18.45176m0-19.0109a37.46266,37.46266,0,1,0,37.46266,37.46266,37.46263,37.46263,0,0,0-37.46266-37.46266Z"/>
    <path d="M274.88844,222.41514a18.45176,18.45176,0,1,1-18.45175,18.45175,18.47264,18.47264,0,0,1,18.45175-18.45175m0-19.0109a37.46266,37.46266,0,1,0,37.46266,37.46265,37.46263,37.46263,0,0,0-37.46266-37.46265Z"/>
    <path d="M244.84052,203.11251l-14.53774,23.48405h-50.323v15.656H137.45127q.03358-.83871.03359-1.67743a45.2488,45.2488,0,0,0-19.82723-37.46266Z"/>
    <polygon points="426.003 203.113 411.465 226.597 319.766 226.597 305.228 203.113 426.003 203.113"/>
    <rect x="237.01251" y="129.30549" width="254.96971" height="62.62414"/>
    <path d="M456.53734,222.41514a18.45176,18.45176,0,1,1-18.45175,18.45175,18.47264,18.47264,0,0,1,18.45175-18.45175m0-19.0109A37.46266,37.46266,0,1,0,494,240.86689a37.46263,37.46263,0,0,0-37.46266-37.46265Z"/>
  </g>
</svg>
