<svg id="Слой_1" data-name="Слой 1" xmlns="http://www.w3.org/2000/svg" width="600" height="300" viewBox="0 0 600 300">
  <defs>
    <style>
      .cls-1 {
        fill: #fff;
      }
    </style>
  </defs>
  <g>
    <rect class="cls-1" x="5" y="5" width="590" height="290" rx="40"/>
    <path d="M555,10a35.03961,35.03961,0,0,1,35,35V255a35.03961,35.03961,0,0,1-35,35H45a35.0396,35.0396,0,0,1-35-35V45A35.0396,35.0396,0,0,1,45,10H555m0-10H45A45,45,0,0,0,0,45V255a45,45,0,0,0,45,45H555a45,45,0,0,0,45-45V45A45,45,0,0,0,555,0Z"/>
  </g>
  <path d="M228.76344,28.50989c.44011-.02225.91194,0,1.35769,0h34.2795a7.10687,7.10687,0,1,1,0,14.21368H230.12115A11.60954,11.60954,0,0,0,218.506,54.29813a9.841,9.841,0,0,0,6.63714,9.27471A23.876,23.876,0,0,1,240.4915,92.56577H362.82708l4.1861-9.80257h-31.4136a10.66971,10.66971,0,1,1,0-21.33942h48.987a10.66979,10.66979,0,1,1,0,21.33942H380.589l-6.41082,15.08087L400.95336,136.074a71.21263,71.21263,0,1,1-39.748,74.00928H319.45906l-98.31347-75.178-5.65654,12.14008a71.18071,71.18071,0,1,1-11.766-8.483l21.45767-45.99657,1.01824-2.11131a9.84952,9.84952,0,0,0-5.69457-13.422,24.04733,24.04733,0,0,1-16.2157-22.73437,25.80751,25.80751,0,0,1,24.47463-25.78824Zm6.59939,80.07926-7.24055,11.42373,92.76979,70.91767L356.039,108.58911Zm133.79985,10.02877L336.957,194.05982h23.83362a71.12784,71.12784,0,0,1,26.58662-49.42746ZM166.65293,139.7688a60.53952,60.53952,0,1,0,44.12227,17.45613l-13.65151,29.21913a25.74411,25.74411,0,0,1-10.48392,11.42373l-14.8581,8.59607a7.12038,7.12038,0,1,1-7.12746-12.32858l14.85823-8.59611a11.58713,11.58713,0,0,0,4.7139-5.1275l14.97143-32.12217a60.17343,60.17343,0,0,0-30.961-8.5207C167.71429,139.7688,167.17224,139.75452,166.65293,139.7688Zm265.11053,0a60.23849,60.23849,0,0,0-24.5879,5.20288l34.80775,49.69138a9.80371,9.80371,0,0,1-8.03272,15.42014h-61.922a60.54616,60.54616,0,1,0,59.73484-70.31448ZM393.524,153.37926a60.54022,60.54022,0,0,0-21.98551,40.68056h50.4577Z"/>
</svg>
