<svg id="Слой_1" data-name="Слой 1" xmlns="http://www.w3.org/2000/svg" width="600" height="300" viewBox="0 0 600 300">
  <defs>
    <style>
      .cls-1 {
        fill: #fff;
      }
    </style>
  </defs>
  <g>
    <rect class="cls-1" x="5" y="5" width="590" height="290" rx="40"/>
    <path d="M555,10a35.03961,35.03961,0,0,1,35,35V255a35.03961,35.03961,0,0,1-35,35H45a35.0396,35.0396,0,0,1-35-35V45A35.0396,35.0396,0,0,1,45,10H555m0-10H45A45,45,0,0,0,0,45V255a45,45,0,0,0,45,45H555a45,45,0,0,0,45-45V45A45,45,0,0,0,555,0Z"/>
  </g>
  <path d="M590,200v55a35,35,0,0,1-35,35H45a35,35,0,0,1-35-35V236H311V200Z"/>
  <g>
    <path d="M252,115h-2L231.80188,65.14521A20.00465,20.00465,0,0,0,213.01,52H109.32A19.99242,19.99242,0,0,0,90.01,66.79L77,115H72a10,10,0,0,0-10,10v41a15,15,0,0,0,15,15H247a15,15,0,0,0,15-15V125A10,10,0,0,0,252,115ZM90,115l11.0615-44.77A10.13473,10.13473,0,0,1,110.805,63h101.4801a10.1211,10.1211,0,0,1,9.69278,7.06L236,115Z"/>
    <path d="M77,190h34a0,0,0,0,1,0,0v21a17,17,0,0,1-17,17h0a17,17,0,0,1-17-17V190A0,0,0,0,1,77,190Z"/>
    <path d="M218,190h34a0,0,0,0,1,0,0v21a17,17,0,0,1-17,17h0a17,17,0,0,1-17-17V190A0,0,0,0,1,218,190Z"/>
  </g>
</svg>
