<svg id="Слой_1" data-name="Слой 1" xmlns="http://www.w3.org/2000/svg" width="600" height="300" viewBox="0 0 600 300">
  <defs>
    <style>
      .cls-1 {
        fill: #fff;
      }
    </style>
  </defs>
  <g>
    <rect class="cls-1" x="5" y="5" width="590" height="290" rx="40"/>
    <path d="M555,10a35.03961,35.03961,0,0,1,35,35V255a35.03961,35.03961,0,0,1-35,35H45a35.0396,35.0396,0,0,1-35-35V45A35.0396,35.0396,0,0,1,45,10H555m0-10H45A45,45,0,0,0,0,45V255a45,45,0,0,0,45,45H555a45,45,0,0,0,45-45V45A45,45,0,0,0,555,0Z"/>
  </g>
  <path d="M590,200v55a35,35,0,0,1-35,35H45a35,35,0,0,1-35-35V236H311V200Z"/>
  <g>
    <path d="M543.36364,87.13636h-1.90909L524.08362,39.5477A19.09537,19.09537,0,0,0,506.14592,27H407.1691a19.08367,19.08367,0,0,0-18.43227,14.11771L376.31818,87.13636h-4.77273A9.54546,9.54546,0,0,0,362,96.68182v39.13636a14.31818,14.31818,0,0,0,14.31818,14.31818H538.59091a14.31818,14.31818,0,0,0,14.31818-14.31818V96.68182A9.54545,9.54545,0,0,0,543.36364,87.13636Zm-154.63637,0,10.55871-42.735A9.67406,9.67406,0,0,1,408.58661,37.5H505.454a9.661,9.661,0,0,1,9.2522,6.73909l13.38473,42.89727Z"/>
    <path d="M376.31818,158.72727h32.45455a0,0,0,0,1,0,0v20.14206A16.13067,16.13067,0,0,1,392.64206,195h-.19321a16.13067,16.13067,0,0,1-16.13067-16.13067V158.72727A0,0,0,0,1,376.31818,158.72727Z"/>
    <path d="M510.90909,158.72727h32.45455a0,0,0,0,1,0,0v20.14206A16.13067,16.13067,0,0,1,527.233,195h-.19321a16.13067,16.13067,0,0,1-16.13067-16.13067V158.72727A0,0,0,0,1,510.90909,158.72727Z"/>
  </g>
</svg>
