<svg id="Слой_1" data-name="Слой 1" xmlns="http://www.w3.org/2000/svg" width="600" height="300" viewBox="0 0 600 300">
  <defs>
    <style>
      .cls-1 {
        fill: #fff;
      }
    </style>
  </defs>
  <g>
    <rect class="cls-1" x="5" y="5" width="590" height="290" rx="40"/>
    <path d="M555,10a35.03961,35.03961,0,0,1,35,35V255a35.03961,35.03961,0,0,1-35,35H45a35.0396,35.0396,0,0,1-35-35V45A35.0396,35.0396,0,0,1,45,10H555m0-10H45A45,45,0,0,0,0,45V255a45,45,0,0,0,45,45H555a45,45,0,0,0,45-45V45A45,45,0,0,0,555,0Z"/>
  </g>
  <polygon points="563 66 439.32 66 543.53 246.5 537.47 250 431.24 66 315.32 66 419.53 246.5 413.47 250 307.24 66 190.32 66 294.53 246.5 288.47 250 182.24 66 65.32 66 169.53 246.5 163.47 250 57.24 66 37 66 37 59 563 59 563 66"/>
  <path d="M284.9856,78.99424l-43.30128,25a10.00362,10.00362,0,0,0-3.66026,13.66025L307.024,237.166a10.00365,10.00365,0,0,0,13.66025,3.66026l43.30128-25A10.00366,10.00366,0,0,0,367.6458,202.166L298.64586,82.6545A10.00363,10.00363,0,0,0,284.9856,78.99424Zm11.86855,130.557-5.49746-16.20195a3.99524,3.99524,0,0,1,1.78482-4.74857l39.17032-22.615a4.01053,4.01053,0,0,1,4.96618.7816l11.53767,12.78391ZM314.618,127.5191a4.01049,4.01049,0,0,1-1.80617,4.69168l-39.17032,22.615a3.99529,3.99529,0,0,1-5.00483-.82864l-11.28252-12.86187,51.96154-30Z"/>
  <path d="M160.02185,79.55061l-43.30128,25a10.00361,10.00361,0,0,0-3.66026,13.66025l68.99994,119.51154a10.00367,10.00367,0,0,0,13.66025,3.66026l43.30128-25a10.00366,10.00366,0,0,0,3.66026-13.66025L173.6821,83.21087A10.00362,10.00362,0,0,0,160.02185,79.55061Zm11.86854,130.557-5.49746-16.202a3.99524,3.99524,0,0,1,1.78482-4.74857l39.17033-22.615a4.01051,4.01051,0,0,1,4.96617.7816l11.53768,12.78391Zm17.76388-82.03218a4.01051,4.01051,0,0,1-1.80618,4.69169l-39.17032,22.615a3.99527,3.99527,0,0,1-5.00482-.82864l-11.28253-12.86187,51.96154-30Z"/>
  <path d="M409.58334,79.8039l-43.30129,25a10.00363,10.00363,0,0,0-3.66026,13.66025l69,119.51154a10.00366,10.00366,0,0,0,13.66025,3.66026l43.30128-25a10.00366,10.00366,0,0,0,3.66026-13.66025L423.24359,83.46416A10.00362,10.00362,0,0,0,409.58334,79.8039Zm11.86854,130.557L415.95442,194.159a3.99524,3.99524,0,0,1,1.78482-4.74857l39.17032-22.615a4.01053,4.01053,0,0,1,4.96618.7816L473.41342,180.361Zm17.76387-82.03218a4.0105,4.0105,0,0,1-1.80617,4.69169l-39.17032,22.615a3.99527,3.99527,0,0,1-5.00482-.82864L381.95191,141.9449l51.96154-30Z"/>
</svg>
