<svg xmlns="http://www.w3.org/2000/svg" width="660.179" height="580.218" viewBox="0 0 660.179 580.218"><defs><style>.a { fill: rgb(255, 223, 0); }.b { fill: rgb(218, 37, 29); }</style></defs><path class="a" d="M31.961 579.11a31 31 0 0 1-26.845-46.5L303.153 16.39a31 31 0 0 1 53.694.001l298.039 516.22a31 31 0 0 1-26.848 46.5z" transform="translate(0.08956 0.10891)"/><path d="M330 1.891a29.72 29.72 0 0 1 25.98 15.001L654.02 533.11a30 30 0 0 1-25.982 44.999H31.962A30 30 0 0 1 5.98 533.108L304.02 16.89A29.72 29.72 0 0 1 330 1.892m0-1.999a31.675 31.675 0 0 0-27.713 16.001L4.25 532.11a32 32 0 0 0 27.712 47.999h596.076a32 32 0 0 0 27.713-48.001L357.714 15.89A31.675 31.675 0 0 0 330-.108z" transform="translate(0.08956 0.10891)"/><path class="b" d="M581.274 511.219a10 10 0 0 1-8.66 14.999H87.386a10 10 0 0 1-8.66-15.001L321.34 90.999a10 10 0 0 1 17.32 0zM330 11.999a19.813 19.813 0 0 0-17.32 10L14.64 538.218a20 20 0 0 0 17.32 29.999h596.08a20 20 0 0 0 17.32-30.001L347.32 21.999A19.813 19.813 0 0 0 330 12z" transform="translate(0.08956 0.10891)"/><path d="M262.42 288.588a10.785 10.785 0 0 0-9.558 3.845l-8.743 11.602-18.08 24.055-.051.07-4.205 5.596a10.15 10.15 0 0 0-12.762 6.536l-12.351 38.4a10.04 10.04 0 0 0 6.59 12.663l145.125 45.952a10.15 10.15 0 0 0 12.762-6.536l12.348-38.4a10.04 10.04 0 0 0-6.587-12.663l-.186-6.985c0-.028.027-.05.026-.078l-.72-30.007-.326-14.474a10.587 10.587 0 0 0-6.945-9.214l-47.43-15.018-47.456-15.026a8.377 8.377 0 0 0-1.455-.318zm.584 10.692a4.159 4.159 0 0 1 .727.158l44.511 14.095 44.487 14.085a5.289 5.289 0 0 1 3.47 4.605l1.04 44.422-62.889-19.913-62.889-19.913 26.779-35.614a5.376 5.376 0 0 1 4.764-1.926zm-61.298 96.88-6.175 19.2a15.093 15.093 0 0 0 9.881 18.995 15.26 15.26 0 0 0 19.146-9.806l6.176-19.2zm116.1 36.762-6.175 19.2a15.094 15.094 0 0 0 9.884 18.996 15.258 15.258 0 0 0 19.143-9.806l6.175-19.2z" transform="translate(0.08956 0.10891)"/><path d="M567 514H93l43.86-75.96 95.92-.04 10.76 16.93 69.86 20.22s17.13-.74 25.47-2.53c16.8-3.6 31.67-15.75 48.85-16.4 23.73-.9 45.28 17.66 69.03 17.52 16.12-.11 23.25-13.31 46.7-12.48 17.985 0 21.115 13.175 40.67 13.1z" transform="translate(0.08956 0.10891)"/></svg>