<svg xmlns="http://www.w3.org/2000/svg" width="660.179" height="580.218" viewBox="0 0 660.179 580.218"><defs><style>.a { fill: rgb(255, 255, 255); }.b { fill: rgb(218, 37, 29); }</style></defs><path class="a" d="M31.961 579.11a31 31 0 0 1-26.845-46.5L303.153 16.39a31 31 0 0 1 53.694.001l298.039 516.22a31 31 0 0 1-26.848 46.5z" transform="translate(0.08956 0.10891)"/><path d="M330 1.891a29.72 29.72 0 0 1 25.98 15.001L654.02 533.11a30 30 0 0 1-25.982 44.999H31.962A30 30 0 0 1 5.98 533.108L304.02 16.89A29.72 29.72 0 0 1 330 1.892m0-1.999a31.675 31.675 0 0 0-27.713 16.001L4.25 532.11a32 32 0 0 0 27.712 47.999h596.076a32 32 0 0 0 27.713-48.001L357.714 15.89A31.675 31.675 0 0 0 330-.108z" transform="translate(0.08956 0.10891)"/><path class="b" d="M567.418 523.219H92.583a10 10 0 0 1-8.66-15.001L321.34 96.999a10 10 0 0 1 17.32 0l237.418 411.219a10 10 0 0 1-8.66 14.999zM330 11.999a19.813 19.813 0 0 0-17.32 10L14.64 538.218a20 20 0 0 0 17.32 29.999h596.08a20 20 0 0 0 17.32-30.001L347.32 21.999A19.813 19.813 0 0 0 330 12z" transform="translate(0.08956 0.10891)"/><circle cx="230.15153" cy="484.41819" r="18.69072"/><circle cx="267.91442" cy="484.41819" r="18.69072"/><circle cx="391.88349" cy="484.41819" r="18.69072"/><circle cx="429.64638" cy="484.41819" r="18.69072"/><path d="m481.525 410.363-19.095-35.597a11.441 11.441 0 0 0-10.086-6.034H211.22a11.454 11.454 0 0 0-9.698 5.363l-22.528 35.932a15.214 15.214 0 0 0-2.334 8.102v50.54a11.447 11.447 0 0 0 11.443 11.443h14.495a24.518 24.518 0 0 1 24.466-22.886h205.872a24.523 24.523 0 0 1 24.466 22.886h14.495a11.447 11.447 0 0 0 11.443-11.443v-51.09a15.278 15.278 0 0 0-1.815-7.217zm-259.855 1.09a7.632 7.632 0 0 1-7.629 7.63H197.26a7.632 7.632 0 0 1-6.675-11.337l14.41-25.938a7.639 7.639 0 0 1 6.668-3.921h2.381a7.632 7.632 0 0 1 7.63 7.628zm66.371 0a7.632 7.632 0 0 1-7.627 7.63h-39.67a7.632 7.632 0 0 1-7.63-7.63v-25.938a7.632 7.632 0 0 1 7.63-7.628h39.67a7.632 7.632 0 0 1 7.628 7.628zm72.476 0a7.632 7.632 0 0 1-7.63 7.63h-45.772a7.632 7.632 0 0 1-7.63-7.63v-25.938a7.632 7.632 0 0 1 7.63-7.628h45.773a7.632 7.632 0 0 1 7.629 7.628zm66.37 0a7.632 7.632 0 0 1-7.628 7.63h-39.67a7.632 7.632 0 0 1-7.63-7.63v-25.938a7.632 7.632 0 0 1 7.63-7.628h39.67a7.632 7.632 0 0 1 7.629 7.628zm35.856 7.63H445.96a7.632 7.632 0 0 1-7.63-7.63v-25.938a7.632 7.632 0 0 1 7.629-7.628h2.38a7.639 7.639 0 0 1 6.667 3.92l14.41 25.94a7.633 7.633 0 0 1-6.675 11.335z" transform="translate(0.08956 0.10891)"/><path d="M376.536 463.33a25.875 25.875 0 0 0-10.673 20.598h-72.108a25.89 25.89 0 0 0-10.29-20.316v-.282z" transform="translate(0.08956 0.10891)"/><path d="M336.103 294.732V281h-12.206v13.732l-45.01 38.144 24.23 27.464h53.73l24.267-27.464zm16.02 57.216h-44.247l-16.02-19.072L330 300.836l38.144 32.04z" transform="translate(0.08956 0.10891)"/></svg>