<svg xmlns="http://www.w3.org/2000/svg" id="Слой_1" width="1087.439" height="1133.963" data-name="Слой 1"><defs><style>.cls-1{fill:#fff}.cls-2{fill:#da251d}</style></defs><path d="M543.72 467.87 139.201 701.419 1.225 664.453l36.976-137.966 303.528-175.241-303.528-175.24L1.225 38.039 139.201 1.073 543.72 234.622 948.238 1.073l137.976 36.966-36.976 137.967-303.528 175.24 303.528 175.241 36.976 137.966-137.976 36.966L543.72 467.87z" class="cls-1"/><path d="m948.38 2.146 136.61 36.6-36.61 136.6-304.67 175.9 304.67 175.9 36.61 136.6-136.61 36.6-404.66-233.63-404.66 233.63-136.61-36.6 36.61-136.6 304.67-175.9-304.67-175.9-36.61-136.6 136.61-36.6 404.66 233.63L948.38 2.146M948.096 0l-.718.414-403.66 233.053L140.06.414 139.343 0l-.8.214-136.61 36.6L0 37.332l.518 1.932 36.61 136.6.214.8.718.414 301.67 174.168L38.06 525.414l-.718.414-.214.8-36.61 136.6L0 665.162l1.932.517 136.61 36.6.8.215.718-.415 403.66-233.052 403.66 233.052.717.415.8-.215 136.61-36.6 1.932-.517-.518-1.932-36.61-136.6-.214-.8-.718-.415-301.67-174.168 301.67-174.168.718-.414.214-.8 36.61-136.6.518-1.932-1.932-.518-136.61-36.6-.8-.214Z"/><path d="m723.72 351.246 316.08-182.49 32.94-122.94-122.94-32.94-406.08 234.45-406.08-234.45L14.7 45.816l32.94 122.94 316.08 182.49-316.08 182.49-32.94 122.94 122.94 32.94 406.08-234.45 406.08 234.45 122.94-32.94-32.94-122.94Zm233.14 284.72-363.15-209.66-49.99-28.87-49.99 28.87-363.15 209.66-54.64-14.65 14.64-54.64 323.14-186.57 49.99-28.86-49.99-28.86-323.14-186.57-14.64-54.64 54.64-14.65 363.15 209.66 49.99 28.87 49.99-28.87 363.15-209.66 54.64 14.65-14.64 54.64-323.14 186.57-49.99 28.86 49.99 28.86 323.14 186.57 14.64 54.64Z" class="cls-2"/><path d="M543.724 899.341 139.196 1132.89 1.23 1095.923l36.966-137.966 505.528-291.865 505.519 291.865 36.966 137.966-137.966 36.967-404.519-233.549z" class="cls-1"/><path d="m543.725 667.246 199.99 115.47 304.67 175.9 36.6 136.6-136.6 36.6-404.66-233.63-404.67 233.63-136.6-36.6 36.6-136.6 304.67-175.9 200-115.47m0-2.31-1 .578-200 115.47-304.67 175.9-.718.415-.214.8-36.6 136.6-.518 1.932 1.932.517 136.6 36.6.8.215.718-.415 403.67-233.052 403.66 233.052.717.415.8-.215 136.6-36.6 1.932-.517-.518-1.932-36.6-136.6-.214-.8-.717-.415-304.67-175.9-199.99-115.47-1-.577Z"/><path d="m1039.805 965.206-316.08-182.49-50-28.86-80.01-46.2-49.99-28.86-49.99 28.86-80.01 46.2-50 28.86-316.08 182.49-32.94 122.94 122.94 32.94 406.08-234.45 406.08 234.45 122.94-32.94Zm-82.94 102.23-363.15-209.66-49.99-28.87-49.99 28.87-363.15 209.66-54.65-14.64 14.65-54.65 323.14-186.57 49.99-28.86 80.01-46.19 80.01 46.19 49.99 28.86 323.14 186.57 14.64 54.65Z" class="cls-2"/></svg>