<svg xmlns="http://www.w3.org/2000/svg" width="660.179" height="580.218" viewBox="0 0 660.179 580.218"><defs><style>.a { fill: rgb(255, 255, 255); }.b { fill: rgb(218, 37, 29); }.c { fill-rule: evenodd; }</style></defs><g><path class="a" d="M31.96143,579.10938a31,31,0,0,1-26.84668-46.5L303.15332,16.39111a30.99981,30.99981,0,0,1,53.69336,0L654.88574,532.60938a31,31,0,0,1-26.84765,46.5Z" transform="translate(0.08956 0.10891)"/><path d="M330,1.89109a29.71926,29.71926,0,0,1,25.9808,15l298.03837,516.2178a30,30,0,0,1-25.98072,45H31.96155a30,30,0,0,1-25.98082-45L304.0192,16.89109a29.71926,29.71926,0,0,1,25.9808-15m0-2a31.67452,31.67452,0,0,0-27.71292,16L4.24864,532.10889a32.00008,32.00008,0,0,0,27.71291,48h596.0769a31.99994,31.99994,0,0,0,27.71283-48L357.71292,15.89109A31.67452,31.67452,0,0,0,330-.10891Z" transform="translate(0.08956 0.10891)"/></g><path class="b" d="M567.41753,523.21885H92.58272a10,10,0,0,1-8.66026-15L321.33979,96.99906a10,10,0,0,1,17.32051,0l237.41748,411.2198A10,10,0,0,1,567.41753,523.21885ZM330,11.999A19.81282,19.81282,0,0,0,312.67946,21.999L14.64044,538.21885a20,20,0,0,0,17.3206,30H628.039a20.00012,20.00012,0,0,0,17.32062-30L347.32063,21.999A19.81284,19.81284,0,0,0,330,11.999Z" transform="translate(0.08956 0.10891)"/><g><path class="c" d="M313,302v.0001A6.9999,6.9999,0,0,1,306.0001,309H296.5v5.84a89.9115,89.9115,0,0,1-1.85,18.14l-5.76736,28.035A10,10,0,0,1,279.08778,369H249.73605a10,10,0,0,1-9.74963-7.77635L233.75,333.88a90.47185,90.47185,0,0,1-2.25-20.01V309H222a7,7,0,0,1-7-7v-.0001A6.9999,6.9999,0,0,1,221.9999,295H231.5V280a7,7,0,0,1,7-7h1a7,7,0,0,1,7,7v9a6,6,0,0,0,6,6h23a6,6,0,0,0,6-6v-7.531a8.43636,8.43636,0,0,1,5.618-8.07744A7.0253,7.0253,0,0,1,296.5,280v15H306A7,7,0,0,1,313,302Z" transform="translate(0.08956 0.10891)"/><path class="c" d="M442,338v47.67511a18,18,0,0,0,3.52852,10.704l12.32234,16.6594a28,28,0,0,1,5.46962,15.61437l2.41682,65.25414A6.8398,6.8398,0,0,1,458.90218,501h-.0001a8,8,0,0,1-7.91362-6.82755L443.99959,447l-32.8602-12.02214a15,15,0,0,1-9.62441-11.51671l-.6743-6.43646a6,6,0,0,0-8.28373-4.90968l-48.43373,20.27013a14,14,0,0,0-8.39914,12.65173L335.1,493.68a7.42242,7.42242,0,0,1-7.42,7.32,8.00549,8.00549,0,0,1-8-7.67l-1.7962-43.74027A10,10,0,0,0,307.89221,440H283.85a22.00276,22.00276,0,0,1-21.24-16.27L250,377h31.83a13.99388,13.99388,0,0,0,13.65-10.89L306,320H424A18,18,0,0,1,442,338Z" transform="translate(0.08956 0.10891)"/><path class="c" d="M273.08525,501h0a10,10,0,0,0,9.356-6.46943L300,448H284l-16.79239,44.49982A6.28221,6.28221,0,0,0,273.08525,501Z" transform="translate(0.08956 0.10891)"/><path class="c" d="M383.16976,501h0a10,10,0,0,0,9.356-6.46943L414.08451,448l-13-11-23.79238,53.49982C375.74157,494.60879,378.778,501,383.16976,501Z" transform="translate(0.08956 0.10891)"/></g></svg>