<svg xmlns="http://www.w3.org/2000/svg" xmlns:xlink="http://www.w3.org/1999/xlink" width="600" height="600" xmlns:v="https://vecta.io/nano"><defs><clipPath id="A"><path d="M300 60C167.45 60 60 167.45 60 300s107.45 240 240 240 240-107.45 240-240S432.55 60 300 60zm121.84 334.91A17.101 17.101 0 0 1 404.75 412h-209.5a17.101 17.101 0 0 1-17.09-17.09v-51.9a17.095 17.095 0 0 1 17.09-17.09l17.89-64.08a22.157 22.157 0 0 1 21.37-16.3h127.65a22.149 22.149 0 0 1 21.03 15.2l21.56 65.18a17.095 17.095 0 0 1 17.09 17.09z" fill="none"/></clipPath><path id="B" d="M193.038 420.54h41.772a0 0 0 0 1 0 0v29.114a20.886 20.886 0 0 1-20.886 20.886h0a20.886 20.886 0 0 1-20.886-20.886V420.54a0 0 0 0 1 0 0z"/></defs><path d="M300 599A299 299 0 0 1 88.575 88.575a299 299 0 1 1 422.85 422.85A297.042 297.042 0 0 1 300 599z" fill="#fff"/><path d="M300 2a298.079 298.079 0 0 1 115.994 572.583A298.078 298.078 0 0 1 184.006 25.418 296.132 296.132 0 0 1 300 2m0-2C134.315 0 0 134.315 0 300s134.315 300 300 300 300-134.315 300-300S465.685 0 300 0z"/><path d="M300 60a240.077 240.077 0 0 1 93.403 461.16A240.075 240.075 0 0 1 206.597 78.84 238.45 238.45 0 0 1 300 60m0-50C139.837 10 10 139.837 10 300s129.837 290 290 290 290-129.837 290-290S460.163 10 300 10z" fill="#da251d"/><use xlink:href="#B"/><use xlink:href="#B" x="173.418"/><path d="M404.747 325.919l-21.557-65.184a22.151 22.151 0 0 0-21.032-15.196H234.506a22.153 22.153 0 0 0-21.367 16.297l-17.886 64.082a17.09 17.09 0 0 0-17.089 17.089v51.899a17.09 17.09 0 0 0 17.089 17.089h209.494a17.09 17.09 0 0 0 17.089-17.089v-51.899a17.09 17.09 0 0 0-17.089-17.089zm-179.405-55.797a12.653 12.653 0 0 1 12.228-9.392h122.684a12.661 12.661 0 0 1 12.108 8.956l17.196 56.234H210.443zm-11.418 112.127a20.886 20.886 0 1 1 20.886-20.886 20.882 20.882 0 0 1-20.886 20.886zm172.785 0a20.886 20.886 0 1 1 20.886-20.886 20.882 20.882 0 0 1-20.886 20.886z"/><g clip-path="url(#A)"><path d="M226.605 385L145.49 252.401l55.762-11.766-14.912-58.818 57.942 31.775-5.731-80.238 38.669 29.422 18.171-43.263 61.94 107.926 64.076-54.79 8.846 69.883 28.676-1.687L411.751 385H226.605z" fill="#fff500"/><path d="M296.781 142.026l45.872 79.929 12.008 20.924 18.336-15.678 40.817-34.902 5.343 42.213 2.348 18.552 18.668-1.098 4.683-.275L404.502 375H232.211L161.41 259.262l31.719-6.693 20.375-4.299-5.117-20.185-6.706-26.45 21.702 11.901 32.181 17.647-2.615-36.609-2.848-39.867 10.788 8.208 20.551 15.636 9.999-23.808 5.342-12.718M294 97l-21 50-46-35 6 84-62-34 18 71-59.43 12.54L221 395h198l54-165-34 2-10-79-69 59-66-115z" fill="#da251d"/></g></svg>