<svg id="Слой_1" data-name="Слой 1" xmlns="http://www.w3.org/2000/svg" width="600" height="600" viewBox="0 0 600 600">
  <defs>
    <style>
      .cls-1 {
        fill: #fff;
      }

      .cls-2 {
        fill: #d92727;
      }
    </style>
  </defs>
  <g>
    <path class="cls-1" d="M300,599A298.99982,298.99982,0,0,1,88.5752,88.5752,298.99982,298.99982,0,1,1,511.4248,511.4248,297.04178,297.04178,0,0,1,300,599Z"/>
    <path d="M300,2A298.07913,298.07913,0,0,1,415.99442,574.58252,298.07768,298.07768,0,0,1,184.00558,25.4175,296.13159,296.13159,0,0,1,300,2m0-2C134.31459,0,0,134.31459,0,300S134.31459,600,300,600,600,465.68542,600,300,465.68542,0,300,0Z"/>
  </g>
  <path class="cls-2" d="M300,10C139.84,10,10,139.84,10,300S139.84,590,300,590,590,460.16,590,300,460.16,10,300,10ZM128.88,128.88A241.87527,241.87527,0,0,1,541.638,287H58.362A240.88748,240.88748,0,0,1,128.88,128.88ZM471.12,471.12A241.87527,241.87527,0,0,1,58.362,313H541.638A240.88748,240.88748,0,0,1,471.12,471.12Z"/>
  <g>
    <path d="M209,234a13,13,0,1,1-13,13,13.01472,13.01472,0,0,1,13-13m0-13a26,26,0,1,0,26,26,26,26,0,0,0-26-26Z"/>
    <path d="M367,209a23,23,0,1,1-23,23,23.02608,23.02608,0,0,1,23-23m0-18a41,41,0,1,0,41,41,41,41,0,0,0-41-41Z"/>
    <path d="M384,166V116a9.00072,9.00072,0,0,0-9-9H320.06a8.99882,8.99882,0,0,0-8.34,5.61L290,166H261.7V119.26H249.96V166H206a9.00072,9.00072,0,0,0-9,9v41.79a32.53557,32.53557,0,0,1,42.55,19.08h80.61a2.84029,2.84029,0,0,1-.02-.29,46.99789,46.99789,0,0,1,65.43-46.77L396,177Zm-11-9a9.00076,9.00076,0,0,1-9,9H311.07a6.00039,6.00039,0,0,1-5.51-8.39l14.95-34.36a8.98827,8.98827,0,0,1,8.18-5.25H364a9.00072,9.00072,0,0,1,9,9Z"/>
  </g>
  <g>
    <g>
      <path d="M355.73368,429.10748c-2.83858,5.70275-2.8412,5.71636-8.47823,4.63042-6.25-1.20405-12.48467-2.4908-18.74533-3.63559-3.6502-.66742-3.73882-.57416-3.74466,3.21505-.016,10.34448.06892,20.68924.02617,31.0335a20.471,20.471,0,0,1-.72368,5.57948,4.94616,4.94616,0,0,1-4.60516,3.60875,4.61574,4.61574,0,0,1-4.8343-3.19408,19.52929,19.52929,0,0,1-1.15221-5.98152c-.16085-9.48048-.12413-18.96408-.20028-28.44626-.05632-7.0177-1.97994-9.26621-8.80482-10.34063a521.26874,521.26874,0,0,0-54.9443-5.85988q-13.68108-.687-27.33856-1.80621a7.26536,7.26536,0,0,0-7.64688,3.94034c-3.77446,6.37021-7.7494,12.62124-11.59633,18.949-2.14834,3.53381-2.11061,4.0437.4704,7.342,2.973,3.79928,6.08753,7.48967,9.00169,11.33271,3.06632,4.04382,3.24973,7.03485.82369,9.2253-2.32656,2.10063-5.22064,1.28445-8.70264-2.74308-4.281-4.95184-8.49589-9.96549-12.59808-15.066-3.48466-4.33268-3.49789-5.90748-.68831-10.69856,3.39669-5.79223,6.82395-11.56656,10.203-17.369.59567-1.02284,1.0198-2.14559,1.64708-3.48721-2.67629-1.41468-5.45625-.96866-8.07394-1.364-2.88819-.4362-4.00878-1.65345-4.14111-4.33733-.15785-3.20128,1.25554-4.88491,4.52433-4.93027,2.68948-.03732,5.38384.27848,8.6283.47042a39.10566,39.10566,0,0,0-1.341-3.67764q-6.64786-13.43013-13.37235-26.82224c-1.62265-3.22032-1.70421-3.21214-4.952-1.38794-3.15328,1.77114-6.19389,3.76358-9.43509,5.35012a20.40372,20.40372,0,0,1-6.78762,2.17808c-6.23345.59938-9.0406-2.98137-6.90647-9.01969a79.14224,79.14224,0,0,1,5.9654-13.11843c3.52233-6.10893,7.49354-11.96525,11.40606-17.84094,2.95177-4.43289,3.04147-4.36789-1.01887-7.46247-.95908-.73093-2.20643-1.31725-2.7554-2.28954a5.06928,5.06928,0,0,1-.6306-3.7101,4.10875,4.10875,0,0,1,2.85175-2.358,10.00869,10.00869,0,0,1,5.41125,1.11344c5.91776,3.49782,11.67249,7.27324,17.45646,10.99416,1.30036.83651,2.46868,1.87708,3.70687,2.81171,4.00734,3.025,3.95871,2.97679,7.52426-.91988a45.422,45.422,0,0,1,5.26593-4.93157c1.81688-1.43975,3.81506-2.27909,6.11051-.579,2.34943,1.74007,3.21828,3.6753,2.274,6.7414a36.28208,36.28208,0,0,1-2.32106,5.15916c-.68163,1.3893-1.469,2.72647-2.197,4.09338-1.85355,3.48027-1.858,3.48813.9067,6.62186,2.62256,2.97265,5.44976,5.788,7.837,8.93785,2.0051,2.64556,4.3561,3.33384,7.55306,3.31815,23.96454-.11778,47.92994-.06756,71.89506-.05689,2.24024.001,4.48767-.0064,6.71931.15858,9.45806.69927,14.94169,7.18471,14.17783,16.68621a6.26316,6.26316,0,0,1-.11536,1.02707,51.21767,51.21767,0,0,0-.52652,22.02894c.27478,1.504-.00783,4.14592-.90558,4.62335-2.21782,1.17945-3.66653-1.00234-4.94357-2.58321-3.41321-4.22538-3.69355-9.07066-2.84069-14.20781a50.57517,50.57517,0,0,0,.93235-9.71788,15.97913,15.97913,0,0,0-1.97671-6.29318,3.51853,3.51853,0,0,0-2.895-1.56991,3.68794,3.68794,0,0,0-2.3368,2.33321,30.69107,30.69107,0,0,0-.97425,6.6257c-.38569,7.494,1.08279,14.71581,3.22746,21.86765,1.83266,6.11153,6.30546,8.66064,12.07359,9.82295,8.60123,1.73312,17.19061,3.52528,25.78043,5.31416A13.53789,13.53789,0,0,1,355.73368,429.10748Z"/>
      <path d="M227.06835,445.5392c.002-6.8942-.063-13.78932.03009-20.68226.045-3.33012.17816-3.3151,3.63909-2.93613,6.90965.75651,6.2286-.22857,6.28745,6.96135.09733,11.89191.11078,23.78465.10844,35.677a26.72777,26.72777,0,0,1-.46422,5.64369,4.45932,4.45932,0,0,1-4.4732,3.63076,4.37644,4.37644,0,0,1-4.52394-3.53574,24.49164,24.49164,0,0,1-.58044-5.62739C227.02537,458.294,227.06633,451.91639,227.06835,445.5392Z"/>
      <path d="M283.4991,467.12118c.2907-1.07865.64769-2.76164,1.19606-4.37975q5.04747-14.89249,10.17918-29.75632c1.23622-3.57178,1.29955-3.54994,4.89473-2.89843,7.02058,1.27227,7.0924,1.29812,4.70139,7.9554-3.483,9.69736-7.07573,19.35538-10.63865,29.02392a15.86722,15.86722,0,0,1-1.4423,3.29656c-1.268,1.91958-2.901,3.51932-5.47,3.05852C284.71455,473.02551,283.42072,470.722,283.4991,467.12118Z"/>
    </g>
    <g>
      <path d="M372,433a17,17,0,1,1-17,17,17.01924,17.01924,0,0,1,17-17m0-5a22,22,0,1,0,22,22,22,22,0,0,0-22-22Z"/>
      <path d="M476,397l-24,50H399c-.52-15-11.88-23-27-23-.34,0-1,.03-1,.03V407a10,10,0,0,1,10-10Z"/>
    </g>
  </g>
</svg>
