<svg id="Слой_1" data-name="Слой 1" xmlns="http://www.w3.org/2000/svg" width="600" height="600" viewBox="0 0 600 600">
  <defs>
    <style>
      .cls-1 {
        fill: #fff;
      }

      .cls-2 {
        fill: #d92727;
      }
    </style>
  </defs>
  <g>
    <path class="cls-1" d="M300,599A298.99982,298.99982,0,0,1,88.5752,88.5752,298.99982,298.99982,0,1,1,511.4248,511.4248,297.04178,297.04178,0,0,1,300,599Z"/>
    <path d="M300,2A298.07913,298.07913,0,0,1,415.99442,574.58252,298.07768,298.07768,0,0,1,184.00558,25.4175,296.13159,296.13159,0,0,1,300,2m0-2C134.31459,0,0,134.31459,0,300S134.31459,600,300,600,600,465.68542,600,300,465.68542,0,300,0Z"/>
  </g>
  <path class="cls-2" d="M300,10C139.84,10,10,139.84,10,300S139.84,590,300,590,590,460.16,590,300,460.16,10,300,10ZM77,394.18A241.9052,241.9052,0,0,1,291.73,58.14V296.38L86.83,414.68Q81.445,404.68995,77,394.18Zm394.12,76.94A242.20715,242.20715,0,0,1,94.88,428.51L299.73,310.24l205.25,118.5A242.12076,242.12076,0,0,1,471.12,471.12Zm41.93-56.2L307.73,296.38l.01-238.26A242.1615,242.1615,0,0,1,523,394.18Q518.5,404.81495,513.05,414.92Z"/>
  <g>
    <path d="M342.79778,254.05333a9.64889,9.64889,0,1,1-9.64889,9.64889,9.65981,9.65981,0,0,1,9.64889-9.64889m0-9.64889a19.29778,19.29778,0,1,0,19.29778,19.29778,19.29777,19.29777,0,0,0-19.29778-19.29778Z"/>
    <path d="M460.06889,235.49778a17.07111,17.07111,0,1,1-17.07111,17.07111,17.09047,17.09047,0,0,1,17.07111-17.07111m0-13.36A30.43111,30.43111,0,1,0,490.5,252.56889a30.43111,30.43111,0,0,0-30.43111-30.43111Z"/>
    <path d="M472.68667,203.58222V166.47111a6.68053,6.68053,0,0,0-6.68-6.68H425.229a6.67912,6.67912,0,0,0-6.19016,4.16386l-16.121,39.62725H381.9129V168.89076h-8.71368v34.69146H340.57111a6.68053,6.68053,0,0,0-6.68,6.68v31.01745a24.14864,24.14864,0,0,1,31.58155,14.16162h59.83052a2.10954,2.10954,0,0,1-.01481-.21528,34.88286,34.88286,0,0,1,48.56359-34.7137l7.74137-8.76564Zm-8.16445-6.68a6.68057,6.68057,0,0,1-6.68,6.68H418.55641a4.45362,4.45362,0,0,1-4.08966-6.22725L425.563,171.85222a6.67128,6.67128,0,0,1,6.07137-3.89666h26.20786a6.68053,6.68053,0,0,1,6.68,6.68Z"/>
  </g>
  <g>
    <g>
      <path d="M242.409,250.57317c-2.11457,4.24821-2.11652,4.25834-6.31576,3.44938-4.65588-.89694-9.3003-1.85549-13.96411-2.70829-2.71918-.49719-2.78519-.42771-2.78954,2.395-.01193,7.706.05134,15.41221.01949,23.118a15.24922,15.24922,0,0,1-.53909,4.15636,3.68458,3.68458,0,0,1-3.43057,2.6883,3.43845,3.43845,0,0,1-3.60125-2.37939,14.54813,14.54813,0,0,1-.85832-4.45587c-.11983-7.06236-.09247-14.12706-.1492-21.1907-.04195-5.22776-1.47493-6.90275-6.559-7.70313a388.31273,388.31273,0,0,0-40.93011-4.36525Q153.1,243.06588,142.926,242.23213a5.41225,5.41225,0,0,0-5.69646,2.9353c-2.81174,4.74542-5.77282,9.40205-8.63855,14.11583-1.60038,2.63247-1.57227,3.0123.35042,5.46933,2.21473,2.83023,4.53484,5.57935,6.7057,8.44217,2.28422,3.0124,2.42085,5.24053.6136,6.87228-1.73314,1.56484-3.889.95683-6.48293-2.04343-3.18911-3.68881-6.32891-7.42367-9.38479-11.22327-2.59585-3.22758-2.60571-4.40071-.51274-7.96977,2.53032-4.31485,5.08341-8.61637,7.60057-12.93886.44374-.76195.75969-1.59833,1.227-2.59776-1.99367-1.05385-4.06456-.72159-6.01459-1.0161-2.15152-.325-2.98629-1.23172-3.08486-3.231-.11759-2.38476.93529-3.639,3.37034-3.67275,2.00349-.0278,4.01063.20745,6.42755.35043a29.131,29.131,0,0,0-.999-2.73961q-4.95225-10.00461-9.96158-19.98091c-1.20877-2.39894-1.26953-2.39285-3.6889-1.03393-2.349,1.31939-4.61407,2.80363-7.02856,3.98551a15.19962,15.19962,0,0,1-5.05637,1.62253c-4.64353.4465-6.73468-2.22094-5.14489-6.71911a58.95641,58.95641,0,0,1,4.44386-9.77242c2.62392-4.55078,5.58222-8.91337,8.49681-13.2904,2.19889-3.30223,2.2657-3.25381-.759-5.55908-.71446-.5445-1.64366-.98127-2.05261-1.70557a3.77625,3.77625,0,0,1-.46975-2.76379,3.06073,3.06073,0,0,1,2.12437-1.75658,7.4558,7.4558,0,0,1,4.031.82945c4.40837,2.60566,8.69528,5.41811,13.004,8.19.96869.62314,1.839,1.39831,2.76139,2.09455,2.98522,2.25341,2.949,2.21752,5.60511-.68526a33.837,33.837,0,0,1,3.92279-3.67371c1.35346-1.07253,2.842-1.69779,4.552-.43132a4.03972,4.03972,0,0,1,1.694,5.02193A27.02812,27.02812,0,0,1,143.15188,191.2c-.50777,1.03494-1.09429,2.03105-1.63661,3.04932-1.38078,2.59258-1.38408,2.59844.67544,4.93287,1.95364,2.21444,4.05973,4.31174,5.83809,6.65814,1.49367,1.97078,3.245,2.48351,5.62656,2.47182,17.8521-.08774,35.70484-.05032,53.55738-.04237,1.66884.00075,3.343-.00478,5.00547.11812,7.04567.52092,11.13064,5.35217,10.5616,12.4302a4.66368,4.66368,0,0,1-.08593.7651,38.15409,38.15409,0,0,0-.39223,16.4102c.2047,1.12038-.00583,3.08846-.6746,3.44411-1.65214.87862-2.73134-.74668-3.68265-1.92433-2.54263-3.14764-2.75147-6.75708-2.11614-10.58394a37.67515,37.67515,0,0,0,.69455-7.23922,11.90335,11.90335,0,0,0-1.47254-4.688,2.62111,2.62111,0,0,0-2.15656-1.16949,2.74729,2.74729,0,0,0-1.74078,1.7381,22.86254,22.86254,0,0,0-.72575,4.93574,47.87666,47.87666,0,0,0,2.40425,16.29005c1.36522,4.55271,4.69718,6.45164,8.99409,7.31749,6.40737,1.29107,12.80593,2.62612,19.20482,3.95872A10.08524,10.08524,0,0,1,242.409,250.57317Z"/>
      <path d="M146.5613,262.8138c.0015-5.13576-.047-10.2722.02241-15.407.03351-2.48073.13272-2.46954,2.7109-2.18723,5.14726.56355,4.63992-.17027,4.68376,5.18578.07251,8.85874.08252,17.71809.08078,26.57718a19.91077,19.91077,0,0,1-.34581,4.2042,3.32192,3.32192,0,0,1-3.33226,2.70469,3.26019,3.26019,0,0,1-3.37006-2.6339,18.24537,18.24537,0,0,1-.43239-4.19207C146.52928,272.31532,146.55979,267.5644,146.5613,262.8138Z"/>
      <path d="M188.59872,278.891c.21655-.80353.48249-2.05726.891-3.26265q3.76-11.094,7.58286-22.16662c.92091-2.66076.96808-2.64448,3.64627-2.15915,5.2299.94776,5.2834.967,3.50225,5.92628-2.59461,7.22393-5.271,14.41856-7.92514,21.621a11.81954,11.81954,0,0,1-1.07443,2.45573c-.94461,1.43-2.16106,2.62168-4.07478,2.27841C189.50415,283.2894,188.54033,281.57343,188.59872,278.891Z"/>
    </g>
    <g>
      <path d="M254.53,249.75a16.39,16.39,0,1,0,16.39,16.39A16.39246,16.39246,0,0,0,254.53,249.75Zm0,29.05a12.665,12.665,0,1,1,12.66-12.66A12.67742,12.67742,0,0,1,254.53,278.8Z"/>
      <path d="M261.23,226.66H284V263.9h-9.36c-.39-11.17-8.85-17.13-20.11-17.13-.26,0-.75.02-.75.02V234.1A7.44724,7.44724,0,0,1,261.23,226.66Z"/>
    </g>
  </g>
  <g>
    <path d="M365.43974,414.57186a32.54365,32.54365,0,0,0-7.14091.789l-2.6559-7.68459H370.0684v-3.18963a10.28745,10.28745,0,0,0-10.23253-10.31134l-36.41961-.10585a13.93879,13.93879,0,0,0-12.24682,7.234l-3.5082,6.37283h40.24384l3.49544,10.08523a32.54794,32.54794,0,1,0,14.03922-3.18962Zm15.3496,48.13619a21.75908,21.75908,0,0,1-30.69921-30.84424,21.754,21.754,0,0,1,4.91117-3.70919L359.124,440.052a9.56923,9.56923,0,1,0,6.88715-2.37017l-4.11792-11.91658a21.868,21.868,0,0,1,3.54651-.28865,21.83171,21.83171,0,0,1,15.3496,37.2315Z"/>
    <path d="M331.89948,414.27359l-27.43042.13791-7.85278,16.48372a3.99128,3.99128,0,0,1-3.59918,2.27876H281.2603a3.99543,3.99543,0,0,1-3.91682-3.23934l-3.98863-20.496a4.16352,4.16352,0,0,1,4.07323-4.96965h18.58169a6.39979,6.39979,0,0,0,6.38437-6.41453v-1.92435a6.39978,6.39978,0,0,0-6.38437-6.41453h-31.5643a1.13688,1.13688,0,0,1-.9784-1.70145l4.12908-7.1987a1.11841,1.11841,0,0,1,.96883-.56127h9.409a3.19887,3.19887,0,0,0,3.19218-3.20726A3.0425,3.0425,0,0,0,278.13355,374H250.52117a4.79933,4.79933,0,0,0-4.78827,4.81089v6.25416a4.79933,4.79933,0,0,0,4.78827,4.8109h1.952a.96185.96185,0,0,1,.89222,1.31176l-9.57177,24.71837a32.73815,32.73815,0,1,0,23.32688,31.37985,32.7266,32.7266,0,0,0-16.68235-28.56708l9.66593-24.57565a.95593.95593,0,0,1,1.82115.12829l12.76553,53.01444s1.786,9.62179,11.55251,9.62179h41.04987c-3.5114-23.8941,9.09772-35.761,9.09772-35.761v-2.383A4.479,4.479,0,0,0,331.89948,414.27359Zm-81.98961,17.59022a21.53711,21.53711,0,1,1-10.07133-5.741l-4.48343,11.575q-.39263-.03368-.79485-.03367a9.60031,9.60031,0,1,0,7.15688,3.2281l4.67973-11.89573A21.94157,21.94157,0,0,1,249.90987,431.86381Z"/>
  </g>
</svg>
