<svg id="Слой_1" data-name="Слой 1" xmlns="http://www.w3.org/2000/svg" width="600" height="600" viewBox="0 0 600 600">
  <defs>
    <style>
      .cls-1 {
        fill: #fff;
      }

      .cls-2 {
        fill: #d92727;
      }
    </style>
  </defs>
  <g>
    <path class="cls-1" d="M300,599C134.867,599.00012,1.0001,465.13339,1,300.00037A298.99983,298.99983,0,0,1,88.5752,88.5752c116.76669-116.76669,306.08291-116.76669,422.8496,0s116.76667,306.08291,0,422.8496A297.04155,297.04155,0,0,1,300,599Z"/>
    <path d="M300,2c164.62451.10544,297.99359,133.64546,297.88818,298.27A298.07913,298.07913,0,0,1,415.99442,574.58252C264.305,638.54565,89.484,567.42944,25.5208,415.74-38.38345,264.19025,32.53923,89.51913,184.00558,25.4175A296.13172,296.13172,0,0,1,300,2m0-2C134.31459,0,0,134.31459,0,300S134.31459,600,300,600,600,465.68542,600,300,465.68542,0,300,0Z"/>
  </g>
  <path class="cls-2" d="M300,58a242.07656,242.07656,0,0,1,94.18259,465.0022A242.07516,242.07516,0,0,1,205.8174,76.9978,240.44077,240.44077,0,0,1,300,58m0-48C139.8374,10,10,139.8374,10,300S139.8374,590,300,590,590,460.1626,590,300,460.1626,10,300,10Z"/>
  <g>
    <path d="M423,280.5a66.59374,66.59374,0,0,0-65.75,56.52l-57.01.02a22.96814,22.96814,0,0,1-19.7-10.78c-3.17-5.26-8.14-16.5-4.21-21.38,5.28-6.53,3.37-22.3.12-26.6l-15.78-30.65-.03-.06-.04-.06c-3.22-5.65-8.01-8.52-14.22-8.52-.16,0-.33.01-.5.01-.84.02-3,.03-6.41.03-2.93,0-6.26-.01-8.87-.01L242.96,211H276v-7c0-2.51,0-4.18-1.31-5.55-1.38-1.45-3.22-1.45-5.55-1.45H205a9.01353,9.01353,0,0,0-9,9v14a9.01357,9.01357,0,0,0,9,9h7.52l-21.73,52.78A65.89577,65.89577,0,0,0,175.5,280a66.54338,66.54338,0,1,0,33.92,9.32l10.97-26.44,43.99,79.17A30.99819,30.99819,0,0,0,291.48,358h65.93A66.5028,66.5028,0,1,0,423,280.5Zm-194,66a53.4828,53.4828,0,1,1-43.24-52.51l-20.52,49.83a9.72514,9.72514,0,0,0,.47,9.47,10.133,10.133,0,0,0,8.46,4.46,10.38082,10.38082,0,0,0,9.57-6.53l.02-.04.01-.03,20.61-49.67A53.51123,53.51123,0,0,1,229,346.5Zm194,54A53.5859,53.5859,0,0,1,370.64,358H423c8.37,0,12.75-5.28,12.75-10.5S431.37,337,423,337l-52.56.02A53.49959,53.49959,0,1,1,423,400.5Z"/>
    <path d="M422,253v18H365.34a5.16282,5.16282,0,0,0-3.62006,2.74c-2.72,5.34.99,16.28,2.65,20.05l1.87,4.21H347.87l-.7-2.01c-5.28-15.02-5.41-26.58-.38-34.34a19.47909,19.47909,0,0,1,13.76-8.64l.13-.01Z"/>
  </g>
</svg>
