<svg xmlns="http://www.w3.org/2000/svg" width="604" height="604">
<title>4.1 Рух прямо</title>
<path d="M300 601A301 301 0 0 1 87.161 87.161 301 301 0 1 1 512.84 512.84 299.026 299.026 0 0 1 300 601z" transform="translate(2 2)" style="fill-rule:evenodd;fill:#fff"/><path d="M302 2a300 300 0 0 1 212.132 512.132A300 300 0 1 1 89.868 89.868 298.035 298.035 0 0 1 302 2m0-2A302 302 0 0 0 88.454 515.546 302 302 0 1 0 515.546 88.454 300.021 300.021 0 0 0 302 0z"/><circle cx="302" cy="302" r="280" style="fill:#005da2"/><path style="fill:#fff" d="M392 232h-60v310h-60V232h-60l90-155.88L392 232z"/></svg>