<svg xmlns="http://www.w3.org/2000/svg" width="600" height="600" viewBox="0 0 600 600">
  <g>
    <g>
      <path d="M300.05-.11c-165.68,0-300,134.31-300,300s134.32,300,300,300,300-134.32,300-300S465.74-.11,300.05-.11Z" transform="translate(-0.05 0.11)" style="fill: #fff"/>
      <path d="M300,17C143.84,17,17.2,143.67,17.2,299.9S143.84,582.75,300,582.75,582.92,456.1,582.92,299.9,456.27,17,300,17Z" transform="translate(-0.05 0.11)" style="fill: #005ca1"/>
      <path d="M300.05.75C134.84.75.91,134.68.91,299.89S134.84,599,300.05,599,599.2,465.1,599.2,299.89,465.26.75,300.05.75Z" transform="translate(-0.05 0.11)" style="fill: none;stroke: #000;stroke-miterlimit: 12.307692527770996;stroke-width: 1.7142861012574144px"/>
    </g>
    <g>
      <path d="M157,309.5A40.5,40.5,0,1,0,197.5,350,40.5,40.5,0,0,0,157,309.5Zm0,62A21.5,21.5,0,1,1,178.5,350,21.51,21.51,0,0,1,157,371.5Z" transform="translate(-0.05 0.11)" style="fill: #fff"/>
      <path d="M435,314.5A40.5,40.5,0,1,0,475.5,355,40.5,40.5,0,0,0,435,314.5Zm0,62A21.5,21.5,0,1,1,456.5,355,21.51,21.51,0,0,1,435,376.5Z" transform="translate(-0.05 0.11)" style="fill: #fff"/>
      <path d="M505.39,289a98.35,98.35,0,0,0-.78-15.46,101.08,101.08,0,0,0-7.18-26.28C495.63,243,492.3,237,485.63,225c-.43-.78-2-3.82-4.41-7.73a183.68,183.68,0,0,0-12.55-17.89c-1.68-2.15-4.24-5.48-9-5.4H278.07a10.76,10.76,0,0,0-6.92,2.72l-69.62,52.91a21.52,21.52,0,0,1-8.76,4c-31,6.31-61.13,12.62-92.19,18.92a18.43,18.43,0,0,0-10.83,6.63,26.62,26.62,0,0,0-2,2.95A27.21,27.21,0,0,0,84,296l.09,16.87a28.58,28.58,0,0,0,4.3,18.65A27.71,27.71,0,0,0,95.67,339a12.37,12.37,0,0,0,6.19,2.19l5.84.43A50,50,0,0,1,157,300c27.28,0,49.46,25.85,50,53l178.07,0a50,50,0,0,1,97.27-14.13h2.46A82.71,82.71,0,0,0,505.39,289Zm-38.95-35.72-4.1,8.5a12.4,12.4,0,0,1-11.16,7L216.87,269l57.13-53A25.73,25.73,0,0,1,291.77,209H439.31c8,.14,13.39,5.85,16,10.6l10.74,19.5A15.44,15.44,0,0,1,466.44,253.28Z" transform="translate(-0.05 0.11)" style="fill: #fff"/>
    </g>
  </g>
</svg>
