<svg id="Слой_1" data-name="Слой 1" xmlns="http://www.w3.org/2000/svg" width="1400" height="700" viewBox="0 0 1400 700">
  <defs>
    <style>
      .cls-1 {
        fill: #fff;
      }

      .cls-2 {
        fill: #005da2;
      }
    </style>
  </defs>
  <g>
    <rect class="cls-1" x="0.5" y="0.5" width="1399" height="699" rx="44.5"/>
    <path d="M1355,1a44.04992,44.04992,0,0,1,44,44V655a44.04992,44.04992,0,0,1-44,44H45A44.04989,44.04989,0,0,1,1,655V45A44.04989,44.04989,0,0,1,45,1H1355m0-1H45A45.00011,45.00011,0,0,0,0,45V655a45.00011,45.00011,0,0,0,45,45H1355a45.00008,45.00008,0,0,0,45-45V45a45.00008,45.00008,0,0,0-45-45Z"/>
  </g>
  <rect class="cls-2" x="20" y="20" width="1360" height="660" rx="35"/>
  <polygon class="cls-1" points="597 444 666 444 666 20 734 20 734 444 803 444 700 627 597 444"/>
  <g>
    <rect class="cls-1" x="451" y="20" width="24" height="69" transform="translate(926 109) rotate(180)"/>
    <rect class="cls-1" x="451" y="117" width="24" height="70" transform="translate(926 304) rotate(180)"/>
    <rect class="cls-1" x="451" y="218" width="24" height="70" transform="translate(926 506) rotate(180)"/>
    <rect class="cls-1" x="451" y="319" width="24" height="70" transform="translate(926 708) rotate(180)"/>
    <rect class="cls-1" x="451" y="417" width="24" height="70" transform="translate(926 904) rotate(180)"/>
    <rect class="cls-1" x="451" y="515" width="24" height="70" transform="translate(926 1100) rotate(180)"/>
    <rect class="cls-1" x="451" y="612" width="24" height="68" transform="translate(926 1292) rotate(180)"/>
  </g>
  <rect class="cls-1" x="921" y="20" width="20" height="660" transform="translate(1862 700) rotate(180)"/>
  <polygon class="cls-1" points="119 443 188 443 188 19 256 19 256 443 325 443 222 626 119 443"/>
  <polygon class="cls-1" points="1060 259 1129 259 1129 680 1197 680 1197 259 1266 259 1163 76 1060 259"/>
</svg>
