<svg xmlns="http://www.w3.org/2000/svg" width="604" height="604" viewBox="0 0 604 604"><defs><style>.a { fill: rgb(255, 255, 255); }.b { fill: rgb(0, 93, 162); }.c { fill: rgb(218, 37, 29); }</style></defs><g><rect class="a" x="1" y="1" width="602" height="602" rx="46"/><path d="M557,2a45,45,0,0,1,45,45V557a45,45,0,0,1-45,45H47A45,45,0,0,1,2,557V47A45,45,0,0,1,47,2H557m0-2H47A47.05319,47.05319,0,0,0,0,47V557a47.05321,47.05321,0,0,0,47,47H557a47.05323,47.05323,0,0,0,47-47V47A47.05321,47.05321,0,0,0,557,0Z"/></g><path class="b" d="M592,47V557a35,35,0,0,1-35,35H47a35,35,0,0,1-35-35V47a36.4906,36.4906,0,0,1,.31-4.7A35.00785,35.00785,0,0,1,47,12H557A34.99993,34.99993,0,0,1,592,47Z"/><path class="a" d="M530,43V253H469V592H399c0,.65.03,1.13.05,1.38-.06-.36-.14-.82-.27-1.38-1.52-6.8-8.47-28.63-27.57-68.8-14.67-30.84-40.33-80.54-79.3-142.19C234.63,290.39,140.3,161.26,12,51.81V47A35,35,0,0,1,47,12H72.93C202.71,126.47,297.66,258.03,355.94,351.33c16.69,26.72,30.98,51.24,43.06,73.1V253H338V43Z"/><path class="c" d="M414,115h40v24H414Zm0,66h40V157H414ZM509,61V235H359V61ZM454,225h45V198H465V178h34V158H465V138h34V118H465V98h34V71H454V96H414V71H369V98h34v20H369v20h34v20H369v20h34v20H369v27h45V200h40"/></svg>