<svg xmlns="http://www.w3.org/2000/svg" width="704" height="704">
<title>5.41.1 Надземний пішохідний перехід</title>
<defs><style>.a{fill:#fff}</style></defs><rect class="a" x="1" y="1" width="702" height="702" rx="46"/><path d="M657 2a45 45 0 0 1 45 45v610a45 45 0 0 1-45 45H47a45 45 0 0 1-45-45V47A45 45 0 0 1 47 2h610m0-2H47A47.053 47.053 0 0 0 0 47v610a47.053 47.053 0 0 0 47 47h610a47.053 47.053 0 0 0 47-47V47a47.053 47.053 0 0 0-47-47z"/><rect x="12" y="12" width="680" height="680" rx="35" style="fill:#005da2"/><path class="a" d="M12 459v45h103v45h134v45h134v45h135v53h144a29.998 29.998 0 0 0 30-30v-23H541v-45H407v-45H273v-45H139v-45zM262.423 100.316c0 22 8 38 28 38 32 0 56-29 56-58 0-19-9-33-41-32.87-30-.13-43 25.87-43 52.87zM261 223l5 45-54.54 27.27a19.687 19.687 0 0 1-28.172-14.072 20 20 0 0 1 10.065-21.133z"/><path class="a" d="M270.2 187.439 280 289l-95.927 56.943a20 20 0 0 0-9.778 17.915l3.933 109.62a21.292 21.292 0 0 0 22.284 20.505 21 21 0 0 0 19.993-21.783l-3.264-84.937a10 10 0 0 1 5.29-9.21l111.836-59.573a30 30 0 0 0 15.764-29.284L341 192l44.728 30.966a20 20 0 0 1 8.44 13.8l8.01 60.075a21 21 0 0 0 23.932 17.993 19.11 19.11 0 0 0 16.065-21.725l-11.535-77.14a25 25 0 0 0-10.872-17.114l-74.981-49.915a30 30 0 0 0-32.306-.602l-32.828 20.13a20 20 0 0 0-9.453 18.97z"/><path class="a" d="m288 368 21.877 154.015a23 23 0 0 0 25.205 19.636 23.982 23.982 0 0 0 21.176-27.429L331 347z"/></svg>