<svg id="Слой_1" data-name="Слой 1" xmlns="http://www.w3.org/2000/svg" width="600" height="900" viewBox="0 0 600 900">
  <defs>
    <style>
      .cls-1 {
        fill: #fff;
      }

      .cls-2 {
        fill: #005ca0;
      }
    </style>
  </defs>
  <g>
    <rect class="cls-1" x="0.5" y="0.5" width="599" height="899" rx="39.5"/>
    <path d="M560,1a39.04419,39.04419,0,0,1,39,39V860a39.04421,39.04421,0,0,1-39,39H40A39.04419,39.04419,0,0,1,1,860V40A39.04417,39.04417,0,0,1,40,1H560m0-1H40A39.99994,39.99994,0,0,0,0,40V860a40,40,0,0,0,40,40H560a40.0001,40.0001,0,0,0,40-40V40A40,40,0,0,0,560,0Z"/>
  </g>
  <rect class="cls-2" x="10" y="10" width="580" height="880" rx="35"/>
  <g>
    <rect class="cls-1" x="48" y="203.5" width="504" height="193"/>
    <path d="M311.29688,365.10156h-20.647V260.00879c-5.208,6.69629-17.85644,13.02051-29.94678,15.43848V255.35889c12.64844-3.16211,25.11084-11.16016,31.80665-20.46045h18.78711Z"/>
  </g>
  <g>
    <rect class="cls-1" x="48" y="428.5" width="504" height="193"/>
    <path d="M339.897,572.61719V590.8457H253.21924V573.36133c25.668-23.251,64.1709-53.75586,64.1709-78.12207,0-10.60254-8.37012-17.85645-21.2041-17.85645-14.50879,0-23.43653,9.29981-23.43653,24.73828H252.103c0-25.66894,17.85644-42.96679,44.26855-42.96679,24.36719,0,41.665,14.69433,41.665,35.34082,0,30.31836-28.458,53.38281-55.9873,78.30761Z"/>
  </g>
  <g>
    <rect class="cls-1" x="48" y="653.5" width="504" height="193"/>
    <path d="M272.84277,718.56445,253.126,715.96094c3.34765-19.34473,21.01855-32.55078,44.083-32.55078,23.99414,0,41.293,14.32226,41.293,35.34082,0,13.0205-6.51074,23.251-17.85644,28.27246,12.834,4.65039,20.64648,15.81054,20.64648,30.87695,0,22.87891-18.043,38.68945-44.26855,38.68945-24.18067,0-42.96778-13.76464-46.31543-33.85351l19.90234-3.34766c3.34766,11.71778,13.20606,18.97266,26.78418,18.97266,14.13672,0,23.251-7.8125,23.251-20.64649,0-12.835-8.92774-21.20507-23.62207-21.20507h-7.06836V739.39746h7.06836c12.834,0,20.832-7.44043,20.832-19.1582,0-11.71875-8.18457-18.60059-21.01856-18.60059C284.375,701.63867,275.26074,708.14844,272.84277,718.56445Z"/>
  </g>
  <g>
    <path class="cls-1" d="M59.23779,105.99219c0,17.32422,6.19434,26.66894,17.84961,26.66894,7.97949,0,13.54395-4.30468,16.37891-12.28467L105.436,122.2666c-3.78028,13.7544-13.75489,21.314-28.24415,21.314-19.42382,0-30.34375-13.64942-30.34375-37.4834,0-24.044,11.02442-37.69336,30.34375-37.69336,14.48926,0,24.56934,7.55957,28.24415,21.209L93.46631,91.60791c-2.72949-8.085-8.29492-12.28467-16.27442-12.28467C65.43213,79.32324,59.23779,88.563,59.23779,105.99219Z"/>
    <path class="cls-1" d="M167.80518,142.74072h-49.1377V69.24365h48.61328V80.16309h-36.3291v19.84423h30.44922v10.91993H130.95166v20.78906h36.85352Z"/>
    <path class="cls-1" d="M194.26611,142.74072H181.98193V69.24365h27.71875c15.22461,0,24.98926,8.92481,24.98926,22.99414,0,14.17432-9.76465,23.2041-24.88379,23.2041h-15.54ZM208.021,80.16309H194.26611v24.35937h13.86035c9.23926,0,14.17383-4.30517,14.17383-12.17969C222.30029,84.36328,217.36572,80.16309,208.021,80.16309Z"/>
    <path class="cls-1" d="M296.63916,142.74072h-49.1377V69.24365h48.61329V80.16309H259.78564v19.84423h30.44922v10.91993H259.78564v20.78906h36.85352Z"/>
    <path class="cls-1" d="M304.30615,132.03125h7.34961c6.19434-7.13965,7.875-21.52441,9.55469-62.7876h45.46289v62.7876h9.24023v26.459h-9.55468l-2.10059-15.74951H315.96045l-2.09961,15.74951h-9.55469Zm50.083,0V80.16309H331.92041c-1.4707,27.82421-3.15039,43.04834-7.45508,51.86816Z"/>
    <path class="cls-1" d="M400.17041,142.74072H387.88525V69.24365h12.28516V99.79736h32.2334V69.24365h12.38965v73.49707H432.40381V110.82227h-32.2334Z"/>
    <path class="cls-1" d="M475.45459,142.74072H463.16943V69.24365h12.28516Z"/>
    <path class="cls-1" d="M506.21924,121.7417l33.70312-52.498h13.2295v73.49707H540.86768V90.1377l-33.70411,52.603H493.93408V69.24365h12.28516ZM507.689,47.50977h8.39942c.21,4.40966,2.835,6.8247,7.45508,6.8247,4.61914,0,7.13965-2.415,7.34961-6.8247h8.39941c0,9.44921-5.77441,14.80419-15.749,14.80419C513.46338,62.314,507.689,56.959,507.689,47.50977Z"/>
  </g>
</svg>
