<?xml version="1.0" encoding="UTF-8" standalone="no"?>
<svg
   width="2824"
   height="1894"
   version="1.1"
   id="svg11297"
   sodipodi:docname="UA_road_sign_5.57.4.svg"
   inkscape:version="1.2.2 (732a01da63, 2022-12-09)"
   xmlns:inkscape="http://www.inkscape.org/namespaces/inkscape"
   xmlns:sodipodi="http://sodipodi.sourceforge.net/DTD/sodipodi-0.dtd"
   xmlns="http://www.w3.org/2000/svg"
   xmlns:svg="http://www.w3.org/2000/svg"
   xmlns:rdf="http://www.w3.org/1999/02/22-rdf-syntax-ns#"
   xmlns:cc="http://creativecommons.org/ns#"
   xmlns:dc="http://purl.org/dc/elements/1.1/">
  <sodipodi:namedview
     id="namedview11299"
     pagecolor="#ffffff"
     bordercolor="#000000"
     borderopacity="0.25"
     inkscape:showpageshadow="2"
     inkscape:pageopacity="0.0"
     inkscape:pagecheckerboard="0"
     inkscape:deskcolor="#d1d1d1"
     showgrid="false"
     inkscape:zoom="0.3424221"
     inkscape:cx="1412"
     inkscape:cy="947.66081"
     inkscape:window-width="1920"
     inkscape:window-height="991"
     inkscape:window-x="-9"
     inkscape:window-y="-9"
     inkscape:window-maximized="1"
     inkscape:current-layer="svg11297" />
  <title
     id="title11271">5.57 Попередній покажчик напрямків</title>
  <defs
     id="defs11275">
    <style
       id="style11273">.a{fill:#fff}</style>
  </defs>
  <path
     id="rect11277"
     class="a"
     style="fill:#ffffff"
     d="m 47,1 h 2730 c 25.484,0 46,20.516 46,46 v 1800 c 0,25.484 -20.516,46 -46,46 H 47 C 21.516,1893 1,1872.484 1,1847 V 47 C 1,21.516 21.516,1 47,1 Z" />
  <path
     d="m 2777,2 a 45,45 0 0 1 45,45 v 1800 a 45,45 0 0 1 -45,45 H 47 A 45,45 0 0 1 2,1847 V 47 A 45,45 0 0 1 47,2 h 2730 m 0,-2 H 47 A 47.053,47.053 0 0 0 0,47 v 1800 a 47.053,47.053 0 0 0 47,47 h 2730 a 47.053,47.053 0 0 0 47,-47 V 47 A 47.053,47.053 0 0 0 2777,0 Z"
     id="path11279" />
  <path
     d="m 2777,1836.783 a 10,10 0 0 1 -10,10 H 57 a 10,10 0 0 1 -10,-10 v -1780 a 10,10 0 0 1 10,-10 h 2710 a 10,10 0 0 1 10,10 z m 0,-1815 H 47 a 25,25 0 0 0 -25,25 v 1800 a 25,25 0 0 0 25,25 h 2730 a 25,25 0 0 0 25,-25 v -1800 a 25,25 0 0 0 -25,-25 z"
     id="path11281" />
  <path
     id="path11283"
     style="stroke-width:0.899678"
     d="M 522.5547,520.76172 387.6035,655.71289 v 101.21289 l 92.7734,-92.77344 V 1051.8301 1416.9668 1810 h 84.3555 v -393.0332 -95.7695 c 0,-83.0897 69.6373,-150.4395 152.709,-150.4395 h 360.1699 l -84.8711,91.1836 h 113.9551 L 1234.3535,1129.7266 1106.6953,997.53711 H 992.7402 l 87.0078,93.45309 H 692.3984 c -47.9235,0 -92.1364,22.3361 -127.6406,49.1602 v -88.3203 h -0.025 V 664.15234 l 92.7734,92.77344 V 655.71289 Z"
     sodipodi:nodetypes="cccccccccsscccccccsccccccc" />
  <path
     d="m 1032.036,1796.136 -20.79,-35.144 v 48.838 h -19.634 v -82.497 h 21.12 l 23.594,39.434 23.429,-39.434 h 21.284 v 82.497 h -19.634 v -48.838 l -20.79,35.144 z"
     id="path12229"
     style="opacity:1" />
  <path
     d="m 893.272,1692.354 c 27.06,0 40.094,19.635 40.094,59.563 0,39.764 -13.034,59.398 -40.094,59.398 -27.058,0 -40.093,-19.634 -40.093,-59.398 0,-39.928 13.035,-59.563 40.093,-59.563 z m -19.139,59.563 c 0,26.234 6.765,40.919 19.14,40.919 12.375,0 19.139,-14.685 19.139,-40.919 0,-26.398 -6.765,-41.083 -19.14,-41.083 -12.375,0 -19.139,14.685 -19.139,41.083 z"
     id="path12227"
     style="opacity:1" />
  <path
     d="m 759.625,1756.867 2.97,-62.532 h 66.327 v 18.314 h -48.839 l -1.154,26.234 c 4.62,-4.29 12.54,-6.93 21.284,-6.93 22.109,0 35.968,15.18 35.968,38.443 0,25.245 -16.004,40.92 -41.248,40.92 -20.789,0 -35.473,-11.055 -38.938,-29.535 l 19.964,-3.63 c 2.145,9.075 9.9,14.685 19.47,14.685 12.209,0 19.798,-8.415 19.798,-21.78 0,-13.199 -7.424,-21.449 -18.809,-21.449 a 20.219,20.219 0 0 0 -17.324,9.076 z"
     id="path12225" />
  <g
     aria-label="Поділ
Оболонь"
     id="text12137"
     style="font-weight:bold;font-size:174.622px;line-height:0.9;font-family:'IndorSoft RoadSign Letters';-inkscape-font-specification:'IndorSoft RoadSign Letters Bold';opacity:1;fill-rule:evenodd;stroke-width:0.698486;stroke-linecap:round;stroke-linejoin:round;paint-order:stroke fill markers">
    <path
       d="m 252.6534,158.92999 h 53.25971 V 263.0047 h 20.6054 V 140.7693 h -94.29588 v 122.2354 h 20.43077 z"
       style="font-weight:500;font-family:'Road UA';-inkscape-font-specification:'Road UA Medium'"
       id="path15986" />
    <path
       d="m 429.89475,219.3492 c 0,-28.81263 -14.66824,-45.05247 -40.16305,-45.05247 -25.66944,0 -39.98844,16.23984 -39.98844,45.05247 0,28.81263 14.319,45.05248 39.98844,45.05248 25.49481,0 40.16305,-16.23985 40.16305,-45.05248 z m -60.76845,0 c 0,-18.50993 6.98488,-27.93952 20.6054,-27.93952 13.44589,0 20.78001,9.42959 20.78001,27.93952 0,18.50993 -7.33412,27.93952 -20.78001,27.93952 -13.62052,0 -20.6054,-9.60421 -20.6054,-27.93952 z"
       style="font-weight:500;font-family:'Road UA';-inkscape-font-specification:'Road UA Medium'"
       id="path15988" />
    <path
       d="m 455.21483,287.45178 3.49244,-24.44708 h 59.89534 l 3.31782,24.44708 H 536.7633 V 246.41561 H 523.66665 V 175.6937 H 461.3266 c -1.39698,46.27483 -3.49244,63.56241 -11.69968,70.72191 h -9.25496 v 41.03617 z m 15.54135,-41.03617 c 4.88942,-10.82656 6.81026,-27.7649 7.85799,-54.30744 h 25.66944 v 54.30744 z"
       style="font-weight:500;font-family:'Road UA';-inkscape-font-specification:'Road UA Medium'"
       id="path15990" />
    <path
       d="m 551.95541,149.15116 c 0,6.63564 5.06404,11.69967 11.69967,11.69967 6.81026,0 11.8743,-4.88941 11.8743,-11.69967 0,-6.63564 -5.06404,-11.69967 -11.8743,-11.69967 -6.63563,0 -11.69967,5.06403 -11.69967,11.69967 z m 21.4785,26.54254 h -19.38304 v 87.311 h 19.38304 z"
       style="font-weight:500;font-family:'Road UA';-inkscape-font-specification:'Road UA Medium'"
       id="path15992" />
    <path
       d="m 594.21404,265.10016 c 24.27245,-5.93714 31.60658,-21.12926 33.70204,-72.99199 h 24.97095 v 70.89653 h 19.38304 v -87.311 H 610.6285 c -2.4447,57.45064 -5.5879,68.45182 -20.60539,72.64275 z"
       style="font-weight:500;font-family:'Road UA';-inkscape-font-specification:'Road UA Medium'"
       id="path15994" />
    <path
       d="m 277.44973,306.23334 c -32.82894,0 -51.51349,22.52624 -51.51349,62.51467 0,39.81382 18.68455,62.51468 51.51349,62.51468 32.65431,0 51.33886,-22.70086 51.33886,-62.51468 0,-39.98843 -18.68455,-62.51467 -51.33886,-62.51467 z m 0,18.16069 c 20.25615,0 30.90809,15.01749 30.90809,44.17936 0,29.16188 -10.65194,44.52861 -30.90809,44.52861 -20.25615,0 -30.9081,-15.36673 -30.9081,-44.35399 0,-29.16187 10.65195,-44.35398 30.9081,-44.35398 z"
       style="font-weight:500;font-family:'Road UA';-inkscape-font-specification:'Road UA Medium'"
       id="path15996" />
    <path
       d="m 420.46528,306.23334 -31.08271,2.96857 c -29.51112,2.96858 -42.60777,22.35162 -42.60777,62.34006 0,43.48087 15.36674,59.72072 40.86155,59.72072 25.32019,0 39.81381,-15.8906 39.81381,-44.17937 0,-27.41565 -13.44589,-42.95701 -36.84524,-42.95701 -13.79514,0 -24.27246,6.11177 -28.28876,16.58909 1.22235,-21.4785 9.08034,-31.43196 27.24103,-33.17818 l 30.90809,-2.96857 z m -53.25971,81.02461 c 0,-17.4622 6.98488,-26.54255 20.43078,-26.54255 13.27127,0 20.43077,9.25497 20.43077,26.71717 0,17.4622 -7.1595,26.71716 -20.43077,26.71716 -13.4459,0 -20.43078,-9.25496 -20.43078,-26.89178 z"
       style="font-weight:500;font-family:'Road UA';-inkscape-font-specification:'Road UA Medium'"
       id="path15998" />
    <path
       d="m 523.14297,386.21021 c 0,-28.81263 -14.66825,-45.05247 -40.16306,-45.05247 -25.66943,0 -39.98844,16.23984 -39.98844,45.05247 0,28.81263 14.31901,45.05248 39.98844,45.05248 25.49481,0 40.16306,-16.23985 40.16306,-45.05248 z m -60.76845,0 c 0,-18.50993 6.98488,-27.93952 20.60539,-27.93952 13.44589,0 20.78002,9.42959 20.78002,27.93952 0,18.50993 -7.33413,27.93952 -20.78002,27.93952 -13.62051,0 -20.60539,-9.60421 -20.60539,-27.93952 z"
       style="font-weight:500;font-family:'Road UA';-inkscape-font-specification:'Road UA Medium'"
       id="path16000" />
    <path
       d="m 537.28722,431.96118 c 24.27246,-5.93715 31.60658,-21.12927 33.70204,-72.992 h 24.97095 v 70.89653 h 19.38304 v -87.31099 h -61.64156 c -2.44471,57.45063 -5.58791,68.45182 -20.6054,72.64274 z"
       style="font-weight:500;font-family:'Road UA';-inkscape-font-specification:'Road UA Medium'"
       id="path16002" />
    <path
       d="m 716.62411,386.21021 c 0,-28.81263 -14.66825,-45.05247 -40.16306,-45.05247 -25.66943,0 -39.98844,16.23984 -39.98844,45.05247 0,28.81263 14.31901,45.05248 39.98844,45.05248 25.49481,0 40.16306,-16.23985 40.16306,-45.05248 z m -60.76845,0 c 0,-18.50993 6.98488,-27.93952 20.60539,-27.93952 13.44589,0 20.78002,9.42959 20.78002,27.93952 0,18.50993 -7.33413,27.93952 -20.78002,27.93952 -13.62051,0 -20.60539,-9.60421 -20.60539,-27.93952 z"
       style="font-weight:500;font-family:'Road UA';-inkscape-font-specification:'Road UA Medium'"
       id="path16004" />
    <path
       d="m 757.13628,393.89358 h 37.54373 v 35.97213 h 19.38304 v -87.31099 h -19.38304 v 34.74977 h -37.54373 v -34.74977 h -19.38304 v 87.31099 h 19.38304 z"
       style="font-weight:500;font-family:'Road UA';-inkscape-font-specification:'Road UA Medium'"
       id="path16006" />
    <path
       d="m 877.2763,374.51054 h -17.28758 v -31.95582 h -19.38304 v 87.31099 h 36.67062 c 21.30389,0 33.52742,-10.12807 33.52742,-27.76489 0,-17.63683 -12.22353,-27.59028 -33.52742,-27.59028 z m -17.28758,39.28995 v -23.39935 h 17.28758 c 9.25497,0 14.14438,4.19093 14.14438,11.69968 0,7.68336 -4.88941,11.69967 -14.14438,11.69967 z"
       style="font-weight:500;font-family:'Road UA';-inkscape-font-specification:'Road UA Medium'"
       id="path16008" />
  </g>
  <path
     style="opacity:1;fill:#005999;fill-opacity:1;fill-rule:nonzero;stroke:#005999;stroke-width:7.78552;stroke-linecap:butt;stroke-linejoin:miter;stroke-miterlimit:10;stroke-opacity:1"
     d="m 1406.1307,1317.6324 h 886.4452 c 20.8178,0 37.6919,16.8741 37.6919,37.692 v 354.9734 c 0,20.8178 -16.8741,37.6919 -37.6919,37.6919 h -886.4452 c -20.8176,0 -37.6917,-16.8741 -37.6917,-37.6919 v -354.9734 c 0,-20.8179 16.8741,-37.692 37.6917,-37.692 z m 0,0"
     id="path56" />
  <path
     style="opacity:1;fill:#ffffff;fill-opacity:1;fill-rule:nonzero;stroke:none;stroke-width:1.83898"
     d="m 1918.8901,1503.5127 h -20.1855 l -20.2144,-33.7841 -20.1139,33.7841 h -20.2144 l 29.9264,-48.1511 -27.6635,-44.9616 h 20.2144 l 17.8223,30.9968 17.9515,-30.9968 h 20.2216 l -27.6637,44.9616 z m 0,0"
     id="path58" />
  <path
     style="opacity:1;fill:#ffffff;fill-opacity:1;fill-rule:nonzero;stroke:none;stroke-width:1.83898"
     d="m 1926.7347,1444.9815 c 8.1172,-6.2426 16.6297,-9.1734 27.3978,-9.1734 17.8223,0 27.0029,7.8444 27.0029,23.2745 v 26.6006 c 0,3.9939 2.1264,7.0542 5.8402,8.2466 l -5.0572,10.646 c -7.1836,0 -12.3701,-2.2628 -15.1644,-6.7884 -3.8935,4.3963 -10.9046,6.9177 -19.4171,6.9177 -14.4963,0 -22.8723,-7.3201 -22.8723,-19.2878 0,-12.7651 9.4391,-20.7602 25.3003,-21.809 l 14.6328,-0.934 v -2.7943 c 0,-6.1203 -4.2598,-9.5756 -11.9749,-9.5756 -6.1922,-0.029 -12.2047,2.0904 -17.0249,5.991 z m 24.3376,30.1993 c -6.7813,0.3952 -10.5094,3.5846 -10.5094,8.6418 0,5.1866 3.7281,8.1174 11.0339,8.1174 8.376,0 12.765,-4.1305 12.765,-12.643 v -4.9135 z m 0,0"
     id="path60" />
  <path
     style="opacity:1;fill:#ffffff;fill-opacity:1;fill-rule:nonzero;stroke:none;stroke-width:1.83898"
     d="m 2033.8048,1435.8081 c 17.413,0 27.2471,12.3699 27.2471,34.4448 0,22.0823 -9.7336,34.4522 -27.2471,34.4522 -7.715,0 -13.7061,-2.6579 -17.8223,-7.5786 v 30.3288 h -16.7591 v -90.4476 h 15.8181 v 7.6073 c 4.2598,-5.8689 10.5094,-8.8069 18.7633,-8.8069 z m -3.5989,14.9274 c -9.4391,0 -14.2234,6.4866 -14.2234,19.5463 0,13.0595 4.7843,19.5535 14.2234,19.5535 9.3099,0 14.1013,-6.4868 14.1013,-19.4171 0,-13.1961 -4.8129,-19.7116 -14.1013,-19.7116 z m 0,0"
     id="path62" />
  <path
     style="opacity:1;fill:#ffffff;fill-opacity:1;fill-rule:nonzero;stroke:none;stroke-width:1.83898"
     d="m 2092.9826,1476.9049 v 26.6006 h -16.7591 v -66.4978 h 16.7591 v 24.6035 h 6.2498 l 16.6297,-24.6035 h 19.6828 l -22.6136,32.1821 24.6035,34.3229 h -19.8122 l -18.4902,-26.6006 z m 0,0"
     id="path64" />
  <path
     style="opacity:1;fill:#ffffff;fill-opacity:1;fill-rule:nonzero;stroke:none;stroke-width:1.83898"
     d="m 2157.0883,1406.9448 c 5.4739,-0.037 9.9491,4.3676 9.9851,9.8413 0.035,5.481 -4.3675,9.9492 -9.8486,9.9851 -5.4739,0.037 -9.9419,-4.3748 -9.9779,-9.8487 -0.064,-2.6435 0.941,-5.2008 2.8016,-7.0828 1.8534,-1.8822 4.3963,-2.9238 7.0398,-2.8949 z m 8.376,96.5679 h -16.7591 v -66.505 h 16.7591 z m 0,0"
     id="path66" />
  <path
     style="opacity:1;fill:#ffffff;fill-opacity:1;fill-rule:nonzero;stroke:none;stroke-width:1.83898"
     d="m 2239.5478,1455.2323 c 0,6.2424 -2.6579,11.0267 -7.4491,14.2232 6.2495,3.0675 9.5755,8.2468 9.5755,15.3011 0,11.9677 -9.5755,18.7561 -26.464,18.7561 h -30.8605 v -66.505 h 29.79 c 16.2276,0 25.4081,6.6448 25.4081,18.2246 z m -24.8836,8.7782 c 5.05,0 7.9808,-2.5358 7.9808,-6.9177 0,-4.2598 -2.9308,-6.7884 -7.9808,-6.7884 h -13.5696 v 13.7061 z m 1.4655,26.2055 c 5.445,0 8.6417,-2.6723 8.6417,-7.3201 0,-4.5399 -3.1967,-7.0541 -8.6417,-7.0541 h -15.0351 v 14.3742 z m 0,0"
     id="path68" />
  <path
     style="opacity:1;fill:#ffffff;fill-opacity:1;fill-rule:nonzero;stroke:none;stroke-width:1.83898"
     d="m 1860.7828,1654.1078 h -14.7766 v -77.2084 h 14.7766 v 34.7396 l 29.5601,-34.7396 h 18.0954 l -26.1409,30.4366 29.1147,46.7646 H 1894.1 l -22.0606,-35.8457 -11.2494,12.7938 z m 0,0"
     id="path70" />
  <path
     style="opacity:1;fill:#ffffff;fill-opacity:1;fill-rule:nonzero;stroke:none;stroke-width:1.83898"
     d="m 1933.796,1654.1078 h -13.893 v -77.2084 h 13.893 v 27.7859 c 3.9725,-4.4107 9.2668,-6.7237 15.8827,-6.7237 12.0253,0 18.8639,7.6073 18.8639,20.9542 v 35.1848 h -14.0077 v -33.8559 c 0,-6.3932 -3.6421,-9.9276 -10.0355,-9.9276 -6.7309,0 -10.7034,3.8648 -10.7034,10.7034 z m 0,0"
     id="path72" />
  <path
     style="opacity:1;fill:#ffffff;fill-opacity:1;fill-rule:nonzero;stroke:none;stroke-width:1.83898"
     d="m 1981.667,1605.5761 c 6.7237,-5.1865 13.7852,-7.6074 22.707,-7.6074 14.7766,0 22.391,6.4867 22.391,19.3022 v 22.0604 c 0,3.3044 1.7599,5.833 4.8489,6.8316 l -4.1879,8.8285 c -5.9552,0 -10.2581,-1.875 -12.5785,-5.6247 -3.1965,3.6348 -9.0439,5.7325 -16.0982,5.7325 -12.0251,0 -18.9717,-6.0629 -18.9717,-15.9905 0,-10.5886 7.83,-17.2045 20.9545,-18.0882 l 12.1328,-0.7758 v -2.3131 c 0,-5.0715 -3.5271,-7.9449 -9.9275,-7.9449 -5.1363,-0.022 -10.1216,1.7312 -14.1157,4.9637 z m 20.1784,25.0417 c -5.6247,0.3305 -8.7065,2.974 -8.7065,7.1332 0,4.3029 3.0818,6.7309 9.1519,6.7309 6.9466,0 10.5885,-3.4192 10.5885,-10.4807 v -4.0802 z m 0,0"
     id="path74" />
  <path
     style="opacity:1;fill:#ffffff;fill-opacity:1;fill-rule:nonzero;stroke:none;stroke-width:1.83898"
     d="m 2041.7715,1598.96 h 13.1314 v 7.7222 c 3.9652,-5.7323 9.2594,-8.7135 16.4287,-8.7135 2.6435,-0.018 5.2655,0.4741 7.7222,1.4295 l -5.5169,12.686 c -1.7097,-0.9769 -3.6493,-1.4725 -5.6247,-1.4366 -7.83,0 -12.2406,5.8402 -12.2406,16.1054 v 27.3548 h -13.9001 z m 0,0"
     id="path76" />
  <path
     style="opacity:1;fill:#ffffff;fill-opacity:1;fill-rule:nonzero;stroke:none;stroke-width:1.83898"
     d="m 2102.4217,1654.1078 h -13.8857 v -77.2084 h 13.8857 v 43.999 l 19.1944,-21.9456 h 17.1398 l -20.1855,22.6137 21.7301,32.5341 h -16.2204 l -15.2219,-22.7071 -6.3932,7.277 z m 0,0"
     id="path78" />
  <path
     style="opacity:1;fill:#ffffff;fill-opacity:1;fill-rule:nonzero;stroke:none;stroke-width:1.83898"
     d="m 2156.4778,1574.0403 c 4.5399,-0.029 8.2394,3.6206 8.2682,8.1605 0.029,4.5329 -3.6277,8.2395 -8.1604,8.2682 -4.5401,0.029 -8.2396,-3.6275 -8.2683,-8.1676 -0.057,-2.191 0.7829,-4.31 2.3203,-5.8689 1.5443,-1.5588 3.6492,-2.4209 5.8402,-2.3922 z m 6.932,80.0675 h -13.9001 V 1598.96 h 13.9001 z m 0,0"
     id="path80" />
  <path
     style="opacity:1;fill:#ffffff;fill-opacity:1;fill-rule:nonzero;stroke:none;stroke-width:1.83898"
     d="m 2207.1071,1654.1078 h -14.3383 l -20.2934,-55.1478 h 14.9202 l 12.6789,37.7205 12.5782,-37.7205 h 14.9202 z m 0,0"
     id="path82" />
  <path
     style="opacity:1;fill:#e30013;fill-opacity:1;fill-rule:nonzero;stroke:#ffffff;stroke-width:7.78552;stroke-linecap:butt;stroke-linejoin:miter;stroke-miterlimit:10;stroke-opacity:1"
     d="m 1455.3522,1378.4697 h 297.5769 c 11.781,0 21.3279,9.5468 21.3279,21.3277 v 104.2184 c 0,11.7739 -9.5469,21.3208 -21.3279,21.3208 h -297.5769 c -11.7737,0 -21.3207,-9.5469 -21.3207,-21.3208 v -104.2184 c 0,-11.7809 9.547,-21.3277 21.3207,-21.3277 z m 0,0"
     id="path84" />
  <path
     style="opacity:1;fill:#ffffff;fill-opacity:1;fill-rule:nonzero;stroke:none;stroke-width:1.83898"
     d="m 1518.0789,1470.8276 -18.6914,-30.6232 v 48.266 h -13.8067 v -72.6612 h 14.1227 l 20.8681,35.2926 20.8609,-35.2926 h 14.1228 v 72.6612 h -13.8067 v -48.266 l -18.6842,30.6232 z m 0,0"
     id="path86" />
  <path
     style="opacity:1;fill:#ffffff;fill-opacity:1;fill-rule:nonzero;stroke:none;stroke-width:1.83898"
     d="m 1598.836,1465.3252 h -28.5472 v -12.0396 h 28.5472 z m 0,0"
     id="path88" />
  <path
     style="opacity:1;fill:#ffffff;fill-opacity:1;fill-rule:nonzero;stroke:none;stroke-width:1.83898"
     d="m 1635.6802,1414.5593 c 17.025,0 25.2285,12.3268 25.2285,37.4763 0,25.0203 -8.2035,37.3758 -25.2285,37.3758 -17.0178,0 -25.2213,-12.334 -25.2213,-37.3758 0,-25.1208 8.2035,-37.4763 25.2213,-37.4763 z m -12.061,37.4763 c 0,16.5078 4.2598,25.7457 12.0466,25.7457 7.787,0 12.0396,-9.2379 12.0396,-25.7457 0,-16.6083 -4.2526,-25.8463 -12.0396,-25.8463 -7.7868,0 -12.0466,9.238 -12.0466,25.8463 z m 0,0"
     id="path90" />
  <path
     style="opacity:1;fill:#ffffff;fill-opacity:1;fill-rule:nonzero;stroke:none;stroke-width:1.83898"
     d="m 1684.679,1435.2191 -12.6645,-1.6595 c 1.7671,-10.8974 11.9389,-18.6842 25.0201,-18.6842 13.6989,0 23.5619,8.3041 23.5619,20.1138 0,6.9536 -3.4266,12.5567 -9.4463,15.466 6.8532,2.8017 10.8974,8.9292 10.8974,16.9171 0,12.9807 -10.3801,22.0104 -25.1208,22.0104 -13.9073,0 -24.6035,-8.0959 -26.2628,-19.5176 l 12.7722,-2.076 c 1.5516,6.1274 6.7454,9.9635 13.699,9.9635 7.0615,0 11.7306,-3.9438 11.7306,-10.4808 0,-6.4365 -4.5399,-10.7967 -11.8312,-10.7967 h -4.2598 v -10.7968 h 4.2598 c 6.3286,0 10.3803,-3.8433 10.3803,-9.7337 0,-5.8403 -4.1523,-9.4463 -10.5887,-9.4463 -6.2281,0 -11.005,3.326 -12.1472,8.7208 z m 0,0"
     id="path92" />
  <path
     style="opacity:1;fill:#04ae67;fill-opacity:1;fill-rule:nonzero;stroke:#ffffff;stroke-width:7.78552;stroke-linecap:butt;stroke-linejoin:miter;stroke-miterlimit:10;stroke-opacity:1"
     d="m 1455.3522,1536.0185 h 297.5769 c 11.781,0 21.3279,9.5469 21.3279,21.3279 v 104.2185 c 0,11.7737 -9.5469,21.3277 -21.3279,21.3277 h -297.5769 c -11.7737,0 -21.3207,-9.554 -21.3207,-21.3277 v -104.2185 c 0,-11.781 9.547,-21.3279 21.3207,-21.3279 z m 0,0"
     id="path94" />
  <path
     style="opacity:1;fill:#ffffff;fill-opacity:1;fill-rule:nonzero;stroke:none;stroke-width:1.83898"
     d="m 1556.3815,1645.6312 h -49.7243 V 1572.97 h 49.207 v 12.3269 h -35.2997 v 17.3338 h 29.4882 v 12.3269 h -29.4882 v 18.2749 h 35.817 z m 0,0"
     id="path96" />
  <path
     style="opacity:1;fill:#ffffff;fill-opacity:1;fill-rule:nonzero;stroke:none;stroke-width:1.83898"
     d="m 1619.8046,1628.6063 h -33.0944 v -11.2133 l 30.1061,-44.4301 h 16.2203 v 44.4301 h 9.3387 v 11.2133 h -9.3387 v 17.0249 h -13.1816 z m -20.6596,-11.2133 h 20.6596 v -30.3145 z m 0,0"
     id="path98" />
  <path
     style="opacity:1;fill:#ffffff;fill-opacity:1;fill-rule:nonzero;stroke:none;stroke-width:1.83898"
     d="m 1675.8576,1571.7129 c 17.0249,0 25.2213,12.3269 25.2213,37.4836 0,25.0202 -8.1964,37.3686 -25.2213,37.3686 -17.0249,0 -25.2284,-12.3269 -25.2284,-37.3686 0,-25.1279 8.2035,-37.4836 25.2284,-37.4836 z m -12.0107,37.4836 c 0,16.5077 4.2526,25.7457 12.0394,25.7457 7.787,0 12.0468,-9.238 12.0468,-25.7457 0,-16.6154 -4.2598,-25.8535 -12.0468,-25.8535 -7.7868,0 -12.0394,9.2381 -12.0394,25.8535 z m 0,0"
     id="path100" />
  <path
     style="opacity:1;fill:#04ae67;fill-opacity:1;fill-rule:nonzero;stroke:#04ae67;stroke-width:7.786;stroke-linecap:butt;stroke-linejoin:miter;stroke-miterlimit:10;stroke-dasharray:none;stroke-opacity:1"
     d="m 1406.1307,849.6324 h 1170.4452 c 20.8178,0 37.6919,16.8741 37.6919,37.692 v 354.9734 c 0,20.8178 -16.8741,37.6919 -37.6919,37.6919 H 1406.1307 c -20.8176,0 -37.6917,-16.8741 -37.6917,-37.6919 V 887.3244 c 0,-20.8179 16.8741,-37.692 37.6917,-37.692 z"
     id="path12637"
     sodipodi:nodetypes="sssssssss" />
  <g
     id="g12791"
     transform="matrix(0.88302661,0,0,0.88302661,1374.7548,882.01003)"
     style="opacity:1">
    <path
       class="cls-1"
       d="m 506,71.19284 h 65.4695 v 15.33484 h -48.21707 v 24.32963 h 21.82263 c 21.23321,0 34.9465,12.53393 34.9465,31.99731 0,19.16949 -13.71329,31.55513 -35.09372,31.55513 H 506 Z m 17.25243,55.14706 v 32.58726 h 19.31616 c 13.12334,0 20.05333,-5.60288 20.05333,-16.21975 0,-10.61687 -6.93,-16.36751 -19.90611,-16.36751 z"
       id="path12773"
       style="fill:#ffffff" />
    <path
       class="cls-1"
       d="m 625.13792,175.58964 c -21.67541,0 -33.76661,-13.71383 -33.76661,-38.04292 0,-24.33017 12.0912,-38.04292 33.76661,-38.04292 21.5282,0 33.91384,13.71275 33.91384,38.04292 0,24.32909 -12.38564,38.04292 -33.91384,38.04292 z m 0,-14.451 c 11.35405,0 17.54687,-7.96266 17.54687,-23.59193 0,-15.63034 -6.19282,-23.59246 -17.54687,-23.59246 -11.50126,0 -17.39964,7.96212 -17.39964,23.59246 0,15.48206 5.89838,23.59194 17.39964,23.59194 z"
       id="path12775"
       style="fill:#ffffff" />
    <path
       class="cls-1"
       d="m 714.19612,99.5038 c 19.3167,0 30.37524,13.71275 30.37524,38.04292 0,24.32909 -11.05854,38.04292 -30.52245,38.04292 -9.14255,0 -16.21976,-3.39138 -20.791,-9.87971 v 35.24094 h -16.367 V 100.68316 h 15.33429 v 9.87971 c 4.7185,-7.22549 12.09121,-11.05907 21.97092,-11.05907 z m -3.39138,14.45046 c -11.50126,0 -17.54686,7.96212 -17.54686,23.59246 0,15.62927 6.0456,23.59193 17.54686,23.59193 11.354,0 17.39965,-7.96266 17.39965,-23.44471 0,-15.62981 -6.04561,-23.73968 -17.39965,-23.73968 z"
       id="path12777"
       style="fill:#ffffff" />
    <path
       class="cls-1"
       d="m 812.39688,100.68316 h 15.33537 v 73.72659 H 811.3642 v -47.47991 l -33.6194,47.47991 h -15.33429 v -73.72659 h 16.367 v 47.4799 z"
       id="path12779"
       style="fill:#ffffff" />
    <path
       class="cls-1"
       d="m 862.08344,137.54672 c 0,15.18762 6.63555,23.74022 18.13681,23.74022 6.93105,0 11.79677,-3.09695 15.6298,-9.58528 l 12.09121,8.69983 c -6.48726,10.17415 -15.62981,15.18815 -28.45818,15.18815 -21.67541,0 -33.76661,-13.861 -33.76661,-38.04292 0,-24.18241 12.23842,-38.04292 33.76661,-38.04292 12.82837,0 21.97092,4.86571 28.45818,15.03986 l -12.09121,8.84758 c -3.68582,-6.34057 -8.69875,-9.437 -15.6298,-9.437 -11.50125,2e-5 -18.13681,8.40487 -18.13681,23.59248 z"
       id="path12781"
       style="fill:#ffffff" />
    <path
       class="cls-1"
       d="m 924.161,174.40975 v -73.72659 h 63.69912 v 73.72659 h -16.367 V 114.69142 H 940.528 v 59.71833 z"
       id="path12783"
       style="fill:#ffffff" />
    <path
       class="cls-1"
       d="m 1018.3815,68.39087 a 9.87945,9.87945 0 1 1 -9.8797,9.87971 9.7329,9.7329 0 0 1 9.8797,-9.87971 z m 8.2571,106.01888 h -16.367 v -73.72659 h 16.367 z"
       id="path12785"
       style="fill:#ffffff" />
    <path
       class="cls-1"
       d="m 1040.6426,162.02411 c 12.6811,-3.53968 15.3353,-12.82837 17.3996,-61.341 h 52.0507 v 73.72659 h -16.367 v -59.86604 h -21.0855 c -1.7698,43.79355 -7.9627,56.62192 -28.4593,61.63593 z"
       id="path12787"
       style="fill:#ffffff" />
    <path
       class="cls-1"
       d="m 1191.6322,150.9645 c 0,14.89264 -10.3224,23.44525 -28.311,23.44525 h -30.9652 v -73.72659 h 16.367 V 127.667 h 14.5982 c 17.9886,0 28.311,8.40486 28.311,23.2975 z m -28.311,9.87971 c 7.8144,0 11.9429,-3.39138 11.9429,-9.87971 0,-6.34 -4.1285,-9.87918 -11.9429,-9.87918 h -14.5982 v 19.75889 z"
       id="path12789"
       style="fill:#ffffff" />
  </g>
  <g
     id="g12809"
     transform="matrix(0.99129801,0,0,0.99129801,1319.9695,898.07105)"
     style="opacity:1">
    <path
       class="cls-1"
       d="m 506,290.56525 v -77.94907 h 30.957 c 15.03289,0 24.60955,7.9061 24.60955,20.26631 0,7.9061 -4.12043,14.36446 -10.913,16.92626 8.68594,3.22918 13.36287,9.57666 13.36287,18.48488 0,13.58621 -10.356,22.27162 -26.61433,22.27162 z m 29.8435,-66.36817 h -16.81485 v 21.15756 h 16.81485 c 8.01751,0 12.69443,-3.89761 12.69443,-10.57878 0,-6.68117 -4.67693,-10.57878 -12.69443,-10.57878 z m 1.44721,32.07 h -18.26206 v 22.6053 h 18.26206 c 8.686,0 13.58568,-4.11936 13.58568,-11.35809 0,-7.23763 -4.89973,-11.24718 -13.58568,-11.24718 z"
       id="path12793"
       style="fill:#ffffff" />
    <path
       class="cls-1"
       d="m 600.64825,291.4565 c -16.25782,0 -25.50026,-10.357 -25.50026,-28.731 0,-18.37294 9.24244,-28.72891 25.50026,-28.72891 16.36923,0 25.61221,10.356 25.61221,28.72891 0,18.37397 -9.24298,28.731 -25.61221,28.731 z m 0,-10.91353 c 8.686,0 13.25146,-6.01273 13.25146,-17.81751 0,-11.80371 -4.56551,-17.81644 -13.25146,-17.81644 -8.57453,0 -13.14,6.01273 -13.14,17.81644 -5e-5,11.69284 4.56547,17.81754 13.14,17.81754 z"
       id="path12795"
       style="fill:#ffffff" />
    <path
       class="cls-1"
       d="m 639.72993,234.88674 h 11.5809 v 8.35172 c 3.89762,-6.12467 9.46525,-9.24191 16.92626,-9.24191 a 20.3856,20.3856 0 0 1 8.12892,1.44668 l -4.89974,11.35916 a 11.62237,11.62237 0 0 0 -6.12467,-1.55969 c -8.46313,0 -13.25146,6.23661 -13.25146,17.261 v 28.06153 h -12.36021 z"
       id="path12797"
       style="fill:#ffffff" />
    <path
       class="cls-1"
       d="m 693.62329,311.5 a 21.00879,21.00879 0 0 1 -8.79682,-1.67056 l 1.22493,-10.46684 a 11.839,11.839 0 0 0 5.45624,1.22494 c 4.67692,0 7.461,-2.67268 9.91087,-10.02229 l -21.38037,-55.67851 h 13.14 l 14.03086,38.97506 14.14218,-38.97506 h 13.14 l -22.93952,59.90981 C 706.76334,307.2687 702.30923,311.5 693.62329,311.5 Z"
       id="path12799"
       style="fill:#ffffff" />
    <path
       class="cls-1"
       d="m 762.32832,291.4565 c -10.02228,0 -18.03979,-3.00743 -23.38515,-8.79735 l 7.01538,-7.46154 c 3.5634,3.78674 9.68807,6.12467 16.70345,6.12467 7.34961,0 11.69231,-2.67161 11.69231,-6.904 0,-3.78567 -3.67427,-5.45623 -12.026,-6.45835 -15.25624,-1.78143 -21.71459,-6.904 -21.71459,-16.92626 0,-11.02441 7.68329,-17.03714 21.82546,-17.03714 8.90876,0 16.14695,2.33793 21.15809,7.01486 l -7.461,7.23872 c -3.22917,-2.5618 -8.46313,-4.12042 -14.03076,-4.12042 -6.34749,0 -10.2451,2.22705 -10.2451,6.01273 0,3.56393 3.34112,5.45623 11.91512,6.45942 15.36711,1.8923 21.826,6.56923 21.826,16.70345 0,11.58092 -8.35173,18.15121 -23.27321,18.15121 z"
       id="path12801"
       style="fill:#ffffff" />
    <path
       class="cls-1"
       d="m 825.35217,233.99655 c 14.4764,0 22.82812,10.356 22.82812,28.72891 0,18.374 -8.24032,28.731 -22.82812,28.731 -7.01538,0 -12.2488,-2.56181 -15.70132,-7.46154 v 26.61486 h -12.36021 v -75.72304 h 11.5809 v 7.46154 c 3.56339,-5.45728 9.02016,-8.35173 16.48063,-8.35173 z M 822.7909,244.909 c -8.574,0 -13.14,6.01273 -13.14,17.81644 0,11.80478 4.56605,17.81751 13.14,17.81751 8.57454,0 13.02865,-6.01273 13.02865,-17.70557 0,-11.80369 -4.45411,-17.92838 -13.02865,-17.92838 z"
       id="path12803"
       style="fill:#ffffff" />
    <path
       class="cls-1"
       d="m 867.88637,210.5 a 7.461,7.461 0 1 1 -7.461,7.46048 7.34944,7.34944 0 0 1 7.461,-7.46048 z m 6.23554,80.06525 H 861.7617 v -55.67851 h 12.36021 z"
       id="path12805"
       style="fill:#ffffff" />
    <path
       class="cls-1"
       d="m 912.53729,280.4321 0.55649,9.91034 a 34.3635,34.3635 0 0 1 -6.904,0.77931 c -9.68807,0 -15.1443,-4.89973 -15.1443,-13.808 v -64.69757 h 12.36021 v 62.69337 c 0,3.78567 1.782,5.56817 5.56817,5.56817 a 14.18094,14.18094 0 0 0 3.56343,-0.44562 z"
       id="path12807"
       style="fill:#ffffff" />
  </g>
  <path
     id="rect12813"
     style="opacity:1;fill:#ffffff;stroke-width:8;paint-order:stroke fill markers"
     class="cls-1"
     d="m 1442.5554,902.08893 h 295.4442 c 8.31,0 15,6.69 15,15 v 295.44417 c 0,8.31 -6.69,15 -15,15 h -295.4442 c -8.31,0 -15,-6.69 -15,-15 V 917.08893 c 0,-8.31 6.69,-15 15,-15 z" />
  <path
     d="m 1465.5239,1025.4865 v 13.5602 l 19.0743,24.4083 -19.0743,27.1204 v 13.5602 h 21.7992 l 32.6988,-25.7644 h 29.9739 l -70.8474,108.4814 h 29.9322 a 27.305226,27.305226 0 0 0 20.4401,-9.1858 l 83.1478,-93.8715 h 64.0352 c 26.5765,0 38.5023,-14.9162 38.3254,-20.3403 -0.1768,-5.4241 -13.8013,-20.3403 -38.3254,-20.3403 h -65.3976 l -83.1379,-96.45134 a 27.30426,27.30426 0 0 0 -20.5565,-9.31797 h -21.5326 l 63.9167,111.19341 h -29.9739 l -31.3364,-23.0523 z"
     id="path12815"
     style="opacity:1;stroke-width:8;stroke-dasharray:none;paint-order:stroke fill markers" />
  <g
     id="rect13073"
     class="cls-1">
    <path
       style="color:#000000;fill:#000000;-inkscape-stroke:none;paint-order:stroke fill markers"
       d="m 1450.502,486.27148 c -10.9935,0 -20,9.0065 -20,20 v 275.45508 c 0,10.99351 9.0065,20 20,20 h 275.455 c 10.9935,0 20,-9.00649 20,-20 V 506.27148 c 0,-10.9935 -9.0065,-20 -20,-20 z m 0,10 h 275.455 c 5.6265,0 10,4.37352 10,10 v 275.45508 c 0,5.62648 -4.3735,10 -10,10 h -275.455 c -5.6265,0 -10,-4.37352 -10,-10 V 506.27148 c 0,-5.62648 4.3735,-10 10,-10 z"
       id="path14609" />
    <path
       style="color:#000000;fill:#ffffff;stroke-width:10;-inkscape-stroke:none;paint-order:stroke fill markers"
       d="m 1450.5024,491.27112 h 275.4553 c 8.31,0 15,6.69 15,15 v 275.45523 c 0,8.31 -6.69,15 -15,15 h -275.4553 c -8.31,0 -15,-6.69 -15,-15 V 506.27112 c 0,-8.31 6.69,-15 15,-15 z"
       id="path14611" />
  </g>
  <g
     aria-label="
Дарниця"
     id="text13547"
     style="font-weight:bold;font-size:133.017px;line-height:0.9;font-family:'IndorSoft RoadSign Letters';-inkscape-font-specification:'IndorSoft RoadSign Letters Bold';opacity:1;fill-rule:evenodd;stroke-width:0.532068;stroke-linecap:round;stroke-linejoin:round;paint-order:stroke fill markers">
    <path
       d="m 1821.5662,714.53571 h 12.1046 l 2.6603,-19.95255 h 61.1878 l 2.6604,19.95255 h 12.1045 v -33.52029 h -11.7055 v -79.54416 h -57.5963 c -2.1283,52.27568 -4.2566,70.49901 -12.1046,79.54416 h -9.3112 z m 25.5393,-33.52029 c 5.4537,-11.17343 7.582,-30.46089 9.4442,-65.7104 h 28.4656 v 65.7104 z"
       style="font-weight:500;font-family:'Road UA';-inkscape-font-specification:'Road UA Medium'"
       id="path16012" />
    <path
       d="m 1931.172,646.03195 c 5.3207,-4.25654 11.4395,-6.38481 17.8243,-6.38481 8.5131,0 13.0357,3.85749 13.0357,10.64136 v 3.99051 l -15.696,0.7981 c -15.696,1.06413 -25.0072,9.04515 -25.0072,21.54875 0,11.97153 8.247,19.02143 23.0119,19.02143 8.7791,0 16.0951,-2.66034 19.8195,-7.0499 2.5274,4.52258 7.449,7.0499 14.3659,7.0499 l 4.5226,-9.57722 c -3.9906,-0.93112 -6.2518,-4.25655 -6.2518,-8.91214 v -27.53452 c 0,-14.8979 -9.0452,-22.61289 -26.2044,-22.61289 -10.6414,0 -19.2875,2.92637 -27.0024,9.17817 z m 30.86,18.62238 v 7.18292 c 0,8.24705 -5.0547,12.5036 -14.0998,12.5036 -8.2471,0 -12.5036,-3.19241 -12.5036,-9.04516 0,-5.85275 4.3895,-9.44421 12.1045,-9.84326 z"
       style="font-weight:500;font-family:'Road UA';-inkscape-font-specification:'Road UA Medium'"
       id="path16014" />
    <path
       d="m 2009.785,636.9868 v -8.91214 h -13.8338 v 90.45156 h 14.7649 v -31.79107 c 4.1235,5.85275 10.5083,8.91214 18.7554,8.91214 17.5582,0 27.5345,-12.37058 27.5345,-34.31838 0,-21.94781 -9.9763,-34.31839 -27.4015,-34.31839 -8.9121,0 -15.563,3.45844 -19.8195,9.97628 z m 32.4561,24.47512 c 0,13.96679 -5.4537,21.14971 -15.696,21.14971 -10.3753,0 -15.829,-7.18292 -15.829,-21.28272 0,-14.09981 5.4537,-21.28272 15.829,-21.28272 10.2423,0 15.696,7.31593 15.696,21.41573 z"
       style="font-weight:500;font-family:'Road UA';-inkscape-font-specification:'Road UA Medium'"
       id="path16016" />
    <path
       d="m 2087.866,667.18165 h 28.5986 v 27.40151 h 14.7649 v -66.5085 h -14.7649 v 26.47038 h -28.5986 v -26.47038 h -14.7649 v 66.5085 h 14.7649 z"
       style="font-weight:500;font-family:'Road UA';-inkscape-font-specification:'Road UA Medium'"
       id="path16018" />
    <path
       d="m 2166.213,670.90613 v -42.83147 h -14.7648 v 66.5085 h 13.8337 l 30.3279,-42.83148 v 42.83148 h 14.7649 v -66.5085 h -13.8338 z"
       style="font-weight:500;font-family:'Road UA';-inkscape-font-specification:'Road UA Medium'"
       id="path16020" />
    <path
       d="m 2297.3677,713.20554 v -31.259 h -9.9763 v -53.87188 h -14.7648 v 53.87188 h -27.2685 v -53.87188 h -14.7649 v 66.5085 h 52.8077 l 2.6604,18.62238 z"
       style="font-weight:500;font-family:'Road UA';-inkscape-font-specification:'Road UA Medium'"
       id="path16022" />
    <path
       d="m 2306.1469,694.58316 h 15.962 l 14.2329,-24.74117 h 12.3705 v 24.74117 h 14.7649 v -66.5085 h -29.9288 c -16.2281,0 -25.4062,7.58197 -25.4062,20.75065 0,9.84326 4.9216,16.49411 13.8337,19.42048 z m 42.5654,-36.04761 h -15.1639 c -6.9169,0 -10.6414,-3.32543 -10.6414,-9.17817 0,-5.85275 3.7245,-9.17818 10.6414,-9.17818 h 15.1639 z"
       style="font-weight:500;font-family:'Road UA';-inkscape-font-specification:'Road UA Medium'"
       id="path16024" />
  </g>
  <g
     id="g15983"
     style="fill:#000000"
     transform="matrix(0.67256462,0,0,0.67256462,-667.9624,-775.60092)">
    <path
       d="m 3146.6093,1932.3379 c 0,-6.5 6.37,-12.628 13.12,-12.628 h 390.88 c 4.4,0 8,3.6 8,8 v 54.5 c 0,4.4 -3.58,7.618 -7.955,7.15 l -392.515,-42.801 c -5.03,-0.474 -11.53,-4.471 -11.53,-14.221 z"
       id="path15406"
       style="fill:#000000" />
    <path
       id="circle15408"
       d="m 3200.8593,1973.4599 a 56.25,56.25 0 0 0 -56.25,56.25 56.25,56.25 0 0 0 56.25,56.25 56.25,56.25 0 0 0 56.25,-56.25 56.25,56.25 0 0 0 -56.25,-56.25 z m 0,13.75 a 42.5,42.5 0 0 1 42.5,42.5 42.5,42.5 0 0 1 -42.5,42.5 42.5,42.5 0 0 1 -42.5,-42.5 42.5,42.5 0 0 1 42.5,-42.5 z m 0,7.668 a 4,4 0 0 0 -4,4 v 27.3984 l -15.0019,-13.0058 a 3.5,3.5 0 0 0 -2.5411,-0.8458 3.5,3.5 0 0 0 -2.3964,1.1993 3.5,3.5 0 0 0 0.3515,4.9355 l 21.2949,18.4629 a 3.5,3.5 0 0 0 4.9375,-0.3535 3.5,3.5 0 0 0 0.1446,-0.1836 4,4 0 0 0 1.2109,-2.8574 v -34.75 a 4,4 0 0 0 -4,-4 z"
       style="fill:#000000" />
    <path
       id="path15412"
       d="m 3426.6093,2025.0419 -78.668,42.9571 68.4532,43.289 h -118.2852 c 0,0 -9.75,-1.3281 -19.75,5.6719 -10,7 -39.1142,27.1449 -84.7012,98.7988 -1.744,2.74 -4.7988,7.9512 0.4512,15.9512 4.85,7.39 14.75,21.75 45,40.5 l -8.5,11 h 125.25 l 9.375,-14.166 h 16.7266 c 0.32,14.299 10.9249,26.061 24.7109,28.166 h -261.0625 v 11.5 h 411.5 v -11.5 h -56.1152 c 13.785,-2.105 24.3899,-13.867 24.7109,-28.166 h 33.2363 V 2111.288 h -116.2519 l -68.6426,-43.0781 76.2305,-43.168 z m -137.3867,96.2051 c 5.702,-0.116 8.0306,1.5124 10.4746,5.8184 2.444,4.3059 8.1458,15.3631 3.8398,25.9531 -4.3059,10.59 -20.802,30.0234 -34.957,30.0234 h -30.0957 c 0,0 -3.6075,0.1166 -5.3535,-3.6074 -1.746,-3.724 0.9316,-5.9355 0.9316,-5.9355 0,0 22.8096,-30.7231 47.4805,-50.041 0,0 1.9777,-2.095 7.6797,-2.211 z m 139.9004,17.1953 a 19.017,19.017 0 0 1 19.0176,19.0176 19.017,19.017 0 0 1 -19.0176,19.0176 19.017,19.017 0 0 1 -19.0176,-19.0176 19.017,19.017 0 0 1 19.0176,-19.0176 z m 44.9531,0 a 19.017,19.017 0 0 1 19.0156,19.0176 19.017,19.017 0 0 1 -19.0156,19.0176 19.017,19.017 0 0 1 -19.0176,-19.0176 19.017,19.017 0 0 1 19.0176,-19.0176 z m 45.2754,0 a 19.017,19.017 0 0 1 19.0176,19.0176 19.017,19.017 0 0 1 -19.0176,19.0176 19.017,19.017 0 0 1 -19.0176,-19.0176 19.017,19.017 0 0 1 19.0176,-19.0176 z m -79.0938,130.6016 h 27.1504 c 0.32,14.299 10.9993,26.06 24.6993,28.166 h -76.5606 c 13.785,-2.105 24.3909,-13.867 24.7109,-28.166 z"
       style="fill:#000000" />
  </g>
  <metadata
     id="metadata16112">
    <rdf:RDF>
      <cc:Work
         rdf:about="">
        <dc:title>5.57 Попередній покажчик напрямків</dc:title>
      </cc:Work>
    </rdf:RDF>
  </metadata>
</svg>
