<?xml version="1.0" encoding="UTF-8" standalone="no"?>
<svg
   id="Слой_1"
   data-name="Слой 1"
   width="1372.0133"
   height="872.94415"
   viewBox="0 0 1372.0133 872.94415"
   version="1.1"
   sodipodi:docname="UA_road_sign_5.60.2.svg"
   xml:space="preserve"
   inkscape:version="1.2.2 (732a01da63, 2022-12-09)"
   xmlns:inkscape="http://www.inkscape.org/namespaces/inkscape"
   xmlns:sodipodi="http://sodipodi.sourceforge.net/DTD/sodipodi-0.dtd"
   xmlns="http://www.w3.org/2000/svg"
   xmlns:svg="http://www.w3.org/2000/svg"
   xmlns:rdf="http://www.w3.org/1999/02/22-rdf-syntax-ns#"
   xmlns:cc="http://creativecommons.org/ns#"
   xmlns:dc="http://purl.org/dc/elements/1.1/"><title
     id="title7652">5.60 Покажчик напрямків</title><sodipodi:namedview
     id="namedview3140"
     pagecolor="#ffffff"
     bordercolor="#000000"
     borderopacity="0.25"
     inkscape:showpageshadow="2"
     inkscape:pageopacity="0.0"
     inkscape:pagecheckerboard="0"
     inkscape:deskcolor="#d1d1d1"
     showgrid="false"
     showguides="false"
     inkscape:zoom="0.32778419"
     inkscape:cx="877.10148"
     inkscape:cy="938.11723"
     inkscape:window-width="1920"
     inkscape:window-height="991"
     inkscape:window-x="-9"
     inkscape:window-y="-9"
     inkscape:window-maximized="1"
     inkscape:current-layer="Слой_1" /><defs
     id="defs2957"><style
       id="style2955">
      .cls-1, .cls-3 {
        fill: #fff;
      }

      .cls-1 {
        stroke: #000;
      }

      .cls-1, .cls-4, .cls-5, .cls-6, .cls-7, .cls-8 {
        stroke-miterlimit: 10;
      }

      .cls-1, .cls-8 {
        stroke-width: 2px;
      }

      .cls-2, .cls-6 {
        fill: #005999;
      }

      .cls-4 {
        fill: #e30013;
      }

      .cls-4, .cls-5, .cls-6 {
        stroke: #fff;
        stroke-width: 5px;
      }

      .cls-5 {
        fill: #04ae67;
      }

      .cls-7, .cls-8 {
        fill: none;
        stroke: #181716;
      }

      .cls-7 {
        stroke-width: 3px;
      }

      .cls-8 {
        stroke-linecap: round;
      }

      .cls-9 {
        fill: #181716;
      }
    </style></defs><path
     id="rect2959"
     style="fill:#ffffff;stroke:#000000;stroke-width:2;stroke-miterlimit:10"
     class="cls-1"
     d="m 36.05,1.05 h 1299.9133 c 19.39,0 35,15.61 35,35 v 800.84418 c 0,19.39 -15.61,35 -35,35 H 36.05 c -19.39,0 -35,-15.61 -35,-35 V 36.05 c 0,-19.39 15.61,-35 35,-35 z" /><path
     id="path2961"
     class="cls-2"
     d="m 41.006694,16.006694 a 24.99631,24.99631 0 0 0 -25,25 v 217.958976 28.04102 285 H 1356.0067 v -285 -28.04102 -217.958976 a 24.99627,24.99627 0 0 0 -25,-25 z" /><path
     id="rect3863"
     style="fill:#ffffff;fill-rule:evenodd;stroke-width:0.278086;stroke-linecap:round;stroke-linejoin:round;paint-order:stroke fill markers"
     d="m 297.97818,191.5067 h 190.057 c 6.90921,0 12.4715,5.56229 12.4715,12.4715 v 180.057 c 0,6.90921 -5.56229,12.4715 -12.4715,12.4715 h -190.057 c -6.90921,0 -12.4715,-5.56229 -12.4715,-12.4715 v -180.057 c 0,-6.90921 5.56229,-12.4715 12.4715,-12.4715 z" /><path
     id="polygon3137"
     class="cls-3"
     transform="translate(0.00669444,143.00669)"
     style="fill:#ffffff"
     d="M 86,119.404 142,66 l 54,56 v 37 L 159,126 V 236 H 125 V 126 l -39,33 z" /><path
     class="cls-2"
     d="m 1356.0067,832.00669 v -250 H 16.006694 v 250 c -0.002,13.80796 11.192037,25.00204 25,25 H 1331.0067 c 13.808,0.002 25.0021,-11.19203 25,-25 z"
     id="path3440"
     style="fill:#005999;fill-opacity:1"
     sodipodi:nodetypes="ccccccc" /><g
     aria-label="49"
     id="text4962"
     style="font-weight:bold;font-size:103.141px;line-height:1.5;font-family:'Road UA';-inkscape-font-specification:'Road UA Bold';opacity:1;fill:#ffffff;fill-rule:evenodd;stroke-width:0.206279;stroke-linecap:round;stroke-linejoin:round;paint-order:stroke fill markers"><path
       d="m 1223.456,748.00916 h 11.4487 v -17.32769 h 9.5921 v -9.69526 h -9.5921 v -45.17575 h -14.0272 l -30.9423,45.17575 v 9.69526 h 33.5208 z m 0,-59.71864 v 32.69569 h -22.5879 z"
       style="font-weight:500;-inkscape-font-specification:'Road UA Medium'"
       id="path6359" /><path
       d="m 1253.0575,698.91404 c 0,13.51147 8.9733,22.69102 22.2784,22.69102 7.7356,0 13.7178,-3.30051 15.7806,-8.045 -0.3094,14.74916 -12.5832,25.26955 -31.5611,25.26955 l 2.2691,10.00467 c 25.2695,0 40.947,-16.29627 40.947,-42.28781 0,-20.21563 -9.0765,-31.56114 -24.9602,-31.56114 -14.646,0 -24.7538,9.59211 -24.7538,23.92871 z m 36.9245,-0.72199 c 0,7.73558 -4.8477,13.40833 -12.8927,13.40833 -7.8387,0 -12.5832,-5.56961 -12.5832,-13.30519 0,-7.73557 4.7445,-13.20204 12.6864,-13.20204 7.9418,0 12.7895,5.36333 12.7895,13.0989 z"
       style="font-weight:500;-inkscape-font-specification:'Road UA Medium'"
       id="path6361" /></g><path
     id="polygon3402"
     class="cls-3"
     transform="translate(0.00669444,285.00669)"
     style="fill:#ffffff"
     d="m 109,419 h 110 v 34 H 109 l 33,39 H 102.404 L 49,436 105,382 h 37 z" /><path
     id="rect3809"
     style="fill:#e30013;fill-rule:evenodd;stroke-width:0.510948;stroke-linecap:round;stroke-linejoin:round;paint-order:stroke fill markers"
     d="m 298.03993,196.49649 h 189.9335 c 4.17253,0 7.53164,3.35911 7.53164,7.53163 v 79.94695 c 0,4.17252 -3.35911,7.53163 -7.53164,7.53163 h -189.9335 c -4.17252,0 -7.53163,-3.35911 -7.53163,-7.53163 v -79.94695 c 0,-4.17252 3.35911,-7.53163 7.53163,-7.53163 z" /><path
     id="rect3917"
     style="fill:#04ae67;fill-rule:evenodd;stroke-width:0.510948;stroke-linecap:round;stroke-linejoin:round;paint-order:stroke fill markers"
     d="m 297.77028,296.5022 h 189.9335 c 4.17252,0 7.53163,3.35911 7.53163,7.53163 v 79.94694 c 0,4.17253 -3.35911,7.53164 -7.53163,7.53164 h -189.9335 c -4.17252,0 -7.53163,-3.35911 -7.53163,-7.53164 v -79.94694 c 0,-4.17252 3.35911,-7.53163 7.53163,-7.53163 z" /><g
     aria-label="M-03"
     id="text4582"
     style="font-weight:bold;font-size:78.1114px;line-height:1.5;font-family:'Road UA';-inkscape-font-specification:'Road UA Bold';opacity:1;fill:#ffffff;fill-rule:evenodd;stroke-width:0.156223;stroke-linecap:round;stroke-linejoin:round;paint-order:stroke fill markers"
     transform="translate(0.00669444,0.00669444)"><path
       d="m 333.35692,258.29443 14.06005,-23.04287 v 36.3218 h 10.38882 v -54.67797 h -10.62315 l -15.70039,26.55787 -15.70039,-26.55787 h -10.62315 v 54.67797 h 10.38881 v -36.3218 l 14.06005,23.04287 z"
       id="path4833"
       style="fill:#ffffff" /><path
       d="m 390.37819,245.0936 h -21.48064 v 9.06092 h 21.48064 z"
       id="path4835"
       style="fill:#ffffff" /><path
       d="m 399.1267,244.15626 c 0,18.82485 6.1708,28.12011 18.98107,28.12011 12.81027,0 18.98107,-9.29526 18.98107,-28.12011 0,-18.90295 -6.1708,-28.19821 -18.98107,-28.19821 -12.81027,0 -18.98107,9.29526 -18.98107,28.19821 z m 18.98107,-19.44973 c 5.85836,0 9.06092,6.95191 9.06092,19.44973 0,12.41972 -3.20256,19.37163 -9.06092,19.37163 -5.85835,0 -9.06092,-6.95191 -9.06092,-19.37163 0,-12.49782 3.20257,-19.44973 9.06092,-19.44973 z"
       id="path4837"
       style="fill:#ffffff" /><path
       d="m 464.11539,224.94086 c 4.8429,0 7.96736,2.7339 7.96736,7.10814 0,4.45235 -3.04635,7.34247 -7.81114,7.34247 h -3.20257 v 8.12358 h 3.20257 c 5.4678,0 8.9047,3.28068 8.9047,8.12359 0,4.92102 -3.51502,7.88925 -8.82659,7.88925 -5.23346,0 -9.13903,-2.89012 -10.3107,-7.49869 l -9.60771,1.56222 c 1.24979,8.59226 9.29526,14.68495 19.76219,14.68495 11.09182,0 18.90295,-6.79569 18.90295,-16.55962 0,-6.01458 -3.04634,-10.62315 -8.20169,-12.73216 4.53046,-2.18712 7.10814,-6.40513 7.10814,-11.6386 0,-8.90469 -7.42059,-15.15361 -17.73129,-15.15361 -9.84204,0 -17.49695,5.85836 -18.82485,14.06006 l 9.52959,1.24978 c 0.85923,-4.06179 4.45235,-6.56136 9.13904,-6.56136 z"
       id="path4839"
       style="fill:#ffffff" /></g><g
     aria-label="Poltava"
     id="text4137"
     style="font-weight:bold;font-size:79.1044px;line-height:1.5;font-family:'Road UA';-inkscape-font-specification:'Road UA Bold';opacity:1;fill:#ffffff;fill-rule:evenodd;stroke-width:0.158209;stroke-linecap:round;stroke-linejoin:round;paint-order:stroke fill markers"><path
       d="m 636.67603,200.64275 h 10.8373 c 11.54924,0 19.14327,-6.96119 19.14327,-17.71939 0,-10.7582 -7.51492,-17.71938 -19.14327,-17.71938 h -21.43729 v 55.37308 h 10.59999 z m 19.22237,-17.71939 c 0,5.53731 -3.32239,8.30596 -9.80895,8.30596 h -9.41342 V 174.6174 h 9.33432 c 6.48656,0 9.88805,2.84776 9.88805,8.30596 z"
       id="path6367" /><path
       d="m 708.18637,200.80096 c 0,-13.13133 -6.64477,-20.48804 -18.43133,-20.48804 -11.78655,0 -18.43132,7.35671 -18.43132,20.48804 0,13.13133 6.64477,20.48804 18.43132,20.48804 11.78656,0 18.43133,-7.35671 18.43133,-20.48804 z m -26.81639,0 c 0,-7.75223 2.76865,-11.62835 8.38506,-11.62835 5.53731,0 8.38507,3.87612 8.38507,11.62835 0,7.75223 -2.84776,11.62834 -8.38507,11.62834 -5.61641,0 -8.38506,-3.87611 -8.38506,-11.62834 z"
       id="path6369" /><path
       d="m 730.81016,212.74572 c -2.53134,0 -3.7179,-1.18656 -3.7179,-3.71791 v -43.82383 h -9.96716 v 45.56413 c 0,6.56567 4.11343,10.20447 11.39104,10.20447 1.42388,0 3.24328,-0.15821 5.3791,-0.55373 l -0.55374,-8.06865 c -0.94925,0.23731 -1.74029,0.39552 -2.53134,0.39552 z"
       id="path6371" /><path
       d="m 736.50556,181.02486 v 7.59402 h 5.3791 v 20.40893 c 0,7.43582 4.42984,11.62835 12.49849,11.62835 1.8194,0 4.11343,-0.23731 6.24925,-0.63283 l -0.87015,-8.06865 c -1.50298,0.31641 -2.76865,0.47462 -3.71791,0.47462 -2.61044,0 -4.11343,-1.26567 -4.11343,-3.6388 v -20.17162 h 8.38507 v -7.59402 h -8.38507 v -13.36865 l -10.04625,3.63881 v 9.72984 z"
       id="path6373" /><path
       d="m 772.18167,192.49499 c 3.16418,-2.45223 6.48656,-3.55969 10.12537,-3.55969 4.58805,0 7.11939,2.05671 7.11939,5.69551 v 1.6612 l -8.70148,0.55373 c -9.41343,0.63283 -15.02984,5.3791 -15.02984,12.97312 0,7.11939 4.98358,11.47014 13.60596,11.47014 5.06268,0 9.25521,-1.50299 11.54924,-4.11343 1.66119,2.68955 4.74627,4.03432 9.0179,4.03432 l 3.00597,-6.32835 c -2.21492,-0.71194 -3.48059,-2.53134 -3.48059,-4.90447 v -15.82088 c 0,-9.17611 -5.45821,-13.84327 -16.0582,-13.84327 -6.40745,0 -11.47013,1.74029 -16.2955,5.4582 z m 17.24476,10.7582 v 2.92687 c 0,5.06268 -2.61044,7.51491 -7.59402,7.51491 -4.35074,0 -6.56567,-1.74029 -6.56567,-4.82536 0,-3.00597 2.21493,-4.90448 6.24925,-5.14179 z"
       id="path6375" /><path
       d="m 844.24582,181.02486 h -10.6791 l -9.0179,27.0537 -9.097,-27.0537 h -10.6791 l 14.55521,39.5522 h 10.28357 z"
       id="path6377" /><path
       d="m 853.81738,192.49499 c 3.16418,-2.45223 6.48657,-3.55969 10.12537,-3.55969 4.58805,0 7.11939,2.05671 7.11939,5.69551 v 1.6612 l -8.70148,0.55373 c -9.41342,0.63283 -15.02984,5.3791 -15.02984,12.97312 0,7.11939 4.98358,11.47014 13.60596,11.47014 5.06268,0 9.25522,-1.50299 11.54924,-4.11343 1.6612,2.68955 4.74627,4.03432 9.01791,4.03432 l 3.00596,-6.32835 c -2.21492,-0.71194 -3.48059,-2.53134 -3.48059,-4.90447 v -15.82088 c 0,-9.17611 -5.4582,-13.84327 -16.05819,-13.84327 -6.40746,0 -11.47014,1.74029 -16.29551,5.4582 z m 17.24476,10.7582 v 2.92687 c 0,5.06268 -2.61044,7.51491 -7.59402,7.51491 -4.35074,0 -6.56566,-1.74029 -6.56566,-4.82536 0,-3.00597 2.21492,-4.90448 6.24924,-5.14179 z"
       id="path6379" /></g><g
     aria-label="Полтава"
     id="text4191"
     style="font-weight:bold;font-size:102.853px;line-height:1.5;font-family:'Road UA';-inkscape-font-specification:'Road UA Bold';opacity:1;fill:#ffffff;fill-rule:evenodd;stroke-width:0.205706;stroke-linecap:round;stroke-linejoin:round;paint-order:stroke fill markers"><path
       d="m 634.99506,75.130959 h 28.90169 V 134.88855 H 677.7819 V 62.891452 h -56.56915 v 71.997098 h 13.78231 z"
       id="path6382" /><path
       d="m 738.46524,109.1753 c 0,-17.073597 -8.63965,-26.638926 -23.96475,-26.638926 -15.32509,0 -23.96474,9.565329 -23.96474,26.638926 0,17.0736 8.63965,26.63893 23.96474,26.63893 15.3251,0 23.96475,-9.56533 23.96475,-26.63893 z m -34.86716,0 c 0,-10.079593 3.7027,-15.11939 10.90241,-15.11939 7.19971,0 10.90242,5.039797 10.90242,15.11939 0,10.07959 -3.70271,15.11939 -10.90242,15.11939 -7.19971,0 -10.90241,-5.0398 -10.90241,-15.11939 z"
       id="path6384" /><path
       d="m 746.69335,136.22564 c 15.01654,-3.39415 19.43921,-12.34236 20.67345,-41.758318 h 12.85662 V 134.88855 H 793.1829 V 83.462051 h -37.33564 c -1.43994,33.221519 -3.29129,39.186989 -12.0338,41.552609 z"
       id="path6386" /><path
       d="m 802.54247,94.570175 h 15.63366 v 40.318375 h 12.95948 V 94.570175 h 15.63365 V 83.462051 h -44.22679 z"
       id="path6388" /><path
       d="m 860.34576,98.375736 c 4.11412,-3.188443 8.43395,-4.628385 13.16519,-4.628385 5.96547,0 9.25677,2.674178 9.25677,7.405419 v 2.15991 l -11.31383,0.71997 c -12.23951,0.82282 -19.54207,6.994 -19.54207,16.86789 0,9.25677 6.47974,14.91369 17.69071,14.91369 6.5826,0 12.0338,-1.95421 15.01654,-5.34836 2.15991,3.497 6.17118,5.2455 11.72524,5.2455 l 3.90842,-8.22824 c -2.87989,-0.92567 -4.52553,-3.29129 -4.52553,-6.37688 v -20.5706 c 0,-11.930949 -7.09686,-17.999276 -20.87916,-17.999276 -8.3311,0 -14.91369,2.262766 -21.18772,7.096857 z m 22.42196,13.988004 v 3.80556 c 0,6.5826 -3.39415,9.77104 -9.87389,9.77104 -5.65691,0 -8.5368,-2.26277 -8.5368,-6.27403 0,-3.90842 2.87989,-6.37689 8.12539,-6.68545 z"
       id="path6390" /><path
       d="m 932.75429,83.462051 h -23.03907 v 51.426499 h 23.8619 c 13.06233,0 20.46774,-5.2455 20.46774,-14.50227 0,-5.45121 -2.57132,-9.46248 -7.40541,-11.8281 3.70271,-2.46847 5.75977,-6.17118 5.75977,-11.005268 0,-8.948211 -7.09686,-14.090861 -19.64493,-14.090861 z M 922.6747,104.34121 V 93.747351 h 10.491 c 3.90842,0 6.17118,1.954207 6.17118,5.245503 0,3.394146 -2.26276,5.348356 -6.17118,5.348356 z m 0,20.26204 v -11.10812 h 11.62239 c 4.21697,0 6.68544,1.9542 6.68544,5.45121 0,3.59985 -2.46847,5.65691 -6.68544,5.65691 z"
       id="path6392" /><path
       d="m 971.01559,98.375736 c 4.11412,-3.188443 8.43395,-4.628385 13.16519,-4.628385 5.96547,0 9.25677,2.674178 9.25677,7.405419 v 2.15991 l -11.31383,0.71997 c -12.23951,0.82282 -19.54207,6.994 -19.54207,16.86789 0,9.25677 6.47974,14.91369 17.69071,14.91369 6.5826,0 12.03381,-1.95421 15.01654,-5.34836 2.15992,3.497 6.1712,5.2455 11.7252,5.2455 l 3.9085,-8.22824 c -2.8799,-0.92567 -4.5256,-3.29129 -4.5256,-6.37688 v -20.5706 c 0,-11.930949 -7.09683,-17.999276 -20.87913,-17.999276 -8.3311,0 -14.91369,2.262766 -21.18772,7.096857 z m 22.42196,13.988004 v 3.80556 c 0,6.5826 -3.39415,9.77104 -9.87389,9.77104 -5.65691,0 -8.5368,-2.26277 -8.5368,-6.27403 0,-3.90842 2.87989,-6.37689 8.12539,-6.68545 z"
       id="path6394" /></g><g
     id="g4205"
     transform="translate(0.00669444,275.17663)"
     style="opacity:1;fill:#ffffff"><g
       aria-label="Poltava"
       id="text4195"
       style="font-weight:bold;font-size:79.1044px;line-height:1.5;font-family:'Road UA';-inkscape-font-specification:'Road UA Bold';fill-rule:evenodd;stroke-width:0.158209;stroke-linecap:round;stroke-linejoin:round;paint-order:stroke fill markers"><path
         d="m 636.66931,200.63605 h 10.83731 c 11.54924,0 19.14326,-6.96119 19.14326,-17.71939 0,-10.75819 -7.51492,-17.71938 -19.14326,-17.71938 h -21.4373 v 55.37308 h 10.59999 z m 19.22237,-17.71939 c 0,5.53731 -3.32238,8.30597 -9.80894,8.30597 h -9.41343 V 174.6107 h 9.33432 c 6.48656,0 9.88805,2.84776 9.88805,8.30596 z"
         id="path6397" /><path
         d="m 708.17965,200.79426 c 0,-13.13133 -6.64477,-20.48804 -18.43132,-20.48804 -11.78656,0 -18.43133,7.35671 -18.43133,20.48804 0,13.13133 6.64477,20.48804 18.43133,20.48804 11.78655,0 18.43132,-7.35671 18.43132,-20.48804 z m -26.81639,0 c 0,-7.75223 2.76866,-11.62835 8.38507,-11.62835 5.53731,0 8.38506,3.87612 8.38506,11.62835 0,7.75223 -2.84775,11.62835 -8.38506,11.62835 -5.61641,0 -8.38507,-3.87612 -8.38507,-11.62835 z"
         id="path6399" /><path
         d="m 730.80345,212.73902 c -2.53134,0 -3.71791,-1.18656 -3.71791,-3.7179 v -43.82384 h -9.96715 v 45.56413 c 0,6.56567 4.11343,10.20447 11.39103,10.20447 1.42388,0 3.24328,-0.15821 5.3791,-0.55373 l -0.55373,-8.06865 c -0.94925,0.23731 -1.7403,0.39552 -2.53134,0.39552 z"
         id="path6401" /><path
         d="m 736.49884,181.01816 v 7.59402 h 5.3791 v 20.40894 c 0,7.43581 4.42985,11.62834 12.4985,11.62834 1.8194,0 4.11343,-0.23731 6.24924,-0.63283 l -0.87014,-8.06865 c -1.50299,0.31642 -2.76866,0.47463 -3.71791,0.47463 -2.61045,0 -4.11343,-1.26568 -4.11343,-3.63881 v -20.17162 h 8.38507 v -7.59402 h -8.38507 v -13.36865 l -10.04626,3.63881 v 9.72984 z"
         id="path6403" /><path
         d="m 772.17496,192.4883 c 3.16418,-2.45224 6.48656,-3.5597 10.12536,-3.5597 4.58806,0 7.1194,2.05671 7.1194,5.69551 v 1.6612 l -8.70149,0.55373 c -9.41342,0.63283 -15.02983,5.3791 -15.02983,12.97312 0,7.1194 4.98358,11.47014 13.60596,11.47014 5.06268,0 9.25521,-1.50299 11.54924,-4.11343 1.66119,2.68955 4.74626,4.03432 9.0179,4.03432 l 3.00597,-6.32835 c -2.21493,-0.71194 -3.4806,-2.53134 -3.4806,-4.90447 v -15.82088 c 0,-9.17611 -5.4582,-13.84327 -16.05819,-13.84327 -6.40746,0 -11.47014,1.7403 -16.29551,5.4582 z m 17.24476,10.75819 v 2.92687 c 0,5.06268 -2.61045,7.51492 -7.59402,7.51492 -4.35075,0 -6.56567,-1.7403 -6.56567,-4.82537 0,-3.00597 2.21492,-4.90448 6.24925,-5.14179 z"
         id="path6405" /><path
         d="m 844.2391,181.01816 h -10.67909 l -9.0179,27.0537 -9.09701,-27.0537 h -10.67909 l 14.55521,39.5522 h 10.28357 z"
         id="path6407" /><path
         d="m 853.81067,192.4883 c 3.16418,-2.45224 6.48656,-3.5597 10.12536,-3.5597 4.58806,0 7.1194,2.05671 7.1194,5.69551 v 1.6612 l -8.70148,0.55373 c -9.41343,0.63283 -15.02984,5.3791 -15.02984,12.97312 0,7.1194 4.98358,11.47014 13.60596,11.47014 5.06268,0 9.25521,-1.50299 11.54924,-4.11343 1.66119,2.68955 4.74626,4.03432 9.0179,4.03432 l 3.00597,-6.32835 c -2.21492,-0.71194 -3.4806,-2.53134 -3.4806,-4.90447 v -15.82088 c 0,-9.17611 -5.4582,-13.84327 -16.05819,-13.84327 -6.40745,0 -11.47014,1.7403 -16.29551,5.4582 z m 17.24476,10.75819 v 2.92687 c 0,5.06268 -2.61044,7.51492 -7.59402,7.51492 -4.35074,0 -6.56567,-1.7403 -6.56567,-4.82537 0,-3.00597 2.21493,-4.90448 6.24925,-5.14179 z"
         id="path6409" /></g><g
       aria-label="Полтава"
       id="text4199"
       style="font-weight:bold;font-size:102.853px;line-height:1.5;font-family:'Road UA';-inkscape-font-specification:'Road UA Bold';fill-rule:evenodd;stroke-width:0.205706;stroke-linecap:round;stroke-linejoin:round;paint-order:stroke fill markers"><path
         d="m 634.98834,75.12426 h 28.90169 v 59.75759 h 13.88516 V 62.884753 h -56.56915 v 71.997097 h 13.7823 z"
         id="path6412" /><path
         d="m 738.45853,109.1686 c 0,-17.073595 -8.63965,-26.638924 -23.96475,-26.638924 -15.3251,0 -23.96475,9.565329 -23.96475,26.638924 0,17.0736 8.63965,26.63893 23.96475,26.63893 15.3251,0 23.96475,-9.56533 23.96475,-26.63893 z m -34.86717,0 c 0,-10.079592 3.70271,-15.119389 10.90242,-15.119389 7.19971,0 10.90242,5.039797 10.90242,15.119389 0,10.0796 -3.70271,15.11939 -10.90242,15.11939 -7.19971,0 -10.90242,-5.03979 -10.90242,-15.11939 z"
         id="path6414" /><path
         d="m 746.68663,136.21894 c 15.01654,-3.39415 19.43922,-12.34236 20.67346,-41.758317 h 12.85662 v 40.421227 h 12.95948 V 83.455353 h -37.33564 c -1.43994,33.221517 -3.2913,39.186987 -12.0338,41.552607 z"
         id="path6416" /><path
         d="m 802.53576,94.563476 h 15.63365 v 40.318374 h 12.95948 V 94.563476 h 15.63366 V 83.455353 h -44.22679 z"
         id="path6418" /><path
         d="m 860.33905,98.369037 c 4.11412,-3.188443 8.43395,-4.628385 13.16518,-4.628385 5.96548,0 9.25677,2.674178 9.25677,7.405418 v 2.15991 l -11.31383,0.71997 c -12.2395,0.82283 -19.54207,6.99401 -19.54207,16.86789 0,9.25677 6.47974,14.91369 17.69072,14.91369 6.58259,0 12.0338,-1.95421 15.01654,-5.34836 2.15991,3.497 6.17118,5.24551 11.72524,5.24551 l 3.90841,-8.22824 c -2.87988,-0.92568 -4.52553,-3.2913 -4.52553,-6.37689 v -20.5706 c 0,-11.930947 -7.09686,-17.999274 -20.87916,-17.999274 -8.33109,0 -14.91368,2.262766 -21.18771,7.096857 z M 882.761,112.35704 v 3.80557 c 0,6.58259 -3.39414,9.77103 -9.87388,9.77103 -5.65692,0 -8.5368,-2.26277 -8.5368,-6.27403 0,-3.90842 2.87988,-6.37689 8.12538,-6.68545 z"
         id="path6420" /><path
         d="m 932.74758,83.455353 h -23.03907 v 51.426497 h 23.86189 c 13.06233,0 20.46775,-5.2455 20.46775,-14.50227 0,-5.45121 -2.57133,-9.46248 -7.40542,-11.8281 3.70271,-2.46847 5.75977,-6.17118 5.75977,-11.005267 0,-8.94821 -7.09686,-14.09086 -19.64492,-14.09086 z M 922.66799,104.33451 V 93.740652 h 10.491 c 3.90841,0 6.17118,1.954207 6.17118,5.245503 0,3.394145 -2.26277,5.348355 -6.17118,5.348355 z m 0,20.26204 v -11.10812 h 11.62238 c 4.21698,0 6.68545,1.9542 6.68545,5.45121 0,3.59985 -2.46847,5.65691 -6.68545,5.65691 z"
         id="path6422" /><path
         d="m 971.00888,98.369037 c 4.11412,-3.188443 8.43395,-4.628385 13.16518,-4.628385 5.96548,0 9.25677,2.674178 9.25677,7.405418 v 2.15991 l -11.31383,0.71997 c -12.2395,0.82283 -19.54206,6.99401 -19.54206,16.86789 0,9.25677 6.47973,14.91369 17.69071,14.91369 6.58259,0 12.0338,-1.95421 15.01654,-5.34836 2.15991,3.497 6.17121,5.24551 11.72521,5.24551 l 3.9084,-8.22824 c -2.8798,-0.92568 -4.5255,-3.2913 -4.5255,-6.37689 v -20.5706 c 0,-11.930947 -7.09684,-17.999274 -20.87915,-17.999274 -8.33109,0 -14.91368,2.262766 -21.18771,7.096857 z m 22.42195,13.988003 v 3.80557 c 0,6.58259 -3.39414,9.77103 -9.87388,9.77103 -5.65692,0 -8.5368,-2.26277 -8.5368,-6.27403 0,-3.90842 2.87988,-6.37689 8.12538,-6.68545 z"
         id="path6424" /></g></g><g
     id="g4215"
     transform="translate(0.00669444,577.42316)"
     style="opacity:1;fill:#ffffff"><g
       aria-label="Pryluky"
       id="text4209"
       style="font-weight:bold;font-size:79.1044px;line-height:1.5;font-family:'Road UA';-inkscape-font-specification:'Road UA Bold';fill-rule:evenodd;stroke-width:0.158209;stroke-linecap:round;stroke-linejoin:round;paint-order:stroke fill markers"><path
         d="m 636.66931,200.63605 h 10.83731 c 11.54924,0 19.14326,-6.96119 19.14326,-17.71939 0,-10.75819 -7.51492,-17.71938 -19.14326,-17.71938 h -21.4373 v 55.37308 h 10.59999 z m 19.22237,-17.71939 c 0,5.53731 -3.32238,8.30597 -9.80894,8.30597 h -9.41343 V 174.6107 h 9.33432 c 6.48656,0 9.88805,2.84776 9.88805,8.30596 z"
         id="path6427" /><path
         d="m 674.71849,220.57036 h 9.96715 v -19.61789 c 0,-7.35671 3.16418,-11.54925 8.78059,-11.54925 1.58209,0 3.00597,0.39553 4.03432,1.02836 l 3.95522,-9.097 c -1.58208,-0.63284 -3.48059,-1.02836 -5.5373,-1.02836 -5.14179,0 -8.9388,2.13582 -11.78656,6.24925 v -5.53731 h -9.41342 z"
         id="path6429" /><path
         d="m 726.69006,223.97185 16.2955,-42.95369 h -10.67909 l -9.0179,25.86714 -9.09701,-25.86714 h -10.67909 l 15.02983,39.39399 c -1.42388,4.58805 -3.32238,6.24925 -6.56566,6.24925 -1.34478,0 -2.61045,-0.23732 -3.87612,-0.79105 l -0.94925,8.38507 c 1.89851,0.94925 4.35074,1.26567 6.56566,1.26567 6.40746,0 9.72985,-2.92686 12.97313,-11.54924 z"
         id="path6431" /><path
         d="m 763.15719,212.73902 c -2.53134,0 -3.71791,-1.18656 -3.71791,-3.7179 v -43.82384 h -9.96715 v 45.56413 c 0,6.56567 4.11342,10.20447 11.39103,10.20447 1.42388,0 3.24328,-0.15821 5.3791,-0.55373 l -0.55373,-8.06865 c -0.94926,0.23731 -1.7403,0.39552 -2.53134,0.39552 z"
         id="path6433" /><path
         d="m 797.64665,204.67037 c 0,4.98358 -2.84776,7.75224 -7.59403,7.75224 -4.58805,0 -7.2776,-2.53135 -7.2776,-7.1194 v -24.28505 h -9.96715 v 25.2343 c 0,9.57163 5.06268,15.02984 13.92237,15.02984 4.90447,0 8.78059,-1.66119 11.70745,-4.82537 v 4.11343 h 9.25522 v -39.5522 h -10.04626 z"
         id="path6435" /><path
         d="m 828.81375,209.49574 4.58805,-5.22089 10.91641,16.29551 h 11.62835 l -15.58357,-23.3358 14.4761,-16.2164 h -12.26118 l -13.76416,15.74177 v -31.56265 h -9.96716 v 55.37308 h 9.96716 z"
         id="path6437" /><path
         d="m 881.02261,223.97185 16.2955,-42.95369 h -10.67909 l -9.0179,25.86714 -9.09701,-25.86714 h -10.67909 l 15.02983,39.39399 c -1.42388,4.58805 -3.32238,6.24925 -6.56566,6.24925 -1.34478,0 -2.61045,-0.23732 -3.87612,-0.79105 l -0.94925,8.38507 c 1.89851,0.94925 4.35074,1.26567 6.56566,1.26567 6.40746,0 9.72985,-2.92686 12.97313,-11.54924 z"
         id="path6439" /></g><g
       aria-label="Прилуки"
       id="text4213"
       style="font-weight:bold;font-size:102.853px;line-height:1.5;font-family:'Road UA';-inkscape-font-specification:'Road UA Bold';fill-rule:evenodd;stroke-width:0.205706;stroke-linecap:round;stroke-linejoin:round;paint-order:stroke fill markers"><path
         d="m 634.98834,75.12426 h 28.90169 v 59.75759 h 13.88516 V 62.884753 h -56.56915 v 71.997097 h 13.7823 z"
         id="path6442" /><path
         d="m 705.75128,89.317974 v -5.862621 h -12.23951 v 69.940037 h 12.95948 v -23.45048 c 3.18844,3.80556 7.81682,5.86262 13.7823,5.86262 13.57659,0 21.08486,-9.56533 21.08486,-26.63893 0,-17.073595 -7.61112,-26.638924 -21.08486,-26.638924 -6.37689,0 -11.21098,2.262766 -14.50227,6.788298 z m 22.62765,19.953476 c 0,9.97675 -3.7027,15.01654 -10.90241,15.01654 -7.30257,0 -11.00527,-5.03979 -11.00527,-15.11939 0,-10.079592 3.7027,-15.119389 11.00527,-15.119389 7.19971,0 10.90241,5.039797 10.90241,15.222239 z"
         id="path6444" /><path
         d="M 766.02318,114.00269 V 83.455353 H 753.0637 v 51.426497 h 12.23951 l 21.39342,-30.54734 v 30.54734 h 12.95948 V 83.455353 H 787.4166 Z"
         id="path6446" /><path
         d="m 811.48413,136.21894 c 15.01654,-3.39415 19.43922,-12.34236 20.67346,-41.758317 h 12.85662 v 40.421227 h 12.95948 V 83.455353 h -37.33564 c -1.43994,33.221517 -3.29129,39.186987 -12.0338,41.552607 z"
         id="path6448" /><path
         d="M 896.54351,139.30453 917.73123,83.455353 H 903.84607 L 892.12083,117.08828 880.29274,83.455353 h -13.88516 l 19.54207,51.220797 c -1.85135,5.96547 -4.31982,8.12538 -8.5368,8.12538 -1.7485,0 -3.39415,-0.30856 -5.03979,-1.02853 l -1.23424,10.90242 c 2.46847,1.23424 5.65691,1.64565 8.5368,1.64565 8.33109,0 12.65092,-3.80556 16.86789,-15.01654 z"
         id="path6450" /><path
         d="m 943.95874,114.31125 14.29657,20.5706 h 15.32509 l -19.0278,-26.53607 17.48501,-24.890427 h -15.22224 l -12.85663,19.027807 h -4.83409 V 83.455353 h -12.95948 v 51.426497 h 12.95948 v -20.5706 z"
         id="path6452" /><path
         d="M 995.17952,114.00269 V 83.455353 h -12.95948 v 51.426497 h 12.23951 l 21.39345,-30.54734 v 30.54734 h 12.9595 V 83.455353 h -12.2396 z"
         id="path6454" /></g></g><g
     id="g4345"
     transform="matrix(1.0761905,0,0,1.0761905,-23.745694,496.38764)"><path
       id="rect4333"
       style="fill:#005999;stroke:#ffffff;stroke-width:5px;stroke-miterlimit:10"
       class="cls-5"
       d="m 297.29204,155 h 191.41592 c 5.14779,0 9.29204,4.14425 9.29204,9.29204 v 81.41592 C 498,250.85575 493.85575,255 488.70796,255 H 297.29204 C 292.14425,255 288,250.85575 288,245.70796 V 164.29204 C 288,159.14425 292.14425,155 297.29204,155 Z" /></g><g
     aria-label="P-67"
     id="text4725"
     style="font-weight:bold;font-size:78.1114px;line-height:1.5;font-family:'Road UA';-inkscape-font-specification:'Road UA Bold';opacity:1;fill:#ffffff;fill-rule:evenodd;stroke-width:0.156223;stroke-linecap:round;stroke-linejoin:round;paint-order:stroke fill markers"
     transform="translate(0.00669444,0.00669444)"><path
       d="m 329.31985,726.31745 h 10.70126 c 11.40426,0 18.90296,-6.8738 18.90296,-17.49695 0,-10.62315 -7.42059,-17.49695 -18.90296,-17.49695 h -21.16819 v 54.67798 h 10.46693 z m 18.98107,-17.49695 c 0,5.4678 -3.28068,8.2017 -9.68582,8.2017 h -9.29525 v -16.4034 h 9.21714 c 6.40514,0 9.76393,2.81201 9.76393,8.2017 z"
       id="path4849" /><path
       d="m 387.51279,719.52176 h -21.48063 v 9.06092 h 21.48063 z"
       id="path4851" /><path
       d="m 434.614,728.11402 c 0,-10.2326 -6.87381,-17.41885 -16.95018,-17.41885 -5.54591,0 -9.76392,2.34335 -11.16993,5.70214 0.15623,-10.2326 8.98281,-17.1064 23.12098,-17.1064 l -2.0309,-8.67036 c -19.44974,0 -31.24456,11.95104 -31.24456,31.63511 0,15.54417 6.95192,24.44887 19.13729,24.44887 11.24805,0 19.1373,-7.57681 19.1373,-18.59051 z m -27.33899,0.62489 c 0,-5.31158 3.28068,-9.37337 8.74847,-9.37337 5.4678,0 8.67037,4.06179 8.67037,9.37337 0,5.31157 -3.20257,9.21714 -8.67037,9.21714 -5.31157,0 -8.74847,-3.82746 -8.74847,-9.21714 z"
       id="path4853" /><path
       d="m 479.52807,699.75958 v -8.43603 h -37.57159 v 8.67036 h 26.7141 l -18.98107,46.00762 h 10.70126 z"
       id="path4855" /></g><g
     aria-label="E 40"
     id="text4831"
     style="font-weight:bold;font-size:78.1114px;line-height:1.5;font-family:'Road UA';-inkscape-font-specification:'Road UA Bold';opacity:1;fill:#ffffff;fill-rule:evenodd;stroke-width:0.156223;stroke-linecap:round;stroke-linejoin:round;paint-order:stroke fill markers"
     transform="translate(0.00669444,0.00669444)"><path
       d="m 356.99438,361.6033 h -26.94843 v -13.7476 h 22.18364 v -9.29526 h -22.18364 v -13.0446 h 26.55788 v -9.29526 h -37.02481 v 54.67798 h 37.41536 z"
       id="path4842"
       style="fill:#ffffff" /><path
       d="m 404.72042,370.89856 h 9.92015 v -12.81027 h 7.03002 v -8.43603 h -7.03002 v -33.43168 h -12.18538 l -22.65231,33.43168 v 8.43603 h 24.91754 z m 0,-44.05483 v 22.80853 h -15.54417 z"
       id="path4844"
       style="fill:#ffffff" /><path
       d="m 427.91952,343.48146 c 0,18.82485 6.1708,28.1201 18.98107,28.1201 12.81027,0 18.98107,-9.29525 18.98107,-28.1201 0,-18.90296 -6.1708,-28.19821 -18.98107,-28.19821 -12.81027,0 -18.98107,9.29525 -18.98107,28.19821 z m 18.98107,-19.44974 c 5.85835,0 9.06092,6.95192 9.06092,19.44974 0,12.41971 -3.20257,19.37163 -9.06092,19.37163 -5.85836,0 -9.06092,-6.95192 -9.06092,-19.37163 0,-12.49782 3.20256,-19.44974 9.06092,-19.44974 z"
       id="path4846"
       style="fill:#ffffff" /></g><g
     aria-label="314"
     id="text5016"
     style="font-weight:bold;font-size:103.141px;line-height:1.5;font-family:'Road UA';-inkscape-font-specification:'Road UA Bold';opacity:1;fill:#ffffff;fill-rule:evenodd;stroke-width:0.206279;stroke-linecap:round;stroke-linejoin:round;paint-order:stroke fill markers"><path
       d="m 1167.2442,390.34061 c 7.1168,0 11.655,3.81622 11.655,10.3141 0,6.49789 -4.4351,10.62353 -11.5518,10.62353 h -3.9194 v 9.48897 h 3.9194 c 8.1481,0 13.0989,4.64134 13.0989,11.75807 0,7.11673 -5.0539,11.44865 -12.8926,11.44865 -7.5293,0 -12.9958,-4.0225 -14.8524,-10.52038 l -11.036,1.85654 c 1.8565,11.13923 12.2737,18.77166 25.6821,18.77166 14.5429,0 24.5475,-8.76698 24.5475,-21.45333 0,-8.35442 -4.3319,-14.54288 -11.4486,-17.1214 6.2916,-2.78481 9.9015,-8.45757 9.9015,-15.67744 0,-11.65493 -9.5921,-19.59678 -22.8973,-19.59678 -12.7895,0 -22.5879,7.32301 -24.4444,18.04967 l 10.9329,1.44397 c 1.3409,-5.77589 6.3948,-9.38583 13.3052,-9.38583 z"
       style="font-weight:500;-inkscape-font-specification:'Road UA Medium'"
       id="path6458" /><path
       d="m 1232.3262,381.05792 h -10.4172 c -3.7131,5.15705 -10.6235,9.59212 -17.6371,11.34551 v 11.13923 c 6.7041,-1.34083 13.7177,-4.84763 16.6057,-8.5607 v 58.27466 h 11.4486 z"
       style="font-weight:500;-inkscape-font-specification:'Road UA Medium'"
       id="path6460" /><path
       d="m 1281.7307,453.25662 h 11.4486 v -17.32769 h 9.5921 v -9.69525 h -9.5921 v -45.17576 h -14.0272 l -30.9423,45.17576 v 9.69525 h 33.5209 z m 0,-59.71864 v 32.6957 h -22.5879 z"
       style="font-weight:500;-inkscape-font-specification:'Road UA Medium'"
       id="path6462" /></g><g
     aria-label="173"
     id="text5020"
     style="font-weight:bold;font-size:103.141px;line-height:1.5;font-family:'Road UA';-inkscape-font-specification:'Road UA Bold';opacity:1;fill:#ffffff;fill-rule:evenodd;stroke-width:0.206279;stroke-linecap:round;stroke-linejoin:round;paint-order:stroke fill markers"><path
       d="m 1174.0515,115.01541 h -10.4172 c -3.7131,5.15705 -10.6236,9.59212 -17.6371,11.34551 v 11.13923 c 6.7041,-1.34083 13.7177,-4.84763 16.6057,-8.5607 v 58.27466 h 11.4486 z"
       style="font-weight:500;-inkscape-font-specification:'Road UA Medium'"
       id="path6465" /><path
       d="m 1241.0931,124.81381 v -9.7984 h -48.8889 v 10.10782 h 36.3057 l -25.579,62.09088 h 12.3769 z"
       style="font-weight:500;-inkscape-font-specification:'Road UA Medium'"
       id="path6467" /><path
       d="m 1278.1207,124.2981 c 7.1167,0 11.6549,3.81622 11.6549,10.3141 0,6.49788 -4.435,10.62352 -11.5518,10.62352 h -3.9193 v 9.48898 h 3.9193 c 8.1482,0 13.0989,4.64134 13.0989,11.75807 0,7.11673 -5.0539,11.44865 -12.8926,11.44865 -7.5293,0 -12.9957,-4.0225 -14.8523,-10.52038 l -11.0361,1.85654 c 1.8566,11.13923 12.2738,18.77166 25.6821,18.77166 14.5429,0 24.5476,-8.76699 24.5476,-21.45333 0,-8.35442 -4.3319,-14.54288 -11.4487,-17.1214 6.2916,-2.78481 9.9016,-8.45757 9.9016,-15.67744 0,-11.65493 -9.5921,-19.59679 -22.8973,-19.59679 -12.7895,0 -22.5879,7.32302 -24.4444,18.04968 l 10.9329,1.44397 c 1.3408,-5.77589 6.3947,-9.38583 13.3052,-9.38583 z"
       style="font-weight:500;-inkscape-font-specification:'Road UA Medium'"
       id="path6469" /></g><metadata
     id="metadata7650"><rdf:RDF><cc:Work
         rdf:about=""><dc:title>5.60 Покажчик напрямків</dc:title></cc:Work></rdf:RDF></metadata></svg>
