<svg xmlns="http://www.w3.org/2000/svg" width="1384" height="454">
<title>5.67.2 Номер і напрямок маршруту (дороги)</title>
<defs><style>.a{fill:#fff}.b{fill:#da251d}</style></defs><rect class="a" x="1" y="1" width="1382" height="452" rx="46"/><path d="M1337 2a45 45 0 0 1 45 45v360a45 45 0 0 1-45 45H47a45 45 0 0 1-45-45V47A45 45 0 0 1 47 2h1290m0-2H47A47.053 47.053 0 0 0 0 47v360a47.053 47.053 0 0 0 47 47h1290a47.053 47.053 0 0 0 47-47V47a47.053 47.053 0 0 0-47-47z"/><rect class="b" x="452" y="22" width="910" height="410" rx="25"/><rect class="b" x="22" y="22" width="410" height="410" rx="25"/><path class="a" d="m260.234 118.813 42.426 42.426H196.594L352.865 317.51l-35.355 35.355-156.271-156.271V302.66l-42.426-42.426V118.813h141.421zM666.53 282.957l-57.602-94.402v148.803h-42.563V113.354h43.522l64.322 108.801 64.32-108.801h43.522v224.004h-42.56V188.555l-57.602 94.402zM915.486 265.997h-88.002v-37.121h88.002zM1029.084 109.513c52.48 0 77.762 38.08 77.762 115.523 0 77.121-25.282 115.202-77.762 115.202-52.482 0-77.762-38.08-77.762-115.202 0-77.442 25.28-115.523 77.762-115.523zm-37.121 115.523c0 50.881 13.119 79.361 37.121 79.361 24 0 37.121-28.48 37.121-79.36 0-51.203-13.121-79.683-37.121-79.683-24.002 0-37.121 28.48-37.121 79.682zM1235.162 337.358h-40.64V162.634c-8.641 11.2-30.4 21.76-50.561 25.281v-39.361c21.76-4.8 43.52-19.2 54.4-35.2h36.801z"/></svg>