<svg id="Слой_1" data-name="Слой 1" xmlns="http://www.w3.org/2000/svg" width="600" height="900" viewBox="0 0 600 900">
  <defs>
    <style>
      .cls-1 {
        fill: #fff;
      }

      .cls-2 {
        fill: #055c9d;
      }
    </style>
  </defs>
  <g>
    <g>
      <rect class="cls-1" x="0.49988" y="0.50024" width="599" height="899" rx="49.5"/>
      <path d="M550.1134.866a49.05552,49.05552,0,0,1,49,49v800a49.05552,49.05552,0,0,1-49,49h-500a49.05553,49.05553,0,0,1-49-49v-800a49.05553,49.05553,0,0,1,49-49h500m0-1h-500a50,50,0,0,0-50,50v800a50,50,0,0,0,50,50h500a50.00005,50.00005,0,0,0,50-50v-800a50,50,0,0,0-50-50Z" transform="translate(-0.1134 0.13403)"/>
    </g>
    <rect class="cls-2" x="12.5" y="12.50001" width="575" height="875" rx="39.88095"/>
    <g>
      <rect class="cls-1" x="64.8866" y="131.13403" width="470" height="470" rx="32.76087"/>
      <path d="M398.37,431.86988l20.57,11.98c-5.41,8.23-39.65,59.33-102.44,67.15V363.4999h49v-32h-49V302.88a61,61,0,1,0-32,0v28.62h-49v32h49V511.0798c-61.94-7.37994-97.21-56.56-104.01-66.59994l21.14-12.31-70.13-40.82v81.65l21.37-12.44c5.67,8.75,55.1,82.57,147.63,82.44,91.55-.13,141.16-72.53,147.51-82.23l20.49,11.93v-81.66ZM274,244a26.5,26.5,0,1,1,26.5,26.5A26.49428,26.49428,0,0,1,274,244Z" transform="translate(-0.1134 0.13403)"/>
    </g>
  </g>
</svg>
