<?xml version="1.0" encoding="UTF-8" standalone="no"?>
<svg
   id="Слой_1"
   data-name="Слой 1"
   width="1050"
   height="350"
   viewBox="0 0 1050 350"
   version="1.1"
   sodipodi:docname="UA_road_sign_5.80.1.svg"
   inkscape:version="1.1.2 (b8e25be833, 2022-02-05)"
   xmlns:inkscape="http://www.inkscape.org/namespaces/inkscape"
   xmlns:sodipodi="http://sodipodi.sourceforge.net/DTD/sodipodi-0.dtd"
   xmlns="http://www.w3.org/2000/svg"
   xmlns:svg="http://www.w3.org/2000/svg">
  <sodipodi:namedview
     id="namedview36"
     pagecolor="#ffffff"
     bordercolor="#666666"
     borderopacity="1.0"
     inkscape:pageshadow="2"
     inkscape:pageopacity="0.0"
     inkscape:pagecheckerboard="0"
     showgrid="false"
     inkscape:zoom="1.192381"
     inkscape:cx="525.41933"
     inkscape:cy="174.86022"
     inkscape:window-width="1920"
     inkscape:window-height="1001"
     inkscape:window-x="-9"
     inkscape:window-y="-9"
     inkscape:window-maximized="1"
     inkscape:current-layer="Слой_1" />
  <defs
     id="defs4">
    <style
       id="style2">
      .cls-1 {
        fill: #fff;
      }

      .cls-2 {
        fill: #3aaa35;
      }
    </style>
  </defs>
  <g
     id="g10">
    <path
       class="cls-1"
       d="M350.11816,349.5l-349-174.5,349-174.5H1005A44.55075,44.55075,0,0,1,1049.5,45V305a44.55075,44.55075,0,0,1-44.5,44.5Z"
       id="path6" />
    <path
       d="M1005,1a44.04978,44.04978,0,0,1,44,44V305a44.04978,44.04978,0,0,1-44,44H350.236l-348-174,348-174H1005m0-1H350L0,175,350,350h655a45,45,0,0,0,45-45V45a45,45,0,0,0-45-45Z"
       id="path8" />
  </g>
  <path
     class="cls-2"
     d="M130,175,360,340h645a35,35,0,0,0,35-35V45a35,35,0,0,0-35-35H360Z"
     id="path12"
     style="fill:#04ae67;fill-opacity:1" />
  <g
     id="layer1">
    <path
       class="cls-1"
       d="M909.56,209.62l21.85,42.04a6.53,6.53,0,0,0,9.4,2.81L998,217.84c5.27-3.37006,7.07-10.87006,4.03-16.72a10.90964,10.90964,0,0,0-9.12006-6.09c-.25-.01-.48-.01-.72,0a10.09431,10.09431,0,0,0-5.22,1.62994l-44.03,28.25-14.32-27.5Z"
       id="path14" />
    <path
       class="cls-1"
       d="M842.66,90.56c0,15.78,13.12006,24.16,19.68006,24.16,10.03,0,21.25-23.36,21.25-36.37994-.25-10.79-5.81-17.96-14.37006-17.96C857.57,60.38,842.66,74.7,842.66,90.56Z"
       id="path16" />
    <path
       class="cls-1"
       d="M816.16,170.22,850,191.91a6.53682,6.53682,0,0,0,9.41-2.81994l16.31-31.25L864.59,136.47,849.66,165.22,826.47,150.34c-4.93994-3.16-11.24-1.29-14.09,4.19C809.52,160.02,811.22,167.05,816.16,170.22Z"
       id="path18" />
    <path
       class="cls-1"
       d="M852.62,214.34v72.69c0,6.76,4.92,12.22,11,12.22,6.09,0,11.04-5.46,11.04-12.22V223.16l48.31-30.97c6.58-4.22,8.83-13.57,5.03-20.88l-23.69-45.56h29.81l24.79,27.5a9.59926,9.59926,0,0,0,14.59,0,12.39155,12.39155,0,0,0,0-16.22l-27.44-30.47a6.49854,6.49854,0,0,0-4.84-2.22H884.5c-.18,0-.38-.01-.56,0a8.27128,8.27128,0,0,0-6.6,4.6l-7.59,14.53a10.127,10.127,0,0,0,0,9.19l25.53,49.06-38.53,24.69A9.388,9.388,0,0,0,852.62,214.34Z"
       id="path20" />
    <polygon
       class="cls-1"
       points="572.72 218.75 572.72 288.75 560.47 288.75 560.47 234.5 551.09 240.38 546.97 235 562.22 218.75 572.72 218.75"
       id="polygon22" />
    <polygon
       class="cls-1"
       points="578.75 205.62 578.75 185.94 766 185.94 766 164.06 578.75 164.06 578.75 144.38 538.5 175 578.75 205.62"
       id="polygon24" />
    <path
       class="cls-1"
       d="M688.78,228.38q-6.39-10.11-17.06006-10.5-10.665.27-17.06,10.06-6.40494,9.78-6.56994,25.81.165,16.02,6.56994,25.81,6.39,9.795,17.06,10.06,10.66508-.27,17.06006-10.06,6.40494-9.78,6.56-25.81Q695.175,238.465,688.78,228.38Zm-8.84,44.43q-3.075,6.015-8.22,5.94-5.145.075-8.22-5.94t-3.16-19.06q.09-13.05,3.16-19.06,3.075-6.015,8.22-5.94,5.14508-.075,8.22,5.94t3.15,19.06Q683.015,266.8,679.94,272.81Z"
       id="path26" />
    <polygon
       class="cls-1"
       points="763.53 288.75 753.03 288.75 750.41 254.62 736.41 282.62 722.41 254.62 719.78 288.75 709.28 288.75 713.66 239.75 724.16 239.75 736.41 264.25 748.66 239.75 759.16 239.75 763.53 288.75"
       id="polygon28" />
    <rect
       class="cls-1"
       x="365"
       y="53"
       width="123"
       height="244"
       id="rect30" />
    <path
       class="cls-1"
       d="M629.12,228.38q-6.39-10.11-17.06006-10.5-10.665.27-17.06,10.06-6.40494,9.78-6.57,25.81.165,16.02,6.57,25.81,6.39,9.795,17.06,10.06,10.66508-.27,17.06006-10.06,6.40494-9.78,6.56-25.81Q635.51492,238.465,629.12,228.38Zm-8.84,44.43q-3.075,6.015-8.22,5.94-5.145.075-8.22-5.94t-3.16-19.06q.09-13.05,3.16-19.06,3.075-6.015,8.22-5.94,5.14509-.075,8.22,5.94t3.15,19.06Q623.35493,266.8,620.28,272.81Z"
       id="path32" />
  </g>
</svg>
