<?xml version="1.0" encoding="UTF-8" standalone="no"?>
<svg
   id="Слой_1"
   data-name="Слой 1"
   width="2000.4473"
   height="350.20001"
   viewBox="0 0 2000.4473 350.20001"
   version="1.1"
   sodipodi:docname="UA_road_sign_5.81.svg"
   inkscape:version="1.2.2 (732a01da63, 2022-12-09)"
   xml:space="preserve"
   xmlns:inkscape="http://www.inkscape.org/namespaces/inkscape"
   xmlns:sodipodi="http://sodipodi.sourceforge.net/DTD/sodipodi-0.dtd"
   xmlns="http://www.w3.org/2000/svg"
   xmlns:svg="http://www.w3.org/2000/svg"
   xmlns:rdf="http://www.w3.org/1999/02/22-rdf-syntax-ns#"
   xmlns:cc="http://creativecommons.org/ns#"
   xmlns:dc="http://purl.org/dc/elements/1.1/"><title
     id="title9200">5.81 Покажчик напрямків і відстані до аварійних виходів</title><sodipodi:namedview
     id="namedview36"
     pagecolor="#ffffff"
     bordercolor="#666666"
     borderopacity="1.0"
     inkscape:pageshadow="2"
     inkscape:pageopacity="0.0"
     inkscape:pagecheckerboard="0"
     showgrid="false"
     inkscape:zoom="0.84314069"
     inkscape:cx="190.35969"
     inkscape:cy="320.82427"
     inkscape:window-width="1920"
     inkscape:window-height="991"
     inkscape:window-x="-9"
     inkscape:window-y="-9"
     inkscape:window-maximized="1"
     inkscape:current-layer="g10"
     inkscape:showpageshadow="2"
     inkscape:deskcolor="#d1d1d1" /><defs
     id="defs4"><style
       id="style2">
      .cls-1 {
        fill: #fff;
      }

      .cls-2 {
        fill: #3aaa35;
      }
    </style><style
       id="style2-6">
      .cls-1 {
        fill: #fff;
      }

      .cls-2 {
        fill: #3aaa35;
      }
    </style></defs><g
     id="g10"
     transform="translate(0.2236068,0.1)"><path
       id="path6"
       class="cls-1"
       d="M 350.11719,0.5 1.1171875,175 350.11719,349.5 H 995 h 10 644.8828 L 1998.8809,175 1649.8828,0.5 H 1005 995 Z" /><path
       id="path8"
       d="M 350,0 0,175 350,350 h 645 10 645 L 2000,175 1650,0 h -645 -10 z m 0.23633,1 H 950.53906 985.74414 1005 h 9.3945 7.084 628.2852 l 348,174 -348,174 H 1059.2812 1013.9668 1005 989.97266 951.87109 350.23633 L 2.2363281,175 Z"
       style="stroke:none;stroke-width:0.2;stroke-dasharray:none;stroke-opacity:1" /></g><path
     id="path12"
     style="fill:#04ae67;fill-opacity:1"
     class="cls-2"
     d="m 360.22361,10.1 -230,165 230,165 h 635 9.99999 635 l 230,-165 -230,-165 h -635 -9.99999 z" /><g
     id="g7527"
     transform="translate(-92.527133,0.1)"><path
       class="cls-1"
       d="m 1090.44,209.62 -21.85,42.04 a 6.53,6.53 0 0 1 -9.4,2.81 L 1002,217.84 c -5.27,-3.37 -7.07,-10.87 -4.03,-16.72 a 10.90964,10.90964 0 0 1 9.12,-6.09 c 0.25,-0.01 0.48,-0.01 0.72,0 a 10.09431,10.09431 0 0 1 5.22,1.63 l 44.03,28.25 14.32,-27.5 z"
       id="path14-6" /><path
       class="cls-1"
       d="m 1157.34,90.56 c 0,15.78 -13.1201,24.16 -19.6801,24.16 -10.03,0 -21.25,-23.36 -21.25,-36.37994 0.25,-10.79 5.81,-17.96 14.3701,-17.96 11.65,-6e-5 26.56,14.31994 26.56,30.17994 z"
       id="path16-2" /><path
       class="cls-1"
       d="M 1183.84,170.22 1150,191.91 a 6.53682,6.53682 0 0 1 -9.41,-2.81994 l -16.31,-31.25 11.13,-21.37006 14.93,28.75 23.19,-14.88 c 4.9399,-3.16 11.24,-1.29 14.09,4.19 2.86,5.49 1.16,12.52 -3.78,15.69 z"
       id="path18-2" /><path
       class="cls-1"
       d="m 1147.38,214.34 v 72.69 c 0,6.76 -4.92,12.22 -11,12.22 -6.09,0 -11.04,-5.46 -11.04,-12.22 v -63.87 l -48.31,-30.97 c -6.58,-4.22 -8.83,-13.57 -5.03,-20.88 l 23.69,-45.56 h -29.81 l -24.79,27.5 a 9.59926,9.59926 0 0 1 -14.59,0 12.39155,12.39155 0 0 1 0,-16.22 l 27.44,-30.47 a 6.49854,6.49854 0 0 1 4.84,-2.22 h 56.72 c 0.18,0 0.38,-0.01 0.56,0 a 8.27128,8.27128 0 0 1 6.6,4.6 l 7.59,14.53 a 10.127,10.127 0 0 1 0,9.19 l -25.53,49.06 38.53,24.69 a 9.388,9.388 0 0 1 4.13,7.93 z"
       id="path20-8" /></g><polygon
     class="cls-1"
     points="284,164.06 471.25,164.06 471.25,144.38 511.5,175 471.25,205.62 471.25,185.94 284,185.94 "
     id="polygon24-4"
     transform="translate(950.22361,0.1)" /><path
     class="cls-1"
     d="m 1325.3836,264.35 a 24.73793,24.73793 0 0 1 -7.32,17.94 c -4.79,4.77 -11.41,7.25 -19.81,7.43 a 43.861,43.861 0 0 1 -11.25,-1.74 c -3.3701,-1.03 -5.17,-1.61 -5.3701,-1.76 l -1.75,-11.37 a 20.1811,20.1811 0 0 0 7.75,2.84 51.16658,51.16658 0 0 0 8.8701,0.66 18.56887,18.56887 0 0 0 10.5,-3.28 q 4.92,-3.28491 5.25,-9.85 a 14.17165,14.17165 0 0 0 -3.15,-8.84 c -2.1,-2.68005 -5.14,-4.12006 -9.1,-4.28 a 11.59155,11.59155 0 0 0 -6.5601,2.31 c -1.75,1.37 -3.06,2.34 -3.9399,2.94 l -7.87,-4.37 v -34.13 h 40.25 l -3.5,11.37 h -25.38 v 16.63 a 10.28613,10.28613 0 0 1 5.1899,-3.5 20.09066,20.09066 0 0 1 6.19,-0.87 21.35175,21.35175 0 0 1 14.1201,5.68 c 4.32,3.76 6.6,9.15 6.88,16.19 z"
     id="path26-3" /><path
     class="cls-1"
     d="m 1378.5036,228.48 q -6.39,-10.11 -17.0601,-10.5 -10.665,0.27 -17.06,10.06 -6.4049,9.78 -6.5699,25.81 0.165,16.02 6.5699,25.81 6.39,9.795 17.06,10.06 10.6651,-0.27 17.0601,-10.06 6.4049,-9.78 6.56,-25.81 -0.165,-15.285 -6.56,-25.37 z m -8.84,44.43 q -3.075,6.015 -8.22,5.94 -5.145,0.075 -8.22,-5.94 -3.075,-6.015 -3.16,-19.06 0.09,-13.05 3.16,-19.06 3.075,-6.015 8.22,-5.94 5.1451,-0.075 8.22,5.94 3.0749,6.015 3.15,19.06 -0.075,13.05 -3.15,19.06 z"
     id="path28" /><polygon
     class="cls-1"
     points="459.28,288.75 448.78,288.75 453.16,239.75 463.66,239.75 475.91,264.25 488.16,239.75 498.66,239.75 503.03,288.75 492.53,288.75 489.91,254.62 475.91,282.62 461.91,254.62 "
     id="polygon30"
     transform="translate(950.22361,0.1)" /><rect
     class="cls-1"
     x="1512.2236"
     y="53.099998"
     width="123"
     height="244"
     id="rect32" /><g
     id="layer1"
     transform="translate(0.2236068,0.1)"><polygon
       class="cls-1"
       points="562.22,218.75 572.72,218.75 572.72,288.75 560.47,288.75 560.47,234.5 551.09,240.38 546.97,235 "
       id="polygon22" /><polygon
       class="cls-1"
       points="538.5,175 578.75,205.62 578.75,185.94 766,185.94 766,164.06 578.75,164.06 578.75,144.38 "
       id="polygon24" /><path
       class="cls-1"
       d="m 688.78,228.38 q -6.39,-10.11 -17.06006,-10.5 -10.665,0.27 -17.06,10.06 -6.40494,9.78 -6.56994,25.81 0.165,16.02 6.56994,25.81 6.39,9.795 17.06,10.06 10.66508,-0.27 17.06006,-10.06 6.40494,-9.78 6.56,-25.81 -0.165,-15.285 -6.56,-25.37 z m -8.84,44.43 q -3.075,6.015 -8.22,5.94 -5.145,0.075 -8.22,-5.94 -3.075,-6.015 -3.16,-19.06 0.09,-13.05 3.16,-19.06 3.075,-6.015 8.22,-5.94 5.14508,-0.075 8.22,5.94 3.07492,6.015 3.15,19.06 -0.075,13.05 -3.15,19.06 z"
       id="path26" /><polygon
       class="cls-1"
       points="709.28,288.75 713.66,239.75 724.16,239.75 736.41,264.25 748.66,239.75 759.16,239.75 763.53,288.75 753.03,288.75 750.41,254.62 736.41,282.62 722.41,254.62 719.78,288.75 "
       id="polygon28" /><rect
       class="cls-1"
       x="365"
       y="53"
       width="123"
       height="244"
       id="rect30" /><path
       class="cls-1"
       d="m 629.12,228.38 q -6.39,-10.11 -17.06006,-10.5 -10.665,0.27 -17.06,10.06 -6.40494,9.78 -6.57,25.81 0.165,16.02 6.57,25.81 6.39,9.795 17.06,10.06 10.66508,-0.27 17.06006,-10.06 6.40494,-9.78 6.56,-25.81 -0.16508,-15.285 -6.56,-25.37 z m -8.84,44.43 q -3.075,6.015 -8.22,5.94 -5.145,0.075 -8.22,-5.94 -3.075,-6.015 -3.16,-19.06 0.09,-13.05 3.16,-19.06 3.075,-6.015 8.22,-5.94 5.14509,-0.075 8.22,5.94 3.07491,6.015 3.15,19.06 -0.0751,13.05 -3.15,19.06 z"
       id="path32" /></g><metadata
     id="metadata9198"><rdf:RDF><cc:Work
         rdf:about=""><dc:title>5.81 Покажчик напрямків і відстані до аварійних виходів</dc:title></cc:Work></rdf:RDF></metadata></svg>
