<svg xmlns="http://www.w3.org/2000/svg" width="904" height="1354" viewBox="0 0 904 1354"><defs><style>.a { fill: rgb(255, 255, 255); }.b { fill: rgb(4, 174, 103); }</style></defs><g><rect class="a" x="1" y="1" width="902" height="1352" rx="46"/><path d="M857,2a45,45,0,0,1,45,45V1307a45,45,0,0,1-45,45H47a45.00008,45.00008,0,0,1-45-45V47A45.00011,45.00011,0,0,1,47,2H857m0-2H47A47.05332,47.05332,0,0,0,0,47V1307a47.05335,47.05335,0,0,0,47,47H857a47.05334,47.05334,0,0,0,47-47V47A47.05331,47.05331,0,0,0,857,0Z"/></g><rect class="b" x="22" y="22" width="860" height="1310" rx="25"/><path class="a" d="M279,447H429l-30,885H50Zm345,0H474l30,885H853ZM22,347v68H137v99h67l26-99H674l26,99h67V415H882V347Zm296-30H429L442,22H391ZM513,22H462l13,295H586Z"/><g><g><rect class="a" x="137.333" y="947.333" width="629.333" height="309.333" rx="42.66667"/><path d="M724,952.66667A37.37558,37.37558,0,0,1,761.33333,990v224A37.37558,37.37558,0,0,1,724,1251.33333H180A37.37556,37.37556,0,0,1,142.66667,1214V990A37.37556,37.37556,0,0,1,180,952.66667H724M724,942H180a48,48,0,0,0-48,48v224a48,48,0,0,0,48,48H724a48,48,0,0,0,48-48V990A48,48,0,0,0,724,942Z"/></g><g><path d="M604.53333,969.73333A132.21633,132.21633,0,0,0,489.632,1036.44267a108.26227,108.26227,0,0,0-173.68534,1.83467,90.66666,90.66666,0,1,0-.77435,128.21968q.38951-.38484.77435-.77435a108.26224,108.26224,0,0,0,173.68534,1.83467,132.27562,132.27562,0,1,0,114.90133-197.824Zm-291.04,184.768c-.90668,1.13067-1.84533,2.24-2.80534,3.31734a84.0854,84.0854,0,1,1,0-111.63734c.96,1.07734,1.89866,2.18667,2.80534,3.31734A84.1019,84.1019,0,0,1,313.49333,1154.50133Zm173.248-3.46666c-.94935,1.68533-1.94134,3.34933-2.976,4.97067a100.43759,100.43759,0,0,1-164.8,6.50667,90.60905,90.60905,0,0,0,0-121.024,100.4376,100.4376,0,0,1,164.8,6.50667c1.03467,1.62133,2.02666,3.28533,2.976,4.97067a100.54141,100.54141,0,0,1,0,98.06933ZM599.2,1224.66667a122.635,122.635,0,0,1-106.37868-61.52533,108.28925,108.28925,0,0,0,0-122.28266A122.6797,122.6797,0,1,1,599.2,1224.66667Z"/><g><path d="M213.47292,1059.974h12.54374V1143.6H211.38229v-64.81042l-11.2,7.01875-4.92813-6.42133Z"/><path d="M299.48646,1101.787c0,25.088-11.49792,42.85885-28.22344,42.85885-16.725,0-28.224-17.77083-28.224-42.85885s11.499-42.85885,28.224-42.85885C287.98854,1058.92813,299.48646,1078.04267,299.48646,1101.787Zm-41.81249,0c0,20.90677,5.525,29.86615,13.589,29.86615s13.58906-8.95938,13.58906-29.86615-5.525-29.86667-13.58906-29.86667S257.674,1080.88021,257.674,1101.787Z"/></g><g><path d="M376.63073,1053.28385c12.73073,0,26.61875,10.41615,26.61875,24.30365,0,11.57344-2.14948,15.21042-8.10156,22.48542-7.27448,9.25833-18.18646,19.34375-30.09011,31.90833h38.19167a45.29986,45.29986,0,0,1-3.4724,15.04583H344.226v-13.8875a352.28955,352.28955,0,0,0,33.72761-35.05105c5.62133-6.613,9.75467-11.24219,9.75467-20.50105,0-5.78645-5.29068-12.06927-13.39219-12.06927-6.94375,0-12.73073,6.28282-18.5172,12.06927l-9.25834-10.41562C353.48438,1059.23594,362.74271,1053.28385,376.63073,1053.28385Z"/><path d="M433.17292,1069.48645v21.98907c3.47239-4.62917,9.75465-5.78646,15.04583-5.78646a28.366,28.366,0,0,1,27.775,28.9328c0,18.51771-13.8875,33.5625-35.87656,33.5625-10.41615,0-21.98907-4.62917-21.98907-4.62917l-2.31458-15.04479c5.62083,3.80208,14.38386,4.62917,21.98906,4.62917,9.25886,0,20.83178-5.7875,20.83178-17.36042,0-8.101-5.78646-17.3599-16.20261-17.3599-6.94375,0-11.57344,5.787-13.888,6.94428l-10.41562-5.787v-45.13541h53.23642l-4.62916,15.04533Z"/></g><g><path d="M551.84062,1063.58125v25.53542c4.03126-5.376,11.32709-6.7198,17.47084-6.7198a32.94156,32.94156,0,0,1,32.25521,33.59893c0,21.50313-16.12813,38.974-41.6625,38.974-12.09584,0-25.53542-5.376-25.53542-5.376l-2.6875-17.47084c6.52813,4.41563,16.70312,5.376,25.53542,5.376,10.751,0,24.19062-6.7198,24.19062-20.15938,0-9.40833-6.71979-20.15937-18.81562-20.15937-8.06355,0-13.43959,6.71979-16.12709,8.06354l-12.09583-6.71979v-52.41351h61.82188l-5.376,17.47083Z"/><path d="M688.34792,1099.86774c0,32.25521-14.78334,55.10208-36.28646,55.10208S615.775,1132.123,615.775,1099.86774c0-32.25417,14.78333-55.101,36.28646-55.101S688.34792,1069.34167,688.34792,1099.86774Zm-53.7573,0c0,26.87917,7.10313,38.39893,17.47084,38.39893s17.47187-11.51979,17.47187-38.39893c0-26.87813-7.10416-38.39787-17.47187-38.39787S634.59062,1072.98958,634.59062,1099.86774Z"/></g></g></g></svg>