<svg id="Слой_1" data-name="Слой 1" xmlns="http://www.w3.org/2000/svg" xmlns:xlink="http://www.w3.org/1999/xlink" width="1800" height="520" viewBox="0 0 1800 520">
  <defs>
    <style>
      .cls-1 {
        fill: none;
      }

      .cls-2 {
        fill: #fff;
      }

      .cls-3 {
        fill: #055c9d;
      }

      .cls-4 {
        clip-path: url(#clip-path);
      }

      .cls-5 {
        fill: #da251d;
      }
    </style>
    <clipPath id="clip-path">
      <rect class="cls-1" x="10" y="10" width="1780" height="500" rx="35"/>
    </clipPath>
  </defs>
  <g>
    <rect class="cls-2" x="0.5" y="0.5" width="1799" height="519" rx="44.5"/>
    <path d="M1755,1a44.04994,44.04994,0,0,1,44,44V475a44.04994,44.04994,0,0,1-44,44H45A44.04994,44.04994,0,0,1,1,475V45A44.05,44.05,0,0,1,45,1H1755m0-1H45A45.00011,45.00011,0,0,0,0,45V475a45.00011,45.00011,0,0,0,45,45H1755a45.00008,45.00008,0,0,0,45-45V45a45.00008,45.00008,0,0,0-45-45Z"/>
  </g>
  <rect class="cls-3" x="10" y="10" width="1780" height="500" rx="35"/>
  <g>
    <path class="cls-2" d="M274.69336,117.76025H292.627v38.24707c.36621.36622,1.09815.36622,2.01319.36622,18.66552,0,23.97265-38.61329,50.50732-41.17481l3.84326,17.93359c-9.88183,0-12.44384,5.49024-17.93408,12.80957-4.94092,6.40528-12.99268,17.93457-17.93359,17.93457,12.80957,1.28028,16.65283,10.79688,23.05761,21.77637,7.50293,12.99317,14.09082,27.63281,23.05811,34.58692H336.9126c-3.29395-6.40528-13.542-23.05762-19.94678-34.58692-4.57471-8.05176-8.9668-12.80957-16.65283-12.80957-2.562,0-7.686.54883-7.686.54883v46.84766H274.69336Z"/>
    <path class="cls-2" d="M446.7124,169.00049c0,29.64551-13.542,53.80078-41.72363,53.80078-28.18213,0-41.72363-24.15527-41.72363-53.80078,0-29.64649,13.5415-53.80176,41.72363-53.80176C433.17041,115.19873,446.7124,139.354,446.7124,169.00049Zm-66.0625,0c0,23.05762,10.248,37.14844,24.33887,37.14844s24.33887-14.09082,24.33887-37.14844c0-23.0586-10.248-37.14942-24.33887-37.14942S380.6499,145.94189,380.6499,169.00049Z"/>
    <path class="cls-2" d="M459.70508,117.76025h17.93408v40.99219h38.42969V117.76025h17.93408v102.4795H516.06885V174.12451H477.63916v46.11524H459.70508Z"/>
    <path class="cls-2" d="M620.74512,117.76025v15.37207H592.56348v87.10743h-17.9336V133.13232H546.44824V117.76025Z"/>
    <path class="cls-2" d="M667.77539,117.76025c24.33887,0,33.30566,19.21485,33.30566,33.30567s-8.96679,33.30566-33.30566,33.30566H651.12305v35.86817h-17.9336V117.76025Zm-16.65234,51.24024h11.52832c10.248,0,20.49609-5.124,20.49609-17.93457,0-12.80957-10.24805-17.9336-20.49609-17.9336H651.12305Z"/>
    <path class="cls-2" d="M798.80273,169.00049c0,29.64551-13.542,53.80078-41.72363,53.80078s-41.72363-24.15527-41.72363-53.80078c0-29.64649,13.542-53.80176,41.72363-53.80176S798.80273,139.354,798.80273,169.00049Zm-66.0625,0c0,23.05762,10.24805,37.14844,24.33887,37.14844S781.418,192.05811,781.418,169.00049c0-23.0586-10.248-37.14942-24.33887-37.14942S732.74023,145.94189,732.74023,169.00049Z"/>
    <path class="cls-2" d="M824.60645,186.93408c1.28125-7.68554,1.28125-46.11621,1.28125-69.17383h64.04882v102.4795H872.00293V133.13232H843.82129s0,38.42969-1.28125,51.23926c-3.66016,35.86817-34.58692,38.42969-34.58692,38.42969l-2.92773-17.20117S822.22754,201.0249,824.60645,186.93408Z"/>
    <path class="cls-2" d="M907.50488,117.76025h17.9336v39.71094h21.77636c25.62012,0,32.02539,16.65332,32.02539,29.46289s-8.96679,33.30567-34.58691,33.30567H907.50488Zm35.86719,87.10743c11.5293,0,17.93359-5.124,17.93359-15.37207,0-10.24707-6.40429-16.65235-17.93359-16.65235H925.43848v32.02442Z"/>
    <path class="cls-2" d="M1069.27344,169.00049c0,29.64551-13.542,53.80078-41.72364,53.80078s-41.72363-24.15527-41.72363-53.80078c0-29.64649,13.542-53.80176,41.72363-53.80176S1069.27344,139.354,1069.27344,169.00049Zm-66.0625,0c0,23.05762,10.248,37.14844,24.33886,37.14844s24.33887-14.09082,24.33887-37.14844c0-23.0586-10.24805-37.14942-24.33887-37.14942S1003.21094,145.94189,1003.21094,169.00049Z"/>
    <path class="cls-2" d="M1121.97754,117.76025c19.21484,0,30.01172,14.64063,30.01172,28.18164,0,7.68653-5.67285,16.65332-14.63965,20.4961,10.248,3.84277,17.93359,11.5293,17.93359,23.05762,0,16.65332-14.09082,30.74414-33.12207,30.74414h-39.89355V117.76025Zm-21.77637,41.72364h20.4961c7.68554,0,12.80957-5.48926,12.80957-13.17578,0-8.9668-6.40528-13.17579-12.80957-13.17579h-20.4961Zm0,45.38379h21.77637c10.248,0,15.37207-8.05176,15.37207-15.37207,0-7.31934-5.124-15.3711-15.37207-15.3711h-21.77637Z"/>
    <path class="cls-2" d="M1218.9668,117.76025l33.30566,102.4795h-19.21484l-6.4043-20.4961h-35.86816l-6.40528,20.4961H1165.165l33.30566-102.4795Zm2.5625,66.61133-12.81055-43.55371-12.80957,43.55371Z"/>
    <path class="cls-2" d="M1265.99805,117.76025h17.93359v40.99219h38.42969V117.76025h17.93359v102.4795h-17.93359V174.12451h-38.42969v46.11524h-17.93359Z"/>
    <path class="cls-2" d="M1357.86328,117.76025h17.9336v70.45508l37.14843-70.45508h19.21485v102.4795h-17.9336V149.78564l-37.14844,70.45411h-19.21484Z"/>
    <path class="cls-2" d="M1449.72949,117.76025h17.9336v70.45508l37.14843-70.45508h19.21485v102.4795h-17.9336V149.78564l-37.14843,70.45411h-19.21485Zm21.77637-33.30566c0,7.686,5.124,14.09082,15.37207,14.09082S1502.25,92.14062,1502.25,84.45459h11.52832c0,10.24805-8.9668,25.62012-26.90039,25.62012s-28.18164-15.37207-28.18164-25.62012Z"/>
    <path class="cls-2" d="M92.60742,301.76025h74.29737v102.48h-17.9336V317.13232H110.5415v87.10791H92.60742Z"/>
    <path class="cls-2" d="M219.06006,301.76025c24.33887,0,33.30566,19.21485,33.30566,33.30567s-8.96679,33.30517-33.30566,33.30517H202.40723v35.86914H184.47314v-102.48ZM202.40723,353H213.936c10.248,0,20.4956-5.12354,20.4956-17.93408,0-12.80957-10.24756-17.9336-20.4956-17.9336H202.40723Z"/>
    <path class="cls-2" d="M271.21436,301.76025h17.93408v70.45459l37.14844-70.45459h19.21484v102.48h-17.9336V333.78564L290.4292,404.24023H271.21436Z"/>
    <path class="cls-2" d="M361.79932,301.76025h17.93359v38.24707c.36621.36622,1.09814.36622,2.01318.36622,18.66553,0,23.97266-38.61329,50.50733-41.17481l3.84326,17.93359c-9.88184,0-12.44385,5.49024-17.93408,12.80957-4.94092,6.40528-12.99268,17.93457-17.9336,17.93457,12.80957,1.28028,16.65284,10.79737,23.05762,21.77588,7.50293,12.99414,14.09082,27.63282,23.05811,34.58789H424.01855c-3.29394-6.40625-13.542-23.05859-19.94677-34.58789-4.57471-8.05078-8.9668-12.80859-16.65283-12.80859-2.562,0-7.686.54883-7.686.54883v46.84765H361.79932Z"/>
    <path class="cls-2" d="M533.81836,353c0,29.64648-13.54248,53.80078-41.72412,53.80078-28.18213,0-41.72363-24.1543-41.72363-53.80078,0-29.646,13.5415-53.80127,41.72363-53.80127C520.27588,299.19873,533.81836,323.354,533.81836,353Zm-66.063,0c0,23.05859,10.248,37.14844,24.33887,37.14844S516.43311,376.05859,516.43311,353c0-23.05811-10.24805-37.14893-24.33887-37.14893S467.75537,329.94189,467.75537,353Z"/>
    <path class="cls-2" d="M581.39746,301.76025c24.33887,0,33.30566,19.21485,33.30566,33.30567s-8.96679,33.30517-33.30566,33.30517H564.74512v35.86914h-17.9336v-102.48ZM564.74512,353h11.52832c10.248,0,20.49609-5.12354,20.49609-17.93408,0-12.80957-10.24805-17.9336-20.49609-17.9336H564.74512Z"/>
    <path class="cls-2" d="M637.39648,388.86719c5.124-12.8086,11.52832-47.02979,11.52832-71.73487V301.76025h60.207v87.10694h11.52832v33.30664h-15.3711v-17.9336h-64.0498v17.9336H625.86719V388.86719Zm53.80176,0V317.13232H666.85938c0,24.33887-5.124,55.08252-12.07813,71.73487Z"/>
    <path class="cls-2" d="M809.415,353c0,29.64648-13.542,53.80078-41.72363,53.80078S725.96777,382.64648,725.96777,353c0-29.646,13.542-53.80127,41.72364-53.80127S809.415,323.354,809.415,353Zm-66.0625,0c0,23.05859,10.24805,37.14844,24.33887,37.14844S792.03027,376.05859,792.03027,353c0-23.05811-10.248-37.14893-24.33886-37.14893S743.35254,329.94189,743.35254,353Z"/>
    <path class="cls-2" d="M822.4082,301.76025h17.9336v40.99219h38.42968V301.76025h17.9336v102.48h-17.9336V358.125H840.3418v46.11523H822.4082Z"/>
    <path class="cls-2" d="M914.27441,301.76025H932.208v40.99219H970.6377V301.76025h17.93359v102.48H970.6377V358.125H932.208v46.11523h-17.9336Z"/>
    <path class="cls-2" d="M1006.13965,301.76025h17.93359v70.45459l37.14844-70.45459h19.21484v102.48h-17.93359V333.78564l-37.14844,70.45459h-19.21484Z"/>
    <path class="cls-2" d="M1098.00488,301.76025h17.9336v70.45459l37.14843-70.45459h19.21485v102.48h-17.9336V333.78564l-37.14843,70.45459h-19.21485Zm21.77637-33.30566c0,7.68652,5.124,14.09082,15.37207,14.09082s15.37207-6.4043,15.37207-14.09082h11.52832c0,10.248-8.9668,25.62012-26.90039,25.62012s-28.18164-15.37207-28.18164-25.62012Z"/>
    <path class="cls-2" d="M1300.21875,301.76025c24.33887,0,33.30566,19.21485,33.30566,33.30567s-8.96679,33.30517-33.30566,33.30517h-16.65234v35.86914h-17.9336v-102.48ZM1283.56641,353h11.52832c10.248,0,20.49609-5.12354,20.49609-17.93408,0-12.80957-10.248-17.9336-20.49609-17.9336h-11.52832Z"/>
    <path class="cls-2" d="M1402.332,301.76025l33.30567,102.48h-19.21485l-6.4043-20.49609h-35.86816l-6.40527,20.49609h-19.21485l33.30567-102.48Zm2.5625,66.61084L1392.084,324.81787l-12.80957,43.55322Z"/>
    <path class="cls-2" d="M1449.36328,301.76025h17.9336v70.45459l37.14843-70.45459h19.21485v102.48h-17.9336V333.78564l-37.14844,70.45459h-19.21484Zm21.77637-33.30566c0,7.68652,5.124,14.09082,15.37207,14.09082s15.37207-6.4043,15.37207-14.09082h11.52832c0,10.248-8.9668,25.62012-26.90039,25.62012s-28.18164-15.37207-28.18164-25.62012Z"/>
    <path class="cls-2" d="M1620.10156,353c0,29.64648-13.542,53.80078-41.72363,53.80078S1536.6543,382.64648,1536.6543,353c0-29.646,13.542-53.80127,41.72363-53.80127S1620.10156,323.354,1620.10156,353Zm-66.0625,0c0,23.05859,10.248,37.14844,24.33887,37.14844S1602.7168,376.05859,1602.7168,353c0-23.05811-10.248-37.14893-24.33887-37.14893S1554.03906,329.94189,1554.03906,353Z"/>
    <path class="cls-2" d="M1633.09473,301.76025h17.93359v40.99219H1689.458V301.76025h17.93359v102.48H1689.458V358.125h-38.42969v46.11523h-17.93359Z"/>
  </g>
  <g class="cls-4">
    <polygon class="cls-5" points="110 510 1790 31 1790 10 1690 10 10 490 10 510 110 510"/>
  </g>
</svg>
