<svg xmlns="http://www.w3.org/2000/svg" width="604" height="904">
<title>6.10 Дорожні станції патрульної поліції</title>
<defs><style>.cls-1{fill:#fff}</style></defs><rect class="cls-1" x="2" y="2" width="600" height="900" rx="45"/><path d="M557 2a45 45 0 0 1 45 45v810a45 45 0 0 1-45 45H47a45 45 0 0 1-45-45V47A45 45 0 0 1 47 2h510m0-2H47A47.053 47.053 0 0 0 0 47v810a47.053 47.053 0 0 0 47 47h510a47.053 47.053 0 0 0 47-47V47a47.053 47.053 0 0 0-47-47z"/><rect x="12" y="12" width="580" height="880" rx="35" style="fill:#005da2"/><rect class="cls-1" x="53" y="129" width="498" height="498" rx="35"/><g><path d="M119.855 273.17h6.02c5.074-5.848 6.45-17.63 7.826-51.427h37.237v51.427h7.569v21.672h-7.826l-1.72-12.9H129.4l-1.72 12.9h-7.826zm41.022 0v-42.483h-18.404c-1.204 22.79-2.58 35.26-6.106 42.483zM204.049 282.63c-12.642 0-19.694-7.998-19.694-22.188 0-14.19 7.052-22.187 19.694-22.187 12.556 0 19.78 7.997 19.78 22.187 0 14.19-7.224 22.188-19.78 22.188zm0-8.428c6.622 0 10.234-4.644 10.234-13.76s-3.612-13.76-10.234-13.76c-6.708 0-10.148 4.644-10.148 13.76 0 9.03 3.44 13.76 10.148 13.76zM255.992 238.255c11.266 0 17.716 7.997 17.716 22.187 0 14.19-6.45 22.188-17.802 22.188-5.332 0-9.46-1.978-12.126-5.762v20.554h-9.546v-58.48h8.944v5.763c2.752-4.214 7.052-6.45 12.814-6.45zm-1.978 8.428c-6.708 0-10.234 4.643-10.234 13.76 0 9.115 3.526 13.76 10.234 13.76 6.622 0 10.148-4.645 10.148-13.675 0-9.115-3.526-13.845-10.148-13.845zM301.227 282.63c-12.642 0-19.694-7.998-19.694-22.188 0-14.19 7.052-22.187 19.694-22.187 12.555 0 19.78 7.997 19.78 22.187 0 14.19-7.225 22.188-19.78 22.188zm0-8.428c6.622 0 10.234-4.644 10.234-13.76s-3.612-13.76-10.234-13.76c-6.708 0-10.148 4.644-10.148 13.76 0 9.03 3.44 13.76 10.148 13.76zM347.236 264.14l-11.265 17.802h-10.664l14.534-22.188-13.588-20.812h10.577l10.406 16.512h4.558v-16.512h8.944v16.512h4.558l10.406-16.512h10.577l-13.588 20.812 14.449 22.188h-10.578l-11.266-17.802h-4.558v17.802h-8.944V264.14zM404.77 281.942h-9.545v-43h9.546v17.114h18.489v-17.114h9.546v43h-9.546v-17.716h-18.49zM453.36 264.914c-5.762-1.892-8.944-6.192-8.944-12.556 0-8.513 5.934-13.416 16.426-13.416h19.35v43h-9.546v-15.996h-7.998l-9.203 15.996h-10.319zm17.286-18.145h-9.804c-4.473 0-6.88 2.15-6.88 5.933 0 3.784 2.407 5.934 6.88 5.934h9.804zM165.608 344.442c0 8.858 3.87 13.846 10.578 13.846 4.042 0 6.88-1.806 9.115-5.59l7.053 5.074c-3.785 5.934-9.117 8.858-16.599 8.858-12.641 0-19.693-8.084-19.693-22.188s7.138-22.187 19.693-22.187c7.482 0 12.814 2.838 16.599 8.771l-7.053 5.16c-2.15-3.698-5.073-5.503-9.115-5.503-6.708 0-10.578 4.901-10.578 13.76zM196.826 322.942h36.635v8.17H219.96v34.83h-9.545v-34.83h-13.588zM239.74 328.188a26.37 26.37 0 0 1 17.457-5.933c11.094 0 16.942 4.988 16.942 14.62v17.801c0 3.01 1.462 5.16 4.042 5.762l-2.924 6.192c-4.472 0-7.654-1.634-9.288-4.558-2.408 2.838-7.138 4.558-12.814 4.558-9.546 0-14.878-4.558-14.878-12.298 0-8.084 6.02-13.244 16.168-13.932l10.148-.516v-2.58c0-4.386-2.924-6.88-8.428-6.88a18.217 18.217 0 0 0-11.523 4.128zm15.48 18.92c-4.989.258-7.826 2.58-7.826 6.364s2.752 5.848 8.084 5.848c5.847 0 9.115-2.752 9.115-8.084v-4.644zM296.068 365.942h-9.546v-43h9.546v17.114h18.49v-17.114h9.546v43h-9.545v-17.716h-18.49zM373.037 377.981l-1.72-12.04h-34.141v-42.999h9.546v34.83h17.63v-34.83h9.544v34.83h6.45v20.21zM393.505 304.109a5.762 5.762 0 1 1-5.762 5.762 5.676 5.676 0 0 1 5.762-5.762zm4.816 61.833h-9.546v-43h9.546zM418.874 348.914c-5.762-1.892-8.943-6.192-8.943-12.556 0-8.513 5.933-13.416 16.425-13.416h19.35v43h-9.546v-15.996h-7.998l-9.202 15.996h-10.32zm17.286-18.145h-9.804c-4.472 0-6.88 2.15-6.88 5.933 0 3.784 2.408 5.934 6.88 5.934h9.804zM87.95 449.941v-42.999h37.152v43h-9.546v-34.83h-18.06v34.83zM136.885 412.188a26.37 26.37 0 0 1 17.457-5.934c11.094 0 16.942 4.988 16.942 14.62v17.802c0 3.01 1.462 5.16 4.042 5.762l-2.924 6.191c-4.472 0-7.654-1.633-9.288-4.558-2.408 2.838-7.138 4.558-12.814 4.558-9.546 0-14.877-4.558-14.877-12.297 0-8.084 6.02-13.244 16.167-13.932l10.148-.516v-2.58c0-4.386-2.924-6.88-8.427-6.88a18.219 18.219 0 0 0-11.524 4.128zm15.48 18.92c-4.989.258-7.826 2.58-7.826 6.364 0 3.783 2.752 5.847 8.083 5.847 5.848 0 9.116-2.752 9.116-8.083v-4.644zM178.767 406.942h36.635v8.17H201.9v34.83h-9.546v-34.83h-13.587zM245.587 406.254c11.266 0 17.716 7.998 17.716 22.188 0 14.19-6.45 22.187-17.802 22.187-5.332 0-9.46-1.978-12.126-5.761v20.553h-9.546v-58.479h8.944v5.762c2.752-4.214 7.052-6.45 12.814-6.45zm-1.978 8.428c-6.708 0-10.234 4.644-10.234 13.76s3.526 13.76 10.234 13.76c6.622 0 10.148-4.644 10.148-13.674 0-9.116-3.526-13.846-10.148-13.846zM278.267 466.11a16.23 16.23 0 0 1-6.794-1.29l.946-8.085a9.138 9.138 0 0 0 4.214.946c3.612 0 5.762-2.064 7.654-7.74l-16.512-42.999h10.148l10.836 30.1 10.922-30.1h10.147l-17.715 46.268c-3.698 9.631-7.138 12.9-13.846 12.9zM310.518 442.718c7.396-2.065 8.944-7.482 10.148-35.776h30.357v43h-9.545v-34.916H329.18c-1.033 25.541-4.645 33.023-16.598 35.948zM398.58 436.268c0 8.686-6.02 13.673-16.512 13.673h-18.06v-42.999h9.547v15.738h8.513c10.493 0 16.512 4.902 16.512 13.588zm-16.512 5.761c4.558 0 6.966-1.977 6.966-5.761 0-3.698-2.408-5.762-6.966-5.762h-8.513v11.523zM418.445 449.941H408.9v-42.999h9.546v17.114h18.49v-17.114h9.545v43h-9.545v-17.716h-18.49zM476.666 450.63c-12.642 0-19.693-7.999-19.693-22.188 0-14.19 7.051-22.188 19.693-22.188 12.556 0 19.78 7.998 19.78 22.188 0 14.19-7.224 22.187-19.78 22.187zm0-8.428c6.622 0 10.234-4.644 10.234-13.76s-3.612-13.76-10.234-13.76c-6.708 0-10.147 4.644-10.147 13.76 0 9.03 3.439 13.76 10.147 13.76zM504.53 389.227a4.787 4.787 0 0 1 4.988 4.987 4.718 4.718 0 0 1-4.989 4.902 4.766 4.766 0 0 1-4.988-4.902 4.835 4.835 0 0 1 4.988-4.987zm11.867 60.714h-9.545v-42.999h9.545zm2.236-60.714a4.787 4.787 0 0 1 4.988 4.987 4.945 4.945 0 1 1-4.988-4.987zM176.23 533.941v-42.999h37.15v43h-9.545v-34.83h-18.06v34.83zM243.567 534.629c-12.642 0-19.693-7.997-19.693-22.188 0-14.19 7.051-22.187 19.693-22.187 12.556 0 19.78 7.998 19.78 22.187 0 14.19-7.224 22.188-19.78 22.188zm0-8.428c6.622 0 10.234-4.643 10.234-13.76 0-9.115-3.612-13.76-10.234-13.76-6.708 0-10.148 4.645-10.148 13.76 0 9.03 3.44 13.76 10.148 13.76zM268.249 526.718c7.396-2.065 8.944-7.483 10.148-35.776h30.358v43h-9.546v-34.916H286.91c-1.032 25.541-4.644 33.024-16.598 35.948zM326.47 472.108a5.762 5.762 0 1 1-5.761 5.762 5.676 5.676 0 0 1 5.762-5.762zm4.817 61.833h-9.546v-42.999h9.546zM380.22 545.981l-1.72-12.04h-34.142v-42.999h9.546v34.83h17.63v-34.83h9.545v34.83h6.45v20.21zM400.687 472.108a5.762 5.762 0 1 1-5.761 5.762 5.676 5.676 0 0 1 5.761-5.762zm4.817 61.833h-9.546v-42.999h9.546zM416.253 473.227a4.787 4.787 0 0 1 4.988 4.988 4.718 4.718 0 0 1-4.988 4.901 4.766 4.766 0 0 1-4.988-4.901 4.835 4.835 0 0 1 4.988-4.988zm11.868 60.714h-9.546v-42.999h9.546zm2.235-60.714a4.787 4.787 0 0 1 4.989 4.988 4.945 4.945 0 1 1-4.989-4.988z"/></g></svg>