<svg xmlns="http://www.w3.org/2000/svg" width="600" height="900"><path d="M550 0H50C22.5 0 0 22.5 0 50v800c0 27.5 22.5 50 50 50h500c27.5 0 50-22.5 50-50V50c0-27.5-22.5-50-50-50h0z"/><path fill="#fff" d="M550 .5c27.295 0 49.5 22.206 49.5 49.5v800c0 27.295-22.205 49.5-49.5 49.5H50C22.706 899.5.5 877.295.5 850V50C.5 22.706 22.706.5 50 .5h500"/><path fill="#005ca1" d="M587.791 851c0 19.25-15.75 35-35 35H48.209c-19.25 0-35.015-16.75-35.015-36V48.103c0-19.25 14.765-35.641 34.015-35.641h506.582c19.25 0 34 15.4 34 34.641V851z"/><path fill="#fff" d="M534.625 566.463c0 18.461-13.926 33.57-32.39 33.57H98.765c-18.463 0-32.515-15.109-32.515-33.57V164.57c0-18.464 14.052-33.57 32.515-33.57h403.471c18.464 0 32.39 15.1 32.39 33.57l-.001 401.893h0z"/><path d="M213 446.167h43.833l21 108.333-14.5 1-19.166-101.06-1 101.06h-15l-1-101.56L213 555.5h-17.333zM506.75 273.25v116.5s-19.5 1-19.5-14.25v-16.75h-76.5s-11 16.5-32.25 16.25-27.75-9.25-36.75-17.5H319.5s-57 5.5-57 57v24h-50s-6.107-43.555 13.854-80.31c12.186-22.438 32.702-41.371 73.646-49.878 6.386-1.326 13.332-.896 20.75-1.313 0 0 14.75 1.75 15.5-31.5h16.5V242l-29.461-.804s-11.682-2.23-12.286-16.468c-.5-11.75 10.497-14.978 10.497-14.978H427s11.5-.917 11.5 16.25c0 15.75-14.75 16.333-16.25 16.333H398v33.917l18.5 1.083v16.417s1.75 14.5 12.25 14.5H489v-21s2-13.5 17.75-14z"/></svg>