<svg xmlns="http://www.w3.org/2000/svg" width="600" height="900"><path d="M550 0H50C22.5 0 0 22.5 0 50v800c0 27.5 22.5 50 50 50h500c27.5 0 50-22.5 50-50V50c0-27.5-22.5-50-50-50h0z"/><path fill="#fff" d="M550 .5c27.295 0 49.5 22.206 49.5 49.5v800c0 27.295-22.205 49.5-49.5 49.5H50C22.706 899.5.5 877.295.5 850V50C.5 22.706 22.706.5 50 .5h500"/><path fill="#005ca1" d="M587.791 851c0 19.25-15.75 35-35 35H48.209c-19.25 0-35.015-16.75-35.015-36V48.103c0-19.25 14.765-35.641 34.015-35.641h506.582c19.25 0 34 15.4 34 34.641V851z"/><path fill="#fff" d="M534.625 566.463c0 18.461-13.926 33.57-32.39 33.57H98.765c-18.463 0-32.515-15.109-32.515-33.57V164.57c0-18.464 14.052-33.57 32.515-33.57h403.471c18.464 0 32.39 15.1 32.39 33.57l-.001 401.893h0z"/><path d="M280.651 430.386c.893-7.164 6.624-38.552 38.516-38.552 28.495 0 36.494 28.598 38.438 38.782L486.5 431V234s-1-27.5-28.666-27.5H173.167C153.5 206.5 152.5 238 152.5 238l-1.781 171H115v114.5h369v-38l-146.387.824L325.5 447.5s11.333-7 11.333-18.333-9-18.333-17.333-18.333-19.008 4.667-19.008 17.667 9.341 19 9.341 19l-11.543 39H151.5l1-56.497 128.151.382zM354.5 279.167h95.333v74.667H354.5v-74.667zm-166.333 0h95v74.667h-95v-74.667h0z"/></svg>