<svg xmlns="http://www.w3.org/2000/svg" width="604" height="904">
<title>6.7.7 Автозаправні та електрозарядні станції</title>
<defs><style>.cls-1{fill:#fff}</style></defs><rect class="cls-1" x="2" y="2" width="600" height="900" rx="45"/><path d="M557 2a45 45 0 0 1 45 45v810a45 45 0 0 1-45 45H47a45 45 0 0 1-45-45V47A45 45 0 0 1 47 2h510m0-2H47A47.053 47.053 0 0 0 0 47v810a47.053 47.053 0 0 0 47 47h510a47.053 47.053 0 0 0 47-47V47a47.053 47.053 0 0 0-47-47z"/><rect x="12" y="12" width="580" height="880" rx="35" style="fill:#005da2"/><rect class="cls-1" x="53" y="129" width="498" height="498" rx="35"/><path d="M401 190h106a20 20 0 0 1 20 20v266H381V210a20 20 0 0 1 20-20z" style="fill:#04ae67"/><path class="cls-1" d="M423 220h62a20 20 0 0 1 20 20v46a20 20 0 0 1-20 20h-62a20 20 0 0 1-20-20v-46a20 20 0 0 1 20-20z"/><path d="M142.869 566h-4.293A60.645 60.645 0 0 1 78 505.424a80.058 80.058 0 0 1 22.232-55.505l64.754-67.861a26.286 26.286 0 0 0 7.3-18.225v-39.204A22.654 22.654 0 0 1 194.914 302H210v15.086h-15.086a7.551 7.551 0 0 0-7.543 7.543v39.204a41.308 41.308 0 0 1-11.471 28.639l-64.753 67.861a65.036 65.036 0 0 0-18.061 45.09 45.542 45.542 0 0 0 45.49 45.491h4.293a45.309 45.309 0 0 0 45.257-45.257v-93.531a18.878 18.878 0 0 1 18.857-18.857H210v15.085h-3.017a3.776 3.776 0 0 0-3.772 3.772v93.531A60.411 60.411 0 0 1 142.87 566z"/><path class="cls-1" d="M155.142 796.042c-20.02 0-34.72-11.9-34.72-28.42a25.47 25.47 0 0 1 15.96-23.8 22.89 22.89 0 0 1-13.86-21.28c0-15.54 13.86-26.74 32.62-26.74s32.62 11.06 32.62 26.46a23.804 23.804 0 0 1-13.86 21.56 25.191 25.191 0 0 1 15.96 23.8c0 16.52-14.7 28.42-34.72 28.42zm.14-13.72c10.92 0 19.04-6.86 19.04-16.24 0-9.1-8.12-15.54-19.18-15.54s-19.18 6.58-19.18 15.68c0 9.38 8.26 16.1 19.32 16.1zm-.14-44.66c9.94 0 17.08-6.02 17.08-14.28 0-7.98-7.28-13.86-17.08-13.86s-17.08 5.88-17.08 13.86c0 8.26 7.28 14.28 17.08 14.28zM237.741 695.383c22.54 0 33.6 16.799 33.6 50.4 0 33.46-11.06 50.259-33.6 50.259-22.4 0-33.46-16.8-33.46-50.26 0-33.6 11.06-50.4 33.46-50.4zm-17.92 50.4c0 23.519 6.3 36.54 17.92 36.54s18.06-13.021 18.06-36.54c0-23.66-6.44-36.681-18.06-36.681s-17.92 13.02-17.92 36.68zM320.34 695.383c22.54 0 33.601 16.799 33.601 50.4 0 33.46-11.06 50.259-33.6 50.259-22.4 0-33.46-16.8-33.46-50.26 0-33.6 11.06-50.4 33.46-50.4zm-17.92 50.4c0 23.519 6.3 36.54 17.92 36.54s18.061-13.021 18.061-36.54c0-23.66-6.44-36.681-18.06-36.681s-17.92 13.02-17.92 36.68zM439.2 783.441l-19.6-33.6.14 45.08h-14.7v-70H421l21.28 36.68 21.42-36.68h15.82v70h-14.561v-45.08l-19.46 33.6z"/><path d="M318 236h106a20 20 0 0 1 20 20v266H298V256a20 20 0 0 1 20-20z" style="fill:#4fb2fd"/><path class="cls-1" d="M340 266h62a20 20 0 0 1 20 20v46a20 20 0 0 1-20 20h-62a20 20 0 0 1-20-20v-46a20 20 0 0 1 20-20z"/><path d="M235 282h106a20 20 0 0 1 20 20v266H215V302a20 20 0 0 1 20-20z"/><path class="cls-1" d="M257 312h62a20 20 0 0 1 20 20v46a20 20 0 0 1-20 20h-62a20 20 0 0 1-20-20v-46a20 20 0 0 1 20-20z"/></svg>