<svg xmlns="http://www.w3.org/2000/svg" width="604" height="904">
<title>6.7.6 Автозаправні та електрозарядні станції</title>
<defs><style>.cls-1{fill:#fff}.cls-4{fill:#4fb2fd}</style></defs><rect class="cls-1" x="2" y="2" width="600" height="900" rx="45"/><path d="M557 2a45 45 0 0 1 45 45v810a45 45 0 0 1-45 45H47a45 45 0 0 1-45-45V47A45 45 0 0 1 47 2h510m0-2H47A47.053 47.053 0 0 0 0 47v810a47.053 47.053 0 0 0 47 47h510a47.053 47.053 0 0 0 47-47V47a47.053 47.053 0 0 0-47-47z"/><rect x="12" y="12" width="580" height="880" rx="35" style="fill:#005da2"/><rect class="cls-1" x="53" y="129" width="498" height="498" rx="35"/><path d="M361 186h128a20 20 0 0 1 20 20v310H341V206a20 20 0 0 1 20-20z" style="fill:#04ae67"/><rect class="cls-1" x="366" y="220" width="118" height="100" rx="20"/><path class="cls-4" d="M159.68 570h-5.008A70.752 70.752 0 0 1 84 499.328a93.4 93.4 0 0 1 25.938-64.756l75.545-79.171A30.667 30.667 0 0 0 194 334.138V288.4a26.43 26.43 0 0 1 26.4-26.4H238v17.6h-17.6a8.81 8.81 0 0 0-8.8 8.8v45.738a48.192 48.192 0 0 1-13.383 33.413l-75.546 79.171a75.875 75.875 0 0 0-21.071 52.606 53.132 53.132 0 0 0 53.072 53.072h5.008a52.86 52.86 0 0 0 52.8-52.8V390.48a22.025 22.025 0 0 1 22-22H238v17.6h-3.52a4.405 4.405 0 0 0-4.4 4.4V499.6a70.48 70.48 0 0 1-70.4 70.4z"/><path class="cls-1" d="M155.142 796.042c-20.02 0-34.72-11.9-34.72-28.42a25.47 25.47 0 0 1 15.96-23.8 22.89 22.89 0 0 1-13.86-21.28c0-15.54 13.86-26.74 32.62-26.74s32.62 11.06 32.62 26.46a23.804 23.804 0 0 1-13.86 21.56 25.191 25.191 0 0 1 15.96 23.8c0 16.52-14.7 28.42-34.72 28.42zm.14-13.72c10.92 0 19.04-6.86 19.04-16.24 0-9.1-8.12-15.54-19.18-15.54s-19.18 6.58-19.18 15.68c0 9.38 8.26 16.1 19.32 16.1zm-.14-44.66c9.94 0 17.08-6.02 17.08-14.28 0-7.98-7.28-13.86-17.08-13.86s-17.08 5.88-17.08 13.86c0 8.26 7.28 14.28 17.08 14.28zM237.741 695.383c22.54 0 33.6 16.799 33.6 50.4 0 33.46-11.06 50.259-33.6 50.259-22.4 0-33.46-16.8-33.46-50.26 0-33.6 11.06-50.4 33.46-50.4zm-17.92 50.4c0 23.519 6.3 36.54 17.92 36.54s18.06-13.021 18.06-36.54c0-23.66-6.44-36.681-18.06-36.681s-17.92 13.02-17.92 36.68zM320.34 695.383c22.54 0 33.601 16.799 33.601 50.4 0 33.46-11.06 50.259-33.6 50.259-22.4 0-33.46-16.8-33.46-50.26 0-33.6 11.06-50.4 33.46-50.4zm-17.92 50.4c0 23.519 6.3 36.54 17.92 36.54s18.061-13.021 18.061-36.54c0-23.66-6.44-36.681-18.06-36.681s-17.92 13.02-17.92 36.68zM439.2 783.441l-19.6-33.6.14 45.08h-14.7v-70H421l21.28 36.68 21.42-36.68h15.82v70h-14.561v-45.08l-19.46 33.6z"/><path class="cls-4" d="M263 236h128a20 20 0 0 1 20 20v310H243V256a20 20 0 0 1 20-20z"/><rect class="cls-1" x="268" y="270" width="118" height="100" rx="20"/></svg>