<svg xmlns="http://www.w3.org/2000/svg" width="604" height="904">
<title>6.9 Пункт довідкової служби</title>
<defs><style>.cls-1{fill:#fff}</style></defs><rect class="cls-1" x="2" y="2" width="600" height="900" rx="45"/><path d="M557 2a45 45 0 0 1 45 45v810a45 45 0 0 1-45 45H47a45 45 0 0 1-45-45V47A45 45 0 0 1 47 2h510m0-2H47A47.053 47.053 0 0 0 0 47v810a47.053 47.053 0 0 0 47 47h510a47.053 47.053 0 0 0 47-47V47a47.053 47.053 0 0 0-47-47z"/><rect x="12" y="12" width="580" height="880" rx="35" style="fill:#005da2"/><rect class="cls-1" x="53" y="129" width="498" height="498" rx="35"/><circle cx="302" cy="245" r="40"/><path d="M400 530v36H226v-36h36V321h-36v-22h136v231h38z"/></svg>