<svg id="Слой_1" data-name="Слой 1" xmlns="http://www.w3.org/2000/svg" width="600" height="300" viewBox="0 0 600 300">
  <defs>
    <style>
      .cls-1 {
        fill: #fff;
      }
    </style>
  </defs>
  <g>
    <rect class="cls-1" x="5" y="5" width="590" height="290" rx="40"/>
    <path d="M555,10a35.03961,35.03961,0,0,1,35,35V255a35.03961,35.03961,0,0,1-35,35H45a35.0396,35.0396,0,0,1-35-35V45A35.0396,35.0396,0,0,1,45,10H555m0-10H45A45,45,0,0,0,0,45V255a45,45,0,0,0,45,45H555a45,45,0,0,0,45-45V45A45,45,0,0,0,555,0Z"/>
  </g>
  <path d="M298.43066,243.00977c-27.66455.001-50.54345-8.74805-68.0288-26.01563C210.78223,197.61816,202,170.38965,202,152h14c0,14.97559,7.58545,38.58594,24.23926,55.0332,15.0708,14.88379,35.15039,22.28125,59.67334,21.96778,33.28076-.416,58.57373-24.7666,79.6001-76.63086,7.59765-18.7417,19.55761-33.27442,35.54687-43.19336A88.88555,88.88555,0,0,1,462,96c47.25977,0,70.51953,21.65918,81.71,39.8291A96.61175,96.61175,0,0,1,557.5,183.5h-14c0-2.18164-.32812-21.84961-11.71-40.3291C518.2334,121.16016,494.75293,110,462,110c-31.43555,0-57.42188,17.80566-69.5127,47.62988-10.68457,26.35645-22.40625,45.916-35.835,59.7959-16.15722,16.70215-35.18847,25.30664-56.56494,25.57324C299.53418,243.00684,298.98,243.00977,298.43066,243.00977Z"/>
  <path d="M119.4165,52.82812c23.02979,0,49.34912,16.44971,49.34912,41.78223s-18.42382,43.75635-36.84716,46.05908c11.51465,2.30323,44.74316,16.12159,44.74316,46.05909,0,27.63574-24.0166,59.87695-67.77295,59.87695-18.42383,0-47.04638-7.89551-47.04638-7.89551l-3.94776-32.24121c11.186,7.56641,31.2544,10.19922,46.38818,10.19922,20.72657,0,39.1504-9.21289,39.4795-30.59766,0-7.89551-2.63184-26.97656-32.57032-26.97656-5.59326,0-11.51513,0-16.12109,2.30273v-25.333c23.02979-4.60547,41.45361-20.72657,41.45361-34.54444,0-11.51465-11.51513-20.72656-23.02978-20.72656-18.42383,0-27.63574,4.606-40.79541,15.792L60.52637,69.27783C72.0415,62.36865,100.99268,52.82812,119.4165,52.82812Z"/>
</svg>
