<svg id="Слой_1" data-name="Слой 1" xmlns="http://www.w3.org/2000/svg" width="600" height="300" viewBox="0 0 600 300">
  <defs>
    <style>
      .cls-1 {
        fill: #fff;
      }
    </style>
  </defs>
  <g>
    <rect class="cls-1" x="5" y="5" width="590" height="290" rx="40"/>
    <path d="M555,10a35.03961,35.03961,0,0,1,35,35V255a35.03961,35.03961,0,0,1-35,35H45a35.0396,35.0396,0,0,1-35-35V45A35.0396,35.0396,0,0,1,45,10H555m0-10H45A45,45,0,0,0,0,45V255a45,45,0,0,0,45,45H555a45,45,0,0,0,45-45V45A45,45,0,0,0,555,0Z"/>
  </g>
  <circle cx="344.5" cy="167.5" r="54"/>
  <circle cx="140.5" cy="167.5" r="54"/>
  <path d="M528,58c-11-4-19,0-23,4l-96.5,97.41v.07a64.50367,64.50367,0,0,0-127.67-2.33c-14.82-8.34-53.77-12.5-76.66,0A64.50332,64.50332,0,0,0,141.4,103.01c19.86-19.36,36.54-35.43,36.54-35.43a13.01436,13.01436,0,0,1,6-4c6.35-1.92,12.95,2.22,14,3,6.63,4.9,7,13.26,7,17v7h8v-7c0-6-2.75-20.81995-17-26-11-4-19,0-23,4l-43.43,42.36A64.5243,64.5243,0,0,0,76.7,158H72v18h4.56a64.49739,64.49739,0,0,0,128.43-7.92l.01.09c24.75-12.07,49.76-12.24,75.02.92a64.50061,64.50061,0,0,0,128.96.08v-.01C418.94,157.19,510,68,510,68a13.01352,13.01352,0,0,1,6-4c6.35-1.92,12.95,2.22,14,3,6.63,4.9,7,13.26,7,17v7h8V84C545,78,542.25,63.18,528,58ZM140.5,227a59.50253,59.50253,0,0,1-18.02-116.21,58.70482,58.70482,0,0,1,13.65-2.63c1.44-.11,2.9-.16,4.37-.16a59.5,59.5,0,0,1,0,119Zm204,0A59.5,59.5,0,1,1,404,167.5,59.56535,59.56535,0,0,1,344.5,227Z"/>
</svg>
