<svg id="Слой_1" data-name="Слой 1" xmlns="http://www.w3.org/2000/svg" width="600" height="300" viewBox="0 0 600 300">
  <defs>
    <style>
      .cls-1 {
        fill: #fff;
      }
    </style>
  </defs>
  <g>
    <rect class="cls-1" x="5" y="5" width="590" height="290" rx="40"/>
    <path d="M555,10a35.03961,35.03961,0,0,1,35,35V255a35.03961,35.03961,0,0,1-35,35H45a35.0396,35.0396,0,0,1-35-35V45A35.0396,35.0396,0,0,1,45,10H555m0-10H45A45,45,0,0,0,0,45V255a45,45,0,0,0,45,45H555a45,45,0,0,0,45-45V45A45,45,0,0,0,555,0Z"/>
  </g>
  <polygon points="296 185 296 215 108 215 108 240 28 200 108 160 108 185 296 185"/>
  <polygon points="492 240 492 215 304 215 304 185 492 185 492 160 572 200 492 240"/>
  <rect x="296" y="10" width="8" height="280"/>
  <g>
    <path d="M114.34668,64.35986H125.939v77.28028H112.41455V81.74805l-10.34961,6.48584-4.5542-5.93409Z"/>
    <path d="M193.28174,103c0,23.18408-10.626,39.606-26.082,39.606S141.11719,126.18408,141.11719,103s10.62646-39.606,26.08252-39.606S193.28174,81.05811,193.28174,103Zm-38.64014,0c0,19.32031,5.106,27.6001,12.55811,27.6001,7.45166,0,12.55761-8.27979,12.55761-27.6001s-5.106-27.6001-12.55761-27.6001C159.74756,75.3999,154.6416,83.67969,154.6416,103Z"/>
    <path d="M209.42725,87.544H221.019l13.52442,27.04785L248.06738,87.544h11.59229l4.82959,54.09619h-11.5918l-2.898-37.67432-15.456,30.91211L219.0874,103.96582l-2.898,37.67432H204.59717Z"/>
  </g>
  <g>
    <path d="M360.34668,64.35986H371.939v77.28028H358.41455V81.74805l-10.34961,6.48584-4.5542-5.93409Z"/>
    <path d="M439.28174,103c0,23.18408-10.626,39.606-26.082,39.606S387.11719,126.18408,387.11719,103s10.62646-39.606,26.08252-39.606S439.28174,81.05811,439.28174,103Zm-38.64014,0c0,19.32031,5.106,27.6001,12.55811,27.6001,7.45166,0,12.55761-8.27979,12.55761-27.6001s-5.106-27.6001-12.55761-27.6001C405.74756,75.3999,400.6416,83.67969,400.6416,103Z"/>
    <path d="M455.42725,87.544H467.019l13.52442,27.04785L494.06738,87.544h11.59229l4.82959,54.09619h-11.5918l-2.898-37.67432-15.45605,30.91211L465.0874,103.96582l-2.89795,37.67432H450.59717Z"/>
  </g>
</svg>
