<svg xmlns="http://www.w3.org/2000/svg" width="600" height="300" viewBox="0 0 600 300"><defs><style>.a { fill: rgb(255, 255, 255); }.b { fill-rule: evenodd; }</style></defs><g><rect class="a" x="5" y="5" width="590" height="290" rx="40"/><path d="M555,10a35.03961,35.03961,0,0,1,35,35V255a35.03961,35.03961,0,0,1-35,35H45a35.0396,35.0396,0,0,1-35-35V45A35.0396,35.0396,0,0,1,45,10H555m0-10H45A45,45,0,0,0,0,45V255a45,45,0,0,0,45,45H555a45,45,0,0,0,45-45V45A45,45,0,0,0,555,0Z"/></g><rect x="35.964" y="234.346" width="522.964" height="17.88"/><g><path class="b" d="M142.661,103.41729h-28.929L87.29173,130.48011a4.94728,4.94728,0,0,0,3.53732,8.40491h56.68108a1.98409,1.98409,0,0,0,1.98078-1.978V110.24276a6.84018,6.84018,0,0,0-6.82958-6.82548Zm63.91341,0h-43.018a6.83668,6.83668,0,0,0-6.82546,6.82548V136.907a1.98328,1.98328,0,0,0,1.97667,1.978h84.99441a1.979,1.979,0,0,0,1.30506-3.46735L209.82886,104.639a4.75959,4.75959,0,0,0-3.2544-1.22172Zm46.5317,103.85043h-111.017c-.18532-3.05374-.09214-6.13747-.33685-9.14471a37.08279,37.08279,0,0,0-73.47853-3.40051,15.73414,15.73414,0,0,1-7.16261-1.59029c-4.10212-2.18277-7.85471-5.1505-7.85471-10.735V143.92353c0-7.41785,4.27547-11.69474,7.50251-12.739a18.44955,18.44955,0,0,0,7.76595-4.887c2.26745-2.26745,33.63439-25.78244,36.60212-28.31331s7.06566-2.44211,10.8197-2.44211h87.99356c3.88088,0,6.45415-.09214,11.16635,3.26936,4.70956,3.35954,36.60212,32.19838,41.83863,36.037,5.23507,3.83859,8.02528,4.01336,14.39341,5.40984,6.36958,1.39372,31.84754,4.18669,40.65777,6.977C320.81086,150.02957,338,156.313,338,163.7269v17.88534c0,2.75069-2.31382,7.37559-4.66994,9.86007-1.432,1.51657-4.81059,2.30153-7.23224,2.68506a37.08267,37.08267,0,0,0-72.99129,13.11035Z"/><path class="b" d="M104.79357,174.9561A26.19534,26.19534,0,1,0,130.991,201.15349a26.1952,26.1952,0,0,0-26.19738-26.19739Zm0,12.10008a14.09728,14.09728,0,1,0,14.1013,14.09732A14.09691,14.09691,0,0,0,104.79357,187.05618Z"/><path class="b" d="M289.68094,174.9561a26.19534,26.19534,0,1,0,26.192,26.19739,26.19721,26.19721,0,0,0-26.192-26.19739Zm0,12.10008a14.09728,14.09728,0,1,0,14.09588,14.09732,14.09721,14.09721,0,0,0-14.09588-14.09732Z"/></g><g><polygon class="b" points="405.147 90.141 377.997 137.171 374.127 134.931 401.277 87.901 405.147 90.141"/><rect x="354.907" y="76.681" width="4.47" height="54.3"/><polygon class="b" points="340.167 134.931 336.297 137.161 309.137 90.141 313.007 87.901 340.167 134.931"/></g><path d="M381.005,152.27658a34.19563,34.19563,0,0,1,16.56376,3.5109l14.16248-20.275L406.35,122.875h-2.60005a2.49994,2.49994,0,0,1-2.49993-2.49994V120.375a2.5,2.5,0,0,1,2.5-2.5H431.5063a2.49994,2.49994,0,0,1,2.49994,2.49994v.00006a2.5,2.5,0,0,1-2.5,2.5h-19.725l4.26251,10H480.075c-1.5-6.74377,1.03749-11.44375,7.825-14.63127,2.28122-2.025,2.15622-5.44373,1.325-7.80625C488.3125,107.825,486.46874,106,484.75,106H466.125a2.5,2.5,0,0,1-2.5-2.5v-.00006A2.49994,2.49994,0,0,1,466.12494,101H484.75c3.925,0,7.5375,3.05626,9.19377,7.78126,1.8375,5.23746.60623,10.55622-3.13126,13.54374l-.24376.2-.28126.125c-5.61874,2.55623-6.80622,5.45624-4.65622,11.46873l5.19375,11.3.78751,1.7125,4.54372,9.88125a34.42963,34.42963,0,1,1-4.16874,2.9l-4.41875-9.60625-47.23126,37.08748A16.99728,16.99728,0,0,1,429.89377,191H416.475a34.37775,34.37775,0,1,1-35.47-38.72342ZM484.25,186.625a29.38957,29.38957,0,1,0,14.01249-25.03124l5.675,12.33749a13.00341,13.00341,0,0,0,3.10623,4.23748c1.82426,1.65465,5.38431,4.399,7.58332,6.06571a2.49646,2.49646,0,0,1,.55642,3.39235l0,0a2.36931,2.36931,0,0,1-3.35908.58779c-2.34784-1.71252-6.1812-4.56687-8.14309-6.34587a18.04978,18.04978,0,0,1-4.28753-5.84377l-5.23125-11.38127A29.30623,29.30623,0,0,0,484.25,186.625Zm1.15623-40.975-3.675-7.775H418.175L437.5,183.25624ZM433.05,185.56875l-19.00627-44.63127-12.15,17.39376A34.31125,34.31125,0,0,1,416.74374,186h13.15A11.65523,11.65523,0,0,0,433.05,185.56875Zm-34.025-23.13126L382.56249,186h29.175A29.34136,29.34136,0,0,0,399.025,162.43749ZM382.375,216a29.419,29.419,0,0,0,29.05-25H381.3625a4.37378,4.37378,0,0,1-3.58124-6.88126l16.88122-24.175A29.37486,29.37486,0,1,0,382.375,216Z"/></svg>