<svg xmlns="http://www.w3.org/2000/svg" width="600" height="300" viewBox="0 0 600 300"><defs><style>.a { fill: rgb(255, 255, 255); }</style></defs><g><rect class="a" x="5" y="5" width="590" height="290" rx="40"/><path d="M555,10a35.03961,35.03961,0,0,1,35,35V255a35.03961,35.03961,0,0,1-35,35H45a35.0396,35.0396,0,0,1-35-35V45A35.0396,35.0396,0,0,1,45,10H555m0-10H45A45,45,0,0,0,0,45V255a45,45,0,0,0,45,45H555a45,45,0,0,0,45-45V45A45,45,0,0,0,555,0Z"/></g><rect x="35.964" y="234.346" width="522.964" height="17.88"/><g><path d="M213.6895,114.43174l1.7891.75944L212.82715,166.699A19.44067,19.44067,0,0,0,224.646,185.59369l92.75621,39.3727a19.42877,19.42877,0,0,0,22.8898-5.89812L370.23628,180.882l4.47277,1.89858a9.71807,9.71807,0,0,0,12.74268-5.14838l15.56834-36.67667a14.57712,14.57712,0,0,0-7.72257-19.114l-152.074-64.55163a14.57711,14.57711,0,0,0-19.114,7.72256l-15.56833,36.67668A9.71807,9.71807,0,0,0,213.6895,114.43174Zm144.91759,61.51391-26.895,35.84894a9.849,9.849,0,0,1-11.46143,2.76783l-90.77933-38.53356a9.83575,9.83575,0,0,1-5.98992-9.996l4.52091-45.52563Z"/><path d="M374.20141,71.87447h33.04144a0,0,0,0,1,0,0v20.408a16.5207,16.5207,0,0,1-16.5207,16.5207h0a16.5207,16.5207,0,0,1-16.5207-16.5207v-20.408A0,0,0,0,1,374.20141,71.87447Z" transform="translate(715.08553 326.16347) rotate(-156.99999)"/><path d="M248.06943,18.33459h33.04144a0,0,0,0,1,0,0v20.408a16.5207,16.5207,0,0,1-16.5207,16.5207h0a16.5207,16.5207,0,0,1-16.5207-16.5207v-20.408a0,0,0,0,1,0,0Z" transform="translate(493.76815 174.05617) rotate(-156.99999)"/></g></svg>