<svg id="Слой_1" data-name="Слой 1" xmlns="http://www.w3.org/2000/svg" width="600" height="300" viewBox="0 0 600 300">
  <defs>
    <style>
      .cls-1 {
        fill: #fff;
      }

      .cls-2 {
        fill: #e30013;
      }

      .cls-3 {
        fill: #ffea00;
        stroke: #000;
        stroke-linecap: round;
        stroke-linejoin: round;
        stroke-width: 0.99418px;
      }

      .cls-3, .cls-4 {
        fill-rule: evenodd;
        isolation: isolate;
      }
    </style>
  </defs>
  <g>
    <rect class="cls-1" x="5" y="5" width="590" height="290" rx="40"/>
    <path d="M555,10a35.03961,35.03961,0,0,1,35,35V255a35.03961,35.03961,0,0,1-35,35H45a35.0396,35.0396,0,0,1-35-35V45A35.0396,35.0396,0,0,1,45,10H555m0-10H45A45,45,0,0,0,0,45V255a45,45,0,0,0,45,45H555a45,45,0,0,0,45-45V45A45,45,0,0,0,555,0Z"/>
  </g>
  <g id="text654">
    <path id="path656" d="M107.023,61.91491c0,20.57669,6.71708,30.60976,20.91672,30.60976,14.19946,0,20.91671-10.03324,20.91671-30.60976,0-20.74653-6.71708-30.77978-20.91671-30.77978C113.74021,31.13513,107.023,41.16838,107.023,61.91491ZM127.93968,41.7635c5.69684,0,8.84282,7.22729,8.84282,20.15141,0,12.8392-3.146,19.98139-8.84282,19.98139s-8.84282-7.14236-8.84282-19.98139C119.09686,48.99079,122.24284,41.7635,127.93968,41.7635Z"/>
    <path id="path658" d="M178.95629,32.24046H167.90281c-2.72087,4.25132-8.58772,8.16261-14.36965,9.26794V53.32719c5.35682-.85023,10.96856-3.40108,13.26432-6.37705v44.8094h12.15881Z"/>
    <path id="path660" d="M187.51645,84.70226a8.0776,8.0776,0,1,0,8.07768-8.07751A7.83833,7.83833,0,0,0,187.51645,84.70226Z"/>
    <path id="path662" d="M233.38906,32.24046H222.33558c-2.72087,4.25132-8.58772,8.16261-14.36965,9.26794V53.32719c5.35681-.85023,10.96856-3.40108,13.26431-6.37705v44.8094h12.15882Z"/>
    <path id="path664" d="M242.45942,61.91491c0,20.57669,6.71708,30.60976,20.91671,30.60976,14.19947,0,20.91672-10.03324,20.91672-30.60976,0-20.74653-6.71708-30.77978-20.91672-30.77978C249.17667,31.13513,242.45942,41.16838,242.45942,61.91491ZM263.37613,41.7635c5.69684,0,8.84282,7.22729,8.84282,20.15141,0,12.8392-3.146,19.98139-8.84282,19.98139s-8.84282-7.14236-8.84282-19.98139C254.53331,48.99079,257.67929,41.7635,263.37613,41.7635Z"/>
    <path id="path666" d="M312.267,62.08509H288.20431V73.13857H312.267Z"/>
    <path id="path668" d="M316.156,61.91491c0,20.57669,6.71708,30.60976,20.91671,30.60976,14.19947,0,20.91672-10.03324,20.91672-30.60976,0-20.74653-6.71708-30.77978-20.91672-30.77978C322.87329,31.13513,316.156,41.16838,316.156,61.91491ZM337.07275,41.7635c5.69684,0,8.84282,7.22729,8.84282,20.15141,0,12.8392-3.146,19.98139-8.84282,19.98139s-8.84282-7.14236-8.84282-19.98139C328.22993,48.99079,331.37591,41.7635,337.07275,41.7635Z"/>
    <path id="path670" d="M388.08954,32.24046H377.03606c-2.72087,4.25132-8.58772,8.16261-14.36965,9.26794V53.32719c5.35681-.85023,10.96856-3.40108,13.26431-6.37705v44.8094h12.15882Z"/>
    <path id="path672" d="M396.64969,84.70226a8.07752,8.07752,0,1,0,8.07751-8.07751A7.8383,7.8383,0,0,0,396.64969,84.70226Z"/>
    <path id="path674" d="M415.82366,61.91491c0,20.57669,6.71708,30.60976,20.91672,30.60976,14.19946,0,20.91671-10.03324,20.91671-30.60976,0-20.74653-6.71708-30.77978-20.91671-30.77978C422.54091,31.13513,415.82366,41.16838,415.82366,61.91491ZM436.74038,41.7635c5.69683,0,8.84282,7.22729,8.84282,20.15141,0,12.8392-3.146,19.98139-8.84282,19.98139s-8.84283-7.14236-8.84283-19.98139C427.89755,48.99079,431.04354,41.7635,436.74038,41.7635Z"/>
    <path id="path676" d="M474.06773,65.91129a9.51335,9.51335,0,0,1,7.99259-4.4215c5.35682,0,8.75773,3.91129,8.75773,10.20326S487.247,81.8963,481.635,81.8963a8.80548,8.80548,0,0,1-9.01283-7.14236L461.05852,76.9646c1.87064,9.86306,9.26793,15.5599,20.32159,15.5599,13.17922,0,21.59693-8.07751,21.59693-21.25674,0-12.15881-7.14237-19.8963-18.621-19.8963-4.25132,0-7.9926,1.10533-10.37327,3.23107l.51-11.81879,24.65782.08526V32.24064H464.37451l-1.53044,32.65041Z"/>
  </g>
  <g>
    <path id="path3138" d="M28,198.76587V257H248.495V186.20923l-10.15769-8.64147L227.48068,143.36l-11.32023,34.2531-10.24655,8.59611v25.75206h-6.80845v-5.62411s-11.37075-12.93658-23.93731-12.99434c-12.56657-.05755-21.94259,12.99434-21.94259,12.99434V179.75923H124.29122l.00083,26.57795-5.96808-5.73869v-35.1627l-27.37419-47.2744-28.85446,47.2744v40.90139H58.805L40.44278,190.1274Z"/>
    <path id="path3140" class="cls-2" d="M199.95759,118.80749,28,257H78.36772L250.22436,118.80749Z"/>
  </g>
  <g>
    <path id="path1563" d="M335.42225,130.44384a26.33546,26.33546,0,0,0-2.976.10257,18.61282,18.61282,0,0,0-5.94034,1.52684,9.848,9.848,0,0,0-4.71095,5.04065,47.72326,47.72326,0,0,0-1.95472,5.32784,58.96848,58.96848,0,0,0-3.08886,23.03595c.20551,3.092.09639,7.071.70188,10.943s2.05161,7.97061,5.80407,10.34358c4.35932,2.75679,8.84709,2.355,13.176,2.09685,8.69255-.51844,18.3728-3.53321,25.2926-8.509,6.58361-4.734,11.856-12.8812,11.59495-21.40955-.2605-8.51011-6.1888-15.98087-12.69393-20.44538a48.4348,48.4348,0,0,0-22.23011-7.87893C337.40622,130.52809,336.41431,130.4627,335.42225,130.44384Zm-28.71848,5.067a2.81328,2.81328,0,0,0-1.20448.26082l-23.29686,10.78766a2.81311,2.81311,0,1,0,2.365,5.105l23.2954-10.7861a2.8133,2.8133,0,0,0,1.37162-3.73478l-.0001-.00028A2.81328,2.81328,0,0,0,306.70377,135.51086Zm28.63056.55535c.8072.018,1.654.07354,2.55256.15541a43.74181,43.74181,0,0,1,19.55594,6.91468c5.32652,3.65556,10.0757,10.14594,10.25419,15.97922.18179,5.93595-4.09108,12.95365-9.25632,16.66783-5.722,4.11448-14.74819,7.00681-22.34295,7.45986-4.40635.26284-7.13328.47293-9.83218-1.23379-1.82316-1.15292-2.76059-3.31067-3.253-6.45905s-.41422-6.95406-.6462-10.4446a53.50817,53.50817,0,0,1,2.79141-20.82049c.59335-1.7123,1.098-3.4486,1.7188-4.75345a4.42915,4.42915,0,0,1,1.9298-2.324,12.9569,12.9569,0,0,1,4.21275-1.0726A20.48855,20.48855,0,0,1,335.33433,136.06621Zm-28.63056,12.94888a2.81343,2.81343,0,0,0-1.20448.26083l-23.29686,10.78765a2.81312,2.81312,0,1,0,2.365,5.105l23.2954-10.7861a2.8133,2.8133,0,0,0,1.37162-3.73478l-.0001-.00028A2.81329,2.81329,0,0,0,306.70377,149.01509Zm0,13.50424a2.81342,2.81342,0,0,0-1.20448.26082l-23.29686,10.78766a2.81312,2.81312,0,1,0,2.365,5.105l23.2954-10.7861a2.81332,2.81332,0,0,0,1.37162-3.73479l-.0001-.00027A2.81328,2.81328,0,0,0,306.70377,162.51933Zm0,13.50424a2.81328,2.81328,0,0,0-1.20448.26082l-23.29686,10.78766a2.81311,2.81311,0,1,0,2.365,5.105l23.2954-10.7861a2.8133,2.8133,0,0,0,1.37162-3.73478l-.0001-.00027A2.81328,2.81328,0,0,0,306.70377,176.02357Z"/>
    <g>
      <path id="path9659" d="M498.34342,200.88894a22.66779,22.66779,0,1,0,22.66784,22.66773A22.66751,22.66751,0,0,0,498.34342,200.88894Zm0,9.175a13.49279,13.49279,0,1,1-13.49268,13.49268A13.49272,13.49272,0,0,1,498.34342,210.064Z"/>
      <path id="rect7831" class="cls-3" d="M467.24418,183.11582l-3.00383,24.3686-40.73048,38.40014H276.47254Z"/>
      <path id="rect7787" class="cls-4" d="M276,247H590v10H276Z"/>
      <path id="path9655" d="M575.57406,127.49205a10.25576,10.25576,0,0,0-7.50321,3.25439l-35.7158,38.2963a10.23867,10.23867,0,0,1-6.0649,3.16388l-54.708,7.6922a10.24551,10.24551,0,0,0-8.80948,10.33831l.35338,19.444a8.63572,8.63572,0,0,0,8.39048,8.32477,27.41675,27.41675,0,0,1,54.23123,5.5555H590V172.81564H554.05781a6.46522,6.46522,0,0,1-4.72568-10.88895l22.63261-24.28439a6.51238,6.51238,0,0,1,4.75843-2.04619H590l-.04236-8.10334Z"/>
    </g>
  </g>
</svg>
