<svg xmlns="http://www.w3.org/2000/svg" width="600" height="300"><rect x="5" y="5" width="590" height="290" rx="40" style="fill:#fff"/><path d="M555 10a35.04 35.04 0 0 1 35 35v210a35.04 35.04 0 0 1-35 35H45a35.04 35.04 0 0 1-35-35V45a35.04 35.04 0 0 1 35-35h510m0-10H45A45 45 0 0 0 0 45v210a45 45 0 0 0 45 45h510a45 45 0 0 0 45-45V45a45 45 0 0 0-45-45z"/><circle cx="248.687" cy="248.998" r="21.94"/><circle cx="293.015" cy="248.998" r="21.94"/><circle cx="438.537" cy="248.998" r="21.94"/><circle cx="482.866" cy="248.998" r="21.94"/><path d="m543.869 162.195-22.415-41.786a13.43 13.43 0 0 0-11.84-7.083H226.568a13.445 13.445 0 0 0-11.382 6.295l-26.445 42.18a17.86 17.86 0 0 0-2.74 9.51v59.328a13.438 13.438 0 0 0 13.433 13.433h17.015a28.78 28.78 0 0 1 28.72-26.866h241.665a28.787 28.787 0 0 1 28.72 26.866h17.014A13.438 13.438 0 0 0 546 230.64v-59.973a17.934 17.934 0 0 0-2.131-8.471zm-305.033 1.28a8.959 8.959 0 0 1-8.955 8.955h-19.702a8.96 8.96 0 0 1-7.836-13.307l16.917-30.448a8.967 8.967 0 0 1 7.827-4.603h2.794a8.958 8.958 0 0 1 8.955 8.955zm77.91 0a8.959 8.959 0 0 1-8.955 8.955h-46.567a8.959 8.959 0 0 1-8.955-8.955v-30.448a8.958 8.958 0 0 1 8.955-8.955h46.567a8.958 8.958 0 0 1 8.955 8.955zm85.075 0a8.959 8.959 0 0 1-8.955 8.955h-53.732a8.959 8.959 0 0 1-8.955-8.955v-30.448a8.958 8.958 0 0 1 8.955-8.955h53.732a8.958 8.958 0 0 1 8.955 8.955zm77.91 0a8.959 8.959 0 0 1-8.955 8.955H424.21a8.959 8.959 0 0 1-8.955-8.955v-30.448a8.958 8.958 0 0 1 8.955-8.955h46.567a8.958 8.958 0 0 1 8.955 8.955zm42.09 8.955h-19.702a8.959 8.959 0 0 1-8.955-8.955v-30.448a8.958 8.958 0 0 1 8.955-8.955h2.794a8.967 8.967 0 0 1 7.827 4.603l16.917 30.448a8.96 8.96 0 0 1-7.836 13.307z"/><path d="M420.627 224.37a30.374 30.374 0 0 0-12.528 24.18h-84.645a30.39 30.39 0 0 0-12.08-23.848v-.331zM372.527 35.187V20.5h-13.054v14.687l-48.14 40.796 25.914 29.373h57.465l25.955-29.373zm17.135 61.194h-47.324l-17.134-20.398L366 41.713l40.796 34.27zM147 144v33h-39v39H75v-39H36v-33h39v-39h33v39h39z"/></svg>