<svg xmlns="http://www.w3.org/2000/svg" xmlns:xlink="http://www.w3.org/1999/xlink" width="600" height="300" xmlns:v="https://vecta.io/nano"><rect x="5" y="5" width="590" height="290" rx="40" fill="#fff"/><path d="M555 10a35.04 35.04 0 0 1 35 35v210a35.04 35.04 0 0 1-35 35H45a35.04 35.04 0 0 1-35-35V45a35.04 35.04 0 0 1 35-35h510m0-10H45A45 45 0 0 0 0 45v210a45 45 0 0 0 45 45h510a45 45 0 0 0 45-45V45a45 45 0 0 0-45-45zM90.973 193.68c0 18.424-18.424 23.688-18.424 23.688s21.057 7.896 21.057 26.32c0 13.16-9.212 30.269-35.533 30.269S22.54 256.849 22.54 243.688c0-18.424 21.056-26.32 21.056-26.32s-18.424-5.264-18.424-23.688 15.792-27.637 32.901-27.637 32.9 9.212 32.9 27.637zm-50.009 51.325c0 9.212 9.212 13.161 17.108 13.161s17.108-3.948 17.108-13.161c0-10.528-17.108-19.74-17.108-19.74s-17.108 10.528-17.108 19.74zm2.632-51.325c0 7.896 14.477 15.792 14.477 15.792s14.476-7.896 14.476-15.792c0-9.212-6.58-12.596-14.476-12.596s-14.477 3.384-14.477 12.596zm66.391 79.726a9.333 9.333 0 1 1 9.333-9.333 9.336 9.336 0 0 1-9.333 9.333z"/><use xlink:href="#B"/><use xlink:href="#B" x="66.861"/><path d="M266 218h30v12h-30zm60.17-50.641h15.792v105.282h-18.425v-81.594l-14.1 8.836-6.204-8.084zm36.093 0h63.169v13.161c-13.16 26.32-26.32 53.957-34.216 92.122h-19.741c5.265-31.584 21.057-64.485 35.533-88.174h-48.693zm75.979 106.047a9.333 9.333 0 1 1 9.333-9.333 9.337 9.337 0 0 1-9.333 9.333z"/><use xlink:href="#C"/><use xlink:href="#C" x="66.86"/><path d="M292.792 92.272l44.767 44.767-11.28 11.275-44.767-44.767L236.064 149l-11.279-11.28 45.452-45.448-28.707-28.707-16.745 16.746-8.202-8.201 11.618-25.972L247.339 27l15.378 15.378-9.912 9.912 28.707 28.702 28.021-28.02-10.25-10.251 15.378-15.378 19.138 19.138 11.618 25.972-8.202 8.201-16.402-16.403-28.021 28.021z"/><defs ><path id="B" d="M184.345 229.801c0 25.704-11.781 43.911-28.917 43.911s-28.917-18.207-28.917-43.911 11.781-43.911 28.917-43.911 28.917 19.584 28.917 43.911zm-42.84 0c0 21.42 5.661 30.6 13.923 30.6s13.923-9.18 13.923-30.6-5.661-30.6-13.923-30.6-13.923 9.18-13.923 30.6z"/><path id="C" d="M512.6 229.801c0 25.704-11.78 43.911-28.917 43.911s-28.917-18.207-28.917-43.911 11.781-43.911 28.917-43.911 28.917 19.584 28.917 43.911zm-42.84 0c0 21.42 5.661 30.6 13.923 30.6s13.923-9.18 13.923-30.6-5.66-30.6-13.923-30.6-13.923 9.18-13.923 30.6z"/></defs></svg>