<svg id="Слой_1" data-name="Слой 1" xmlns="http://www.w3.org/2000/svg" width="600" height="300" viewBox="0 0 600 300">
  <defs>
    <style>
      .cls-1 {
        fill: #fff;
      }
    </style>
  </defs>
  <g>
    <rect class="cls-1" x="5" y="5" width="590" height="290" rx="40"/>
    <path d="M555,10a35.03961,35.03961,0,0,1,35,35V255a35.03961,35.03961,0,0,1-35,35H45a35.0396,35.0396,0,0,1-35-35V45A35.0396,35.0396,0,0,1,45,10H555m0-10H45A45,45,0,0,0,0,45V255a45,45,0,0,0,45,45H555a45,45,0,0,0,45-45V45A45,45,0,0,0,555,0Z"/>
  </g>
  <g>
    <path d="M179.46237,207.09677a22.83871,22.83871,0,1,1-22.83871,22.83871,22.86459,22.86459,0,0,1,22.83871-22.83871m0-15.2258a38.06452,38.06452,0,1,0,38.06451,38.06451A38.06449,38.06449,0,0,0,179.46237,191.871Z"/>
    <path d="M402.77419,174.95341A37.21864,37.21864,0,1,1,365.55556,212.172a37.26075,37.26075,0,0,1,37.21863-37.21863m0-18.60932a55.828,55.828,0,1,0,55.828,55.828,55.828,55.828,0,0,0-55.828-55.828Z"/>
    <path d="M426.45878,112.35842V54.83871A22.84054,22.84054,0,0,0,403.62007,32H345.16991a30.45529,30.45529,0,0,0-28.06628,18.63467l-25.98535,61.72375h-34.681V48.91756H232.75269v63.44086H172.2724a12.69277,12.69277,0,0,0-12.68817,12.68817v64.69275a44.87623,44.87623,0,0,1,62.35811,25.81622h117.484c-.05922-1.11657-.093-2.25007-.093-3.38352a63.49165,63.49165,0,0,1,82.99756-60.37032l19.3537-19.14222ZM407.84946,95.44086a16.91756,16.91756,0,0,1-16.91756,16.91756H322.72874a10.15084,10.15084,0,0,1-9.29521-14.2299L328.57379,63.6274a21.32,21.32,0,0,1,20.34336-13.864h42.86063c9.14394,0,16.07168,6.96156,16.07168,16.91756Z"/>
  </g>
</svg>
