<svg id="Слой_1" data-name="Слой 1" xmlns="http://www.w3.org/2000/svg" width="600" height="300" viewBox="0 0 600 300">
  <defs>
    <style>
      .cls-1 {
        fill: #fff;
      }
    </style>
  </defs>
  <g>
    <rect class="cls-1" x="5" y="5" width="590" height="290" rx="40"/>
    <path d="M555,10a35.03961,35.03961,0,0,1,35,35V255a35.03961,35.03961,0,0,1-35,35H45a35.0396,35.0396,0,0,1-35-35V45A35.0396,35.0396,0,0,1,45,10H555m0-10H45A45,45,0,0,0,0,45V255a45,45,0,0,0,45,45H555a45,45,0,0,0,45-45V45A45,45,0,0,0,555,0Z"/>
  </g>
  <g>
    <path d="M162.33225,164.75066a40.5,40.5,0,1,0,40.5,40.5A40.49684,40.49684,0,0,0,162.33225,164.75066Zm0,62a21.5,21.5,0,1,1,21.5-21.5A21.50529,21.50529,0,0,1,162.33225,226.75066Z"/>
    <path d="M440.33225,169.75066a40.5,40.5,0,1,0,40.5,40.5A40.49684,40.49684,0,0,0,440.33225,169.75066Zm0,62a21.5,21.5,0,1,1,21.5-21.5A21.50529,21.50529,0,0,1,440.33225,231.75066Z"/>
    <path d="M510.72226,144.25066a98.24931,98.24931,0,0,0-.78-15.46,101.20433,101.20433,0,0,0-7.1752-26.27911c-1.80267-4.24167-5.13669-10.24139-11.80478-22.24085-.433-.7792-2.03268-3.82174-4.41034-7.72528a182.90194,182.90194,0,0,0-12.54968-17.89471c-1.68-2.15-4.2352-5.477-8.97-5.4h-181.63a10.78888,10.78888,0,0,0-6.92,2.72l-69.62,52.91a21.51833,21.51833,0,0,1-8.76,3.96c-30.97,6.31-61.13,12.62-92.19,18.92a18.43077,18.43077,0,0,0-10.83,6.63,26.6227,26.6227,0,0,0-2.01,2.95,27.20572,27.20572,0,0,0-3.74,13.91q.045,8.43.09,16.87a28.57764,28.57764,0,0,0,4.3,18.65,27.71,27.71,0,0,0,7.28,7.51,12.36781,12.36781,0,0,0,6.19,2.19l5.84.43a50.01094,50.01094,0,0,1,49.3-41.65c27.28,0,49.46,25.85,49.98,53l178.07-.04a49.99912,49.99912,0,0,1,97.27-14.13h2.46a82.63721,82.63721,0,0,0,20.61-49.83Zm-38.95-35.72-4.1,8.5a12.40061,12.40061,0,0,1-11.16,7.00995l-234.31,0,57.13-52.72995a25.733,25.733,0,0,1,17.77-7.06h147.54c8.03783.143,13.39,5.85,16.01,10.6l10.74,19.5A15.43813,15.43813,0,0,1,471.77225,108.53068Z"/>
  </g>
</svg>
