<svg id="Слой_1" data-name="Слой 1" xmlns="http://www.w3.org/2000/svg" width="600" height="300" viewBox="0 0 600 300">
  <defs>
    <style>
      .cls-1 {
        fill: #fff;
      }
    </style>
  </defs>
  <g>
    <rect class="cls-1" x="5" y="5" width="590" height="290" rx="40"/>
    <path d="M555,10a35.03961,35.03961,0,0,1,35,35V255a35.03961,35.03961,0,0,1-35,35H45a35.0396,35.0396,0,0,1-35-35V45A35.0396,35.0396,0,0,1,45,10H555m0-10H45A45,45,0,0,0,0,45V255a45,45,0,0,0,45,45H555a45,45,0,0,0,45-45V45A45,45,0,0,0,555,0Z"/>
  </g>
  <path d="M590,200v55a35,35,0,0,1-35,35H45a35,35,0,0,1-35-35V236H311V200Z"/>
  <g>
    <path d="M376.229,159.50016a14,14,0,1,1-13.99995,14,14.01586,14.01586,0,0,1,13.99995-14m0-10A24,24,0,1,0,400.229,173.50008a24,24,0,0,0-24.00008-23.99992Z"/>
    <path d="M538.229,159.49961a14,14,0,1,1-14,14.00005,14.01588,14.01588,0,0,1,14-14.00005m0-10A24,24,0,1,0,562.229,173.49953a24,24,0,0,0-24.00008-23.99992Z"/>
    <path d="M563.22886,127.49953l-50-11.38985L469.22869,78.49984l-107.91.00036-23.08991,35.00008c-11.98993,17.23-6.56986,43.45,10.36017,55.51993a28.0004,28.0004,0,0,1,55.64,4.47985c0,.66-.02,1.31-.08,1.96l106.15-.13036c-.05-.6-.07-1.21-.07-1.82995a27.993,27.993,0,0,1,55.98-.59022c6.98-3.79,12.02-11.6,12.01995-19.41l0-17C578.22887,131.49948,570.12889,129.2395,563.22886,127.49953Zm-200.85-2.99933a7.99872,7.99872,0,0,1-6.72007-12.34l16.56992-25.66,94.43-.00032,40.57014,37.99987Z"/>
  </g>
</svg>
