<svg xmlns="http://www.w3.org/2000/svg" width="1082.54" height="698.2" data-name="Слой 1"><path d="M1.225 660.893 37.469 525.66 343.28 349.1 37.469 172.541 1.225 37.307 136.469 1.073 541.27 234.785 946.072 1.073l135.243 36.234-36.243 135.234L739.26 349.1l305.812 176.56 36.243 135.233-135.243 36.233L541.27 463.415 136.469 697.126 1.225 660.893z" style="fill:#fff"/><path d="m946.212 2.146 133.878 35.868-35.878 133.868L740.26 347.368l-3 1.732 3 1.732 303.952 175.486 35.878 133.868-133.878 35.868L542.27 462.838l-1-.577-1 .577-403.943 233.216L2.45 660.186l35.877-133.868L342.28 350.832l3-1.732-3-1.732L38.327 171.882 2.45 38.014 136.327 2.146 540.27 235.362l1 .577 1-.577L946.212 2.146M945.93 0 541.27 233.63 136.61 0 0 36.6l36.61 136.6 304.67 175.9L36.61 525 0 661.6l136.61 36.6 404.66-233.63L945.93 698.2l136.61-36.6-36.61-136.6-304.67-175.9 304.67-175.9 36.61-136.6L945.93 0Z"/><path d="m721.5 349.5 316.08-182.49 32.94-122.94-122.94-32.94L541.5 245.58 135.42 11.13 12.48 44.07l32.94 122.94L361.5 349.5 45.42 531.99 12.48 654.93l122.94 32.94L541.5 453.42l406.08 234.45 122.94-32.94-32.94-122.94Zm233.14 284.72L591.49 424.56l-49.99-28.87-49.99 28.87-363.15 209.66-54.64-14.65 14.64-54.64L411.5 378.36l49.99-28.86-49.99-28.86L88.36 134.07 73.72 79.43l54.64-14.65 363.15 209.66 49.99 28.87 49.99-28.87L954.64 64.78l54.64 14.65-14.64 54.64L671.5 320.64l-49.99 28.86 49.99 28.86 323.14 186.57 14.64 54.64Z" style="fill:#da251d" transform="translate(-.23 -.4)"/></svg>