<svg xmlns="http://www.w3.org/2000/svg" width="660.179" height="580.218" viewBox="0 0 660.179 580.218"><defs><style>.a { fill: rgb(255, 255, 255); }.b { fill: rgb(218, 37, 29); }</style></defs><g><path class="a" d="M31.96143,579.10938a31,31,0,0,1-26.84668-46.5L303.15332,16.39111a30.99981,30.99981,0,0,1,53.69336,0L654.88574,532.60938a31,31,0,0,1-26.84765,46.5Z" transform="translate(0.08956 0.10891)"/><path d="M330,1.89109a29.71926,29.71926,0,0,1,25.9808,15l298.03837,516.2178a30,30,0,0,1-25.98072,45H31.96155a30,30,0,0,1-25.98082-45L304.0192,16.89109a29.71926,29.71926,0,0,1,25.9808-15m0-2a31.67452,31.67452,0,0,0-27.71292,16L4.24864,532.10889a32.00008,32.00008,0,0,0,27.71291,48h596.0769a31.99994,31.99994,0,0,0,27.71283-48L357.71292,15.89109A31.67452,31.67452,0,0,0,330-.10891Z" transform="translate(0.08956 0.10891)"/></g><path class="b" d="M581.27371,511.1099a10,10,0,0,1-8.66026,15H87.3866a10,10,0,0,1-8.66026-15L321.33969,90.8901a10,10,0,0,1,17.32052,0ZM330,11.89011a19.81286,19.81286,0,0,0-17.32056,10L14.64052,538.10989a19.99993,19.99993,0,0,0,17.32037,30H628.039a20.00011,20.00011,0,0,0,17.32056-30L347.32054,21.89007a19.81286,19.81286,0,0,0-17.32056-10Z" transform="translate(0.08956 0.10891)"/><g><circle cx="330.08956" cy="468.10891" r="42"/><path d="M361.89121,218.6652a42.09376,42.09376,0,0,1,9.54411,32.24766L370.9,255.57,353,411.5H307L289.1,255.57l-.5353-4.65715a41.82829,41.82829,0,0,1,73.32653-32.24766Z" transform="translate(0.08956 0.10891)"/></g><path class="a" d="M373,246a41.97681,41.97681,0,0,1-1.1,9.57Z" transform="translate(0.08956 0.10891)"/></svg>