<svg xmlns="http://www.w3.org/2000/svg" width="660.17902" height="580.2178" viewBox="0 0 660.17902 580.2178"><defs><style>.a{fill:#fff;}.b{fill:#da251d;}</style></defs><path class="a" d="M31.96143,579.10938a31,31,0,0,1-26.84668-46.5L303.15332,16.39111a30.99981,30.99981,0,0,1,53.69336,0L654.88574,532.60938a31,31,0,0,1-26.84765,46.5Z" transform="translate(0.08956 0.10891)"/><path d="M330,1.89109a29.71926,29.71926,0,0,1,25.9808,15l298.03837,516.2178a30,30,0,0,1-25.98072,45H31.96155a30,30,0,0,1-25.98082-45L304.0192,16.89109a29.71926,29.71926,0,0,1,25.9808-15m0-2a31.67452,31.67452,0,0,0-27.71292,16L4.24864,532.10889a32.00008,32.00008,0,0,0,27.71291,48h596.0769a31.99994,31.99994,0,0,0,27.71283-48L357.71292,15.89109A31.67452,31.67452,0,0,0,330-.10891Z" transform="translate(0.08956 0.10891)"/><path class="b" d="M567.41753,523.21885H92.58272a10,10,0,0,1-8.66026-15L321.33979,96.99906a10,10,0,0,1,17.32051,0l237.41748,411.2198A10,10,0,0,1,567.41753,523.21885ZM330,11.999A19.81282,19.81282,0,0,0,312.67946,21.999L14.64044,538.21885a20,20,0,0,0,17.3206,30H628.039a20.00012,20.00012,0,0,0,17.32062-30L347.32063,21.999A19.81284,19.81284,0,0,0,330,11.999Z" transform="translate(0.08956 0.10891)"/><path d="M267.82088,316.67565a10.70578,10.70578,0,1,1-13.36813,7.10778,10.7179,10.7179,0,0,1,13.36813-7.10778m2.23584-7.31283a18.35277,18.35277,0,1,0,12.18477,22.9168,18.35277,18.35277,0,0,0-12.18477-22.9168Z" transform="translate(0.08956 0.10891)"/><path d="M386.28866,352.89624a10.70578,10.70578,0,1,1-13.36813,7.10779,10.71793,10.71793,0,0,1,13.36813-7.10779m2.23584-7.31282a18.35277,18.35277,0,1,0,12.18477,22.91679,18.35279,18.35279,0,0,0-12.18477-22.91679Z" transform="translate(0.08956 0.10891)"/><path d="M411.72541,335.0848,377.7079,315.57629l-23.76744-37.34122-78.91268-24.12694L250.317,274.54046c-12.62041,9.91922-14.51925,30.30529-4.83729,42.91711A21.41187,21.41187,0,0,1,285.16662,333.174c-.14756.48262-.30753.9535-.49673,1.41539l77.65473,23.63837c.09759-.44993.21933-.90048.358-1.35387a21.40623,21.40623,0,0,1,41.06911,12.08475c5.95176-1.21092,11.3836-5.79538,13.12979-11.50669l3.80092-12.43181C421.80031,341.36369,416.38224,337.9,411.72541,335.0848ZM265.51807,287.98413a6.11662,6.11662,0,0,1-2.15521-10.52654l17.85452-15.0599,69.055,21.113,21.172,36.85954Z" transform="translate(0.08956 0.10891)"/><path d="M560.05,500.46c-8,3.25-16.85,7.41-29.05,7.41-20,0-31-11.19-44-11.19s-24,11.19-44,11.19V508c-20,0-31-11.2-44-11.2S375,508,355,508v-.13c-20,0-31-11.19-44-11.19-9.61,0-18.13,6.12-30,9.3V508H96v-.7L189.13,346H281v83.93c8.92-3.27,13.65-8.93,30-8.93,23,0,23,11.2,44,11.2v.12c21,0,21-11.19,44-11.19s23,11.19,44,11.19v-.12c21,0,21-11.2,44-11.2,18.02,0,21.92,6.88,32.87,9.85l9.81,17c-19.17-.47-29.97-11.17-42.68-11.17-13,0-24,11.19-44,11.19V448c-20,0-31-11.2-44-11.2S375,448,355,448v-.13c-20,0-31-11.19-44-11.19-9.61,0-18.13,6.12-30,9.3v13.95c8.92-3.27,13.65-8.93,30-8.93,23,0,23,11.2,44,11.2v.12c21,0,21-11.19,44-11.19s23,11.19,44,11.19v-.12c21,0,21-11.2,44-11.2s23,11.2,44,11.2a47.89848,47.89848,0,0,0,6.71-.44l8.08,14A53.28567,53.28567,0,0,1,531,477.87c-20,0-31-11.19-44-11.19s-24,11.19-44,11.19V478c-20,0-31-11.2-44-11.2S375,478,355,478v-.13c-20,0-31-11.19-44-11.19-9.61,0-18.13,6.12-30,9.3v13.95c8.92-3.27,13.65-8.93,30-8.93,23,0,23,11.2,44,11.2v.12c21,0,21-11.19,44-11.19s23,11.19,44,11.19v-.12c21,0,21-11.2,44-11.2s23,11.2,44,11.2c10.41,0,15.65-2.75,21.1-5.52Z" transform="translate(0.08956 0.10891)"/></svg>