<svg xmlns="http://www.w3.org/2000/svg" width="600" height="600" xmlns:v="https://vecta.io/nano"><defs><clipPath id="A"><circle cx="300" cy="300" r="240" fill="none"/></clipPath></defs><path d="M300 599C134.867 599 1 465.133 1 300A299 299 0 0 1 88.575 88.575c116.767-116.767 306.083-116.767 422.85 0s116.767 306.083 0 422.85A297.042 297.042 0 0 1 300 599z" fill="#fff"/><path d="M300 2c164.625.105 297.994 133.645 297.888 298.27a298.079 298.079 0 0 1-181.894 274.313c-151.689 63.963-326.51-7.153-390.474-158.843-63.904-151.55 7.018-326.221 158.485-390.322A296.132 296.132 0 0 1 300 2m0-2C134.315 0 0 134.315 0 300s134.315 300 300 300 300-134.315 300-300S465.685 0 300 0z"/><g clip-path="url(#A)"><path d="M269,442l65-110,65,110H359v98H309V442Z" fill="#da251d"/><path d="M192,262l65,109.46L322,262H282V107H232V262Z" fill="#1f1a17"/></g><path d="M300 60a240.077 240.077 0 0 1 93.403 461.16A240.075 240.075 0 0 1 206.597 78.84 238.451 238.451 0 0 1 300 60m0-50C139.837 10 10 139.837 10 300s129.837 290 290 290 290-129.837 290-290S460.163 10 300 10z" fill="#da251d"/></svg>