<svg id="Слой_1" data-name="Слой 1" xmlns="http://www.w3.org/2000/svg" width="604" height="604" viewBox="0 0 604 604"><defs><style>.cls-1 { fill: rgb(255, 255, 255); fill-rule: evenodd; }.cls-2 { fill: rgb(218, 37, 29); }</style></defs><g id="base"><path class="cls-1" d="M300 601A301 301 0 0 1 87.16 87.16 301 301 0 1 1 512.84 512.84a299.026 299.026 0 0 1-212.84 88.16z" transform="translate(2 2)"/><path d="M300 0a300 300 0 0 1 212.132 512.132A300 300 0 1 1 87.868 87.868 298.035 298.035 0 0 1 300 0m0-2A302 302 0 0 0 86.454 513.546 302 302 0 1 0 513.546 86.454 300.02 300.02 0 0 0 300-2z" transform="translate(2 2)"/></g><path class="cls-2" d="M299.166 590c-160.16 0-290-129.84-290-290s129.84-290 290-290 290 129.84 290 290-129.84 290-290 290zm0-530c-132.55 0-240 107.45-240 240s107.45 240 240 240 240-107.45 240-240-107.45-240-240-240z" transform="translate(2 2)"/><path class="cls-2" d="M269.5 298.25h-1.9l-17.288-47.362a19.004 19.004 0 0 0-17.853-12.488h-98.506a18.993 18.993 0 0 0-18.344 14.05l-12.36 45.8H98.5a9.5 9.5 0 0 0-9.5 9.5v38.95a14.25 14.25 0 0 0 14.25 14.25h161.5A14.25 14.25 0 0 0 279 346.7v-38.95a9.5 9.5 0 0 0-9.5-9.5zm-153.9 0 10.508-42.532a9.628 9.628 0 0 1 9.257-6.868h96.406a9.615 9.615 0 0 1 9.21 6.707l13.32 42.693z" transform="translate(2 2)"/><path class="cls-2" d="M103.25 369.5h32.3v19.95a16.15 16.15 0 0 1-16.15 16.15 16.15 16.15 0 0 1-16.15-16.15V369.5z" transform="translate(2 2)"/><path class="cls-2" d="M237.2 369.5h32.3v19.95a16.15 16.15 0 0 1-16.15 16.15 16.15 16.15 0 0 1-16.15-16.15V369.5z" transform="translate(2 2)"/><path d="M501.5 298.25h-1.9l-17.288-47.362a19.004 19.004 0 0 0-17.853-12.488h-98.506a18.993 18.993 0 0 0-18.344 14.05l-12.36 45.8h-4.75a9.5 9.5 0 0 0-9.5 9.5v38.95a14.25 14.25 0 0 0 14.25 14.25h161.5A14.25 14.25 0 0 0 511 346.7v-38.95a9.5 9.5 0 0 0-9.5-9.5zm-153.9 0 10.508-42.532a9.628 9.628 0 0 1 9.257-6.868h96.406a9.615 9.615 0 0 1 9.21 6.707l13.32 42.693z" transform="translate(2 2)"/><path d="M335.25 369.5h32.3v19.95a16.15 16.15 0 0 1-16.15 16.15 16.15 16.15 0 0 1-16.15-16.15V369.5z" transform="translate(2 2)"/><path d="M469.2 369.5h32.3v19.95a16.15 16.15 0 0 1-16.15 16.15 16.15 16.15 0 0 1-16.15-16.15V369.5z" transform="translate(2 2)"/></svg>