<svg id="Слой_1" data-name="Слой 1" xmlns="http://www.w3.org/2000/svg" width="600" height="600" viewBox="0 0 600 600">
  <defs>
    <style>
      .cls-1 {
        fill: #fff;
      }

      .cls-2 {
        fill: #d92727;
      }
    </style>
  </defs>
  <g>
    <path class="cls-1" d="M300,599C134.867,599.00012,1.0001,465.13339,1,300.00037A298.99983,298.99983,0,0,1,88.5752,88.5752c116.76669-116.76669,306.08291-116.76669,422.8496,0s116.76667,306.08291,0,422.8496A297.04155,297.04155,0,0,1,300,599Z"/>
    <path d="M300,2c164.62451.10544,297.99359,133.64546,297.88818,298.27A298.07913,298.07913,0,0,1,415.99442,574.58252C264.305,638.54565,89.484,567.42944,25.5208,415.74-38.38345,264.19025,32.53923,89.51913,184.00558,25.4175A296.13172,296.13172,0,0,1,300,2m0-2C134.31459,0,0,134.31459,0,300S134.31459,600,300,600,600,465.68542,600,300,465.68542,0,300,0Z"/>
  </g>
  <path class="cls-2" d="M300,58a242.07656,242.07656,0,0,1,94.18259,465.0022A242.07516,242.07516,0,0,1,205.8174,76.9978,240.44077,240.44077,0,0,1,300,58m0-48C139.8374,10,10,139.8374,10,300S139.8374,590,300,590,590,460.1626,590,300,460.1626,10,300,10Z"/>
  <path d="M228.76344,175.00989c.44011-.02225.91194,0,1.35769,0h34.2795a7.10687,7.10687,0,1,1,0,14.21368H230.12115A11.60954,11.60954,0,0,0,218.506,200.79813a9.841,9.841,0,0,0,6.63714,9.27471,23.876,23.876,0,0,1,15.34839,28.99293H362.82708l4.1861-9.80257h-31.4136a10.66971,10.66971,0,1,1,0-21.33942h48.987a10.66979,10.66979,0,1,1,0,21.33942H380.589l-6.41082,15.08087L400.95336,282.574a71.21263,71.21263,0,1,1-39.748,74.00928H319.45906l-98.31347-75.178-5.65654,12.14008a71.18071,71.18071,0,1,1-11.766-8.483l21.45767-45.99657,1.01824-2.11131a9.84952,9.84952,0,0,0-5.69457-13.422,24.04733,24.04733,0,0,1-16.2157-22.73437,25.80751,25.80751,0,0,1,24.47463-25.78824Zm6.59939,80.07926-7.24055,11.42373,92.76979,70.91767L356.039,255.08911Zm133.79985,10.02877L336.957,340.55982h23.83362a71.12784,71.12784,0,0,1,26.58662-49.42746ZM166.65293,286.2688a60.53952,60.53952,0,1,0,44.12227,17.45613l-13.65151,29.21913a25.74411,25.74411,0,0,1-10.48392,11.42373l-14.8581,8.59607a7.12038,7.12038,0,1,1-7.12746-12.32858l14.85823-8.59611a11.58713,11.58713,0,0,0,4.7139-5.1275l14.97143-32.12217a60.17343,60.17343,0,0,0-30.961-8.5207C167.71429,286.2688,167.17224,286.25452,166.65293,286.2688Zm265.11053,0a60.23849,60.23849,0,0,0-24.5879,5.20288l34.80775,49.69138a9.80371,9.80371,0,0,1-8.03272,15.42014h-61.922a60.54616,60.54616,0,1,0,59.73484-70.31448ZM393.524,299.87926a60.54022,60.54022,0,0,0-21.98551,40.68056h50.4577Z"/>
</svg>
