<svg xmlns="http://www.w3.org/2000/svg" width="600" height="600" viewBox="0 0 600 600">
  <defs>
    <style>
      .a {
        fill: #fff;
      }

      .b {
        fill: #005da2;
      }

      .c {
        fill: #d92a22;
      }
    </style>
  </defs>
  <circle cx="300" cy="300" r="300"/>
  <circle class="a" cx="300" cy="300" r="298.50746"/>
  <circle class="b" cx="300" cy="300" r="290"/>
  <path class="a" d="M230.78083,177.50989c.44-.02225.91172,0,1.35736,0h34.27113a7.10687,7.10687,0,1,1,0,14.21368H232.13821a11.60812,11.60812,0,0,0-11.61235,11.57456,9.84077,9.84077,0,0,0,6.63552,9.27471A23.87847,23.87847,0,0,1,242.506,241.56577H364.81174l4.18508-9.80257H337.59089a10.66971,10.66971,0,0,1,0-21.33942h48.97505a10.66978,10.66978,0,1,1,0,21.33942h-3.99659l-6.40925,15.08087L402.92872,285.074a71.21538,71.21538,0,1,1-39.73826,74.00928H321.45431l-98.28947-75.178-5.65515,12.14008a71.15537,71.15537,0,1,1-11.76312-8.483L227.199,241.56577l1.018-2.11131a9.85064,9.85064,0,0,0-5.69318-13.422,24.04689,24.04689,0,0,1-16.21174-22.73437,25.80475,25.80475,0,0,1,24.46865-25.78824Zm6.59778,80.07926-7.23878,11.42373L322.887,339.93055l35.13836-82.34144ZM371.1458,267.61792,338.948,343.05982h23.8278a71.13265,71.13265,0,0,1,26.58012-49.42746ZM168.68548,288.7688a60.53174,60.53174,0,1,0,44.1115,17.45613L199.1488,335.44406a25.74173,25.74173,0,0,1-10.48136,11.42373L173.813,355.46386a7.11994,7.11994,0,1,1-7.12572-12.32858l14.8546-8.59611a11.586,11.586,0,0,0,4.71275-5.1275l14.96778-32.12217a60.14766,60.14766,0,0,0-30.95342-8.5207C169.74659,288.7688,169.20467,288.75452,168.68548,288.7688Zm265.04582,0a60.21128,60.21128,0,0,0-24.5819,5.20288l34.79924,49.69138a9.80334,9.80334,0,0,1-8.03075,15.42014H374.011a60.53266,60.53266,0,1,0,59.72026-70.31448Zm-38.2301,13.61046a60.54433,60.54433,0,0,0-21.98015,40.68056h50.44538Z"/>
  <path class="c" d="M525.18517,117.24113l-407.944,407.9441a292.97026,292.97026,0,0,1-42.42641-42.4264l407.944-407.9441a292.9817,292.9817,0,0,1,42.42642,42.4264Z"/>
</svg>
