<svg xmlns="http://www.w3.org/2000/svg" width="704" height="704" viewBox="0 0 704 704"><defs><style>.a { fill: rgb(255, 255, 255); }.b { fill: rgb(5, 92, 157); }</style></defs><g><rect class="a" x="1" y="1" width="702" height="702" rx="46"/><path d="M657,2a45,45,0,0,1,45,45V657a45,45,0,0,1-45,45H47A45,45,0,0,1,2,657V47A45,45,0,0,1,47,2H657m0-2H47A47.0532,47.0532,0,0,0,0,47V657a47.05321,47.05321,0,0,0,47,47H657a47.05323,47.05323,0,0,0,47-47V47A47.05321,47.05321,0,0,0,657,0Z"/></g><rect class="b" x="12" y="12" width="680" height="680" rx="35"/><path class="a" d="M540.85,173V692H471V494.92q0-3.105-.15-6.12c-1.28-27.08-11.2-48.81-29.56-64.64-17.65-15.23-42.73-23.96-68.82-23.96-47.25,0-94.93,28.02-94.93,90.61h68.5L242.54,670.08,139.04,490.81h68.5c0-49.37,18.21-91.14,52.67-120.78,29.86-25.69,69.73-39.83,112.26-39.83,36.02,0,70.25,10.09,98.38,28.73V173c0-9.01-11.08-36.59-38.48-51.35-28.61-15.4-65.28-11.36-106.87,11.57l50.12,50.12L175.68,236.91,229.25,36.97l45.18,45.18C309.81,59.76,344.45,46.71,377.49,43.35c31.87-3.24,61.49,2.36,88.06,16.67C514.98,86.64,540.85,137,540.85,173Z"/><g><path class="a" d="M70.95605,351.78516H53.81152v-73.707c-3.645,4.72461-12.82422,9.17969-21.3291,10.66456v-16.6045c9.17969-2.0249,18.35938-8.09961,22.94922-14.84912H70.95605Z"/><path class="a" d="M97.41553,308.45215l2.43017-51.16309h54.26758v14.98438H114.15479L113.21,293.7373c3.77979-3.50976,10.25977-5.66943,17.41406-5.66943,18.08936,0,29.4292,12.41943,29.4292,31.45361,0,20.6543-13.09472,33.47852-33.749,33.47852-17.00928,0-29.02344-9.04492-31.8584-24.16406l16.33447-2.96973c1.75489,7.42481,8.09961,12.01465,15.9292,12.01465,9.98975,0,16.19922-6.88477,16.19922-17.81934,0-10.7998-6.07471-17.5498-15.38916-17.5498a16.54485,16.54485,0,0,0-14.1748,7.4248Z"/><path class="a" d="M209.59863,340.58105l-17.00927-28.7539v39.958H176.5249V284.28809h17.2793l19.3042,32.26367,19.16943-32.26367h17.41406v67.49707h-16.064v-39.958l-17.00977,28.7539Z"/></g></svg>