<svg xmlns="http://www.w3.org/2000/svg" width="604" height="604">
<title>5.38.2 Пішохідний перехід</title>
<defs><style>.a{fill:#fff}</style></defs><rect class="a" x="1" y="1" width="602" height="602" rx="46"/><path d="M557 2a45 45 0 0 1 45 45v510a45 45 0 0 1-45 45H47a45 45 0 0 1-45-45V47A45 45 0 0 1 47 2h510m0-2H47A47.053 47.053 0 0 0 0 47v510a47.053 47.053 0 0 0 47 47h510a47.053 47.053 0 0 0 47-47V47a47.053 47.053 0 0 0-47-47z"/><rect x="12" y="12" width="580" height="580" rx="35" style="fill:#005da2"/><g><path class="a" d="m310.66 51.833 242.68 420.334a10 10 0 0 1-8.66 15H59.32a10 10 0 0 1-8.66-15L293.34 51.833a10 10 0 0 1 17.32 0z"/><path d="M330.413 279.274v-34.747l48.702 41.696a13.385 13.385 0 0 1-17.007 20.076zM331.959 151.097a47.898 47.898 0 0 1 .773 9.265 56.032 56.032 0 0 1-.773 9.266 19.472 19.472 0 0 1-8.258 10.83c-3.195 1.899-7.538 3.059-13.387 2.297-17.78-2.317-31.695-20.848-31.695-31.658s2.295-19.533 23.191-21.62c4.731-.473 12.498-.839 19.626 4.261 8.141 5.826 10.06 15.116 10.523 17.359z"/><path d="M405.399 419.805c3.43 8.984-1.491 18.913-10.05 21.62a16.532 16.532 0 0 1-20.1-10.038l-24.827-70.855a23.165 23.165 0 0 0-7.526-10.534l-61.335-48.33a12.326 12.326 0 0 1-4.489-9.923l2.32-71.927-31.573 23.17a15.437 15.437 0 0 0-6.307 12.444v34.652c.47 7.813-6.086 13.73-12.369 13.126a11.485 11.485 0 0 1-6.957-3.088c-2.351-2.418-3.394-6.132-3.092-10.038v-50.228a15.437 15.437 0 0 1 6.136-12.318l54.15-40.895a11.605 11.605 0 0 1 6.994-2.344s5.488.53 8.018 1.615a60.823 60.823 0 0 1 15.922 9.967 88.834 88.834 0 0 1 9.024 8.44 7.576 7.576 0 0 1 1.795 4.948c-.04 26.393-.078 54.142-.116 80.443a7.718 7.718 0 0 0 2.785 5.673l44.957 37.315a34.747 34.747 0 0 1 10.478 14.9z"/><path d="m301.81 331.78-24.738-17.76-66.767 101.908a16.497 16.497 0 0 0-2.747 10.44c.63 7.154 5.022 13.365 10.763 15.057 3.556 1.048 7.496 1.26 11.022-.585a17.682 17.682 0 0 0 6.571-6.155z"/><g><path d="m486.973 459-37-58h-31.946l15.646 58h53.3zM117.027 459l37-58h31.946l-15.646 58h-53.3zM329 459l-11-58h-32l-11 58h54z"/></g></g></svg>