<svg xmlns="http://www.w3.org/2000/svg" width="704" height="704">
<title>5.41.2 Надземний пішохідний перехід</title>
<defs><style>.a{fill:#fff}</style></defs><rect class="a" x="1" y="1" width="702" height="702" rx="46"/><path d="M657 2a45 45 0 0 1 45 45v610a45 45 0 0 1-45 45H47a45 45 0 0 1-45-45V47A45 45 0 0 1 47 2h610m0-2H47A47.053 47.053 0 0 0 0 47v610a47.053 47.053 0 0 0 47 47h610a47.053 47.053 0 0 0 47-47V47a47.053 47.053 0 0 0-47-47z"/><rect x="12" y="12" width="680" height="680" rx="35" style="fill:#005da2"/><path class="a" d="M692 459v45H589v45H455v45H321v45H186v53H42a29.998 29.998 0 0 1-30-30v-23h151v-45h134v-45h134v-45h134v-45zM441.577 100.316c0 22-8 38-28 38-32 0-56-29-56-58 0-19 9-33 41-32.87 30-.13 43 25.87 43 52.87zM443 223l-5 45 54.54 27.27a19.687 19.687 0 0 0 28.172-14.072 20 20 0 0 0-10.065-21.133z"/><path class="a" d="M433.8 187.439 424 289l95.927 56.943a20 20 0 0 1 9.778 17.915l-3.933 109.62a21.292 21.292 0 0 1-22.284 20.505 21 21 0 0 1-19.993-21.783l3.264-84.937a10 10 0 0 0-5.29-9.21L369.632 318.48a30 30 0 0 1-15.764-29.284L363 192l-44.728 30.966a20 20 0 0 0-8.44 13.8l-8.01 60.075a21 21 0 0 1-23.932 17.993 19.11 19.11 0 0 1-16.065-21.725l11.535-77.14a25 25 0 0 1 10.872-17.114l74.981-49.915a30 30 0 0 1 32.306-.602l32.828 20.13a20 20 0 0 1 9.453 18.97z"/><path class="a" d="m416 368-21.877 154.015a23 23 0 0 1-25.205 19.636 23.982 23.982 0 0 1-21.176-27.429L373 347z"/></svg>