<?xml version="1.0" encoding="UTF-8" standalone="no"?>
<svg
   width="604"
   height="904"
   viewBox="0 0 604 904"
   version="1.1"
   id="svg2059"
   sodipodi:docname="UA_road_sign_3.32.svg"
   inkscape:version="1.2.2 (732a01da63, 2022-12-09)"
   xmlns:inkscape="http://www.inkscape.org/namespaces/inkscape"
   xmlns:sodipodi="http://sodipodi.sourceforge.net/DTD/sodipodi-0.dtd"
   xmlns="http://www.w3.org/2000/svg"
   xmlns:svg="http://www.w3.org/2000/svg">
  <sodipodi:namedview
     id="namedview2061"
     pagecolor="#ffffff"
     bordercolor="#000000"
     borderopacity="0.25"
     inkscape:showpageshadow="2"
     inkscape:pageopacity="0.0"
     inkscape:pagecheckerboard="0"
     inkscape:deskcolor="#d1d1d1"
     showgrid="false"
     inkscape:zoom="0.628887"
     inkscape:cx="-89.046203"
     inkscape:cy="527.12172"
     inkscape:window-width="1920"
     inkscape:window-height="991"
     inkscape:window-x="-9"
     inkscape:window-y="-9"
     inkscape:window-maximized="1"
     inkscape:current-layer="svg2059" />
  <defs
     id="defs2037">
    <style
       id="style2035">.a{fill:#fff;}.b{fill:#7e7e7e;}</style>
  </defs>
  <rect
     class="a"
     x="1"
     y="1"
     width="602"
     height="902"
     rx="46"
     id="rect2039" />
  <path
     d="M557,2a45,45,0,0,1,45,45V857a45,45,0,0,1-45,45H47A45,45,0,0,1,2,857V47A45,45,0,0,1,47,2H557m0-2H47A47.05324,47.05324,0,0,0,0,47V857a47.05323,47.05323,0,0,0,47,47H557a47.05323,47.05323,0,0,0,47-47V47A47.05323,47.05323,0,0,0,557,0Z"
     id="path2041" />
  <path
     d="M87.87793,108.33276l-22.023-2.91211c2.73-19.83886,20.38477-32.76123,46.41162-32.76123,26.9375,0,45.31983,14.01465,45.31983,35.30957,0,12.37647-6.00635,22.02295-16.74463,27.30079,12.19433,5.09619,19.293,15.4707,19.293,29.66748,0,23.11474-18.565,38.40332-47.13965,38.40332-26.9375,0-46.04785-13.65039-48.59619-34.39942l22.3872-3.64013c2.002,10.01025,12.19434,16.38037,25.84473,16.38037,14.01465,0,22.93262-6.916,22.93262-18.01856,0-10.374-8.37207-17.47265-21.47657-17.47265H97.16016V125.98755h16.92675c11.83057,0,19.293-5.82422,19.293-15.28858,0-10.01025-8.55468-16.38085-22.023-16.38085C98.79834,94.31812,89.69824,99.77856,87.87793,108.33276Z"
     id="path2043" />
  <path
     d="M284.25977,137.99976c0,41.67968-19.83887,65.34082-54.42041,65.34082-34.58106,0-54.41993-23.66114-54.41993-65.34082,0-41.6792,19.83887-65.34034,54.41993-65.34034C264.4209,72.65942,284.25977,96.32056,284.25977,137.99976Zm-84.26954,0c0,28.75732,10.01075,43.68164,29.84913,43.68164,19.83886,0,29.84912-14.92432,29.84912-44.04541,0-28.75733-10.01026-43.31787-29.84912-43.31787C210.001,94.31812,199.99023,109.06079,199.99023,137.99976Z"
     id="path2045" />
  <path
     d="M332.30127,201.70239H307.9126V74.29761h24.38867v51.68994h51.50781V74.29761h24.38867V201.70239H383.80908V147.64624H332.30127Z"
     id="path2047" />
  <path
     d="M505.74756,176.76733h-46.957l-8.00879,24.93506H424.937L468.98193,74.29761h26.57325l44.04589,127.40478H513.75635Zm-6.73438-20.38476L482.269,104.32886l-16.92675,52.05371Z"
     id="path2049" />
  <path
     id="rect1429"
     class="cls-2"
     d="m 101.78629,269.85074 c -12.728337,0 -22.975345,10.24701 -22.975345,22.97535 V 693.2535 c 0,12.72834 10.247008,22.97535 22.975345,22.97535 H 502.2137 c 12.72834,0 22.97536,-10.24701 22.97536,-22.97535 V 292.82609 c 0,-12.72834 -10.24702,-22.97535 -22.97536,-22.97535 z m 105.03013,54.48439 h 123.41045 c 53.60906,0 99.77862,41.13686 99.77862,106.99944 0,61.26753 -45.64113,108.31235 -99.77862,108.31235 h -78.77263 l 0.10898,122.09754 h -44.74681 z m 44.63781,45.29424 v 122.75399 h 71.5518 a 60.897429,60.897429 0 0 0 61.04875,-61.04879 c 0,-33.69713 -27.35162,-61.7052 -61.04875,-61.7052 z"
     style="fill:#7e7e7e;stroke-width:0.656439;fill-opacity:1" />
  <path
     d="M591.4,40.54a34.76561,34.76561,0,0,0-4.44-11.64A35.15366,35.15366,0,0,0,571.9,15.32,35.18741,35.18741,0,0,0,557,12H47A34.99993,34.99993,0,0,0,12,47V857a34.93626,34.93626,0,0,0,2.91,14,35.31744,35.31744,0,0,0,5.94,9.28,35.67985,35.67985,0,0,0,7.73,6.49A34.81135,34.81135,0,0,0,47,892H557a35,35,0,0,0,35-35V47A34.34871,34.34871,0,0,0,591.4,40.54ZM22,47A25.02194,25.02194,0,0,1,47,22H520.21L22,804.04Zm0,775.65L532.07,22h11.85L22,841.26Zm4.54,48.7a24.83019,24.83019,0,0,1-4.4-11.7L555.78,22H557a24.79978,24.79978,0,0,1,9.45,1.86Zm17.08,10.41a24.41765,24.41765,0,0,1-9.66-3.44L574.76,29.43a24.88785,24.88785,0,0,1,5.87,9.41ZM582,857a25.022,25.022,0,0,1-25,25H81.42L582,96.23Zm0-779.38L69.56,882H55.34L582,55.3Z"
     id="path2057" />
</svg>
