<svg xmlns="http://www.w3.org/2000/svg" width="604" height="904"><defs><style>.a{fill:#fff}</style></defs><rect class="a" x="1" y="1" width="602" height="902" rx="46"/><path d="M557 2a45 45 0 0 1 45 45v810a45 45 0 0 1-45 45H47a45 45 0 0 1-45-45V47A45 45 0 0 1 47 2h510m0-2H47A47.053 47.053 0 0 0 0 47v810a47.053 47.053 0 0 0 47 47h510a47.053 47.053 0 0 0 47-47V47a47.053 47.053 0 0 0-47-47z"/><rect x="12" y="12" width="580" height="880" rx="35" style="fill:#055c9d"/><rect class="a" x="67" y="133" width="470" height="470" rx="35"/><path d="M171 416a20 20 0 1 1-20 20 20.023 20.023 0 0 1 20-20m0-16a36 36 0 1 0 36 36 36 36 0 0 0-36-36zM414 415a20 20 0 1 1-20 20 20.023 20.023 0 0 1 20-20m0-16a36 36 0 1 0 36 36 36 36 0 0 0-36-36z"/><path d="M478.78 286.47a9.995 9.995 0 0 0-8.91-5.47H143.33a10.012 10.012 0 0 0-8.3 4.42l-30.93 45.99a30.043 30.043 0 0 0-5.1 16.74V419l10 11h18.41a44.001 44.001 0 0 1 87.18 0h155.69a44.006 44.006 0 0 1 87.44 0H491a15.005 15.005 0 0 0 15-15v-75zM193 333.808A10.101 10.101 0 0 1 183 344h-57.47a7.136 7.136 0 0 1-5.96-10.875l22.5-37.273a9.964 9.964 0 0 1 8.52-4.852H183a10.101 10.101 0 0 1 10 10.192zm93 5.285a4.956 4.956 0 0 1-5 4.907h-65a4.956 4.956 0 0 1-5-4.907v-43.186a4.956 4.956 0 0 1 5-4.907h65a4.956 4.956 0 0 1 5 4.907zm93 0a4.956 4.956 0 0 1-5 4.907h-65a4.956 4.956 0 0 1-5-4.907v-43.186a4.956 4.956 0 0 1 5-4.907h65a4.956 4.956 0 0 1 5 4.907zM472.23 344H406a9.912 9.912 0 0 1-10-9.815v-33.37A9.912 9.912 0 0 1 406 291h46.5a10.023 10.023 0 0 1 9.14 5.83l16.99 37.512a6.885 6.885 0 0 1-6.4 9.658z"/></svg>