<svg xmlns="http://www.w3.org/2000/svg" width="604" height="904"><defs><style>.a{fill:#fff}</style></defs><rect class="a" x="1" y="1" width="602" height="902" rx="46"/><path d="M557 2a45 45 0 0 1 45 45v810a45 45 0 0 1-45 45H47a45 45 0 0 1-45-45V47A45 45 0 0 1 47 2h510m0-2H47A47.053 47.053 0 0 0 0 47v810a47.053 47.053 0 0 0 47 47h510a47.053 47.053 0 0 0 47-47V47a47.053 47.053 0 0 0-47-47z"/><rect x="12" y="12" width="580" height="880" rx="35" style="fill:#055c9d"/><rect class="a" x="67" y="133" width="470" height="470" rx="35"/><path d="M171 416a20 20 0 1 1-20 20 20.023 20.023 0 0 1 20-20zm0-16a36 36 0 1 0 36 36 36 36 0 0 0-36-36zM414 415a20 20 0 1 1-20 20 20.023 20.023 0 0 1 20-20zm0-16a36 36 0 1 0 36 36 36 36 0 0 0-36-36z"/><path d="M478.78 286.47a9.995 9.995 0 0 0-8.91-5.47H198v-10h-42v10h-12.67a10.012 10.012 0 0 0-8.3 4.42l-30.93 45.99a30.043 30.043 0 0 0-5.1 16.74V419l10 11h18.41a44.001 44.001 0 0 1 87.18 0h155.69a44.006 44.006 0 0 1 87.44 0H491a15.005 15.005 0 0 0 15-15v-75zM193 333.81A10.103 10.103 0 0 1 183 344h-57.47a7.14 7.14 0 0 1-5.96-10.88l22.5-37.27a9.956 9.956 0 0 1 8.52-4.85H183a10.103 10.103 0 0 1 10 10.19zm93 5.28a4.958 4.958 0 0 1-5 4.91h-65a4.958 4.958 0 0 1-5-4.91v-43.18a4.958 4.958 0 0 1 5-4.91h65a4.958 4.958 0 0 1 5 4.91zm93 0a4.958 4.958 0 0 1-5 4.91h-65a4.958 4.958 0 0 1-5-4.91v-43.18a4.958 4.958 0 0 1 5-4.91h65a4.958 4.958 0 0 1 5 4.91zm93.23 4.91H406a9.913 9.913 0 0 1-10-9.81v-33.38a9.913 9.913 0 0 1 10-9.81h46.5a10.029 10.029 0 0 1 9.14 5.83l16.99 37.51a6.885 6.885 0 0 1-6.4 9.66zM188.794 258.599l125.417-84.594 5.592 8.29-125.417 84.594z"/></svg>