<svg id="Слой_1" data-name="Слой 1" xmlns="http://www.w3.org/2000/svg" width="1110" height="850" viewBox="0 0 1110 850">
  <defs>
    <style>
      .cls-1 {
        fill: #fff;
      }

      .cls-2 {
        fill: #005999;
      }

      .cls-3 {
        fill: #e30013;
      }

      .cls-3, .cls-4 {
        stroke: #fff;
        stroke-miterlimit: 3.52794;
        stroke-width: 4.23353px;
      }

      .cls-4 {
        fill: #04ae67;
      }
    </style>
  </defs>
  <g id="base">
    <rect class="cls-1" x="1" y="1" width="1108" height="848" rx="34"/>
    <path d="M1075,2a33.03734,33.03734,0,0,1,33,33V815a33.03734,33.03734,0,0,1-33,33H35A33.03734,33.03734,0,0,1,2,815V35A33.03734,33.03734,0,0,1,35,2H1075m0-2H35A35,35,0,0,0,0,35V815a34.99994,34.99994,0,0,0,35,35H1075a35,35,0,0,0,35-35V35a35,35,0,0,0-35-35Z"/>
  </g>
  <g id="blue_rectangle" data-name="blue rectangle">
    <rect class="cls-2" x="15.5" y="17.5" width="1079" height="815" rx="25"/>
  </g>
  <g>
    <path id="red_number" data-name="red number" class="cls-3" d="M253.10485,94H534.89518C544.06726,94,551.5,101.07868,551.5,109.81386v118.3776C551.5,236.9213,544.06726,244,534.89518,244H253.10485C243.93274,244,236.5,236.92132,236.5,228.19146V109.81386C236.5,101.07868,243.93274,94,253.10485,94Z"/>
    <g id="М-01">
      <path id="М" class="cls-1" d="M313.481,188.96484l-19.8003-32.45019V207.665H279.05078V130.66455h14.96l22.11035,37.40039L338.231,130.66455h14.96045V207.665H338.561V156.51465l-19.79981,32.45019Z"/>
      <path id="_-" data-name="-" class="cls-1" d="M399.06055,183.13477h-30.25V170.375h30.25Z"/>
      <path id="_0" data-name="0" class="cls-1" d="M438.10938,129.34473c18.04,0,26.73046,13.08984,26.73046,39.71,0,26.51025-8.69043,39.60058-26.73046,39.60058s-26.73047-13.09033-26.73047-39.60058C411.37891,142.43457,420.06934,129.34473,438.10938,129.34473Zm-12.75977,39.71c0,17.49023,4.50977,27.28027,12.75977,27.28027s12.75976-9.79,12.75976-27.28027c0-17.6001-4.50976-27.39014-12.75976-27.39014S425.34961,151.45459,425.34961,169.05469Z"/>
      <path id="_1" data-name="1" class="cls-1" d="M508.94922,207.665h-13.9707V147.60449c-2.96973,3.8501-10.4502,7.48047-17.37989,8.69043V142.76465c7.48047-1.6499,14.96-6.6001,18.7002-12.1001h12.65039Z"/>
    </g>
  </g>
  <g>
    <path id="green_number" data-name="green number" class="cls-4" d="M599.05058,94H862.94945A15.68205,15.68205,0,0,1,878.5,109.81386V228.18614A15.68205,15.68205,0,0,1,862.94945,244H599.05058A15.68206,15.68206,0,0,1,583.5,228.18614V109.81386A15.68206,15.68206,0,0,1,599.05058,94Z"/>
    <g id="E_40" data-name="E 40">
      <path id="E" class="cls-1" d="M680.67578,207.665H627.98535V130.66455H680.126v13.09033H642.72559V162.125h31.24023v13.08984H642.72559V194.5752h37.95019Z"/>
      <path id="_4" data-name="4" class="cls-1" d="M747.88574,189.625H712.79492V177.74512l31.90039-47.08057h17.16016v47.08057h9.90039V189.625h-9.90039v18.04H747.88574Zm-21.89062-11.87988h21.89062V145.62451Z"/>
      <path id="_0-2" data-name="0" class="cls-1" d="M807.28418,129.34473c18.04,0,26.73047,13.08984,26.73047,39.71,0,26.51025-8.69043,39.60058-26.73047,39.60058s-26.73047-13.09033-26.73047-39.60058C780.55371,142.43457,789.24414,129.34473,807.28418,129.34473Zm-12.75977,39.71c0,17.49023,4.50977,27.28027,12.75977,27.28027s12.75977-9.79,12.75977-27.28027c0-17.6001-4.50977-27.39014-12.75977-27.39014S794.52441,151.45459,794.52441,169.05469Z"/>
    </g>
  </g>
  <g id="Житомир">
    <path id="Ж" class="cls-1" d="M163.1416,418.89648h-18.415v-43.0664h-8.99023l-26.10059,43.0664h-22.041l32.916-52.34668L90.63965,317.39355h21.31543l24.50586,41.18067h8.26562V317.39355h18.415v41.18067h8.1211l24.65039-41.18067h21.31543l-29.8711,49.15625,32.916,52.34668h-22.04l-26.2461-43.0664h-8.8457Z"/>
    <path id="и" class="cls-1" d="M280.59082,346.39453h17.25586v72.502H279.57617v-43.0664L249.415,418.89648H232.15918v-72.502h18.27051V389.46Z"/>
    <path id="т" class="cls-1" d="M311.03711,346.39453h62.35156v15.66016h-22.041v56.84179H333.07715V362.05469h-22.04Z"/>
    <path id="о" class="cls-1" d="M414.42188,420.20117c-21.60547,0-33.78614-13.48535-33.78614-37.55566,0-24.07129,12.18067-37.55664,33.78614-37.55664S448.208,358.57422,448.208,382.64551C448.208,406.71582,436.02734,420.20117,414.42188,420.20117Zm0-16.24023c10.15039,0,15.37109-7.10547,15.37109-21.31543,0-14.21094-5.2207-21.31641-15.37109-21.31641s-15.37012,7.10547-15.37012,21.31641C399.05176,396.85547,404.27148,403.96094,414.42188,403.96094Z"/>
    <path id="м-2" data-name="м" class="cls-1" d="M500.11523,406.86133l-18.2705-30.88672v42.92187H464.58887v-72.502h18.56054l20.73633,34.65527,20.58985-34.65527h18.70605v72.502H525.92578V375.97461l-18.27051,30.88672Z"/>
    <path id="и-2" data-name="и" class="cls-1" d="M612.05566,346.39453h17.25586v72.502H611.041v-43.0664l-30.16114,43.0664H563.624v-72.502h18.27051V389.46Z"/>
    <path id="р" class="cls-1" d="M687.59766,345.08887c18.99609,0,29.72656,13.48535,29.72656,37.55664,0,24.07031-10.58594,37.55566-29.72656,37.55566-8.41016,0-14.93555-2.90039-19.43067-8.26465v33.06055H649.89648V346.39453h17.25586v8.26465Q674.11328,345.08936,687.59766,345.08887Zm-3.915,16.24023c-10.29492,0-15.51563,7.10547-15.51563,21.31641,0,14.21,5.22071,21.31543,15.51563,21.31543,10.15039,0,15.37109-7.10547,15.37109-21.1709C699.05371,368.43457,693.833,361.3291,683.68262,361.3291Z"/>
  </g>
  <g id="_12" data-name="12">
    <path id="_1-2" data-name="1" class="cls-1" d="M930.6709,418.89648h-18.416V339.72363c-3.915,5.0752-13.77539,9.86035-22.91015,11.45606V333.34375c9.86035-2.1748,19.7207-8.7002,24.65039-15.9502H930.6709Z"/>
    <path id="_2" data-name="2" class="cls-1" d="M1025.64453,402.65625v16.24023H957.34766V403.38086c17.98046-15.9502,48.72168-40.166,48.72168-58.72656,0-7.39551-5.80079-12.3252-14.791-12.3252-10.29492,0-16.53027,6.66992-16.53027,17.98047H956.332c0-20.44629,14.06543-34.22168,35.0918-34.22168,19.28515,0,33.06055,11.60059,33.06055,27.69629,0,24.07031-21.751,41.4707-41.47168,59.0166Z"/>
  </g>
  <g id="Рівне">
    <path id="Р-2" data-name="Р" class="cls-1" d="M106.32031,589.89648H86.88965V488.39355h39.29687c21.31543,0,35.09082,12.75977,35.09082,32.48047s-13.92089,32.48145-35.09082,32.48145H106.32031Zm17.11133-84.248H106.32031v30.45117h17.25586c11.89063,0,17.98047-5.0752,17.98047-15.22559C141.55664,510.86914,135.32129,505.64844,123.43164,505.64844Z"/>
    <path id="і" class="cls-1" d="M185.19922,484.62305a10.803,10.803,0,1,1-10.73047,10.875A10.59507,10.59507,0,0,1,185.19922,484.62305ZM194.335,589.89648H176.06445V517.39453H194.335Z"/>
    <path id="в" class="cls-1" d="M275.09863,537.25977a17.7124,17.7124,0,0,1-8.12011,15.51562c6.81543,3.335,10.44043,8.99023,10.44043,16.67481,0,13.05078-10.44043,20.44628-28.85547,20.44628h-33.6416V517.39453h32.48144C265.09375,517.39453,275.09863,524.64453,275.09863,537.25977Zm-27.11523,9.57031c5.50976,0,8.70019-2.75488,8.70019-7.54,0-4.64063-3.19043-7.39551-8.70019-7.39551h-14.791v14.93555Zm1.59472,28.56543c5.94532,0,9.42579-2.89942,9.42579-7.97461,0-4.93067-3.48047-7.68555-9.42579-7.68555H233.19238v15.66016Z"/>
    <path id="н" class="cls-1" d="M312.36133,589.89648H294.09082V517.39453h18.27051v27.98535h27.98633V517.39453h18.415v72.50195h-18.415v-29.001H312.36133Z"/>
    <path id="е" class="cls-1" d="M374.999,553.64551c0-23.63574,12.32618-37.55664,33.20606-37.55664,20.88086,0,32.626,13.77539,32.626,38.28125v4.93066H393.125c.29,10.72949,7.25,16.24024,18.415,16.24024a23.6209,23.6209,0,0,0,17.5459-7.10547l10.585,11.31054c-7.68457,7.25-16.09473,11.45508-28.71094,11.45508C388.19434,591.20117,374.999,578.00586,374.999,553.64551Zm18.126-7.251h30.74121c-.87012-9.85937-6.38086-15.22461-15.08105-15.22461C399.65039,531.16992,394.13965,536.53516,393.125,546.39453Z"/>
  </g>
  <g id="Чоп">
    <path class="cls-1" d="M143.23438,657.39355h19.42968V758.89648H143.23438v-40.8916a88.036,88.036,0,0,1-24.7959,3.77051c-21.46094,0-33.4961-10.2959-33.4961-28.27637V657.39355h19.43067v31.75586c0,10.00489,6.66992,15.08008,19.43066,15.08008a47.55445,47.55445,0,0,0,19.43067-4.05957Z"/>
    <path class="cls-1" d="M214.42676,760.20117c-21.60645,0-33.78614-13.48535-33.78614-37.55566,0-24.07129,12.17969-37.55664,33.78614-37.55664,21.60547,0,33.78613,13.48535,33.78613,37.55664C248.21289,746.71582,236.03223,760.20117,214.42676,760.20117Zm0-16.24023c10.15039,0,15.37012-7.10547,15.37012-21.31543,0-14.21094-5.21973-21.31641-15.37012-21.31641s-15.3711,7.10547-15.3711,21.31641C199.05566,736.85547,204.27637,743.96094,214.42676,743.96094Z"/>
    <path class="cls-1" d="M264.59277,758.89648V686.39453H328.54v72.50195H310.124V702.05469H282.86328v56.84179Z"/>
  </g>
  <g id="_202" data-name="202">
    <path class="cls-1" d="M850.68848,571.65625v16.24023H782.3916V572.38086c17.98047-15.9502,48.72168-40.166,48.72168-58.72656,0-7.39551-5.80078-12.3252-14.791-12.3252-10.29493,0-16.53028,6.66992-16.53028,17.98047H781.376c0-20.44629,14.06543-34.22168,35.09179-34.22168,19.28516,0,33.06055,11.60059,33.06055,27.69629,0,24.07031-21.751,41.4707-41.4707,59.0166Z"/>
    <path class="cls-1" d="M901.582,484.65332c23.78027,0,35.23535,17.25586,35.23535,52.34668,0,34.94531-11.45508,52.20117-35.23535,52.20117-23.78125,0-35.23633-17.25586-35.23633-52.20117C866.3457,501.90918,877.80078,484.65332,901.582,484.65332ZM884.76074,537c0,23.05566,5.94531,35.96094,16.82129,35.96094,10.875,0,16.82031-12.90528,16.82031-35.96094,0-23.20117-5.94531-36.10645-16.82031-36.10645C890.70605,500.89355,884.76074,513.79883,884.76074,537Z"/>
    <path class="cls-1" d="M1021.78711,571.65625v16.24023H953.49023V572.38086c17.98047-15.9502,48.72168-40.166,48.72168-58.72656,0-7.39551-5.7998-12.3252-14.79-12.3252-10.2959,0-16.53126,6.66992-16.53126,17.98047h-18.415c0-20.44629,14.06543-34.22168,35.09082-34.22168,19.28613,0,33.06152,11.60059,33.06152,27.69629,0,24.07031-21.751,41.4707-41.47168,59.0166Z"/>
  </g>
  <g id="_709" data-name="709">
    <path id="_7" data-name="7" class="cls-1" d="M815.76855,758.89648H795.90234l35.23633-85.4082H781.54785V657.39355H851.294v15.66016Z"/>
    <path id="_0-3" data-name="0" class="cls-1" d="M903.05762,655.65332c23.78125,0,35.23633,17.25586,35.23633,52.34668,0,34.94531-11.45508,52.20117-35.23633,52.20117-23.78028,0-35.23633-17.25586-35.23633-52.20117C867.82129,672.90918,879.27734,655.65332,903.05762,655.65332ZM886.2373,708c0,23.05566,5.94532,35.96094,16.82032,35.96094S919.87793,731.05566,919.87793,708c0-23.20117-5.94531-36.10645-16.82031-36.10645S886.2373,684.79883,886.2373,708Z"/>
    <path id="_9" data-name="9" class="cls-1" d="M988.02734,656.08789c22.76563,0,35.6709,16.67578,35.6709,45.38672,0,36.541-21.89551,58.72656-58.001,58.72656l-3.77051-16.0957c26.24609,0,42.77636-12.75977,42.9209-31.75586-2.60938,5.80078-10.43946,9.86035-20.58985,9.86035-18.70605,0-31.61133-13.0498-31.61133-32.0459C952.64648,670.00879,967.292,656.08789,988.02734,656.08789Zm-.87011,16.24121c-10.15039,0-16.09473,7.10449-16.09473,16.82031,0,9.57032,5.94434,16.96485,16.09473,16.96485s16.24121-7.39453,16.24121-16.96485C1003.39844,679.28906,997.01758,672.3291,987.15723,672.3291Z"/>
  </g>
</svg>
