<svg id="Слой_1" data-name="Слой 1" xmlns="http://www.w3.org/2000/svg" width="740" height="890" viewBox="0 0 740 890">
  <defs>
    <style>
      .cls-1 {
        fill: #fff;
      }

      .cls-2 {
        fill: #ffdf00;
      }

      .cls-3 {
        fill: red;
      }

      .cls-4 {
        fill: #e30013;
      }

      .cls-4, .cls-5, .cls-6 {
        stroke: #fff;
        stroke-miterlimit: 10;
        stroke-width: 4px;
      }

      .cls-5 {
        fill: #04ae67;
      }

      .cls-6 {
        fill: #005999;
      }
    </style>
  </defs>
  <g>
    <rect class="cls-1" x="1" y="1" width="738" height="888" rx="29"/>
    <path d="M710,2a28.03168,28.03168,0,0,1,28,28V860a28.03169,28.03169,0,0,1-28,28H30A28.03168,28.03168,0,0,1,2,860V30A28.03166,28.03166,0,0,1,30,2H710m0-2H30A29.99994,29.99994,0,0,0,0,30V860a29.99993,29.99993,0,0,0,30,30H710a29.99993,29.99993,0,0,0,30-30V30A29.99993,29.99993,0,0,0,710,0Z"/>
  </g>
  <rect class="cls-2" x="15" y="15" width="710" height="860" rx="20"/>
  <path d="M125,391V208.71L157,240V206l-45-42L67,206v34l32-31.29V853h26V698H494V391ZM468,672H125V417H468Z"/>
  <g>
    <circle class="cls-1" cx="481" cy="404" r="30"/>
    <path d="M481,376.5A27.5,27.5,0,1,1,453.5,404,27.53112,27.53112,0,0,1,481,376.5m0-5A32.5,32.5,0,1,0,513.5,404,32.5,32.5,0,0,0,481,371.5Z"/>
  </g>
  <g>
    <circle class="cls-1" cx="481" cy="686" r="30"/>
    <path d="M481,658.5A27.5,27.5,0,1,1,453.5,686,27.53112,27.53112,0,0,1,481,658.5m0-5A32.5,32.5,0,1,0,513.5,686,32.5,32.5,0,0,0,481,653.5Z"/>
  </g>
  <g>
    <circle class="cls-1" cx="112" cy="545" r="82"/>
    <path class="cls-3" d="M112,463.5A81.5,81.5,0,1,1,30.5,545,81.59231,81.59231,0,0,1,112,463.5m0-1A82.5,82.5,0,1,0,194.5,545,82.59366,82.59366,0,0,0,112,462.5Z"/>
  </g>
  <g>
    <circle class="cls-1" cx="112" cy="545" r="70"/>
    <path class="cls-3" d="M112,483.5A61.5,61.5,0,1,1,50.5,545,61.56968,61.56968,0,0,1,112,483.5m0-17A78.5,78.5,0,1,0,190.5,545,78.5,78.5,0,0,0,112,466.5Z"/>
  </g>
  <g>
    <path d="M438,37.91016h10.98828v23.042h6.47852l14.59569-23.042h12.95606L464.65039,65.79l20.09082,29.52051H471.78516L455.54883,70.71h-6.56055V95.31055H438Z"/>
    <path d="M518.85156,54.31055h9.75879v41h-10.332V70.95605l-17.05664,24.3545h-9.75781v-41h10.332V78.66406Z"/>
    <path d="M538.44824,36.92578a5.01811,5.01811,0,0,1,5.167,5.248,5.16717,5.16717,0,0,1-10.333,0A5.0649,5.0649,0,0,1,538.44824,36.92578ZM550.585,95.31055h-10.332v-41h10.332Zm1.80371-58.38477a5.01733,5.01733,0,0,1,5.166,5.248,5.16668,5.16668,0,0,1-10.332,0A5.01732,5.01732,0,0,1,552.38867,36.92578Z"/>
    <path d="M596.25879,65.544a10.01837,10.01837,0,0,1-4.5918,8.77441,9.88156,9.88156,0,0,1,5.90332,9.42969c0,7.38086-5.90332,11.5625-16.31738,11.5625H562.22852v-41h18.36816C590.60059,54.31055,596.25879,58.41016,596.25879,65.544Zm-15.334,5.4121c3.11524,0,4.91993-1.55761,4.91993-4.26367,0-2.624-1.80469-4.18261-4.91993-4.18261h-8.36425v8.44628Zm.90137,16.1543c3.36231,0,5.33008-1.63965,5.33008-4.50976,0-2.78809-1.96777-4.34668-5.33008-4.34668h-9.26562v8.85644Z"/>
  </g>
  <g>
    <path d="M385.09473,298.83984l-10.98047-17.99609v28.36719H366V266.50781h8.2959l12.26269,20.74024,12.26172-20.74024h8.2959v42.70313h-8.11328V280.84375l-10.98047,17.99609Z"/>
    <path d="M436.82324,278.709H444.083v30.502h-7.6875V291.0918l-12.68946,18.11914h-7.25976V278.709h7.6875v18.11719Z"/>
    <path d="M468.60254,278.1582c7.99219,0,12.50586,5.67383,12.50586,15.80078s-4.45313,15.80079-12.50586,15.80079a10.15709,10.15709,0,0,1-8.17578-3.47657v13.90821h-7.68555V278.709H460.001v3.47657Q462.92774,278.16015,468.60254,278.1582Zm-1.64649,6.834c-4.332,0-6.52929,2.98828-6.52929,8.96679s2.19726,8.96875,6.52929,8.96875c4.26954,0,6.46485-2.99023,6.46485-8.9082C473.4209,287.98047,471.22559,284.99219,466.95605,284.99219Z"/>
    <path d="M488.05957,278.709H508.8623v6.5879H495.74512v23.91406h-7.68555Z"/>
    <path d="M526.124,309.75977c-9.08984,0-14.21289-5.67383-14.21289-15.80079s5.123-15.80078,14.21289-15.80078,14.21485,5.67383,14.21485,15.80078S535.21387,309.75977,526.124,309.75977Zm0-6.832c4.27149,0,6.4668-2.99023,6.4668-8.96875s-2.19531-8.96679-6.4668-8.96679c-4.26953,0-6.46679,2.98828-6.46679,8.96679S521.85449,302.92773,526.124,302.92773Z"/>
    <path d="M563.08887,278.1582c7.99218,0,12.50586,5.67383,12.50586,15.80078s-4.45313,15.80079-12.50586,15.80079a10.153,10.153,0,0,1-8.17383-3.47657v13.90821h-7.6875V278.709h7.25976v3.47657Q557.417,278.16015,563.08887,278.1582Zm-1.64649,6.834c-4.332,0-6.52734,2.98828-6.52734,8.96679s2.19531,8.96875,6.52734,8.96875c4.26953,0,6.4668-2.99023,6.4668-8.9082C567.90918,287.98047,565.71191,284.99219,561.44238,284.99219Z"/>
    <path d="M594.99316,309.75977c-9.08984,0-14.21484-5.67383-14.21484-15.80079s5.125-15.80078,14.21484-15.80078,14.21289,5.67383,14.21289,15.80078S604.083,309.75977,594.99316,309.75977Zm0-6.832c4.26954,0,6.4668-2.99023,6.4668-8.96875s-2.19726-8.96679-6.4668-8.96679c-4.27148,0-6.46679,2.98828-6.46679,8.96679S590.72168,302.92773,594.99316,302.92773Z"/>
    <path d="M612.49707,317.752V302.62109H615.792c2.7461-2.43945,3.35547-8.29492,3.9043-23.91211h22.44922v23.91211h4.57617V317.752h-5.85742l-1.40235-8.541H619.75684l-1.3418,8.541ZM634.46,302.62109V285.23633h-7.93164c-.30469,8.23437-.97461,13.66406-2.43945,17.38476Z"/>
  </g>
  <g>
    <path d="M260,773.31445V730.61133h17.56934c8.17431,0,13.543,4.39258,13.543,11.16406,0,4.209-2.13525,7.6875-5.6123,9.15039,4.51416,1.89063,6.89355,5.3086,6.89355,10.00586,0,7.56445-5.73437,12.38281-14.519,12.38281Zm16.89844-35.44336h-8.72412v10.24805h8.72412c3.84326,0,6.03905-1.83008,6.03905-5.12305C282.93749,739.70117,280.7417,737.87109,276.89844,737.87109Zm.915,17.082h-9.63916v11.10157h9.63916c4.02588,0,6.34423-2.01172,6.34423-5.55078S281.83936,754.95312,277.81348,754.95312Z"/>
    <path d="M298.00244,758.06445c0-9.94531,5.186-15.80078,13.97119-15.80078,8.78321,0,13.72461,5.79492,13.72461,16.10547v2.07422H305.62793c.12305,4.51367,3.05078,6.832,7.74805,6.832a9.93284,9.93284,0,0,0,7.38086-2.98828l4.45312,4.75781a16.2928,16.2928,0,0,1-12.07812,4.81836C303.55371,773.86328,298.00244,768.3125,298.00244,758.06445Zm7.62549-3.05078h12.93359c-.36718-4.14844-2.68359-6.40625-6.3457-6.40625C308.374,748.60742,306.05566,750.86523,305.62793,755.01367Z"/>
    <path d="M328.86816,767.459c5.18555-1.40429,6.28321-4.9414,7.13672-24.64648h22.14649v30.50195h-7.6875V749.33984h-7.625c-.73242,17.44727-3.35547,22.75586-12.26172,24.76758Z"/>
    <path d="M387.18457,742.8125h7.25977v30.50195h-7.68555V755.19727l-12.68945,18.11718h-7.25977V742.8125h7.68555v18.11914Z"/>
    <path d="M410.79,761.11328v12.20117h-7.6875V742.8125H410.79v11.28516h2.86719l7.625-11.28516h9.02929l-10.37109,14.76367,11.28516,15.73828H422.1377l-8.48047-12.20117Z"/>
    <path d="M434.94629,746.47266a19.42484,19.42484,0,0,1,12.56641-4.209c8.17578,0,12.38476,3.59961,12.38476,10.67578v12.20117a3.75869,3.75869,0,0,0,2.68359,3.78126l-2.31835,4.88085c-3.293,0-5.67188-1.03711-6.95313-3.11132-1.76953,2.01367-5.00391,3.17187-8.9082,3.17187-6.64844,0-10.49219-3.35547-10.49219-8.8457,0-5.85547,4.332-9.51563,11.5918-10.00391l6.709-.42773v-1.28125c0-2.80469-1.95117-4.39258-5.49023-4.39258a12.34406,12.34406,0,0,0-7.8086,2.74609Zm11.16406,13.84765c-3.11133.1836-4.82031,1.64844-4.82031,3.9668,0,2.37891,1.709,3.7207,5.06445,3.7207,3.84375,0,5.85547-1.89062,5.85547-5.79492v-2.25781Z"/>
    <path d="M482.8916,730.61133h27.51367v7.25976H491.06543v8.72461h8.35742c8.9082,0,14.76367,5.2461,14.76367,13.35938s-5.79492,13.35937-14.76367,13.35937H482.8916Zm8.17383,23.24219v12.20117h7.19922c5.00195,0,7.625-2.07422,7.625-6.09961,0-4.02735-2.5625-6.10156-7.56445-6.10156Z"/>
    <path d="M519.37012,746.47266a19.42483,19.42483,0,0,1,12.5664-4.209c8.17383,0,12.38282,3.59961,12.38282,10.67578v12.20117a3.75811,3.75811,0,0,0,2.68554,3.78126l-2.31836,4.88085c-3.29492,0-5.67382-1.03711-6.95507-3.11132-1.76954,2.01367-5.002,3.17187-8.90625,3.17187-6.6504,0-10.49219-3.35547-10.49219-8.8457,0-5.85547,4.33008-9.51563,11.58984-10.00391l6.71094-.42773v-1.28125c0-2.80469-1.95313-4.39258-5.49024-4.39258a12.33631,12.33631,0,0,0-7.80859,2.74609Zm11.16406,13.84765c-3.11133.1836-4.82031,1.64844-4.82031,3.9668,0,2.37891,1.709,3.7207,5.0625,3.7207,3.84375,0,5.85742-1.89062,5.85742-5.79492v-2.25781Z"/>
    <path d="M552.61426,742.8125H573.417v6.58789H560.2998v23.91406h-7.68554Z"/>
    <path d="M577.50293,746.47266a19.42484,19.42484,0,0,1,12.56641-4.209c8.17382,0,12.38281,3.59961,12.38281,10.67578v12.20117a3.75811,3.75811,0,0,0,2.68555,3.78126l-2.31836,4.88085c-3.29493,0-5.67383-1.03711-6.95508-3.11132-1.76953,2.01367-5.002,3.17187-8.90625,3.17187-6.65039,0-10.49219-3.35547-10.49219-8.8457,0-5.85547,4.33008-9.51563,11.58984-10.00391l6.71094-.42773v-1.28125c0-2.80469-1.95312-4.39258-5.49023-4.39258a12.33635,12.33635,0,0,0-7.8086,2.74609ZM588.667,760.32031c-3.11133.1836-4.82031,1.64844-4.82031,3.9668,0,2.37891,1.709,3.7207,5.0625,3.7207,3.84375,0,5.85742-1.89062,5.85742-5.79492v-2.25781Z"/>
    <path d="M628.13184,742.8125h7.748v30.50195h-7.748V761.8457a23.4161,23.4161,0,0,1-8.05274,1.46485c-6.77148,0-10.61523-3.416-10.61523-9.57813V742.8125h7.6875v9.08984c0,3.11133,1.83008,4.75782,5.36914,4.75782a10.88681,10.88681,0,0,0,5.61133-1.52539Z"/>
    <path d="M652.22559,761.11328v12.20117H644.54V742.8125h7.68555v11.28516h2.86718l7.627-11.28516h9.02734l-10.36914,14.76367,11.28516,15.73828h-9.08985l-8.48047-12.20117Z"/>
    <path d="M676.38184,746.47266a19.42483,19.42483,0,0,1,12.5664-4.209c8.17578,0,12.38477,3.59961,12.38477,10.67578v12.20117a3.75869,3.75869,0,0,0,2.68359,3.78126l-2.31836,4.88085c-3.293,0-5.67187-1.03711-6.95312-3.11132-1.76953,2.01367-5.00391,3.17187-8.90821,3.17187-6.64843,0-10.49218-3.35547-10.49218-8.8457,0-5.85547,4.332-9.51563,11.59179-10.00391l6.709-.42773v-1.28125c0-2.80469-1.95117-4.39258-5.49024-4.39258a12.34405,12.34405,0,0,0-7.80859,2.74609Zm11.16406,13.84765c-3.11133.1836-4.82031,1.64844-4.82031,3.9668,0,2.37891,1.709,3.7207,5.06445,3.7207,3.84375,0,5.85547-1.89062,5.85547-5.79492v-2.25781Z"/>
  </g>
  <g>
    <path d="M446.57617,158.21094H438V113.41406h8.57617v20.15821l17.15039-20.15821H474.2207l-15.166,17.66211,16.89453,27.13477H465.90234l-12.79882-20.79883-6.52735,7.42383Z"/>
    <path d="M483.05664,170.30469a12.30986,12.30986,0,0,1-5.31152-1.02344l.76855-6.7832a7.64878,7.64878,0,0,0,3.13477.64062c2.623,0,4.16015-1.34375,5.3125-5.05664l-12.16016-31.86914h8.64063l7.35937,20.92578,7.29492-20.92578h8.63868l-13.18165,34.75C490.92773,167.9375,488.24023,170.30469,483.05664,170.30469Z"/>
    <path d="M516.01562,111.75a4.7677,4.7677,0,1,1-4.73437,4.79883A4.67612,4.67612,0,0,1,516.01562,111.75Zm4.03321,46.46094h-8.06445v-31.998h8.06445Z"/>
    <path d="M545.39062,158.21094h-8.31835l-11.77539-31.998h8.63867l7.35937,21.88672,7.29492-21.88672h8.64063Z"/>
  </g>
  <g>
    <path d="M380.71094,352.88281l-8.459-13.86523v21.85351H366V327.97266h6.39258l9.44629,15.98046,9.44629-15.98046h6.3916v32.89843h-6.251V339.01758l-8.459,13.86523Z"/>
    <path d="M408.11328,369.75391a9.03563,9.03563,0,0,1-3.90234-.752l.56445-4.98242a5.59549,5.59549,0,0,0,2.30273.4707c1.92774,0,3.05469-.98632,3.9004-3.71289l-8.92872-23.40429h6.34473l5.4043,15.36718,5.35742-15.36718h6.3457l-9.68164,25.51953C413.89258,368.01562,411.91992,369.75391,408.11328,369.75391Z"/>
    <path d="M429.35742,337.37305h5.5918v3.28906a8.00918,8.00918,0,0,1,7.00195-3.71289,8.94324,8.94324,0,0,1,3.291.61133l-2.34961,5.40429a4.65,4.65,0,0,0-2.39649-.60937c-3.33789,0-5.21679,2.49023-5.21679,6.86133v11.65429h-5.92188Z"/>
    <path d="M455.207,360.87109h-5.92187V327.97266H455.207v11.84375a8.69609,8.69609,0,0,1,6.76758-2.86719c5.12109,0,8.03516,3.24414,8.03516,8.92969v14.99218H464.041V346.44336c0-2.72656-1.55079-4.23047-4.2754-4.23047-2.86718,0-4.55859,1.64649-4.55859,4.55859Z"/>
    <path d="M485.99023,361.29492c-7.002,0-10.95117-4.37109-10.95117-12.17187,0-7.80274,3.94922-12.17383,10.95117-12.17383s10.95118,4.37109,10.95118,12.17383C496.94141,356.92383,492.99219,361.29492,485.99023,361.29492Zm0-5.26367c3.28907,0,4.98243-2.30273,4.98243-6.9082,0-4.60743-1.69336-6.91016-4.98243-6.91016-3.33593,0-4.98242,2.30273-4.98242,6.91016C481.00781,353.72852,482.6543,356.03125,485.99023,356.03125Z"/>
    <path d="M502.252,337.37305h5.59375v3.28906a8.00921,8.00921,0,0,1,7.002-3.71289,8.93255,8.93255,0,0,1,3.28906.61133l-2.34961,5.40429a4.65,4.65,0,0,0-2.39649-.60937c-3.33593,0-5.21679,2.49023-5.21679,6.86133v11.65429H502.252Z"/>
    <path d="M531.20312,361.29492c-7.00195,0-10.94921-4.37109-10.94921-12.17187,0-7.80274,3.94726-12.17383,10.94921-12.17383,7.00391,0,10.95118,4.37109,10.95118,12.17383C542.1543,356.92383,538.207,361.29492,531.20312,361.29492Zm0-5.26367c3.291,0,4.98243-2.30273,4.98243-6.9082,0-4.60743-1.69141-6.91016-4.98243-6.91016-3.33593,0-4.98046,2.30273-4.98046,6.91016C526.22266,353.72852,527.86719,356.03125,531.20312,356.03125Z"/>
    <path d="M555.69141,361.29492c-6.10938,0-9.58789-4.37109-9.58789-12.17187,0-7.80274,3.47851-12.17383,9.63476-12.17383a7.64893,7.64893,0,0,1,6.25,2.67969V327.97266H567.957v32.89843h-5.64062v-2.67773A7.67415,7.67415,0,0,1,555.69141,361.29492Zm1.31445-5.26367c3.291,0,4.98242-2.30273,4.98242-6.9082,0-4.60743-1.6914-6.91016-4.98242-6.91016-3.28906,0-4.93359,2.30273-4.93359,6.86328C552.07227,353.72852,553.7168,356.03125,557.00586,356.03125Z"/>
  </g>
  <g>
    <path d="M288.33936,792.82031l-11.04444,32.89844h-6.25049L260,792.82031h6.627l7.51953,23.73438,7.51954-23.73438Z"/>
    <path d="M288.7168,813.96875c0-7.66016,3.99511-12.17187,10.76269-12.17187,6.76709,0,10.57373,4.46484,10.57373,12.40624v1.59961H294.5918c.09375,3.47657,2.34961,5.26368,5.96875,5.26368a7.65523,7.65523,0,0,0,5.686-2.30274l3.43067,3.66406a12.54873,12.54873,0,0,1-9.30518,3.71289C292.99365,826.14062,288.7168,821.86523,288.7168,813.96875Zm5.875-2.34961h9.96338c-.28223-3.19531-2.06788-4.93555-4.8877-4.93555C296.70654,806.68359,294.9209,808.42383,294.5918,811.61914Z"/>
    <path d="M324.99951,820.83008l.32813,4.79492a17.94643,17.94643,0,0,1-3.19532.32812c-4.32421,0-6.76757-2.1621-6.76757-6.0625V792.82031h5.92187v26.03711a1.92832,1.92832,0,0,0,2.209,2.209A6.22285,6.22285,0,0,0,324.99951,820.83008Z"/>
    <path d="M332.33154,834.60156a9.05728,9.05728,0,0,1-3.90136-.75195l.56445-4.98242a5.62725,5.62725,0,0,0,2.30273.4707c1.92676,0,3.05469-.98828,3.90039-3.71289l-8.92968-23.4043h6.34472l5.40528,15.36719,5.35742-15.36719h6.34472l-9.68164,25.51758C338.11182,832.86133,336.13818,834.60156,332.33154,834.60156Z"/>
    <path d="M359.49756,825.71875h-5.92188V792.82031h5.92188v18.752l8.17676-9.35157h7.28515l-8.60058,9.63282,9.25781,13.86523h-6.9082l-6.48536-9.68164-2.72558,3.10156Z"/>
    <path d="M378.34521,805.03906a14.96352,14.96352,0,0,1,9.68165-3.24218c6.29687,0,9.54,2.77343,9.54,8.2246v9.39844a2.89546,2.89546,0,0,0,2.06739,2.91406l-1.78516,3.75977c-2.53808,0-4.37109-.79883-5.3584-2.39648-1.3623,1.55078-3.85351,2.44335-6.86133,2.44335-5.12207,0-8.083-2.584-8.083-6.81445,0-4.51172,3.33593-7.33008,8.92871-7.707l5.16992-.32812v-.98829c0-2.16211-1.50391-3.38281-4.22949-3.38281a9.50159,9.50159,0,0,0-6.01563,2.11524Zm8.60059,10.668c-2.39746.14258-3.71289,1.26953-3.71289,3.05664,0,1.832,1.31543,2.86524,3.90039,2.86524,2.96094,0,4.51172-1.457,4.51172-4.46485v-1.73828Z"/>
    <path d="M415.28662,825.71875V792.82031h13.53516c6.29785,0,10.43359,3.38477,10.43359,8.59961a7.35481,7.35481,0,0,1-4.32422,7.05078,7.904,7.904,0,0,1,5.31153,7.707c0,5.82813-4.418,9.541-11.18555,9.541Zm13.01856-27.30664h-6.72071v7.89648h6.72071c2.96093,0,4.65234-1.41015,4.65234-3.94726C432.95752,799.82227,431.26611,798.41211,428.30518,798.41211Zm.70507,13.16016h-7.42578V820.125h7.42578c3.10157,0,4.8877-1.55078,4.8877-4.27539C433.898,813.12305,432.11182,811.57227,429.01025,811.57227Z"/>
    <path d="M445.13135,805.03906a14.96265,14.96265,0,0,1,9.68066-3.24218c6.29785,0,9.541,2.77343,9.541,8.2246v9.39844a2.89545,2.89545,0,0,0,2.06738,2.91406l-1.78516,3.75977c-2.53808,0-4.37109-.79883-5.35839-2.39648-1.36231,1.55078-3.85352,2.44335-6.86133,2.44335-5.123,0-8.083-2.584-8.083-6.81445,0-4.51172,3.33691-7.33008,8.92871-7.707l5.16992-.32812v-.98829c0-2.16211-1.5039-3.38281-4.22949-3.38281a9.50155,9.50155,0,0,0-6.01562,2.11524Zm8.60058,10.668c-2.39746.14258-3.71289,1.26953-3.71289,3.05664,0,1.832,1.31543,2.86524,3.90039,2.86524,2.96094,0,4.51172-1.457,4.51172-4.46485v-1.73828Z"/>
    <path d="M476.66846,825.71875h-5.92188V792.82031h5.92188v11.84375a8.68958,8.68958,0,0,1,6.76758-2.86718c5.12207,0,8.03613,3.24218,8.03613,8.92968v14.99219h-5.96875V811.291c0-2.72657-1.55078-4.23047-4.27637-4.23047-2.86719,0-4.55859,1.64453-4.55859,4.55859Z"/>
    <path d="M497.06689,805.03906a14.9627,14.9627,0,0,1,9.68067-3.24218c6.29785,0,9.541,2.77343,9.541,8.2246v9.39844A2.89546,2.89546,0,0,0,518.356,822.334l-1.78516,3.75977c-2.53809,0-4.37109-.79883-5.3584-2.39648-1.3623,1.55078-3.85351,2.44335-6.86133,2.44335-5.123,0-8.083-2.584-8.083-6.81445,0-4.51172,3.33691-7.33008,8.92871-7.707l5.16992-.32812v-.98829c0-2.16211-1.50391-3.38281-4.22949-3.38281a9.50157,9.50157,0,0,0-6.01563,2.11524Zm8.60059,10.668c-2.39746.14258-3.71289,1.26953-3.71289,3.05664,0,1.832,1.31543,2.86524,3.90039,2.86524,2.96094,0,4.51172-1.457,4.51172-4.46485v-1.73828Z"/>
    <path d="M527.28662,813.96875c0,4.46484,1.87988,6.95508,5.2168,6.95508a4.96956,4.96956,0,0,0,4.55859-2.77149l4.3711,3.14844a10.17709,10.17709,0,0,1-9.21192,4.83984c-6.95508,0-10.90332-4.418-10.90332-12.17187s3.94824-12.17187,10.90332-12.17187a10.134,10.134,0,0,1,9.21192,4.83984L537.062,809.834a4.9205,4.9205,0,0,0-4.55859-2.77343C529.1665,807.06055,527.28662,809.50391,527.28662,813.96875Z"/>
    <path d="M551.91455,825.71875h-5.92187V792.82031h5.92187v11.84375a8.68961,8.68961,0,0,1,6.76758-2.86718c5.12207,0,8.03613,3.24218,8.03613,8.92968v14.99219h-5.96875V811.291c0-2.72657-1.55078-4.23047-4.27637-4.23047-2.86718,0-4.55859,1.64453-4.55859,4.55859Z"/>
    <path d="M579.03369,825.71875h-5.92187V792.82031h5.92187v18.752l8.17676-9.35157h7.28516l-8.60059,9.63282,9.25879,13.86523h-6.90918l-6.48535-9.68164-2.72559,3.10156Z"/>
    <path d="M597.88135,805.03906a14.96265,14.96265,0,0,1,9.68066-3.24218c6.29785,0,9.541,2.77343,9.541,8.2246v9.39844a2.89545,2.89545,0,0,0,2.06738,2.91406l-1.78516,3.75977c-2.53808,0-4.37109-.79883-5.35839-2.39648-1.36231,1.55078-3.85352,2.44335-6.86133,2.44335-5.12305,0-8.083-2.584-8.083-6.81445,0-4.51172,3.33691-7.33008,8.92871-7.707l5.16992-.32812v-.98829c0-2.16211-1.5039-3.38281-4.22949-3.38281a9.50155,9.50155,0,0,0-6.01562,2.11524Zm8.60058,10.668c-2.39746.14258-3.71289,1.26953-3.71289,3.05664,0,1.832,1.31543,2.86524,3.90039,2.86524,2.96094,0,4.51172-1.457,4.51172-4.46485v-1.73828Z"/>
  </g>
  <g>
    <rect class="cls-4" x="48.5" y="58.5" width="163" height="75" rx="10"/>
    <g>
      <path class="cls-1" d="M80.44043,106.88965,69.64062,89.19043v27.89844H61.66113V75.09082H69.8208L81.88037,95.49023,93.93994,75.09082h8.15918v41.99805H94.11963V89.19043L83.32031,106.88965Z"/>
      <path class="cls-1" d="M127.12012,103.709H110.62061V96.75h16.49951Z"/>
      <path class="cls-1" d="M148.41943,74.37109c9.83985,0,14.57959,7.13965,14.57959,21.65821,0,14.46-4.73974,21.59961-14.57959,21.59961-9.83935,0-14.5791-7.13965-14.5791-21.59961C133.84033,81.51074,138.58008,74.37109,148.41943,74.37109ZM141.46,96.0293c0,9.54,2.45947,14.87988,6.95947,14.87988s6.96-5.33984,6.96-14.87988c0-9.59961-2.46-14.93946-6.96-14.93946S141.46,86.42969,141.46,96.0293Z"/>
      <path class="cls-1" d="M176.73975,86.31055l-7.31983-.96c1.02-6.29981,6.8999-10.79981,14.45947-10.79981,7.91993,0,13.61963,4.79981,13.61963,11.63965a9.51448,9.51448,0,0,1-5.46,8.93945,10.03029,10.03029,0,0,1,6.29981,9.7793c0,7.5-6,12.71973-14.51953,12.71973-8.03955,0-14.21924-4.67969-15.1792-11.2793l7.37939-1.2002c.8999,3.54,3.8999,5.75977,7.91992,5.75977,4.07959,0,6.77979-2.28027,6.77979-6.05957,0-3.71973-2.64014-6.24023-6.83985-6.24023h-2.46V92.37012h2.46c3.65967,0,6-2.21973,6-5.63965,0-3.36035-2.40039-5.46-6.12011-5.46C180.15967,81.27051,177.3999,83.19043,176.73975,86.31055Z"/>
    </g>
  </g>
  <g>
    <rect class="cls-5" x="223" y="58.5" width="150" height="75" rx="10"/>
    <g>
      <path class="cls-1" d="M270.54932,117.08887H241.81055V75.09082h28.439v7.13965H249.8501V92.25h17.03906v7.13965H249.8501v10.55957h20.69922Z"/>
      <path class="cls-1" d="M307.21,107.249H288.07031v-6.47949l17.39942-25.67871h9.35937v25.67871h5.40039V107.249H314.8291v9.83985H307.21Zm-11.93945-6.47949H307.21V83.25Z"/>
      <path class="cls-1" d="M339.60938,74.37109c9.83984,0,14.58007,7.13965,14.58007,21.65821,0,14.46-4.74023,21.59961-14.58007,21.59961-9.83887,0-14.57911-7.13965-14.57911-21.59961C325.03027,81.51074,329.77051,74.37109,339.60938,74.37109Zm-6.959,21.65821c0,9.54,2.46,14.87988,6.959,14.87988,4.5,0,6.96-5.33984,6.96-14.87988,0-9.59961-2.46-14.93946-6.96-14.93946C335.11035,81.08984,332.65039,86.42969,332.65039,96.0293Z"/>
    </g>
  </g>
  <rect class="cls-6" x="204" y="286" width="126" height="60" rx="10"/>
  <g>
    <path class="cls-1" d="M227.51025,331.6001h-5.89746V300.79541h11.92578c6.46973,0,10.64942,3.873,10.64942,9.85742,0,5.98535-4.22461,9.85742-10.64942,9.85742h-6.02832Zm5.19239-25.56739h-5.19239v9.24122h5.23633c3.6084,0,5.457-1.54,5.457-4.6211C238.20361,307.6167,236.311,306.03271,232.70264,306.03271Z"/>
    <path class="cls-1" d="M260.29053,321.78662H248.189v-5.10449h12.10157Z"/>
    <path class="cls-1" d="M278.10986,324.3833H264.07178v-4.75293l12.76269-18.835h6.86426v18.835h3.96094v4.75293h-3.96094v7.2168h-5.58887Zm-8.75683-4.75293h8.75683V306.78076Z"/>
    <path class="cls-1" d="M312.38721,326.67139v4.92871H291.65967v-4.709c5.457-4.84082,14.78613-12.18945,14.78613-17.82226,0-2.24414-1.75976-3.74024-4.48828-3.74024-3.125,0-5.0166,2.02442-5.0166,5.45606h-5.58887c0-6.2041,4.26856-10.38477,10.64941-10.38477,5.85254,0,10.03321,3.52051,10.03321,8.40528,0,7.30468-6.60059,12.585-12.58594,17.91015Z"/>
  </g>
  <rect class="cls-6" x="233" y="601" width="180" height="60" rx="10"/>
  <rect class="cls-6" x="514" y="511" width="180" height="60" rx="10"/>
  <g>
    <path class="cls-1" d="M263.63379,646.40186H257.7373V620.83447h-8.84521v-5.2373h23.5874v5.2373h-8.8457Z"/>
    <path class="cls-1" d="M288.1416,636.58838H276.04v-5.10449H288.1416Z"/>
    <path class="cls-1" d="M306.13721,646.40186h-5.58887V622.37451c-1.18848,1.54-4.18066,2.99219-6.95313,3.47656V620.438a12.94594,12.94594,0,0,0,7.48047-4.84082h5.06153Z"/>
    <path class="cls-1" d="M323.91162,646.40186h-6.0293l10.69434-25.91993H313.52588v-4.88476h21.167v4.75293Z"/>
    <path class="cls-1" d="M352.15967,636.58838H340.05811v-5.10449h12.10156Z"/>
    <path class="cls-1" d="M370.15576,646.40186h-5.58887V622.37451c-1.18847,1.54-4.18066,2.99219-6.95312,3.47656V620.438a12.94753,12.94753,0,0,0,7.48047-4.84082h5.06152Z"/>
    <path class="cls-1" d="M388.28271,615.20166c6.90918,0,10.8252,5.06055,10.8252,13.77344,0,11.08984-6.64453,17.82324-17.60254,17.82324l-1.14355-4.88477c7.96484,0,12.98144-3.873,13.02539-9.63769-.792,1.75976-3.168,2.99219-6.249,2.99219-5.67675,0-9.59277-3.96-9.59277-9.72559C377.54541,619.42627,381.98975,615.20166,388.28271,615.20166Zm-.26367,4.92871c-3.08105,0-4.88476,2.15625-4.88476,5.10449,0,2.9043,1.80371,5.14844,4.88476,5.14844,3.08008,0,4.92871-2.24414,4.92871-5.14844A4.75979,4.75979,0,0,0,388.019,620.13037Z"/>
  </g>
  <g>
    <path class="cls-1" d="M543.63379,556.40186H537.7373V530.83447h-8.84521v-5.2373h23.5874v5.2373h-8.8457Z"/>
    <path class="cls-1" d="M568.1416,546.58838H556.04v-5.10449H568.1416Z"/>
    <path class="cls-1" d="M586.13721,556.40186h-5.58887V532.37451c-1.18848,1.54-4.18066,2.99219-6.95313,3.47656V530.438a12.94716,12.94716,0,0,0,7.481-4.84082h5.061Z"/>
    <path class="cls-1" d="M603.91162,556.40186h-6.02881l10.69385-25.91993H593.52637v-4.88476h21.1665v4.75293Z"/>
    <path class="cls-1" d="M632.15967,546.58838H620.05811v-5.10449h12.10156Z"/>
    <path class="cls-1" d="M650.15576,556.40186h-5.58887V532.37451c-1.18847,1.54-4.18066,2.99219-6.95312,3.47656V530.438a12.94753,12.94753,0,0,0,7.48047-4.84082h5.06152Z"/>
    <path class="cls-1" d="M668.28271,525.20166c6.90918,0,10.8252,5.06055,10.8252,13.77344,0,11.08984-6.64453,17.82324-17.60254,17.82324l-1.14355-4.88477c7.96484,0,12.98144-3.873,13.02539-9.63769-.792,1.75976-3.168,2.99219-6.249,2.99219-5.67675,0-9.59277-3.96-9.59277-9.72559C657.54541,529.42627,661.98975,525.20166,668.28271,525.20166Zm-.26367,4.92871c-3.08105,0-4.88476,2.15625-4.88476,5.10449,0,2.9043,1.80371,5.14844,4.88476,5.14844,3.08008,0,4.92871-2.24414,4.92871-5.14844A4.75979,4.75979,0,0,0,668.019,530.13037Z"/>
  </g>
</svg>
