<svg xmlns="http://www.w3.org/2000/svg" width="1824" height="454">
<title>5.67.3 Номер і напрямок маршруту (дороги)</title>
<defs><style>.a{fill:#fff}.b{fill:#005da2}</style></defs><rect class="a" x="1" y="1" width="1822" height="452" rx="46"/><path d="M1777 2a45 45 0 0 1 45 45v360a45 45 0 0 1-45 45H47a45 45 0 0 1-45-45V47A45 45 0 0 1 47 2h1730m0-2H47A47.053 47.053 0 0 0 0 47v360a47.053 47.053 0 0 0 47 47h1730a47.053 47.053 0 0 0 47-47V47a47.053 47.053 0 0 0-47-47z"/><rect class="b" x="22" y="22" width="1350" height="410" rx="25" transform="rotate(180 697 227)"/><rect class="b" x="1392" y="22" width="410" height="410" rx="25" transform="rotate(180 1597 227)"/><path class="a" d="M1650 127h-60l75 75h-221v50h221l-75 75h60l100-100-100-100zM250.652 338.358h-42.881V152.434H143.45v-38.08h171.524v38.08h-64.322zM428.888 266.997h-88.002v-37.121h88.002zM618.966 302.518v35.84H468.242v-34.24c39.682-35.201 107.523-88.642 107.523-129.603 0-16.32-12.8-27.202-32.641-27.202-22.72 0-36.48 14.721-36.48 39.682h-40.642c0-45.121 31.041-75.522 77.442-75.522 42.56 0 72.962 25.6 72.962 61.122 0 53.12-48.002 91.521-91.522 130.243zM660.882 235.636l5.76-121.282h128.642v35.52h-94.721l-2.24 50.88c8.96-8.32 24.32-13.44 41.28-13.44 42.881 0 69.762 29.442 69.762 74.563 0 48.96-31.04 79.361-80.002 79.361-40.321 0-68.801-21.44-75.522-57.281l38.721-7.04c4.16 17.6 19.2 28.48 37.761 28.48 23.68 0 38.4-16.32 38.4-42.24 0-25.601-14.4-41.601-36.48-41.601-14.08 0-26.241 6.4-33.6 17.6zM932.882 266.997H844.88v-37.121h88.002zM1046.479 110.513c52.481 0 77.761 38.08 77.761 115.523 0 77.121-25.28 115.202-77.761 115.202s-77.762-38.08-77.762-115.202c0-77.442 25.28-115.523 77.762-115.523zm-37.122 115.523c0 50.881 13.12 79.361 37.122 79.361 24 0 37.12-28.48 37.12-79.36 0-51.203-13.12-79.683-37.12-79.683-24.001 0-37.122 28.48-37.122 79.682zM1252.558 338.358h-40.641V163.634c-8.64 11.2-30.401 21.76-50.562 25.281v-39.361c21.761-4.8 43.522-19.2 54.402-35.2h36.8z"/></svg>