<svg xmlns="http://www.w3.org/2000/svg" width="1314" height="454">
<title>5.67.3 Номер і напрямок маршруту (дороги)</title>
<defs><style>.a{fill:#fff}.b{fill:#04ae67}</style></defs><rect class="a" x="1" y="1" width="1312" height="452" rx="46"/><path d="M1267 2a45 45 0 0 1 45 45v360a45 45 0 0 1-45 45H47a45 45 0 0 1-45-45V47A45 45 0 0 1 47 2h1220m0-2H47A47.053 47.053 0 0 0 0 47v360a47.053 47.053 0 0 0 47 47h1220a47.053 47.053 0 0 0 47-47V47a47.053 47.053 0 0 0-47-47z"/><rect class="b" x="22" y="22" width="840" height="410" rx="25" transform="rotate(180 442 227)"/><rect class="b" x="882" y="22" width="410" height="410" rx="25" transform="rotate(180 1087 227)"/><path class="a" d="m1053.766 118.813-42.426 42.426h106.066L961.135 317.51l35.355 35.355 156.271-156.271V302.66l42.426-42.426V118.813h-141.421zM300.406 337.358H147.122V113.354h151.684v38.08H190.004v53.441h90.882v38.081h-90.882v56.321h110.402zM495.923 284.877H393.84v-34.56l92.802-136.963h49.921v136.962h28.8v34.561h-28.8v52.481h-40.641zm-63.682-34.56h63.682v-93.443zM668.722 109.513c52.481 0 77.761 38.08 77.761 115.523 0 77.121-25.28 115.202-77.761 115.202s-77.762-38.08-77.762-115.202c0-77.442 25.28-115.523 77.762-115.523zM631.6 225.036c0 50.881 13.12 79.361 37.12 79.361s37.122-28.48 37.122-79.36c0-51.203-13.121-79.683-37.121-79.683-24.001 0-37.121 28.48-37.121 79.682z"/></svg>