<svg id="Слой_1" data-name="Слой 1" xmlns="http://www.w3.org/2000/svg" width="600" height="600" viewBox="0 0 600 600">
  <defs>
    <style>
      .cls-1, .cls-3 {
        fill: #fff;
      }

      .cls-1 {
        stroke: #000;
        stroke-width: 2px;
      }

      .cls-2 {
        fill: #727270;
      }
    </style>
  </defs>
  <g>
    <path class="cls-1" d="M30.3,1H569.7A29.3,29.3,0,0,1,599,30.3V569.7A29.3,29.3,0,0,1,569.7,599H30.3A29.3,29.3,0,0,1,1,569.7V30.3A29.3,29.3,0,0,1,30.3,1Z"/>
    <path d="M136.17,492.6h11.58a17,17,0,0,1,11.74,4.51q4.78,4.42,5,12.22a13.93,13.93,0,0,1-5.79,11.1,22.23,22.23,0,0,1-13.51,4.35q-14.44-.74-21.4-5.8t-6.92-5.79l-11.58,14.16q.36.89,11.1,7.08t27.51,7.08q18.47-.74,28.47-10.62t10.14-20.27q-.41-10.2-5.67-15.83A31.43016,31.43016,0,0,0,166.29,487q-5.26-2.19-5.67-2.1.33.11,4.67-1.72A24.4,24.4,0,0,0,174,476.3q4.34-5,4.67-14.59a26.38,26.38,0,0,0-9-19.94q-8.85-8.06-24.45-8.37-15.74.72-25.47,5.79t-10,5.79l9.75,15.08c-.06-.41,2-2.07,6.11-5s10.67-4.55,19.63-5q10.33.53,13.67,5.63c2.23,3.41,3.24,6.25,3.06,8.53q.08,3.33-3.22,7.88t-10.94,5H136.17Z"/>
    <path d="M242.74,433.4q-21.21.59-31.58,15.86t-10.34,38.19q0,22.94,10.34,38.2t31.58,15.86q21.19-.59,31.57-15.86t10.35-38.2q0-22.92-10.35-38.19T242.74,433.4Zm0,16.73q10.81.17,17.53,10t6.92,27.34Q267,505,260.27,514.8t-17.53,10q-10.83-.15994-17.54-10t-6.92-27.35q.21-17.54,6.92-27.34t17.54-10Z"/>
    <path d="M308.24,538.93h18V492.6h38.61v46.33h18V436h-18v41.19H326.26V436h-18Z"/>
    <path d="M438.09,502.9,451,459.14l12.87,43.76Zm2.58-66.9L407.21,538.93h19.3L433,518.34h36l6.44,20.59h19.3L461.26,436Z"/>
    <circle class="cls-2" cx="300" cy="233" r="172.99999"/>
    <path class="cls-3" d="M269,262h15.49a3.09,3.09,0,1,1,.0094,6.18H269.59a5,5,0,0,0-5.04975,4.94977L264.54,273.18a4.27,4.27,0,0,0,2.89,4,10.42,10.42,0,0,1,6.67,12.61h53.17l1.82-4.26H315.47a4.64,4.64,0,0,1-.00394-9.28H336.76a4.64,4.64,0,1,1,.00394,9.28H335l-2.79,6.55,11.64,16.62a31,31,0,1,1-17.28,32.18H308.46L265.73,308.2l-2.46,5.27a31,31,0,1,1-5.11-3.68l9.32-20,.44-.92a4.14992,4.14992,0,0,0,.4-1.8,4.26005,4.26005,0,0,0-2.87-4,10.47,10.47,0,0,1-7.05-9.89A11.22,11.22,0,0,1,269,262Zm2.87,34.81-3.15,5,40.32,30.83,15.28-35.8Zm58.15,4.36-14,32.8h10.36A31,31,0,0,1,338,312.43Zm-88,9.2a26.32,26.32,0,1,0,19.18,7.59l-5.93,12.7a11.19,11.19,0,0,1-4.56,5l-6.46,3.73a3.1,3.1,0,1,1-3.1-5.36l6.46-3.73a4.99993,4.99993,0,0,0,2.05-2.23l6.51-14a26.17991,26.17991,0,0,0-13.46-3.7Zm115.23,0a26.28019,26.28019,0,0,0-10.69,2.26l15.13,21.6a4.26,4.26,0,0,1-3.49,6.71H331.31a26.31,26.31,0,1,0,26-30.57Zm-16.62,5.92a26.29983,26.29983,0,0,0-9.56,17.68H353Z"/>
    <path class="cls-3" d="M259.29,103.94l-22.44,53.35a5.54,5.54,0,0,0,10.21,4.29l17.41-41.37v37.48L246.79,228.6A7.01413,7.01413,0,1,0,260.4,232l15.79-63.32L292,232a7.01777,7.01777,0,1,0,13.62-3.39L287.94,157.7V120.21l17.4,41.37a5.54,5.54,0,1,0,10.34329-3.97273q-.06171-.16065-.1333-.31726l-22.44-53.35Z"/>
    <circle class="cls-3" cx="276.19" cy="86.76" r="12.89001"/>
    <path class="cls-3" d="M350.73,160.6l12.53,29.79a4.15464,4.15464,0,1,1-7.66,3.22h0l-7.6-18.1v16l10.14,40.67a4.15221,4.15221,0,1,1-8.06,2L341,197.83l-9,36.33a4.15222,4.15222,0,0,1-8.06-2L334,191.48v-23l-18.1,7.61a4.152,4.152,0,0,1-3.23-7.65h0l18.59-7.82Z"/>
    <circle class="cls-3" cx="341.01001" cy="146.47" r="9.84"/>
    <path d="M45,20A25,25,0,0,0,20,45V555a25,25,0,0,0,25,25H555a25,25,0,0,0,25-25V45a25,25,0,0,0-25-25Zm0,10H486.94L30,486.94V45A15,15,0,0,1,45,30Zm456.08,0h23.85L30,524.93V501.08Zm38,0H555a14.92992,14.92992,0,0,1,6.44,1.49l-529.95,530A14.92987,14.92987,0,0,1,30,555V539.08Zm29.43,8.56A14.93026,14.93026,0,0,1,570,45V60.92L60.92,570H45a14.9302,14.9302,0,0,1-6.44-1.49ZM570,75.07V98.92L98.92,570H75.07Zm0,38V555a15,15,0,0,1-15,15H113.06Z"/>
  </g>
</svg>
