<svg xmlns="http://www.w3.org/2000/svg" width="600" height="900"><path d="M550 0H50C22.5 0 0 22.5 0 50v800c0 27.5 22.5 50 50 50h500c27.5 0 50-22.5 50-50V50c0-27.5-22.5-50-50-50h0z"/><path fill="#fff" d="M550 .5c27.295 0 49.5 22.206 49.5 49.5v800c0 27.295-22.205 49.5-49.5 49.5H50C22.706 899.5.5 877.295.5 850V50C.5 22.706 22.706.5 50 .5h500"/><path fill="#005ca1" d="M587.791 851c0 19.25-15.75 35-35 35H48.209c-19.25 0-35.015-16.75-35.015-36V48.103c0-19.25 14.765-35.641 34.015-35.641h506.582c19.25 0 34 15.4 34 34.641V851z"/><path fill="#fff" d="M534.625 566.463c0 18.461-13.926 33.57-32.39 33.57H98.765c-18.463 0-32.515-15.109-32.515-33.57V164.57c0-18.464 14.052-33.57 32.515-33.57h403.471c18.464 0 32.39 15.1 32.39 33.57l-.001 401.893h0z"/><path d="M480.417 312.241c-13.66 0-19.334 7.622-19.334 13.384V370.5H136.5v-71.667c0-5.083-3.625-13.783-19.333-13.783-12.229 0-19.333 7.762-19.333 13.783v159.333H136.5V416.5h324.583v42.417h38.667V325.625c0-5.794-5.25-13.384-19.333-13.384zm-216.292 32.634c0-5.225-4.275-9.5-9.5-9.5H167.75c-5.225 0-9.5 4.275-9.5 9.5v21.25h105.875v-21.25z"/></svg>