<svg xmlns="http://www.w3.org/2000/svg" width="600" height="900"><path d="M550 0H50C22.5 0 0 22.5 0 50v800c0 27.5 22.5 50 50 50h500c27.5 0 50-22.5 50-50V50c0-27.5-22.5-50-50-50h0z"/><path fill="#fff" d="M550 .5c27.295 0 49.5 22.206 49.5 49.5v800c0 27.295-22.205 49.5-49.5 49.5H50C22.706 899.5.5 877.295.5 850V50C.5 22.706 22.706.5 50 .5h500"/><path fill="#005ca1" d="M587.791 851c0 19.25-15.75 35-35 35H48.209c-19.25 0-35.015-16.75-35.015-36V48.103c0-19.25 14.765-35.641 34.015-35.641h506.582c19.25 0 34 15.4 34 34.641V851z"/><path fill="#fff" d="M534.625 566.463c0 18.461-13.926 33.57-32.39 33.57H98.765c-18.463 0-32.515-15.109-32.515-33.57V164.57c0-18.464 14.052-33.57 32.515-33.57h403.471c18.464 0 32.39 15.1 32.39 33.57l-.001 401.893h0z"/><path d="M75.25 450.645v29.25c9.496 4 19.5 15 44.25 15 39.25 0 57.5-24.5 90-24.5 37.75 0 59 26.5 94.5 26.5 32.25 0 64.25-26.5 89.75-26.5 25.25 0 61.5 28 88.25 28 27.25 0 45.75-15.5 45.75-15.5v-32.25s-16 19.25-48.25 19.25-61-25.75-86-25.75-60.624 25.75-93.062 25.75c-27.104 0-59.688-27-94.438-27-24.5 0-57.75 23-86 23-23.5 0-44.75-15.25-44.75-15.25zm0-37.895V442c9.496 4 19.5 15 44.25 15 39.25 0 57.5-24.5 90-24.5 37.75 0 59 26.5 94.5 26.5 32.25 0 64.25-26.5 89.75-26.5 25.25 0 61.5 28 88.25 28 27.25 0 45.75-15.5 45.75-15.5v-32.25S511.75 432 479.5 432s-61-25.75-86-25.75S332.876 432 300.438 432c-27.104 0-59.688-27-94.438-27-24.5 0-57.75 23-86 23-23.5 0-44.75-15.25-44.75-15.25zm368.632.865c-4.47-23.64-11.938-33.059-27.938-37.309-25.58-6.795-67.886-6.806-69.693-6.806-3.25 0-11.266-.225-15.75-9.25-6.666-13.417-2.5-24.25.75-32.25s16.917-12.5 17.25-44.25c.143-13.589-2.666-25.083-7.117-31.522C334.641 242.473 326 234.75 326 234.75c-14-11.75-51.25-9.5-65.246 1.036C238.871 252.258 238.5 280.5 238.5 280.5L224 296.25l-5.75 10 19.5 1.5-1.25 39h37.75v14.583S273 371 261.667 371h-26.5s-9.666 2.167-18.333 5.167-30.667 13.333-30.667 13.333-8.166 5.167-13.333 17.667c0 0 18.5-9.167 34.667-9.167s36.985 7.509 39.167 8c13.333 3 38.167 17.83 55.667 17.83 37.334 0 52-25.833 92.834-25.833 26.83 0 48.713 15.615 48.713 15.615z"/></svg>