<svg id="Слой_1" data-name="Слой 1" xmlns="http://www.w3.org/2000/svg" width="600" height="300" viewBox="0 0 600 300">
  <defs>
    <style>
      .cls-1 {
        fill: #fff;
      }
    </style>
  </defs>
  <g>
    <rect class="cls-1" x="5" y="5" width="590" height="290" rx="40"/>
    <path d="M555,10a35.03961,35.03961,0,0,1,35,35V255a35.03961,35.03961,0,0,1-35,35H45a35.0396,35.0396,0,0,1-35-35V45A35.0396,35.0396,0,0,1,45,10H555m0-10H45A45,45,0,0,0,0,45V255a45,45,0,0,0,45,45H555a45,45,0,0,0,45-45V45A45,45,0,0,0,555,0Z"/>
  </g>
  <polygon points="196 125 196 171 119 171 119 213 20 148 119 83 119 125 196 125"/>
  <g>
    <path d="M250.81055,87.72412c14.35058,0,30.75,10.25,30.75,26.03516s-11.4795,27.26513-22.96,28.70019c7.1748,1.43506,27.87988,10.04492,27.87988,28.7002,0,17.22021-14.96485,37.31054-42.22949,37.31054-11.48047,0-29.31543-4.91992-29.31543-4.91992L212.4751,183.46c6.97021,4.71484,19.4751,6.355,28.90576,6.355,12.915,0,24.39453-5.74023,24.59961-19.06494,0-4.92041-1.63965-16.81055-20.29492-16.81055-3.48535,0-7.17481,0-10.04493,1.43506V139.58936c14.34961-2.86963,25.83008-12.915,25.83008-21.52491,0-7.17529-7.1748-12.915-14.34961-12.915-11.48047,0-17.2207,2.86963-25.42089,9.83985l-7.585-17.01514C221.29,93.669,239.33008,87.72412,250.81055,87.72412Z"/>
    <path d="M381.80469,148.19971c0,34.43994-15.78516,58.83545-38.7461,58.83545-22.96,0-38.74511-24.39551-38.74511-58.83545,0-34.44043,15.78515-58.83545,38.74511-58.83545C366.01953,89.36426,381.80469,115.60449,381.80469,148.19971Zm-57.40137,0c0,28.70019,7.58594,41.00049,18.65527,41.00049,11.07032,0,18.65528-12.3003,18.65528-41.00049s-7.585-41.00049-18.65528-41.00049C331.98926,107.19922,324.40332,119.49951,324.40332,148.19971Z"/>
    <path d="M475.28418,148.19971c0,34.43994-15.78516,58.83545-38.74609,58.83545-22.96,0-38.74512-24.39551-38.74512-58.83545,0-34.44043,15.78515-58.83545,38.74512-58.83545C459.499,89.36426,475.28418,115.60449,475.28418,148.19971Zm-57.40137,0c0,28.70019,7.58594,41.00049,18.65528,41.00049,11.07031,0,18.65527-12.3003,18.65527-41.00049s-7.585-41.00049-18.65527-41.00049C425.46875,107.19922,417.88281,119.49951,417.88281,148.19971Z"/>
    <path d="M498.74219,134.25342h15.28906l17.83594,35.67334,17.83691-35.67334h15.28809l6.37109,71.34668H556.07422l-3.82227-49.688-20.38476,40.76953-20.38477-40.76953-3.82226,49.688H492.37207Z"/>
  </g>
</svg>
