<svg id="Слой_1" data-name="Слой 1" xmlns="http://www.w3.org/2000/svg" width="600" height="300" viewBox="0 0 600 300">
  <defs>
    <style>
      .cls-1 {
        fill: #fff;
      }
    </style>
  </defs>
  <g>
    <rect class="cls-1" x="5" y="5" width="590" height="290" rx="40"/>
    <path d="M555,10a35.03961,35.03961,0,0,1,35,35V255a35.03961,35.03961,0,0,1-35,35H45a35.0396,35.0396,0,0,1-35-35V45A35.0396,35.0396,0,0,1,45,10H555m0-10H45A45,45,0,0,0,0,45V255a45,45,0,0,0,45,45H555a45,45,0,0,0,45-45V45A45,45,0,0,0,555,0Z"/>
  </g>
  <polygon points="556 148 515 255 95 255 46 137 73 137 73 122 62 96 79 96 89 117 114 117 130 97 186 97 157 45 217 45 250 97 284 97 315.02 76 421 76 421.03 118 476 118 496 148 556 148"/>
  <g>
    <path class="cls-1" d="M210.82314,217.37186a12.01072,12.01072,0,1,1-12.004,12.01742v-.0067A12.0107,12.0107,0,0,1,210.82314,217.37186Zm0,18.38806a6.36729,6.36729,0,1,0-6.36729-6.36729,6.36729,6.36729,0,0,0,6.36729,6.36729Z"/>
    <path class="cls-1" d="M128.38349,218.85644a12.01072,12.01072,0,1,1-12.004,12.01742v-.01005A12.00737,12.00737,0,0,1,128.38349,218.85644Zm0,18.38471a6.36729,6.36729,0,1,0-6.36729-6.36729,6.36729,6.36729,0,0,0,6.36729,6.36729Z"/>
    <path class="cls-1" d="M107.51218,211.29277a28.93146,28.93146,0,0,1,.23123-4.58445,30.06716,30.06716,0,0,1,2.12467-7.78485c.53619-1.26005,1.52479-3.03619,3.502-6.59517.12735-.23123.60321-1.13271,1.307-2.29222a53.52029,53.52029,0,0,1,3.71313-5.31166,3.26516,3.26516,0,0,1,2.66086-1.60188h53.87062a3.1937,3.1937,0,0,1,2.05094.80764l20.64678,15.687a6.36723,6.36723,0,0,0,2.59718,1.17627c9.1823,1.87,18.12667,3.7433,27.33913,5.60992a5.46584,5.46584,0,0,1,3.21046,1.96716,7.95821,7.95821,0,0,1,.59651.87466,8.07972,8.07972,0,0,1,1.10925,4.12534q0,2.49665-.02681,5a8.502,8.502,0,0,1-1.27681,5.53284,8.217,8.217,0,0,1-2.15817,2.2252,3.63943,3.63943,0,0,1-1.83647.65014l-1.73257.12734a14.82573,14.82573,0,0,0-14.618-12.34919c-8.08981,0-14.66822,7.66421-14.82238,15.71715H143.19581a14.82574,14.82574,0,0,0-28.84382-4.20576h-.73056a24.64121,24.64121,0,0,1-4.61461-7.6575A24.37647,24.37647,0,0,1,107.51218,211.29277Zm11.54825-10.59316,1.21649,2.52346a3.6863,3.6863,0,0,0,3.30764,2.07774l69.48389.07373-16.94034-15.71045a7.624,7.624,0,0,0-5.27145-2.0945H127.10332a5.69451,5.69451,0,0,0-4.74866,3.14343L119.171,196.4972A4.57438,4.57438,0,0,0,119.06043,200.69961Z"/>
  </g>
  <g>
    <path class="cls-1" d="M344.82314,217.37186a12.01072,12.01072,0,1,1-12.004,12.01742v-.0067A12.0107,12.0107,0,0,1,344.82314,217.37186Zm0,18.38806a6.36729,6.36729,0,1,0-6.36729-6.36729,6.36729,6.36729,0,0,0,6.36729,6.36729Z"/>
    <path class="cls-1" d="M262.38349,218.85644a12.01072,12.01072,0,1,1-12.004,12.01742v-.01005A12.00737,12.00737,0,0,1,262.38349,218.85644Zm0,18.38471a6.36729,6.36729,0,1,0-6.36729-6.36729,6.36729,6.36729,0,0,0,6.36729,6.36729Z"/>
    <path class="cls-1" d="M241.51218,211.29277a28.93146,28.93146,0,0,1,.23123-4.58445,30.06716,30.06716,0,0,1,2.12467-7.78485c.53619-1.26005,1.52479-3.03619,3.502-6.59517.12735-.23123.60321-1.13271,1.307-2.29222a53.52029,53.52029,0,0,1,3.71313-5.31166,3.26516,3.26516,0,0,1,2.66086-1.60188h53.87062a3.1937,3.1937,0,0,1,2.05094.80764l20.64678,15.687a6.36723,6.36723,0,0,0,2.59718,1.17627c9.1823,1.87,18.12667,3.7433,27.33913,5.60992a5.46584,5.46584,0,0,1,3.21046,1.96716,7.95821,7.95821,0,0,1,.59651.87466,8.07972,8.07972,0,0,1,1.10925,4.12534q0,2.49665-.02681,5a8.502,8.502,0,0,1-1.27681,5.53284,8.217,8.217,0,0,1-2.15817,2.2252,3.63943,3.63943,0,0,1-1.83647.65014l-1.73257.12734a14.82573,14.82573,0,0,0-14.618-12.34919c-8.08981,0-14.66822,7.66421-14.82238,15.71715H277.19581a14.82574,14.82574,0,0,0-28.84382-4.20576h-.73056a24.64121,24.64121,0,0,1-4.61461-7.6575A24.37647,24.37647,0,0,1,241.51218,211.29277Zm11.54825-10.59316,1.21649,2.52346a3.6863,3.6863,0,0,0,3.30764,2.07774l69.48389.07373-16.94034-15.71045a7.624,7.624,0,0,0-5.27145-2.0945H261.10332a5.69451,5.69451,0,0,0-4.74866,3.14343L253.171,196.4972A4.57438,4.57438,0,0,0,253.06043,200.69961Z"/>
  </g>
  <g>
    <path class="cls-1" d="M478.82314,217.37186a12.01072,12.01072,0,1,1-12.004,12.01742v-.0067A12.0107,12.0107,0,0,1,478.82314,217.37186Zm0,18.38806a6.36729,6.36729,0,1,0-6.36729-6.36729,6.36729,6.36729,0,0,0,6.36729,6.36729Z"/>
    <path class="cls-1" d="M396.38349,218.85644a12.01072,12.01072,0,1,1-12.004,12.01742v-.01005A12.00737,12.00737,0,0,1,396.38349,218.85644Zm0,18.38471a6.36729,6.36729,0,1,0-6.36729-6.36729,6.36729,6.36729,0,0,0,6.36729,6.36729Z"/>
    <path class="cls-1" d="M375.51218,211.29277a28.93146,28.93146,0,0,1,.23123-4.58445,30.06716,30.06716,0,0,1,2.12467-7.78485c.53619-1.26005,1.52479-3.03619,3.502-6.59517.12735-.23123.60321-1.13271,1.307-2.29222a53.52029,53.52029,0,0,1,3.71313-5.31166,3.26516,3.26516,0,0,1,2.66086-1.60188h53.87062a3.1937,3.1937,0,0,1,2.05094.80764l20.64678,15.687a6.36723,6.36723,0,0,0,2.59718,1.17627c9.1823,1.87,18.12667,3.7433,27.33913,5.60992a5.46584,5.46584,0,0,1,3.21046,1.96716,7.95821,7.95821,0,0,1,.59651.87466,8.07972,8.07972,0,0,1,1.10925,4.12534q0,2.49665-.02681,5a8.502,8.502,0,0,1-1.27681,5.53284,8.217,8.217,0,0,1-2.15817,2.2252,3.63943,3.63943,0,0,1-1.83647.65014l-1.73257.12734a14.82573,14.82573,0,0,0-14.618-12.34919c-8.08981,0-14.66822,7.66421-14.82238,15.71715H411.19581a14.82574,14.82574,0,0,0-28.84382-4.20576h-.73056a24.64121,24.64121,0,0,1-4.61461-7.6575A24.37647,24.37647,0,0,1,375.51218,211.29277Zm11.54825-10.59316,1.21649,2.52346a3.6863,3.6863,0,0,0,3.30764,2.07774l69.48389.07373-16.94034-15.71045a7.624,7.624,0,0,0-5.27145-2.0945H395.10332a5.69451,5.69451,0,0,0-4.74866,3.14343L387.171,196.4972A4.57438,4.57438,0,0,0,387.06043,200.69961Z"/>
  </g>
</svg>
