<svg id="Слой_1" data-name="Слой 1" xmlns="http://www.w3.org/2000/svg" width="600" height="300" viewBox="0 0 600 300">
  <defs>
    <style>
      .cls-1 {
        fill: #fff;
      }
    </style>
  </defs>
  <g>
    <rect class="cls-1" x="5" y="5" width="590" height="290" rx="40"/>
    <path d="M555,10a35.03961,35.03961,0,0,1,35,35V255a35.03961,35.03961,0,0,1-35,35H45a35.0396,35.0396,0,0,1-35-35V45A35.0396,35.0396,0,0,1,45,10H555m0-10H45A45,45,0,0,0,0,45V255a45,45,0,0,0,45,45H555a45,45,0,0,0,45-45V45A45,45,0,0,0,555,0Z"/>
  </g>
  <polygon points="590 198 590 227 478 167 478 290 446 290 446 167 154 167 154 290 122 290 122 167 10 225 10 197 121 138 479 138 590 198"/>
  <g>
    <path d="M348.45873,106.62563a11.19056,11.19056,0,1,0,11.19055,11.19056,11.20323,11.20323,0,0,0-11.19055-11.19056m0-7.99325a19.18381,19.18381,0,1,1-19.18381,19.18381,19.18382,19.18382,0,0,1,19.18381-19.18381Z"/>
    <path d="M218.968,106.62563a11.19056,11.19056,0,1,0,11.19056,11.19056A11.20323,11.20323,0,0,0,218.968,106.62563m0-7.99325a19.18381,19.18381,0,1,1-19.18381,19.18381A19.18382,19.18382,0,0,1,218.968,98.63238Z"/>
    <path d="M198.98488,81.04722l39.96627-9.10433,35.17031-30.06261h86.25519l18.45644,27.97639c9.5839,13.77236,5.25157,34.73069-8.281,44.37851a22.38143,22.38143,0,0,0-44.47448,3.581c0,.52753.016,1.04711.064,1.56665l-84.84841-.10392c.04-.47957.056-.96715.056-1.46273a22.37554,22.37554,0,0,0-44.74622-.47162c-5.57932-3.02943-9.6079-9.27216-9.6079-15.51489V88.24115C186.995,84.24452,193.46951,82.438,198.98488,81.04722Zm160.54448-2.398a6.39359,6.39359,0,0,0,5.3715-9.8637L351.656,48.27488H276.17574L243.7471,78.64925Z"/>
  </g>
</svg>
