<svg id="Слой_1" data-name="Слой 1" xmlns="http://www.w3.org/2000/svg" width="600" height="300" viewBox="0 0 600 300">
  <defs>
    <style>
      .cls-1 {
        fill: #fff;
      }
    </style>
  </defs>
  <g>
    <rect class="cls-1" x="5" y="5" width="590" height="290" rx="40"/>
    <path d="M555,10a35.03961,35.03961,0,0,1,35,35V255a35.03961,35.03961,0,0,1-35,35H45a35.0396,35.0396,0,0,1-35-35V45A35.0396,35.0396,0,0,1,45,10H555m0-10H45A45,45,0,0,0,0,45V255a45,45,0,0,0,45,45H555a45,45,0,0,0,45-45V45A45,45,0,0,0,555,0Z"/>
  </g>
  <polygon points="512 225 548 225 548 149 578 149 530 63 482 149 512 149 512 225"/>
  <polygon points="62 225 98 225 98 149 128 149 80 63 32 149 62 149 62 225"/>
  <g>
    <path d="M162.398,91.45532H179.6177V206.25659H159.52786v-88.9707l-15.37549,9.63476-6.76513-8.81494Z"/>
    <path d="M281.70657,148.8562c0,34.43994-15.78516,58.83545-38.74609,58.83545-22.96,0-38.74512-24.39551-38.74512-58.83545,0-34.44043,15.78516-58.83545,38.74512-58.83545C265.92141,90.02075,281.70657,116.261,281.70657,148.8562Zm-57.40137,0c0,28.7002,7.58594,41.00049,18.65528,41.00049,11.07031,0,18.65527-12.30029,18.65527-41.00049s-7.585-41.00049-18.65527-41.00049C231.89114,107.85571,224.3052,120.156,224.3052,148.8562Z"/>
    <path d="M375.18606,148.8562c0,34.43994-15.78515,58.83545-38.74609,58.83545-22.96,0-38.74512-24.39551-38.74512-58.83545,0-34.44043,15.78516-58.83545,38.74512-58.83545C359.40091,90.02075,375.18606,116.261,375.18606,148.8562Zm-57.40136,0c0,28.7002,7.58593,41.00049,18.65527,41.00049,11.07031,0,18.65527-12.30029,18.65527-41.00049s-7.585-41.00049-18.65527-41.00049C325.37063,107.85571,317.7847,120.156,317.7847,148.8562Z"/>
    <path d="M398.64407,134.90991h15.28809l17.83691,35.67334L449.606,134.90991h15.28906l6.37011,71.34668H455.9761l-3.82226-49.688-20.38477,40.76953L411.38431,156.5686l-3.82227,49.688H392.274Z"/>
  </g>
</svg>
