<svg xmlns="http://www.w3.org/2000/svg" width="600" height="300" viewBox="0 0 600 300"><defs><style>.a { fill: rgb(255, 255, 255); }.b { fill-rule: evenodd; }</style></defs><g><rect class="a" x="5" y="5" width="590" height="290" rx="40"/><path d="M555,10a35.03961,35.03961,0,0,1,35,35V255a35.03961,35.03961,0,0,1-35,35H45a35.0396,35.0396,0,0,1-35-35V45A35.0396,35.0396,0,0,1,45,10H555m0-10H45A45,45,0,0,0,0,45V255a45,45,0,0,0,45,45H555a45,45,0,0,0,45-45V45A45,45,0,0,0,555,0Z"/></g><rect x="35.964" y="234.346" width="522.964" height="17.88"/><g><path class="b" d="M124.70722,120.3734H99.96978L77.36036,143.51509a4.23047,4.23047,0,0,0,3.0248,7.18713h48.46858a1.69661,1.69661,0,0,0,1.69378-1.69142V126.20993a5.8491,5.8491,0,0,0-5.84-5.83654Zm54.653,0h-36.7851a5.8461,5.8461,0,0,0-5.83652,5.83654v22.80087a1.69592,1.69592,0,0,0,1.69027,1.69142h72.67959a1.69229,1.69229,0,0,0,1.116-2.965l-30.08132-26.31915a4.07,4.07,0,0,0-2.78287-1.04471ZM219.15,209.177H124.21817c-.15847-2.61128-.07878-5.24821-.288-7.81974a31.70987,31.70987,0,0,0-62.83224-2.90781,13.45442,13.45442,0,0,1-6.12483-1.35987c-3.50776-1.86651-6.71664-4.40425-6.71664-9.17963V155.0107c0-6.34308,3.656-10.00029,6.41548-10.89327a15.77645,15.77645,0,0,0,6.64074-4.1789c1.93892-1.93892,28.76111-22.04683,31.29884-24.211s6.04193-2.08828,9.252-2.08828h75.2442c3.31858,0,5.519-.07879,9.54846,2.79566,4.02719,2.87278,31.29885,27.53318,35.77664,30.81559,4.47656,3.28242,6.8625,3.43186,12.308,4.626,5.44669,1.19179,27.23315,3.58008,34.76687,5.9661,7.53732,2.38943,22.23593,7.76248,22.23593,14.10216v15.29394c0,2.35214-1.97857,6.30693-3.99331,8.43144-1.22452,1.29684-4.11359,1.96807-6.18437,2.296A31.70977,31.70977,0,0,0,219.1503,209.177Z"/><path class="b" d="M92.32637,181.547A22.39991,22.39991,0,1,0,114.728,203.94863,22.39978,22.39978,0,0,0,92.32637,181.547Zm0,10.3469a12.05473,12.05473,0,1,0,12.05816,12.05477A12.05442,12.05442,0,0,0,92.32637,191.89387Z"/><path class="b" d="M250.42546,181.547a22.39991,22.39991,0,1,0,22.397,22.40166,22.40151,22.40151,0,0,0-22.397-22.40166Zm0,10.3469A12.05473,12.05473,0,1,0,262.479,203.94864a12.05467,12.05467,0,0,0-12.05352-12.05477Z"/></g><g><polygon class="b" points="345.005 106.215 317.855 153.245 313.985 151.005 341.135 103.975 345.005 106.215"/><rect x="294.765" y="92.755" width="4.47" height="54.3"/><polygon class="b" points="280.025 151.005 276.155 153.235 248.995 106.215 252.865 103.975 280.025 151.005"/></g><g><path class="b" d="M468.29278,120.37337h24.73744l22.60942,23.1417a4.23047,4.23047,0,0,1-3.0248,7.18713H464.14626a1.69661,1.69661,0,0,1-1.69378-1.69142V126.20991a5.8491,5.8491,0,0,1,5.84-5.83654Zm-54.653,0h36.7851a5.84611,5.84611,0,0,1,5.83652,5.83654v22.80088a1.69592,1.69592,0,0,1-1.69027,1.69142H381.89153a1.69229,1.69229,0,0,1-1.116-2.965l30.08132-26.31916a4.07,4.07,0,0,1,2.78287-1.04471ZM373.85,209.177h94.93179c.15847-2.61129.07878-5.24822.288-7.81974a31.70987,31.70987,0,0,1,62.83224-2.90781,13.45444,13.45444,0,0,0,6.12483-1.35988c3.50776-1.86651,6.71664-4.40424,6.71664-9.17962V155.01068c0-6.34308-3.656-10.0003-6.41548-10.89328a15.77635,15.77635,0,0,1-6.64074-4.1789c-1.93892-1.93892-28.76111-22.04683-31.29884-24.211s-6.04193-2.08827-9.252-2.08827h-75.2442c-3.31858,0-5.519-.07879-9.54846,2.79566-4.02719,2.87278-31.29885,27.53317-35.77664,30.81558-4.47656,3.28242-6.8625,3.43187-12.308,4.626-5.44669,1.19179-27.23315,3.58009-34.76687,5.9661-7.53732,2.38943-22.23593,7.76249-22.23593,14.10216v15.29394c0,2.35214,1.97857,6.30694,3.99331,8.43145,1.22452,1.29683,4.11359,1.96806,6.18437,2.296a31.70977,31.70977,0,0,1,62.4156,11.2108Z"/><path class="b" d="M500.67363,181.547A22.39991,22.39991,0,1,1,478.272,203.9486,22.39978,22.39978,0,0,1,500.67363,181.547Zm0,10.3469a12.05473,12.05473,0,1,1-12.05816,12.05476A12.05442,12.05442,0,0,1,500.67363,191.89385Z"/><path class="b" d="M342.57454,181.547a22.39991,22.39991,0,1,1-22.397,22.40165,22.40151,22.40151,0,0,1,22.397-22.40165Zm0,10.3469A12.05473,12.05473,0,1,1,330.521,203.94861a12.05467,12.05467,0,0,1,12.05352-12.05476Z"/></g></svg>