<svg xmlns="http://www.w3.org/2000/svg" width="600" height="300" xmlns:v="https://vecta.io/nano"><rect x="5" y="5" width="590" height="290" rx="40" fill="#fff"/><path d="M555 10a35.04 35.04 0 0 1 35 35v210a35.04 35.04 0 0 1-35 35H45a35.04 35.04 0 0 1-35-35V45a35.04 35.04 0 0 1 35-35h510m0-10H45A45 45 0 0 0 0 45v210a45 45 0 0 0 45 45h510a45 45 0 0 0 45-45V45a45 45 0 0 0-45-45zM417.026 251.47l-23.334 23.334-92.631-92.631-94.046 94.046-23.334-23.335 94.045-94.045-59.397-59.397-34.648 34.648-16.971-16.97 24.042-53.741 39.598-39.598 31.82 31.82-20.506 20.506 59.397 59.397 57.982-57.982-21.213-21.214 31.82-31.819 39.598 39.597 24.042 53.741-16.971 16.97-33.941-33.941-57.983 57.983 92.631 92.631z"/></svg>