<svg xmlns="http://www.w3.org/2000/svg" xmlns:xlink="http://www.w3.org/1999/xlink" width="600" height="300" xmlns:v="https://vecta.io/nano"><rect x="5" y="5" width="590" height="290" rx="40" fill="#fff"/><path d="M555 10a35.04 35.04 0 0 1 35 35v210a35.04 35.04 0 0 1-35 35H45a35.04 35.04 0 0 1-35-35V45a35.04 35.04 0 0 1 35-35h510m0-10H45A45 45 0 0 0 0 45v210a45 45 0 0 0 45 45h510a45 45 0 0 0 45-45V45a45 45 0 0 0-45-45zM90.973 193.68c0 18.424-18.424 23.688-18.424 23.688s21.057 7.896 21.057 26.32c0 13.16-9.212 30.269-35.533 30.269S22.54 256.849 22.54 243.688c0-18.424 21.056-26.32 21.056-26.32s-18.424-5.264-18.424-23.688 15.792-27.637 32.901-27.637 32.9 9.212 32.9 27.637zm-50.009 51.325c0 9.212 9.212 13.161 17.108 13.161s17.108-3.948 17.108-13.161c0-10.528-17.108-19.74-17.108-19.74s-17.108 10.528-17.108 19.74zm2.632-51.325c0 7.896 14.477 15.792 14.477 15.792s14.476-7.896 14.476-15.792c0-9.212-6.58-12.596-14.476-12.596s-14.477 3.384-14.477 12.596zm66.391 79.726a9.333 9.333 0 1 1 9.333-9.333 9.336 9.336 0 0 1-9.333 9.333z"/><use xlink:href="#B"/><use xlink:href="#B" x="66.861"/><path d="M266 218h30v12h-30zm60.17-50.641h15.792v105.282h-18.425v-81.594l-14.1 8.836-6.204-8.084zm36.093 0h63.169v13.161c-13.16 26.32-26.32 53.957-34.216 92.122h-19.741c5.265-31.584 21.057-64.485 35.533-88.174h-48.693zm75.979 106.047a9.333 9.333 0 1 1 9.333-9.333 9.337 9.337 0 0 1-9.333 9.333z"/><use xlink:href="#C"/><use xlink:href="#C" x="66.86"/><path d="M321.404 89l38.764 18.724a62.237 62.237 0 0 1-5.232 12.123l-.767 1.327a62.442 62.442 0 0 1-7.881 10.557l-35.586-24.199 3.168 42.933a63.441 63.441 0 0 1-27.741 0l3.168-42.933-35.586 24.199a62.442 62.442 0 0 1-7.881-10.557l-.767-1.327a62.237 62.237 0 0 1-5.232-12.123L278.596 89l-38.764-18.724a62.237 62.237 0 0 1 5.232-12.123l.767-1.327a62.443 62.443 0 0 1 7.881-10.557l35.586 24.199-3.168-42.933a63.443 63.443 0 0 1 27.741 0l-3.168 42.933 35.586-24.199a62.443 62.443 0 0 1 7.881 10.557l.767 1.327a62.237 62.237 0 0 1 5.232 12.123z" fill="#da251d"/><defs ><path id="B" d="M184.345 229.801c0 25.704-11.781 43.911-28.917 43.911s-28.917-18.207-28.917-43.911 11.781-43.911 28.917-43.911 28.917 19.584 28.917 43.911zm-42.84 0c0 21.42 5.661 30.6 13.923 30.6s13.923-9.18 13.923-30.6-5.661-30.6-13.923-30.6-13.923 9.18-13.923 30.6z"/><path id="C" d="M512.6 229.801c0 25.704-11.78 43.911-28.917 43.911s-28.917-18.207-28.917-43.911 11.781-43.911 28.917-43.911 28.917 19.584 28.917 43.911zm-42.84 0c0 21.42 5.661 30.6 13.923 30.6s13.923-9.18 13.923-30.6-5.66-30.6-13.923-30.6-13.923 9.18-13.923 30.6z"/></defs></svg>