<svg id="Слой_1" data-name="Слой 1" xmlns="http://www.w3.org/2000/svg" width="600" height="300" viewBox="0 0 600 300">
  <defs>
    <style>
      .cls-1 {
        fill: #fff;
      }
    </style>
  </defs>
  <g>
    <rect class="cls-1" x="5" y="5" width="590" height="290" rx="40"/>
    <path d="M555,10a35.03961,35.03961,0,0,1,35,35V255a35.03961,35.03961,0,0,1-35,35H45a35.0396,35.0396,0,0,1-35-35V45A35.0396,35.0396,0,0,1,45,10H555m0-10H45A45,45,0,0,0,0,45V255a45,45,0,0,0,45,45H555a45,45,0,0,0,45-45V45A45,45,0,0,0,555,0Z"/>
  </g>
  <g>
    <path d="M238.0332,57.12158V86.18506H184.75049V250.87842H150.84326V86.18506H97.56006V57.12158Z"/>
    <path d="M277.437,57.12158h33.90723V250.87842H277.437Z"/>
    <path d="M421.24854,57.12158c48.43945,0,60.54882,33.90821,60.54882,53.28321,0,26.6416-16.95312,43.5957-36.32812,50.86132,31.48437,7.26563,41.17187,79.92383,62.9707,89.61231H467.26611c-7.55468-10.07324-13.80468-30.62012-22.82422-48.02832-8.33007-16.0752-13.5039-29.47461-35.30273-29.47461h-19.375v77.50293H355.856V57.12158ZM389.76416,144.312H411.561c19.377,0,36.33007-8.30371,36.33007-29.06347,0-20.75879-16.95312-29.06348-36.33007-29.06348H389.76416Z"/>
  </g>
</svg>
