<svg id="Слой_1" data-name="Слой 1" xmlns="http://www.w3.org/2000/svg" width="600" height="300" viewBox="0 0 600 300">
  <defs>
    <style>
      .cls-1 {
        fill: #fff;
      }
    </style>
  </defs>
  <g>
    <rect class="cls-1" x="5" y="5" width="590" height="290" rx="40"/>
    <path d="M555,10a35.03961,35.03961,0,0,1,35,35V255a35.03961,35.03961,0,0,1-35,35H45a35.0396,35.0396,0,0,1-35-35V45A35.0396,35.0396,0,0,1,45,10H555m0-10H45A45,45,0,0,0,0,45V255a45,45,0,0,0,45,45H555a45,45,0,0,0,45-45V45A45,45,0,0,0,555,0Z"/>
  </g>
  <g>
    <path d="M530.34,101.14,504.61,51.76A20.02141,20.02141,0,0,0,486.87,41H121.84A19.99645,19.99645,0,0,0,105.22,49.88L75.44,94.38A50.02691,50.02691,0,0,0,67,122.18V193a19.9945,19.9945,0,0,0,20,20H98.35a51.00472,51.00472,0,0,1,101.3,0h179.7a51.00472,51.00472,0,0,1,101.3,0H516a19.9945,19.9945,0,0,0,20-20V124.25A49.96173,49.96173,0,0,0,530.34,101.14ZM175,104a10.00366,10.00366,0,0,1-10,10H96.39a8.50463,8.50463,0,0,1-7.2-13.03l27.57-43.82A11.038,11.038,0,0,1,126.09,52h37.89A11.02792,11.02792,0,0,1,175,63.02Zm107.5,6a6.00475,6.00475,0,0,1-6,6h-76a6.00475,6.00475,0,0,1-6-6V58a6.00475,6.00475,0,0,1,6-6h76a6.00475,6.00475,0,0,1,6,6ZM390,110a6.00475,6.00475,0,0,1-6,6H308a6.00475,6.00475,0,0,1-6-6V58a6.00475,6.00475,0,0,1,6-6h76a6.00475,6.00475,0,0,1,6,6Zm103.96,4H419a10.00366,10.00366,0,0,1-10-10V63.02A11.02792,11.02792,0,0,1,420.02,52h53.67a13.98825,13.98825,0,0,1,12.91,8.59l16.58,39.54A9.99676,9.99676,0,0,1,493.96,114Z"/>
    <path d="M149,197a22,22,0,1,1-22,22,22.02493,22.02493,0,0,1,22-22m0-20a42,42,0,1,0,42,42,42,42,0,0,0-42-42Z"/>
    <path d="M430,197a22,22,0,1,1-22,22,22.02493,22.02493,0,0,1,22-22m0-20a42,42,0,1,0,42,42,42,42,0,0,0-42-42Z"/>
  </g>
</svg>
