<svg id="Слой_1" data-name="Слой 1" xmlns="http://www.w3.org/2000/svg" width="600" height="300" viewBox="0 0 600 300">
  <defs>
    <style>
      .cls-1 {
        fill: #fff;
      }
    </style>
  </defs>
  <g>
    <rect class="cls-1" x="5" y="5" width="590" height="290" rx="40"/>
    <path d="M555,10a35.03961,35.03961,0,0,1,35,35V255a35.03961,35.03961,0,0,1-35,35H45a35.0396,35.0396,0,0,1-35-35V45A35.0396,35.0396,0,0,1,45,10H555m0-10H45A45,45,0,0,0,0,45V255a45,45,0,0,0,45,45H555a45,45,0,0,0,45-45V45A45,45,0,0,0,555,0Z"/>
  </g>
  <path d="M590,200v55a35,35,0,0,1-35,35H45a35,35,0,0,1-35-35V236H311V200Z"/>
  <g>
    <path d="M370.72226,84.3816l-1.85345.49663L339.59058,43.06882a19.19535,19.19535,0,0,0-20.688-7.54908l-96.0919,25.74775a19.18964,19.18964,0,0,0-14.21238,18.53875l-.0526,48.03042-4.63361,1.24157a9.60732,9.60732,0,0,0-6.77727,11.77579l10.20881,38.09983a14.411,14.411,0,0,0,17.63578,10.21424l157.5429-42.21349a14.411,14.411,0,0,0,10.16591-17.66368L382.47944,91.19109A9.60731,9.60731,0,0,0,370.72226,84.3816Zm-150.12912,40.227-.89659-44.3499a9.72677,9.72677,0,0,1,7.22931-9.138l94.04394-25.199a9.713,9.713,0,0,1,10.74043,4.15374l24.18446,38.27924Z"/>
    <path d="M231.39558,192.68728h32.62008a0,0,0,0,1,0,0V212.935a16.31,16.31,0,0,1-16.31,16.31h0a16.31,16.31,0,0,1-16.31-16.31V192.68728A0,0,0,0,1,231.39558,192.68728Z" transform="translate(-46.1617 71.29944) rotate(-15)"/>
    <path d="M362.06351,157.67492h32.62008a0,0,0,0,1,0,0v20.24769a16.31,16.31,0,0,1-16.31,16.31h0a16.31,16.31,0,0,1-16.31-16.31V157.67492A0,0,0,0,1,362.06351,157.67492Z" transform="translate(-32.64741 103.92571) rotate(-14.99999)"/>
  </g>
</svg>
