<svg id="Слой_1" data-name="Слой 1" xmlns="http://www.w3.org/2000/svg" width="600" height="300" viewBox="0 0 600 300">
  <defs>
    <style>
      .cls-1 {
        fill: #fff;
      }

      .cls-2 {
        fill: #da251d;
      }
    </style>
  </defs>
  <g>
    <rect class="cls-1" x="5" y="5" width="590" height="290" rx="40"/>
    <path d="M555,10a35.03961,35.03961,0,0,1,35,35V255a35.03961,35.03961,0,0,1-35,35H45a35.0396,35.0396,0,0,1-35-35V45A35.0396,35.0396,0,0,1,45,10H555m0-10H45A45,45,0,0,0,0,45V255a45,45,0,0,0,45,45H555a45,45,0,0,0,45-45V45A45,45,0,0,0,555,0Z"/>
  </g>
  <path d="M478,56c-72,0-77,45-77,45a143.16028,143.16028,0,0,0-32.03-4.19C341.79,96.81,321.28,108.44,311,140a50.75875,50.75875,0,0,0-15.8-2.49c-12.43,0-25.7,4.48-33.2,16.49-5.12,8.2-9.45,22.67-6.68,36.33L225,193l-8,14,44.47-2.43h.01c5.16,7.13,13.57,13.09,26.52,16.43a54.55429,54.55429,0,0,0,13.66,1.82C323.41,222.82,334,208,334,208c6.95,11.92,19.08,17.18,32.33,17.18,13.44,0,28.04-5.42,39.57-14.78,0,0,24.1,31.6,71.1,31.6,41,0,87-27.99,87-99C564,105,531,56,478,56Zm50.97,155.9C515.39,224.86,496.93,232,477,232a84.68714,84.68714,0,0,1-46.98-13.7,72.14348,72.14348,0,0,1-16.17-13.96l-6.25-8.2-8,6.5c-9.67,7.85-22.11,12.54-33.27,12.54-7.56,0-17.8-2.12-23.69-12.22l-7.79-13.35-8.99,12.58c-.07.1-8.04,10.63-24.2,10.63a45.107,45.107,0,0,1-11.16-1.5c-12.36-3.19-20.41-9.28-23.93-18.09-4.91-12.3-.21-27.34,3.91-33.93,6.41-10.25,18.24-11.79,24.72-11.79a40.46533,40.46533,0,0,1,12.64,1.98l9.55,3.18,3.12-9.57c8.17-25.1,23.12-36.29,48.46-36.29,8.66,0,18.4,1.29,29.76,3.93l11.22,2.87.98-11.45C411.28,99.87,417.38,66,478,66c21.11,0,40.77,9.18,55.35,25.84C546.28,106.61,554,125.74,554,143,554,172.44,545.34,196.26,528.97,211.9Z"/>
  <g>
    <path d="M151.67,183.1a39.73,39.73,0,1,0,39.73,39.73A39.7265,39.7265,0,0,0,151.67,183.1Zm0,62.91A23.18,23.18,0,1,1,174.84,222.83,23.20821,23.20821,0,0,1,151.67,246.01Z"/>
    <path d="M214.58,123.5,176.35,65.56H10V78.81H158.29l27.43,42.48a13.2347,13.2347,0,0,1-11.12,20.42H10v84.25l95.45.12c-.1-1.08-.14-2.16-.14-3.25a46.35419,46.35419,0,0,1,92.11-7.42C225.45,195.43,234.42,152.03,214.58,123.5Z"/>
  </g>
  <polygon class="cls-2" points="222 290 160 290 486 10 549 10 222 290"/>
</svg>
