<svg xmlns="http://www.w3.org/2000/svg" width="660.179" height="580.218" viewBox="0 0 660.179 580.218"><defs><style>.a { fill: rgb(255, 255, 255); }.b { fill: rgb(218, 37, 29); }</style></defs><g><path class="a" d="M31.961 579.11a31 31 0 0 1-26.845-46.5L303.153 16.39a31 31 0 0 1 53.694.001l298.039 516.22a31 31 0 0 1-26.848 46.5z" transform="translate(0.08956 0.10891)"/><path d="M330 1.891a29.72 29.72 0 0 1 25.98 15.001L654.02 533.11a30 30 0 0 1-25.982 44.999H31.962A30 30 0 0 1 5.98 533.108L304.02 16.89A29.72 29.72 0 0 1 330 1.892m0-1.999a31.675 31.675 0 0 0-27.713 16.001L4.25 532.11a32 32 0 0 0 27.712 47.999h596.076a32 32 0 0 0 27.713-48.001L357.714 15.89A31.675 31.675 0 0 0 330-.108z" transform="translate(0.08956 0.10891)"/></g><path class="b" d="M567.418 523.219H92.583a10 10 0 0 1-8.66-15.001L321.34 96.999a10 10 0 0 1 17.32 0l237.418 411.219a10 10 0 0 1-8.66 14.999zM330 11.999a19.813 19.813 0 0 0-17.32 10L14.64 538.218a20 20 0 0 0 17.32 29.999h596.08a20 20 0 0 0 17.32-30.001L347.32 21.999A19.813 19.813 0 0 0 330 12z" transform="translate(0.08956 0.10891)"/><path d="M565 510H95l39.84-69H209c20-28 54.62-51 121-51s101 23 121 51h74.16z" transform="translate(0.08956 0.10891)"/></svg>