<svg xmlns="http://www.w3.org/2000/svg" width="660.179" height="580.218" viewBox="0 0 660.179 580.218"><defs><style>.a { fill: rgb(255, 255, 255); }.b { fill: rgb(218, 37, 29); }</style></defs><g><path class="a" d="M31.96143,579.10938a31,31,0,0,1-26.84668-46.5L303.15332,16.39111a30.99981,30.99981,0,0,1,53.69336,0L654.88574,532.60938a31,31,0,0,1-26.84765,46.5Z" transform="translate(0.08956 0.10891)"/><path d="M330,1.89109a29.71926,29.71926,0,0,1,25.9808,15l298.03837,516.2178a30,30,0,0,1-25.98072,45H31.96155a30,30,0,0,1-25.98082-45L304.0192,16.89109a29.71926,29.71926,0,0,1,25.9808-15m0-2a31.67452,31.67452,0,0,0-27.71292,16L4.24864,532.10889a32.00008,32.00008,0,0,0,27.71291,48h596.0769a31.99994,31.99994,0,0,0,27.71283-48L357.71292,15.89109A31.67452,31.67452,0,0,0,330-.10891Z" transform="translate(0.08956 0.10891)"/></g><path class="b" d="M567.41753,523.21885H92.58272a10,10,0,0,1-8.66026-15L321.33979,96.99906a10,10,0,0,1,17.32051,0l237.41748,411.2198A10,10,0,0,1,567.41753,523.21885ZM330,11.999A19.81282,19.81282,0,0,0,312.67946,21.999L14.64044,538.21885a20,20,0,0,0,17.3206,30H628.039a20.00012,20.00012,0,0,0,17.32062-30L347.32063,21.999A19.81284,19.81284,0,0,0,330,11.999Z" transform="translate(0.08956 0.10891)"/><g><path d="M201,439v11H190v3H177v32h39.43a28.99454,28.99454,0,0,0,56.49-7h16.16a28.98825,28.98825,0,0,0,57.84,0h15.16a28.98825,28.98825,0,0,0,57.84,0H454V439Zm67.91,39A24.98927,24.98927,0,0,1,219.09,478c-.06-.66-.09-1.33-.09-2a25,25,0,0,1,50,0C269,476.67,268.97,477.34,268.91,478Zm74,0A24.98927,24.98927,0,0,1,293.09,478c-.06-.66-.09-1.33-.09-2a25,25,0,0,1,50,0C343,476.67,342.97,477.34,342.91,478ZM391,501a24.9825,24.9825,0,0,1-24.91-23c-.06-.66-.09-1.33-.09-2a25,25,0,0,1,50,0c0,.67-.03,1.34-.09,2A24.9825,24.9825,0,0,1,391,501ZM255,476a11,11,0,1,1-11-11A11.0224,11.0224,0,0,1,255,476Zm74,0a11,11,0,1,1-11-11A11.0224,11.0224,0,0,1,329,476Zm73,0a11,11,0,1,1-11-11A11.0224,11.0224,0,0,1,402,476Z" transform="translate(0.08956 0.10891)"/><path d="M386,334v97h68V346h12V334Zm49,48H399V346h36Z" transform="translate(0.08956 0.10891)"/><path d="M376,357v74H209c-7,0-12-15-12-31l-.09-12C197,373,204,357,209,357h12V325h26v32Z" transform="translate(0.08956 0.10891)"/><path d="M376,224.5a38.49631,38.49631,0,0,1-44.1,38.09A32.00929,32.00929,0,0,1,300,292c-.34,0-.68-.01-1.02-.02l.02.02c-28,0-45,9-52,26H221c2.05-34.05,20.27-51.63,47-57l.02.02c-.01-.34-.02-.68-.02-1.02a32.00225,32.00225,0,0,1,31.16-31.99c-.11-1.16-.16-2.33-.16-3.51a38.52636,38.52636,0,0,1,26.4-36.56,26.49814,26.49814,0,1,1,26.64.91A38.49766,38.49766,0,0,1,376,224.5Z" transform="translate(0.08956 0.10891)"/></g></svg>