<svg xmlns="http://www.w3.org/2000/svg" width="660.179" height="580.218" viewBox="0 0 660.179 580.218"><defs><style>.a { fill: rgb(255, 255, 255); }.b { fill: rgb(218, 37, 29); }</style></defs><path class="a" d="M31.961 579.11a31 31 0 0 1-26.845-46.5L303.153 16.39a31 31 0 0 1 53.694.001l298.039 516.22a31 31 0 0 1-26.848 46.5z" transform="translate(0.08956 0.10891)"/><path d="M330 1.891a29.72 29.72 0 0 1 25.98 15.001L654.02 533.11a30 30 0 0 1-25.982 44.999H31.962A30 30 0 0 1 5.98 533.108L304.02 16.89A29.72 29.72 0 0 1 330 1.892m0-1.999a31.675 31.675 0 0 0-27.713 16.001L4.25 532.11a32 32 0 0 0 27.712 47.999h596.076a32 32 0 0 0 27.713-48.001L357.714 15.89A31.675 31.675 0 0 0 330-.108z" transform="translate(0.08956 0.10891)"/><path class="b" d="M567.418 523.219H92.583a10 10 0 0 1-8.66-15.001L321.34 96.999a10 10 0 0 1 17.32 0l237.418 411.219a10 10 0 0 1-8.66 14.999zM330 11.999a19.813 19.813 0 0 0-17.32 10L14.64 538.218a20 20 0 0 0 17.32 29.999h596.08a20 20 0 0 0 17.32-30.001L347.32 21.999A19.813 19.813 0 0 0 330 12z" transform="translate(0.08956 0.10891)"/><path d="M348 188.393v-8.871a6 6 0 0 1 6-6 5.565 5.565 0 0 1 5.565 5.565v12.315a10 10 0 0 1-3.518 7.614L322 228v6.565h11.826a6.957 6.957 0 0 1 6.957 6.957 4 4 0 0 1-4 4H330v11.543L339 302 431 360.952a14 14 0 0 1 4.73 18.508l-18.509 33.825a10 10 0 0 0 2.892 12.888l9.522 6.925a21 21 0 0 1 7.516 10.18l19.223 56.13A8 8 0 0 1 448.804 510a8.078 8.078 0 0 1-7.608-5.365l-17.115-48.713a19 19 0 0 0-7.28-9.44l-21.69-14.672a20 20 0 0 1-8.521-13.278l-.471-2.82a29 29 0 0 0-12.974-19.659L309 355c-5.043 5.74-15 4-24-1l-32-19-11.481 60.06a7.75 7.75 0 0 1-9.388 6.089l-.214-.052a9.557 9.557 0 0 1-7.245-11.056l12.778-68.4a9.997 9.997 0 0 1 14.687-6.9L285 333l8.73-57.613A14 14 0 0 0 288.153 261.99l-28.445-20.809a9.936 9.936 0 0 1-3.63-10.94l.05-.161a7.004 7.004 0 0 1 8.07-4.842C277.586 227.918 308 234 308 234v-7l-17.106-15.477a11 11 0 0 1-3.603-8.767l.71-12.756c.518-4.867 2.477-7.62 6.453-7.413a5 5 0 0 1 4.547 4.98L300 206l10 8 1.37-12.697a7 7 0 0 1 6.965-6.303 6.665 6.665 0 0 1 6.665 6.665V214l21.888-22.84a4 4 0 0 0 1.112-2.767z" transform="translate(0.08956 0.10891)"/><path d="M404.954 493.496a8 8 0 0 1-8.139-7.86l-.768-44.992 15.998 10.72.768 33.994a8 8 0 0 1-7.86 8.138z" transform="translate(0.08956 0.10891)"/><path d="m303 366-17-1-10.905 24.717a27.25 27.25 0 0 0-1.122 18.984l14.207 46.361a6.772 6.772 0 0 0 7.894 4.639 7.467 7.467 0 0 0 5.583-9.46l-10.61-35.146a30.764 30.764 0 0 1 .738-19.935z" transform="translate(0.08956 0.10891)"/></svg>