<svg xmlns="http://www.w3.org/2000/svg" width="2254" height="504">
<title>1.4.2 Напрямок повороту</title>
<defs><style>.b{fill:#da251d}</style></defs><path style="fill:#fff" d="M1 1h2252v502H1z"/><path d="M2252 2v500H2V2h2250m2-2H0v504h2254V0z"/><g><path class="b" d="m1882 252 240 240h120V12h-120l-240 240z"/><path class="b" d="m1332 252 240 240h330l-240-240 240-240h-330l-240 240z"/><path class="b" d="m782 252 240 240h330l-240-240 240-240h-330L782 252z"/><path class="b" d="m232 252 240 240h330L562 252 802 12H472L232 252zM12 252v240h240zM252 12 12 252V12z"/></g>
</svg>