<svg xmlns="http://www.w3.org/2000/svg" width="660.179" height="580.218" viewBox="0 0 660.179 580.218"><defs><style>.a { fill: rgb(255, 255, 255); }.b { fill: rgb(218, 37, 29); }.c { fill: none; }</style></defs><g><path class="a" d="M31.96143,579.10938a31,31,0,0,1-26.84668-46.5L303.15332,16.39111a30.99981,30.99981,0,0,1,53.69336,0L654.88574,532.60938a31,31,0,0,1-26.84765,46.5Z" transform="translate(0.08956 0.10891)"/><path d="M330,1.89109a29.71926,29.71926,0,0,1,25.9808,15l298.03837,516.2178a30,30,0,0,1-25.98072,45H31.96155a30,30,0,0,1-25.98082-45L304.0192,16.89109a29.71926,29.71926,0,0,1,25.9808-15m0-2a31.67452,31.67452,0,0,0-27.71292,16L4.24864,532.10889a32.00008,32.00008,0,0,0,27.71291,48h596.0769a31.99994,31.99994,0,0,0,27.71283-48L357.71292,15.89109A31.67452,31.67452,0,0,0,330-.10891Z" transform="translate(0.08956 0.10891)"/></g><path class="b" d="M567.41753,523.21885H92.58272a10,10,0,0,1-8.66026-15L321.33979,96.99906a10,10,0,0,1,17.32051,0l237.41748,411.2198A10,10,0,0,1,567.41753,523.21885ZM330,11.999A19.81282,19.81282,0,0,0,312.67946,21.999L14.64044,538.21885a20,20,0,0,0,17.3206,30H628.039a20.00012,20.00012,0,0,0,17.32062-30L347.32063,21.999A19.81284,19.81284,0,0,0,330,11.999Z" transform="translate(0.08956 0.10891)"/><rect class="c" x="189.655" y="420.109" width="70" height="10"/><g><path d="M560.67,506.5,537,465.5l-5.78-10L508.99,417a19.98613,19.98613,0,0,0-17.32-10H168.33a19.98613,19.98613,0,0,0-17.32,10l-22.23,38.5-5.77,10L100.2,505a5.99676,5.99676,0,0,0,5.19,9H556.34A5.00169,5.00169,0,0,0,560.67,506.5ZM330,509V412H491.67a15.034,15.034,0,0,1,12.99,7.5L526.89,458l5.78,10,23.67,41Z" transform="translate(0.08956 0.10891)"/><g><rect class="a" x="185.09" y="455.109" width="70" height="10"/><rect x="330.09" y="455.109" width="35" height="10"/><rect class="a" x="295.09" y="455.109" width="35" height="10"/><polygon class="a" points="145.09 455.109 145.09 465.109 123.1 465.109 128.87 455.109 145.09 455.109"/><rect x="405.09" y="455.109" width="70" height="10"/><polygon points="537.09 465.109 515.09 465.109 515.09 455.109 531.31 455.109 537.09 465.109"/></g></g><g><path d="M261.27636,369.01261a12.70588,12.70588,0,1,1-12.70589,12.70588,12.72028,12.72028,0,0,1,12.70589-12.70588m0-9.07564a21.78152,21.78152,0,1,0,21.78151,21.78152A21.78153,21.78153,0,0,0,261.27636,359.937Z" transform="translate(0.08956 0.10891)"/><path d="M408.30157,369.01261a12.70588,12.70588,0,1,1-12.70589,12.70588,12.72028,12.72028,0,0,1,12.70589-12.70588m0-9.07564a21.78152,21.78152,0,1,0,21.78151,21.78152A21.78153,21.78153,0,0,0,408.30157,359.937Z" transform="translate(0.08956 0.10891)"/><path d="M430.99064,339.97059l-45.37815-10.33716L345.67972,295.5h-97.9351L226.789,327.26471c-10.88167,15.63729-5.96269,39.43362,9.40234,50.38786a25.41213,25.41213,0,0,1,50.49682,4.06592c0,.599-.01817,1.1889-.07262,1.77879l96.33784-.118c-.04537-.54452-.06354-1.09812-.06354-1.6608a25.40544,25.40544,0,0,1,50.80536-.53549c6.33483-3.43964,10.90893-10.52771,10.90893-17.61577V348.13866C444.60409,343.60084,437.25285,341.54974,430.99064,339.97059Zm-182.284-2.72269a7.25935,7.25935,0,0,1-6.09885-11.19935l15.03832-23.288h85.70117l36.81984,34.4874Z" transform="translate(0.08956 0.10891)"/></g></svg>