<svg xmlns="http://www.w3.org/2000/svg" width="1116.352" height="983.231" viewBox="0 0 1116.352 983.231"><defs><style>.a { fill: rgb(255, 255, 255); }.b { fill: rgb(218, 37, 29); }</style></defs><g><path class="a" d="M60.92285,982.61523a61.00042,61.00042,0,0,1-52.82764-91.5L504.17236,31.88477a61.00016,61.00016,0,0,1,105.65528,0L1105.9043,891.11523a61,61,0,0,1-52.82715,91.5Z" transform="translate(1.17579 -0.38471)"/><path d="M557,2.38471a59.43843,59.43843,0,0,1,51.96158,30L1105.03845,891.6153c23.09412,39.99993-5.77344,89.99993-51.96142,89.99993H60.923c-46.188,0-75.05543-50-51.96142-89.99993L505.03842,32.38472A59.43843,59.43843,0,0,1,557,2.38471m0-2a61.3687,61.3687,0,0,0-53.69357,31L7.22957,890.6153A62,62,0,0,0,60.923,983.61523h992.154a61.99986,61.99986,0,0,0,53.69342-92.99993L610.69357,31.38472A61.3687,61.3687,0,0,0,557,.38471Z" transform="translate(1.17579 -0.38471)"/></g><path class="b" d="M565.66028,167.38076,966.47631,861.62a10,10,0,0,1-8.66027,15H156.184a10,10,0,0,1-8.66027-15L548.33974,167.38076A10,10,0,0,1,565.66028,167.38076ZM522.35892,42.38059,26.28068,901.62011C10.88479,928.28678,30.12981,961.62,60.92176,961.62h992.15648c30.792,0,50.037-33.33322,34.64108-59.99989L591.64109,42.38059C576.24511,15.71377,537.7549,15.71377,522.35892,42.38059Z" transform="translate(1.17579 -0.38471)"/><circle cx="558.17579" cy="614.61529" r="120"/></svg>