<svg xmlns="http://www.w3.org/2000/svg" width="704" height="704"><defs><style>.a{fill:#fff}</style></defs>
<title>2.2 Проїзд без зупинки заборонено</title>
<path class="a" d="M206.611 703 1 497.389V206.611L206.611 1h290.778L703 206.611v290.778L497.389 703H206.611z"/><path d="M496.975 2 702 207.025v289.95L496.975 702h-289.95L2 496.975v-289.95L207.025 2h289.95m.828-2H206.197l-.586.586L.586 205.61l-.586.586v291.606l.586.586L205.61 703.414l.586.586h291.606l.586-.586L703.414 498.39l.586-.586V206.197l-.586-.586L498.39.586 497.803 0z"/><path style="fill:#da251d" d="M488.69 22H215.31L22 215.31v273.38L215.31 682h273.38L682 488.69V215.31L488.69 22z"/><path class="a" d="M109.272 451.924a100.82 100.82 0 0 1-37.894-7.369 98.956 98.956 0 0 1-31.973-20.928l20.13-23.286a89.339 89.339 0 0 0 23.685 15.917 65.38 65.38 0 0 0 26.644 5.895q16.579 0 25.165-6.78a21.77 21.77 0 0 0 8.585-17.98 19.827 19.827 0 0 0-2.368-10.022 19.282 19.282 0 0 0-6.217-7.074 43.31 43.31 0 0 0-9.474-5.895q-5.329-2.653-11.841-5.306L87.069 357.6a97.974 97.974 0 0 1-14.21-7.369 63.468 63.468 0 0 1-12.435-10.61 46.184 46.184 0 0 1-12.434-33.31 47.819 47.819 0 0 1 4.737-21.221 55.589 55.589 0 0 1 13.618-17.391 62.636 62.636 0 0 1 20.428-11.496 83.57 83.57 0 0 1 58.913 2.653 82.174 82.174 0 0 1 26.94 17.685l-17.466 21.812a86.35 86.35 0 0 0-19.54-12.085 55.373 55.373 0 0 0-22.5-4.42q-13.913 0-22.203 6.19-8.29 5.894-8.29 16.505a19.207 19.207 0 0 0 2.37 9.728 32.825 32.825 0 0 0 6.808 7.074 79.714 79.714 0 0 0 10.066 5.6q5.625 2.358 11.545 4.717l26.35 10.906a90.894 90.894 0 0 1 15.69 8.253 53.953 53.953 0 0 1 12.138 10.906 45.372 45.372 0 0 1 8.29 14.444 53.152 53.152 0 0 1 2.96 18.57 52.336 52.336 0 0 1-4.737 22.106 53.776 53.776 0 0 1-13.914 18.276 69.207 69.207 0 0 1-21.908 12.38 88.188 88.188 0 0 1-29.013 4.42zm138.075-.467V281.429h-55.954v-28.886h146.249v28.886h-55.953v170.028zm177.592.467a86.428 86.428 0 0 1-34.639-6.78 77.3 77.3 0 0 1-26.94-20.044 95.426 95.426 0 0 1-17.467-31.833q-6.218-18.57-6.217-42.15 0-23.287 6.217-41.563 6.217-18.57 17.467-31.244a75.749 75.749 0 0 1 26.94-19.454 91.873 91.873 0 0 1 69.277 0 75.749 75.749 0 0 1 26.94 19.454q11.546 12.675 17.762 31.244 6.219 18.275 6.218 41.562 0 23.581-6.218 42.15a92.608 92.608 0 0 1-17.763 31.834 77.3 77.3 0 0 1-26.94 20.044 86.426 86.426 0 0 1-34.637 6.78zm0-29.771a42.528 42.528 0 0 0 20.723-5.011 46.622 46.622 0 0 0 15.69-14.149 73.062 73.062 0 0 0 10.066-22.4 113.89 113.89 0 0 0 3.553-29.477q0-32.425-13.618-50.699-13.323-18.57-36.414-18.57-23.092 0-36.711 18.57-13.321 18.275-13.323 50.7a113.89 113.89 0 0 0 3.554 29.475 73.062 73.062 0 0 0 10.065 22.401 46.623 46.623 0 0 0 15.69 14.149 42.53 42.53 0 0 0 20.725 5.01zm102.701 29.304V252.543h60.986a139.92 139.92 0 0 1 29.605 2.948 64.403 64.403 0 0 1 23.98 10.021 48.09 48.09 0 0 1 15.691 18.57q5.625 11.201 5.625 28.003 0 15.917-5.625 27.707a55.005 55.005 0 0 1-15.69 19.749 66.684 66.684 0 0 1-23.39 11.496 112.835 112.835 0 0 1-29.011 3.537h-27.83v76.883zm34.342-104.296h25.163q42.632 0 42.632-35.076 0-18.276-11.25-25.055-10.954-7.074-32.566-7.074h-23.98z"/>
</svg>