<svg xmlns="http://www.w3.org/2000/svg" width="604" height="604" viewBox="0 0 604 604"><defs><style>.a { fill: none; }.b { fill: rgb(255, 255, 255); fill-rule: evenodd; }.c { fill: rgb(218, 37, 29); }.d { clip-path: url("#a"); }</style><clipPath id="a"><circle class="a" cx="302" cy="302" r="235"/></clipPath></defs><g><path class="b" d="M302 603A301 301 0 0 1 89.16 89.16 301 301 0 1 1 514.84 514.84a299.026 299.026 0 0 1-212.84 88.16z"/><path d="M302 2a300 300 0 0 1 212.132 512.132A300 300 0 1 1 89.868 89.868 298.035 298.035 0 0 1 302 2m0-2A302 302 0 0 0 88.454 515.546 302 302 0 1 0 515.546 88.454 300.02 300.02 0 0 0 302 0z"/></g><path class="c" d="M302 12C141.84 12 12 141.84 12 302s129.84 290 290 290 290-129.84 290-290S462.16 12 302 12zm0 530C169.45 542 62 434.55 62 302S169.45 62 302 62s240 107.45 240 240-107.45 240-240 240z"/><g class="d"><g><g><path d="M477.5 344a16.5 16.5 0 1 1-16.5 16.5A16.52 16.52 0 0 1 477.5 344m0-17a33.5 33.5 0 1 0 33.5 33.5 33.5 33.5 0 0 0-33.5-33.5z"/><path d="M542 273v84h-23.65a41.012 41.012 0 0 0-40.85-37.5c-1.18 0-2.35.05-3.5.15V273z"/></g><g><path d="M217 313h16v73a8 8 0 0 1-8 8 8 8 0 0 1-8-8v-73z"/><path d="M321.766 394a6.26 6.26 0 0 1-5.442-9.357L344 336h16l-30.412 53.45a9 9 0 0 1-7.822 4.55z"/><path d="m451 320-12 15-49-6v57a8 8 0 0 1-8 8h-.04a8 8 0 0 1-8-8v-46.256a15 15 0 0 0-12.577-14.803l-137.438-22.494a30 30 0 0 0-25.788 8.126l-22.289 21.731a13 13 0 0 0-2.495 15.235l12.985 25.35a8.544 8.544 0 0 1-3.209 11.223 9 9 0 0 1-12.59-3.513l-17.038-32.253a20 20 0 0 1 2.818-22.721L183 296l-18-3 2-16 21 2-24-66-15.328 12.875c-4.08 3.428-11.555 4.854-16.611 3.168a6.98 6.98 0 0 1-4.013-10.433L151 178l-7.04-4.023a12.23 12.23 0 0 1-5.56-9.58 4.926 4.926 0 0 1 6.566-4.644l22.85 8.064a31 31 0 0 1 10.954 6.683L201 195.47l7.9-8.19a6.5 6.5 0 0 1 9.35 9.03l-7.79 8.08L237.61 230H356c27 0 24 39 24 39v31a22.99 22.99 0 0 1-18-22.44v-18.41A15.342 15.342 0 0 0 349 244v32.35a33.993 33.993 0 0 0 29.38 33.68z"/></g></g></g></svg>