<svg xmlns="http://www.w3.org/2000/svg" width="600" height="600" xmlns:v="https://vecta.io/nano"><path d="M300 599C134.867 599 1 465.133 1 300A299 299 0 0 1 88.575 88.575c116.767-116.767 306.083-116.767 422.85 0s116.767 306.083 0 422.85A297.042 297.042 0 0 1 300 599z" fill="#fff"/><path d="M300 2c164.625.105 297.994 133.645 297.888 298.27a298.079 298.079 0 0 1-181.894 274.313c-151.689 63.963-326.51-7.153-390.474-158.843-63.904-151.55 7.018-326.221 158.485-390.322A296.132 296.132 0 0 1 300 2m0-2C134.315 0 0 134.315 0 300s134.315 300 300 300 300-134.315 300-300S465.685 0 300 0z"/><path d="M300 60a240.076 240.076 0 0 1 93.404 461.159A240.075 240.075 0 0 1 206.596 78.841 238.454 238.454 0 0 1 300 60m0-50C139.837 10 10 139.837 10 300s129.837 290 290 290 290-129.837 290-290S460.163 10 300 10z" fill="#d92727"/><path d="M171 384.75h29v90h-29zm219 0v90h-29v-33h-36.31a27.005 27.005 0 0 1-48.38 0H236v33h-29v-90h29v34h39.84a27.004 27.004 0 0 1 49.32 0H361v-34zm7 0h29v90h-29zm-248.5-23h303v10h-303z"/><path d="M188 129.25h218v219H188z" fill="#fff"/><path d="M402,133.25v211H192v-211H402m8-8H184v227H410v-227Z"/><path d="M224.5 166.25h145v145h-145z" fill="#e6771d"/><path d="M368,167.75v142H226v-142H368m3-3H223v148H371v-148Z"/></svg>