<svg id="Слой_1" data-name="Слой 1" xmlns="http://www.w3.org/2000/svg" width="604" height="604" viewBox="0 0 604 604"><defs><style>.cls-1 { fill: rgb(255, 255, 255); fill-rule: evenodd; }.cls-2 { fill: rgb(218, 37, 29); }</style></defs><g id="base"><path class="cls-1" d="M300 601A301 301 0 0 1 87.16 87.16 301 301 0 1 1 512.84 512.84a299.026 299.026 0 0 1-212.84 88.16z" transform="translate(2 2)"/><path d="M300 0a300 300 0 0 1 212.132 512.132A300 300 0 1 1 87.868 87.868 298.035 298.035 0 0 1 300 0m0-2A302 302 0 0 0 86.454 513.546 302 302 0 1 0 513.546 86.454 300.02 300.02 0 0 0 300-2z" transform="translate(2 2)"/></g><path class="cls-2" d="M300 10C139.84 10 10 139.84 10 300s129.84 290 290 290 290-129.84 290-290S460.16 10 300 10zm0 530C167.45 540 60 432.55 60 300S167.45 60 300 60s240 107.45 240 240-107.45 240-240 240z" transform="translate(2 2)"/><path d="M464 318v100a20 20 0 0 1-40 0v-33h-89.39a39.02 39.02 0 0 1-69.22 0H176v33a20 20 0 0 1-40 0V318a20 20 0 0 1 40 0v31h89.39a39.02 39.02 0 0 1 69.22 0H424v-31a20 20 0 0 1 40 0z" transform="translate(2 2)"/><path d="m207.103 199.73 3.96-83.38h88.44v24.42h-65.12l-1.54 34.98c6.16-5.72 16.72-9.24 28.38-9.24 29.48 0 47.96 20.24 47.96 51.26 0 33.661-21.34 54.561-55 54.561-27.72.001-47.3-14.74-51.92-39.38l26.62-4.84c2.86 12.1 13.2 19.58 25.96 19.58 16.28 0 26.4-11.22 26.4-29.04 0-17.6-9.9-28.6-25.08-28.6-9.68 0-18.04 4.4-23.1 12.1z" transform="translate(2 2)"/><path d="M326.2 191.834h69.228v17.387h-24.472v63.111H350.67v-63.11H326.2z" transform="translate(2 2)"/></svg>