<?xml version="1.0" encoding="UTF-8" standalone="no"?>
<!-- Created with Inkscape (http://www.inkscape.org/) -->

<svg
   xmlns:dc="http://purl.org/dc/elements/1.1/"
   xmlns:cc="http://creativecommons.org/ns#"
   xmlns:rdf="http://www.w3.org/1999/02/22-rdf-syntax-ns#"
   xmlns:svg="http://www.w3.org/2000/svg"
   xmlns="http://www.w3.org/2000/svg"
   xmlns:sodipodi="http://sodipodi.sourceforge.net/DTD/sodipodi-0.dtd"
   xmlns:inkscape="http://www.inkscape.org/namespaces/inkscape"
   width="700"
   height="700"
   id="svg2"
   version="1.1"
   inkscape:version="0.48.4 r9939"
   sodipodi:docname="3.17.1 USSR.svg">
  <title
     id="title3002">3.17.1 Таможня</title>
  <defs
     id="defs4" />
  <sodipodi:namedview
     id="base"
     pagecolor="#ffffff"
     bordercolor="#666666"
     borderopacity="1.0"
     inkscape:pageopacity="0.0"
     inkscape:pageshadow="2"
     inkscape:zoom="1"
     inkscape:cx="467.32616"
     inkscape:cy="349.60484"
     inkscape:document-units="px"
     inkscape:current-layer="layer1"
     showgrid="false"
     inkscape:window-width="1920"
     inkscape:window-height="1024"
     inkscape:window-x="-4"
     inkscape:window-y="-4"
     inkscape:window-maximized="1"
     showguides="true"
     inkscape:guide-bbox="true" />
  <metadata
     id="metadata7">
    <rdf:RDF>
      <cc:Work
         rdf:about="">
        <dc:format>image/svg+xml</dc:format>
        <dc:type
           rdf:resource="http://purl.org/dc/dcmitype/StillImage" />
        <dc:title>3.17.1 Таможня</dc:title>
        <cc:license
           rdf:resource="http://creativecommons.org/licenses/by-sa/3.0/" />
        <dc:description>ГОСТ 10807-78
Размеры и пропорции по типоразмеру II</dc:description>
      </cc:Work>
      <cc:License
         rdf:about="http://creativecommons.org/licenses/by-sa/3.0/">
        <cc:permits
           rdf:resource="http://creativecommons.org/ns#Reproduction" />
        <cc:permits
           rdf:resource="http://creativecommons.org/ns#Distribution" />
        <cc:requires
           rdf:resource="http://creativecommons.org/ns#Notice" />
        <cc:requires
           rdf:resource="http://creativecommons.org/ns#Attribution" />
        <cc:permits
           rdf:resource="http://creativecommons.org/ns#DerivativeWorks" />
        <cc:requires
           rdf:resource="http://creativecommons.org/ns#ShareAlike" />
      </cc:License>
    </rdf:RDF>
  </metadata>
  <g
     inkscape:label="Layer 1"
     inkscape:groupmode="layer"
     id="layer1"
     transform="translate(0,-352.36218)">
    <path
       transform="matrix(2.8577184,0,0,3.7498086,1269.0072,-2310.3252)"
       d="m -199.11241,803.42432 a 122.47533,93.338097 0 1 1 -244.95065,0 122.47533,93.338097 0 1 1 244.95065,0 z"
       sodipodi:ry="93.338097"
       sodipodi:rx="122.47533"
       sodipodi:cy="803.42432"
       sodipodi:cx="-321.58774"
       id="path12388"
       style="opacity:1;color:#000000;fill:#ffffff;fill-opacity:1;fill-rule:nonzero;stroke:none;stroke-width:1px;marker:none;visibility:visible;display:inline;overflow:visible;enable-background:accumulate"
       sodipodi:type="arc" />
    <path
       sodipodi:type="arc"
       style="color:#000000;fill:none;stroke:#000000;stroke-width:0.61271476999999996;stroke-miterlimit:4;stroke-opacity:1;stroke-dasharray:none;marker:none;visibility:visible;display:inline;overflow:visible;enable-background:accumulate;opacity:1"
       id="path12442"
       sodipodi:cx="-321.58774"
       sodipodi:cy="803.42432"
       sodipodi:rx="122.47533"
       sodipodi:ry="93.338097"
       d="m -199.11241,803.42432 c 0,51.5492 -54.83407,93.33809 -122.47533,93.33809 -67.64125,0 -122.47532,-41.78889 -122.47532,-93.33809 0,-51.54921 54.83407,-93.3381 122.47532,-93.3381 67.64126,0 122.47533,41.78889 122.47533,93.3381 z"
       transform="matrix(2.8495535,0,0,3.7390949,1266.3815,-2301.7176)" />
    <path
       id="path8029"
       style="opacity:1;color:#000000;fill:#000000;fill-opacity:1;stroke:none;stroke-width:1px;marker:none;visibility:visible;display:inline;overflow:visible;enable-background:accumulate"
       d="m 137.17738,730.02349 c -15.2769,0 -27.6613,-12.38438 -27.6613,-27.66129 0,-15.27691 12.3844,-27.66129 27.6613,-27.66129 l 0,0 425.64511,0 c 15.277,0 27.6613,12.38438 27.6613,27.66129 0,15.2769 -12.3843,27.66129 -27.6613,27.66129 z"
       inkscape:connector-curvature="0"
       sodipodi:nodetypes="cscccscc" />
    <path
       inkscape:connector-curvature="0"
       style="opacity:1;color:#000000;fill:#ff0000;fill-opacity:1;fill-rule:nonzero;stroke:none;stroke-width:1px;marker:none;visibility:visible;display:inline;overflow:visible;enable-background:accumulate"
       d="m 349.99638,362.35924 c -187.7769,0 -340.0000026,152.22318 -340.0000026,340 0,187.77681 152.2231026,340.00006 340.0000026,340.00006 187.77681,0 340.00001,-152.22325 340.00001,-340.00006 0,-187.77682 -152.2232,-340 -340.00001,-340 z m 0,58.875 c 155.26321,0 281.12501,125.86172 281.12501,281.125 0,155.26327 -125.8618,281.125 -281.12501,281.125 -155.2633,0 -281.125003,-125.86173 -281.125003,-281.125 0,-155.26328 125.861703,-281.125 281.125003,-281.125 z"
       id="path8171" />
    <g
       style="font-size:94.63538361px;font-style:normal;font-variant:normal;font-weight:normal;font-stretch:normal;line-height:125%;letter-spacing:-2.25806451px;word-spacing:0px;fill:#000000;fill-opacity:1;stroke:none;font-family:Arial;-inkscape-font-specification:Arial"
       id="text7949-6-5">
      <path
         d="m 260.02553,566.92402 c 0,-9.73458 2.61849,-18.04444 7.85548,-24.92958 5.23696,-6.88503 11.53674,-10.32757 18.89935,-10.32764 5.45259,7e-5 10.42772,1.98704 14.92541,5.96092 4.37436,3.81997 7.60897,8.88752 9.70382,15.20265 l -10.90525,4.57466 c -1.13986,-4.37437 -2.9343,-7.90163 -5.38331,-10.58178 -2.4491,-2.68005 -5.19852,-4.0201 -8.24825,-4.02016 -4.0972,6e-5 -7.59366,2.3567 -10.48937,7.06993 -2.89577,4.71333 -4.34364,10.4124 -4.34362,17.09721 -2e-5,6.68489 1.44785,12.39165 4.34362,17.12032 2.89571,4.7287 6.39217,7.09304 10.48937,7.09303 2.95732,10e-6 5.64512,-1.27843 8.06342,-3.83532 2.4182,-2.55686 4.24344,-5.9455 5.47572,-10.16591 l 10.85904,4.15878 c -2.09485,6.25359 -5.32945,11.25953 -9.70382,15.01782 -4.43608,3.88153 -9.365,5.8223 -14.78678,5.8223 -7.36261,0 -13.66239,-3.44255 -18.89935,-10.32764 -5.23699,-6.88508 -7.85548,-15.19493 -7.85548,-24.92959 z"
         style="fill:#000000;font-family:IndorSoft RoadSign Letters;-inkscape-font-specification:IndorSoft RoadSign Letters"
         id="path13320" />
      <path
         d="m 339.97272,533.00685 -12.33772,0 0,67.74193 42.28095,0 0,-10.30454 -29.94323,0 z"
         style="fill:#000000;font-family:IndorSoft RoadSign Letters;-inkscape-font-specification:IndorSoft RoadSign Letters"
         id="path13322" />
      <path
         d="m 398.24803,566.92402 c -2e-5,6.68489 1.44785,12.39165 4.34361,17.12032 2.89572,4.7287 6.42298,7.09304 10.58179,7.09303 4.09713,10e-6 7.60899,-2.36433 10.53558,-7.09303 2.9265,-4.72867 4.38978,-10.43543 4.38983,-17.12032 -5e-5,-6.68481 -1.46333,-12.40698 -4.38983,-17.16652 -2.92659,-4.75944 -6.43845,-7.13919 -10.53558,-7.13924 -4.15881,5e-5 -7.68607,2.3798 -10.58179,7.13924 -2.89576,4.75954 -4.34363,10.48171 -4.34361,17.16652 z m -12.06047,-0.0462 c -1e-5,-9.79619 2.62618,-18.14455 7.87858,-25.0451 5.25237,-6.90043 11.57525,-10.35068 18.96867,-10.35075 7.45495,7e-5 13.80864,3.45032 19.06108,10.35075 5.25232,6.90055 7.87851,15.24891 7.87858,25.0451 -7e-5,9.73466 -2.62626,18.05221 -7.87858,24.95269 -5.25244,6.9005 -11.60613,10.35075 -19.06108,10.35075 -7.39342,0 -13.7163,-3.45025 -18.96867,-10.35075 -5.2524,-6.90048 -7.87859,-15.21803 -7.87858,-24.95269 z"
         style="fill:#000000;font-family:IndorSoft RoadSign Letters;-inkscape-font-specification:IndorSoft RoadSign Letters"
         id="path13324" />
    </g>
    <g
       style="font-size:78.86282349px;font-style:normal;font-variant:normal;font-weight:normal;font-stretch:normal;line-height:125%;letter-spacing:-7.33870935px;word-spacing:0px;fill:#000000;fill-opacity:1;stroke:none;font-family:Arial;-inkscape-font-specification:Arial"
       id="text13015">
      <path
         d="m 145.68984,803.9746 42.47348,0 0,8.39458 -16.67363,0 0,48.05703 -9.08771,0 0,-48.05703 -16.71214,0 z"
         style="fill:#000000;font-family:IndorSoft RoadSign Letters;-inkscape-font-specification:IndorSoft RoadSign Letters"
         id="path13327" />
      <path
         d="m 220.60259,816.99004 -7.12384,23.75897 14.47872,0 z m -5.69908,-13.01544 11.32113,0 18.17542,56.45161 -10.74352,0 -3.46565,-11.20561 -18.98407,0 -3.50416,11.20561 -11.43665,0 z"
         style="fill:#000000;font-family:IndorSoft RoadSign Letters;-inkscape-font-specification:IndorSoft RoadSign Letters"
         id="path13329" />
      <path
         d="m 262.39911,860.42621 -9.85785,0 5.73758,-56.45161 9.62681,0 13.20798,25.41477 12.39933,-25.41477 9.93487,0 5.69907,56.45161 -9.93487,0 -3.85072,-42.20393 -14.24768,30.92131 -14.78678,-31.03684 z"
         style="fill:#000000;font-family:IndorSoft RoadSign Letters;-inkscape-font-specification:IndorSoft RoadSign Letters"
         id="path13331" />
      <path
         d="m 327.33849,832.23891 c -2e-5,5.57074 1.20654,10.32638 3.61968,14.26693 2.4131,3.94059 5.35248,5.91087 8.81816,5.91086 3.41427,10e-6 6.34082,-1.97027 8.77965,-5.91086 2.43875,-3.94055 3.65814,-8.69619 3.65819,-14.26693 -5e-5,-5.57068 -1.21944,-10.33915 -3.65819,-14.30544 -2.43883,-3.9662 -5.36538,-5.94932 -8.77965,-5.94937 -3.46568,5e-5 -6.40506,1.98317 -8.81816,5.94937 -2.41314,3.96629 -3.6197,8.73476 -3.61968,14.30544 z m -10.05039,-0.0385 c -10e-6,-8.1635 2.18849,-15.12046 6.56549,-20.87092 4.37697,-5.75036 9.64604,-8.62556 15.80722,-8.62562 6.21246,6e-5 11.5072,2.87526 15.88423,8.62562 4.37694,5.75046 6.56543,12.70742 6.56549,20.87092 -6e-5,8.11221 -2.18855,15.04351 -6.56549,20.79391 -4.37703,5.75042 -9.67177,8.62562 -15.88423,8.62562 -6.16118,0 -11.43025,-2.8752 -15.80722,-8.62562 -4.377,-5.7504 -6.5655,-12.6817 -6.56549,-20.79391 z"
         style="fill:#000000;font-family:IndorSoft RoadSign Letters;-inkscape-font-specification:IndorSoft RoadSign Letters"
         id="path13333" />
      <path
         d="m 382.343,860.58024 -12.16829,-0.42358 c 0.84715,-0.43642 3.43997,-4.22296 7.77847,-11.35964 5.41666,-8.88231 8.25336,-13.50318 8.5101,-13.8626 2.25906,-3.26025 5.18561,-5.17278 8.77965,-5.73758 -1.566,-0.30803 -3.24748,-1.63011 -5.04445,-3.96625 L 382.343,815.1802 c -0.97553,-1.28352 -2.02806,-2.09218 -3.15759,-2.42595 -0.51345,-0.17965 -1.83553,-0.35936 -3.96625,-0.5391 l 2.88805,-9.58831 c 4.23577,0.23111 8.02231,2.23348 11.35963,6.00713 2.51578,3.44003 5.00591,6.88001 7.4704,10.31994 2.79816,3.74808 5.6862,5.68627 8.66413,5.8146 l 0,-20.79391 9.66532,0 0,20.79391 c 3.02918,-0.12833 5.95573,-2.05369 8.77965,-5.77609 2.49007,-3.43993 4.9802,-6.89275 7.4704,-10.35845 3.33723,-3.77365 7.12377,-5.77602 11.35964,-6.00713 l 2.84954,9.58831 c -2.10515,0.17974 -3.42723,0.35945 -3.96625,0.5391 -1.07828,0.33377 -2.11798,1.14243 -3.11909,2.42595 l -7.81697,10.05039 c -0.97558,1.23227 -1.70722,2.06659 -2.19491,2.50297 -0.87289,0.77018 -1.84841,1.25794 -2.92655,1.46328 3.61961,0.5648 6.559,2.47733 8.81816,5.73758 0.25664,0.35942 3.09334,4.98029 8.5101,13.8626 4.3384,7.13668 6.94405,10.92322 7.81697,11.35964 l -12.2068,0.42358 c -0.89857,-0.94985 -2.86244,-4.18445 -5.8916,-9.70383 -3.74811,-6.80293 -5.72481,-10.3841 -5.93012,-10.74352 -1.51468,-2.46444 -3.08064,-4.10741 -4.69788,-4.92892 -1.48901,-0.77012 -3.77377,-1.1937 -6.85429,-1.27074 l 0.15403,26.45447 -9.81935,0 0,-26.45447 c -3.02927,0.10271 -5.27553,0.52629 -6.73876,1.27074 -1.64301,0.82151 -3.20897,2.46448 -4.69789,4.92892 -3.20896,6.03282 -7.14953,12.84859 -11.82172,20.44735 z"
         style="fill:#000000;font-family:IndorSoft RoadSign Letters;-inkscape-font-specification:IndorSoft RoadSign Letters"
         id="path13335" />
      <path
         d="m 490.33346,803.9746 9.31875,0 0,56.52862 -9.31875,0 0,-25.91537 -22.02614,0 0,25.91537 -9.35726,0 0,-56.52862 9.35726,0 0,22.29569 22.02614,0 z"
         style="fill:#000000;font-family:IndorSoft RoadSign Letters;-inkscape-font-specification:IndorSoft RoadSign Letters"
         id="path13337" />
      <path
         d="m 532.55358,812.5232 c -2.64419,5e-5 -4.71075,0.82154 -6.19967,2.46447 -1.36061,1.51466 -2.0409,3.54271 -2.04088,6.08414 -2e-5,2.51584 0.96907,4.55031 2.9073,6.1034 1.93817,1.55316 4.5374,2.32972 7.79771,2.32969 l 9.28025,0 0,-16.9817 z m 21.75659,-8.5486 0,56.45161 -10.01188,0 0,-22.8733 -7.93249,0 c -2.84957,2e-5 -5.21135,1.63016 -7.08534,4.89042 -3.02926,5.98147 -6.04566,11.97576 -9.0492,17.98288 l -12.55336,0 c 1.71998,-1.59163 3.20893,-3.52983 4.46684,-5.81459 l 8.43309,-15.13335 c 1.56594,-2.82384 3.37578,-4.49248 5.42952,-5.00594 -2.05374,-0.35937 -4.27433,-1.88683 -6.66175,-4.58236 -2.64418,-3.0292 -3.96626,-6.10978 -3.96625,-9.24174 -1e-5,-4.85187 1.60445,-8.84378 4.81341,-11.97575 3.20891,-3.13187 7.32918,-4.69783 12.36082,-4.69788 z"
         style="fill:#000000;font-family:IndorSoft RoadSign Letters;-inkscape-font-specification:IndorSoft RoadSign Letters"
         id="path13339" />
    </g>
  </g>
</svg>
