<svg xmlns="http://www.w3.org/2000/svg" width="604" height="604" viewBox="0 0 604 604"><defs><style>.a { fill: rgb(255, 255, 255); fill-rule: evenodd; }.b { fill: rgb(218, 37, 29); }</style></defs><g><path class="a" d="M302,603A300.99962,300.99962,0,0,1,89.16113,89.16113,300.99962,300.99962,0,1,1,514.83887,514.83887,299.0265,299.0265,0,0,1,302,603Z"/><path d="M302,2A299.99973,299.99973,0,0,1,514.13184,514.13184,299.99973,299.99973,0,1,1,89.86816,89.86816,298.03491,298.03491,0,0,1,302,2m0-2A301.99976,301.99976,0,0,0,88.45393,515.54608,301.99976,301.99976,0,1,0,515.54608,88.45393,300.02142,300.02142,0,0,0,302,0Z"/></g><polygon points="82 362 82 242 144 302 82 362"/><polygon points="522 242 522 362 460 302 522 242"/><path d="M284.19238,317.99313V346.665H163.61816V319.2734c31.74366-28.15967,86.01465-70.91113,86.01465-103.67871,0-13.05567-10.23974-21.75977-26.11133-21.75977-18.17578,0-29.18408,11.77588-29.18408,31.74365H161.82617c0-36.0957,24.83154-60.415,61.95117-60.415,34.04737,0,58.36719,20.47949,58.36719,48.895,0,42.49561-38.39941,73.21534-73.21484,104.19043Z"/><path d="M397.15332,346.665H373.45215l42.04-101.89941h-59.167V225.562H439.54v18.68457Z"/><path d="M326.32422,317.9931c8.30469,0,14.18652,5.88184,14.18652,16.78125,0,11.24512-6.40136,23.52832-17.64648,31.48633h-9.51465c6.40039-8.47656,9.16894-13.667,9.86133-20.24121-6.57422-1.21094-11.07227-6.57422-11.07227-13.83985C312.13867,323.87494,318.02051,317.9931,326.32422,317.9931Z"/><path d="M298.38916,467.73047l-21.79883-36.84961v51.209h-20.5874V395.58789h22.14453l24.73975,41.34766,24.56689-41.34766h22.31738v86.50195H329.18359v-51.209l-21.79785,36.84961Z"/><path class="b" d="M302,12C141.84,12,12,141.84,12,302S141.84,592,302,592,592,462.16,592,302,462.16,12,302,12Zm0,530C169.45,542,62,434.55,62,302S169.45,62,302,62,542,169.45,542,302,434.55,542,302,542Z"/></svg>