<svg xmlns="http://www.w3.org/2000/svg" width="604" height="604" viewBox="0 0 604 604"><defs><style>.a { fill: rgb(255, 255, 255); fill-rule: evenodd; }.b { fill: rgb(218, 37, 29); }</style></defs><path class="a" d="M302.5,603.5A300.99962,300.99962,0,0,1,89.66113,89.66113,300.99962,300.99962,0,1,1,515.33887,515.33887,299.0265,299.0265,0,0,1,302.5,603.5Z" transform="translate(-0.5 -0.5)"/><path d="M302.5,2.5A299.99973,299.99973,0,0,1,514.63184,514.63184,299.99973,299.99973,0,1,1,90.36816,90.36816,298.03491,298.03491,0,0,1,302.5,2.5m0-2A301.99976,301.99976,0,0,0,88.95393,516.04608,301.99976,301.99976,0,1,0,516.04608,88.95393,300.02142,300.02142,0,0,0,302.5.5Z" transform="translate(-0.5 -0.5)"/><path class="b" d="M302.5,12.5c-160.16,0-290,129.84-290,290s129.84,290,290,290,290-129.84,290-290S462.66,12.5,302.5,12.5Zm0,530c-132.55,0-240-107.45-240-240s107.45-240,240-240,240,107.45,240,240S435.05,542.5,302.5,542.5Z" transform="translate(-0.5 -0.5)"/><polygon points="199.5 344.5 199.5 464.5 137.5 404.5 199.5 344.5"/><polygon points="402.5 344.5 402.5 464.5 464.5 404.5 402.5 344.5"/><path d="M197.72,270.36a14.96,14.96,0,1,1-14.96,14.96,14.97693,14.97693,0,0,1,14.96-14.96m0-12.32A27.28,27.28,0,1,0,225,285.32a27.28,27.28,0,0,0-27.28-27.28Z" transform="translate(-0.5 -0.5)"/><path d="M385.16,270.36a14.96,14.96,0,1,1-14.96,14.96,14.97693,14.97693,0,0,1,14.96-14.96m0-12.32a27.28,27.28,0,1,0,27.28,27.28,27.28,27.28,0,0,0-27.28-27.28Z" transform="translate(-0.5 -0.5)"/><path d="M223.24,211.4a8.80322,8.80322,0,0,1-8.8,8.8H166.6472a8.80392,8.80392,0,0,1-7.33041-13.684l13.3672-20.03762A13.19807,13.19807,0,0,1,183.66643,180.6H214.44a8.80318,8.80318,0,0,1,8.8,8.8Zm14.08,45.76V184.12a13.20478,13.20478,0,0,0-13.2-13.2H173.344a8.814,8.814,0,0,0-7.28637,3.8544l-26.7784,39.424A13.21484,13.21484,0,0,0,137,221.61679V272.12a13.20482,13.20482,0,0,0,13.2,13.2h14.52a33,33,0,0,1,66,0H352.6a32.536,32.536,0,0,1,16.20958-28.16Z" transform="translate(-0.5 -0.5)"/><path d="M258.86,122.9h168a15,15,0,0,1,15,15V246.1a0,0,0,0,1,0,0h-198a0,0,0,0,1,0,0V137.9A15,15,0,0,1,258.86,122.9Z"/><path d="M445,257.16v28.16H417.72a32.536,32.536,0,0,0-16.20958-28.16Z" transform="translate(-0.5 -0.5)"/><path d="M299.38013,493.87305,284.261,468.31445V503.833H269.9812V443.83594h15.35938l17.15966,28.67871,17.03907-28.67871H335.0188V503.833H320.7395V468.31445l-15.12012,25.5586Z" transform="translate(-0.5 -0.5)"/><path d="M275.947,427.42578H257.91284V349.89453c-3.834,4.96973-13.48974,9.65625-22.43555,11.21777V343.64648c9.65577-2.12988,19.31153-8.51953,24.13965-15.61914H275.947Z" transform="translate(-0.5 -0.5)"/><path d="M335.01685,326.32324c23.28808,0,34.50586,16.89746,34.50586,51.26074,0,34.22168-11.21778,51.12012-34.50586,51.12012S300.511,411.80566,300.511,377.584C300.511,343.2207,311.72876,326.32324,335.01685,326.32324ZM318.54517,377.584c0,22.57813,5.82226,35.21582,16.47168,35.21582,10.65039,0,16.47168-12.63769,16.47168-35.21582,0-22.71972-5.82129-35.35742-16.47168-35.35742C324.36743,342.22656,318.54517,354.86426,318.54517,377.584Z" transform="translate(-0.5 -0.5)"/></svg>