<svg xmlns="http://www.w3.org/2000/svg" width="604" height="604" viewBox="0 0 604 604"><defs><style>.a { fill: rgb(255, 255, 255); fill-rule: evenodd; }.b { fill: rgb(218, 37, 29); }</style></defs><g><path class="a" d="M302,603A300.99962,300.99962,0,0,1,89.16113,89.16113,300.99962,300.99962,0,1,1,514.83887,514.83887,299.0265,299.0265,0,0,1,302,603Z"/><path d="M302,2A299.99973,299.99973,0,0,1,514.13184,514.13184,299.99973,299.99973,0,1,1,89.86816,89.86816,298.03491,298.03491,0,0,1,302,2m0-2A301.99976,301.99976,0,0,0,88.45393,515.54608,301.99976,301.99976,0,1,0,515.54608,88.45393,300.02142,300.02142,0,0,0,302,0Z"/></g><path class="b" d="M302,12C141.84,12,12,141.84,12,302S141.84,592,302,592,592,462.16,592,302,462.16,12,302,12Zm0,530C169.45,542,62,434.55,62,302S169.45,62,302,62,542,169.45,542,302,434.55,542,302,542Z"/><g><path d="M161.53247,381.07792h54.85714a0,0,0,0,1,0,0v38.23379a27.42854,27.42854,0,0,1-27.42854,27.42854H188.961a27.42854,27.42854,0,0,1-27.42854-27.42854V381.07792A0,0,0,0,1,161.53247,381.07792Z"/><path d="M389.27273,381.07792h54.85714a0,0,0,0,1,0,0v38.23379a27.42854,27.42854,0,0,1-27.42854,27.42854h-.00005a27.42854,27.42854,0,0,1-27.42854-27.42854V381.07792a0,0,0,0,1,0,0Z"/><path d="M439.55844,256.81818l-28.30961-85.60207a29.08946,29.08946,0,0,0-27.61972-19.95637H215.99067a29.09255,29.09255,0,0,0-28.06027,21.4026c-8.44471,30.86962-23.48884,84.15584-23.48884,84.15584A22.44335,22.44335,0,0,0,142,279.25974v68.15584a22.44338,22.44338,0,0,0,22.44156,22.44156H439.55844A22.44338,22.44338,0,0,0,462,347.41558V279.25974A22.44335,22.44335,0,0,0,439.55844,256.81818ZM203.95531,183.54231a16.61591,16.61591,0,0,1,16.05818-12.33452H381.12728a16.62638,16.62638,0,0,1,15.90027,11.761l22.58284,73.84938H184.38961ZM188.961,330.79221a27.42858,27.42858,0,1,1,27.42857-27.42857A27.42369,27.42369,0,0,1,188.961,330.79221Zm226.90909,0a27.42858,27.42858,0,1,1,27.42857-27.42857A27.42369,27.42369,0,0,1,415.87013,330.79221Z"/></g></svg>