<svg xmlns="http://www.w3.org/2000/svg" width="604" height="604" viewBox="0 0 604 604"><defs><style>.a { fill: rgb(255, 255, 255); }.b { fill: rgb(218, 37, 29); }</style></defs><path class="a" d="M302,603A301.00031,301.00031,0,0,1,89.16064,89.16064,301,301,0,1,1,514.83887,514.83887,299.0265,299.0265,0,0,1,302,603Z"/><path d="M302,2C467.68542,2,602,136.31459,602,302S467.68542,602,302,602,2,467.68542,2,302,136.31459,2,302,2m0-2A302.07909,302.07909,0,0,0,184.44733,580.26648,302.07766,302.07766,0,0,0,419.55267,23.7335,300.11081,300.11081,0,0,0,302,0Z"/><path class="b" d="M302,62a240.07656,240.07656,0,0,1,93.40341,461.16022A240.07514,240.07514,0,0,1,208.5966,80.8398,238.45013,238.45013,0,0,1,302,62m0-50C141.8374,12,12,141.8374,12,302S141.8374,592,302,592,592,462.1626,592,302,462.1626,12,302,12Z"/><path d="M188,367a17,17,0,1,1-17,17,17.01924,17.01924,0,0,1,17-17m0-14a31,31,0,1,0,31,31,31,31,0,0,0-31-31Z"/><path d="M401,367a17,17,0,1,1-17,17,17.01924,17.01924,0,0,1,17-17m0-14a31,31,0,1,0,31,31,31,31,0,0,0-31-31Z"/><path d="M217,300a10.00366,10.00366,0,0,1-10,10H152.69a10.00446,10.00446,0,0,1-8.33-15.55l15.19-22.77A14.99779,14.99779,0,0,1,172.03,265H207a10.00362,10.00362,0,0,1,10,10Zm16,52V269a15.00543,15.00543,0,0,0-15-15H160.3a10.01586,10.01586,0,0,0-8.28,4.38l-30.43,44.8a15.0168,15.0168,0,0,0-2.59,8.43V369a15.00547,15.00547,0,0,0,15,15h16.5a37.5,37.5,0,0,1,75,0H364a36.9727,36.9727,0,0,1,18.42-32Z"/><path d="M256,200H451a15,15,0,0,1,15,15V340a0,0,0,0,1,0,0H241a0,0,0,0,1,0,0V215A15,15,0,0,1,256,200Z"/><path d="M469,352v32H438a36.9727,36.9727,0,0,0-18.42-32Z"/></svg>