<svg xmlns="http://www.w3.org/2000/svg" width="604" height="604" viewBox="0 0 604 604"><defs><style>.a { fill: rgb(255, 255, 255); fill-rule: evenodd; }.b { fill: rgb(218, 37, 29); }.c { fill: rgb(0, 93, 162); }</style></defs><g><path class="a" d="M302,603A300.99962,300.99962,0,0,1,89.16113,89.16113,300.99962,300.99962,0,1,1,514.83887,514.83887,299.0265,299.0265,0,0,1,302,603Z"/><path d="M302,2A299.99973,299.99973,0,0,1,514.13184,514.13184,299.99973,299.99973,0,1,1,89.86816,89.86816,298.03491,298.03491,0,0,1,302,2m0-2A301.99976,301.99976,0,0,0,88.45393,515.54608,301.99976,301.99976,0,1,0,515.54608,88.45393,300.02142,300.02142,0,0,0,302,0Z"/></g><path class="b" d="M302,12C141.84,12,12,141.84,12,302S141.84,592,302,592,592,462.16,592,302,462.16,12,302,12Zm0,50a238.963,238.963,0,0,1,151.11,53.54L302,266.64,150.89,115.54A238.963,238.963,0,0,1,302,62ZM62,302a238.963,238.963,0,0,1,53.54-151.11L266.64,302,115.54,453.11A238.9631,238.9631,0,0,1,62,302ZM302,542a238.96269,238.96269,0,0,1-151.11-53.54L302,337.36l151.11,151.1A238.96269,238.96269,0,0,1,302,542Zm186.46-88.89L337.36,302l151.1-151.11a240.01464,240.01464,0,0,1,0,302.22Z"/><path class="c" d="M252.5,302,116.49,438.01a230.14251,230.14251,0,0,1,0-272.02Z"/><path class="c" d="M438.01,487.51a230.14269,230.14269,0,0,1-272.02,0L302,351.5Z"/><path class="c" d="M487.51,438.01,351.5,302,487.51,165.99A230.14251,230.14251,0,0,1,487.51,438.01Z"/><path class="c" d="M438.01,116.49,302,252.5,165.99,116.49A230.14251,230.14251,0,0,1,438.01,116.49Z"/></svg>