<svg xmlns="http://www.w3.org/2000/svg" width="604" height="604"><path d="M302 603A301 301 0 0 1 89.161 89.161 301 301 0 1 1 514.84 514.84 299.026 299.026 0 0 1 302 603z" style="fill:#fff;fill-rule:evenodd"/><path d="M302 2a300 300 0 0 1 212.132 512.132A300 300 0 1 1 89.868 89.868 298.035 298.035 0 0 1 302 2m0-2A302 302 0 0 0 88.454 515.546 302 302 0 1 0 515.546 88.454 300.021 300.021 0 0 0 302 0z"/><path d="M302 12C141.84 12 12 141.84 12 302s129.84 290 290 290 290-129.84 290-290S462.16 12 302 12zm93.4 511.16a240.015 240.015 0 0 1-279.88-372.29l337.61 337.61a239.182 239.182 0 0 1-57.73 34.68zm93.08-70.03L150.87 115.52a240.015 240.015 0 0 1 337.61 337.61z" style="fill:#da251d"/><path d="M438.01 487.51c-89.99 66.16-217.24 58.53-298.64-22.88-81.41-81.4-89.04-208.65-22.88-298.64zm26.62-348.14c-81.4-81.41-208.65-89.04-298.64-22.88l321.52 321.52c66.16-89.99 58.53-217.24-22.88-298.64z" style="fill:#005da2"/></svg>