<svg xmlns="http://www.w3.org/2000/svg" width="604" height="604" viewBox="0 0 604 604"><defs><style>.a { fill: none; }.b { fill: rgb(255, 255, 255); fill-rule: evenodd; }.c { fill: rgb(218, 37, 29); }.d { clip-path: url("#a"); }</style><clipPath id="a"><circle class="a" cx="302" cy="302" r="235"/></clipPath></defs><g><path class="b" d="M302,603A300.99962,300.99962,0,0,1,89.16113,89.16113,300.99962,300.99962,0,1,1,514.83887,514.83887,299.0265,299.0265,0,0,1,302,603Z"/><path d="M302,2A299.99973,299.99973,0,0,1,514.13184,514.13184,299.99973,299.99973,0,1,1,89.86816,89.86816,298.03491,298.03491,0,0,1,302,2m0-2A301.99976,301.99976,0,0,0,88.45393,515.54608,301.99976,301.99976,0,1,0,515.54608,88.45393,300.02142,300.02142,0,0,0,302,0Z"/></g><path class="c" d="M302,12C141.84,12,12,141.84,12,302S141.84,592,302,592,592,462.16,592,302,462.16,12,302,12Zm0,530C169.45,542,62,434.55,62,302S169.45,62,302,62,542,169.45,542,302,434.55,542,302,542Z"/><g class="d"><g><path d="M54,342h50.73A40.46256,40.46256,0,0,0,87,375.5q0,.75.03,1.5H54Z"/><path d="M54,203H193a10,10,0,0,1,10,10V332a0,0,0,0,1,0,0H54a0,0,0,0,1,0,0V203A0,0,0,0,1,54,203Z"/><path d="M127.5,359A16.5,16.5,0,1,1,111,375.5,16.51868,16.51868,0,0,1,127.5,359m0-17A33.5,33.5,0,1,0,161,375.5,33.5,33.5,0,0,0,127.5,342Z"/><path d="M290.86957,359.26087a16.5,16.5,0,1,1-16.5,16.5,16.51868,16.51868,0,0,1,16.5-16.5m0-17a33.5,33.5,0,1,0,33.5,33.5,33.5,33.5,0,0,0-33.5-33.5Z"/><path d="M264,342l-13,21H206v14H167.97q.03-.75.03-1.5A40.46256,40.46256,0,0,0,150.27,342Z"/><polygon points="426 342 413 363 331 363 318 342 426 342"/><rect x="257" y="276" width="228" height="56"/><path d="M453.30435,359.26087a16.5,16.5,0,1,1-16.5,16.5,16.51868,16.51868,0,0,1,16.5-16.5m0-17a33.5,33.5,0,1,0,33.5,33.5,33.5,33.5,0,0,0-33.5-33.5Z"/></g></g></svg>