<?xml version="1.0" encoding="UTF-8" standalone="no"?>
<svg
   inkscape:version="1.2.2 (732a01da63, 2022-12-09)"
   sodipodi:docname="UA_road_sign_3.40.svg"
   id="svg186"
   version="1.1"
   fill-rule="evenodd"
   height="605"
   width="605"
   xml:space="preserve"
   xmlns:inkscape="http://www.inkscape.org/namespaces/inkscape"
   xmlns:sodipodi="http://sodipodi.sourceforge.net/DTD/sodipodi-0.dtd"
   xmlns="http://www.w3.org/2000/svg"
   xmlns:svg="http://www.w3.org/2000/svg"
   xmlns:rdf="http://www.w3.org/1999/02/22-rdf-syntax-ns#"
   xmlns:cc="http://creativecommons.org/ns#"
   xmlns:dc="http://purl.org/dc/elements/1.1/"><metadata
     id="metadata192"><rdf:RDF><cc:Work
         rdf:about=""><dc:format>image/svg+xml</dc:format><dc:type
           rdf:resource="http://purl.org/dc/dcmitype/StillImage" /></cc:Work></rdf:RDF></metadata><defs
     id="defs190" /><sodipodi:namedview
     inkscape:current-layer="svg186"
     inkscape:window-maximized="1"
     inkscape:window-y="-9"
     inkscape:window-x="-9"
     inkscape:cy="448.28313"
     inkscape:cx="524.09036"
     inkscape:zoom="0.68595042"
     showgrid="false"
     id="namedview188"
     inkscape:window-height="991"
     inkscape:window-width="1920"
     inkscape:pageshadow="2"
     inkscape:pageopacity="0"
     guidetolerance="10"
     gridtolerance="10"
     objecttolerance="10"
     borderopacity="1"
     bordercolor="#666666"
     pagecolor="#ffffff"
     inkscape:showpageshadow="2"
     inkscape:pagecheckerboard="0"
     inkscape:deskcolor="#d1d1d1"
     showguides="false" /><circle
     id="circle178"
     stroke="none"
     fill="#000"
     r="301.5"
     cy="302.5"
     cx="302.5" /><circle
     id="circle180"
     stroke="none"
     fill="#fff"
     r="300"
     cy="302.5"
     cx="302.5"
     style="fill:#fff500;fill-opacity:1" /><circle
     id="circle182"
     stroke="none"
     fill="#da251d"
     r="290"
     cy="302.5"
     cx="302.5" /><circle
     id="circle184"
     stroke="none"
     fill="#fff"
     r="240"
     cy="302.5"
     cx="302.5"
     style="fill:#fff500;fill-opacity:1" /><path
     id="path118"
     style="opacity:1;fill:#000000;fill-opacity:1;stroke:none;stroke-width:26.7792;stroke-miterlimit:4;stroke-dasharray:none;stroke-opacity:1;paint-order:stroke fill markers"
     d="m 111.75495,285.94327 c -9.1719,0 -16.553998,7.38215 -16.553998,16.55382 0,9.17164 7.382098,16.55964 16.553998,16.55964 h 381.4904 c 9.1716,0 16.5537,-7.388 16.5537,-16.55964 0,-9.17167 -7.3821,-16.55382 -16.5537,-16.55382 z" /><path
     d="m 139.41213,254.18384 c 19.07098,0 29.07544,-14.3814 29.07544,-36.47455 0,-21.98894 -10.00446,-36.47455 -29.07544,-36.47455 h -29.17964 v 72.9491 z m -3.54324,-60.54775 c 13.65191,0 18.65414,8.54546 18.65414,24.0732 0,15.52774 -5.00223,24.0732 -18.65414,24.0732 h -11.67185 v -48.1464 z"
     style="font-weight:bold;font-size:104.213px;font-family:'Road UA';-inkscape-font-specification:'Road UA Bold';letter-spacing:-4.5459px;opacity:1;fill:#000000;stroke-width:2.05685;stroke-linecap:square;paint-order:stroke fill markers"
     id="path1653" /><path
     d="m 218.23679,254.18384 h 14.79824 l -25.21954,-72.9491 h -15.2151 l -25.21954,72.9491 h 14.79825 l 4.58537,-14.27718 h 26.88696 z m -27.72066,-25.94904 9.69181,-29.80492 9.5876,29.80492 z"
     style="font-weight:bold;font-size:104.213px;font-family:'Road UA';-inkscape-font-specification:'Road UA Bold';letter-spacing:-4.5459px;opacity:1;fill:#000000;stroke-width:2.05685;stroke-linecap:square;paint-order:stroke fill markers"
     id="path1655" /><path
     d="m 251.83282,205.93322 30.84705,48.25062 h 15.11088 v -72.9491 h -13.75611 v 48.25062 l -30.84705,-48.25062 h -15.1109 v 72.9491 h 13.75612 z"
     style="font-weight:bold;font-size:104.213px;font-family:'Road UA';-inkscape-font-specification:'Road UA Bold';letter-spacing:-4.5459px;opacity:1;fill:#000000;stroke-width:2.05685;stroke-linecap:square;paint-order:stroke fill markers"
     id="path1657" /><path
     d="m 367.75709,254.18384 v -40.01779 h -29.90913 v 11.255 h 16.25722 c -1.04212,11.15079 -6.56542,17.29936 -15.94459,17.29936 -11.46343,0 -17.29935,-8.64968 -17.29935,-24.90691 0,-16.56986 6.04435,-25.11533 17.612,-25.11533 7.81597,0 13.13084,3.85588 15.73616,11.56764 l 13.54769,-2.18847 c -3.64745,-13.96454 -14.3814,-21.78052 -29.5965,-21.78052 -20.11311,0 -31.36811,13.54769 -31.36811,37.51668 0,23.76057 11.15079,37.30825 30.74284,37.30825 8.44126,0 15.42352,-3.12639 20.32153,-10.10866 l 1.14634,9.17075 z"
     style="font-weight:bold;font-size:104.213px;font-family:'Road UA';-inkscape-font-specification:'Road UA Bold';letter-spacing:-4.5459px;opacity:1;fill:#000000;stroke-width:2.05685;stroke-linecap:square;paint-order:stroke fill markers"
     id="path1659" /><path
     d="M 428.65703,241.78249 H 392.70355 V 223.441 h 29.59649 v -12.40134 h -29.59649 v -17.40357 h 35.43241 v -12.40135 h -49.39697 v 72.9491 h 49.91803 z"
     style="font-weight:bold;font-size:104.213px;font-family:'Road UA';-inkscape-font-specification:'Road UA Bold';letter-spacing:-4.5459px;opacity:1;fill:#000000;stroke-width:2.05685;stroke-linecap:square;paint-order:stroke fill markers"
     id="path1661" /><path
     d="m 451.20647,226.25475 h 12.40135 l 15.2151,27.92909 h 15.94459 l -17.40357,-30.53441 c 9.06653,-3.02218 14.06875,-10.31709 14.06875,-20.21732 0,-13.44348 -9.37917,-22.19737 -23.65635,-22.19737 h -30.53441 v 72.9491 h 13.96455 z m 13.33927,-32.61866 c 8.44125,0 12.71399,3.54324 12.71399,10.52551 0,6.87806 -4.27274,10.4213 -12.71399,10.4213 h -13.33927 v -20.94681 z"
     style="font-weight:bold;font-size:104.213px;font-family:'Road UA';-inkscape-font-specification:'Road UA Bold';letter-spacing:-4.5459px;opacity:1;fill:#000000;stroke-width:2.05685;stroke-linecap:square;paint-order:stroke fill markers"
     id="path1663" /><path
     d="m 106.03555,374.94045 h 21.87675 v 22.95899 h 10.3586 v -54.1121 h -10.3586 v 21.95406 h -21.87675 v -21.95406 h -10.3586 v 54.1121 h 10.3586 z"
     style="font-weight:bold;font-size:77.303px;font-family:'Road UA';-inkscape-font-specification:'Road UA Bold';letter-spacing:-3.07522px;opacity:1;fill:#000000;stroke-width:1.52573;stroke-linecap:square;paint-order:stroke fill markers"
     id="path1625" /><path
     d="m 181.06536,388.70039 h -26.66953 v -13.60533 h 21.95405 V 365.896 h -21.95405 v -12.9096 h 26.28302 v -9.19906 h -36.64163 v 54.1121 h 37.02814 z"
     style="font-weight:bold;font-size:77.303px;font-family:'Road UA';-inkscape-font-specification:'Road UA Bold';letter-spacing:-3.07522px;opacity:1;fill:#000000;stroke-width:1.52573;stroke-linecap:square;paint-order:stroke fill markers"
     id="path1627" /><path
     d="m 186.83168,397.89944 h 20.94911 c 11.36354,0 18.70733,-6.64805 18.70733,-16.92935 0,-10.2813 -7.42109,-16.92936 -18.70733,-16.92936 H 197.19028 V 352.9864 h 24.50505 v -9.19906 h -34.86365 z m 19.55766,-24.65965 c 6.33884,0 9.58557,2.6283 9.58557,7.7303 0,5.102 -3.32403,7.7303 -9.66288,7.7303 h -9.12175 v -15.4606 z"
     style="font-weight:bold;font-size:77.303px;font-family:'Road UA';-inkscape-font-specification:'Road UA Bold';letter-spacing:-3.07522px;opacity:1;fill:#000000;stroke-width:1.52573;stroke-linecap:square;paint-order:stroke fill markers"
     id="path1629" /><path
     d="M 269.28258,388.70039 H 242.61304 V 375.09506 H 264.5671 V 365.896 h -21.95406 v -12.9096 h 26.28302 v -9.19906 h -36.64162 v 54.1121 h 37.02814 z"
     style="font-weight:bold;font-size:77.303px;font-family:'Road UA';-inkscape-font-specification:'Road UA Bold';letter-spacing:-3.07522px;opacity:1;fill:#000000;stroke-width:1.52573;stroke-linecap:square;paint-order:stroke fill markers"
     id="path1631" /><path
     d="m 294.99307,352.29067 c 5.72042,0 9.35366,2.70561 9.35366,6.95727 0,4.01976 -3.16942,6.49346 -8.19412,6.49346 h -7.18917 v 8.58063 h 7.18917 c 5.56582,0 9.12176,3.01482 9.12176,7.42109 0,4.71548 -3.78785,7.65299 -9.74018,7.65299 -5.79772,0 -10.12669,-2.7056 -10.97703,-6.95727 l -9.50826,1.54606 c 1.08224,8.81255 9.19905,14.61027 20.6399,14.61027 12.13657,0 20.02147,-6.49345 20.02147,-16.31093 0,-6.02964 -3.01481,-10.43591 -8.19411,-12.60039 4.56087,-2.24179 7.11187,-6.33885 7.11187,-11.59545 0,-9.04445 -7.8076,-14.99678 -19.24845,-14.99678 -11.05432,0 -18.55272,5.48851 -19.71226,13.91454 l 9.35366,1.23684 c 0.77303,-3.63324 4.63818,-5.95233 9.97209,-5.95233 z"
     style="font-weight:bold;font-size:77.303px;font-family:'Road UA';-inkscape-font-specification:'Road UA Bold';letter-spacing:-3.07522px;opacity:1;fill:#000000;stroke-width:1.52573;stroke-linecap:square;paint-order:stroke fill markers"
     id="path1633" /><path
     d="m 331.83519,352.9864 h 21.72215 v 44.91304 h 10.4359 v -54.1121 h -42.51665 v 54.1121 h 10.3586 z"
     style="font-weight:bold;font-size:77.303px;font-family:'Road UA';-inkscape-font-specification:'Road UA Bold';letter-spacing:-3.07522px;opacity:1;fill:#000000;stroke-width:1.52573;stroke-linecap:square;paint-order:stroke fill markers"
     id="path1635" /><path
     d="m 406.7877,388.70039 h -26.66954 v -13.60533 h 21.95406 V 365.896 h -21.95406 v -12.9096 h 26.28302 v -9.19906 h -36.64162 v 54.1121 h 37.02814 z"
     style="font-weight:bold;font-size:77.303px;font-family:'Road UA';-inkscape-font-specification:'Road UA Bold';letter-spacing:-3.07522px;opacity:1;fill:#000000;stroke-width:1.52573;stroke-linecap:square;paint-order:stroke fill markers"
     id="path1637" /><path
     d="m 412.55402,397.89944 h 10.3586 v -23.1909 h 6.18424 l 15.30599,23.1909 h 12.21388 l -18.93924,-27.82908 17.31587,-26.28302 h -12.21387 l -13.75994,21.72215 h -6.10693 v -21.72215 h -10.3586 z"
     style="font-weight:bold;font-size:77.303px;font-family:'Road UA';-inkscape-font-specification:'Road UA Bold';letter-spacing:-3.07522px;opacity:1;fill:#000000;stroke-width:1.52573;stroke-linecap:square;paint-order:stroke fill markers"
     id="path1639" /><path
     d="m 500.10691,397.89944 h 10.97703 l -18.70733,-54.1121 h -11.28624 l -18.70732,54.1121 h 10.97702 l 3.40133,-10.59051 h 19.94418 z m -20.5626,-19.24844 7.18918,-22.10866 7.11188,22.10866 z"
     style="font-weight:bold;font-size:77.303px;font-family:'Road UA';-inkscape-font-specification:'Road UA Bold';letter-spacing:-3.07522px;opacity:1;fill:#000000;stroke-width:1.52573;stroke-linecap:square;paint-order:stroke fill markers"
     id="path1641" /></svg>
