<svg xmlns="http://www.w3.org/2000/svg" width="604" height="604">
<title>4.10 Круговий рух</title>
<defs><style>.a{fill:#fff}</style></defs><path class="a" d="M302 603A301 301 0 0 1 89.16 89.16 301 301 0 1 1 514.84 514.84 299.026 299.026 0 0 1 302 603z"/><path d="M302 2c165.685 0 300 134.315 300 300S467.685 602 302 602 2 467.685 2 302 136.315 2 302 2m0-2a302.08 302.08 0 0 0-117.553 580.267A302.078 302.078 0 0 0 419.553 23.733 300.11 300.11 0 0 0 302 0z"/><circle cx="302" cy="302" r="280" style="fill:#005da2"/><path class="a" d="m365.21 464.02-83.11 37-75.12 33.45 5.62-53.5A200.035 200.035 0 0 1 102.13 309h60.04a139.806 139.806 0 0 0 57.35 106.13l5.56-52.92 105.74 76.82zM410.708 166.249l73.598 53.475 66.529 48.33-49.142 21.884a200.035 200.035 0 0 1-93.696 181.654l-30.02-51.996a139.806 139.806 0 0 0 63.236-102.731l-48.61 21.645 13.658-129.984zM130.082 275.732l9.512-90.476 8.591-81.78 43.522 31.616a200.035 200.035 0 0 1 204.166-9.685l-30.02 51.997a139.806 139.806 0 0 0-120.587-3.399l43.05 31.275-119.397 53.164z"/></svg>