<svg xmlns="http://www.w3.org/2000/svg" width="600" height="900" xmlns:v="https://vecta.io/nano"><rect x=".5" y=".5" width="599" height="899" rx="44.5" fill="#fff"/><path d="M555 1a44.05 44.05 0 0 1 44 44v810a44.05 44.05 0 0 1-44 44H45a44.05 44.05 0 0 1-44-44V45A44.05 44.05 0 0 1 45 1h510m0-1H45A45 45 0 0 0 0 45v810a45 45 0 0 0 45 45h510a45 45 0 0 0 45-45V45a45 45 0 0 0-45-45zm0 20a25.028 25.028 0 0 1 25 25v810a25.028 25.028 0 0 1-25 25H45a25.028 25.028 0 0 1-25-25V45a25.028 25.028 0 0 1 25-25h510m0-10H45a35 35 0 0 0-35 35v810a35 35 0 0 0 35 35h510a35 35 0 0 0 35-35V45a35 35 0 0 0-35-35zM411.5 390h35v110h-35zM120 352h360v18H120z"/><path d="M179 84h242v242H179z" fill="#fff"/><path d="M417,88V322H183V88H417m8-8H175V330H425V80Z"/><path d="M219.5 124.5h161v161h-161z" fill="#e6771d"/><path d="M379 126v158H221V126h158m3-3H218v164h164V123zm19.5 267h1v110h-1zm10 0h34v110h-34zm-257 0h34v110h-34z"/><circle cx="300" cy="674" r="140" fill="#005ca0"/><path d="M355 670h-38v112h-34V670h-38l55-110 55 110z" fill="#fff"/><path d="M401.5 390v110h-34v-45h-42.42a27 27 0 0 1-50.16 0H232.5v45h-34V390h34v45h42.42a27 27 0 0 1 50.16 0h42.42v-45z"/></svg>