<svg id="layer_1" data-name="layer 1" xmlns="http://www.w3.org/2000/svg" width="600" height="600" viewBox="0 0 600 600">
  <defs>
    <style>
      .cls-1, .cls-3 {
        fill: #fff;
      }

      .cls-1 {
        fill-rule: evenodd;
      }

      .cls-2 {
        fill: #005da2;
      }

      .cls-4 {
        fill: #060607;
      }

      .cls-5 {
        fill: #d92a22;
      }
    </style>
  </defs>
  <g id="base">
    <path class="cls-1" d="M300,599A298.99982,298.99982,0,0,1,88.5752,88.5752,298.99982,298.99982,0,1,1,511.4248,511.4248,297.0401,297.0401,0,0,1,300,599Z"/>
    <path d="M300,2A297.99972,297.99972,0,0,1,510.71762,510.71762,297.99971,297.99971,0,1,1,89.28239,89.28239,296.0472,296.0472,0,0,1,300,2m0-2A299.99973,299.99973,0,0,0,87.86816,512.13184,299.99973,299.99973,0,1,0,512.13184,87.86816,298.03491,298.03491,0,0,0,300,0Z"/>
  </g>
  <circle id="blue_circle" data-name="blue circle" class="cls-2" cx="300" cy="300" r="280"/>
  <g id="tire_icon" data-name="tire icon">
    <path id="tire_base" data-name="tire base" class="cls-3" d="M325.88516,80.82878c2.57631-.9332,5.529-2.47311,8.6549-3.01728a12.95126,12.95126,0,0,1,11.23132,2.953c1.3761,1.19051,3.78032,1.41073,5.76622,1.63548,5.02772.569,10.18332.41234,15.101,1.43978A79.46854,79.46854,0,0,1,382.43427,88.87c13.31082,5.88665,24.17072,15.14926,33.6483,26.03963a175.81853,175.81853,0,0,1,24.81719,37.58961,237.27409,237.27409,0,0,1,15.92724,40.049c3.24192,11.33133,6.16284,22.76134,8.92123,34.221a143.59345,143.59345,0,0,1,2.32783,15.00412c1.31219,10.03405,2.74735,20.06018,3.69939,30.13045.68938,7.29195.8078,14.64737.94922,21.97892.13426,6.9586.24789,13.93828-.13147,20.88127q-.89813,16.43833-2.51488,32.835c-.74278,7.63017-1.69828,15.26934-3.13382,22.79482-1.84058,9.64895-4.02859,19.24741-6.495,28.7566-2.25452,8.69239-4.83471,17.3203-7.73188,25.81963a169.9139,169.9139,0,0,1-7.87033,19.18856c-4.06656,8.39838-8.41356,16.68517-13.09854,24.75375a133.71648,133.71648,0,0,1-21.39607,27.73287c-8.4454,8.39206-17.88283,15.52942-28.90941,20.44886a66.42194,66.42194,0,0,1-30.31847,5.85617,7.088,7.088,0,0,0-5.58494,1.89276c-4.33492,3.9838-11.6131,4.46357-16.67892,1.13025-2.27686-1.49818-3.85612-1.71373-6.17481.13044-4.59207,3.65224-10.33257,4.36426-15.94761,4.701-5.9174.35482-11.87141.05322-17.807.16643a13.53575,13.53575,0,0,1-11.37016-5.11542c-.89039-1.09546-1.63848-1.56384-2.713-.44577-3.58569,3.73121-8.34593,4.2691-12.9908,4.11233-7.8525-.265-15.41978-2.23948-23.05768-4.19085-5.0004-1.27753-8.66323-4.65423-13.5152-5.93521-5.69964-1.50474-11.05733-4.2904-16.7464-5.85465a20.38446,20.38446,0,0,1-9.19407-4.89556c-5.9714-5.666-12.44965-10.80167-18.36144-16.52522-3.808-3.68676-6.99019-8.02226-10.43025-12.08614-6.631-7.83342-11.78139-16.63433-16.6325-25.62216a53.718,53.718,0,0,1-3.67771-7.57142c-1.36285-3.88964-3.90907-6.20933-7.60637-7.93094-8.23335-3.83375-10.37285-14.66814-5.34232-20.6885,1.90684-2.282.14225-4.56076-.3471-6.69417-1.35936-5.92637-3.368-11.71-4.602-17.65755q-3.65641-17.62239-6.68637-35.372c-.89007-5.26064-.96559-10.65691-1.46111-15.987-.64153-6.90078-1.33353-13.7969-2.00238-20.69517a2.555,2.555,0,0,1-.02514-.56391c.53085-4.1144-.65476-7.4199-3.43086-10.72222-4.25452-5.061-3.3922-12.0951,1.61173-17.40875a6.80949,6.80949,0,0,0,1.85968-4.72335c.55682-8.42616,1.18568-16.851,2.00131-25.25568.87949-9.06256,1.80826-18.12849,3.07513-27.14241.83374-5.93208,2.249-11.78641,3.50446-17.65407,1.19586-5.58914,2.43232-11.17294,3.82312-16.71586.90988-3.62625,2.2071-7.1545,3.15229-10.77326a4.19947,4.19947,0,0,0-.29916-3.14431c-6.5991-8.84342-.73356-20.56732,8.84783-22.85063,1.002-.23879,1.99266-1.69211,2.46647-2.80434A157.52966,157.52966,0,0,1,175.93545,118.646c6.1804-6.93617,13.72459-12.66211,20.69844-18.88368a55.13179,55.13179,0,0,1,7.70517-6.29529c1.98107-1.20344,4.60385-1.30814,6.88533-2.06792,5.48985-1.82824,10.952-3.74037,16.41312-5.65339a6.34654,6.34654,0,0,0,2.24212-1.14726c5.13453-4.8053,11.93185-5.00261,18.20453-6.61518a62.2126,62.2126,0,0,1,9.30043-1.89317c6.23007-.61331,12.37-.43524,17.51674,4.01463a2.26486,2.26486,0,0,0,2.13239.21759C284.21,73.342,293.06841,73.52317,302.06353,74.349c4.48034.41131,9.06288.53656,13.37961,1.64571C318.99912,76.90835,322.23161,79.08116,325.88516,80.82878Z"/>
    <path id="tire_icon_1" data-name="tire icon 1" class="cls-4" d="M325.88516,80.82878c2.57631-.9332,5.529-2.47311,8.6549-3.01728a12.95126,12.95126,0,0,1,11.23132,2.953c1.3761,1.19051,3.78032,1.41073,5.76622,1.63548,5.02772.569,10.18332.41234,15.101,1.43978A79.46854,79.46854,0,0,1,382.43427,88.87c13.31082,5.88665,24.17072,15.14926,33.6483,26.03963a175.81853,175.81853,0,0,1,24.81719,37.58961,237.27409,237.27409,0,0,1,15.92724,40.049c3.24192,11.33133,6.16284,22.76134,8.92123,34.221a143.59345,143.59345,0,0,1,2.32783,15.00412c1.31219,10.03405,2.74735,20.06018,3.69939,30.13045.68938,7.29195.8078,14.64737.94922,21.97892.13426,6.9586.24789,13.93828-.13147,20.88127q-.89813,16.43833-2.51488,32.835c-.74278,7.63017-1.69828,15.26934-3.13382,22.79482-1.84058,9.64895-4.02859,19.24741-6.495,28.7566-2.25452,8.69239-4.83471,17.3203-7.73188,25.81963a169.9139,169.9139,0,0,1-7.87033,19.18856c-4.06656,8.39838-8.41356,16.68517-13.09854,24.75375a133.71648,133.71648,0,0,1-21.39607,27.73287c-8.4454,8.39206-17.88283,15.52942-28.90941,20.44886a66.42194,66.42194,0,0,1-30.31847,5.85617,7.088,7.088,0,0,0-5.58494,1.89276c-4.33492,3.9838-11.6131,4.46357-16.67892,1.13025-2.27686-1.49818-3.85612-1.71373-6.17481.13044-4.59207,3.65224-10.33257,4.36426-15.94761,4.701-5.9174.35482-11.87141.05322-17.807.16643a13.53575,13.53575,0,0,1-11.37016-5.11542c-.89039-1.09546-1.63848-1.56384-2.713-.44577-3.58569,3.73121-8.34593,4.2691-12.9908,4.11233-7.8525-.265-15.41978-2.23948-23.05768-4.19085-5.0004-1.27753-8.66323-4.65423-13.5152-5.93521-5.69964-1.50474-11.05733-4.2904-16.7464-5.85465a20.38446,20.38446,0,0,1-9.19407-4.89556c-5.9714-5.666-12.44965-10.80167-18.36144-16.52522-3.808-3.68676-6.99019-8.02226-10.43025-12.08614-6.631-7.83342-11.78139-16.63433-16.6325-25.62216a53.718,53.718,0,0,1-3.67771-7.57142c-1.36285-3.88964-3.90907-6.20933-7.60637-7.93094-8.23335-3.83375-10.37285-14.66814-5.34232-20.6885,1.90684-2.282.14225-4.56076-.3471-6.69417-1.35936-5.92637-3.368-11.71-4.602-17.65755q-3.65641-17.62239-6.68637-35.372c-.89007-5.26064-.96559-10.65691-1.46111-15.987-.64153-6.90078-1.33353-13.7969-2.00238-20.69517a2.555,2.555,0,0,1-.02514-.56391c.53085-4.1144-.65476-7.4199-3.43086-10.72222-4.25452-5.061-3.3922-12.0951,1.61173-17.40875a6.80949,6.80949,0,0,0,1.85968-4.72335c.55682-8.42616,1.18568-16.851,2.00131-25.25568.87949-9.06256,1.80826-18.12849,3.07513-27.14241.83374-5.93208,2.249-11.78641,3.50446-17.65407,1.19586-5.58914,2.43232-11.17294,3.82312-16.71586.90988-3.62625,2.2071-7.1545,3.15229-10.77326a4.19947,4.19947,0,0,0-.29916-3.14431c-6.5991-8.84342-.73356-20.56732,8.84783-22.85063,1.002-.23879,1.99266-1.69211,2.46647-2.80434A157.52966,157.52966,0,0,1,175.93545,118.646c6.1804-6.93617,13.72459-12.66211,20.69844-18.88368a55.13179,55.13179,0,0,1,7.70517-6.29529c1.98107-1.20344,4.60385-1.30814,6.88533-2.06792,5.48985-1.82824,10.952-3.74037,16.41312-5.65339a6.34654,6.34654,0,0,0,2.24212-1.14726c5.13453-4.8053,11.93185-5.00261,18.20453-6.61518a62.2126,62.2126,0,0,1,9.30043-1.89317c6.23007-.61331,12.37-.43524,17.51674,4.01463a2.26486,2.26486,0,0,0,2.13239.21759C284.21,73.342,293.06841,73.52317,302.06353,74.349c4.48034.41131,9.06288.53656,13.37961,1.64571C318.99912,76.90835,322.23161,79.08116,325.88516,80.82878ZM303.09628,302.33121a340.13372,340.13372,0,0,0,5.49066,62.40793,262.57719,262.57719,0,0,0,13.56949,48.48843c9.51212,24.2959,18.18686,34.122,25.90741,41.21445,5.98743,5.50033,12.89731,9.4071,21.03482,10.38034,9.01563,1.07824,16.9307-2.21439,23.98889-7.5315,2.36329-1.7803,10.699-7.37707,21.47126-26.72909a182.4586,182.4586,0,0,0,13.96292-32.75742c8.22189-25.262,10.29022-46.32184,11.54349-59.86957,1.0542-11.39581,1.261-20.333,1.36956-25.43478a370.77343,370.77343,0,0,0-1.17392-39.32608c-1.23928-14.33182-3.04876-24.76033-3.48037-27.20332-1.26593-7.16518-2.52585-12.82811-3.74741-18.105-1.63016-7.042-3.08649-14.15836-5.30084-21.02223a223.58544,223.58544,0,0,0-8.84189-23.09641c-5.27228-11.71331-11.757-22.73472-21.208-31.69775-5.891-5.58675-12.71737-9.78323-20.75653-10.99625-10.06732-1.519-19.0029,1.82662-26.78958,8.24315-12.46408,10.27089-19.34787,23.87467-21.01166,27.42076a269.04326,269.04326,0,0,0-19.95062,61.23966A345.74429,345.74429,0,0,0,303.09628,302.33121Zm62.73459-207.556c.73076,1.22506,1.07934,1.87306,1.48631,2.48206,5.346,7.9993,10.26885,16.203,12.97008,25.55816a3.32864,3.32864,0,0,0,2.11132,1.94674c7.78728,1.595,14.47883,5.544,20.35522,10.5047,11.22935,9.47953,19.62407,21.30623,26.31055,34.3587a191.29333,191.29333,0,0,1,15.1874,39.04563c2.2967,8.82461,4.80837,17.61138,6.62917,26.53642,1.68064,8.238,2.78628,16.61284,3.74412,24.97337.95157,8.30573,1.6533,16.65753,2.02776,25.00869,1.15728,25.81166.03642,51.51963-4.577,76.98593-1.82691,10.08471-3.44959,20.28484-6.36882,30.07347a343.5009,343.5009,0,0,1-13.04284,36.13236,115.29656,115.29656,0,0,1-23.868,36.27117c-7.611,7.71469-16.20319,13.7987-26.97207,16.33038a3.1996,3.1996,0,0,0-1.66169,1.71878c-3.03465,6.46405-5.90276,13.00774-9.0178,19.432-1.38825,2.86311-3.22973,5.50649-4.86553,8.24962l.50524.74388c4.93843-2.00284,9.99266-3.763,14.79372-6.05373,14.73659-7.03121,25.968-18.21466,35.57713-31.10146a173.17723,173.17723,0,0,0,21.87663-38.88835c3.52592-8.75082,6.76555-17.63049,9.75813-26.57794,2.0621-6.16532,3.62569-12.51109,5.14342-18.84061,1.3022-5.43069,2.31779-10.936,3.29006-16.43845,1.33348-7.54678,2.6371-15.10366,3.69946-22.69179.64951-4.63963.95052-9.33955,1.18533-14.02357.66363-13.23826,1.62859-26.48091,1.67208-39.72449.03358-10.22285-1.034-20.45834-1.82505-30.67171-.52136-6.73215-1.16125-13.47616-2.217-20.14058q-1.95015-12.31033-4.72225-24.48643c-1.93837-8.51792-3.99571-17.03832-6.6201-25.36245-2.75815-8.74827-6.02757-17.35518-9.46958-25.86368a173.2008,173.2008,0,0,0-24.84318-42.70381,103.44861,103.44861,0,0,0-24.69052-22.78228A73.83635,73.83635,0,0,0,365.83087,94.7752ZM184.38814,333.30157c5.49075-3.5666,10.70143-2.7627,16.08575-.73863a90.93431,90.93431,0,0,0,13.572,4.23148c6.82564,1.40012,13.25809,3.06329,16.45272,10.07691,1.70856-1.23739,3.09939-2.61743,4.77343-3.35178,1.66081-.72842,1.924-1.75257,1.8193-3.26632-.37618-5.43929-.88817-10.87615-1.03987-16.32252-.32472-11.65838-.70821-23.32491-.578-34.98267.08486-7.59708,1.07106-15.182,1.54727-22.77908.06876-1.097-.09119-2.62655-.78312-3.2699a50.67123,50.67123,0,0,0-5.76488-4.118c-2.62967,5.76839-7.59357,8.038-13.4272,9.317-4.33128.94959-8.53648,2.47534-12.79621,3.74992-3.21523.962-6.38812,2.51539-9.65273,2.73824-3.37.23-6.82807-.83017-10.32433-1.337-.384,4.8389-3.36752,8.38533-7.87323,10.96512-4.44133,2.5429-8.90923,5.0738-13.13827,7.94467-5.621,3.8157-10.97743,8.073-18.43985,6.78743-.13644-.0235-.30912.16309-.51611.28082v7.80554c5.50173-1.66058,10.02019.35758,14.36488,3.11856,5.589,3.55179,11.11595,7.21007,16.81179,10.58235C180.25788,323.56157,183.762,327.13967,184.38814,333.30157ZM289.16193,341.321c-.39456-10.97042-.846-21.0065-1.085-31.04762-.16117-6.76969-.19886-13.55236.028-20.31853.26435-7.88537.81153-15.76384,1.38873-23.63411.13106-1.78672-.67971-2.15038-2.05083-2.24257-5.89085-.39605-11.7787-.99-17.67546-1.10231-5.93835-.11309-11.59189-.7328-15.47075-4.42047-3.22014,1.7394-6.06637,3.17083-8.78223,4.8173a3.41656,3.41656,0,0,0-1.37971,2.31356c-.45551,5.14071-.67667,10.30183-1.10571,15.44534-1.63188,19.563-.70362,39.07388.99313,58.5807.14064,1.617.7926,2.11481,2.13247,2.75487,2.70368,1.2915,5.22434,2.9661,8.14916,4.67473,3.68946-3.85471,9.15-4.24367,14.917-4.35615C275.92537,342.65493,282.61654,341.8318,289.16193,341.321Zm-131.068,73.83233c1.29163-5.00753,5.38582-7.66385,9.74-9.96273,5.47347-2.88982,11.11966-5.45937,16.53525-8.44971,4.28921-2.36839,8.51751-4.28145,13.56715-2.91639,1.38035.37314,2.01544-.32821,2.11759-1.80127a13.36362,13.36362,0,0,1,4.48587-9.04289c2.46856-2.30779,5.02194-4.53422,7.37-6.95912,2.96491-3.06191,5.75966-6.28864,9.00713-9.8616-3.35-.164-6.0987.03925-8.69421-.498a150.52245,150.52245,0,0,1-14.86609-3.82623c-5.582-1.76513-11.20421-3.78267-15.13092-8.42061-1.78185-2.10459-2.81587-4.84237-4.32432-7.53418-4.176,2.63324-9.03211,2.68736-13.70777.78168a82.47225,82.47225,0,0,1-24.2262-15.247c-1.35177-1.21906-2.66827-2.47725-4.24744-3.94669.28379,5.2343.3632,10.02728.8442,14.77963.69769,6.89316,1.606,13.76812,2.572,20.63007.95028,6.74991,1.76707,13.543,3.21505,20.19251,2.01588,9.25748,4.53083,18.40788,6.94341,27.57482a3.71168,3.71168,0,0,0,1.92471,2.094C153.299,413.65063,155.50621,414.27012,158.09388,415.15334Zm20.036-155.29532c.29761-.209.52769-.28429.58611-.42889a4.122,4.122,0,0,0,.27652-1.0768,11.9282,11.9282,0,0,1,7.6759-10.27776c10.77481-4.26932,21.47024-9.08476,33.64205-8.55021-.14968-.48783-.15424-.928-.37616-1.16256-3.67589-3.885-7.26259-7.86485-11.10832-11.57572-3.994-3.85389-8.37267-7.36127-8.99481-13.42784-.19672-1.9181-1.55885-1.56989-2.73549-1.39938-4.28539.621-8.08052-.5775-11.81889-2.63239-5.37259-2.95316-10.87136-5.68342-16.37505-8.3893-4.87939-2.399-9.30873-5.18217-10.95145-10.66023-2.09184.88051-4.18985,1.59243-6.1058,2.638a5.39053,5.39053,0,0,0-2.59963,2.61792c-1.57266,5.4278-2.971,10.91214-4.238,16.42094-1.69225,7.3576-3.39586,14.72178-4.7392,22.14744-1.0494,5.80079-1.64232,11.69021-2.28606,17.55694-.95879,8.73789-1.78362,17.49049-2.70663,26.64535a86.3063,86.3063,0,0,1,21.35361-15.85868C163.355,258.84777,170.41769,255.40643,178.12987,259.858Zm99.40183-91.67715c-2.89319,2.649-5.82181,4.06627-9.45218,3.84981-.62106-.037-1.59352.87987-1.91249,1.57988a83.7794,83.7794,0,0,0-3.57651,8.75436c-3.25938,10.02478-6.56476,20.04147-9.48438,30.16743-1.93381,6.70682-3.166,13.61312-4.856,20.39436-.737,2.95737.48439,4.62989,2.78039,6.28169,2.38477,1.71563,3.0732-.722,4.48772-1.36233.57686-.26111,1.04334-.767,1.62093-1.02555a33.55257,33.55257,0,0,1,16.67975-2.82676c6.62094.55056,13.21307,1.44767,19.88846,2.20229,1.10623-5.03269,2.04391-10.17545,3.388-15.20968,2.06055-7.71773,4.38487-15.36548,6.63436-23.032.546-1.861,1.26955-3.66928,1.85373-5.52.98107-3.1082-2.26333-2.68049-3.47179-3.7437-3.83921-3.37777-8.0496-6.3406-12.17595-9.38319C285.53883,176.0653,280.2633,173.85537,277.5317,168.18087ZM293.05785,369.0206c.4058.11466.13365-.04967-.11518-.01974-6.23287.7493-12.44463,1.82032-18.69893,2.20644-7.25407.44788-14.72644,1.0393-20.48807-4.99683a1.497,1.497,0,0,0-1.01224-.39182c-1.86222.046-4.95306,3.69307-4.58663,5.62243.99241,5.22542,1.91728,10.47836,3.25376,15.62036,2.0803,8.004,4.24592,16.00121,6.81052,23.85932,2.35754,7.22364,5.27133,14.26676,8.00735,21.36349a2.41928,2.41928,0,0,0,1.44358,1.16166c3.31478.998,6.65869,1.89932,10.28635,2.91536a26.92953,26.92953,0,0,1,2.62861-3.41746,31.19492,31.19492,0,0,1,4.00594-3.06278c7.13868-5.11018,14.28766-10.206,20.85468-14.89388C301.26929,399.48545,297.21491,384.44346,293.05785,369.0206Zm-12.23973,84.14913c-2.096,2.67348-2.1769,2.921-.91449,4.84707,7.27255,11.09584,15.14056,21.7541,25.572,30.09377,6.32882,5.05968,13.19039,9.46063,19.91255,14.00976.7394.50037,2.17469.19518,3.22487-.02889,2.972-.63416,5.892-1.8742,8.87-2.00208,2.35649-.10117,3.63146-.24285,3.91011-2.90045.138-1.31643,1.064-2.57943,1.74507-3.80463,2.67227-4.807,5.3093-9.63708,8.13348-14.3544.95308-1.592.50147-2.36853-.84881-3.13136-10.28735-5.81178-17.99432-14.36175-24.89617-23.707-2.67344-3.61986-4.97522-7.51426-7.35155-11.13906-4.83661,3.5676-9.28916,7.30075-14.1752,10.33629-5.4438,3.382-11.16808,6.75889-18.06662,4.47741A33.34642,33.34642,0,0,1,280.81812,453.16973Zm37.27109-288.51689c.44432-.62078.964-1.248,1.37721-1.93886,7.1777-12.002,15.69785-22.78453,27.22425-31.01225,1.78939-1.27727,5.42924-1.25448,5.02962-4.33549-.29049-2.23973-2.07253-4.29075-3.21013-6.41488-2.58422-4.82514-5.14763-9.66217-7.81765-14.43951a2.34736,2.34736,0,0,0-1.86778-1.07571c-3.75789.84639-6.96509-.52172-10.21964-2.07407a3.81866,3.81866,0,0,0-3.06726-.18057c-4.97554,3.09-10.03832,6.10454-14.67567,9.66139-12.26455,9.4069-22.0141,21.135-30.56524,33.94167-1.55987,2.33612-1.55928,3.95751.79189,5.688,3.08123-2.42536,6.519-4.16,10.5616-3.39677a35.76852,35.76852,0,0,1,14.42156,6.46861C310.07127,158.45214,313.95928,161.51285,318.08921,164.65284Zm-109.73029,242.495c-.05609,6.02736-3.45249,10.16623-8.12426,13.254-4.49067,2.96807-9.26788,5.50262-14.11991,8.34526,7.85446,2.06186,16.7562,1.74911,21.37992,10.23292,3.98157-4.28836,7.16783-4.76982,12.18607-4.79733,7.12348-.03907,14.25125.43051,21.37466.74067,5.22781.22763,10.10188,1.40562,13.73576,5.7784l4.92553-5.4194a290.39675,290.39675,0,0,1-16.3694-52.191c-1.336,1.56307-2.16527,2.5437-3.00568,3.51462-3.368,3.891-6.44874,8.08785-10.17619,11.5976C224.203,403.81785,218.06146,409.58089,208.35892,407.14782Zm.26733-208.59084c7.27329-2.14859,12.97234.81114,17.66565,5.25064,5.49784,5.20049,10.277,11.16014,15.38238,16.77735a13.24066,13.24066,0,0,0,1.37041,1.15859,8.4944,8.4944,0,0,0,.997-1.80591c2.26-8.42686,4.204-16.94975,6.78212-25.27677,2.41559-7.80207,5.516-15.391,8.23279-23.10274a2.80333,2.80333,0,0,0-.24612-2.36206,56.01792,56.01792,0,0,0-4.49224-4.03955c-2.98429,4.23712-7.72022,5.07418-12.87646,5.14238-6.11066.08083-12.2409.1761-18.31978.73315-5.79319.53086-11.23717.49041-15.73954-4.45261-4.54478,8.57709-13.14352,8.31824-20.87328,10.24521a18.81565,18.81565,0,0,0,3.37269,2.08856C198.07637,183.50357,207.20848,187.19356,208.62625,198.557Zm35.18529-56.68342.35343-.77993c-1.908-1.79277-3.924-3.48534-5.70149-5.39931-3.60705-3.8839-8.53859-6.47015-11.11313-11.377a2.381,2.381,0,0,0-1.53543-.99278c-2.94639-.52909-5.91461-.93543-8.87162-1.407-6.72338-1.07224-13.58744-1.7855-18.63482-7.48893A133.6707,133.6707,0,0,0,167.72754,151.574c.81871.13207.56965.87886,1.03334.75211,3.74859-1.0246,8.2752-2.68823,12.03616-3.66225,8.37279-2.16835,16.72458-3.72426,24.43965,2.34654,2.40111-3.79217,5.29193-6.79646,9.77406-7.4393,4.82076-.69139,9.66372-1.35371,14.51984-1.63723C234.27591,141.6568,239.05006,141.87356,243.81154,141.87356Zm-38.322,312.94892a69.54236,69.54236,0,0,1-6.88166,3.137c-7.07012,2.35944-13.87529.02609-20.68018-1.546-3.19228-.73752-6.30513-1.81888-9.454-2.74435l-.42355.63489A128.853,128.853,0,0,0,198.06651,490.868c1.12079-.76514,2.10185-1.59927,3.05768-2.31812a30.49577,30.49577,0,0,1,2.90631-1.62616c2.31483-1.121,8.31187-2.82351,16.48105-4.04263A14.1855,14.1855,0,0,0,227.404,480.79c2.47328-1.57447,1.93483-2.65662,5.02868-5.631,3.5132-3.37756,7.17954-6.59545,10.75211-9.91217a3.51422,3.51422,0,0,0,.66811-1.06323c-7.55492-.41214-15.049-.56573-22.48481-1.30514C215.10536,462.25571,208.99424,460.7875,205.48951,454.82248Zm43.6923-348.20359-.01681.86121c.773.65721,1.5602,1.29855,2.31664,1.97429,3.98637,3.561,8.34221,6.79687,11.86125,10.77273,5.84139,6.59974,11.77625,13.48885,6.92249,23.2337,1.99059,1.8775,2.9744,1.04992,4.27828-.765,4.57888-6.37352,9.1964-12.73844,14.16118-18.8107a103.85322,103.85322,0,0,1,21.54076-19.61234,6.13133,6.13133,0,0,0-1.27673-.42551c-6.37076-.33332-12.74148-.67248-19.11473-.953-4.81731-.212-9.08058-1.64459-12.55969-5.54925-4.74771,6.0277-11.53971,7.04266-18.53039,7.71621C255.54979,105.37092,252.37468,106.08706,249.18181,106.61889ZM309.52709,501.832c-7.01237-6.72044-14.47886-13.18114-21.08514-20.42625-5.32856-5.84367-9.6845-12.58679-14.33136-19.0322-1.48346-2.05765-2.54565-1.71464-3.98757-.03034,3.30537,5.05364,1.976,9.90861-.555,14.63194-3.75863,7.01416-9.74546,12.03139-15.63726,17.11648-1.65007,1.42411-3.32137,2.82362-5.328,4.52741,2.44609.53168,4.24339,1.01207,6.071,1.30128,4.06885.64388,8.14547,1.25084,12.23261,1.76357,4.42873.5556,7.7573,2.90584,10.44795,6.61589,3.59924-4.4344,8.03607-5.77315,13.19686-5.45368a74.49751,74.49751,0,0,0,9.04106.00007C303.10936,502.6353,306.60952,502.14093,309.52709,501.832Zm-75.38-46.22645.117-.85067c2.53557,0,5.08472.16557,7.60339-.04084a5.34009,5.34009,0,0,0,5.2134-5.79314c-.15594-2.60682-2.23231-4.18657-5.48177-4.3918-6.62647-.41857-13.24353-.9945-19.87254-1.35892-2.42458-.13326-5.05062-.0333-6.50623,2.36826-1.704,2.81137-.31608,6.36869,3.2886,7.27534C223.63163,454.10224,228.926,454.70806,234.14706,455.60557Zm7.55321-356.31752c.09312-.0124.187-.02057.27925-.03782,7.79111-1.45837,15.62093-2.74932,23.33678-4.53329,1.36986-.31672,2.96181-2.59055,3.16919-4.133.17943-1.33458-1.13849-3.36-2.38594-4.26332a8.22528,8.22528,0,0,0-5.06041-1.29906,69.19542,69.19542,0,0,0-21.47095,4.66057,4.32428,4.32428,0,0,0-2.88154,5.31014C237.24706,98.026,238.93289,99.34561,241.70027,99.28805Zm-50.56253,56.43718a45.95271,45.95271,0,0,0-8.10863,1.3463,83.90031,83.90031,0,0,0-13.70776,4.74132c-2.68936,1.24586-3.724,3.6226-2.77445,6.1882,1.0421,2.81564,3.23218,3.91734,6.239,3.15244,7.02952-1.7883,14.08422-3.4845,21.07677-5.40685,2.19512-.60347,4.0029-1.99106,4.24594-4.62645a4.68263,4.68263,0,0,0-.5041-2.64725,5.22362,5.22362,0,0,0-2.95227-2.299A7.90224,7.90224,0,0,0,191.13774,155.72523Zm1.29934,294.17144c3.14936.04992,5.3584-1.74018,5.67052-4.5951.34145-3.12314-1.159-4.66815-4.62863-5.44827-5.25549-1.18176-10.45459-2.61447-15.67656-3.945-1.97559-.50338-3.92418-1.16815-5.92834-1.48953a4.67182,4.67182,0,0,0-5.12841,2.62793c-1.155,2.05087-.44574,3.62772,1.0523,4.99936a14.86078,14.86078,0,0,0,3.55677,2.66312C174.01632,446.005,181.80453,448.09228,192.43708,449.89667Zm22.54741-93.03485c3.138.51779,5.14586-1.81254,5.71752-4.55146.49508-2.37207-1.37592-4.64126-4.24472-5.387-2.06714-.53739-4.17342-.94745-6.20473-1.59476-4.94685-1.57645-9.88058-3.2-14.778-4.923-2.24939-.79136-3.84329.0711-5.20309,1.65432a3.95564,3.95564,0,0,0,.06216,5.60089,11.24437,11.24437,0,0,0,3.11011,2.79218C195.9846,351.91052,203.97975,354.44491,214.98449,356.86182ZM235.4182,230.22614a17.54246,17.54246,0,0,0-.771-3.194c-4.1084-8.11672-10.86053-13.73788-18.14256-18.77216-.82939-.57341-2.66105-.31888-3.727.18654-3.40231,1.61321-3.877,5.66565-1.20126,8.439q7.51794,7.79226,15.008,15.61137a5.20117,5.20117,0,0,0,5.97723,1.18516C233.89031,233.11168,234.64954,231.21484,235.4182,230.22614ZM173.66539,423.20705a24.17194,24.17194,0,0,0,4.49528-1.31764c6.02-3.091,12.05573-6.173,17.89486-9.585,2.56377-1.49812,2.8025-4.33389,1.23788-6.58334-2.05224-2.95054-3.86029-3.39368-6.89593-1.72841-4.05719,2.22568-8.08777,4.50436-12.20216,6.61948-2.38848,1.2279-5.004,2.02265-7.36153,3.29991a4.83021,4.83021,0,0,0-2.50179,6.19338C169.14165,422.30533,171.13267,423.28681,173.66539,423.20705Zm-28.9869-102.19243c-.03416,1.7659,1.24077,3.0834,2.3852,4.1997a78.94157,78.94157,0,0,0,20.16974,12.82352c2.28784,1.01651,4.4387.0477,5.81689-2.07269,1.93036-2.96991,1.11836-5.32389-2.28383-7.38578-4.78714-2.90127-9.51333-5.9031-14.30241-8.80114a33.49633,33.49633,0,0,0-5.85616-3.123,3.76789,3.76789,0,0,0-2.139-.19583A5.0364,5.0364,0,0,0,144.67849,321.01462ZM262.39733,470.81851a13.23832,13.23832,0,0,0-1.018-2.87543c-1.94292-3.01318-5.62041-3.06585-8.39441-.33829-4.39409,4.3206-8.88823,8.53938-13.28478,12.85749a10.355,10.355,0,0,0-2.75,3.50382,8.42924,8.42924,0,0,0-.15106,4.69409,3.17,3.17,0,0,0,4.03838,2.20172,16.71959,16.71959,0,0,0,4.87692-1.83965c6.44829-3.93713,11.09195-9.74911,15.67273-15.5876A9.96116,9.96116,0,0,0,262.39733,470.81851ZM298.26788,82.83122c-2.79083.341-5.58121.73706-8.38364,1.0098-3.21071.31248-4.86865,1.98421-4.82922,5.03772a4.81151,4.81151,0,0,0,5.17393,5.00679c4.708.02314,9.42021-.1105,14.1228.05073,2.6965.09245,5.37039.81256,8.06768.92094a4.19606,4.19606,0,0,0,4.58458-3.30835c.5227-2.29594.3037-4.32927-2.28832-5.67843C309.50238,83.15687,303.82066,83.65172,298.26788,82.83122Zm-10.86652,171.635c3.48249.4462,5.19029-.63086,5.71955-3.16072.57614-2.75394-.59477-4.83884-3.72638-6.0776a15.72318,15.72318,0,0,0-5.11856-1.25011c-6.07-.19834-12.14814-.24029-18.22191-.18852-3.252.0277-4.88215,1.76126-4.92323,4.7746-.04252,3.11937,1.72335,5.13667,4.94409,5.26552C273.18086,254.11365,280.29221,254.26229,287.40136,254.46625ZM213.211,248.63509c-4.16642,1.17134-8.8441,2.35906-13.43145,3.82878a48.94129,48.94129,0,0,0-6.83936,3.06585c-3.68254,1.84433-4.56255,3.9888-3.072,7.12933,1.39285,2.93475,4.004,3.58171,7.65041,1.936a72.44285,72.44285,0,0,1,18.82219-5.69536c2.18344-.33647,4.46793-2.6041,4.476-4.80609a4.45183,4.45183,0,0,0-3.42843-4.57008C216.232,249.18551,215.02705,249.014,213.211,248.63509Zm-45.084-61.00923c.01841,2.00638.9731,3.34671,3.22431,4.37018,4.30624,1.95777,8.67584,3.78337,12.92456,5.85757,2.4095,1.17627,4.57261,2.84949,6.95438,4.0926,2.35231,1.22774,4.27661.22984,5.91293-1.611,1.54065-1.73317,1.18633-3.44427-.07-5.0695a17.41768,17.41768,0,0,0-3.00417-3.27248,60.01018,60.01018,0,0,0-18.98966-9.29924C171.25243,181.50327,168.09087,183.68987,168.127,187.62586ZM262.86808,521.129c3.003-.492,5.15015-2.17,5.54441-4.82093.44369-2.98309-.63849-4.7471-3.69541-5.60452-1.51681-.42544-3.1351-.47711-4.697-.7565q-4.92215-.88032-9.83195-1.829a79.9357,79.9357,0,0,0-8.187-1.61761c-2.38225-.20893-4.6133.3797-5.26314,3.40085-.6058,2.81637,1.26537,5.94821,5.12059,6.87307C248.88334,518.433,261.75792,521.28827,262.86808,521.129Zm87.2279-21.34469c-.13886,5.01326,3.45975,7.39826,6.60077,5.345a16.79847,16.79847,0,0,0,5.31572-5.22256c3.07638-5.27613,5.73312-10.8015,8.45185-16.27969a4.84492,4.84492,0,0,0-1.9287-6.58841c-2.66047-1.595-4.73051-1.10088-6.68161,1.682a31.76378,31.76378,0,0,0-1.656,2.89507q-3.10273,5.60074-6.199,11.205C352.52944,495.4654,351.041,498.0995,350.096,499.78434Zm5.056-400.89925c-1.80641,1.33889-3.75755,2.1093-4.46212,3.50773a6.13369,6.13369,0,0,0,.30719,4.81088c3.2666,6.44859,6.838,12.74215,10.25557,19.11523a5.26028,5.26028,0,0,0,6.92,2.40181,4.91571,4.91571,0,0,0,2.555-6.34709c-3.16808-7.13022-6.16107-14.37887-11.37835-20.34645C358.34615,100.8799,356.86947,100.14673,355.15194,98.88509ZM240.09348,114.80714a7.16514,7.16514,0,0,0-2.23549.89993c-2.49377,1.95082-2.60053,4.88172-.13194,7.30757,5.41162,5.318,10.91934,10.53894,16.43083,15.754a4.87391,4.87391,0,0,0,6.4036-.08806,5.22368,5.22368,0,0,0,.4896-7.1287,124.76945,124.76945,0,0,0-10.051-11.01575C248.11512,117.89177,245.071,115.01181,240.09348,114.80714Zm-71.31243,152.8263a31.48841,31.48841,0,0,0-3.77681.89391c-7.06223,2.58646-12.80327,7.26416-18.51493,11.94526a5.073,5.073,0,0,0-.40758,6.85751c2.12211,2.46991,4.47069,2.65608,7.19865.8679,5.92487-3.88387,11.90524-7.68415,17.89993-11.45982,2.01768-1.27079,3.31066-3.02217,2.76-5.32924C173.35456,268.9545,171.77916,267.21707,168.78105,267.63344Zm96.77331,84.32525c-3.17713.39023-4.61159,2.14515-4.43131,5.30744.12843,2.25266,2.67034,4.25584,5.51292,4.6565,7.53573,1.06225,14.94774-.14707,22.36246-1.134,3.32151-.44211,4.64743-2.77105,4.07378-6.459-.434-2.79014-2.24455-3.90583-5.63414-3.55425Zm-32.4437-201.68393c-4.94192.78256-10.238,1.42331-15.43443,2.53142-2.42686.51751-3.39558,3.28274-2.7447,5.9969a4.89254,4.89254,0,0,0,5.02556,3.64652c7.39484-.49112,14.78883-1.00987,22.19-1.38307,2.63049-.13265,4.3-1.28222,4.87466-3.77337a4.13125,4.13125,0,0,0-3.278-5.3097C240.416,151.18308,236.97092,150.87021,233.11066,150.27476Zm59.11081,8.2002a5.01318,5.01318,0,0,0-4.98327,3.89543c-.59791,2.07021-.46144,4.33591,1.91472,5.628a36.1681,36.1681,0,0,1,3.86779,2.243q7.39274,5.304,14.69407,10.73471c2.27275,1.69607,4.3431.98993,6.0527-.61746a3.98073,3.98073,0,0,0,.46993-5.60229c-.85385-1.20793-1.467-2.734-2.593-3.57585-4.75421-3.55474-9.62227-6.96248-14.53415-10.29811A37.71838,37.71838,0,0,0,292.22147,158.475Zm-78.14275,239.322c1.87523.25,3.46129-1.11633,4.1898-1.74081,12.10957-10.38025,13.192-12.57593,16.41306-16.79037,1.83291-2.39817.7998-5.58847-1.68579-7.08713a5.436,5.436,0,0,0-6.99335,1.75595,26.8418,26.8418,0,0,1-2.44875,3.06854c-4.05053,4.04706-8.11366,8.08383-12.26616,12.02542a4.739,4.739,0,0,0-1.44441,2.45883,4.98827,4.98827,0,0,0,.51083,3.21506C210.4497,394.89844,211.75886,397.48767,214.07872,397.79693Zm83.03,113.877c-3.39131.26087-5.05133.10949-7.28925.29894-2.25407.1908-4.20668,1.21043-4.70678,3.64675-.55142,2.68639.67875,4.83454,3.2769,5.33867a56.22808,56.22808,0,0,0,11.32782.6939c4.185-.04639,8.35955-.43945,12.54979-.7426,3.34263-.24185,4.95834-1.894,4.90846-5.47045-.039-2.79912-1.85663-4.62037-4.86905-4.45973Zm13.41848-87.29348a8.72466,8.72466,0,0,0-5.262,1.85471s-7.42089,5.31368-11.13122,7.971c-1.81456,1.29958-3.75827,2.44588-5.43847,3.89872a4.82858,4.82858,0,0,0-1.264,5.8983c.93129,2.11136,2.94721,2.43194,5.0177,2.24853a8.86248,8.86248,0,0,0,2.74423-.573c7.22578-3.16532,13.27834-8.04511,18.73043-13.5973,1.0509-1.07015,1.16791-3.78764.66588-5.42285C314.26088,425.32609,312.32074,424.38043,310.52719,424.38043ZM213.95385,101.36655a6.45507,6.45507,0,0,0-3.77992.22041,5.90589,5.90589,0,0,0-3.83652,4.48307,4.791,4.791,0,0,0,.94561,3.57262,4.27067,4.27067,0,0,0,2.28315,1.34c4.43084,1.09188,8.8919,2.11345,13.39122,2.856a4.69932,4.69932,0,0,0,5.58693-3.93418,5.21627,5.21627,0,0,0-3.50657-5.923C221.40056,102.91411,217.65379,102.2201,213.95385,101.36655ZM212,503.97827c3.36826.74216,6.90006-.47437,13.96363-2.90738a4.16307,4.16307,0,0,0,1.57676-.94217,4.69241,4.69241,0,0,0,1.16963-4.31015c-.47058-2.36645-1.98281-4.31232-4.95172-3.8728-4.41343.65332-8.88382,1.08539-13.21031,2.11459-2.74194.65225-4.26843,5.1604-3.21629,7.43006C208.08513,503.11566,210.1692,503.57486,212,503.97827Zm-57.8298-324.76635c.5138-3.60841-2.27285-5.67184-5.32878-5.65693-3.54308.01726-5.73683,2.155-5.716,5.45059a5.6756,5.6756,0,0,0,5.918,5.71393A5.46851,5.46851,0,0,0,154.17021,179.21192Zm-.00443,247.41518c.01272-3.44994-2.10125-5.70295-5.35321-5.70533a5.7557,5.7557,0,0,0-5.6994,5.6101c-.00254,3.24595,2.24377,5.33881,5.75334,5.36038C152.4198,431.9141,154.15263,430.19243,154.16578,426.6271Zm107.942-268.70386a5.21191,5.21191,0,0,0,5.5449,5.67439,5.39031,5.39031,0,0,0,5.46626-5.82208,5.16419,5.16419,0,0,0-5.60113-5.28019C264.06635,152.55539,262.08374,154.54457,262.1078,157.92324ZM124.967,302.80217a5.19186,5.19186,0,0,0,5.37049,5.47291c3.91751-.13051,5.44517-2.50115,5.75413-5.578.28259-2.81444-2.91463-5.474-5.9882-5.40753A5.41019,5.41019,0,0,0,124.967,302.80217ZM331.058,514.09132c-.00756,3.42184,2.07884,5.6772,5.22149,5.64431a5.67332,5.67332,0,0,0,5.75313-5.68991,5.1998,5.1998,0,0,0-5.4087-5.26135C332.74915,508.75575,331.06627,510.36035,331.058,514.09132Zm.01746-422.53346c.04767,3.76722,1.71229,5.38192,5.51571,5.35031a5.38072,5.38072,0,0,0,5.4341-5.47784,5.84034,5.84034,0,0,0-5.54141-5.55055C333.09244,85.85926,331.03078,88.02372,331.07548,91.55786ZM241.95475,254.905c3.56323-.003,5.47686-1.97109,5.42831-5.5827a5.39725,5.39725,0,0,0-5.35784-5.35065,5.97881,5.97881,0,0,0-5.81654,5.68657A5.51888,5.51888,0,0,0,241.95475,254.905Zm25.71989,198.01888c3.57728-.00891,5.39182-1.7418,5.407-5.16375.01507-3.38643-2.243-5.83352-5.355-5.80328a5.51,5.51,0,0,0-5.59721,5.91076C262.15481,451.18525,264.07139,452.93288,267.67464,452.92391Zm-20.26717-96.74282c.04017-3.37611-1.98612-5.62463-5.23736-5.62329-3.99175.00166-5.64765,2.2857-5.92417,5.4299-.24991,2.84171,2.73615,5.47159,5.68419,5.42942A5.30709,5.30709,0,0,0,247.40747,356.18109Z"/>
    <path id="tire_icon_2" data-name="tire icon 2" class="cls-4" d="M437.52173,299.97827c.111,12.8841-.63046,22.77847-1.19513,30.31391-.5303,7.07687-1.00418,13.492-2.33786,22.11792-1.18372,7.656-2.7,15.28924-4.60236,22.79779a240.92028,240.92028,0,0,1-7.38009,24.77877c-5.98392,16.106-13.56864,31.35089-27.14212,42.67508-7.59906,6.33979-16.43149,9.01737-26.14438,7.12381-6.28662-1.22558-11.67438-4.731-16.58972-8.91485-7.99558-6.80588-13.72242-15.34934-18.66611-24.41754a140.94288,140.94288,0,0,1-12.36368-29.99079c-.39767-1.44317-4.062-12.674-6.69492-25.67908-6.23483-30.79608-5.49084-63.80032-4.98587-76.57772a266.00764,266.00764,0,0,1,5.83671-43.45392,215.98477,215.98477,0,0,1,7.26242-26.01152,248.21051,248.21051,0,0,1,12.8464-28.65857c5.75958-10.977,13.40814-20.58481,24.54758-26.75875,11.967-6.63262,23.49609-5.02014,34.22574,3.15348,11.30667,8.61316,18.34982,20.44862,23.74472,33.13382a216.98734,216.98734,0,0,1,10.91607,32.1597,268.61992,268.61992,0,0,1,6.19675,35.60192A312.81285,312.81285,0,0,1,437.52173,299.97827Zm-99.428-88.13237a18.15856,18.15856,0,0,1,9.1293,1.76837,17.39262,17.39262,0,0,1,3.449,2.24179,50.75015,50.75015,0,0,1,3.46966,4.07526c4.89215,6.40161,7.70533,13.36548,10.83414,25.99976a210.70159,210.70159,0,0,1,4.3522,23.40129c1.26035,9.67746,2.25675,19.4223,2.66111,29.16732a168.77616,168.77616,0,0,1-.92069,21.68641c-.76334,8.68533-1.58621,17.40359-3.1416,25.96991a201.21775,201.21775,0,0,1-5.93106,23.2261c-2.1225,6.8833-5.20026,13.38483-10.2244,18.80005-5.30633,5.71936-11.94607,7.18491-18.12231,3.25629-2.7067-1.72168-4.82456-4.36905-7.42859-6.80042a8.81728,8.81728,0,0,0,.18057,2.25977c1.91083,5.114,3.70075,10.28473,5.87943,15.28485,5.59408,12.83877,12.08294,25.17941,23.03756,34.37793,11.9596,10.04242,24.41706,9.94754,36.35926.21112,9.89047-8.06366,16.4371-18.69815,21.25528-30.25492A285.645,285.645,0,0,0,423.04477,377.381a246.7034,246.7034,0,0,0,5.86249-25.60324c1.17276-6.44266,1.47571-13.04318,2.17587-19.57236a236.692,236.692,0,0,0,1.33932-40.53149c-.508-7.87872-.77169-15.78741-1.66772-23.62286-.86874-7.59708-2.27957-15.14135-3.68759-22.6648-1.21372-6.48547-2.42948-13.00232-4.22714-19.33995-3.47324-12.245-7.73084-24.25186-13.97-35.39642-5.46173-9.75577-11.68057-18.89824-21.5574-24.99736-9.74829-6.01975-21.57162-4.73987-30.38748,1.93231-6.50833,4.92578-11.37009,11.22446-15.54315,18.012-3.0329,4.933-4.87348,8.90964-8.17182,16.32936-3.61328,8.12821-6.23507,15.058-8.002,20.033l.57266.278a20.19336,20.19336,0,0,1,6.43121-7.56317A19.87435,19.87435,0,0,1,338.09369,211.8459Zm.04578,9.90946c1.87758,3.00053,3.68945,5.56287,5.1585,8.30862A80.16392,80.16392,0,0,1,351.2512,252.627c1.2524,6.40165,2.80775,12.759,3.71761,19.20815.79749,5.6524.63758,11.43529,1.33293,17.10754,1.8257,14.89368-.254,29.64481-1.31491,44.434a60.45064,60.45064,0,0,1-1.20463,7.46152c-.822,4.11351-1.57436,8.25293-2.66813,12.297a125.69714,125.69714,0,0,1-4.70721,15.06525c-2.20213,5.35386-5.12947,10.4094-7.68152,15.47691,3.4311-.131,7.80965-4.59831,10.33181-8.68375,7.20545-11.67133,9.80071-24.87056,11.95987-38.117,1.18941-7.29691,1.45387-14.73952,2.36063-22.08866,2.03694-16.50994.01971-32.83357-2.52351-49.0611-1.17339-7.487-3.55662-14.82254-5.84108-22.08528a43.46976,43.46976,0,0,0-8.852-16.362C344.04061,224.9279,341.86837,222.4767,338.13947,221.75536Z"/>
  </g>
  <path id="red_rectangle" data-name="red rectangle" class="cls-5" d="M517.42016,123.54316,123.54323,517.42022A282.86762,282.86762,0,0,1,82.5798,476.4568L476.45673,82.57974a282.87966,282.87966,0,0,1,40.96343,40.96342Z"/>
</svg>
