<svg xmlns="http://www.w3.org/2000/svg" width="600" height="600" viewBox="0 0 600 600">
  <g>
    <g>
      <path d="M300.11-.22c-165.69,0-300,134.31-300,300s134.31,300,300,300,300-134.32,300-300S465.79-.22,300.11-.22Z" transform="translate(-0.11 0.22)" style="fill: #fff"/>
      <path d="M300.1,16.91c-156.2,0-282.85,126.65-282.85,282.88S143.9,582.63,300.1,582.63,583,456,583,299.79,456.32,16.91,300.1,16.91Z" transform="translate(-0.11 0.22)" style="fill: #005ca1"/>
      <path d="M300.11.63C134.89.63,1,134.56,1,299.78S134.89,598.92,300.11,598.92,599.25,465,599.25,299.78,465.32.63,300.11.63Z" transform="translate(-0.11 0.22)" style="fill: none;stroke: #000;stroke-miterlimit: 12.307692527770996;stroke-width: 1.7142861012574144px"/>
    </g>
    <path d="M253.15,352.08h23.44a4.68,4.68,0,1,1,0,9.35H254.05a7.64,7.64,0,0,0-7.64,7.62,6.47,6.47,0,0,0,4.36,6.1,15.71,15.71,0,0,1,10.1,19.07h80.45l2.75-6.45H323.41a7,7,0,0,1,0-14h32.22a7,7,0,1,1,0,14H353l-4.22,9.92,17.61,25.15a46.84,46.84,0,1,1-26.14,48.68H312.8l-64.66-49.45-3.72,8a46.83,46.83,0,1,1-7.74-5.58l14.12-30.26.67-1.39a6.57,6.57,0,0,0,.59-2.73,6.45,6.45,0,0,0-4.34-6.1,15.8,15.8,0,0,1-10.66-14.95,17,17,0,0,1,16.09-17Zm4.34,52.68-4.76,7.51,61,46.65,23.11-54.16Zm88,6.6L324.3,461H340a46.8,46.8,0,0,1,17.48-32.51ZM212.31,425.27a39.81,39.81,0,1,0,29,11.48l-9,19.22a16.94,16.94,0,0,1-6.89,7.52l-9.77,5.65A4.68,4.68,0,1,1,211,461l9.77-5.65a7.57,7.57,0,0,0,3.1-3.38l9.85-21.13a39.63,39.63,0,0,0-20.36-5.6Zm174.34,0a39.67,39.67,0,0,0-16.17,3.42l22.89,32.69a6.44,6.44,0,0,1-5.28,10.14H347.37a39.82,39.82,0,1,0,39.28-46.25Zm-25.15,9A39.81,39.81,0,0,0,347.05,461h33.18Z" transform="translate(-0.11 0.22)" style="fill: #fff"/>
  </g>
  <g>
    <path d="M164.18,236.05A35.84,35.84,0,1,0,200,271.89,35.84,35.84,0,0,0,164.18,236.05Zm0,54.87a19,19,0,1,1,19-19A19,19,0,0,1,164.18,290.92Z" transform="translate(-0.11 0.22)" style="fill: #fff"/>
    <path d="M410.18,240.48A35.84,35.84,0,1,0,446,276.31,35.83,35.83,0,0,0,410.18,240.48Zm0,54.86a19,19,0,1,1,19-19A19,19,0,0,1,410.18,295.34Z" transform="translate(-0.11 0.22)" style="fill: #fff"/>
    <path d="M472.46,217.91a86.33,86.33,0,0,0-.69-13.68A89.72,89.72,0,0,0,465.43,181c-1.6-3.76-4.55-9.06-10.45-19.68-.38-.69-1.8-3.38-3.9-6.84A159.71,159.71,0,0,0,440,138.63c-1.48-1.91-3.75-4.85-7.94-4.78H271.31a9.53,9.53,0,0,0-6.12,2.41l-61.61,46.81a19,19,0,0,1-7.75,3.51c-27.4,5.58-54.09,11.17-81.58,16.74a16.31,16.31,0,0,0-9.58,5.87,23.75,23.75,0,0,0-1.78,2.61,24.11,24.11,0,0,0-3.31,12.31q0,7.45.08,14.92a25.37,25.37,0,0,0,3.81,16.51,24.52,24.52,0,0,0,6.44,6.64,10.86,10.86,0,0,0,5.48,1.94l5.17.38a44.24,44.24,0,0,1,43.62-36.85c24.14,0,43.77,22.87,44.23,46.9l157.57,0A44.24,44.24,0,0,1,452.05,262h2.18A73.53,73.53,0,0,0,468,239.15,72.74,72.74,0,0,0,472.46,217.91ZM438,186.3l-3.63,7.53a11,11,0,0,1-9.87,6.2l-207.34.22,50.55-46.88a22.75,22.75,0,0,1,15.73-6.25H414c7.11.13,11.85,5.18,14.17,9.38l9.5,17.26A13.65,13.65,0,0,1,438,186.3Z" transform="translate(-0.11 0.22)" style="fill: #fff"/>
  </g>
</svg>
