<svg id="Слой_1" data-name="Слой 1" xmlns="http://www.w3.org/2000/svg" width="600" height="600" viewBox="0 0 600 600">
  <defs>
    <style>
      .cls-1 {
        fill: #fff;
      }

      .cls-2 {
        fill: #055c9d;
      }
    </style>
  </defs>
  <g>
    <rect class="cls-1" x="0.5" y="0.5" width="599" height="599" rx="34.5"/>
    <path d="M565,1a34.03848,34.03848,0,0,1,34,34V565a34.03849,34.03849,0,0,1-34,34H35A34.03848,34.03848,0,0,1,1,565V35A34.03847,34.03847,0,0,1,35,1H565m0-1H35A35,35,0,0,0,0,35V565a35,35,0,0,0,35,35H565a35.00008,35.00008,0,0,0,35-35V35A35,35,0,0,0,565,0Z"/>
  </g>
  <rect class="cls-2" x="15" y="15" width="570" height="570" rx="25"/>
  <rect class="cls-1" x="291" y="15" width="18" height="570" transform="translate(0 600) rotate(-90)"/>
  <polygon class="cls-1" points="400 239 400 179 15 179 15 121 400 121 400 61 563 150 400 239"/>
  <polygon class="cls-1" points="433 510 433 464.5 345 464.5 345 412.5 433 412.5 433 367 556 438.5 433 510"/>
  <g>
    <path class="cls-1" d="M214.5,501a23,23,0,1,0,23,23,23.02607,23.02607,0,0,0-23-23m0-19a42,42,0,1,1-42,42,42,42,0,0,1,42-42Z"/>
    <path class="cls-1" d="M288.91,401.57l-32.44-47.53A15.02616,15.02616,0,0,0,244.08,347.5H15v171H164.3a50.50046,50.50046,0,0,1,100.4,0H283a11.99669,11.99669,0,0,0,12-12V421.31A35.02935,35.02935,0,0,0,288.91,401.57ZM65,416.5a5.00181,5.00181,0,0,1-5,5H21v-62H60a5.00181,5.00181,0,0,1,5,5Zm105,0a5.00181,5.00181,0,0,1-5,5H89a5.00181,5.00181,0,0,1-5-5v-52a5.00181,5.00181,0,0,1,5-5h76a5.00181,5.00181,0,0,1,5,5Zm97.59,3H198a7.99782,7.99782,0,0,1-8-8v-45a7.99778,7.99778,0,0,1,8-8h42.11a6.98865,6.98865,0,0,1,5.94,3.3l28.33,45.47A7.999,7.999,0,0,1,267.59,419.5Z"/>
  </g>
</svg>
