<svg id="Слой_1" data-name="Слой 1" xmlns="http://www.w3.org/2000/svg" width="1400" height="700" viewBox="0 0 1400 700">
  <defs>
    <style>
      .cls-1 {
        fill: #fff;
      }

      .cls-2 {
        fill: #005da2;
      }
    </style>
  </defs>
  <g>
    <rect class="cls-1" x="0.5" y="0.5" width="1399" height="699" rx="44.5"/>
    <path d="M1355,1a44.04992,44.04992,0,0,1,44,44V655a44.04992,44.04992,0,0,1-44,44H45A44.04989,44.04989,0,0,1,1,655V45A44.04989,44.04989,0,0,1,45,1H1355m0-1H45A45.00011,45.00011,0,0,0,0,45V655a45.00011,45.00011,0,0,0,45,45H1355a45.00008,45.00008,0,0,0,45-45V45a45.00008,45.00008,0,0,0-45-45Z"/>
  </g>
  <rect class="cls-2" x="20" y="20" width="1360" height="660" rx="35"/>
  <path class="cls-1" d="M438,241H378V680H302V471a54.99445,54.99445,0,0,0-55-55H235v60L62,378l173-98v60h12a130.42715,130.42715,0,0,1,55,12.07V241H242L340,68Z"/>
  <polygon class="cls-1" points="801 241 741 241 741 680 665 680 665 241 605 241 703 68 801 241"/>
  <path class="cls-1" d="M1171,322V264h-34a54.99445,54.99445,0,0,0-55,55V680h-76V319a130.99913,130.99913,0,0,1,131-131h34V126l173,98Z"/>
  <g>
    <rect class="cls-1" x="499" y="615" width="22" height="65"/>
    <rect class="cls-1" x="499" y="519" width="22" height="70"/>
    <rect class="cls-1" x="499" y="423" width="22" height="70"/>
    <rect class="cls-1" x="499" y="327" width="22" height="70"/>
  </g>
  <g>
    <rect class="cls-1" x="862" y="615" width="22" height="65"/>
    <rect class="cls-1" x="862" y="519" width="22" height="70"/>
    <rect class="cls-1" x="862" y="423" width="22" height="70"/>
    <rect class="cls-1" x="862" y="327" width="22" height="70"/>
  </g>
</svg>
