<svg id="Слой_1" data-name="Слой 1" xmlns="http://www.w3.org/2000/svg" width="1400" height="700" viewBox="0 0 1400 700">
  <defs>
    <style>
      .cls-1 {
        fill: #fff;
      }

      .cls-2 {
        fill: #005da2;
      }
    </style>
  </defs>
  <g>
    <rect class="cls-1" x="0.5" y="0.5" width="1399" height="699" rx="44.5"/>
    <path d="M1355,1a44.04992,44.04992,0,0,1,44,44V655a44.04992,44.04992,0,0,1-44,44H45A44.04989,44.04989,0,0,1,1,655V45A44.04989,44.04989,0,0,1,45,1H1355m0-1H45A45.00011,45.00011,0,0,0,0,45V655a45.00011,45.00011,0,0,0,45,45H1355a45.00008,45.00008,0,0,0,45-45V45a45.00008,45.00008,0,0,0-45-45Z"/>
  </g>
  <rect class="cls-2" x="20" y="20" width="1360" height="660" rx="35"/>
  <polygon class="cls-1" points="799 256 730 256 730 680 662 680 662 256 593 256 696 73 799 256"/>
  <g>
    <rect class="cls-1" x="925" y="615" width="24" height="65"/>
    <rect class="cls-1" x="925" y="514" width="24" height="70"/>
    <rect class="cls-1" x="925" y="415" width="24" height="70"/>
    <rect class="cls-1" x="925" y="317" width="24" height="70"/>
    <rect class="cls-1" x="925" y="216" width="24" height="70"/>
    <rect class="cls-1" x="925" y="115" width="24" height="70"/>
    <rect class="cls-1" x="925" y="20" width="24" height="68"/>
  </g>
  <rect class="cls-1" x="436" y="20" width="24" height="660"/>
  <polygon class="cls-1" points="1267 257 1198 257 1198 681 1130 681 1130 257 1061 257 1164 74 1267 257"/>
  <polygon class="cls-1" points="328 441 259 441 259 20 191 20 191 441 122 441 225 624 328 441"/>
</svg>
