<?xml version="1.0" encoding="UTF-8" standalone="no"?>
<!-- Created with Inkscape (http://www.inkscape.org/) -->

<svg
   xmlns:dc="http://purl.org/dc/elements/1.1/"
   xmlns:cc="http://creativecommons.org/ns#"
   xmlns:rdf="http://www.w3.org/1999/02/22-rdf-syntax-ns#"
   xmlns:svg="http://www.w3.org/2000/svg"
   xmlns="http://www.w3.org/2000/svg"
   xmlns:sodipodi="http://sodipodi.sourceforge.net/DTD/sodipodi-0.dtd"
   xmlns:inkscape="http://www.inkscape.org/namespaces/inkscape"
   width="600"
   height="600"
   id="svg2"
   version="1.1"
   inkscape:version="0.48.4 r9939"
   sodipodi:docname="6.7.svg">
  <title
     id="title3006">5.17.3 Надземный пешеходный переход</title>
  <defs
     id="defs4" />
  <sodipodi:namedview
     id="base"
     pagecolor="#ffffff"
     bordercolor="#666666"
     borderopacity="1.0"
     inkscape:pageopacity="0.0"
     inkscape:pageshadow="2"
     inkscape:zoom="1"
     inkscape:cx="303.37049"
     inkscape:cy="301.22225"
     inkscape:document-units="px"
     inkscape:current-layer="layer1"
     showgrid="false"
     inkscape:window-width="1920"
     inkscape:window-height="1024"
     inkscape:window-x="-4"
     inkscape:window-y="-4"
     inkscape:window-maximized="1"
     inkscape:snap-bbox="true"
     inkscape:bbox-paths="true"
     inkscape:bbox-nodes="true"
     inkscape:snap-bbox-edge-midpoints="true"
     inkscape:snap-bbox-midpoints="true"
     inkscape:object-paths="true"
     inkscape:snap-intersection-paths="true"
     inkscape:object-nodes="true"
     inkscape:snap-smooth-nodes="true"
     inkscape:snap-midpoints="true"
     inkscape:snap-object-midpoints="true" />
  <metadata
     id="metadata7">
    <rdf:RDF>
      <cc:Work
         rdf:about="">
        <dc:format>image/svg+xml</dc:format>
        <dc:type
           rdf:resource="http://purl.org/dc/dcmitype/StillImage" />
        <dc:title>5.17.3 Надземный пешеходный переход</dc:title>
        <cc:license
           rdf:resource="http://creativecommons.org/licenses/by-sa/3.0/" />
        <dc:description>ГОСТ 10807-78
Размеры и пропорции по типоразмеру I</dc:description>
      </cc:Work>
      <cc:License
         rdf:about="http://creativecommons.org/licenses/by-sa/3.0/">
        <cc:permits
           rdf:resource="http://creativecommons.org/ns#Reproduction" />
        <cc:permits
           rdf:resource="http://creativecommons.org/ns#Distribution" />
        <cc:requires
           rdf:resource="http://creativecommons.org/ns#Notice" />
        <cc:requires
           rdf:resource="http://creativecommons.org/ns#Attribution" />
        <cc:permits
           rdf:resource="http://creativecommons.org/ns#DerivativeWorks" />
        <cc:requires
           rdf:resource="http://creativecommons.org/ns#ShareAlike" />
      </cc:License>
    </rdf:RDF>
  </metadata>
  <g
     inkscape:label="Layer 1"
     inkscape:groupmode="layer"
     id="layer1"
     transform="translate(0,-452.36218)">
    <rect
       style="color:#000000;fill:#ffffff;fill-opacity:1;stroke:none;stroke-width:1.99999975999999990;marker:none;visibility:visible;display:inline;overflow:visible;enable-background:accumulate;opacity:1"
       id="rect6880"
       width="600"
       height="600"
       x="0"
       y="452.36218"
       ry="45"
       rx="45" />
    <rect
       rx="44"
       ry="44"
       y="453.36218"
       x="1"
       height="598"
       width="598"
       id="rect3844-6"
       style="color:#000000;fill:none;stroke:#000000;stroke-width:2;stroke-miterlimit:4;stroke-opacity:1;stroke-dasharray:none;marker:none;visibility:visible;display:inline;overflow:visible;enable-background:accumulate;opacity:1" />
    <path
       style="color:#000000;fill:#0d69e1;fill-opacity:1;fill-rule:nonzero;stroke:none;stroke-width:3.54299998;marker:none;visibility:visible;display:inline;overflow:visible;enable-background:accumulate"
       d="m 555,472.36218 c 13.85,0 25,11.15 25,25 l 0,335 -110,0 0,40 -110,0 0,40 -110,0 0,40 -110,0 0,40 -120,0 0,-495 c 0,-13.85 11.15,-25 25,-25 l 510,0 z m -231.3125,29.15625 c -27.27131,0 -34.53125,19.34245 -34.53125,30.65625 0,26.8816 34.2873,36.59375 47.75,36.59375 18.69002,0 26.28125,-17.00155 26.28125,-30.09375 0,-15.0784 -12.69124,-37.15625 -39.5,-37.15625 z m -18.71875,72.03125 c -3.39648,-0.0296 -6.8048,0.7981 -9.875,2.5 l -65.5625,36.34375 c -1.698,0.9411 -2.93655,2.5538 -3.40625,4.4375 l -17.15625,68.75 c -2.1378,8.5741 3.08215,17.26855 11.65625,19.40625 8.574,2.1378 17.26855,-3.08215 19.40625,-11.65625 l 13.78125,-55.25 c 0.4697,-1.8836 1.6771,-3.4964 3.375,-4.4375 l 34.375,-19.03125 -13.90625,87.65625 c -0.7455,4.7068 1.629,9.36775 5.875,11.53125 L 381,763.45593 l 0,84.40625 c 0,9.9411 8.05887,18 18,18 9.94112,0 18,-8.0589 18,-18 l 0,-100.9375 c 0,-3.3843 -1.89077,-6.49485 -4.90625,-8.03125 l -70.1875,-35.75 c -2.64201,-1.3462 -4.13704,-4.21645 -3.75,-7.15625 l 12.125,-92.15625 c 0.52793,-4.01 -1.4035,-7.94645 -4.90625,-9.96875 l -30.5625,-17.65625 c -3.0401,-1.7552 -6.44727,-2.6266 -9.84375,-2.65625 z m 53.5625,59.5625 -4.59375,34.84375 40.9375,25.59375 c 7.49382,4.6827 17.37983,2.40015 22.0625,-5.09375 4.68266,-7.4938 2.40008,-17.34865 -5.09375,-22.03125 l -53.3125,-33.3125 z m -69.9375,96.71875 -27.3125,154.90625 c -1.7263,9.7901 4.80375,19.11755 14.59375,20.84375 9.7901,1.7263 19.11745,-4.80365 20.84375,-14.59375 L 322.125,746.92468 288.59375,729.83093 z M 580,872.36218 l 0,135.00002 c 0,13.85 -11.15,25 -25,25 l -395,0 0,-40.00002 110,0 0,-40 110,0 0,-40 110,0 0,-40 90,0 z"
       id="rect9536"
       inkscape:connector-curvature="0" />
  </g>
</svg>
