<svg xmlns="http://www.w3.org/2000/svg" width="600" height="600"><path fill="#010202" d="M560 0H40C18 0 0 18 0 40v520c0 22 18 40 40 40h520c22 0 40-18 40-40V40c0-22-18-40-40-40h0z"/><path fill="#fff" d="M560 1c21.5 0 39 17.5 39 39v520c0 21.5-17.5 39-39 39H40c-21.5 0-39-17.5-39-39V40C1 18.5 18.5 1 40 1h520"/><path fill="#1d5ea5" d="M561.667 14.333H39c-13.2 0-24 10.8-24 24V561c0 13.2 10.8 24 24 24h96V204.333H75.333l90.874-166.36 91.5 166.361h-62.333V585h98.417v-62.25h15V585h100V283.5s1.5-22-17.575-47.876c-8.7-11.79-37.833-41.6-50.712-54.622L307 221.667 257.167 50.583l166.5 48.75-39 37.725L440 196.75c10.029 10.77 29.5 39.5 29.5 84.5V585h92.167c13.2 0 24-10.8 24-24V38.333c0-13.2-10.8-24-24-24zM293.75 342.25h15v64.5h-15v-64.5zm0 91.75h15v64.5h-15V434z"/></svg>