<svg xmlns="http://www.w3.org/2000/svg" width="600" height="600"><path fill="#010202" d="M40 0C18 0 0 18 0 40v520c0 22 18 40 40 40h520c22 0 40-18 40-40V40c0-22-18-40-40-40H40h0z"/><path fill="#fff" d="M40 1h520c21.5 0 39 17.5 39 39v520c0 21.5-17.5 39-39 39H40c-21.5 0-39-17.5-39-39V40C1 18.5 18.5 1 40 1"/><path fill="#1d5ea5" d="M14.333 38.333V561c0 13.2 10.8 24 24 24H130.5V281.25c0-45 19.5-73.732 29.5-84.5l55.345-59.7-39-37.725 166.5-48.75L293 221.667l-33.463-40.665c-12.9 13-42 42.83-50.7 54.62C189.75 261.5 191.25 283.5 191.25 283.5V585h100v-62.25h15V585h98.416V204.333h-62.33l91.46-166.36 90.9 166.36H465V585h96c13.2 0 24-10.8 24-24V38.333c0-13.2-10.8-24-24-24H38.333c-13.2 0-24 10.8-24 24zM306.25 406.75h-15v-64.5h15v64.5zm0 91.75h-15V434h15v64.5z"/></svg>