<svg xmlns="http://www.w3.org/2000/svg" width="704" height="704">
<title>5.23 Прилягання додаткової смуги руху з правого боку</title>
<defs><style>.a{fill:#fff}</style></defs><rect class="a" x="1" y="1" width="702" height="702" rx="46"/><path d="M657 2a45 45 0 0 1 45 45v610a45 45 0 0 1-45 45H47a45 45 0 0 1-45-45V47A45 45 0 0 1 47 2h610m0-2H47A47.053 47.053 0 0 0 0 47v610a47.053 47.053 0 0 0 47 47h610a47.053 47.053 0 0 0 47-47V47a47.053 47.053 0 0 0-47-47z"/><rect x="12" y="12" width="680" height="680" rx="35" style="fill:#005da2"/><path class="a" d="M276 228h-58v464h-70V228H90l93-161.08L276 228zM692 656.07V662a30 30 0 0 1-30 30h-30.08L484 435.8V228h-58l93-161.08L612 228h-58v189.04zM341 113h22v70h-22zM341 209h22v70h-22zM341 305h22v70h-22zM341 401h22v70h-22zM341 12h22v75h-22z"/></svg>