<svg id="Слой_1" data-name="Слой 1" xmlns="http://www.w3.org/2000/svg" width="1050" height="700" viewBox="0 0 1050 700">
  <defs>
    <style>
      .cls-1 {
        fill: #fff;
      }

      .cls-2 {
        fill: #005da2;
      }
    </style>
  </defs>
  <g>
    <rect class="cls-1" x="0.5" y="0.5" width="1049" height="699" rx="44.5"/>
    <path d="M1005,1a44.04978,44.04978,0,0,1,44,44V655a44.04978,44.04978,0,0,1-44,44H45A44.04978,44.04978,0,0,1,1,655V45A44.04977,44.04977,0,0,1,45,1h960m0-1H45A45,45,0,0,0,0,45V655a45,45,0,0,0,45,45h960a45,45,0,0,0,45-45V45a45,45,0,0,0-45-45Z"/>
  </g>
  <rect class="cls-2" x="20" y="20" width="1010" height="660" rx="35"/>
  <g>
    <rect class="cls-1" x="532" y="20" width="24" height="67" transform="translate(1088 107) rotate(180)"/>
    <rect class="cls-1" x="532" y="114" width="24" height="70" transform="translate(1088 298) rotate(180)"/>
    <rect class="cls-1" x="532" y="216" width="24" height="70" transform="translate(1088 502) rotate(180)"/>
    <rect class="cls-1" x="532" y="317" width="24" height="70" transform="translate(1088 704) rotate(180)"/>
    <rect class="cls-1" x="532" y="415" width="24" height="70" transform="translate(1088 900) rotate(180)"/>
    <rect class="cls-1" x="532" y="514" width="24" height="70" transform="translate(1088 1098) rotate(180)"/>
    <rect class="cls-1" x="532" y="614" width="24" height="66" transform="translate(1088 1294) rotate(180)"/>
  </g>
  <polygon class="cls-1" points="376 247.5 307 247.5 307 680 239 680 239 247.5 170 247.5 273 64 376 247.5"/>
  <polygon class="cls-1" points="882 247.5 813 247.5 813 680 745 680 745 247.5 676 247.5 779 64 882 247.5"/>
  <g>
    <circle class="cls-1" cx="273" cy="447" r="111.5"/>
    <circle class="cls-2" cx="273" cy="447" r="106.5"/>
    <g>
      <path class="cls-1" d="M222.35692,415.71862v22.01255c3.47551-4.63442,9.76472-5.79271,15.06093-5.79271A28.39661,28.39661,0,0,1,265.22312,460.902c0,18.53766-13.90263,33.598-35.91519,33.598-10.42651,0-22.01255-4.63442-22.01255-4.63442l-2.31659-15.06031c5.6268,3.80671,14.39913,4.63441,22.01194,4.63441,9.26883,0,20.85425-5.79271,20.85425-17.37814,0-8.11053-5.79271-17.37936-16.21984-17.37936-6.951,0-11.58542,5.79271-13.90263,6.95224l-10.42713-5.79272V400.6583h53.29333l-4.63381,15.06032Z"/>
      <path class="cls-1" d="M341.02121,447c0,27.80527-12.74433,47.5-31.28077,47.5-18.537,0-31.28077-19.69473-31.28077-47.5s12.74372-47.5,31.28077-47.5C328.27688,399.5,341.02121,420.68485,341.02121,447Zm-46.34231,0c0,23.17085,6.12392,33.10087,15.06154,33.10087,8.937,0,15.06093-9.93,15.06093-33.10087s-6.12391-33.10209-15.06093-33.10209C300.80282,413.89791,294.6789,423.82915,294.6789,447Z"/>
    </g>
  </g>
</svg>
