<?xml version="1.0" encoding="UTF-8"?><svg id="SVG" xmlns="http://www.w3.org/2000/svg" viewBox="0 0 599.0272 895.3817"><defs><style>.cls-1{fill:#000;}.cls-1,.cls-2,.cls-3{stroke-width:0px;}.cls-4{fill:#fff500;}.cls-4,.cls-5{stroke:#000;stroke-miterlimit:10;}.cls-5{fill:none;stroke-width:11px;}.cls-2{fill:#da251d;}.cls-3{fill:#fff;}</style></defs><rect id="Background_and_thin_black_border" class="cls-4" x=".5" y=".5" width="598.0272" height="894.3817" rx="48.3913" ry="48.3913"/><rect id="Sign_inner_border" class="cls-5" x="14.9918" y="14.4239" width="570" height="866.8696" rx="34.3043" ry="34.3043"/><g id="Black_rectangles"><rect class="cls-1" x="262.5163" y="19.9022" width="63.0009" height="255.9783"/><rect class="cls-1" x="262.5163" y="609.8587" width="66.8886" height="267.0451"/></g><path class="cls-1" d="M230.3226,364.9769l31.4119,29.6616-43.134,41.8724-41.7391,41.6087-56.9234,55.7075c-9.2261,9.0291-17.1843,19.2725-23.5708,30.491-6.0391,10.6083-11.8521,23.3347-11.8521,33.0188v16.9614l.618,262.5767h52.3696v-263.0054s.0439-9.0582,4.9239-20.1848c3.6921-8.4183,10.5223-17.7262,20.087-26.8696,6.9435-6.6376,14.1215-15.0002,21.587-22.663,16.4103-16.8441,31.7609-32.25,31.7609-32.25l80.6232-84.45.7355.6946,29.559,32.2853,38.1985-132.2286-134.655,36.7735Z"/><g id="STOP_Sign"><circle class="cls-3" cx="137.3397" cy="161.5543" r="96.0978"/><path class="cls-2" d="M137.6332,72.9158c-49.2734,0-89.2174,39.944-89.2174,89.2174s39.944,89.2174,89.2174,89.2174,89.2173-39.944,89.2173-89.2174-39.944-89.2174-89.2173-89.2174ZM204.2772,184.6006H70.5978c-2.2377,0-4.0516-1.814-4.0516-4.0516v-36.4076c0-2.2377,1.814-4.0516,4.0516-4.0516h133.6793c2.2377,0,4.0516,1.814,4.0516,4.0516v36.4076c0,2.2377-1.814,4.0516-4.0516,4.0516Z"/></g></svg>