<svg xmlns="http://www.w3.org/2000/svg" width="1054" height="354">
<title>5.31.1 Напрямок руху для вантажних автомобілів</title>
<defs><style>.a{fill:#fff}</style></defs><rect class="a" x="1" y="1" width="1052" height="352" rx="46"/><path d="M1007 2a45 45 0 0 1 45 45v260a45 45 0 0 1-45 45H47a45 45 0 0 1-45-45V47A45 45 0 0 1 47 2h960m0-2H47A47.053 47.053 0 0 0 0 47v260a47.053 47.053 0 0 0 47 47h960a47.053 47.053 0 0 0 47-47V47a47.053 47.053 0 0 0-47-47z"/><rect x="12" y="12" width="1030" height="330" rx="35" style="fill:#005da2"/><path class="a" d="M252.6 242H201v100h-70V242H79.4L166 92l86.6 150z"/><g><path class="a" d="M576.786 251.714a20.643 20.643 0 1 1-20.643 20.643 20.666 20.666 0 0 1 20.643-20.643m0-17a37.643 37.643 0 1 0 37.643 37.643 37.643 37.643 0 0 0-37.643-37.643zM835.429 251.714a20.643 20.643 0 1 1-20.643 20.643 20.666 20.666 0 0 1 20.643-20.643m0-17a37.643 37.643 0 1 0 37.642 37.643 37.643 37.643 0 0 0-37.642-37.643z"/><path class="a" d="M612 170.357a12.147 12.147 0 0 1-12.143 12.143H533.91a12.148 12.148 0 0 1-10.115-18.882l18.445-27.65a18.212 18.212 0 0 1 15.155-8.11h42.463A12.147 12.147 0 0 1 612 140zm19.429 63.143V132.714a18.22 18.22 0 0 0-18.215-18.214H543.15a12.162 12.162 0 0 0-10.054 5.319l-36.951 54.4A18.235 18.235 0 0 0 493 184.455v69.688a18.22 18.22 0 0 0 18.214 18.214h20.036a45.536 45.536 0 0 1 91.071 0H790.5a44.895 44.895 0 0 1 22.367-38.857z"/><path class="a" d="M659.357 48.929h236.786a18.214 18.214 0 0 1 18.214 18.214v151.786H641.143V67.143a18.214 18.214 0 0 1 18.214-18.214zM918 233.5v38.857h-37.643A44.895 44.895 0 0 0 857.99 233.5z"/></g>
</svg>