<svg xmlns="http://www.w3.org/2000/svg" width="1054" height="354">
<title>5.31.2 Напрямок руху для вантажних автомобілів</title>
<defs><style>.a{fill:#fff}</style></defs><rect class="a" x="1" y="1" width="1052" height="352" rx="46"/><path d="M1007 2a45 45 0 0 1 45 45v260a45 45 0 0 1-45 45H47a45 45 0 0 1-45-45V47A45 45 0 0 1 47 2h960m0-2H47A47.053 47.053 0 0 0 0 47v260a47.053 47.053 0 0 0 47 47h960a47.053 47.053 0 0 0 47-47V47a47.053 47.053 0 0 0-47-47z"/><rect x="12" y="12" width="1030" height="330" rx="35" style="fill:#005da2"/><path class="a" d="M710 145v70h125v51.6L985 180 835 93.4V145H710z"/><g><path class="a" d="M477.214 251.714a20.643 20.643 0 1 0 20.643 20.643 20.666 20.666 0 0 0-20.643-20.643m0-17a37.643 37.643 0 1 1-37.643 37.643 37.643 37.643 0 0 1 37.643-37.643zM218.571 251.714a20.643 20.643 0 1 0 20.643 20.643 20.666 20.666 0 0 0-20.643-20.643m0-17a37.643 37.643 0 1 1-37.642 37.643 37.643 37.643 0 0 1 37.642-37.643z"/><path class="a" d="M442 170.357a12.147 12.147 0 0 0 12.143 12.143h65.948a12.148 12.148 0 0 0 10.115-18.882l-18.445-27.65a18.212 18.212 0 0 0-15.155-8.11h-42.463A12.147 12.147 0 0 0 442 140zM422.571 233.5V132.714a18.22 18.22 0 0 1 18.215-18.214h70.064a12.162 12.162 0 0 1 10.054 5.319l36.951 54.4A18.235 18.235 0 0 1 561 184.455v69.688a18.22 18.22 0 0 1-18.214 18.214H522.75a45.536 45.536 0 0 0-91.071 0H263.5a44.895 44.895 0 0 0-22.367-38.857z"/><path class="a" d="M394.643 48.929H157.857a18.214 18.214 0 0 0-18.214 18.214v151.786h273.214V67.143a18.214 18.214 0 0 0-18.214-18.214zM136 233.5v38.857h37.643A44.895 44.895 0 0 1 196.01 233.5z"/></g>
</svg>