<svg id="Слой_1" data-name="Слой 1" xmlns="http://www.w3.org/2000/svg" width="600" height="600" viewBox="0 0 600 600">
  <defs>
    <style>
      .cls-1 {
        fill: #fff;
      }

      .cls-2 {
        fill: #005da2;
      }

      .cls-3 {
        fill: #da251d;
      }
    </style>
  </defs>
  <g>
    <rect class="cls-1" x="0.5" y="0.5" width="599" height="599" rx="39.5"/>
    <path d="M560,1a39.04414,39.04414,0,0,1,39,39V560a39.04414,39.04414,0,0,1-39,39H40A39.04414,39.04414,0,0,1,1,560V40A39.04415,39.04415,0,0,1,40,1H560m0-1H40A40,40,0,0,0,0,40V560a40,40,0,0,0,40,40H560a40,40,0,0,0,40-40V40A40,40,0,0,0,560,0Z"/>
  </g>
  <rect class="cls-2" x="15" y="15" width="570" height="570" rx="25"/>
  <g>
    <path class="cls-1" d="M369,15V265H236V160a10.00362,10.00362,0,0,0-10-10H126a10.00362,10.00362,0,0,0-10,10V440a10.00366,10.00366,0,0,0,10,10H226a10.00366,10.00366,0,0,0,10-10V335H369V585h70V15ZM229,436.5a6.00475,6.00475,0,0,1-6,6H129a6.00475,6.00475,0,0,1-6-6v-273a6.00475,6.00475,0,0,1,6-6h94a6.00475,6.00475,0,0,1,6,6Z"/>
    <rect class="cls-3" x="33.5" y="247" width="285" height="106" rx="6" transform="translate(-124 476) rotate(-90)"/>
  </g>
</svg>
