<svg id="Слой_1" data-name="Слой 1" xmlns="http://www.w3.org/2000/svg" width="600" height="900" viewBox="0 0 600 900">
  <defs>
    <style>
      .cls-1 {
        fill: #fff;
      }

      .cls-2 {
        fill: #055c9d;
      }

      .cls-3 {
        fill: #d92a22;
      }
    </style>
  </defs>
  <g>
    <rect class="cls-1" x="0.5" y="0.5" width="599" height="899" rx="49.5"/>
    <path d="M550,1a49.05552,49.05552,0,0,1,49,49V850a49.05551,49.05551,0,0,1-49,49H50A49.05552,49.05552,0,0,1,1,850V50A49.05552,49.05552,0,0,1,50,1H550m0-1H50A50,50,0,0,0,0,50V850a50,50,0,0,0,50,50H550a50,50,0,0,0,50-50V50A50,50,0,0,0,550,0Z"/>
  </g>
  <rect class="cls-2" x="12.5" y="12.5" width="575" height="875" rx="39.88095"/>
  <g>
    <path class="cls-1" d="M203.80631,658.00856v-28.197L243.28217,663.648A10.85658,10.85658,0,0,1,229.497,679.93959Z"/>
    <path class="cls-1" d="M205.05951,553.99278a38.91292,38.91292,0,0,1,.6266,7.51921,45.52116,45.52116,0,0,1-.6266,7.51921,15.80079,15.80079,0,0,1-6.69363,8.78775,16.4571,16.4571,0,0,1-10.8512,1.86447c-14.41183-1.8798-25.69065-16.91823-25.69065-25.69064s1.86017-15.851,18.798-17.54483c3.83473-.38348,10.12993-.6804,15.90761,3.45864C203.12907,544.6343,204.68415,552.1731,205.05951,553.99278Z"/>
    <path class="cls-1" d="M264.58661,772.05a13.09681,13.09681,0,1,1-24.43744,9.399q-10.06227-28.74931-20.12453-57.49863a18.798,18.798,0,0,0-6.09988-8.54847l-49.71565-39.22014a10.007,10.007,0,0,1-3.63828-8.05246l1.8798-58.369-25.59134,18.8018a12.532,12.532,0,0,0-5.11211,10.09934V666.781c.38027,6.34067-4.93326,11.1415-10.02562,10.65222a9.30422,9.30422,0,0,1-5.63941-2.5064,10.47423,10.47423,0,0,1-2.5064-8.14582V626.02145a12.532,12.532,0,0,1,4.97386-9.99628l43.89214-33.18674a9.399,9.399,0,0,1,5.66862-1.90181,30.15441,30.15441,0,0,1,6.49861,1.31047,49.29133,49.29133,0,0,1,12.9057,8.08855,72.04068,72.04068,0,0,1,7.31453,6.84845,6.15243,6.15243,0,0,1,1.45485,4.0157c-.03129,21.41767-.06254,43.93637-.09378,65.27983a6.266,6.266,0,0,0,2.25756,4.60331l36.4402,30.28129a28.1969,28.1969,0,0,1,8.49286,12.091Z"/>
    <path class="cls-1" d="M180.62207,700.61743,160.57083,686.2056,106.452,768.90408a13.39907,13.39907,0,0,0-2.22649,8.47184c.51076,5.80527,4.07018,10.846,8.72367,12.21886a11.8131,11.8131,0,0,0,8.93409-.47447,14.33935,14.33935,0,0,0,5.32634-4.99483Z"/>
  </g>
  <circle class="cls-1" cx="321" cy="787.5" r="18.5"/>
  <g>
    <path class="cls-1" d="M358.72826,708.5l19.97409,14.47961c3.77591,3.03125,8.52249,3.57746,12.09113.58564L403.72826,713.25l-1.88043-20.413-13.73718,10.88083a5,5,0,0,1-6.06566.10938l-9.59935-7.05546c-2.6048-1.7807-9.1991-1.48309-12.67389,1.55438C356.53307,701.1571,356.21657,706.6123,358.72826,708.5Z"/>
    <path class="cls-1" d="M386.74755,753.139a15,15,0,0,0-4.96522,7.01019L370.6087,793.21741c-4.69566,11.64129,16.337,20.05433,20.84781,7.46734l11.03588-31.29266a11,11,0,0,1,4.442-5.60507l24.5843-15.7423a11,11,0,0,0,5.0364-10.09908l-3.33767-43.81521,12.47042,2.52652a8,8,0,0,1,5.22987,3.65628l8.21275,13.38245c2.25074,3.04056,7.8601,4.13969,11.70653,1.85867,3.19375-1.894,5.32608-7.05435,3.0761-10.2391l-17.39535-23.14907a15,15,0,0,0-9.89134-5.84111L433.413,674.45652h-9.63043L406.163,689.17391l3.78978,42.32918a6,6,0,0,1-2.27826,5.25592Z"/>
    <path class="cls-1" d="M401.26086,643.47827c-7.61029,3.56049-13.5516,30.29458,3.21741,31.22827,9.56521.53259,28.15216-15.90219,21.663-28.16306C424.62688,643.68206,415.28262,634.80432,401.26086,643.47827Z"/>
    <path class="cls-1" d="M419.61957,762.5l13.96164,18.738a12.96068,12.96068,0,0,0,2.07307,2.194l5.29647,4.43426A7.00453,7.00453,0,0,0,445.44721,789.5h26.21585c2.79344,0,4.61828-5.03514,4.50682-9.45751-.11883-4.715-2.33615-8.836-4.50682-8.836H454.07688a8.33537,8.33537,0,0,1-6.98792-3.79147L436.6413,751.34783Z"/>
  </g>
  <polygon class="cls-1" points="587.5 412 587.5 425 398 425 398 12 412 12 412 412 587.5 412"/>
  <rect class="cls-1" x="434" y="54" width="68" height="112"/>
  <rect class="cls-1" x="434" y="221" width="68" height="112"/>
  <rect class="cls-1" x="514.5" y="313" width="73" height="112"/>
  <g>
    <path class="cls-1" d="M128.38115,289.44444h33.04641a0,0,0,0,1,0,0V315.076A13.924,13.924,0,0,1,147.50353,329h-5.19834a13.924,13.924,0,0,1-13.924-13.924V289.44444A0,0,0,0,1,128.38115,289.44444Z"/>
    <path class="cls-1" d="M265.57384,289.44444h33.04641a0,0,0,0,1,0,0V315.076A13.924,13.924,0,0,1,284.69622,329h-5.19834a13.924,13.924,0,0,1-13.924-13.924V289.44444A0,0,0,0,1,265.57384,289.44444Z"/>
    <path class="cls-1" d="M295.86639,214.58931l-17.054-51.56742A17.52373,17.52373,0,0,0,262.17408,151H161.18724a17.52561,17.52561,0,0,0-16.90375,12.89311c-5.08716,18.59612-14.14988,50.6962-14.14988,50.6962a13.52007,13.52007,0,0,0-13.519,13.519V269.166a13.52008,13.52008,0,0,0,13.519,13.519H295.86639a13.52008,13.52008,0,0,0,13.519-13.519V228.1083A13.52007,13.52007,0,0,0,295.86639,214.58931ZM153.937,170.4473a10.00956,10.00956,0,0,1,9.67359-7.43042H260.667a10.01587,10.01587,0,0,1,9.57846,7.08493l13.6041,44.4875h-141.699Zm-9.03268,88.7046a16.52321,16.52321,0,1,1,16.52321-16.52321A16.52027,16.52027,0,0,1,144.90436,259.1519Zm136.692,0a16.52321,16.52321,0,1,1,16.52321-16.52321A16.52027,16.52027,0,0,1,281.59634,259.1519Z"/>
  </g>
  <path class="cls-3" d="M12.5,844,544,12.5h3.619A39.881,39.881,0,0,1,587.5,52.381V56L56,887.5H52.381A39.881,39.881,0,0,1,12.5,847.619Z"/>
</svg>
