<svg xmlns="http://www.w3.org/2000/svg" width="700" height="700" xmlns:v="https://vecta.io/nano"><rect x=".5" y=".5" width="699" height="699" rx="44.5" fill="#fff"/><path d="M655 1a44.05 44.05 0 0 1 44 44v610a44.05 44.05 0 0 1-44 44H45a44.05 44.05 0 0 1-44-44V45A44.05 44.05 0 0 1 45 1h610m0-1H45A45 45 0 0 0 0 45v610a45 45 0 0 0 45 45h610a45 45 0 0 0 45-45V45a45 45 0 0 0-45-45z"/><rect x="10" y="10" width="680" height="680" rx="35" fill="#055c9d"/><path d="M567.552 82.027l86.576-35.407-16.633 92.046-23.703-19.194-45.311 55.954-23.314-18.88 45.311-55.954-22.926-18.565zM70.507 136.619L53.872 44.574l86.577 35.404-23.702 19.195 45.312 55.954-23.314 18.88-45.312-55.954-22.926 18.566zm497.045 486.928l86.576 35.407-16.633-92.046-23.703 19.194-45.311-55.954-23.314 18.879 45.311 55.955-22.926 18.565zM70.507 567.955L53.872 660l86.577-35.404-23.702-19.195 45.312-55.954-23.314-18.88-45.312 55.954-22.926-18.566zM326 322v-45l-63 54a17.326 17.326 0 0 0 22 26zm-2-166a62.102 62.102 0 0 0-1 12 72.648 72.648 0 0 0 1 12c.793 2.474 3.42 9.701 10.682 14.024 4.133 2.46 9.751 3.962 17.318 2.976 23-3 41-27 41-41s-2.969-25.297-30-28c-6.12-.612-16.166-1.086-25.387 5.52-10.532 7.545-13.014 19.576-13.613 22.48zm-95 348c-4.437 11.635 1.929 24.494 13 28 10.218 3.236 21.898-2.304 26-13q16.058-45.881 32.117-91.763a30 30 0 0 1 9.735-13.643l79.342-62.592a15.97 15.97 0 0 0 5.806-12.85L392 245l40.842 30.006A20 20 0 0 1 441 291.124V336c-.607 10.119 7.873 17.781 16 17a14.849 14.849 0 0 0 9-4c3.042-3.131 4.391-7.941 4-13v-65.049a20 20 0 0 0-7.938-15.953l-70.048-52.963a15 15 0 0 0-9.047-3.035s-7.098.686-10.371 2.091A78.664 78.664 0 0 0 352 214c-4.965 4.317-8.783 7.548-11.673 10.93a9.819 9.819 0 0 0-2.322 6.409l.15 104.181a10 10 0 0 1-3.603 7.346l-58.155 48.326a45 45 0 0 0-13.554 19.296zm134-114l32-23 86.369 131.979a21.384 21.384 0 0 1 3.553 13.52c-.815 9.265-6.496 17.309-13.922 19.5-4.601 1.357-9.697 1.632-14.258-.757a22.884 22.884 0 0 1-8.5-7.971z" fill="#fff"/></svg>