<svg id="Слой_1" data-name="Слой 1" xmlns="http://www.w3.org/2000/svg" width="700" height="1050" viewBox="0 0 700 1050">
  <defs>
    <style>
      .cls-1 {
        fill: #fff;
      }

      .cls-2 {
        fill: #005da2;
      }

      .cls-3 {
        fill: #d92a22;
      }
    </style>
  </defs>
  <g>
    <rect class="cls-1" x="0.5" y="0.5" width="699" height="1049" rx="44.5"/>
    <path d="M655,1a44.04978,44.04978,0,0,1,44,44v960a44.04978,44.04978,0,0,1-44,44H45a44.04978,44.04978,0,0,1-44-44V45A44.04977,44.04977,0,0,1,45,1H655m0-1H45A45,45,0,0,0,0,45v960a45,45,0,0,0,45,45H655a45,45,0,0,0,45-45V45A45,45,0,0,0,655,0Z"/>
  </g>
  <rect class="cls-2" x="17.5" y="17.5" width="665" height="1015" rx="29"/>
  <g>
    <path class="cls-1" d="M178,647.5h66a0,0,0,0,1,0,0v46a33,33,0,0,1-33,33H211a33,33,0,0,1-33-33v-46a0,0,0,0,1,0,0Z"/>
    <path class="cls-1" d="M452,647.5h66a0,0,0,0,1,0,0v46a33,33,0,0,1-33,33H485a33,33,0,0,1-33-33v-46A0,0,0,0,1,452,647.5Z"/>
    <path class="cls-1" d="M512.5,498,478.44,395.01A34.99826,34.99826,0,0,0,445.21,371H243.52a35.002,35.002,0,0,0-33.76,25.75C199.6,433.89,181.5,498,181.5,498a27.00216,27.00216,0,0,0-27,27v82a27.0022,27.0022,0,0,0,27,27h331a27.0022,27.0022,0,0,0,27-27V525A27.00216,27.00216,0,0,0,512.5,498ZM229.04,409.84A19.991,19.991,0,0,1,248.36,395H442.2a20.00361,20.00361,0,0,1,19.13,14.15L488.5,498h-283ZM211,587a33,33,0,1,1,33-33A32.99413,32.99413,0,0,1,211,587Zm273,0a33,33,0,1,1,33-33A32.99413,32.99413,0,0,1,484,587Z"/>
  </g>
  <path class="cls-3" d="M17.5,1003.5V965.56594L614.5,17.5h39a29,29,0,0,1,29,29V71.44685L85.5,1032.5h-39A29,29,0,0,1,17.5,1003.5Z"/>
</svg>
