<svg xmlns="http://www.w3.org/2000/svg" width="704" height="704">
<title>5.40.1 Підземний пішохідний перехід</title>
<defs><style>.a{fill:#fff}</style></defs><rect class="a" x="1" y="1" width="702" height="702" rx="46"/><path d="M657 2a45 45 0 0 1 45 45v610a45 45 0 0 1-45 45H47a45 45 0 0 1-45-45V47A45 45 0 0 1 47 2h610m0-2H47A47.053 47.053 0 0 0 0 47v610a47.053 47.053 0 0 0 47 47h610a47.053 47.053 0 0 0 47-47V47a47.053 47.053 0 0 0-47-47z"/><rect x="12" y="12" width="680" height="680" rx="35" style="fill:#005da2"/><path class="a" d="M692 459v45H589v45H455v45H321v45H186v53H42a29.998 29.998 0 0 1-30-30v-23h151v-45h134v-45h134v-45h134v-45z"/><path class="a" d="M234.826 461 269 507l-29.818 66.552a24 24 0 0 1-21.902 14.187 23.236 23.236 0 0 1-21.481-32.093zM234.521 430.895l67.8 95.987a35 35 0 0 0 29.185 14.802l1.493-.025a20 20 0 0 0 15.795-31.814l-56.93-77.74a20 20 0 0 1 .278-24.002l58.744-76.448a20 20 0 0 0 3.948-14.966L340 211l39.168 30.464a20 20 0 0 1 7.314 11.774l12.244 59.775A20 20 0 0 0 418.319 329a15.05 15.05 0 0 0 14.857-17.454l-12.938-79.975a20 20 0 0 0-7.221-12.372l-59.656-47.872a30 30 0 0 0-32.779-3.134l-36 19a30 30 0 0 0-15.716 30.623L285 335l-50.03 66.432a25 25 0 0 0-.449 29.463z"/><path class="a" d="m258 252 5 46-41.021 41.728a17.961 17.961 0 0 1-28.577-3.99 18 18 0 0 1 2.986-21.258zM263 125c0 22 8 38 28 38 32 0 56-29 56-58 0-19-9-33-41-32.87C276 72 263 98 263 125z"/></svg>