<svg id="Слой_1" data-name="Слой 1" xmlns="http://www.w3.org/2000/svg" width="700" height="700" viewBox="0 0 700 700">
  <defs>
    <style>
      .cls-1 {
        fill: #fff;
      }

      .cls-2 {
        fill: #055c9d;
      }
    </style>
  </defs>
  <g>
    <rect class="cls-1" x="0.5" y="0.5" width="699" height="699" rx="44.5"/>
    <path d="M655,1a44.04978,44.04978,0,0,1,44,44V655a44.04978,44.04978,0,0,1-44,44H45A44.04978,44.04978,0,0,1,1,655V45A44.04977,44.04977,0,0,1,45,1H655m0-1H45A45,45,0,0,0,0,45V655a45,45,0,0,0,45,45H655a45,45,0,0,0,45-45V45A45,45,0,0,0,655,0Z"/>
  </g>
  <rect class="cls-2" x="10" y="10" width="680" height="680" rx="35"/>
  <path class="cls-1" d="M393,93H205V607h68.16667L273,421H393c82.47167,0,152-71.66667,152-165C545,155.66667,474.66667,93,393,93ZM382,349H273V162H382c51.33333,0,93,42.66667,93,94A92.76945,92.76945,0,0,1,382,349Z"/>
</svg>
