<svg id="Слой_1" data-name="Слой 1" xmlns="http://www.w3.org/2000/svg" width="700" height="700" viewBox="0 0 700 700">
  <defs>
    <style>
      .cls-1 {
        fill: #fff;
      }

      .cls-2 {
        fill: #055c9d;
      }
    </style>
  </defs>
  <g>
    <rect class="cls-1" x="0.5" y="0.5" width="699" height="699" rx="44.5"/>
    <path d="M655,1a44.04978,44.04978,0,0,1,44,44V655a44.04978,44.04978,0,0,1-44,44H45A44.04978,44.04978,0,0,1,1,655V45A44.04977,44.04977,0,0,1,45,1H655m0-1H45A45,45,0,0,0,0,45V655a45,45,0,0,0,45,45H655a45,45,0,0,0,45-45V45A45,45,0,0,0,655,0Z"/>
  </g>
  <rect class="cls-2" x="10" y="10" width="680" height="680" rx="35"/>
  <path class="cls-1" d="M372.46835,30H232.60759V411h52.08608V272.1038h87.77468c61.17015,0,110.92406-52.30782,110.92406-121.53418C483.39241,76.15128,433.04142,30,372.46835,30Zm-9.64557,190.01772H284.69367V81.12152h78.12911c38.07451,0,68.48355,31.3736,68.48355,69.4481C431.30633,188.79987,401.053,220.01772,362.82278,220.01772Z"/>
  <g>
    <path class="cls-1" d="M151,427v30H108.75a24.996,24.996,0,0,0-24,18L74,511.87V578H69v14h35.34a37.00534,37.00534,0,0,1,71.31-8h131.7a37.013,37.013,0,0,1,69.3,0H402V427Zm0,88H85.96l9.06-33.88A15.00245,15.00245,0,0,1,109.51,470H151Z"/>
    <circle class="cls-1" cx="141" cy="597" r="33"/>
    <circle class="cls-1" cx="342" cy="597" r="33"/>
    <polygon class="cls-1" points="458.04 611 458.04 624 403 624 395 604 381 604 381 592 403 592 411 611 458.04 611"/>
    <path class="cls-1" d="M412,427h36a10,10,0,0,1,10,10V542a10,10,0,0,1-10,10H412a0,0,0,0,1,0,0V427A0,0,0,0,1,412,427Z"/>
  </g>
  <g>
    <circle class="cls-1" cx="503" cy="615" r="9"/>
    <path class="cls-1" d="M610,612l-28-55-14.02,23.08a19.54964,19.54964,0,0,0-2.82,10.67L566,617c1,8-6,8-7,0l-4.11-28.34a21.40406,21.40406,0,0,1,3.3-14.13L565,564V543c0-2-1-3-2.5-3,0,0-2.5,0-2.5,3v17a6.05685,6.05685,0,0,1-6,6H524.71L486,604.71a8.00312,8.00312,0,0,1-11.31,0l-14.54-14.54a7.99709,7.99709,0,0,1,0-11.32l47.69-47.69a7.997,7.997,0,0,1,11.31994,0L533.7,545.7a8.00312,8.00312,0,0,1,0,11.31L531.71,559H550a2.00591,2.00591,0,0,0,2-2V508h8c16,0,31,38,31,38l28.87,62C629,625,618,629,610,612Z"/>
    <circle class="cls-1" cx="552" cy="491" r="10.5"/>
  </g>
</svg>
