<svg xmlns="http://www.w3.org/2000/svg" width="604" height="904"><defs><style>.a{fill:#fff}</style></defs><rect class="a" x="1" y="1" width="602" height="902" rx="46"/><path d="M557 2a45 45 0 0 1 45 45v810a45 45 0 0 1-45 45H47a45 45 0 0 1-45-45V47A45 45 0 0 1 47 2h510m0-2H47A47.053 47.053 0 0 0 0 47v810a47.053 47.053 0 0 0 47 47h510a47.053 47.053 0 0 0 47-47V47a47.053 47.053 0 0 0-47-47z"/><rect x="12" y="12" width="580" height="880" rx="35" style="fill:#055c9d"/><rect class="a" x="67" y="133" width="470" height="470" rx="35"/><circle cx="167" cy="472.5" r="24.5"/><circle cx="216.5" cy="472.5" r="24.5"/><circle cx="379" cy="472.5" r="24.5"/><circle cx="428.5" cy="472.5" r="24.5"/><path d="m496.62 375.57-25.03-46.66a14.997 14.997 0 0 0-13.22-7.91H142.3a15.014 15.014 0 0 0-12.71 7.03l-29.53 47.1A19.943 19.943 0 0 0 97 385.75V452a15.005 15.005 0 0 0 15 15h19a32.138 32.138 0 0 1 32.07-30h269.86A32.145 32.145 0 0 1 465 467h19a15.005 15.005 0 0 0 15-15v-66.97a20.027 20.027 0 0 0-2.38-9.46zM156 377a10.004 10.004 0 0 1-10 10h-22a10.005 10.005 0 0 1-8.75-14.86l18.89-34a10.013 10.013 0 0 1 8.74-5.14H146a10.004 10.004 0 0 1 10 10zm87 0a10.004 10.004 0 0 1-10 10h-52a10.004 10.004 0 0 1-10-10v-34a10.004 10.004 0 0 1 10-10h52a10.004 10.004 0 0 1 10 10zm95 0a10.004 10.004 0 0 1-10 10h-60a10.004 10.004 0 0 1-10-10v-34a10.004 10.004 0 0 1 10-10h60a10.004 10.004 0 0 1 10 10zm87 0a10.004 10.004 0 0 1-10 10h-52a10.004 10.004 0 0 1-10-10v-34a10.004 10.004 0 0 1 10-10h52a10.004 10.004 0 0 1 10 10zm47 10h-22a10.004 10.004 0 0 1-10-10v-34a10.004 10.004 0 0 1 10-10h3.12a10.013 10.013 0 0 1 8.74 5.14l18.89 34A10.005 10.005 0 0 1 472 387z"/><path d="M359 445a33.918 33.918 0 0 0-13.99 27h-94.52A33.936 33.936 0 0 0 237 445.37V445zM306 224v-18h-16v18l-59 50 31.76 36h70.43L365 274zm21 75h-58l-21-25 50-42 50 42z"/></svg>