<svg xmlns="http://www.w3.org/2000/svg" width="2744" height="1114">
<title>5.57 Попередній покажчик напрямків</title>
<defs><style>.a{fill:#fff}</style></defs><rect class="a" x="1" y="1" width="2742" height="1112" rx="46"/><path d="M2697 2a45 45 0 0 1 45 45v1020a45 45 0 0 1-45 45H47a45 45 0 0 1-45-45V47A45 45 0 0 1 47 2h2650m0-2H47A47.053 47.053 0 0 0 0 47v1020a47.053 47.053 0 0 0 47 47h2650a47.053 47.053 0 0 0 47-47V47a47.053 47.053 0 0 0-47-47z"/><rect x="22" y="22" width="2700" height="1070" rx="25" style="fill:#005da2"/><path class="a" d="m1649.5 695-75 75h-60l50-50h-209.65a149.75 149.75 0 0 1-99.12 116.85 35.024 35.024 0 0 0-23.73 33.13V1065h-50V870c-1-35 15-74 50-88.56a89.52 89.52 0 0 0 39.51-23.68c33.25-34.16 33.94-88.95 1.53-123.9A89.94 89.94 0 0 0 1125.41 657a2.508 2.508 0 0 0-.15.48c-9.08 37.27-43.98 62.52-82.34 62.52H849.5l50 50h-60l-75-75 75-75h60l-50 50h182.52a35.024 35.024 0 0 0 33.13-23.73A149.75 149.75 0 0 1 1182 547.15V402.5l-50 50v-60l75-75 75 75v60l-50-50v144.65A149.698 149.698 0 0 1 1354.85 670h209.65l-50-50h60zM1310.525 139.497l-25.74-42.187v66.498h-19.02V63.704h19.448l28.744 48.622 28.744-48.622h19.45v100.104h-19.02V97.31l-25.741 42.187zM1431.79 92.305h17.017v71.503h-18.019v-42.473l-29.745 42.473h-17.018V92.305h18.019v42.472zM1487.127 135.207v28.6h-18.019V92.306h18.019v26.456h6.722l17.875-26.456h21.165l-24.31 34.607 26.455 36.896h-21.307l-19.878-28.601zM1574.358 165.095c-21.307 0-33.32-13.3-33.32-37.039s12.013-37.038 33.32-37.038 33.32 13.3 33.32 37.038-12.012 37.039-33.32 37.039zm0-16.017c10.011 0 15.16-7.007 15.16-21.022 0-14.014-5.149-21.021-15.16-21.021-10.01 0-15.158 7.007-15.158 21.021 0 14.015 5.149 21.022 15.158 21.022zM1615.111 150.08c12.156-3.29 14.73-11.584 16.732-57.775h51.91v71.503h-18.018v-56.202h-17.876c-1.715 40.9-7.865 53.341-28.744 58.06zM1702.054 100.885c8.723-6.72 17.876-9.867 29.459-9.867 19.163 0 29.03 8.437 29.03 25.026v28.601a8.813 8.813 0 0 0 6.292 8.866l-5.435 11.44c-7.721 0-13.298-2.43-16.301-7.293-4.148 4.72-11.727 7.437-20.88 7.437-15.587 0-24.596-7.866-24.596-20.736 0-13.729 10.153-22.31 27.171-23.453l15.73-1.001v-3.003c0-6.578-4.576-10.297-12.87-10.297a28.916 28.916 0 0 0-18.305 6.436zm26.17 32.463c-7.293.428-11.298 3.86-11.298 9.295 0 5.577 4.005 8.723 11.87 8.723 9.009 0 13.728-4.433 13.728-13.585v-5.292zM1776.84 61.988a8.75 8.75 0 0 1 9.01 9.152c0 5.291-3.717 8.866-9.01 8.866a8.6 8.6 0 0 1-9.008-8.866 8.832 8.832 0 0 1 9.009-9.152zm21.166 101.82h-18.019V92.305h18.019zm3.146-101.82a8.75 8.75 0 0 1 9.01 9.152c0 5.291-3.719 8.866-9.01 8.866s-9.01-3.575-9.01-8.866a8.75 8.75 0 0 1 9.01-9.152zM1877.657 111.896a17.469 17.469 0 0 1-8.009 15.302c6.722 3.29 10.297 8.866 10.297 16.446 0 12.87-10.297 20.164-28.458 20.164h-33.177V92.305h32.033c17.446 0 27.314 7.15 27.314 19.591zm-26.742 9.439c5.434 0 8.58-2.717 8.58-7.436 0-4.576-3.146-7.293-8.58-7.293h-14.587v14.729zm1.573 28.172c5.864 0 9.295-2.86 9.295-7.865 0-4.862-3.431-7.58-9.295-7.58h-16.16v15.445zM105.757 412.607h19.163v40.184h11.297l25.455-40.184h22.595l-32.034 48.622 35.037 51.482h-22.595l-28.316-42.901h-11.44v42.9h-19.162zM236.174 439.921c18.733 0 29.316 13.3 29.316 37.038s-10.44 37.039-29.316 37.039c-8.295 0-14.73-2.86-19.163-8.151v32.605h-18.019v-97.244h17.018v8.151q6.864-9.438 20.164-9.438zm-3.862 16.017c-10.153 0-15.301 7.007-15.301 21.021 0 14.015 5.148 21.022 15.301 21.022 10.011 0 15.159-7.007 15.159-20.878 0-14.158-5.148-21.165-15.159-21.165zM329.552 441.208h17.017v71.503h-18.018v-42.473l-29.745 42.473h-17.018v-71.503h18.019v42.473zM426.219 460.8a17.469 17.469 0 0 1-8.009 15.302c6.722 3.289 10.297 8.866 10.297 16.445 0 12.87-10.297 20.164-28.458 20.164H366.87v-71.503h32.033c17.447 0 27.315 7.15 27.315 19.592zm-26.742 9.438c5.433 0 8.58-2.717 8.58-7.436 0-4.576-3.147-7.293-8.58-7.293H384.89v14.73zm1.573 28.172c5.863 0 9.295-2.86 9.295-7.865 0-4.862-3.432-7.58-9.295-7.58h-16.16v15.445zM492.71 441.208h17.019v71.503H491.71v-42.473l-29.745 42.473h-17.018v-71.503h18.019v42.473zM577.794 441.208h17.018v71.503h-18.019v-42.473l-29.745 42.473H530.03v-71.503h18.019v42.473zm-37.467-31.89h12.87c.286 5.434 3.576 8.437 9.295 8.437 5.577 0 8.867-3.003 9.153-8.437h12.87c0 13.3-7.865 20.879-22.023 20.879-14.157 0-22.165-7.58-22.165-20.88zM668.738 512.71h-19.162V412.608h38.754c21.023 0 34.607 12.584 34.607 32.034 0 19.448-13.728 32.033-34.607 32.033h-19.592zm16.875-83.085h-16.875v30.03h17.019c11.725 0 17.732-5.004 17.732-15.014 0-9.868-6.15-15.016-17.876-15.016zM746.53 408.89a10.654 10.654 0 1 1-10.584 10.724 10.449 10.449 0 0 1 10.583-10.725zm9.008 103.82H737.52v-71.502h18.018zM775.843 441.208h48.764v15.445h-30.746v56.058h-18.018zM1797.795 527.525h-19.164V427.422h78.654v100.103h-19.306V444.44h-40.184zM1875.012 491.774c0-23.31 12.156-37.038 32.748-37.038 20.593 0 32.176 13.585 32.176 37.753v4.862h-47.05c.288 10.583 7.151 16.017 18.163 16.017a23.302 23.302 0 0 0 17.304-7.008l10.44 11.155c-7.58 7.15-15.875 11.297-28.316 11.297-22.452 0-35.465-13.013-35.465-37.038zm17.875-7.15h30.318c-.86-9.725-6.293-15.016-14.873-15.016-9.01 0-14.443 5.291-15.445 15.016zM1993.273 454.736c18.733 0 29.317 13.3 29.317 37.038s-10.44 37.039-29.317 37.039c-8.294 0-14.73-2.86-19.164-8.152v32.606h-18.017v-97.245h17.017v8.152q6.865-9.438 20.164-9.438zm-3.86 16.016c-10.155 0-15.304 7.008-15.304 21.022 0 14.015 5.149 21.022 15.303 21.022 10.01 0 15.158-7.007 15.158-20.879 0-14.157-5.148-21.165-15.158-21.165zM2098.236 475.614a17.47 17.47 0 0 1-8.01 15.302c6.723 3.29 10.297 8.866 10.297 16.446 0 12.87-10.296 20.163-28.457 20.163h-33.177v-71.503h32.033c17.445 0 27.314 7.15 27.314 19.592zm-26.742 9.439c5.434 0 8.58-2.717 8.58-7.436 0-4.576-3.146-7.294-8.58-7.294h-14.588v14.73zm1.572 28.172c5.864 0 9.295-2.86 9.295-7.866 0-4.861-3.431-7.579-9.295-7.579h-16.16v15.445zM2145.566 528.813c-21.308 0-33.32-13.3-33.32-37.04s12.012-37.037 33.32-37.037 33.32 13.3 33.32 37.038-12.011 37.038-33.32 37.038zm0-16.017c10.01 0 15.159-7.007 15.159-21.022 0-14.014-5.149-21.022-15.159-21.022s-15.158 7.008-15.158 21.022c0 14.015 5.149 21.022 15.158 21.022zM2230.078 515.656l-18.02-30.46v42.33h-17.017v-71.504h18.305l20.45 34.18 20.308-34.18h18.447v71.503h-17.018v-42.33l-18.02 30.46zM2290.707 464.603c8.725-6.721 17.877-9.867 29.459-9.867 19.164 0 29.031 8.437 29.031 25.026v28.6a8.812 8.812 0 0 0 6.291 8.867l-5.433 11.44c-7.723 0-13.3-2.43-16.303-7.293-4.147 4.72-11.727 7.436-20.879 7.436-15.588 0-24.596-7.865-24.596-20.735 0-13.729 10.153-22.31 27.17-23.453l15.73-1.001v-3.003c0-6.579-4.575-10.297-12.87-10.297a28.916 28.916 0 0 0-18.305 6.435zm26.17 32.462c-7.293.43-11.297 3.861-11.297 9.295 0 5.578 4.004 8.724 11.87 8.724 9.009 0 13.728-4.433 13.728-13.585v-5.292zM2416.404 456.022h17.018v71.503h-18.018v-42.472l-29.746 42.472h-17.017v-71.503h18.02v42.473zm-37.466-31.89h12.87c.286 5.435 3.575 8.438 9.296 8.438 5.576 0 8.867-3.003 9.152-8.438h12.871c0 13.3-7.865 20.88-22.023 20.88s-22.166-7.58-22.166-20.88zM2467.74 491.774c0 13.585 5.864 21.165 16.016 21.165 6.006 0 10.297-2.717 13.728-8.438l13.301 9.582c-6.15 9.724-15.445 14.73-28.03 14.73-21.165 0-33.177-13.443-33.177-37.04 0-23.595 12.156-37.037 33.178-37.037 12.726 0 21.879 4.862 28.03 14.73l-13.302 9.723c-3.289-5.72-7.722-8.437-13.87-8.437-10.155 0-15.874 7.436-15.874 21.022zM2584.143 504.358c0 14.73-10.153 23.167-28.315 23.167h-30.603v-71.503h18.02v25.027h12.583c18.162 0 28.315 8.437 28.315 23.31zm-28.315 8.295c6.72 0 10.154-2.86 10.154-8.295 0-5.434-3.433-8.437-10.154-8.437h-12.584v16.732zM2618.031 498.924v28.601h-18.017v-71.503h18.017v26.457h6.723l17.875-26.457h21.164l-24.31 34.608 26.456 36.895h-21.308l-19.877-28.6zM1846.272 746.422h20.306l-33.605 76.936c-7.723 17.734-16.59 24.455-29.746 24.455a31.526 31.526 0 0 1-17.59-5.291l7.58-13.872a17.146 17.146 0 0 0 9.01 3.146c5.004 0 9.58-4.148 13.298-12.441l-36.894-72.933h20.734l25.313 53.197zM1903.47 834.656l-18.017-30.46v42.33h-17.017v-71.504h18.304l20.45 34.18 20.306-34.18h18.447v71.503h-17.017v-42.33l-18.018 30.461zM1964.102 783.604c8.724-6.722 17.877-9.868 29.459-9.868 19.164 0 29.03 8.437 29.03 25.026v28.601a8.811 8.811 0 0 0 6.292 8.866l-5.434 11.44c-7.722 0-13.299-2.43-16.302-7.293-4.147 4.72-11.727 7.437-20.88 7.437-15.587 0-24.595-7.866-24.595-20.737 0-13.728 10.152-22.308 27.17-23.452l15.73-1.001v-3.004c0-6.578-4.576-10.296-12.87-10.296a28.918 28.918 0 0 0-18.305 6.435zm26.17 32.461c-7.293.43-11.297 3.86-11.297 9.295 0 5.578 4.004 8.724 11.869 8.724 9.01 0 13.728-4.434 13.728-13.586v-5.291zM2060.055 846.525h-18.02v-71.503h18.02v27.601h27.6v-27.6h18.161v71.502h-18.162v-28.601h-27.6zM2184.893 823.358c0 14.73-10.153 23.167-28.315 23.167h-30.603v-71.503h18.02v25.027h12.583c18.162 0 28.315 8.437 28.315 23.31zm-28.315 8.294c6.72 0 10.154-2.859 10.154-8.294s-3.433-8.436-10.154-8.436h-12.584v16.73zM105.757 816.937h10.296c8.295-9.582 10.44-28.458 12.727-83.515h63.352v83.515h12.727v38.04h-14.873l-3.289-21.452h-62.78l-3.288 21.452h-14.872zm67.212 0v-66.498h-27.6c-1.86 34.75-4.004 54.485-9.296 66.498zM236.173 833.525h-18.019v-71.503h18.019v27.601h27.6v-27.6h18.162v71.502h-18.162v-28.601h-27.6zM311.103 729.703a10.655 10.655 0 1 1-10.583 10.726 10.449 10.449 0 0 1 10.583-10.726zm9.01 103.822h-18.02v-71.503h18.02zM340.417 833.525v-71.503h63.065v71.503H385.32v-56.058h-26.884v56.058zM460.822 760.736c18.734 0 29.317 13.3 29.317 37.037 0 23.74-10.44 37.04-29.317 37.04-8.295 0-14.73-2.86-19.163-8.152v32.606h-18.018v-97.245h17.017v8.152q6.864-9.438 20.164-9.438zm-3.861 16.016c-10.153 0-15.302 7.008-15.302 21.021 0 14.016 5.149 21.023 15.302 21.023 10.01 0 15.158-7.007 15.158-20.879 0-14.157-5.147-21.165-15.158-21.165zM535.61 834.813c-21.308 0-33.321-13.3-33.321-37.04 0-23.738 12.013-37.037 33.32-37.037 21.309 0 33.32 13.3 33.32 37.037 0 23.74-12.011 37.04-33.32 37.04zm0-16.017c10.01 0 15.159-7.007 15.159-21.023 0-14.013-5.149-21.021-15.16-21.021-10.01 0-15.158 7.008-15.158 21.021 0 14.016 5.149 21.023 15.158 21.023zM1299.254 259.337l-19.259-31.564v49.752h-14.23V202.63h14.551l21.506 36.379 21.506-36.38h14.55v74.897h-14.23v-49.752l-19.258 31.564zM1361.637 297.748a20.58 20.58 0 0 1-8.881-1.712l1.284-11.342a12.777 12.777 0 0 0 5.242 1.07c4.387 0 6.955-2.246 8.881-8.452l-20.33-53.284h14.445l12.305 34.988 12.197-34.988h14.445l-22.041 58.098c-4.387 11.663-8.881 15.622-17.547 15.622zM1423.481 277.525H1410V202.63h13.481v42.691l18.618-21.292h16.584l-19.58 21.934 21.078 31.563h-15.729l-14.766-22.04-6.205 7.06zM1489.608 278.488c-15.942 0-24.93-9.95-24.93-27.71 0-17.762 8.988-27.713 24.93-27.713s24.93 9.95 24.93 27.712c0 17.761-8.987 27.711-24.93 27.711zm0-11.983c7.49 0 11.341-5.242 11.341-15.728s-3.851-15.728-11.34-15.728c-7.597 0-11.342 5.242-11.342 15.728s3.745 15.728 11.341 15.728zM1548.563 266.398l.75 10.914a40.75 40.75 0 0 1-7.276.749c-9.844 0-15.407-4.922-15.407-13.803v-61.63h13.481v59.276c0 3.424 1.605 5.03 5.029 5.03a14.131 14.131 0 0 0 3.423-.536zM1556.91 230.448a34.073 34.073 0 0 1 22.04-7.383c14.338 0 21.72 6.313 21.72 18.724v21.4a6.593 6.593 0 0 0 4.708 6.633l-4.066 8.56c-5.778 0-9.95-1.82-12.197-5.457-3.103 3.531-8.773 5.563-15.62 5.563-11.664 0-18.404-5.884-18.404-15.513 0-10.272 7.596-16.692 20.329-17.548l11.77-.748v-2.247c0-4.922-3.424-7.704-9.63-7.704a21.63 21.63 0 0 0-13.696 4.815zm19.58 24.287c-5.457.322-8.453 2.89-8.453 6.955 0 4.173 2.996 6.527 8.88 6.527 6.741 0 10.272-3.317 10.272-10.164v-3.96zM1621.965 199.848a7.971 7.971 0 1 1-7.917 8.024 7.818 7.818 0 0 1 7.917-8.024zm6.741 77.677h-13.481v-53.497h13.481zM1671.076 277.525h-13.91l-19.687-53.497h14.445l12.304 36.592 12.198-36.592h14.444zM120.094 629.848h-14.337V554.95h14.337v33.704l28.675-33.704h17.547l-25.358 29.531 28.247 45.366h-16.799l-21.398-34.774-10.914 12.412zM177.447 576.35h12.733v7.49c3.851-5.564 8.987-8.452 15.942-8.452a20.32 20.32 0 0 1 7.49 1.39l-5.35 12.305a10.556 10.556 0 0 0-5.457-1.39c-7.597 0-11.876 5.67-11.876 15.62v26.535h-13.482zM230.197 650.07a20.58 20.58 0 0 1-8.88-1.712l1.284-11.341a12.777 12.777 0 0 0 5.242 1.07c4.386 0 6.955-2.247 8.88-8.453l-20.329-53.283h14.445l12.305 34.987 12.197-34.987h14.444l-22.04 58.097c-4.388 11.663-8.882 15.622-17.548 15.622zM305.738 629.848H291.83l-19.687-53.497h14.444l12.305 36.591 12.197-36.591h14.444zM341.69 650.07a20.58 20.58 0 0 1-8.88-1.712l1.284-11.341a12.777 12.777 0 0 0 5.242 1.07c4.387 0 6.955-2.247 8.88-8.453l-20.328-53.283h14.444l12.305 34.987 12.197-34.987h14.444l-22.04 58.097c-4.387 11.663-8.882 15.622-17.548 15.622zM396.795 552.17a7.971 7.971 0 1 1-7.917 8.024 7.818 7.818 0 0 1 7.917-8.024zm6.741 77.678h-13.481V576.35h13.481zM458.853 629.848h-14.337V554.95h31.35c14.657 0 24.287 8.988 24.287 22.79 0 10.165-5.135 17.654-14.444 20.757l17.868 31.35h-16.37l-15.622-28.675h-12.732zm0-62.164v21.505h13.696c8.666 0 13.053-3.637 13.053-10.699 0-7.168-4.387-10.806-13.053-10.806zM521.126 552.17a7.971 7.971 0 1 1-7.917 8.024 7.818 7.818 0 0 1 7.917-8.024zm6.741 77.678h-13.481V576.35h13.481zM556.542 629.848h-13.481V554.95h13.481v26.963c3.852-4.28 8.987-6.526 15.407-6.526 11.662 0 18.296 7.383 18.296 20.329v34.13h-13.588v-32.846c0-6.206-3.531-9.63-9.737-9.63-6.526 0-10.378 3.745-10.378 10.378zM1350.282 1007.503l1.926-40.552h43.01v11.877h-31.669l-.749 17.012c2.996-2.781 8.132-4.493 13.804-4.493 14.335 0 23.324 9.842 23.324 24.93 0 16.37-10.38 26.534-26.748 26.534-13.482 0-23.005-7.168-25.252-19.152l12.947-2.354c1.39 5.884 6.42 9.522 12.625 9.522 7.918 0 12.84-5.456 12.84-14.123 0-8.56-4.816-13.91-12.197-13.91a13.11 13.11 0 0 0-11.235 5.886zM1436.951 965.668c17.547 0 26 12.732 26 38.625 0 25.785-8.453 38.518-26 38.518s-26-12.733-26-38.518c0-25.893 8.453-38.625 26-38.625zm-12.412 38.625c0 17.012 4.387 26.534 12.412 26.534 8.024 0 12.41-9.522 12.41-26.534 0-17.12-4.386-26.642-12.41-26.642-8.025 0-12.412 9.523-12.412 26.642zM1500.08 965.668c17.547 0 26 12.732 26 38.625 0 25.785-8.453 38.518-26 38.518s-26-12.733-26-38.518c0-25.893 8.453-38.625 26-38.625zm-12.412 38.625c0 17.012 4.387 26.534 12.412 26.534 8.024 0 12.41-9.522 12.41-26.534 0-17.12-4.386-26.642-12.41-26.642-8.025 0-12.412 9.523-12.412 26.642zM1590.066 1032.968l-13.482-22.79v31.67h-12.732V988.35h13.695l15.3 25.57 15.194-25.57h13.803v53.497h-12.733v-31.67l-13.482 22.79zM1792.12 644.848h-14.337V569.95h28.996c15.728 0 25.893 9.416 25.893 23.967 0 14.552-10.272 23.967-25.893 23.967h-14.659zm12.626-62.164h-12.626v22.47h12.733c8.774 0 13.267-3.746 13.267-11.236 0-7.382-4.6-11.234-13.374-11.234zM1838.988 618.1c0-17.44 9.094-27.712 24.501-27.712s24.074 10.164 24.074 28.246v3.638h-35.2c.213 7.917 5.349 11.984 13.587 11.984a17.43 17.43 0 0 0 12.946-5.243l7.812 8.345a28.586 28.586 0 0 1-21.186 8.453c-16.797 0-26.534-9.737-26.534-27.711zm13.374-5.351h22.683c-.642-7.275-4.708-11.234-11.127-11.234-6.741 0-10.807 3.959-11.556 11.234zM1899.656 591.35h12.733v7.49c3.851-5.564 8.987-8.452 15.942-8.452a20.32 20.32 0 0 1 7.49 1.39l-5.35 12.305a10.56 10.56 0 0 0-5.457-1.39c-7.597 0-11.876 5.67-11.876 15.62v26.535h-13.482zM1972.2 644.848h-13.909l-19.688-53.497h14.445l12.305 36.591 12.197-36.591h14.444zM2021.955 645.81c-15.942 0-24.93-9.95-24.93-27.71 0-17.762 8.988-27.712 24.93-27.712s24.93 9.95 24.93 27.712c0 17.76-8.988 27.71-24.93 27.71zm0-11.983c7.49 0 11.34-5.242 11.34-15.727 0-10.487-3.85-15.729-11.34-15.729-7.597 0-11.342 5.242-11.342 15.729 0 10.485 3.745 15.727 11.342 15.727zM2072.458 644.848h-13.481V591.35h12.732v5.457a18.497 18.497 0 0 1 14.337-6.42 16.678 16.678 0 0 1 14.552 7.703 21.233 21.233 0 0 1 17.011-7.703c11.984 0 18.939 7.382 18.939 20.329v34.13h-13.482v-32.846c0-6.206-3.317-9.63-9.094-9.63-6.099 0-9.415 3.745-9.415 10.378v32.099h-13.59V612c0-6.206-3.316-9.63-9.094-9.63-5.991 0-9.415 3.745-9.415 10.378zM2149.392 597.77a34.073 34.073 0 0 1 22.04-7.382c14.338 0 21.72 6.312 21.72 18.723v21.4a6.593 6.593 0 0 0 4.708 6.634l-4.065 8.56c-5.778 0-9.95-1.82-12.197-5.458-3.104 3.531-8.774 5.564-15.621 5.564-11.664 0-18.404-5.885-18.404-15.514 0-10.272 7.597-16.692 20.33-17.548l11.769-.748v-2.247c0-4.922-3.424-7.704-9.63-7.704a21.63 21.63 0 0 0-13.695 4.815zm19.58 24.288c-5.456.32-8.452 2.89-8.452 6.955 0 4.173 2.996 6.526 8.88 6.526 6.74 0 10.272-3.316 10.272-10.164v-3.959zM2214.234 665.07a20.58 20.58 0 0 1-8.88-1.712l1.284-11.341a12.777 12.777 0 0 0 5.242 1.07c4.387 0 6.955-2.247 8.88-8.453l-20.328-53.283h14.444l12.305 34.987 12.197-34.987h14.444l-22.04 58.097c-4.387 11.663-8.882 15.622-17.548 15.622zM2280.145 645.81c-10.057 0-17.761-3.102-22.897-8.665l7.597-8.24c3.316 3.639 9.094 5.779 15.728 5.779 6.313 0 10.058-2.14 10.058-5.457 0-3.103-3.21-4.495-10.7-5.35-14.765-1.712-20.971-6.74-20.971-16.691 0-10.913 7.49-16.798 21.292-16.798 8.88 0 16.049 2.353 20.97 7.061l-8.131 7.918c-2.995-2.46-7.81-3.852-13.053-3.852-5.457 0-8.773 1.712-8.773 4.708 0 2.888 2.78 4.494 10.378 5.243 15.087 1.818 21.292 6.419 21.292 16.476 0 11.45-8.131 17.869-22.79 17.869zM2326.583 644.848h-13.481V569.95h13.481v42.692l18.617-21.292h16.584l-19.58 21.933 21.078 31.564h-15.728l-14.766-22.041-6.205 7.061zM116.06 946.848V871.95h29.96c19.58 0 29.85 14.873 29.85 37.448 0 22.684-10.27 37.449-29.85 37.449zm14.337-62.164v49.431h11.984c14.016 0 19.152-8.773 19.152-24.716 0-15.941-5.136-24.715-19.152-24.715zM202.194 946.848h-13.482V893.35h12.733v5.563c3.959-4.387 9.095-6.526 15.514-6.526 12.09 0 18.938 7.383 18.938 20.329v34.13h-13.588v-32.846c0-6.206-3.531-9.63-9.737-9.63-6.527 0-10.378 3.745-10.378 10.378zM257.19 869.17a7.971 7.971 0 1 1-7.916 8.024 7.818 7.818 0 0 1 7.917-8.024zm6.742 77.678h-13.481V893.35h13.481zM306.944 892.388c13.909 0 21.827 9.95 21.827 27.712 0 17.76-7.81 27.71-21.934 27.71-6.098 0-10.914-2.14-14.23-6.098v24.394h-13.482v-72.755h12.733v6.098c3.424-4.708 8.346-7.061 15.086-7.061zm-2.996 11.983c-7.49 0-11.341 5.242-11.341 15.729 0 10.485 3.851 15.727 11.34 15.727 7.491 0 11.343-5.242 11.343-15.621 0-10.593-3.852-15.835-11.342-15.835zM340.864 893.35h12.732v7.49c3.852-5.564 8.987-8.452 15.943-8.452a20.32 20.32 0 0 1 7.489 1.39l-5.35 12.305a10.556 10.556 0 0 0-5.457-1.39c-7.596 0-11.876 5.67-11.876 15.62v26.535h-13.481zM406.776 947.81c-15.943 0-24.93-9.95-24.93-27.71 0-17.762 8.987-27.712 24.93-27.712 15.941 0 24.93 9.95 24.93 27.712 0 17.76-8.989 27.71-24.93 27.71zm0-11.983c7.49 0 11.34-5.242 11.34-15.727 0-10.487-3.85-15.729-11.34-15.729-7.597 0-11.342 5.242-11.342 15.729 0 10.485 3.745 15.727 11.342 15.727zM1833.373 934.639V888.95h14.444v48.898c0 16.262-11.77 26.962-29.744 26.962-17.975 0-29.637-10.7-29.637-26.962V888.95h14.336v45.688c0 12.09 4.708 17.44 15.409 17.44 10.485 0 15.192-5.35 15.192-17.44zM1877.673 963.848h-13.482V910.35h12.733v5.457a18.497 18.497 0 0 1 14.337-6.42 16.678 16.678 0 0 1 14.551 7.703 21.233 21.233 0 0 1 17.012-7.703c11.984 0 18.939 7.382 18.939 20.329v34.13h-13.482v-32.846c0-6.206-3.317-9.63-9.094-9.63-6.1 0-9.415 3.745-9.415 10.378v32.099h-13.59V931c0-6.206-3.316-9.63-9.094-9.63-5.991 0-9.415 3.745-9.415 10.378zM1954.605 916.77a34.073 34.073 0 0 1 22.041-7.382c14.338 0 21.72 6.312 21.72 18.723v21.4a6.593 6.593 0 0 0 4.708 6.634l-4.065 8.56c-5.779 0-9.951-1.82-12.198-5.458-3.103 3.531-8.773 5.564-15.62 5.564-11.664 0-18.404-5.885-18.404-15.514 0-10.272 7.597-16.692 20.33-17.548l11.769-.748v-2.247c0-4.922-3.424-7.704-9.63-7.704a21.63 21.63 0 0 0-13.695 4.815zm19.58 24.288c-5.456.32-8.452 2.89-8.452 6.955 0 4.173 2.996 6.526 8.881 6.526 6.74 0 10.272-3.316 10.272-10.164v-3.959zM2026.402 963.848h-13.481V910.35h12.732v5.563c3.96-4.387 9.095-6.526 15.514-6.526 12.09 0 18.938 7.383 18.938 20.329v34.13h-13.587v-32.846c0-6.206-3.532-9.63-9.738-9.63-6.526 0-10.378 3.745-10.378 10.378z"/><rect x="879" y="92" width="290" height="140" rx="15" style="fill:#da251d"/><path class="a" d="M1154 97a10.011 10.011 0 0 1 10 10v110a10.011 10.011 0 0 1-10 10H894a10.011 10.011 0 0 1-10-10V107a10.011 10.011 0 0 1 10-10h260m0-10H894a20 20 0 0 0-20 20v110a20 20 0 0 0 20 20h260a20 20 0 0 0 20-20V107a20 20 0 0 0-20-20z"/><path class="a" d="M928.13 199.448h-14.337v-74.896h14.337v30.386h30.28v-30.386h14.337v74.896h-14.338v-31.777H928.13zM1017.367 175.588h-29.423v-12.41h29.423zM1061.13 199.448h-13.59V141.03c-2.888 3.745-10.164 7.276-16.904 8.453v-13.16c7.275-1.606 14.55-6.42 18.189-11.77h12.304zM1110.99 181.901h-34.132v-11.555l31.029-45.794h16.69v45.794h9.63V181.9h-9.63v17.547h-13.588zm-21.293-11.555h21.293v-31.242z"/></svg>