<svg id="layer1" xmlns="http://www.w3.org/2000/svg" width="1414" height="844">
<title>5.61.1 Покажчик відстаней</title>
<defs><style>.cls-1,.cls-5{fill:#fff}.cls-3{fill:#e30013}.cls-3,.cls-4{stroke:#fff;stroke-width:4.23353px}.cls-3,.cls-4,.cls-5{stroke-miterlimit:3.52794}.cls-4{fill:#04ae67}.cls-5{stroke:#000;stroke-width:5px}</style></defs><rect id="base" class="cls-1" x="2" y="2" width="1410" height="840" rx="45"/><path id="base-2" data-name="base" d="M1367 2a45 45 0 0 1 45 45v750a45 45 0 0 1-45 45H47a45 45 0 0 1-45-45V47A45 45 0 0 1 47 2h1320m0-2H47A47.053 47.053 0 0 0 0 47v750a47.053 47.053 0 0 0 47 47h1320a47.053 47.053 0 0 0 47-47V47a47.053 47.053 0 0 0-47-47z"/><rect x="17" y="17" width="1380" height="810" rx="35" style="fill:#005999" id="blue_rectangle" data-name="blue rectangle"/><g id="М-19"><path id="red_number" data-name="red number" class="cls-3" d="M71.07 43.5h187.86A11.341 11.341 0 0 1 270 55.097v86.81a11.34 11.34 0 0 1-11.07 11.593H71.07A11.34 11.34 0 0 1 60 141.907v-86.81A11.341 11.341 0 0 1 71.07 43.5z"/><g id="М-19-2" data-name="М-19"><path id="М" class="cls-1" d="m105.487 113.719-14.22-23.303v36.732H80.762V71.852h10.743l15.878 26.858 15.878-26.858h10.744v55.296h-10.506V90.416l-14.22 23.303z"/><path id="_-" data-name="-" class="cls-1" d="M166.949 109.532h-21.724v-9.163h21.724z"/><path id="_1" data-name="1" class="cls-1" d="M199.259 127.148h-10.033V84.017c-2.133 2.765-7.504 5.372-12.48 6.24v-9.716c5.37-1.185 10.742-4.74 13.428-8.69h9.085z"/><path id="_9" data-name="9" class="cls-1" d="M231.806 71.14c12.402 0 19.433 9.086 19.433 24.726 0 19.906-11.928 31.993-31.598 31.993l-2.054-8.768c14.298 0 23.303-6.951 23.382-17.3-1.422 3.16-5.687 5.371-11.217 5.371-10.19 0-17.22-7.11-17.22-17.457 0-10.98 7.978-18.564 19.274-18.564zm-.474 8.848c-5.53 0-8.769 3.871-8.769 9.163 0 5.214 3.24 9.244 8.769 9.244 5.53 0 8.847-4.03 8.847-9.244 0-5.37-3.475-9.163-8.847-9.163z"/></g></g><g id="E_85" data-name="E 85"><path id="green_number" data-name="green number" class="cls-4" d="M72.07 160.5h187.86A11.341 11.341 0 0 1 271 172.097v86.806a11.341 11.341 0 0 1-11.07 11.597H72.07A11.341 11.341 0 0 1 61 258.903v-86.806A11.341 11.341 0 0 1 72.07 160.5z"/><g id="E_85-2" data-name="E 85"><path id="E" class="cls-1" d="M129.5 243.148H91.663v-55.296h37.443v9.4h-26.858v13.192h22.434v9.4h-22.434v13.904H129.5z"/><path id="_8" data-name="8" class="cls-1" d="M174.453 243.86c-11.454 0-19.907-6.795-19.907-16.274a14.333 14.333 0 0 1 8.532-13.27 12.83 12.83 0 0 1-7.347-11.692c0-9.006 7.979-15.483 18.8-15.483 10.665 0 18.643 6.398 18.643 15.246a13.26 13.26 0 0 1-7.346 11.928 14.173 14.173 0 0 1 8.53 13.27c0 9.48-8.451 16.274-19.905 16.274zm.079-8.848c5.608 0 9.795-3.555 9.795-8.373 0-4.661-4.108-8.058-9.874-8.058-5.688 0-9.874 3.397-9.874 8.136 0 4.82 4.265 8.295 9.953 8.295zm-.08-24.647c5.056 0 8.69-3.002 8.69-7.267 0-4.108-3.713-7.11-8.69-7.11s-8.689 3.002-8.689 7.11c0 4.265 3.713 7.267 8.69 7.267z"/><path id="_5" data-name="5" class="cls-1" d="m203.684 217.791 1.422-29.94h31.756v8.77h-23.383l-.553 12.56c2.212-2.054 6.003-3.319 10.19-3.319 10.586 0 17.221 7.268 17.221 18.407 0 12.085-7.663 19.59-19.749 19.59-9.953 0-16.983-5.293-18.642-14.14l9.558-1.738c1.027 4.345 4.74 7.03 9.322 7.03 5.845 0 9.48-4.028 9.48-10.427 0-6.32-3.555-10.269-9.007-10.269a9.678 9.678 0 0 0-8.294 4.345z"/></g></g><g id="E_373" data-name="E 373"><path id="green_number-2" data-name="green number" class="cls-4" d="M59.888 424.5h210.224c6.843 0 12.388 5.191 12.388 11.597v86.806c0 6.406-5.545 11.597-12.388 11.597H59.888c-6.843 0-12.388-5.191-12.388-11.597v-86.806c0-6.406 5.545-11.597 12.388-11.597z"/><g id="E_373-2" data-name="E 373"><path id="E-2" data-name="E" class="cls-1" d="M105.275 507.148H67.437v-55.296h37.443v9.4H78.022v13.192h22.435v9.4H78.022v13.904h27.253z"/><path id="_3" data-name="3" class="cls-1" d="m140.905 466.624-9.636-1.264c1.342-8.295 9.084-14.22 19.037-14.22 10.427 0 17.932 6.32 17.932 15.326a12.528 12.528 0 0 1-7.19 11.77c5.215 2.133 8.296 6.793 8.296 12.876 0 9.874-7.9 16.747-19.117 16.747-10.585 0-18.722-6.162-19.986-14.851l9.717-1.58c1.185 4.66 5.135 7.584 10.427 7.584 5.372 0 8.927-3.002 8.927-7.979 0-4.897-3.476-8.216-9.006-8.216h-3.239v-8.214h3.239c4.819 0 7.9-2.923 7.9-7.426 0-4.424-3.16-7.189-8.058-7.189-4.74 0-8.374 2.529-9.243 6.636z"/><path id="_7" data-name="7" class="cls-1" d="M195.889 507.148h-10.823l19.197-46.528h-27.017v-8.768h37.996v8.53z"/><path id="_3-2" data-name="3" class="cls-1" d="m234.125 466.624-9.638-1.264c1.343-8.295 9.085-14.22 19.038-14.22 10.427 0 17.932 6.32 17.932 15.326a12.527 12.527 0 0 1-7.188 11.77c5.213 2.133 8.294 6.793 8.294 12.876 0 9.874-7.9 16.747-19.117 16.747-10.585 0-18.721-6.162-19.985-14.851l9.716-1.58c1.185 4.66 5.135 7.584 10.427 7.584 5.372 0 8.926-3.002 8.926-7.979 0-4.897-3.475-8.216-9.005-8.216h-3.239v-8.214h3.24c4.818 0 7.899-2.923 7.899-7.426 0-4.424-3.16-7.189-8.058-7.189-4.74 0-8.373 2.529-9.242 6.636z"/></g></g><g id="М-07"><path id="red_number-2" data-name="red number" class="cls-3" d="M71.07 307.5h187.86A11.341 11.341 0 0 1 270 319.097v86.81a11.34 11.34 0 0 1-11.07 11.593H71.07A11.34 11.34 0 0 1 60 405.907v-86.81A11.341 11.341 0 0 1 71.07 307.5z"/><g id="М-07-2" data-name="М-07"><path id="М-2" data-name="М" class="cls-1" d="m100.102 376.837-14.22-23.303v36.733H75.376V334.97H86.12l15.878 26.858 15.877-26.858h10.744v55.297h-10.506v-36.733l-14.22 23.303z"/><path id="_--2" data-name="-" class="cls-1" d="M161.564 372.65H139.84v-9.163h21.724z"/><path id="_0" data-name="0" class="cls-1" d="M189.608 334.022c12.955 0 19.195 9.4 19.195 28.517 0 19.038-6.24 28.439-19.195 28.439s-19.195-9.4-19.195-28.439c0-19.116 6.24-28.517 19.195-28.517zm-9.163 28.517c0 12.56 3.238 19.59 9.163 19.59s9.163-7.03 9.163-19.59c0-12.639-3.238-19.67-9.163-19.67s-9.163 7.031-9.163 19.67z"/><path id="_7-2" data-name="7" class="cls-1" d="M235.27 390.267h-10.822l19.195-46.529h-27.016v-8.768h37.997v8.531z"/></g></g><g id="E_372" data-name="E 372"><path id="green_number-3" data-name="green number" class="cls-4" d="M59.888 684.5h210.224c6.843 0 12.388 5.191 12.388 11.597v86.806c0 6.406-5.545 11.597-12.388 11.597H59.888c-6.843 0-12.388-5.191-12.388-11.597v-86.806c0-6.406 5.545-11.597 12.388-11.597z"/><g id="E_372-2" data-name="E 372"><path id="E-3" data-name="E" class="cls-1" d="M105.394 767.148H67.555v-55.296H105v9.4H78.14v13.192h22.435v9.4H78.14v13.904h27.253z"/><path id="_3-3" data-name="3" class="cls-1" d="m141.024 726.624-9.637-1.264c1.343-8.295 9.084-14.22 19.037-14.22 10.428 0 17.933 6.32 17.933 15.326a12.528 12.528 0 0 1-7.19 11.77c5.214 2.133 8.295 6.793 8.295 12.876 0 9.874-7.899 16.747-19.117 16.747-10.585 0-18.721-6.162-19.985-14.851l9.717-1.58c1.184 4.66 5.134 7.584 10.426 7.584 5.372 0 8.927-3.002 8.927-7.979 0-4.897-3.475-8.216-9.006-8.216h-3.238v-8.214h3.238c4.82 0 7.9-2.923 7.9-7.426 0-4.424-3.16-7.189-8.057-7.189-4.74 0-8.374 2.529-9.243 6.636z"/><path id="_7-3" data-name="7" class="cls-1" d="M196.007 767.148h-10.822l19.196-46.528h-27.016v-8.768h37.996v8.53z"/><path id="_2" data-name="2" class="cls-1" d="M262.445 758.3v8.848h-37.207v-8.453c9.796-8.69 26.543-21.88 26.543-31.992 0-4.03-3.16-6.715-8.058-6.715-5.608 0-9.006 3.634-9.006 9.795h-10.032c0-11.137 7.663-18.642 19.117-18.642 10.506 0 18.011 6.32 18.011 15.088 0 13.113-11.85 22.592-22.593 32.15z"/></g></g><g id="E_373-3" data-name="E 373"><path id="green_number-4" data-name="green number" class="cls-4" d="M59.888 567.5h210.224c6.843 0 12.388 5.191 12.388 11.597v86.806c0 6.406-5.545 11.597-12.388 11.597H59.888c-6.843 0-12.388-5.191-12.388-11.597v-86.806c0-6.406 5.545-11.597 12.388-11.597z"/><g id="E_373-4" data-name="E 373"><path id="E-4" data-name="E" class="cls-1" d="M105.275 650.148H67.437v-55.296h37.443v9.4H78.022v13.192h22.435v9.4H78.022v13.904h27.253z"/><path id="_3-4" data-name="3" class="cls-1" d="m140.905 609.624-9.636-1.264c1.342-8.295 9.084-14.22 19.037-14.22 10.427 0 17.932 6.32 17.932 15.326a12.528 12.528 0 0 1-7.19 11.77c5.215 2.133 8.296 6.793 8.296 12.876 0 9.874-7.9 16.747-19.117 16.747-10.585 0-18.722-6.162-19.986-14.851l9.717-1.58c1.185 4.66 5.135 7.584 10.427 7.584 5.372 0 8.927-3.002 8.927-7.979 0-4.897-3.476-8.216-9.006-8.216h-3.239v-8.214h3.239c4.819 0 7.9-2.923 7.9-7.426 0-4.424-3.16-7.189-8.058-7.189-4.74 0-8.374 2.529-9.243 6.636z"/><path id="_7-4" data-name="7" class="cls-1" d="M195.889 650.148h-10.823l19.197-46.528h-27.017v-8.768h37.996v8.53z"/><path id="_3-5" data-name="3" class="cls-1" d="m234.125 609.624-9.638-1.264c1.343-8.295 9.085-14.22 19.038-14.22 10.427 0 17.932 6.32 17.932 15.326a12.527 12.527 0 0 1-7.188 11.77c5.213 2.133 8.294 6.793 8.294 12.876 0 9.874-7.9 16.747-19.117 16.747-10.585 0-18.721-6.162-19.985-14.851l9.716-1.58c1.185 4.66 5.135 7.584 10.427 7.584 5.372 0 8.926-3.002 8.926-7.979 0-4.897-3.475-8.216-9.005-8.216h-3.239v-8.214h3.24c4.818 0 7.899-2.923 7.899-7.426 0-4.424-3.16-7.189-8.058-7.189-4.74 0-8.373 2.529-9.242 6.636z"/></g></g><g id="UA"><ellipse id="ellipse" class="cls-5" cx="845" cy="429.5" rx="90" ry="50"/><g id="UA-2" data-name="UA"><path id="U" d="M829.16 435.3v-34.16h10.8v36.56c0 12.16-8.8 20.16-22.24 20.16s-22.16-8-22.16-20.16v-36.56h10.719v34.16c0 9.04 3.52 13.04 11.52 13.04 7.84 0 11.36-4 11.36-13.04z"/><path id="A" d="M879.561 446.18h-20.64l-3.521 10.96h-11.36l19.36-56h11.68l19.36 56h-11.36zm-2.96-8.96-7.36-22.88-7.44 22.88z"/></g></g><g id="PL"><ellipse id="ellipse-2" data-name="ellipse" class="cls-5" cx="1036" cy="429.5" rx="90" ry="50"/><g id="PL-2" data-name="PL"><path id="P" d="M1003.56 457.5h-10.72v-56h21.68c11.76 0 19.362 7.04 19.362 17.92s-7.682 17.92-19.361 17.92h-10.961zm9.441-46.48h-9.441v16.8h9.521c6.559 0 9.92-2.8 9.92-8.4 0-5.52-3.44-8.4-10-8.4z"/><path id="L" d="M1079.16 457.5h-36.241v-56h10.72v46.48h25.52z"/></g></g><g id="PL-3" data-name="PL"><ellipse id="ellipse-3" data-name="ellipse" class="cls-5" cx="964" cy="685.5" rx="90" ry="50"/><g id="PL-4" data-name="PL"><path id="P-2" data-name="P" d="M931.56 713.5h-10.72v-56h21.68c11.76 0 19.362 7.04 19.362 17.92s-7.682 17.92-19.361 17.92H931.56zM941 667.02h-9.441v16.8h9.521c6.559 0 9.92-2.8 9.92-8.4 0-5.52-3.44-8.4-10-8.4z"/><path id="L-2" data-name="L" d="M1007.16 713.5h-36.241v-56h10.72v46.48h25.52z"/></g></g><g id="Ковель"><path id="К" class="cls-1" d="M350.856 74.932h14.472v30.348h8.532l19.225-30.348h17.064l-24.192 36.72 26.46 38.881h-17.064l-21.384-32.4h-8.64v32.4h-14.473z"/><path id="о" class="cls-1" d="M441.036 151.505c-16.092 0-25.164-10.044-25.164-27.972 0-17.929 9.072-27.972 25.164-27.972 16.093 0 25.165 10.043 25.165 27.972 0 17.928-9.072 27.972-25.165 27.972zm0-12.096c7.56 0 11.448-5.292 11.448-15.876 0-10.585-3.887-15.876-11.448-15.876-7.56 0-11.448 5.291-11.448 15.876 0 10.584 3.889 15.876 11.448 15.876z"/><path id="в" class="cls-1" d="M523.224 111.329a13.193 13.193 0 0 1-6.05 11.556 13.016 13.016 0 0 1 7.777 12.42c0 9.72-7.776 15.228-21.492 15.228h-25.057v-54h24.193c13.176 0 20.629 5.4 20.629 14.796zm-20.197 7.128c4.104 0 6.48-2.053 6.48-5.616 0-3.456-2.376-5.509-6.48-5.509h-11.016v11.125zm1.188 21.276c4.428 0 7.02-2.16 7.02-5.94 0-3.672-2.592-5.725-7.02-5.725H492.01v11.665z"/><path id="е" class="cls-1" d="M533.806 123.533c0-17.604 9.18-27.972 24.732-27.972s24.3 10.26 24.3 28.512v3.672h-35.532c.215 7.992 5.4 12.096 13.716 12.096a17.593 17.593 0 0 0 13.068-5.292l7.885 8.424a28.853 28.853 0 0 1-21.385 8.532c-16.956 0-26.784-9.828-26.784-27.972zm13.5-5.4h22.896c-.648-7.344-4.752-11.34-11.232-11.34-6.804 0-10.908 3.996-11.664 11.34z"/><path id="л" class="cls-1" d="M588.453 140.165c9.18-2.484 11.125-8.748 12.637-43.633h39.205v54.001h-13.608v-42.445h-13.501c-1.296 30.889-5.94 40.285-21.708 43.85z"/><path id="ь" class="cls-1" d="M700.125 133.037c0 11.124-7.668 17.496-21.385 17.496h-23.112v-54h13.608v18.9h9.504c13.717 0 21.385 6.372 21.385 17.604zm-21.385 6.264c5.076 0 7.668-2.16 7.668-6.264s-2.592-6.372-7.668-6.372h-9.504v12.636z"/></g><g id="Kovel"><path class="cls-1" d="M362.562 238.033h-10.72v-56.002h10.72v25.201l21.44-25.2h13.121l-18.96 22.08 21.12 33.921h-12.56l-16-26-8.16 9.28zM420.084 238.753c-11.92 0-18.64-7.44-18.64-20.72 0-13.281 6.72-20.72 18.64-20.72 11.92 0 18.64 7.439 18.64 20.72 0 13.28-6.72 20.72-18.64 20.72zm0-8.96c5.6 0 8.48-3.92 8.48-11.76s-2.88-11.76-8.48-11.76c-5.68 0-8.48 3.92-8.48 11.76s2.8 11.76 8.48 11.76zM467.603 238.033h-10.4l-14.722-40h10.801l9.2 27.36 9.12-27.36h10.8zM486.162 218.033c0-13.04 6.8-20.72 18.32-20.72s18 7.6 18 21.12v2.72h-26.32c.16 5.92 4 8.96 10.16 8.96a13.037 13.037 0 0 0 9.68-3.92l5.84 6.24a21.37 21.37 0 0 1-15.84 6.32c-12.56 0-19.84-7.28-19.84-20.72zm10-4h16.96c-.48-5.44-3.52-8.4-8.32-8.4-5.04 0-8.08 2.96-8.64 8.4zM547.92 229.713l.561 8.16a30.456 30.456 0 0 1-5.44.56c-7.36 0-11.52-3.68-11.52-10.32v-46.082h10.08v44.322c0 2.56 1.2 3.76 3.76 3.76a10.53 10.53 0 0 0 2.56-.4z"/></g><g id="Ягодин"><path id="Я" class="cls-1" d="M393.953 418.033v-28.512H381.21l-14.797 28.512h-16.308l16.524-30.456c-9.18-3.348-14.688-11.232-14.688-21.709 0-14.256 10.26-23.436 26.029-23.436h30.564v75.601zm-13.932-41.365h13.932v-21.384h-13.932c-8.857 0-13.5 3.672-13.5 10.693 0 7.02 4.643 10.691 13.5 10.691z"/><path id="г" class="cls-1" d="M425.056 364.032h36.829v11.664h-23.22v42.337h-13.61z"/><path id="о-2" data-name="о" class="cls-1" d="M492.447 419.005c-16.092 0-25.164-10.044-25.164-27.972 0-17.929 9.072-27.972 25.164-27.972 16.093 0 25.165 10.043 25.165 27.972 0 17.928-9.072 27.972-25.165 27.972zm0-12.096c7.56 0 11.449-5.292 11.449-15.876 0-10.585-3.888-15.877-11.449-15.877-7.56 0-11.448 5.292-11.448 15.877 0 10.584 3.889 15.876 11.448 15.876z"/><path id="д" class="cls-1" d="M523.442 433.153V406.37h5.832c4.86-4.32 5.94-14.688 6.912-42.337h39.745v42.337h8.1v26.784h-10.368l-2.484-15.12h-34.885l-2.376 15.12zm38.88-26.784v-30.781h-14.04c-.54 14.58-1.727 24.193-4.32 30.781z"/><path id="и" class="cls-1" d="M629.821 364.032h12.853v54.001h-13.609v-32.076l-22.463 32.076h-12.853v-54h13.608v32.075z"/><path id="н" class="cls-1" d="M671.616 418.033h-13.608v-54h13.608v20.844h20.845v-20.845h13.716v54.001H692.46v-21.6h-20.845z"/></g><g id="Yahodyn"><path class="cls-1" d="M379.972 506.828H369.17v-22.64l-18.08-33.36h11.84l11.6 22.799 11.6-22.8h11.84l-18 33.36zM397.49 471.627a25.478 25.478 0 0 1 16.48-5.52c10.72 0 16.24 4.72 16.24 14v16a4.932 4.932 0 0 0 3.52 4.961l-3.04 6.4c-4.319 0-7.439-1.36-9.12-4.08-2.319 2.64-6.56 4.16-11.68 4.16-8.72 0-13.76-4.4-13.76-11.6 0-7.68 5.68-12.48 15.2-13.12l8.8-.56v-1.68c0-3.68-2.56-5.76-7.2-5.76a16.173 16.173 0 0 0-10.24 3.6zm14.64 18.161c-4.08.24-6.32 2.16-6.32 5.2 0 3.12 2.24 4.88 6.64 4.88 5.04 0 7.68-2.48 7.68-7.6v-2.96zM451.17 506.828h-10.08v-56h10.08v20.16a14.798 14.798 0 0 1 11.52-4.88c8.721 0 13.681 5.519 13.681 15.2v25.52h-10.16v-24.56c0-4.64-2.64-7.2-7.28-7.2-4.88 0-7.76 2.8-7.76 7.76zM503.571 507.548c-11.92 0-18.64-7.44-18.64-20.72 0-13.281 6.72-20.72 18.64-20.72 11.92 0 18.64 7.439 18.64 20.72 0 13.28-6.72 20.72-18.64 20.72zm0-8.96c5.6 0 8.48-3.92 8.48-11.76s-2.88-11.76-8.48-11.76c-5.68 0-8.48 3.92-8.48 11.76s2.8 11.76 8.48 11.76zM545.25 507.548c-10.4 0-16.32-7.44-16.32-20.72 0-13.281 5.92-20.72 16.4-20.72 4.56 0 8.16 1.519 10.64 4.559v-19.84h10.16v56.001h-9.6v-4.56c-2.48 3.44-6.24 5.28-11.28 5.28zm2.24-8.96c5.6 0 8.48-3.92 8.48-11.76s-2.88-11.76-8.48-11.76c-5.6 0-8.4 3.92-8.4 11.68 0 7.92 2.8 11.84 8.4 11.84zM582.929 521.948a15.363 15.363 0 0 1-6.64-1.28l.96-8.48a9.557 9.557 0 0 0 3.92.8c3.28 0 5.2-1.68 6.64-6.32l-15.2-39.84h10.8l9.2 26.16 9.12-26.16h10.8l-16.48 43.44c-3.28 8.72-6.64 11.68-13.12 11.68zM629.169 506.828h-10.081v-40h9.52v4.16a14.82 14.82 0 0 1 11.601-4.88c9.04 0 14.16 5.519 14.16 15.2v25.52h-10.16v-24.56c0-4.64-2.64-7.2-7.28-7.2-4.88 0-7.76 2.8-7.76 7.76z"/></g><g id="Варшава"><path id="В-2" data-name="В" class="cls-1" d="M353.493 665.033v-75.601h31.105c14.471 0 23.976 7.776 23.976 19.764 0 7.452-3.78 13.609-9.936 16.2 7.992 3.348 12.204 9.397 12.204 17.712 0 13.393-10.153 21.925-25.704 21.925zm29.916-62.749h-15.444v18.145h15.444c6.805 0 10.693-3.24 10.693-9.073s-3.888-9.072-10.693-9.072zm1.62 30.24h-17.064v19.657h17.064c7.128 0 11.233-3.564 11.233-9.828 0-6.264-4.105-9.829-11.233-9.829z"/><path id="а" class="cls-1" d="M422.396 617.513a34.393 34.393 0 0 1 22.248-7.452c14.473 0 21.925 6.372 21.925 18.9v21.6a6.655 6.655 0 0 0 4.752 6.696l-4.104 8.64c-5.832 0-10.044-1.835-12.312-5.508-3.133 3.564-8.856 5.616-15.768 5.616-11.773 0-18.577-5.94-18.577-15.66 0-10.368 7.668-16.848 20.521-17.712l11.88-.756v-2.269c0-4.967-3.456-7.776-9.72-7.776a21.84 21.84 0 0 0-13.825 4.86zm19.764 24.516c-5.508.324-8.531 2.916-8.531 7.02 0 4.212 3.023 6.588 8.964 6.588 6.803 0 10.368-3.348 10.368-10.26v-3.996z"/><path id="р" class="cls-1" d="M509.336 610.06c14.147 0 22.14 10.044 22.14 27.973 0 17.928-7.884 27.972-22.14 27.972-6.265 0-11.125-2.16-14.473-6.155v24.624h-13.608v-73.442h12.852v6.156q5.185-7.127 15.229-7.127zm-2.916 12.096c-7.669 0-11.557 5.292-11.557 15.877 0 10.584 3.888 15.876 11.557 15.876 7.56 0 11.447-5.292 11.447-15.768 0-10.693-3.888-15.985-11.447-15.985z"/><path id="ш" class="cls-1" d="M587.743 611.032v42.337h16.74v-42.337h13.609v54.001h-74.306v-54h13.609v42.336h16.74v-42.337z"/><path id="а-2" data-name="а" class="cls-1" d="M631.913 617.513a34.393 34.393 0 0 1 22.248-7.452c14.473 0 21.925 6.372 21.925 18.9v21.6a6.655 6.655 0 0 0 4.752 6.696l-4.105 8.64c-5.832 0-10.044-1.835-12.311-5.508-3.133 3.564-8.857 5.616-15.769 5.616-11.772 0-18.576-5.94-18.576-15.66 0-10.368 7.668-16.848 20.52-17.712l11.88-.756v-2.269c0-4.967-3.456-7.776-9.72-7.776a21.84 21.84 0 0 0-13.824 4.86zm19.765 24.516c-5.51.324-8.532 2.916-8.532 7.02 0 4.212 3.023 6.588 8.963 6.588 6.804 0 10.369-3.348 10.369-10.26v-3.996z"/><path id="в-3" data-name="в" class="cls-1" d="M735.594 625.828a13.193 13.193 0 0 1-6.05 11.557 13.016 13.016 0 0 1 7.777 12.42c0 9.72-7.776 15.228-21.492 15.228h-25.057v-54h24.193c13.177 0 20.629 5.4 20.629 14.795zm-20.197 7.129c4.104 0 6.48-2.053 6.48-5.616 0-3.456-2.376-5.509-6.48-5.509h-11.016v11.125zm1.188 21.276c4.428 0 7.02-2.16 7.02-5.94 0-3.672-2.592-5.725-7.02-5.725h-12.204v11.665z"/><path id="а-3" data-name="а" class="cls-1" d="M748.12 617.513a34.393 34.393 0 0 1 22.248-7.452c14.473 0 21.925 6.372 21.925 18.9v21.6a6.655 6.655 0 0 0 4.752 6.696l-4.105 8.64c-5.832 0-10.044-1.835-12.311-5.508-3.133 3.564-8.857 5.616-15.769 5.616-11.772 0-18.576-5.94-18.576-15.66 0-10.368 7.668-16.848 20.52-17.712l11.88-.756v-2.269c0-4.967-3.455-7.776-9.72-7.776a21.84 21.84 0 0 0-13.824 4.86zm19.765 24.516c-5.509.324-8.532 2.916-8.532 7.02 0 4.212 3.023 6.588 8.963 6.588 6.804 0 10.369-3.348 10.369-10.26v-3.996z"/></g><g id="Warsaw"><path id="W" class="cls-1" d="M408.732 755.84h-11.68l-10.08-37.602-10.08 37.602h-11.6l-14.32-56.002h11.2l9.28 39.922 10.56-39.922h10l10.56 39.922 9.28-39.922h11.2z"/><path id="a-2" data-name="a" class="cls-1" d="M425.291 720.639a25.478 25.478 0 0 1 16.48-5.52c10.72 0 16.24 4.719 16.24 14v16a4.932 4.932 0 0 0 3.52 4.961l-3.04 6.399c-4.32 0-7.44-1.36-9.12-4.08-2.32 2.64-6.56 4.16-11.68 4.16-8.72 0-13.76-4.399-13.76-11.6 0-7.68 5.68-12.48 15.2-13.121l8.8-.559v-1.68c0-3.681-2.56-5.761-7.2-5.761a16.174 16.174 0 0 0-10.24 3.601zm14.64 18.16c-4.08.24-6.32 2.16-6.32 5.201 0 3.12 2.24 4.879 6.64 4.879 5.04 0 7.68-2.48 7.68-7.6v-2.96z"/><path id="r" class="cls-1" d="M468.89 715.838h9.521v5.601a13.633 13.633 0 0 1 11.921-6.32 15.194 15.194 0 0 1 5.6 1.04l-4 9.2a7.893 7.893 0 0 0-4.08-1.04c-5.681 0-8.88 4.24-8.88 11.68v19.84H468.89z"/><path id="s" class="cls-1" d="M515.852 756.559c-7.52 0-13.28-2.319-17.12-6.479l5.68-6.16c2.48 2.719 6.8 4.318 11.76 4.318 4.72 0 7.52-1.6 7.52-4.08 0-2.318-2.4-3.36-8-4-11.04-1.28-15.68-5.039-15.68-12.478 0-8.162 5.6-12.56 15.92-12.56 6.64 0 12 1.759 15.68 5.278l-6.08 5.92c-2.24-1.84-5.84-2.879-9.76-2.879-4.08 0-6.56 1.28-6.56 3.52 0 2.16 2.08 3.36 7.76 3.92 11.28 1.36 15.92 4.8 15.92 12.32 0 8.56-6.08 13.36-17.04 13.36z"/><path id="a-3" data-name="a" class="cls-1" d="M539.132 720.639a25.478 25.478 0 0 1 16.48-5.52c10.72 0 16.24 4.719 16.24 14v16a4.932 4.932 0 0 0 3.52 4.961l-3.04 6.399c-4.32 0-7.44-1.36-9.12-4.08-2.32 2.64-6.56 4.16-11.68 4.16-8.72 0-13.76-4.399-13.76-11.6 0-7.68 5.68-12.48 15.2-13.121l8.8-.559v-1.68c0-3.681-2.56-5.761-7.2-5.761a16.174 16.174 0 0 0-10.24 3.601zm14.64 18.16c-4.08.24-6.32 2.16-6.32 5.201 0 3.12 2.24 4.879 6.64 4.879 5.04 0 7.68-2.48 7.68-7.6v-2.96z"/><path id="w-2" data-name="w" class="cls-1" d="M625.533 755.84h-10.48l-7.76-26.48-7.68 26.48h-10.48l-11.841-40.002h10.56l6.96 27.201 7.92-27.201h9.2l7.922 27.201 6.96-27.201h10.56z"/></g><g id="_65" data-name="65"><path id="_6" data-name="6" class="cls-1" d="M1254.382 204.005c-16.849 0-26.461-12.312-26.461-33.804 0-27.217 16.308-43.741 43.201-43.741l2.808 11.988c-19.548 0-31.752 9.504-31.968 23.653 1.943-4.644 7.775-7.885 15.444-7.885 13.932 0 23.436 9.936 23.436 24.085 0 15.228-10.908 25.704-26.46 25.704zm.756-12.096c7.56 0 11.988-5.4 11.988-12.744 0-7.345-4.428-12.96-11.988-12.96s-12.096 5.615-12.096 12.96c0 7.452 4.752 12.744 12.096 12.744z"/><path id="_5-2" data-name="5" class="cls-1" d="m1294.018 168.364 1.943-40.932h43.417v11.988h-31.969l-.756 17.172c3.025-2.808 8.208-4.535 13.933-4.535 14.472 0 23.544 9.935 23.544 25.164 0 16.524-10.477 26.784-27 26.784-13.609 0-23.22-7.235-25.49-19.332l13.069-2.376c1.404 5.94 6.48 9.612 12.744 9.612 7.992 0 12.961-5.508 12.961-14.257 0-8.64-4.86-14.039-12.312-14.039a13.233 13.233 0 0 0-11.34 5.94z"/></g><g id="_130" data-name="130"><path id="_1-2" data-name="1" class="cls-1" d="M1209.719 467.033h-13.717v-58.969c-2.916 3.78-10.26 7.344-17.064 8.532v-13.284c7.344-1.62 14.688-6.48 18.36-11.88h12.42z"/><path id="_3-6" data-name="3" class="cls-1" d="m1241.9 411.629-13.175-1.729c1.836-11.34 12.42-19.44 26.028-19.44 14.256 0 24.517 8.64 24.517 20.952 0 7.236-3.565 13.068-9.83 16.092 7.13 2.917 11.341 9.289 11.341 17.604 0 13.501-10.8 22.897-26.136 22.897-14.472 0-25.597-8.424-27.325-20.304l13.284-2.16c1.62 6.372 7.021 10.368 14.256 10.368 7.345 0 12.204-4.104 12.204-10.908 0-6.696-4.752-11.232-12.311-11.232h-4.429v-11.232h4.429c6.588 0 10.8-3.996 10.8-10.152 0-6.05-4.32-9.828-11.016-9.828-6.48 0-11.448 3.455-12.637 9.072z"/><path id="_0-2" data-name="0" class="cls-1" d="M1318.364 390.136c17.713 0 26.244 12.852 26.244 38.989 0 26.028-8.53 38.88-26.244 38.88-17.712 0-26.244-12.852-26.244-38.88 0-26.137 8.532-38.99 26.244-38.99zm-12.528 38.989c0 17.172 4.429 26.784 12.528 26.784 8.1 0 12.529-9.612 12.529-26.784 0-17.281-4.428-26.893-12.529-26.893-8.1 0-12.528 9.612-12.528 26.893z"/></g><g id="_400" data-name="400"><path id="_4" data-name="4" class="cls-1" d="M1190.705 689.321h-34.453v-11.665l31.32-46.224h16.85v46.224h9.719v11.665h-9.72v17.712h-13.716zm-21.492-11.665h21.492V646.12z"/><path class="cls-1" d="M1249.023 630.136c17.713 0 26.245 12.852 26.245 38.989 0 26.028-8.532 38.88-26.245 38.88-17.71 0-26.244-12.852-26.244-38.88 0-26.137 8.534-38.99 26.244-38.99zm-12.527 38.989c0 17.172 4.428 26.784 12.527 26.784 8.102 0 12.53-9.612 12.53-26.784 0-17.281-4.428-26.893-12.53-26.893-8.1 0-12.527 9.612-12.527 26.893z"/><path id="_0-3" data-name="0" class="cls-1" d="M1312.744 630.136c17.713 0 26.244 12.852 26.244 38.989 0 26.028-8.531 38.88-26.244 38.88s-26.244-12.852-26.244-38.88c0-26.137 8.531-38.99 26.244-38.99zm-12.53 38.989c0 17.172 4.43 26.784 12.53 26.784s12.527-9.612 12.527-26.784c0-17.281-4.427-26.893-12.527-26.893s-12.53 9.612-12.53 26.893z"/></g></svg>