<svg xmlns="http://www.w3.org/2000/svg" width="404" height="204">
<title>5.68 Кілометровий знак</title>
<defs><style>.a{fill:#fff}</style></defs><rect class="a" x="1" y="1" width="402" height="202" rx="46"/><path d="M357 2a45 45 0 0 1 45 45v110a45 45 0 0 1-45 45H47a45 45 0 0 1-45-45V47A45 45 0 0 1 47 2h310m0-2H47A47.053 47.053 0 0 0 0 47v110a47.053 47.053 0 0 0 47 47h310a47.053 47.053 0 0 0 47-47V47a47.053 47.053 0 0 0-47-47z"/><rect x="12" y="12" width="380" height="180" rx="35" style="fill:#005da2"/><path class="a" d="M110.37 133.62H56.142v-18.36l49.3-72.759h26.52v72.759h15.3v18.36h-15.3V161.5h-21.59zm-33.829-18.36h33.83V65.62zM210.67 133.62h-54.23v-18.36l49.3-72.759h26.52v72.759h15.3v18.36h-15.3V161.5h-21.59zm-33.83-18.36h33.83V65.62zM310.97 133.62h-54.23v-18.36l49.3-72.759h26.52v72.759h15.299v18.36h-15.3V161.5h-21.59zm-33.83-18.36h33.83V65.62z"/></svg>