<svg xmlns="http://www.w3.org/2000/svg" width="1050" height="350" xmlns:v="https://vecta.io/nano"><rect x=".5" y=".5" width="1049" height="349" rx="44.5" fill="#fff"/><path d="M1005 1a44.05 44.05 0 0 1 44 44v260a44.05 44.05 0 0 1-44 44H45a44.05 44.05 0 0 1-44-44V45A44.05 44.05 0 0 1 45 1h960m0-1H45A45 45 0 0 0 0 45v260a45 45 0 0 0 45 45h960a45 45 0 0 0 45-45V45a45 45 0 0 0-45-45zm0 20a25.028 25.028 0 0 1 25 25v260a25.028 25.028 0 0 1-25 25H45a25.028 25.028 0 0 1-25-25V45a25.028 25.028 0 0 1 25-25h960m0-10H45a35 35 0 0 0-35 35v260a35 35 0 0 0 35 35h960a35 35 0 0 0 35-35V45a35 35 0 0 0-35-35zM172.313 226.513s20.68 24.816 57.528 24.816c32.337 0 41.361-21.056 41.361-28.952v-.376c0-8.272-.376-25.944-47.377-32.713-58.657-8.648-65.802-42.864-65.802-59.033 0-36.849 31.585-65.801 76.33-65.801 36.849 0 71.065 28.952 71.065 28.952l-24.44 26.32S261.801 98.67 234.353 98.67c-31.585 0-39.48 20.68-39.48 30.832 0 20.305 26.32 23.688 55.272 29.705 36.849 7.896 59.785 28.952 59.785 60.537 0 26.32-28.2 65.801-80.842 65.801-47.377 0-82.721-36.849-82.721-36.849zM501.689 69.718v31.585h-57.904v178.98h-36.849v-178.98h-57.905V69.718zM713.378 175c0 60.913-27.825 110.546-85.73 110.546s-85.73-49.633-85.73-110.546 27.825-110.546 85.729-110.546 85.73 49.633 85.73 110.546zm-135.739 0c0 47.377 21.057 76.329 50.009 76.329s50.01-28.952 50.01-76.329-21.057-76.329-50.01-76.329-50.009 28.952-50.009 76.329zm257.56-105.282c50.009 0 68.433 39.481 68.433 68.434s-18.424 68.434-68.433 68.434h-34.217v73.697h-36.849V69.718zM800.982 175h23.688c21.057 0 42.112-10.528 42.112-36.849s-21.056-36.849-42.112-36.849h-23.688z"/></svg>