<svg xmlns="http://www.w3.org/2000/svg" width="1054" height="354">
<title>5.7.1 Виїзд на дорогу з одностороннім рухом</title>
<defs><style>.a{fill:#fff}</style></defs><rect class="a" x="1" y="1" width="1052" height="352" rx="46"/><path d="M1007 2a45 45 0 0 1 45 45v260a45 45 0 0 1-45 45H47a45 45 0 0 1-45-45V47A45 45 0 0 1 47 2h960m0-2H47A47.053 47.053 0 0 0 0 47v260a47.053 47.053 0 0 0 47 47h960a47.053 47.053 0 0 0 47-47V47a47.053 47.053 0 0 0-47-47z"/><rect x="12" y="12" width="1030" height="330" rx="35" style="fill:#055c9d"/><path class="a" d="M805 272v-65H12v-60h793V82l164.54 95L805 272z"/></svg>