<svg xmlns="http://www.w3.org/2000/svg" width="600" height="900"><path d="M550 0H50C22.5 0 0 22.5 0 50v800c0 27.5 22.5 50 50 50h500c27.5 0 50-22.5 50-50V50c0-27.5-22.5-50-50-50h0z"/><path fill="#fff" d="M550 .5c27.295 0 49.5 22.206 49.5 49.5v800c0 27.295-22.205 49.5-49.5 49.5H50C22.706 899.5.5 877.295.5 850V50C.5 22.706 22.706.5 50 .5h500"/><path fill="#005ca1" d="M587.791 851c0 19.25-15.75 35-35 35H48.209c-19.25 0-35.015-16.75-35.015-36V48.103c0-19.25 14.765-35.641 34.015-35.641h506.582c19.25 0 34 15.4 34 34.641V851z"/><path fill="#fff" d="M534.625 566.463c0 18.461-13.926 33.57-32.39 33.57H98.765c-18.463 0-32.515-15.109-32.515-33.57V164.57c0-18.464 14.052-33.57 32.515-33.57h403.471c18.464 0 32.39 15.1 32.39 33.57l-.001 401.893h0z"/><path d="M92.5 187.128c0-6.5 6.37-12.628 13.12-12.628H496.5c4.4 0 8 3.6 8 8V237c0 4.4-3.58 7.618-7.955 7.15L104.03 201.349c-5.03-.474-11.53-4.471-11.53-14.221z"/><circle cx="146.75" cy="284.5" r="56.25"/><circle fill="#fff" cx="146.75" cy="284.5" r="42.5"/><g fill="none" stroke="#000" stroke-linecap="round" stroke-linejoin="round" stroke-miterlimit="10"><path stroke-width="7" d="M125.455 270.706l21.295 18.461"/><path stroke-width="8" d="M146.75 253.667v34.75"/></g><circle cx="152.792" cy="531.707" r="28.208"/><circle cx="403.7" cy="531.707" r="28.208"/><path d="M497.667 382.667H123.5c-6.75 0-8.375 5.333-8.375 5.333l-23 60.25 1.75 68.875c0 10.625 9.625 11.375 9.625 11.375h13.125c0-5.875 7-33.5 36.167-33.5 30.333 0 36.708 29.625 36.708 33.5h177.125c0-4.25 7.125-33.429 37.074-33.429 30.468 0 36.135 30.262 36.135 32.762h58c7.667 0 9-8 9-8v-127.5c0-9-9.167-9.666-9.167-9.666zm-297.604 61.564c0 2.75-2.25 5-5 5H112.32c-3.654 0-6.754-3.226-5.225-7.864l13.771-37.77c.936-2.586 3.383-3.431 6.133-3.431h68.063c2.75 0 5 2.25 5 5v39.065zm97.833 0c0 2.75-2.25 5-5 5h-75.333c-2.75 0-5-2.25-5-5v-39.064c0-2.75 2.25-5 5-5h75.333c2.75 0 5 2.25 5 5v39.064zm97.437 0c0 2.75-2.25 5-5 5H315c-2.75 0-5-2.25-5-5v-39.064c0-2.75 2.25-5 5-5h75.333c2.75 0 5 2.25 5 5v39.064zm97.834 0c0 2.75-2.25 5-5 5h-75.333c-2.75 0-5-2.25-5-5v-39.064c0-2.75 2.25-5 5-5h75.333c2.75 0 5 2.25 5 5v39.064z"/></svg>