<svg xmlns="http://www.w3.org/2000/svg" width="600" height="900" viewBox="0 0 600 900">
  <g>
    <g>
      <rect x="0.5" y="0.5" width="599" height="899" rx="49.5" style="fill: #fff"/>
      <path d="M550,1a49.05,49.05,0,0,1,49,49V850a49.05,49.05,0,0,1-49,49H50A49.05,49.05,0,0,1,1,850V50A49.05,49.05,0,0,1,50,1H550m0-1H50A50,50,0,0,0,0,50V850a50,50,0,0,0,50,50H550a50,50,0,0,0,50-50V50A50,50,0,0,0,550,0Z"/>
    </g>
    <rect x="12.5" y="12.5" width="575" height="875" rx="39.88" style="fill: #055c9d"/>
    <rect x="65" y="131" width="470" height="470" rx="32.76" style="fill: #fff"/>
    <g>
      <path d="M113.8,581v-2.79q0-172.17.06-344.33a6.77,6.77,0,0,1,1.31-3.87c17-22,34-44.05,49.7-67.09a3.87,3.87,0,0,1,3.7-1.87q75.33.47,150.67.82,54.93.3,109.87.55a3.68,3.68,0,0,1,3.5,1.8c14.75,22.14,30.61,43.44,47.07,64.3a6.32,6.32,0,0,1,1.26,3.63q0,173.69-.1,347.38v2.62Z"/>
      <path d="M172,577h-15.9v-3.58c0-98,.16-196-.15-294,0-18.24,6.84-32.4,20.14-43.94,13.07-11.34,28.35-18.51,44.59-23.75,29.08-9.38,59-12.22,89.36-10.92,21,.91,41.68,4,61.79,10.4,16.58,5.26,32.27,12.36,45.68,23.82,9.42,8,16.78,17.56,19.43,30a56.75,56.75,0,0,1,.95,11.59q.07,92,0,184V577.81H423.79V575q0-148.16.13-296.3c0-13.28-4.88-23.57-14.47-32.05-10.2-9-22.2-14.75-34.86-19.18-19-6.65-38.6-9.94-58.58-11.21-25.48-1.61-50.76-.15-75.71,5.6-14.93,3.44-29.33,8.34-42.56,16.32-7,4.23-13.42,9.27-18.44,15.89A34.76,34.76,0,0,0,172,275.7q.1,149.28,0,298.58Z" style="fill: #fcfcfc"/>
      <path d="M151.47,189c5.39-7.63,10.68-15.14,16-22.61a2.9,2.9,0,0,1,2-1.15c11.3-.07,22.61-.05,34.06-.05,4.3,14.62,8.54,29,12.82,43.55-12.37,4.35-24.05,9.74-34.82,17.18Z" style="fill: #fcfcfc"/>
      <path d="M441.76,184.67l-32,39.32a153.15,153.15,0,0,0-35.42-16.38c4.07-13.81,8.09-27.46,12.12-41.1h31.33c3.19,0,6.38-.08,9.55.12a4.21,4.21,0,0,1,2.85,1.43C434.06,173.45,437.81,179,441.76,184.67Z" style="fill: #fcfcfc"/>
      <path d="M442.14,422.53V360.94H476.7v61.59Z" style="fill: #fcfcfc"/>
      <path d="M476.76,357.54H442.17V296.06h34.59Z" style="fill: #fcfcfc"/>
      <path d="M152,296v61.75H118V296Z" style="fill: #fcfcfc"/>
      <path d="M219.16,207.4c-4.06-13.79-8.18-27.76-12.28-41.69H268.6c.95,10.71,1.87,21.12,2.79,31.42-9,1.39-17.77,2.45-26.45,4.16S227.88,205.3,219.16,207.4Z" style="fill: #fcfcfc"/>
      <path d="M152,422.56H118v-61.4H152Z" style="fill: #fcfcfc"/>
      <path d="M475.83,230.35l-39.66,20.74c-5.83-10.57-14.18-18.52-23.87-25.38l31-38.09Z" style="fill: #fcfcfc"/>
      <path d="M324.31,166.25h59c-4,13.65-7.92,26.95-11.88,40.44a245.45,245.45,0,0,0-49.84-9.32C322.48,187,323.39,176.7,324.31,166.25Z" style="fill: #fcfcfc"/>
      <path d="M476.7,426v53H442.2V426Z" style="fill: #fcfcfc"/>
      <path d="M442.16,535.23v-53h34.53v53Z" style="fill: #fcfcfc"/>
      <path d="M118,425.84h34v53H118Z" style="fill: #fcfcfc"/>
      <path d="M151.92,535.21H118v-53h34Z" style="fill: #fcfcfc"/>
      <path d="M476.82,233.31v59.38H442.15c-.77-12.88,2-26.27-4.75-38.74Z" style="fill: #fcfcfc"/>
      <path d="M149.71,191.75l29.34,36c-8.72,6.63-16.21,14.26-21.46,24.26l-38.85-20Z" style="fill: #fcfcfc"/>
      <path d="M152,292.63H118V235.11l38.37,19.73C150.46,267,152.51,279.85,152,292.63Z" style="fill: #fcfcfc"/>
      <path d="M318.55,196.78H274.42c-.89-10.06-1.81-20.38-2.73-30.76h49.57C320.35,176.42,319.45,186.58,318.55,196.78Z" style="fill: #fcfcfc"/>
      <path d="M442.14,578V538.56h34.51V578Z" style="fill: #fcfcfc"/>
      <path d="M152,576.88H118V538.55h34Z" style="fill: #fcfcfc"/>
    </g>
  </g>
</svg>
