<svg id="Слой_1" data-name="Слой 1" xmlns="http://www.w3.org/2000/svg" width="600" height="900" viewBox="0 0 600 900">
  <defs>
    <style>
      .cls-1 {
        fill: #fff;
      }

      .cls-2 {
        fill: #055c9d;
      }
    </style>
  </defs>
  <g>
    <g>
      <rect class="cls-1" x="0.49988" y="0.50024" width="599" height="899" rx="49.5"/>
      <path d="M550.1134.866a49.05552,49.05552,0,0,1,49,49v800a49.05552,49.05552,0,0,1-49,49h-500a49.05553,49.05553,0,0,1-49-49v-800a49.05553,49.05553,0,0,1,49-49h500m0-1h-500a50,50,0,0,0-50,50v800a50,50,0,0,0,50,50h500a50.00005,50.00005,0,0,0,50-50v-800a50,50,0,0,0-50-50Z" transform="translate(-0.1134 0.13403)"/>
    </g>
    <rect class="cls-2" x="12.5" y="12.50001" width="575" height="875" rx="39.88095"/>
    <g>
      <rect class="cls-1" x="65" y="131.00001" width="470" height="470" rx="32.76087"/>
      <g>
        <path d="M135.67358,257.07446c24.33838,0,33.30518,19.21485,33.30518,33.30567s-8.9668,33.30566-33.30518,33.30566H119.02075v35.86768H101.08667v-102.479Zm-16.65283,51.23926h11.52881c10.248,0,20.49561-5.124,20.49561-17.93359,0-12.81006-10.24756-17.93409-20.49561-17.93409H119.02075Z" transform="translate(-0.1134 0.13403)"/>
        <path d="M223.97,257.07446l33.30566,102.479H238.06079l-6.4043-20.49561H195.78833l-6.40527,20.49561H170.16821l33.30567-102.479Zm2.5625,66.61133-12.81055-43.55371-12.80957,43.55371Z" transform="translate(-0.1134 0.13403)"/>
        <path d="M280.02661,344.1814c5.124-12.80957,11.52832-47.03028,11.52832-71.73536V257.07446h60.207V344.1814h11.52832v33.30615H347.91919V359.55347H283.86938v17.93408H268.49731V344.1814Zm53.80176,0V272.446H309.4895c0,24.33887-5.124,55.08252-12.07812,71.73536Z" transform="translate(-0.1134 0.13403)"/>
        <path d="M376.35669,257.07446h17.93359v102.479H376.35669Z" transform="translate(-0.1134 0.13403)"/>
        <path d="M498.91333,308.31372c0,29.646-13.542,53.80176-41.72363,53.80176s-41.72364-24.15576-41.72364-53.80176c0-29.64551,13.542-53.80127,41.72364-53.80127S498.91333,278.66821,498.91333,308.31372Zm-66.0625,0c0,23.05811,10.24805,37.14893,24.33887,37.14893s24.33886-14.09082,24.33886-37.14893c0-23.05762-10.248-37.14844-24.33886-37.14844S432.85083,285.2561,432.85083,308.31372Z" transform="translate(-0.1134 0.13403)"/>
      </g>
      <g>
        <path d="M160.46875,399.68115c20.15967,0,25.19922,14.11133,25.19922,22.17481,0,11.08789-7.05567,18.14355-15.11914,21.168,13.10351,3.02343,17.13574,33.26367,26.207,37.29492H179.62061c-3.14454-4.19239-5.74512-12.74317-9.49952-19.98828-3.46679-6.69043-5.6206-12.26661-14.69238-12.26661h-8.06348v32.25489H133.25342v-80.6377Zm-13.10352,36.28711H156.437c8.06348,0,15.11963-3.45605,15.11963-12.0957,0-8.64063-7.05615-12.0957-15.11963-12.0957h-9.07178Z" transform="translate(-0.1134 0.13403)"/>
        <path d="M250.02051,399.68115l26.207,80.6377H261.1084l-5.04-16.127H227.84473l-5.04,16.127H207.68555l26.207-80.6377Zm2.01562,52.41406-10.0791-34.2705L231.877,452.09521Z" transform="translate(-0.1134 0.13403)"/>
        <path d="M351.23486,439.99951c0,23.32813-12.67187,40.31934-34.84765,40.31934H289.17188v-80.6377h27.21533C338.563,399.68115,351.23486,416.67236,351.23486,439.99951Zm-47.95117-28.22265v56.44628h12.0957c11.0879,0,21.167-9.07128,21.167-28.22363,0-19.15137-10.0791-28.22265-21.167-28.22265Z" transform="translate(-0.1134 0.13403)"/>
        <path d="M368.603,399.68115h14.1123v80.6377H368.603Z" transform="translate(-0.1134 0.13403)"/>
        <path d="M466.74658,439.99951c0,23.32813-10.65625,42.33594-32.832,42.33594s-32.83105-19.00781-32.83105-42.33594c0-23.32715,10.65527-42.335,32.83105-42.335S466.74658,416.67236,466.74658,439.99951Zm-51.9834,0c0,18.14356,8.06348,29.23145,19.15137,29.23145s19.15137-11.08789,19.15137-29.23145-8.06348-29.23144-19.15137-29.23144S414.76318,421.856,414.76318,439.99951Z" transform="translate(-0.1134 0.13403)"/>
      </g>
    </g>
    <g>
      <path class="cls-1" d="M233.958,633.5459l2.21191,13.42969a46.11372,46.11372,0,0,0-18.80224-4.582c-19.9087,0-20.85694,29.86329-20.85694,29.86329,5.37207-4.42383,13.11426-9.48047,20.85694-9.48047,6.63623,0,23.22656,5.05664,23.22656,26.07129,0,17.69629-13.27246,32.07519-27.65088,32.07519-18.80274,0-30.96875-15.48437-30.96875-43.13574,0-24.333,9.9541-47.876,33.18066-47.876C224.00391,629.91113,233.958,633.5459,233.958,633.5459Zm-37.13135,53.08984s3.9502,19.90821,14.0625,19.90821c9.79639,0,15.32666-9.95411,15.32666-17.69629,0-8.84864-6.63623-13.27246-11.06055-13.27246C207.41309,675.5752,196.82666,686.63574,196.82666,686.63574Z" transform="translate(-0.1134 0.13403)"/>
      <path class="cls-1" d="M311.53418,653.4541c0,15.48438-15.48486,19.9082-15.48486,19.9082s17.69677,6.63672,17.69677,22.1211c0,11.06055-7.74218,25.43945-29.86279,25.43945S254.02,706.544,254.02,695.4834c0-15.48438,17.69678-22.1211,17.69678-22.1211s-15.48438-4.42382-15.48438-19.9082,13.27246-23.22656,27.65088-23.22656S311.53418,637.96973,311.53418,653.4541Zm-42.0293,43.13574c0,7.74219,7.74219,11.05957,14.37842,11.05957s14.37842-3.31738,14.37842-11.05957c0-8.84863-14.37842-16.59082-14.37842-16.59082S269.50488,688.84766,269.50488,696.58984Zm2.21192-43.13574c0,6.63672,12.1665,13.27344,12.1665,13.27344s12.166-6.63672,12.166-13.27344c0-7.74219-5.52979-10.58594-12.166-10.58594S271.7168,645.71191,271.7168,653.4541Z" transform="translate(-0.1134 0.13403)"/>
      <path class="cls-1" d="M343.44922,710.96777a12.20042,12.20042,0,0,1-1.02734,4.33008c-.86915,2.30664-9.71778,16.68555-11.29786,18.89649h-7.26757l8.64062-13.67676a9.6387,9.6387,0,1,1,10.95215-9.54981Z" transform="translate(-0.1134 0.13403)"/>
      <path class="cls-1" d="M413.60156,675.5752c0,26.54492-12.166,45.34765-29.86328,45.34765-17.69629,0-29.8623-18.80273-29.8623-45.34765s12.166-45.34766,29.8623-45.34766C401.43555,630.22754,413.60156,650.45215,413.60156,675.5752Zm-44.24121,0c0,22.12109,5.8457,31.60156,14.37793,31.60156s14.37891-9.48047,14.37891-31.60156-5.84668-31.60157-14.37891-31.60157S369.36035,653.4541,369.36035,675.5752Z" transform="translate(-0.1134 0.13403)"/>
      <path class="cls-1" d="M190.34814,758.333h15.48438l19.90869,43.13672L245.6499,758.333h15.48438l9.9541,88.4834H254.49805l-5.53028-65.25586L225.74121,833.544l-23.22656-51.9834-5.53027,65.25586H180.39355Z" transform="translate(-0.1134 0.13403)"/>
      <path class="cls-1" d="M282.8335,758.333h55.30224v13.27344H298.31836v75.21H282.8335Z" transform="translate(-0.1134 0.13403)"/>
      <path class="cls-1" d="M357.669,784.87793h13.27148v49.77148H394.168V784.87793h13.27148v49.77148h12.167v25.43946H406.334V846.81641H357.669Z" transform="translate(-0.1134 0.13403)"/>
    </g>
  </g>
</svg>
