<?xml version="1.0" encoding="UTF-8" standalone="no"?>
<svg
   id="Слой_1"
   data-name="Слой 1"
   width="1050"
   height="350"
   viewBox="0 0 1050 350"
   version="1.1"
   sodipodi:docname="UA_road_sign_5.80.2.svg"
   inkscape:version="1.1.2 (b8e25be833, 2022-02-05)"
   xmlns:inkscape="http://www.inkscape.org/namespaces/inkscape"
   xmlns:sodipodi="http://sodipodi.sourceforge.net/DTD/sodipodi-0.dtd"
   xmlns="http://www.w3.org/2000/svg"
   xmlns:svg="http://www.w3.org/2000/svg">
  <sodipodi:namedview
     id="namedview36"
     pagecolor="#ffffff"
     bordercolor="#666666"
     borderopacity="1.0"
     inkscape:pageshadow="2"
     inkscape:pageopacity="0.0"
     inkscape:pagecheckerboard="0"
     showgrid="false"
     inkscape:zoom="1.192381"
     inkscape:cx="525.41933"
     inkscape:cy="174.86022"
     inkscape:window-width="1920"
     inkscape:window-height="1001"
     inkscape:window-x="-9"
     inkscape:window-y="-9"
     inkscape:window-maximized="1"
     inkscape:current-layer="Слой_1" />
  <defs
     id="defs4">
    <style
       id="style2">
      .cls-1 {
        fill: #fff;
      }

      .cls-2 {
        fill: #3aaa35;
      }
    </style>
  </defs>
  <g
     id="g10">
    <path
       class="cls-1"
       d="M45,349.5A44.55075,44.55075,0,0,1,.5,305V45A44.55075,44.55075,0,0,1,45,.5H699.88184l349,174.5-349,174.5Z"
       id="path6" />
    <path
       d="M699.764,1,1047.764,175,699.764,349H45A44.04978,44.04978,0,0,1,1,305V45A44.04977,44.04977,0,0,1,45,1H699.764M700,0H45A45,45,0,0,0,0,45V305a45,45,0,0,0,45,45H700l350-175L700,0Z"
       id="path8" />
  </g>
  <path
     class="cls-2"
     d="M920,175,690,340H45a35,35,0,0,1-35-35V45A35,35,0,0,1,45,10H690Z"
     id="path12"
     style="fill:#04ae67;fill-opacity:1" />
  <g
     id="layer1">
    <path
       class="cls-1"
       d="M140.44,209.62l-21.85,42.04a6.53,6.53,0,0,1-9.4,2.81L52,217.84C46.73,214.47,44.93,206.97,47.97,201.12A10.90964,10.90964,0,0,1,57.09,195.03c.25-.01.48-.01.72,0A10.09431,10.09431,0,0,1,63.03,196.66l44.03,28.25,14.32-27.5Z"
       id="path14" />
    <path
       class="cls-1"
       d="M207.34,90.56c0,15.78-13.12006,24.16-19.68006,24.16-10.03,0-21.25-23.36-21.25-36.37994.25-10.79,5.81-17.96,14.37006-17.96C192.43,60.38,207.34,74.7,207.34,90.56Z"
       id="path16" />
    <path
       class="cls-1"
       d="M233.84,170.22,200,191.91a6.53682,6.53682,0,0,1-9.41-2.81994l-16.31-31.25L185.41,136.47,200.34,165.22,223.53,150.34c4.93994-3.16,11.24-1.29,14.09,4.19C240.48,160.02,238.78,167.05,233.84,170.22Z"
       id="path18" />
    <path
       class="cls-1"
       d="M197.38,214.34v72.69c0,6.76-4.92,12.22-11,12.22-6.09,0-11.04-5.46-11.04-12.22V223.16l-48.31-30.97c-6.58-4.22-8.83-13.57-5.03-20.88l23.69-45.56H115.88l-24.79,27.5a9.59926,9.59926,0,0,1-14.59,0,12.39155,12.39155,0,0,1,0-16.22l27.44-30.47a6.49854,6.49854,0,0,1,4.84-2.22H165.5c.18,0,.38-.01.56,0a8.27128,8.27128,0,0,1,6.6,4.6l7.59,14.53a10.127,10.127,0,0,1,0,9.19l-25.53,49.06,38.53,24.69A9.388,9.388,0,0,1,197.38,214.34Z"
       id="path20" />
    <polygon
       class="cls-1"
       points="312.22 218.75 312.22 288.75 299.97 288.75 299.97 234.5 290.59 240.38 286.47 235 301.72 218.75 312.22 218.75"
       id="polygon22" />
    <polygon
       class="cls-1"
       points="471.25 205.62 471.25 185.94 284 185.94 284 164.06 471.25 164.06 471.25 144.38 511.5 175 471.25 205.62"
       id="polygon24" />
    <path
       class="cls-1"
       d="M375.16,264.25A24.73793,24.73793,0,0,1,367.84,282.19c-4.79,4.77-11.41,7.25-19.81,7.43a43.861,43.861,0,0,1-11.25-1.74c-3.37006-1.03-5.17-1.61-5.37006-1.76l-1.75-11.37a20.1811,20.1811,0,0,0,7.75,2.84,51.16658,51.16658,0,0,0,8.87006.66,18.56887,18.56887,0,0,0,10.5-3.28q4.92-3.28491,5.25-9.85a14.17165,14.17165,0,0,0-3.15-8.84c-2.1-2.68005-5.14-4.12006-9.1-4.28a11.59155,11.59155,0,0,0-6.56006,2.31c-1.75,1.37-3.06,2.34-3.93994,2.94L331.41,252.88V218.75h40.25l-3.5,11.37H342.78v16.63a10.28613,10.28613,0,0,1,5.18994-3.5,20.09066,20.09066,0,0,1,6.19-.87A21.35175,21.35175,0,0,1,368.28,248.06C372.6,251.82,374.88,257.21,375.16,264.25Z"
       id="path26" />
    <path
       class="cls-1"
       d="M428.28,228.38q-6.39-10.11-17.06006-10.5-10.665.27-17.06,10.06-6.40494,9.78-6.56994,25.81.165,16.02,6.56994,25.81,6.39,9.795,17.06,10.06,10.66508-.27,17.06006-10.06,6.40494-9.78,6.56-25.81Q434.675,238.465,428.28,228.38Zm-8.84,44.43q-3.075,6.015-8.22,5.94-5.145.075-8.22-5.94t-3.16-19.06q.09-13.05,3.16-19.06,3.075-6.015,8.22-5.94,5.14508-.075,8.22,5.94t3.15,19.06Q422.515,266.8,419.44,272.81Z"
       id="path28" />
    <polygon
       class="cls-1"
       points="503.03 288.75 492.53 288.75 489.91 254.62 475.91 282.62 461.91 254.62 459.28 288.75 448.78 288.75 453.16 239.75 463.66 239.75 475.91 264.25 488.16 239.75 498.66 239.75 503.03 288.75"
       id="polygon30" />
    <rect
       class="cls-1"
       x="562"
       y="53"
       width="123"
       height="244"
       id="rect32" />
  </g>
</svg>
