<svg id="Слой_1" data-name="Слой 1" xmlns="http://www.w3.org/2000/svg" width="600" height="600" viewBox="0 0 600 600">
  <defs>
    <style>
      .cls-1 {
        fill: #fff;
      }

      .cls-2 {
        fill: #005da2;
      }

      .cls-3 {
        fill: #da251d;
      }
    </style>
  </defs>
  <g>
    <rect class="cls-1" x="0.5" y="0.5" width="599" height="599" rx="39.5"/>
    <path d="M560,1a39.04414,39.04414,0,0,1,39,39V560a39.04414,39.04414,0,0,1-39,39H40A39.04414,39.04414,0,0,1,1,560V40A39.04415,39.04415,0,0,1,40,1H560m0-1H40A40,40,0,0,0,0,40V560a40,40,0,0,0,40,40H560a40,40,0,0,0,40-40V40A40,40,0,0,0,560,0Z"/>
  </g>
  <rect class="cls-2" x="15" y="15" width="570" height="570" rx="25"/>
  <path class="cls-1" d="M432.31525,268.34a73.37912,73.37912,0,0,0-31.89039,7.24448L372.7115,236.01726l6.65707-15.58218h4.128c2.75747,5.44967,11.06251-4.9357,11.06251-11.038a11.07189,11.07189,0,0,0-11.06251-11.0625H332.84237a11.05026,11.05026,0,0,0,0,22.10051h32.47776l-4.332,10.14879H234.4546a24.88658,24.88658,0,0,0-15.90848-30.0303,10.14085,10.14085,0,0,1-6.8284-9.58588,11.9667,11.9667,0,0,1,11.98439-11.95988h35.45552a7.36685,7.36685,0,1,0,0-14.7337H223.70211a26.70656,26.70656,0,0,0-26.72625,26.69358,24.89277,24.89277,0,0,0,16.78141,23.52825,10.16684,10.16684,0,0,1,5.89019,13.86893l-1.05239,2.219-22.174,47.57042a73.84628,73.84628,0,1,0,12.15573,8.77006l5.84124-12.53914,101.7245,77.78022h43.1813A73.68836,73.68836,0,1,0,432.31525,268.34ZM222.32337,342.01664a62.64268,62.64268,0,1,1-64.27026-62.61412c.5303-.00817,1.085,0,1.63164,0a62.33407,62.33407,0,0,1,32.0454,8.82717l-15.50057,33.22013a12.0714,12.0714,0,0,1-4.87046,5.32732l-15.37,8.868a7.37375,7.37375,0,1,0,7.36682,12.77571l15.37006-8.90056a26.68635,26.68635,0,0,0,10.85855-11.82938l14.09738-30.23426A62.43065,62.43065,0,0,1,222.32337,342.01664Zm-.69343-83.05855,7.52183-11.80493H353.94766l-36.35295,85.17971Zm137.26158,76.63806H334.24561l33.29358-78.06574,18.83729,26.922A73.60853,73.60853,0,0,0,358.89152,335.59615Zm33.832-42.08814,29.47556,42.08814h-52.188A62.61026,62.61026,0,0,1,392.72352,293.508Zm39.59173,111.15537a62.647,62.647,0,0,1-61.7983-52.49795h64.04181A10.14613,10.14613,0,0,0,442.872,336.208L406.878,284.8114a62.62912,62.62912,0,1,1,25.43728,119.852Z"/>
  <path class="cls-3" d="M15,540,540,15h20a25,25,0,0,1,25,25V60L60,585H40a25,25,0,0,1-25-25Z"/>
</svg>
