<svg id="svg2" xmlns="http://www.w3.org/2000/svg" width="600" height="600" viewBox="0 0 600 600">
  <defs>
    <style>
      .cls-1, .cls-3 {
        fill: #fff;
      }

      .cls-1 {
        stroke: #000;
        stroke-width: 2px;
      }

      .cls-2 {
        fill: #005da2;
      }
    </style>
  </defs>
  <g id="layer1">
    <rect id="rect3041" class="cls-1" x="1" y="1" width="598" height="598" rx="29.30066"/>
    <path id="rect8666" d="M45,20A24.9453,24.9453,0,0,0,20,45V555a24.94532,24.94532,0,0,0,25,25H555a24.94533,24.94533,0,0,0,25-25V45a24.94532,24.94532,0,0,0-25-25Zm0,10H555a14.96718,14.96718,0,0,1,15,15V555a14.96718,14.96718,0,0,1-15,15H45a14.96718,14.96718,0,0,1-15-15V45A14.96718,14.96718,0,0,1,45,30Z" transform="translate(0 -1)"/>
    <path id="path8875-4" d="M136.1673,493.6015H147.75a16.96586,16.96586,0,0,1,11.74355,4.5044q4.78581,4.424,4.987,12.22619a13.94888,13.94888,0,0,1-5.79134,11.1001,22.24531,22.24531,0,0,1-13.51313,4.34351q-14.43822-.72392-21.3958-5.79132t-6.91744-5.79133l-11.58269,14.15662q.36195.88476,11.10007,7.07825t27.50887,7.07837q18.45984-.72392,28.47413-10.61744,10.01407-9.89355,10.13485-20.26971-.40532-10.20034-5.67218-15.82489a31.38029,31.38029,0,0,0-10.53408-7.81714q-5.26709-2.1925-5.67216-2.09729.33357.1072,4.6712-1.71594a24.37248,24.37248,0,0,0,8.6751-6.86383q4.33745-5.04052,4.67123-14.58563a26.38748,26.38748,0,0,0-9.00877-19.948q-8.848-8.04337-24.45235-8.3653-15.73091.7241-25.46353,5.79132-9.73272,5.06754-10.01995,5.79132l9.74417,15.07587q-.0804-.62036,6.11309-4.964,6.19347-4.34336,19.62622-4.964,10.33584.523,13.674,5.6305,3.338,5.10772,3.05655,8.52612.08054,3.33819-3.21741,7.88263-3.298,4.54467-10.9392,4.987H136.1673Z" transform="translate(0 -1)"/>
    <path id="path8877-8" d="M242.73686,434.40106q-21.20052.58622-31.57663,15.85724-10.37617,15.27137-10.34167,38.19531-.03465,22.92417,10.34167,38.19532,10.37613,15.27126,31.57663,15.85723,21.20034-.586,31.57662-15.85723,10.376-15.27119,10.34167-38.19532.03451-22.924-10.34167-38.19531Q263.93721,434.98722,242.73686,434.40106Zm0,16.73053q10.81845.161,17.5349,9.974,6.71622,9.81327,6.91745,27.348-.2012,17.53491-6.91745,27.348-6.71644,9.81308-17.5349,9.974-10.81863-.16075-17.53493-9.974t-6.91743-27.348q.201-17.53482,6.91745-27.348,6.71626-9.813,17.5349-9.974Z" transform="translate(0 -1)"/>
    <path id="path8879-5" d="M308.24142,539.93225h18.01752V493.60144h38.60895v46.33081h18.01752V436.975H364.86789V478.1579H326.25894V436.975H308.24142Z" transform="translate(0 -1)"/>
    <path id="path8881-2" d="M438.09433,503.89722,450.964,460.14038l12.86966,43.75684Zm2.57391-66.92218L407.20715,539.93231h19.30451l6.43481-20.59149h36.035l6.43481,20.59149h19.30447L461.2597,436.975Z" transform="translate(0 -1)"/>
    <circle id="circle182" class="cls-2" cx="300" cy="232.00001" r="172.99999"/>
    <path id="path845-1" class="cls-3" d="M269.03891,261.951c.19131-.01.3963,0,.59009,0h14.899a3.08966,3.08966,0,1,1,0,6.17929H269.629a5.04654,5.04654,0,0,0-5.0484,5.03192,4.27823,4.27823,0,0,0,2.88479,4.0321,10.38087,10.38087,0,0,1,6.6709,12.60441H327.3075l1.81948-4.26157h-13.6535a4.63855,4.63855,0,0,1,0-9.2771H336.765a4.63858,4.63858,0,1,1,0,9.2771H335.0275l-2.78641,6.55627,11.63739,16.62009a30.96021,30.96021,0,1,1-17.27579,32.17484H308.45828l-42.73041-32.68293-2.45849,5.27777a30.93426,30.93426,0,1,1-5.11389-3.68789l9.32629-19.99655.44251-.91788a4.28253,4.28253,0,0,0-2.475-5.83508,10.45416,10.45416,0,0,1-7.04791-9.88355A11.21842,11.21842,0,0,1,269.03891,261.951Zm2.86829,34.81369-3.147,4.96637,40.3209,30.83078,15.27609-35.79715Zm58.154,4.35992-13.99771,32.79764h10.35888a30.92433,30.92433,0,0,1,11.55551-21.48813Zm-88.0177,9.19513a26.31556,26.31556,0,1,0,19.17709,7.58887l-5.9335,12.70273a11.1909,11.1909,0,0,1-4.5566,4.96637l-6.4579,3.73706a3.09532,3.09532,0,1,1-3.09781-5.35974l6.45791-3.73706a5.03643,5.03643,0,0,0,2.04879-2.22913l6.5071-13.96481a26.1484,26.1484,0,0,0-13.4567-3.70429c-.22709,0-.4627-.006-.6884,0Zm115.2261,0a26.17623,26.17623,0,0,0-10.6867,2.2619l15.1286,21.60285a4.26187,4.26187,0,0,1-3.49131,6.70376H331.30679a26.316,26.316,0,1,0,25.9628-30.56851Zm-16.62008,5.917a26.32112,26.32112,0,0,0-9.5557,17.68549h21.9307Z" transform="translate(0 -1)"/>
    <path id="path12204-0" class="cls-3" d="M259.294,103.93944l-22.4458,53.34871a5.5392,5.5392,0,0,0,10.21139,4.29632l17.40659-41.37121v37.47259l-17.681,70.9126a7.01658,7.01658,0,1,0,13.6163,3.395l15.78979-63.32776,15.7898,63.32776a7.01658,7.01658,0,1,0,13.6163-3.395l-17.681-70.9126V120.21326l17.4065,41.37121a5.53916,5.53916,0,1,0,10.2113-4.29632l-22.44571-53.3487Z" transform="translate(0 -1)"/>
    <circle id="path2738-6" class="cls-3" cx="276.19138" cy="85.75668" r="12.88818"/>
    <path id="rect14901-4" class="cls-3" d="M350.7269,160.59668l12.5357,29.79425a4.15427,4.15427,0,0,1-7.65829,3.2222l-7.6156-18.09992v15.97062l10.14081,40.67062a4.1544,4.1544,0,0,1-8.062,2.0101l-9.06-36.33682-9.06,36.33682a4.15441,4.15441,0,0,1-8.062-2.01013l10.14068-40.67062V168.45859l-18.1,7.61538a4.15425,4.15425,0,0,1-3.2222-7.65823l18.584-7.81909Z" transform="translate(0 -1)"/>
    <circle id="ellipse12610-4" class="cls-3" cx="341.00754" cy="145.46671" r="9.83551"/>
  </g>
</svg>
