<?xml version="1.0" encoding="UTF-8" standalone="no"?>
<svg
   width="604"
   height="604"
   version="1.1"
   id="svg6708"
   sodipodi:docname="UA_road_sign_5.93.2.svg"
   xml:space="preserve"
   inkscape:version="1.2.2 (732a01da63, 2022-12-09)"
   xmlns:inkscape="http://www.inkscape.org/namespaces/inkscape"
   xmlns:sodipodi="http://sodipodi.sourceforge.net/DTD/sodipodi-0.dtd"
   xmlns="http://www.w3.org/2000/svg"
   xmlns:svg="http://www.w3.org/2000/svg"
   xmlns:rdf="http://www.w3.org/1999/02/22-rdf-syntax-ns#"
   xmlns:cc="http://creativecommons.org/ns#"
   xmlns:dc="http://purl.org/dc/elements/1.1/"><sodipodi:namedview
     id="namedview6710"
     pagecolor="#ffffff"
     bordercolor="#000000"
     borderopacity="0.25"
     inkscape:showpageshadow="2"
     inkscape:pageopacity="0.0"
     inkscape:pagecheckerboard="0"
     inkscape:deskcolor="#d1d1d1"
     showgrid="false"
     showguides="true"
     inkscape:zoom="0.47062405"
     inkscape:cx="164.67497"
     inkscape:cy="360.16009"
     inkscape:window-width="1920"
     inkscape:window-height="991"
     inkscape:window-x="-9"
     inkscape:window-y="-9"
     inkscape:window-maximized="1"
     inkscape:current-layer="svg6708" /><title
     id="title6682">5.93.2 Суміжні пішохідний перехід та велопереїзд	</title><defs
     id="defs6686"><style
       id="style6684">.a{fill:#fff}</style></defs><rect
     class="a"
     x="1"
     y="1"
     width="602"
     height="602"
     rx="46"
     id="rect6688" /><path
     d="M557 2a45 45 0 0 1 45 45v510a45 45 0 0 1-45 45H47a45 45 0 0 1-45-45V47A45 45 0 0 1 47 2h510m0-2H47A47.053 47.053 0 0 0 0 47v510a47.053 47.053 0 0 0 47 47h510a47.053 47.053 0 0 0 47-47V47a47.053 47.053 0 0 0-47-47z"
     id="path6690" /><rect
     x="12"
     y="12"
     width="580"
     height="580"
     rx="35"
     style="fill:#005da2"
     id="rect6692" /><g
     id="g6942"
     transform="translate(-5.6467608)"><g
       id="g6706"
       transform="matrix(1.0223475,0,0,1.0223475,-1.1021842,-5.6762523)"><path
         class="a"
         d="m 310.66,51.833 242.68,420.334 a 10,10 0 0 1 -8.66,15 H 59.32 a 10,10 0 0 1 -8.66,-15 L 293.34,51.833 a 10,10 0 0 1 17.32,0 z"
         id="path6694" /></g></g><path
     id="rect5804"
     style="opacity:1;fill:#000000;fill-rule:evenodd;stroke-width:1.21192;stroke-linecap:round;stroke-linejoin:round;paint-order:stroke fill markers"
     d="m 179.32102,385.72477 -22.35664,22.75667 h 26.11075 l 18.09597,-22.75667 z m 55.62767,0 -11.72866,22.75667 h 26.10839 l 7.47035,-22.75667 z m 59.26343,0 -2.83808,22.75667 h 22.6762 l -2.83808,-22.75667 z m 54.41339,0 7.47035,22.75667 h 26.10839 l -11.72866,-22.75667 z m 55.62767,0 18.09597,22.75667 h 26.11075 l -22.35664,-22.75667 z m -260.84718,36.55648 -40.57332,41.3 h 36.42391 l 32.8426,-41.3 z m 72.69873,0 -21.28674,41.3 h 36.42392 l 13.556,-41.3 z m 73.54612,0 -5.15067,41.3 h 36.42392 l -5.15067,-41.3 z m 70.97552,0 13.556,41.3 h 36.42392 l -21.28674,-41.3 z m 72.69872,0 32.8426,41.3 h 36.42391 l -40.57332,-41.3 z" /><path
     d="m 242.08203,345.36006 v -21.10554 l 29.58189,25.3264 a 8.1301298,8.1301298 0 0 1 -10.33016,12.19429 z m 0.93905,-77.85549 a 29.093535,29.093535 0 0 1 0.46952,5.62762 34.034175,34.034175 0 0 1 -0.46952,5.62822 11.82741,11.82741 0 0 1 -5.01596,6.57821 c -1.94066,1.15347 -4.57863,1.85806 -8.13135,1.39521 -10.79967,-1.40736 -19.25173,-12.6632 -19.25173,-19.22926 0,-6.56606 1.394,-11.86446 14.08635,-13.13211 2.87364,-0.28731 7.59136,-0.50962 11.92095,2.58815 4.9449,3.53875 6.11051,9.18155 6.39174,10.54396 z"
     id="path6126"
     style="opacity:1;fill:#000000;stroke-width:0.607406" /><path
     d="m 287.62898,430.71944 c 2.0834,5.45693 -0.90564,11.48787 -6.10443,13.13211 a 10.041637,10.041637 0 0 1 -12.20886,-6.09714 l -15.08007,-43.03775 a 14.070561,14.070561 0 0 0 -4.57134,-6.39842 l -37.25525,-29.35593 a 7.4868868,7.4868868 0 0 1 -2.72665,-6.02729 l 1.40918,-43.6889 -19.17763,14.0736 a 9.376527,9.376527 0 0 0 -3.83091,7.55856 v 21.04784 c 0.28548,4.74566 -3.69667,8.33968 -7.513,7.97281 a 6.9760584,6.9760584 0 0 1 -4.22573,-1.87567 c -1.42801,-1.46871 -2.06153,-3.72462 -1.87809,-6.09714 v -30.50879 a 9.376527,9.376527 0 0 1 3.72704,-7.48203 l 32.89104,-24.83987 a 7.0489471,7.0489471 0 0 1 4.24819,-1.42376 c 0,0 3.33345,0.32192 4.87019,0.98096 a 36.944258,36.944258 0 0 1 9.67111,6.05402 53.958308,53.958308 0 0 1 5.48124,5.1265 4.6017082,4.6017082 0 0 1 1.09029,3.00545 c -0.0243,16.03127 -0.0474,32.88618 -0.0705,48.86156 a 4.6879598,4.6879598 0 0 0 1.69163,3.44582 l 27.30715,22.66535 a 21.105538,21.105538 0 0 1 6.3644,9.05035 z"
     id="path6128"
     style="opacity:1;fill:#000000;stroke-width:0.607406" /><path
     d="m 224.70839,377.25252 -15.02601,-10.78753 -40.55468,61.89953 a 10.020377,10.020377 0 0 0 -1.66854,6.34132 c 0.38267,4.34538 3.05039,8.11798 6.53751,9.14571 2.15994,0.63657 4.55312,0.76534 6.69483,-0.35533 a 10.740154,10.740154 0 0 0 3.99127,-3.73858 z"
     id="path6130"
     style="opacity:1;fill:#000000;stroke-width:0.607406" /><path
     id="path1669-0-9"
     style="color:#000000;display:inline;overflow:visible;visibility:visible;fill:#000000;fill-opacity:1;fill-rule:nonzero;stroke:none;stroke-width:0.517749px;marker:none;enable-background:accumulate;opacity:1"
     d="m 363.56728,270.7857 c 2.27774,-0.17777 4.48277,1.33118 5.94903,4.46964 l 3.71628,7.95333 c 0.44371,0.95412 0.33695,2.07007 -0.26695,2.93257 l -16.18375,23.11267 15.487,16.23125 h 23.23808 c -0.23702,-0.87529 -0.37213,-1.77341 -0.37213,-2.68583 0,-4.40244 2.79472,-8.32304 6.95726,-9.75634 1.69585,-0.58386 2.84763,-2.1866 2.84763,-3.98021 0,-2.74283 -2.24047,-4.96716 -4.98335,-4.96716 h -11.98004 l -8.09591,3.78301 c -2.22061,1.0375 -4.84286,0.0847 -5.88028,-2.13571 l -4.33316,-9.27298 5.85503,-8.35984 4.6183,9.88578 8.22232,-3.84165 c 2.21934,-1.0368 4.84138,-0.0844 5.87828,2.1347 0.25888,0.55419 0.39351,1.13357 0.41561,1.70695 h 5.29985 c 0.19121,0 0.39363,-0.01 0.58247,0 5.85397,0.29627 10.50061,5.13938 10.50061,11.0669 0,4.40246 -2.79464,8.32308 -6.95726,9.75636 -1.69582,0.58392 -2.83143,2.18663 -2.83143,3.98019 0,0.61364 0.12897,1.22365 0.3883,1.77977 l 0.43685,0.90606 9.20624,19.73922 c 4.48613,-2.58579 9.67522,-4.07728 15.22508,-4.07728 16.87925,0 30.56342,13.6842 30.56342,30.56341 0,16.87927 -13.68417,30.56342 -30.56342,30.56342 -16.87921,0 -30.54724,-13.68415 -30.54724,-30.56342 0,-9.0921 3.97275,-17.24727 10.2741,-22.84571 l -2.42695,-5.20986 -42.18047,32.26229 h -17.91086 c -2.04782,14.89075 -14.81868,26.3567 -30.27221,26.3567 -16.8792,0 -30.56339,-13.68415 -30.56339,-30.56342 0,-16.87921 13.68419,-30.56341 30.56339,-30.56341 4.73789,0 9.21646,1.08517 13.21884,3.00941 l 12.39662,-17.70461 v -5.17346 h -5.37466 c -2.5319,0 -4.59502,-2.04698 -4.59502,-4.57884 0,-2.5319 2.06312,-4.57885 4.59502,-4.57885 h 10.43184 l -3.12773,-3.27841 c -2.15602,-2.25951 -2.44954,-6.13823 -0.65832,-8.69658 l 18.10405,-25.85614 c 1.54555,-2.20684 3.3614,-3.36565 5.13303,-3.50392 z m -10.71297,50.49274 h -6.92191 v 4.20672 h 10.93648 z m 44.8531,11.08308 h -22.74559 l -8.2638,30.98814 34.11589,-26.08569 z m -34.27769,0 H 345.9324 l 10.76859,25.23324 z m -23.12787,4.30381 -7.81471,11.16397 c 6.35649,5.07861 10.66353,12.63541 11.40663,21.21156 h 10.22555 z m 86.88494,9.07679 c -0.22282,-0.006 -0.45538,0 -0.67955,0 -4.85918,0 -9.39377,1.33475 -13.28352,3.65661 l 6.42334,13.78509 c 0.43078,0.92372 1.13982,1.69082 2.02246,2.20043 l 6.37479,3.68897 c 1.46183,0.84398 1.97661,2.71254 1.13258,4.17436 -0.8439,1.46181 -2.72874,1.96033 -4.19054,1.1164 l -6.37479,-3.68897 c -1.96899,-1.13672 -3.53704,-2.84184 -4.49795,-4.90244 l -5.85705,-12.53925 c -4.77123,4.71022 -7.71771,11.24299 -7.71771,18.47719 0,14.34737 11.62105,25.98457 25.96839,25.98457 14.34735,0 25.98457,-11.6372 25.98457,-25.98457 0,-14.12312 -11.26755,-25.61274 -25.30502,-25.96839 z m -113.74318,0 c -14.34739,0 -25.98457,11.62108 -25.98457,25.96839 0,14.34737 11.63718,25.98457 25.98457,25.98457 12.91489,0 23.61803,-9.43123 25.62862,-21.77785 h -26.56702 c -0.8625,0 -1.70429,-0.26579 -2.41076,-0.76044 -1.90116,-1.33119 -2.36677,-3.95598 -1.03549,-5.85705 l 14.93384,-21.32482 c -3.22619,-1.43695 -6.78951,-2.2328 -10.54919,-2.2328 z m 16.4062,5.84087 -12.21563,17.45787 h 21.6484 c -0.71953,-7.02099 -4.25283,-13.22511 -9.43277,-17.45787 z"
     inkscape:label="path22" /><path
     style="color:#000000;display:inline;overflow:visible;visibility:visible;fill:#000000;fill-opacity:1;fill-rule:nonzero;stroke:none;stroke-width:0.374976px;marker:none;enable-background:accumulate;opacity:1"
     d="m 381.95168,256.11148 c -2.65199,-1.85717 -8.16624,-3.3943 -11.64492,1.57278 -3.99639,5.70757 2.06118,16.72212 4.96291,18.75414 4.08676,2.86205 9.24884,-0.52104 11.28427,-3.42745 5.00598,-7.14847 -2.35692,-15.32712 -4.60226,-16.89947 z"
     id="path3076-9"
     sodipodi:nodetypes="sssss"
     inkscape:label="path26" /><metadata
     id="metadata6970"><rdf:RDF><cc:Work
         rdf:about=""><dc:title>5.93.2 Суміжні пішохідний перехід та велопереїзд	</dc:title></cc:Work></rdf:RDF></metadata></svg>
