<svg xmlns="http://www.w3.org/2000/svg" width="600" height="900"><path d="M550 0H50C22.5 0 0 22.5 0 50v800c0 27.5 22.5 50 50 50h500c27.5 0 50-22.5 50-50V50c0-27.5-22.5-50-50-50h0z"/><path fill="#fff" d="M550 .5c27.295 0 49.5 22.206 49.5 49.5v800c0 27.295-22.205 49.5-49.5 49.5H50C22.706 899.5.5 877.295.5 850V50C.5 22.706 22.706.5 50 .5h500"/><path fill="#005ca1" d="M587.791 851c0 19.25-15.75 35-35 35H48.209c-19.25 0-35.015-16.75-35.015-36V48.103c0-19.25 14.765-35.641 34.015-35.641h506.582c19.25 0 34 15.4 34 34.641V851z"/><path fill="#fff" d="M534.625 566.463c0 18.461-13.926 33.57-32.39 33.57H98.765c-18.463 0-32.515-15.109-32.515-33.57V164.57c0-18.464 14.052-33.57 32.515-33.57h403.471c18.464 0 32.39 15.1 32.39 33.57l-.001 401.893h0z"/><path d="M106.167 262.5h26.667l32.333 164.667 39-164.667H234.5s32.25 131.5 36.375 164.125L304.833 262.5h27l-48.333 206h-25L219 299.167 177.833 468.5h-26l-45.666-206zm365.666 130.333l26.334 8.667c-6.666 24.667-17.491 69.129-75.334 70-58.866.887-81-53.333-81-107.005S367.5 258.5 426.5 258.5c57.667 0 68.667 62 68.667 62l-25.667 7.667s-7-43-44-42.667-55.999 29.667-56.333 80 19.333 78.667 54.333 79.667 46.999-38.667 48.333-52.334z"/></svg>