<svg xmlns="http://www.w3.org/2000/svg" width="600" height="900"><path d="M550 0H50C22.5 0 0 22.5 0 50v800c0 27.5 22.5 50 50 50h500c27.5 0 50-22.5 50-50V50c0-27.5-22.5-50-50-50h0z"/><path fill="#fff" d="M550 .5c27.295 0 49.5 22.206 49.5 49.5v800c0 27.295-22.205 49.5-49.5 49.5H50C22.706 899.5.5 877.295.5 850V50C.5 22.706 22.706.5 50 .5h500"/><path fill="#005ca1" d="M587.791 851c0 19.25-15.75 35-35 35H48.209c-19.25 0-35.015-16.75-35.015-36V48.103c0-19.25 14.765-35.641 34.015-35.641h506.582c19.25 0 34 15.4 34 34.641V851z"/><path fill="#fff" d="M534.625 566.463c0 18.461-13.926 33.57-32.39 33.57H98.765c-18.463 0-32.515-15.109-32.515-33.57V164.57c0-18.464 14.052-33.57 32.515-33.57h403.471c18.464 0 32.39 15.1 32.39 33.57l-.001 401.893h0z"/><path d="M235 258v-72.167h-17.5V259c0 1-.75 6.75-8.5 6.75s-8-8.25-8-8.25v-71.667h-17.75V300.25c5.75 13.5 23.583 20.25 23.583 20.25l-.667 228s4 11.334 19 11.334 17.667-8.668 19.667-12.334V318.167s21-3 25-16.667V185.833h-18V258s.167 8.75-8.583 8.75S235 258 235 258zm91.25-49.5s9.258-21.801 36.258-21.801c21.5 0 31.992 19.301 31.992 19.301l.75 337.5S395 556 378.75 556s-18.25-13-18.25-13l.25-138.25s-22 2.75-35.75-21l1.25-175.25z"/></svg>