<svg xmlns="http://www.w3.org/2000/svg" width="600" height="900"><path d="M550 0H50C22.5 0 0 22.5 0 50v800c0 27.5 22.5 50 50 50h500c27.5 0 50-22.5 50-50V50c0-27.5-22.5-50-50-50h0z"/><path fill="#fff" d="M550 .5c27.295 0 49.5 22.206 49.5 49.5v800c0 27.295-22.205 49.5-49.5 49.5H50C22.706 899.5.5 877.295.5 850V50C.5 22.706 22.706.5 50 .5h500"/><path fill="#005ca1" d="M587.791 851c0 19.25-15.75 35-35 35H48.209c-19.25 0-35.015-16.75-35.015-36V48.103c0-19.25 14.765-35.641 34.015-35.641h506.582c19.25 0 34 15.4 34 34.641V851z"/><path fill="#fff" d="M534.625 566.463c0 18.461-13.926 33.57-32.39 33.57H98.765c-18.463 0-32.515-15.109-32.515-33.57V164.57c0-18.464 14.052-33.57 32.515-33.57h403.471c18.464 0 32.39 15.1 32.39 33.57l-.001 401.893h0z"/><path d="M191.75 558.75h25.98l-27.121-65.413 22.891-.587V467.5H101.25v27.25l21.58-.295-25.33 65.379h27l25.943-65.756 16.473-.224zm247.25-207l27 14.5c-12 7.75-76.25 8.5-76.25 8.5 26.896 27.587 71.267 61.874 86.5 68.75 23.166 10.457 47 19 47 19-67.5 36.25-119 35.25-119 35.25L405.5 558h-56l-1.25-57.5-21.75 9.25c-22.25 6.75-84.25 8-84.25 8 7.25-6.25 38.5-35.75 38.5-35.75l10.609-15.636L300 450l23.5-53.5c-36 17-68 19-68 19l24-27 13.667-26.667 7.833-21.5c5.333-15.833 8.5-70.5 8.5-70.5-16.334 17.333-35 17-35 17 16.667-48 17.667-70.333 17.667-70.333v-57.667S324 197 327 199s35 37.25 72 54.25c0 0-16.25 6.25-44.75 7.25l28.5 34 25 29.5L439 351.75z"/></svg>