<?xml version="1.0" encoding="UTF-8" standalone="no"?>
<!-- Created with Inkscape (http://www.inkscape.org/) -->

<svg
   xmlns:dc="http://purl.org/dc/elements/1.1/"
   xmlns:cc="http://creativecommons.org/ns#"
   xmlns:rdf="http://www.w3.org/1999/02/22-rdf-syntax-ns#"
   xmlns:svg="http://www.w3.org/2000/svg"
   xmlns="http://www.w3.org/2000/svg"
   xmlns:sodipodi="http://sodipodi.sourceforge.net/DTD/sodipodi-0.dtd"
   xmlns:inkscape="http://www.inkscape.org/namespaces/inkscape"
   width="168.73877mm"
   height="252.38979mm"
   viewBox="0 0 597.89328 894.29451"
   id="svg4315"
   version="1.1"
   inkscape:version="0.91 r13725"
   sodipodi:docname="Ukraine road sign 6.22.svg">
  <defs
     id="defs4317" />
  <sodipodi:namedview
     id="base"
     pagecolor="#ffffff"
     bordercolor="#666666"
     borderopacity="1.0"
     inkscape:pageopacity="0.0"
     inkscape:pageshadow="2"
     inkscape:zoom="0.7"
     inkscape:cx="217.91562"
     inkscape:cy="327.47636"
     inkscape:document-units="px"
     inkscape:current-layer="layer1"
     showgrid="false"
     fit-margin-top="0"
     fit-margin-left="0"
     fit-margin-right="0"
     fit-margin-bottom="0"
     inkscape:window-width="1728"
     inkscape:window-height="1089"
     inkscape:window-x="-8"
     inkscape:window-y="-8"
     inkscape:window-maximized="1" />
  <metadata
     id="metadata4320">
    <rdf:RDF>
      <cc:Work
         rdf:about="">
        <dc:format>image/svg+xml</dc:format>
        <dc:type
           rdf:resource="http://purl.org/dc/dcmitype/StillImage" />
        <dc:title></dc:title>
      </cc:Work>
    </rdf:RDF>
  </metadata>
  <g
     inkscape:label="Calque 1"
     inkscape:groupmode="layer"
     id="layer1"
     transform="translate(582.51868,-85.215722)">
    <g
       id="g5037">
      <path
         id="path5028"
         transform="translate(-582.07141,83.362206)"
         d="m 29.044922,2.3535156 -7.94336,3.8730469 C 12.123263,10.60454 6.9957031,15.691734 2.7832031,24.398438 l -2.73046873,5.638671 0,418.859371 0,418.85938 2.74023443,5.76367 c 4.9841999,10.48741 13.7863592,17.98281 24.5683592,20.92188 3.9872,1.08678 55.184938,1.30769 272.523442,1.16992 l 267.61132,-0.16992 6.5293,-2.97461 c 8.29204,-3.77786 16.74386,-12.51751 20.14453,-20.83008 l 2.42774,-5.93164 0.2832,-411.68164 C 597.07881,167.66683 596.83123,40.178348 596.06445,35.236328 593.93726,21.526028 584.70307,9.6262228 572.38281,4.7148438 l -5.92578,-2.3613282 -268.70508,0 -268.707028,0 z"
         style="fill:#ffffff;fill-opacity:1;stroke:#000000;stroke-opacity:1"
         inkscape:connector-curvature="0" />
      <path
         inkscape:connector-curvature="0"
         d="m -546.2342,963.59753 c -9.5224,-3.33997 -16.7501,-10.49088 -20.7959,-20.57498 -1.6029,-3.99523 -1.7095,-29.61368 -1.7095,-410.76098 l 0,-406.5 2.8742,-6.22237 c 3.5248,-7.63096 11.1836,-15.17224 18.1287,-17.85056 4.8879,-1.884941 10.6597,-1.927071 263.9971,-1.927071 l 258.999998,0 5.648,2.647961 c 7.1925,3.37209 13.3320002,9.51158 16.7041002,16.70408 l 2.64789999,5.64796 0,407.5 0,407.5 -2.63519999,5.62001 c -3.5718,7.61778 -8.9157002,13.26648 -15.7042002,16.60021 l -5.6606,2.77978 -258.999998,0.20622 c -233.5798,0.18598 -259.4411,0.0515 -263.4946,-1.37026 z M -78.673202,683.17499 c 11.2195,-2.05454 20.2906,-9.03689 25.5893,-19.69707 l 2.3443,-4.71635 0,-209.5 0,-209.5 -2.8112,-5.3375 c -3.5448,-6.73039 -9.7685,-12.93982 -16.1998,-16.1625 l -4.989,-2.5 -209.499998,0 -209.5,0 -5,2.45723 c -6.3895,3.14012 -13.4026,10.15325 -16.5428,16.54277 l -2.4572,5 -0.257,208.19377 c -0.2569,208.10367 -0.2561,208.19615 1.8038,213.70163 3.8936,10.40661 15.0784,19.77738 25.7543,21.57718 7.6063,1.28232 404.751198,1.22526 411.765298,-0.0592 z M -164.8338,654.01157 c 6.9984,-9.54451 13.5942,-20.36041 13.5942,-22.29186 0,-5.75366 -22.3833,-79.8052 -25.1187,-83.10114 -0.7931,-0.9557 -3.7447,-1.357 -9.9807,-1.357 -10.5813,0 -9.5411,-1.0764 -16.9127,17.5 -2.8374,7.15 -10.4765,25.6 -16.976,41 -6.4994,15.4 -13.4954,32.3875 -15.5466,37.75 l -3.7295,9.75 -18.8679,0 c -10.3773,0 -18.8679,-0.3888 -18.8679,-0.864 0,-0.4752 1.7786,-2.09653 3.9523,-3.60295 5.8801,-4.07487 13.5126,-12.54345 16.3478,-18.1386 3.1522,-6.22043 20.707,-48.39709 27.7677,-66.71346 4.474,-11.6063 5.0952,-13.97648 3.8796,-14.80246 -0.8482,-0.5763 -4.8629,-0.73313 -9.6974,-0.37882 -5.4161,0.39694 -8.25,0.24857 -8.25,-0.43193 0,-0.5701 3.5352,-5.43108 7.8559,-10.80216 10.5402,-13.10254 14.8423,-23.8046 20.1323,-50.08219 1.9054,-9.46526 4.9226,-33.7654 6.4791,-52.18343 1.1141,-13.18214 -4.0306,-29.57936 -12.953,-41.2847 -4.1256,-5.41237 -6.5143,-10.06841 -6.5143,-12.69776 0,-4.29646 3.0726,-8.93684 15.8577,-23.9494 8.0918,-9.50142 13.1121,-16.22664 13.0637,-17.5 -0.043,-1.13748 -1.3153,-4.09314 -2.8268,-6.56814 l -2.7482,-4.5 -8.1153,0 c -4.4634,0 -8.5361,-0.45 -9.0503,-1 -2.8102,-3.00566 -4.6669,-12.35916 -4.6648,-23.5 0,-9.92541 0.3031,-12.06505 2.2006,-15.62685 2.2021,-4.13371 30.8472,-32.40502 32.7646,-32.33701 0.5603,0.0199 6.3213,5.12009 12.8021,11.3338 l 11.7832,11.29765 -8.2832,16.91621 -8.2833,16.9162 0.089,8 c 0.088,7.94986 0.203,8.28832 18.3518,54 36.7029,92.44412 34.0296,84.84274 34.0478,96.81213 0.01,6.60202 -0.7039,10.00221 -4.6089,21.95066 -5.7406,17.56468 -5.6652,20.90786 0.8562,37.96115 2.4658,6.44816 4.2466,11.96066 3.9573,12.25 -0.2893,0.28933 -1.9698,0.52606 -3.7344,0.52606 -4.9176,0 -9.2791,1.09063 -9.8011,2.45084 -0.8601,2.2413 5.9245,40.02116 9.9757,55.54916 1.9628,7.52345 2.5189,12.30879 2.6727,23 0.2077,14.4253 -0.3451,16.53525 -7.2695,27.75 l -2.0067,3.25 -12.6367,0 -12.6367,0 1.6498,-2.25 z m -200.6559,0 c -0.8978,-0.6875 -6.0788,-13.36736 -11.5134,-28.17747 l -9.881,-26.92746 2.0269,-8.32254 c 1.1147,-4.57739 2.2978,-8.32253 2.6289,-8.32253 0.3312,0 6.7416,16.07485 14.2454,35.72189 9.8373,25.75688 13.3085,35.93469 12.4433,36.48469 -1.8957,1.20504 -8.1553,0.91781 -9.9501,-0.45658 z m 17.2501,-1.17327 c 0,-2.37047 4.9794,-7.51751 9.3667,-9.68203 2.2733,-1.12157 7.0583,-2.9538 10.6333,-4.07162 7.5424,-2.35835 9,-3.33641 9,-6.0391 0,-1.08413 -5.68,-14.86653 -12.6223,-30.62756 -14.3777,-32.64157 -18.9696,-45.41767 -22.8275,-63.51299 l -2.7179,-12.74814 13.0941,-17.44764 c 7.2017,-9.59621 13.466,-17.44765 13.9207,-17.44765 0.9177,0 5.4349,21.26255 7.6482,36 4.605,30.66287 5.6782,36.0036 9.0419,45 1.9537,5.225 6.4363,19.175 9.9614,31 5.6989,19.11682 6.5325,23.02306 7.5203,35.24038 0.6111,7.55721 0.8302,14.19471 0.4871,14.75 -0.394,0.63751 -10.1849,1.00962 -26.565,1.00962 -21.7705,0 -25.941,-0.22882 -25.941,-1.42327 z m -96.25,-2.32223 c -5.3625,-0.17981 -9.75,-0.6605 -9.75,-1.06821 0,-3.4118 6.9217,-8.00739 15,-9.9591 11.7212,-2.83183 14.0378,-3.56784 15.0433,-4.77933 0.6715,-0.80916 1.4247,-12.41412 1.9875,-30.62536 0.4984,-16.12737 1.1285,-32.6975 1.4001,-36.8225 0.742,-11.26641 4.2311,-38.56031 5.9445,-46.5 1.3855,-6.42048 13.1463,-35.63175 22.1438,-55 7.361,-15.84569 10.1683,-27.93884 7.8738,-33.91821 -0.8811,-2.29626 -2.0594,-1.98332 -6.7247,1.78602 -6.2256,5.03005 -7.8337,5.62069 -17.8095,6.54119 -8.9667,0.82741 -9.2211,0.92295 -12.5578,4.71775 -3.6699,4.17357 -7.2435,10.83238 -7.279,13.56294 -0.012,0.92933 3.4148,11.03421 7.6153,22.45528 l 7.6373,20.7656 -1.7648,5.19202 c -2.0179,5.93657 -3.4591,8.36183 -4.0989,6.89741 -0.2403,-0.55 -4.3809,-10.225 -9.2013,-21.5 -8.2684,-19.33996 -8.9689,-20.59659 -12.3786,-22.20684 -4.4448,-2.09906 -9.3013,-7.83926 -11.4972,-13.58931 -1.3862,-3.62968 -1.4649,-5.12379 -0.492,-9.33871 0.637,-2.75975 1.1582,-6.17202 1.1582,-7.58284 0,-1.41082 -3.8768,-9.32965 -8.615,-17.5974 l -8.6151,-15.03229 4.8651,-4.28527 c 2.6757,-2.3569 5.2835,-4.16425 5.7949,-4.01634 0.5115,0.14792 5.2373,7.98919 10.5018,17.42505 5.2646,9.43586 10.2461,17.78727 11.0701,18.55868 2.0598,1.92829 7.7294,3.70564 9.569,2.99974 1.6266,-0.6242 4.7611,-6.25436 5.7535,-10.33447 0.9939,-4.08642 6.1068,-9.42433 19.2608,-20.10849 6.8831,-5.59075 12.656,-11.05285 12.9394,-12.24288 0.2814,-1.18175 2.0698,-11.49159 3.9742,-22.91076 1.9044,-11.41917 4.1618,-22.11435 5.0164,-23.76706 0.8547,-1.65272 4.6884,-6.02419 8.5194,-9.71439 4.2281,-4.07268 6.9493,-7.50468 6.9243,-8.73294 -0.023,-1.11291 -1.0352,-4.04848 -2.25,-6.52348 -2.1785,-4.43823 -2.2911,-4.5086 -8.2088,-5.12662 -3.3,-0.34465 -6.8041,-0.96168 -7.787,-1.37119 -3.5346,-1.47271 -4.713,-5.84429 -4.713,-17.48391 0,-8.63433 -0.3126,-11.20101 -1.4157,-11.62433 -0.7787,-0.29881 -5.8082,0.62579 -11.1766,2.05466 -7.6942,2.04788 -9.9349,2.32836 -10.583,1.32467 -1.7928,-2.77642 0.166,-4.52635 12.0591,-10.77328 13.1107,-6.88651 16.9497,-10.05834 23.1867,-19.15711 2.1329,-3.11141 5.0752,-6.59891 6.5386,-7.75 3.223,-2.53526 8.758,-2.73007 14.3213,-0.50405 4.4734,1.78986 11.8635,10.0975 15.6772,17.6235 3.1169,6.15093 3.278,14.79371 0.3691,19.80326 -7.0786,12.19048 -8.1184,17.74369 -5.381,28.73669 2.0244,8.12937 1.2306,7.17837 18.4043,22.04885 l 3.5,3.03059 0.6237,13.83414 c 0.343,7.60877 1.2136,27.23357 1.9346,43.61066 l 1.311,29.77653 -2.3739,1.66275 c -5.6713,3.97232 -5.6977,4.05801 -6.4506,20.90709 -1.0915,24.43042 0.056,22.07717 -27.5685,56.53387 -16.1764,20.17705 -24.0007,30.72543 -24.478,33 -0.3859,1.83878 -2.4332,10.54323 -4.5497,19.34323 -2.1164,8.8 -5.6489,23.49991 -7.8499,32.66647 -2.4034,10.009 -4.4184,21.46293 -5.0446,28.67402 -0.912,10.5032 -1.63,15.44509 -3.6193,24.90951 -0.4698,2.23519 -0.583,2.24862 -17.2038,2.04071 -9.202,-0.11511 -21.1185,-0.3564 -26.481,-0.53621 z m -99.974,316.27116 c -10.3746,-2.86639 -18.845,-10.17761 -23.6408,-20.40565 l -2.6352,-5.62001 0,-408.5 0,-408.5 2.6254,-5.5 c 4.0533,-8.49136 8.9876,-13.45237 17.6267,-17.72207 l 7.6441,-3.777931 258.5519,0 258.551898,0 5.7016,2.30375 c 11.8547002,4.789911 20.73860019,16.395841 22.7854002,29.767051 0.7378,4.81979 0.9773,129.15484 0.7868,408.4292 l -0.2738,401.5 -2.33480001,5.78458 C -2.3465018,952.65313 -10.478902,961.17621 -18.457602,964.86063 l -6.282,2.90094 -257.499998,0.16543 c -209.1254,0.13436 -258.3875,-0.0798 -262.224,-1.13977 z"
         style="fill:#005ba0"
         id="path4880" />
      <path
         id="path4916"
         d="m -78.20151,682.9644 c 11.21951,-2.05454 20.2906,-9.03689 25.58935,-19.69707 l 2.34431,-4.71635 0,-209.5 0,-209.5 -2.81119,-5.3375 c -3.54479,-6.73039 -9.76855,-12.93982 -16.19978,-16.1625 l -4.98903,-2.5 -209.50002,0 -209.5,0 -5,2.45723 c -6.3895,3.14012 -13.4026,10.15325 -16.5428,16.54277 l -2.4572,5 -0.257,208.19377 c -0.2569,208.10367 -0.2561,208.19615 1.8038,213.70163 3.8936,10.40661 15.0784,19.77738 25.7543,21.57718 7.6063,1.28232 404.75124,1.22526 411.76526,-0.0592 z"
         style="fill:#ffffff"
         inkscape:connector-curvature="0" />
      <path
         style="fill:#1f1a17"
         d="m -148.54525,649.98113 c 6.9984,-9.5446 13.5942,-20.3605 13.5942,-22.2919 0,-5.7537 -22.3833,-79.8052 -25.1187,-83.1011 -0.7931,-0.9557 -3.7447,-1.357 -9.9807,-1.357 -10.5813,0 -9.5411,-1.0764 -16.9127,17.5 -2.8374,7.15 -10.4765,25.6 -16.976,41 -6.4994,15.4 -13.4954,32.3875 -15.5466,37.75 l -3.7295,9.75 -18.8679,0 c -10.3773,0 -18.8679,-0.3888 -18.8679,-0.864 0,-0.4752 1.7786,-2.0966 3.9523,-3.603 5.8801,-4.0749 13.5126,-12.5434 16.3478,-18.1386 3.1522,-6.2204 20.707,-48.3971 27.7677,-66.7135 4.474,-11.6063 5.0952,-13.9764 3.8796,-14.8024 -0.8482,-0.5763 -4.8629,-0.7331 -9.6974,-0.3788 -5.4161,0.3969 -8.25,0.2485 -8.25,-0.432 0,-0.5701 3.5352,-5.431 7.8559,-10.8021 10.5402,-13.1026 14.8423,-23.8046 20.1323,-50.0822 1.9054,-9.4653 4.9226,-33.76542 6.4791,-52.18345 1.1141,-13.18214 -4.0306,-29.57936 -12.953,-41.2847 -4.1256,-5.41237 -6.5143,-10.06841 -6.5143,-12.69776 0,-4.29646 3.0726,-8.93684 15.8577,-23.9494 8.0918,-9.50142 13.1121,-16.22664 13.0637,-17.5 -0.043,-1.13748 -1.3153,-4.09314 -2.8268,-6.56814 l -2.7482,-4.5 -8.1153,0 c -4.4634,0 -8.5361,-0.45 -9.0503,-1 -2.8102,-3.00566 -4.6669,-12.35916 -4.6648,-23.5 0,-9.92541 0.3031,-12.06505 2.2006,-15.62685 2.2021,-4.13371 30.8472,-32.40502 32.7646,-32.33701 0.5603,0.0199 6.3213,5.12009 12.8021,11.3338 l 11.7832,11.29765 -8.2832,16.91621 -8.2833,16.9162 0.088,8 c 0.088,7.94986 0.203,8.28832 18.3518,54 36.7029,92.44415 34.0296,84.84274 34.0478,96.81215 0.01,6.602 -0.7039,10.0022 -4.6089,21.9506 -5.7406,17.5647 -5.6652,20.9079 0.8562,37.9612 2.4658,6.4482 4.2466,11.9607 3.9573,12.25 -0.2894,0.2893 -1.9698,0.5261 -3.7344,0.5261 -4.9176,0 -9.2791,1.0906 -9.8011,2.4508 -0.8601,2.2413 5.9245,40.0212 9.9756,55.5492 1.9629,7.5234 2.5189,12.3087 2.6728,23 0.2077,14.4253 -0.3451,16.5352 -7.2696,27.75 l -2.0066,3.25 -12.6367,0 -12.6367,0 1.6498,-2.25 z m -200.6559,0 c -0.8978,-0.6875 -6.0788,-13.3674 -11.5134,-28.1775 l -9.881,-26.9275 2.0269,-8.3225 c 1.1147,-4.5774 2.2978,-8.3225 2.6289,-8.3225 0.3312,0 6.7416,16.0748 14.2454,35.7218 9.8373,25.7569 13.3085,35.9347 12.4433,36.4847 -1.8957,1.2051 -8.1553,0.9178 -9.9501,-0.4565 z m 17.2501,-1.1733 c 0,-2.3705 4.9794,-7.5175 9.3667,-9.682 2.2733,-1.1216 7.0583,-2.9538 10.6333,-4.0717 7.5424,-2.3583 9,-3.3364 9,-6.0391 0,-1.0841 -5.68,-14.8665 -12.6223,-30.6275 -14.3777,-32.6416 -18.9696,-45.4177 -22.8275,-63.513 l -2.7179,-12.7482 13.0941,-17.4476 c 7.2017,-9.5962 13.466,-17.4476 13.9207,-17.4476 0.9177,0 5.4349,21.2625 7.6482,36 4.605,30.6628 5.6782,36.0036 9.0419,45 1.9537,5.225 6.4363,19.175 9.9614,31 5.6989,19.1168 6.5325,23.023 7.5203,35.2403 0.6111,7.5572 0.8302,14.1947 0.4871,14.75 -0.394,0.6375 -10.1849,1.0097 -26.565,1.0097 -21.7705,0 -25.941,-0.2289 -25.941,-1.4233 z m -96.25,-2.3222 c -5.3625,-0.1799 -9.75,-0.6605 -9.75,-1.0683 0,-3.4118 6.9217,-8.0073 15,-9.9591 11.7212,-2.8318 14.0378,-3.5678 15.0433,-4.7793 0.6715,-0.8091 1.4247,-12.4141 1.9875,-30.6253 0.4984,-16.1274 1.1285,-32.6975 1.4001,-36.8225 0.742,-11.2665 4.2311,-38.5604 5.9445,-46.5 1.3855,-6.4205 13.1463,-35.6318 22.1438,-55 7.361,-15.84574 10.1683,-27.93889 7.8738,-33.91826 -0.8811,-2.29626 -2.0594,-1.98332 -6.7247,1.78602 -6.2256,5.03005 -7.8337,5.62069 -17.8095,6.54119 -8.9667,0.82741 -9.2211,0.92295 -12.5578,4.71775 -3.6699,4.17357 -7.2435,10.83238 -7.279,13.56294 -0.012,0.92933 3.4148,11.03426 7.6153,22.45526 l 7.6373,20.7656 -1.7648,5.192 c -2.0179,5.9366 -3.4591,8.3619 -4.0989,6.8975 -0.2403,-0.55 -4.3809,-10.225 -9.2013,-21.5 -8.2684,-19.34 -8.9689,-20.5966 -12.3786,-22.2069 -4.4448,-2.099 -9.3013,-7.8392 -11.4972,-13.5893 -1.3862,-3.62968 -1.4649,-5.12379 -0.492,-9.33871 0.637,-2.75975 1.1582,-6.17202 1.1582,-7.58284 0,-1.41082 -3.8768,-9.32965 -8.615,-17.5974 l -8.6151,-15.03229 4.8651,-4.28527 c 2.6757,-2.3569 5.2835,-4.16425 5.7949,-4.01634 0.5115,0.14792 5.2373,7.98919 10.5018,17.42505 5.2646,9.43586 10.2461,17.78727 11.0701,18.55868 2.0598,1.92829 7.7294,3.70564 9.569,2.99974 1.6266,-0.6242 4.7611,-6.25436 5.7535,-10.33447 0.9939,-4.08642 6.1068,-9.42433 19.2608,-20.10849 6.8831,-5.59075 12.656,-11.05285 12.9394,-12.24288 0.2814,-1.18175 2.0698,-11.49159 3.9742,-22.91076 1.9044,-11.41917 4.1618,-22.11435 5.0164,-23.76706 0.8547,-1.65272 4.6884,-6.02419 8.5194,-9.71439 4.2281,-4.07268 6.9493,-7.50468 6.9243,-8.73294 -0.023,-1.11291 -1.0352,-4.04848 -2.25,-6.52348 -2.1785,-4.43823 -2.2911,-4.5086 -8.2088,-5.12662 -3.3,-0.34465 -6.8041,-0.96168 -7.787,-1.37119 -3.5346,-1.47271 -4.713,-5.84429 -4.713,-17.48391 0,-8.63433 -0.3126,-11.20101 -1.4157,-11.62433 -0.7787,-0.29881 -5.8082,0.62579 -11.1766,2.05466 -7.6942,2.04788 -9.9349,2.32836 -10.583,1.32467 -1.7928,-2.77642 0.166,-4.52635 12.0591,-10.77328 13.1107,-6.88651 16.9497,-10.05834 23.1867,-19.15711 2.1329,-3.11141 5.0752,-6.59891 6.5386,-7.75 3.223,-2.53526 8.758,-2.73007 14.3213,-0.50405 4.4734,1.78986 11.8635,10.0975 15.6772,17.6235 3.1169,6.15093 3.278,14.79371 0.3691,19.80326 -7.0786,12.19048 -8.1184,17.74369 -5.381,28.73669 2.0244,8.12937 1.2306,7.17837 18.4043,22.04885 l 3.5,3.03059 0.6237,13.83414 c 0.343,7.60877 1.2136,27.23357 1.9346,43.61066 l 1.311,29.77653 -2.3739,1.66275 c -5.6713,3.97232 -5.6977,4.05801 -6.4506,20.90709 -1.0915,24.43045 0.056,22.07715 -27.5685,56.53385 -16.1764,20.1771 -24.0007,30.7255 -24.478,33 -0.3859,1.8388 -2.4332,10.5433 -4.5497,19.3433 -2.1164,8.8 -5.6489,23.4999 -7.8499,32.6664 -2.4034,10.009 -4.4184,21.463 -5.0446,28.674 -0.912,10.5032 -1.63,15.4451 -3.6193,24.9096 -0.4698,2.2351 -0.583,2.2486 -17.2038,2.0407 -9.202,-0.1151 -21.1185,-0.3564 -26.481,-0.5362 z"
         id="path4876"
         inkscape:connector-curvature="0" />
    </g>
  </g>
</svg>
