<svg xmlns="http://www.w3.org/2000/svg" width="604" height="904">
<title>6.3 Телефон для виклику аварійної служби</title>
<defs><style>.cls-1{fill:#fff}</style></defs><rect class="cls-1" x="2" y="2" width="600" height="900" rx="45"/><path d="M557 2a45 45 0 0 1 45 45v810a45 45 0 0 1-45 45H47a45 45 0 0 1-45-45V47A45 45 0 0 1 47 2h510m0-2H47A47.053 47.053 0 0 0 0 47v810a47.053 47.053 0 0 0 47 47h510a47.053 47.053 0 0 0 47-47V47a47.053 47.053 0 0 0-47-47z"/><rect x="12" y="12" width="580" height="880" rx="35" style="fill:#005da2"/><rect class="cls-1" x="53" y="129" width="498" height="498" rx="35"/><path d="m380.445 302.93 38.474 25.468a13.372 13.372 0 0 0 18.528-3.771l10.337-15.613-60.773-40.225-10.337 15.612a13.366 13.366 0 0 0 3.771 18.528z"/><path d="m153.635 305.11 60.773-40.225a9.352 9.352 0 0 1-.34-.548c-3.665-6.306 1.316-14.175 8.604-13.968h158.656c7.288-.207 12.27 7.662 8.605 13.968-.107.187-.22.367-.341.548l60.773 40.225c18.795-28.116 9.026-66.075-20.04-82.817-42.699-28.33-86.709-38.52-128.325-37.177-41.616-1.344-85.626 8.846-128.326 37.177-29.065 16.742-38.834 54.701-20.039 82.817z"/><path d="m223.555 302.93-38.474 25.468a13.372 13.372 0 0 1-18.528-3.771l-10.337-15.613 60.773-40.226 10.337 15.613a13.366 13.366 0 0 1-3.771 18.528z"/><g><path d="M173.707 570.987c-19.998 0-39.006-5.544-52.667-21.582l16.235-14.651c9.108 10.691 22.968 15.642 38.016 15.642 17.82 0 28.313-6.93 28.313-18.81 0-11.683-10.493-19.008-32.075-22.374-30.492-4.752-46.332-18.81-46.332-41.382 0-24.156 18.216-38.61 49.302-38.61 18.414 0 36.036 5.148 47.916 17.82L205.98 460.9c-8.117-7.92-19.007-11.286-30.689-11.286-17.028 0-26.73 6.733-26.73 18.018 0 10.89 9.108 17.226 29.304 20.196 32.075 4.95 48.906 19.602 48.906 42.768 0 24.947-19.602 40.391-53.064 40.391zM361.015 500.104c0 45.143-21.187 70.883-58.212 70.883s-58.211-25.74-58.211-70.883c0-45.342 21.185-70.884 58.21-70.884s58.213 25.542 58.213 70.884zm-93.258 0c0 32.868 12.078 50.292 35.046 50.292s35.046-17.424 35.046-50.49-12.078-50.094-35.046-50.094-35.046 17.226-35.046 50.292zM428.73 570.987c-19.998 0-39.005-5.544-52.668-21.582l16.237-14.651c9.107 10.691 22.967 15.642 38.015 15.642 17.82 0 28.314-6.93 28.314-18.81 0-11.683-10.494-19.008-32.076-22.374-30.491-4.752-46.331-18.81-46.331-41.382 0-24.156 18.216-38.61 49.3-38.61 18.415 0 36.037 5.148 47.916 17.82l-16.433 13.86c-8.118-7.92-19.008-11.286-30.69-11.286-17.028 0-26.73 6.733-26.73 18.018 0 10.89 9.108 17.226 29.304 20.196 32.076 4.95 48.905 19.602 48.905 42.768 0 24.947-19.602 40.391-53.063 40.391z"/></g></svg>