<svg xmlns="http://www.w3.org/2000/svg" width="600" height="900"><path d="M550 0H50C22.5 0 0 22.5 0 50v800c0 27.5 22.5 50 50 50h500c27.5 0 50-22.5 50-50V50c0-27.5-22.5-50-50-50h0z"/><path fill="#fff" d="M550 .5c27.295 0 49.5 22.206 49.5 49.5v800c0 27.295-22.205 49.5-49.5 49.5H50C22.706 899.5.5 877.295.5 850V50C.5 22.706 22.706.5 50 .5h500"/><path fill="#005ca1" d="M587.791 851c0 19.25-15.75 35-35 35H48.209c-19.25 0-35.015-16.75-35.015-36V48.103c0-19.25 14.765-35.641 34.015-35.641h506.582c19.25 0 34 15.4 34 34.641V851z"/><path fill="#fff" d="M534.625 566.463c0 18.461-13.926 33.57-32.39 33.57H98.765c-18.463 0-32.515-15.109-32.515-33.57V164.57c0-18.464 14.052-33.57 32.515-33.57h403.471c18.464 0 32.39 15.1 32.39 33.57l-.001 401.893h0z"/><path d="M389.514 398.522L372.75 348s-4-16.009-16-16H242s-10.25-.761-16.25 11.995l-16.359 54.537c-7.969.324-14.391 6.924-14.391 14.968V454c0 8.25 7.75 16 16 16h177c8.25 0 15-6.75 15-15v-42.5c0-8.076-5.518-13.741-13.486-13.978zM239.25 351s1.5-6 8.25-6h104.75s7 .25 8.75 7.25l14.214 46.25H226.163L239.25 351zm2.5 148.75c0 9.112-7.388 16.5-16.5 16.5s-16.5-7.388-16.5-16.5v-22h33v22zm146.75 2c0 9.112-7.389 16.5-16.5 16.5s-16.5-7.388-16.5-16.5v-22h33v22zM131 511.5l13.75 2 102.5-287.25h-11zm132.5-285.25h12.25L257 317.75h-13.25zm33 1.5H310l-.57 91.147-14.984-.567zm33.333 0H341l18 91.147h-14.584zm26.167 0h11.667L464 519.334h-10.667zm11.824-8.878l-131.158-.705V205.5s-1.333-18.333 21.333-20.5h16.5s9.167-1.667 12-11.167v-22h33.334v21.833s.833 11.166 11.833 13.333H349.5s16.167.5 18.324 18.333v13.54z"/></svg>