<svg xmlns="http://www.w3.org/2000/svg" width="604" height="904">
<title>6.7.3 Електрозарядні станції</title>
<defs><style>.cls-1{fill:#fff}.cls-3{fill:#04ae67}</style></defs><rect class="cls-1" x="2" y="2" width="600" height="900" rx="45"/><path d="M557 2a45 45 0 0 1 45 45v810a45 45 0 0 1-45 45H47a45 45 0 0 1-45-45V47A45 45 0 0 1 47 2h510m0-2H47A47.053 47.053 0 0 0 0 47v810a47.053 47.053 0 0 0 47 47h510a47.053 47.053 0 0 0 47-47V47a47.053 47.053 0 0 0-47-47z"/><rect x="12" y="12" width="580" height="880" rx="35" style="fill:#005da2"/><rect class="cls-1" x="53" y="129" width="498" height="498" rx="35"/><path class="cls-3" d="M303 190h148a20 20 0 0 1 20 20v360H283V210a20 20 0 0 1 20-20z"/><rect class="cls-1" x="311" y="229" width="132" height="112" rx="20"/><path class="cls-1" d="M155.142 796.042c-20.02 0-34.72-11.9-34.72-28.42a25.47 25.47 0 0 1 15.96-23.8 22.89 22.89 0 0 1-13.86-21.28c0-15.54 13.86-26.74 32.62-26.74s32.62 11.06 32.62 26.46a23.804 23.804 0 0 1-13.86 21.56 25.191 25.191 0 0 1 15.96 23.8c0 16.52-14.7 28.42-34.72 28.42zm.14-13.72c10.92 0 19.04-6.86 19.04-16.24 0-9.1-8.12-15.54-19.18-15.54s-19.18 6.58-19.18 15.68c0 9.38 8.26 16.1 19.32 16.1zm-.14-44.66c9.94 0 17.08-6.02 17.08-14.28 0-7.98-7.28-13.86-17.08-13.86s-17.08 5.88-17.08 13.86c0 8.26 7.28 14.28 17.08 14.28zM237.741 695.383c22.54 0 33.6 16.799 33.6 50.4 0 33.46-11.06 50.259-33.6 50.259-22.4 0-33.46-16.8-33.46-50.26 0-33.6 11.06-50.4 33.46-50.4zm-17.92 50.4c0 23.519 6.3 36.54 17.92 36.54s18.06-13.021 18.06-36.54c0-23.66-6.44-36.681-18.06-36.681s-17.92 13.02-17.92 36.68zM320.34 695.383c22.54 0 33.601 16.799 33.601 50.4 0 33.46-11.06 50.259-33.6 50.259-22.4 0-33.46-16.8-33.46-50.26 0-33.6 11.06-50.4 33.46-50.4zm-17.92 50.4c0 23.519 6.3 36.54 17.92 36.54s18.061-13.021 18.061-36.54c0-23.66-6.44-36.681-18.06-36.681s-17.92 13.02-17.92 36.68zM439.2 783.441l-19.6-33.6.14 45.08h-14.7v-70H421l21.28 36.68 21.42-36.68h15.82v70h-14.561v-45.08l-19.46 33.6z"/><path style="opacity:.5;fill:#04ae67" d="M224.913 328H205v-80h47v25.217L224.913 328z"/><path class="cls-3" d="M213 359.39V328h11.91L252 273.22V248h-11v-50a8 8 0 0 0-16 0v50h-40v-50a8 8 0 1 0-16 0v50h-11v25.22L185.09 328H197v38.09c-9.46 4.82-18.22 10.87-27.44 18.12-41.37 32.51-67.26 83.37-67.56 132.74-.2 32.38 27.17 52.01 53.73 52.29h.68c16.03 0 31.16-5.85 41.62-16.11 9.66-9.47 14.84-21.94 14.97-36.13V376.43c15.05-5.93 32.89-8.7 58.92-8.43l.16-16c-25.1-.27-43.54 2.22-59.08 7.39zm-16 157.54a34.338 34.338 0 0 1-10.17 24.78c-7.6 7.45-18.89 11.66-30.93 11.53-18.74-.2-38.04-13.79-37.9-36.19.27-44.61 23.81-90.69 61.44-120.26A176.769 176.769 0 0 1 197 384.42z"/></svg>