<svg xmlns="http://www.w3.org/2000/svg" width="604" height="904">
<title>6.8 Телефон</title>
<defs><style>.cls-1{fill:#fff}</style></defs><rect class="cls-1" x="2" y="2" width="600" height="900" rx="45"/><path d="M557 2a45 45 0 0 1 45 45v810a45 45 0 0 1-45 45H47a45 45 0 0 1-45-45V47A45 45 0 0 1 47 2h510m0-2H47A47.053 47.053 0 0 0 0 47v810a47.053 47.053 0 0 0 47 47h510a47.053 47.053 0 0 0 47-47V47a47.053 47.053 0 0 0-47-47z"/><rect x="12" y="12" width="580" height="880" rx="35" style="fill:#005da2"/><rect class="cls-1" x="53" y="129" width="498" height="498" rx="35"/><g><path d="m331.635 255.713-.004-69.005a19.998 19.998 0 0 1 19.997-19.994l28.004-.004.001 108.996-28.004.004a19.99 19.99 0 0 1-19.994-19.997z"/><path d="m141.692 536.775 100.333-42.587c.125.299.257.59.402.878 4.839 9.774 18.766 10.058 24.523.798l130.964-197.865c6.274-8.918.571-21.627-10.317-22.262-.322-.021-.64-.028-.965-.027l-.001-108.997c50.58-.231 89.856 43.285 86.743 93.355.086 76.637-23.535 139.935-59.563 190.727-32.677 53.01-81.713 99.485-152.292 129.352-44.873 22.428-100.277 3.278-119.827-43.372z"/><path d="m202.128 451.377-63.52 26.958a19.998 19.998 0 0 0-10.592 26.22l10.938 25.78 100.333-42.588-10.939-25.78a19.99 19.99 0 0 0-26.22-10.59z"/></g></svg>