<svg id="Слой_1" data-name="Слой 1" xmlns="http://www.w3.org/2000/svg" width="600" height="300" viewBox="0 0 600 300">
  <defs>
    <style>
      .cls-1 {
        fill: #fff;
      }
    </style>
  </defs>
  <g>
    <rect class="cls-1" x="5" y="5" width="590" height="290" rx="40"/>
    <path d="M555,10a35.03961,35.03961,0,0,1,35,35V255a35.03961,35.03961,0,0,1-35,35H45a35.0396,35.0396,0,0,1-35-35V45A35.0396,35.0396,0,0,1,45,10H555m0-10H45A45,45,0,0,0,0,45V255a45,45,0,0,0,45,45H555a45,45,0,0,0,45-45V45A45,45,0,0,0,555,0Z"/>
  </g>
  <g>
    <path d="M111.91919,68.07251c18.76025,0,40.20068,13.40039,40.20068,34.03662s-15.0083,35.64453-30.0166,37.52051c9.38037,1.87646,36.44873,13.13232,36.44873,37.521,0,22.51221-19.56445,48.77686-55.209,48.77686-15.0083,0-38.32471-6.43213-38.32471-6.43213L61.802,193.2312c9.11231,6.16406,25.46045,8.30811,37.78858,8.30811,16.88476,0,31.89306-7.5044,32.16113-24.92481,0-6.43213-2.14453-21.97607-26.53272-21.97607-4.55615,0-9.38037,0-13.13232,1.876V135.87769c18.76025-3.752,33.76855-16.88428,33.76855-28.14063,0-9.37988-9.37988-16.88428-18.76025-16.88428-15.0083,0-22.51221,3.75244-33.23291,12.86426L63.946,81.4729C73.32642,75.84448,96.91089,68.07251,111.91919,68.07251Z"/>
    <path d="M283.70581,147.134c0,45.02491-20.63672,76.91748-50.65332,76.91748s-50.65283-31.89257-50.65283-76.91748,20.63623-76.91748,50.65283-76.91748S283.70581,104.52124,283.70581,147.134Zm-75.0415,0c0,37.521,9.916,53.60108,24.38818,53.60108,14.47266,0,24.38867-16.08008,24.38867-53.60108S247.52515,93.533,233.05249,93.533C218.58032,93.533,208.66431,109.613,208.66431,147.134Z"/>
    <path d="M406.449,147.134c0,45.02491-20.63671,76.91748-50.65332,76.91748s-50.65234-31.89257-50.65234-76.91748,20.63574-76.91748,50.65234-76.91748S406.449,104.52124,406.449,147.134Zm-75.042,0c0,37.521,9.917,53.60108,24.38867,53.60108,14.47266,0,24.38868-16.08008,24.38868-53.60108S370.26831,93.533,355.79565,93.533C341.324,93.533,331.407,109.613,331.407,147.134Z"/>
    <path d="M453.60229,142.99292h16.9668l19.7959,39.59131,19.7959-39.59131h16.96777l7.06934,79.18262H517.23022l-4.24121-55.145-22.624,45.24707-22.623-45.24707-4.24218,55.145H446.532Z"/>
  </g>
</svg>
