<svg id="Слой_1" data-name="Слой 1" xmlns="http://www.w3.org/2000/svg" width="600" height="300" viewBox="0 0 600 300">
  <defs>
    <style>
      .cls-1 {
        fill: #fff;
      }

      .cls-2 {
        fill: #007bc2;
      }
    </style>
  </defs>
  <g>
    <rect class="cls-1" x="5" y="5" width="590" height="290" rx="40"/>
    <path d="M555,10a35.03961,35.03961,0,0,1,35,35V255a35.03961,35.03961,0,0,1-35,35H45a35.0396,35.0396,0,0,1-35-35V45A35.0396,35.0396,0,0,1,45,10H555m0-10H45A45,45,0,0,0,0,45V255a45,45,0,0,0,45,45H555a45,45,0,0,0,45-45V45A45,45,0,0,0,555,0Z"/>
  </g>
  <path class="cls-2" d="M415,148v4a7.99782,7.99782,0,0,1-8,8h-9v3a7.99782,7.99782,0,0,1-8,8h-4a7.99782,7.99782,0,0,1-8-8v-5H319.31l41.5,41.5,3.54-3.54a8.00313,8.00313,0,0,1,11.31,0l2.83,2.83a8.00312,8.00312,0,0,1,0,11.31l-2.12,2.13,6.36,6.36a7.985,7.985,0,0,1,0,11.31l-2.83,2.83a7.985,7.985,0,0,1-11.31,0L362.23,226.37l-2.13,2.12a8.00312,8.00312,0,0,1-11.31,0l-2.83-2.83a8.00313,8.00313,0,0,1,0-11.31l3.54-3.54L308,169.31V228h5a7.99778,7.99778,0,0,1,8,8v4a7.99782,7.99782,0,0,1-8,8h-3v9a7.99782,7.99782,0,0,1-8,8h-4a7.99782,7.99782,0,0,1-8-8v-9h-3a7.99782,7.99782,0,0,1-8-8v-4a7.99778,7.99778,0,0,1,8-8h5V169.31l-41.5,41.5,3.54,3.54a8.00313,8.00313,0,0,1,0,11.31l-2.83,2.83a8.00312,8.00312,0,0,1-11.31,0l-2.13-2.12L231.41,232.73a7.985,7.985,0,0,1-11.31,0l-2.83-2.83a7.985,7.985,0,0,1,0-11.31l6.36-6.36-2.12-2.13a8.00312,8.00312,0,0,1,0-11.31l2.83-2.83a8.00313,8.00313,0,0,1,11.31,0l3.54,3.54,41.5-41.5H222v5a7.99782,7.99782,0,0,1-8,8h-4a7.99782,7.99782,0,0,1-8-8v-3h-9a7.99782,7.99782,0,0,1-8-8v-4a7.99778,7.99778,0,0,1,8-8h9v-3a7.99778,7.99778,0,0,1,8-8h4a7.99778,7.99778,0,0,1,8,8v5h58.69l-41.5-41.5-3.54,3.54a8.00313,8.00313,0,0,1-11.31,0l-2.83-2.83a8.00312,8.00312,0,0,1,0-11.31l2.12-2.13-6.36-6.36a7.985,7.985,0,0,1,0-11.31l2.83-2.83a7.98512,7.98512,0,0,1,11.31,0L237.77,73.63l2.13-2.12a8.00312,8.00312,0,0,1,11.31,0l2.83,2.83a8.00313,8.00313,0,0,1,0,11.31l-3.54,3.54,41.5,41.5V72h-5a7.99782,7.99782,0,0,1-8-8V60a7.99778,7.99778,0,0,1,8-8h3V43a7.99778,7.99778,0,0,1,8-8h4a7.99778,7.99778,0,0,1,8,8v9h3a7.99778,7.99778,0,0,1,8,8v4a7.99782,7.99782,0,0,1-8,8h-5v58.69l41.5-41.5-3.54-3.54a8.00313,8.00313,0,0,1,0-11.31l2.83-2.83a8.00312,8.00312,0,0,1,11.31,0l2.13,2.12L368.59,67.27a7.98512,7.98512,0,0,1,11.31,0l2.83,2.83a7.985,7.985,0,0,1,0,11.31l-6.36,6.36,2.12,2.13a8.00312,8.00312,0,0,1,0,11.31l-2.83,2.83a8.00313,8.00313,0,0,1-11.31,0l-3.54-3.54L319.31,142H378v-5a7.99778,7.99778,0,0,1,8-8h4a7.99778,7.99778,0,0,1,8,8v3h9A7.99778,7.99778,0,0,1,415,148Z"/>
</svg>
