<svg id="Слой_1" data-name="Слой 1" xmlns="http://www.w3.org/2000/svg" width="600" height="300" viewBox="0 0 600 300">
  <defs>
    <style>
      .cls-1 {
        fill: #fff;
      }
    </style>
  </defs>
  <g>
    <rect class="cls-1" x="5" y="5" width="590" height="290" rx="40"/>
    <path d="M555,10a35.03961,35.03961,0,0,1,35,35V255a35.03961,35.03961,0,0,1-35,35H45a35.0396,35.0396,0,0,1-35-35V45A35.0396,35.0396,0,0,1,45,10H555m0-10H45A45,45,0,0,0,0,45V255a45,45,0,0,0,45,45H555a45,45,0,0,0,45-45V45A45,45,0,0,0,555,0Z"/>
  </g>
  <g>
    <g>
      <polygon points="184 206 156 253 174 253 202 206 184 206"/>
      <polygon points="221.761 223 193.761 270 211.761 270 239.761 223 221.761 223"/>
      <polygon points="275.761 206 247.761 253 265.761 253 293.761 206 275.761 206"/>
      <polygon points="313.761 223 285.761 270 303.761 270 331.761 223 313.761 223"/>
      <polygon points="364.761 206 336.761 253 354.761 253 382.761 206 364.761 206"/>
    </g>
    <path d="M381,27c-59,0-69,46-69,46s-26-25-62-8c-33.26,15.71-32.24,46.6-32.24,46.6S211,103,188,103c-18,0-33,15-38,26-17,45,22,64,37,63H394c19.04,0,67-28,67-74C461,55,418,27,381,27Zm5.2,151H192.31c-13.54.91-41.31-15-28.31-44,7-11,17-16,28-16,16,0,38,24,38,24s-4.86-55.47,29.19-64.67C290,69,303.89623,81.32805,311.86,97.02,322,117,326.99,128.99,326.99,128.99s-2.33126-26.0055-1.16-48.01C327,59,348,42,378.46,42.02c33.4.02,67.22,18.28,67.22,75.16C445.68,158.71,403.38,178,386.2,178Z"/>
  </g>
</svg>
