<svg id="Слой_1" data-name="Слой 1" xmlns="http://www.w3.org/2000/svg" width="600" height="300" viewBox="0 0 600 300">
  <defs>
    <style>
      .cls-1 {
        fill: #fff;
      }
    </style>
  </defs>
  <g>
    <rect class="cls-1" x="5" y="5" width="590" height="290" rx="40"/>
    <path d="M555,10a35.03961,35.03961,0,0,1,35,35V255a35.03961,35.03961,0,0,1-35,35H45a35.0396,35.0396,0,0,1-35-35V45A35.0396,35.0396,0,0,1,45,10H555m0-10H45A45,45,0,0,0,0,45V255a45,45,0,0,0,45,45H555a45,45,0,0,0,45-45V45A45,45,0,0,0,555,0Z"/>
  </g>
  <g>
    <path d="M443,26A123.95281,123.95281,0,0,0,335.28,88.54a101.49589,101.49589,0,0,0-162.83,1.72,85,85,0,1,0,0,119.48,101.49584,101.49584,0,0,0,162.83,1.72A124.00839,124.00839,0,1,0,443,26ZM170.15,199.22c-.85,1.06-1.73,2.1-2.63,3.11a78.83,78.83,0,1,1,0-104.66c.9,1.01,1.78,2.05,2.63,3.11a78.84553,78.84553,0,0,1,0,98.44Zm162.42-3.25c-.89,1.58-1.82,3.14-2.79,4.66a94.16024,94.16024,0,0,1-154.5,6.1,84.946,84.946,0,0,0,0-113.46,94.16028,94.16028,0,0,1,154.5,6.1c.97,1.52,1.9,3.08,2.79,4.66a94.25759,94.25759,0,0,1,0,91.94ZM438,265a114.97029,114.97029,0,0,1-99.73-57.68,101.52114,101.52114,0,0,0,0-114.64A115.01223,115.01223,0,1,1,438,265Z"/>
    <g>
      <path d="M76.38086,110.60059H88.14062V189H74.4209V128.24023l-10.5,6.58008-4.62012-6.02Z"/>
      <path d="M157.01855,149.80029c0,23.52-10.77929,40.18018-26.45947,40.18018-15.67969,0-26.46-16.66016-26.46-40.18018s10.78027-40.18017,26.46-40.18017C146.23926,109.62012,157.01855,127.54,157.01855,149.80029Zm-39.19921,0c0,19.6001,5.17968,27.99951,12.73974,27.99951s12.73975-8.39941,12.73975-27.99951-5.17969-28-12.73975-28S117.81934,130.2002,117.81934,149.80029Z"/>
    </g>
    <g>
      <path d="M229.34131,104.32861c11.93506,0,24.95508,9.76514,24.95508,22.78467,0,10.8501-2.01514,14.25977-7.59522,21.08008-6.81982,8.67969-17.0498,18.13476-28.20947,29.91406h35.80469a42.46858,42.46858,0,0,1-3.25537,14.10547H198.96191V179.19336A330.27061,330.27061,0,0,0,230.58154,146.333c5.27-6.19971,9.145-10.53955,9.145-19.21973,0-5.4248-4.96-11.31494-12.55517-11.31494-6.50977,0-11.93506,5.89014-17.35987,11.31494l-8.67968-9.76465C207.6416,109.90869,216.32129,104.32861,229.34131,104.32861Z"/>
      <path d="M282.34961,119.51855V140.1333c3.25537-4.33984,9.145-5.4248,14.10547-5.4248A26.59308,26.59308,0,0,1,322.49414,161.833c0,17.36035-13.01953,31.46484-33.63428,31.46484-9.76513,0-20.61474-4.33984-20.61474-4.33984l-2.16992-14.10449c5.26953,3.56445,13.48486,4.33984,20.61474,4.33984,8.68018,0,19.52979-5.42578,19.52979-16.27539,0-7.59473-5.42481-16.2749-15.18994-16.2749-6.50977,0-10.8501,5.42529-13.02,6.51025l-9.76465-5.42529V105.41357H318.1543l-4.33985,14.105Z"/>
    </g>
    <g>
      <path d="M393.60059,113.98242v23.93946c3.77929-5.04,10.61914-6.29981,16.3789-6.29981a30.8827,30.8827,0,0,1,30.23926,31.499c0,20.15918-15.12012,36.53809-39.05859,36.53809-11.33985,0-23.93946-5.04-23.93946-5.04l-2.51953-16.37891c6.12012,4.13965,15.65918,5.04,23.93945,5.04,10.07911,0,22.67872-6.2998,22.67872-18.89941,0-8.82031-6.29981-18.89941-17.63965-18.89941-7.55957,0-12.59961,6.2998-15.11914,7.55957l-11.33985-6.29981V97.60352h57.958l-5.04,16.3789Z"/>
      <path d="M521.57617,148.001c0,30.23925-13.85937,51.6582-34.01855,51.6582s-34.01856-21.41895-34.01856-51.6582c0-30.23828,13.85938-51.65723,34.01856-51.65723S521.57617,119.38281,521.57617,148.001Zm-50.39746,0c0,25.19922,6.65918,35.999,16.37891,35.999s16.37988-10.7998,16.37988-35.999c0-25.19825-6.66016-35.998-16.37988-35.998S471.17871,122.80273,471.17871,148.001Z"/>
    </g>
  </g>
</svg>
