<svg id="Слой_1" data-name="Слой 1" xmlns="http://www.w3.org/2000/svg" width="600" height="300" viewBox="0 0 600 300">
  <defs>
    <style>
      .cls-1 {
        fill: #fff;
      }
    </style>
  </defs>
  <g>
    <rect class="cls-1" x="5" y="5" width="590" height="290" rx="40"/>
    <path d="M555,10a35.03961,35.03961,0,0,1,35,35V255a35.03961,35.03961,0,0,1-35,35H45a35.0396,35.0396,0,0,1-35-35V45A35.0396,35.0396,0,0,1,45,10H555m0-10H45A45,45,0,0,0,0,45V255a45,45,0,0,0,45,45H555a45,45,0,0,0,45-45V45A45,45,0,0,0,555,0Z"/>
  </g>
  <g>
    <path d="M289.17285,74.62451c20.63574,0,43.14844,16.88428,43.14844,39.397,0,18.76026-3.4834,24.65625-13.13184,36.44825-11.793,15.00879-29.481,31.35693-48.77734,51.72509h61.90918c0,5.62842-1.876,15.0083-5.62793,24.38868H236.64355V204.07129a571.05905,571.05905,0,0,0,54.67286-56.81738c9.1123-10.72022,15.8125-18.22461,15.8125-33.23243,0-9.38037-8.57618-19.56445-21.7085-19.56445-11.25635,0-20.63623,10.18408-30.0166,19.56445l-15.0083-16.88476C251.65186,84.27246,266.66016,74.62451,289.17285,74.62451Z"/>
    <path d="M377.877,100.88916v35.64453c5.62891-7.50439,15.8125-9.38037,24.38867-9.38037,20.63672,0,45.0254,16.88477,45.0254,46.90137s-22.5127,54.40478-58.15723,54.40478c-16.88379,0-35.64551-7.5039-35.64551-7.5039l-3.75195-24.38868c9.11328,6.16407,23.3164,7.5044,35.64551,7.5044,15.00781,0,33.76855-9.38037,33.76855-28.14063,0-13.13232-9.38086-28.14062-26.26465-28.14062-11.25683,0-18.76074,9.37988-22.51269,11.25586L353.48828,149.666V76.50049h86.29883l-7.50488,24.38867Z"/>
    <path d="M476.59766,135.24707h19.57226l22.835,45.668,22.834-45.668h19.57226l8.1543,91.33643H549.99414l-4.89355-63.60938L519.00488,215.1665,492.9082,162.97412l-4.89258,63.60938H468.44336Z"/>
  </g>
  <polygon points="122 198 122 168 200 168 200 128 122 128 122 98 42 148 122 198"/>
</svg>
