<svg id="Слой_1" data-name="Слой 1" xmlns="http://www.w3.org/2000/svg" width="300.0002" height="600" viewBox="0 0 300.0002 600">
  <defs>
    <style>
      .cls-1 {
        fill: #fff;
      }
    </style>
  </defs>
  <g>
    <rect class="cls-1" x="5.00011" y="5" width="290" height="590" rx="40"/>
    <path d="M255.00009,10a35.0396,35.0396,0,0,1,35,35l-.00018,510.00009a35.03958,35.03958,0,0,1-35,34.99991h-210a35.03969,35.03969,0,0,1-35-35.00009L10.00011,45a35.03959,35.03959,0,0,1,35-35h210m0-10h-210a44.99993,44.99993,0,0,0-45,45L-.00011,554.99991a45,45,0,0,0,45,45.00009h210a44.99994,44.99994,0,0,0,45-44.99991L300.00009,45a45,45,0,0,0-45-45Z" transform="translate(0.00011)"/>
  </g>
  <g>
    <path d="M94.562,291.27246h20.16016V425.67578H91.20166V321.51367L73.20117,332.794l-7.91992-10.32032Z" transform="translate(0.00011)"/>
    <path d="M222.24121,358.47461c0,40.32031-18.48047,68.88086-45.36084,68.88086-26.88086,0-45.36133-28.56055-45.36133-68.88086,0-40.32129,18.48047-68.88184,45.36133-68.88184C203.76074,289.59277,222.24121,320.31348,222.24121,358.47461Zm-67.20117,0c0,33.60059,8.87988,48.001,21.84033,48.001s21.84033-14.40039,21.84033-48.001c0-33.60156-8.87988-48.00195-21.84033-48.00195S155.04,324.87305,155.04,358.47461Z" transform="translate(0.00011)"/>
    <path d="M112.87207,463.71h17.13525l19.9917,39.98242L169.99023,463.71H187.126l7.13964,79.96582H177.13037l-4.28418-55.69043L149.999,533.67969l-22.84765-45.69434-4.28369,55.69043H105.73193Z" transform="translate(0.00011)"/>
  </g>
  <polygon points="205 139 170 139 170 241 130 241 130 139 95 139 150 43 205 139"/>
</svg>
