<svg xmlns="http://www.w3.org/2000/svg" width="600" height="300" viewBox="0 0 600 300"><defs><style>.a { fill: rgb(255, 255, 255); }.b { fill-rule: evenodd; }</style></defs><g><rect class="a" x="5" y="5" width="590" height="290" rx="40"/><path d="M555,10a35.03961,35.03961,0,0,1,35,35V255a35.03961,35.03961,0,0,1-35,35H45a35.0396,35.0396,0,0,1-35-35V45A35.0396,35.0396,0,0,1,45,10H555m0-10H45A45,45,0,0,0,0,45V255a45,45,0,0,0,45,45H555a45,45,0,0,0,45-45V45A45,45,0,0,0,555,0Z"/></g><rect x="35.964" y="234.346" width="522.964" height="17.88"/><g><path class="b" d="M185.7967,98.02233H157.009L130.69773,124.953a4.92313,4.92313,0,0,0,3.52,8.36388h56.40436a1.97441,1.97441,0,0,0,1.97111-1.96836V104.81449a6.80679,6.80679,0,0,0-6.79624-6.79216Zm63.60137,0H206.59013a6.8033,6.8033,0,0,0-6.79214,6.79216v26.53407a1.9736,1.9736,0,0,0,1.967,1.96836h84.57945a1.96938,1.96938,0,0,0,1.29869-3.45043L252.63661,99.2381a4.73637,4.73637,0,0,0-3.23851-1.21577Zm46.30452,103.34342h-110.475c-.18441-3.03883-.09168-6.10751-.3352-9.10006a36.90174,36.90174,0,0,0-73.11979-3.38391,15.6573,15.6573,0,0,1-7.12764-1.58253c-4.0821-2.17211-7.81637-5.12536-7.81637-10.68261V138.33082c0-7.38164,4.2546-11.63765,7.46589-12.67684a18.35937,18.35937,0,0,0,7.728-4.86311c2.25638-2.25638,33.47018-25.65657,36.42342-28.17508s7.03117-2.43019,10.76687-2.43019h87.564c3.86193,0,6.42263-.09169,11.11183,3.2534,4.68656,3.34314,36.42342,32.04119,41.63437,35.861,5.20951,3.81986,7.98609,3.99377,14.32314,5.38343,6.33848,1.38692,31.692,4.16625,40.45927,6.94293,8.7714,2.78065,25.87662,9.03344,25.87662,16.41112v17.798c0,2.73725-2.30253,7.33957-4.64714,9.81193-1.425,1.50916-4.78711,2.29029-7.19693,2.672A36.90162,36.90162,0,0,0,295.703,201.36575Z"/><path class="b" d="M148.11412,169.21188a26.06745,26.06745,0,1,0,26.06948,26.06949,26.06731,26.06731,0,0,0-26.06948-26.06949Zm0,12.041a14.02845,14.02845,0,1,0,14.03246,14.02849A14.02809,14.02809,0,0,0,148.11412,181.25289Z"/><path class="b" d="M332.09883,169.21188a26.06745,26.06745,0,1,0,26.0641,26.06949,26.06931,26.06931,0,0,0-26.0641-26.06949Zm0,12.041a14.02845,14.02845,0,1,0,14.02706,14.02849,14.02838,14.02838,0,0,0-14.02706-14.02849Z"/></g><g><path class="b" d="M404.82882,68.93716l-11.802,53.00425-4.36186-.9699,11.802-53.00833Z"/><path class="b" d="M357.12781,69.82048l16.28477,51.802-4.2668,1.34077L352.86506,71.1598Z"/><path class="b" d="M316.261,94.43366l40.00415,36.71959-3.02242,3.2914L313.2385,97.72516Z"/></g><g><path class="b" d="M430.35906,83.95585c-6.3615-.63982-8.34074-5.23806-8.37467-11.15534-.0509-9.43423,4.097-16.78878,14.30551-16.83493,8.42086-.04071,15.49826,3.396,13.38041,13.00693C447.89491,77.032,438.84639,84.80625,430.35906,83.95585Z"/><path d="M475.44624,107.97722a10.57229,10.57229,0,0,1,3.48636,7.29184l-.00017,25.9805a6.97318,6.97318,0,1,1-13.94636,0l0-23.7915-16.25513-13.11267v33.96914a10.8989,10.8989,0,0,1-3.487,7.42064l-36.32161,30.11406-15.29193,40.95819a6.97349,6.97349,0,1,1-13.066-4.87824l14.14482-37.88594a30.90094,30.90094,0,0,1,7.839-11.02817l24.39749-20.22759-.00007-42.0946a10.408,10.408,0,0,1,3.57882-7.30651l8.01663-6.22a9.47136,9.47136,0,0,1,11.23894.10639Z"/><path d="M419.71237,136.2753V118.158L398.03571,136.13a6.97371,6.97371,0,0,0,8.90123,10.73773Z"/><path d="M448.9976,152.01918l35.10669,58.77234a6.97318,6.97318,0,0,1-11.973,7.15185l-33.99814-56.91662Z"/></g></svg>