<svg xmlns="http://www.w3.org/2000/svg" width="600" height="300" xmlns:v="https://vecta.io/nano"><rect x="5" y="5" width="590" height="290" rx="40" fill="#fff"/><path d="M555 10a35.04 35.04 0 0 1 35 35v210a35.04 35.04 0 0 1-35 35H45a35.04 35.04 0 0 1-35-35V45a35.04 35.04 0 0 1 35-35h510m0-10H45A45 45 0 0 0 0 45v210a45 45 0 0 0 45 45h510a45 45 0 0 0 45-45V45a45 45 0 0 0-45-45z"/><path d="M341.28 150l74.76 36.11a120.028 120.028 0 0 1-10.09 23.38l-1.48 2.56a120.424 120.424 0 0 1-15.2 20.36l-68.63-46.67 6.11 82.8a122.351 122.351 0 0 1-53.5 0l6.11-82.8-68.63 46.67a120.423 120.423 0 0 1-15.2-20.36l-1.48-2.56a120.028 120.028 0 0 1-10.09-23.38L258.72 150l-74.76-36.11a120.029 120.029 0 0 1 10.09-23.38l1.48-2.56a120.427 120.427 0 0 1 15.2-20.36l68.63 46.67-6.11-82.8a122.354 122.354 0 0 1 53.5 0l-6.11 82.8 68.63-46.67a120.426 120.426 0 0 1 15.2 20.36l1.48 2.56a120.029 120.029 0 0 1 10.09 23.38z" fill="#da251d"/></svg>