<svg xmlns="http://www.w3.org/2000/svg" xmlns:xlink="http://www.w3.org/1999/xlink" width="600" height="300" xmlns:v="https://vecta.io/nano"><rect x="5" y="5" width="590" height="290" rx="40" fill="#fff"/><path d="M555 10a35.04 35.04 0 0 1 35 35v210a35.04 35.04 0 0 1-35 35H45a35.04 35.04 0 0 1-35-35V45a35.04 35.04 0 0 1 35-35h510m0-10H45A45 45 0 0 0 0 45v210a45 45 0 0 0 45 45h510a45 45 0 0 0 45-45V45a45 45 0 0 0-45-45zM90.973 172.68c0 18.424-18.424 23.688-18.424 23.688s21.057 7.896 21.057 26.32c0 13.16-9.212 30.269-35.533 30.269S22.54 235.849 22.54 222.688c0-18.424 21.056-26.32 21.056-26.32s-18.424-5.264-18.424-23.688 15.792-27.637 32.901-27.637 32.9 9.212 32.9 27.637zm-50.009 51.325c0 9.212 9.212 13.161 17.108 13.161s17.108-3.948 17.108-13.161c0-10.528-17.108-19.74-17.108-19.74s-17.108 10.528-17.108 19.74zm2.632-51.325c0 7.896 14.477 15.792 14.477 15.792s14.476-7.896 14.476-15.792c0-9.212-6.58-12.596-14.476-12.596s-14.477 3.384-14.477 12.596zm66.391 79.726a9.333 9.333 0 1 1 9.333-9.333 9.336 9.336 0 0 1-9.333 9.333z"/><use xlink:href="#B"/><use xlink:href="#B" x="66.861"/><path d="M266 197h30v12h-30zm60.17-50.641h15.792v105.282h-18.425v-81.594l-14.1 8.836-6.204-8.084zm36.093 0h63.169v13.161c-13.16 26.32-26.32 53.957-34.216 92.122h-19.741c5.265-31.584 21.057-64.485 35.533-88.174h-48.693zm75.979 106.047a9.333 9.333 0 1 1 9.333-9.333 9.337 9.337 0 0 1-9.333 9.333z"/><use xlink:href="#C"/><use xlink:href="#C" x="66.86"/><path d="M159.17 46.799l-10.433 3.885c-2.331-7.77-6.336-10.877-12.098-10.877-8.546 0-14.762 8.546-14.762 22.532s6.216 22.531 14.762 22.531c5.762 0 9.767-3.108 12.098-10.877l10.433 3.885c-3.885 10.101-10.723 17.093-22.531 17.093-17.093 0-25.306-14.609-25.306-32.631s8.213-32.632 25.306-32.632c11.809 0 18.647 6.992 22.531 17.093zm21.269-15.539h38.848v10.1h-27.97v14.762h22.531v9.323h-22.531v18.647h28.747v9.323h-39.625zm80.201 0c14.762 0 20.201 11.654 20.201 20.201s-5.439 20.201-20.201 20.201h-10.1v21.754h-10.877V31.26zm-10.1 31.078h6.993c6.215 0 12.431-3.108 12.431-10.877s-6.216-10.877-12.431-10.877h-6.993zm48.899-31.078h38.847v10.1h-27.97v14.762h22.531v9.323h-22.531v18.647h28.747v9.323h-39.624zm63.058 52.833c3.107-7.77 6.992-28.525 6.992-43.509V31.26h36.517v52.833h6.992v20.201h-9.323V93.416h-38.848v10.877h-9.323v-20.2zm32.631 0V40.584h-14.762c0 14.762-3.107 33.409-7.325 43.509zm67.339-52.833l20.2 62.156h-11.654l-3.885-12.431h-21.754l-3.885 12.431h-11.654l20.2-62.156zm1.554 40.401l-7.77-26.416-7.77 26.417z"/><defs ><path id="B" d="M184.345 208.801c0 25.704-11.781 43.911-28.917 43.911s-28.917-18.207-28.917-43.911 11.781-43.911 28.917-43.911 28.917 19.584 28.917 43.911zm-42.84 0c0 21.42 5.661 30.6 13.923 30.6s13.923-9.18 13.923-30.6-5.661-30.6-13.923-30.6-13.923 9.18-13.923 30.6z"/><path id="C" d="M512.6 208.801c0 25.704-11.78 43.911-28.917 43.911s-28.917-18.207-28.917-43.911 11.781-43.911 28.917-43.911 28.917 19.584 28.917 43.911zm-42.84 0c0 21.42 5.661 30.6 13.923 30.6s13.923-9.18 13.923-30.6-5.66-30.6-13.923-30.6-13.923 9.18-13.923 30.6z"/></defs></svg>