<svg id="Слой_1" data-name="Слой 1" xmlns="http://www.w3.org/2000/svg" width="600" height="300" viewBox="0 0 600 300">
  <defs>
    <style>
      .cls-1 {
        fill: #fff;
      }
    </style>
  </defs>
  <g>
    <rect class="cls-1" x="5" y="5" width="590" height="290" rx="40"/>
    <path d="M555,10a35.03961,35.03961,0,0,1,35,35V255a35.03961,35.03961,0,0,1-35,35H45a35.0396,35.0396,0,0,1-35-35V45A35.0396,35.0396,0,0,1,45,10H555m0-10H45A45,45,0,0,0,0,45V255a45,45,0,0,0,45,45H555a45,45,0,0,0,45-45V45A45,45,0,0,0,555,0Z"/>
  </g>
  <g>
    <path d="M446.90554,122.23127a73.38753,73.38753,0,0,0-16.03062,1.76286l-5.96222-17.17h32.38372V99.69739a23.03928,23.03928,0,0,0-22.971-23.03908l-81.7583-.2365A31.31461,31.31461,0,0,0,325.07426,92.585L317.1987,106.8241H407.542l7.8469,22.53389a73.12345,73.12345,0,1,0,31.51662-7.12672ZM481.36382,229.784a48.73143,48.73143,0,1,1-57.89152-77.20422l9.255,26.58274a21.50144,21.50144,0,1,0,15.461-5.29578L438.944,147.241a49.31683,49.31683,0,0,1,7.96156-.64495A48.73138,48.73138,0,0,1,481.36382,229.784Z"/>
    <path d="M371.61107,121.56483l-61.5785-.00005L292.4039,158.70325a8.96337,8.96337,0,0,1-8.0798,5.09154H257.93128a8.95844,8.95844,0,0,1-8.79285-7.23779l-8.95407-45.79511a9.315,9.315,0,0,1,9.144-11.10391h41.714a14.33289,14.33289,0,0,0,14.33224-14.33225V81.02606a14.33287,14.33287,0,0,0-14.33224-14.33225H220.18371a2.54017,2.54017,0,0,1-2.19642-3.80162l9.26938-16.08437a2.51285,2.51285,0,0,1,2.17492-1.25407h21.12216a7.16416,7.16416,0,0,0,7.16612-7.16613,6.814,6.814,0,0,0-6.80782-6.80782h-61.987A10.74851,10.74851,0,0,0,178.1759,42.329V56.30293a10.74851,10.74851,0,0,0,10.74918,10.74919h4.38208a2.15024,2.15024,0,0,1,2.00294,2.93094l-21.48763,55.22932a73.12735,73.12735,0,1,0,14.91629,6.28468l21.699-54.91042a2.14889,2.14889,0,0,1,4.08828.28664l28.65732,118.45245s4.00945,21.49837,25.93421,21.49837h92.15277c-7.88274-53.38762,20.42345-79.90228,20.42345-79.90228V131.5974A10.03147,10.03147,0,0,0,371.61107,121.56483ZM187.55276,160.86741a48.73568,48.73568,0,1,1-34.4583-14.27132,49.04038,49.04038,0,0,1,11.84919,1.444l-10.06483,25.86254q-.88141-.07521-1.78436-.07523a21.4966,21.4966,0,1,0,16.06646,7.21271l10.50552-26.57915A49.21023,49.21023,0,0,1,187.55276,160.86741Z"/>
  </g>
</svg>
