<svg id="Слой_1" data-name="Слой 1" xmlns="http://www.w3.org/2000/svg" width="600" height="300" viewBox="0 0 600 300">
  <defs>
    <style>
      .cls-1 {
        fill: #fff;
      }
    </style>
  </defs>
  <g>
    <rect class="cls-1" x="5" y="5" width="590" height="290" rx="40"/>
    <path d="M555,10a35.03961,35.03961,0,0,1,35,35V255a35.03961,35.03961,0,0,1-35,35H45a35.0396,35.0396,0,0,1-35-35V45A35.0396,35.0396,0,0,1,45,10H555m0-10H45A45,45,0,0,0,0,45V255a45,45,0,0,0,45,45H555a45,45,0,0,0,45-45V45A45,45,0,0,0,555,0Z"/>
  </g>
  <path d="M590,200v55a35,35,0,0,1-35,35H45a35,35,0,0,1-35-35V236H311V200Z"/>
  <g>
    <path d="M81,194a14,14,0,1,1-14,14,14.01586,14.01586,0,0,1,14-14m0-10a24,24,0,1,0,24,24,24,24,0,0,0-24-24Z"/>
    <path d="M243,194a14,14,0,1,1-14,14,14.01586,14.01586,0,0,1,14-14m0-10a24,24,0,1,0,24,24,24,24,0,0,0-24-24Z"/>
    <path d="M268,162l-50-11.39L174,113H66.09L43,148c-11.99,17.23-6.57,43.45,10.36,55.52A28.0004,28.0004,0,0,1,109,208c0,.66-.02,1.31-.08,1.96l106.15-.13c-.05-.6-.07-1.21-.07-1.83a27.993,27.993,0,0,1,55.98-.59C277.96,203.62,283,195.81,283,188V171C283,166,274.9,163.74,268,162ZM67.15,159a7.99873,7.99873,0,0,1-6.72-12.34L77,121h94.43L212,159Z"/>
  </g>
</svg>
