<svg id="Слой_1" data-name="Слой 1" xmlns="http://www.w3.org/2000/svg" width="600" height="600" viewBox="0 0 600 600">
  <defs>
    <style>
      .cls-1 {
        fill: #fff;
      }
    </style>
  </defs>
  <g>
    <rect class="cls-1" x="5" y="5" width="590" height="590" rx="40"/>
    <path d="M555,10a35.03961,35.03961,0,0,1,35,35V555a35.03963,35.03963,0,0,1-35,35H45a35.03961,35.03961,0,0,1-35-35V45A35.0396,35.0396,0,0,1,45,10H555m0-10H45A45,45,0,0,0,0,45V555a45,45,0,0,0,45,45H555a45,45,0,0,0,45-45V45A45,45,0,0,0,555,0Z"/>
  </g>
  <path d="M330,360V590H270V375a45,45,0,0,0-45-45H10V270H240A90,90,0,0,1,330,360Z"/>
  <rect x="294" y="10" width="12" height="260"/>
  <rect x="454" y="170" width="12" height="260" transform="translate(160 760) rotate(-90)"/>
</svg>
