<svg xmlns="http://www.w3.org/2000/svg" width="660.179" height="580.218"><path d="M31.961 579.11a31 31 0 0 1-26.846-46.5L303.153 16.39a31 31 0 0 1 53.694 0L654.886 532.61a31 31 0 0 1-26.848 46.5z" transform="translate(.09 .109)" style="fill:#ffdf00"/><path d="M330.09 2a29.72 29.72 0 0 1 25.98 15L654.11 533.218a30 30 0 0 1-25.981 45H32.051a30 30 0 0 1-25.98-45L304.108 17a29.72 29.72 0 0 1 25.98-15m0-2a31.675 31.675 0 0 0-27.712 16L4.338 532.218a32 32 0 0 0 27.713 48h596.077a32 32 0 0 0 27.713-48L357.802 16A31.675 31.675 0 0 0 330.09 0z"/><path d="M581.274 511.219a10 10 0 0 1-8.66 15H87.386a10 10 0 0 1-8.66-15L321.34 90.999a10 10 0 0 1 17.32 0zM330 11.999a19.813 19.813 0 0 0-17.32 10L14.64 538.219a20 20 0 0 0 17.32 30H628.04a20 20 0 0 0 17.32-30L347.322 21.999a19.813 19.813 0 0 0-17.321-10z" transform="translate(.09 .109)" style="fill:#da251d"/><path d="M281.1 349.749h-7.74l-17.64-58.257a24 24 0 0 0-22.739-16.323H215.16l-11.41 19.77h21.397a15 15 0 0 1 14.264 10.357l14.469 44.453h-81.77l-52.08 90.2H281.1a15 15 0 0 0 15-15v-60.2a15 15 0 0 0-15-15zm-21 60.74a16.947 16.947 0 1 1 16.45-16.94 16.696 16.696 0 0 1-16.45 16.94zM242.09 449.109h38v28a19 19 0 0 1-19 19 19 19 0 0 1-19-19zM458.672 359.99c11.254 0 20.397 9.386 20.397 20.986s-9.143 20.987-20.397 20.987c-11.235 0-20.377-9.386-20.377-20.987s9.142-20.987 20.377-20.987zM374.645 360.68a17.276 17.276 0 1 1-16.78 17.268 17.013 17.013 0 0 1 16.78-17.268zM430.026 449.096a17.285 17.285 0 1 1-16.801 17.268 17.024 17.024 0 0 1 16.8-17.268zM463.913 434.061a13.129 13.129 0 1 1-12.76 13.124 12.94 12.94 0 0 1 12.76-13.124zM375.295 327.686a11.22 11.22 0 1 1-10.89 11.216 11.046 11.046 0 0 1 10.89-11.216zM349.148 396.802l13.083 10.32-72.396 87.521-4.347-4.043 63.66-93.798zM428.381 392.108l10.543 15.014-123.693 88.497-4.043-5.404 117.193-98.107zM404.855 468.497l3.25 13.347-58.389 13.368-2.437-5.851 57.576-20.864z"/></svg>