<svg xmlns="http://www.w3.org/2000/svg" width="660.179" height="580.218" viewBox="0 0 660.179 580.218"><defs><style>.a { fill: rgb(255, 255, 255); }.b { fill: rgb(218, 37, 29); }</style></defs><g><path class="a" d="M31.96143,579.10938a31,31,0,0,1-26.84668-46.5L303.15332,16.39111a30.99981,30.99981,0,0,1,53.69336,0L654.88574,532.60938a31,31,0,0,1-26.84765,46.5Z" transform="translate(0.08956 0.10891)"/><path d="M330,1.89109a29.71926,29.71926,0,0,1,25.9808,15l298.03837,516.2178a30,30,0,0,1-25.98072,45H31.96155a30,30,0,0,1-25.98082-45L304.0192,16.89109a29.71926,29.71926,0,0,1,25.9808-15m0-2a31.67452,31.67452,0,0,0-27.71292,16L4.24864,532.10889a32.00008,32.00008,0,0,0,27.71291,48h596.0769a31.99994,31.99994,0,0,0,27.71283-48L357.71292,15.89109A31.67452,31.67452,0,0,0,330-.10891Z" transform="translate(0.08956 0.10891)"/></g><path class="b" d="M567.41753,523.21885H92.58272a10,10,0,0,1-8.66026-15L321.33979,96.99906a10,10,0,0,1,17.32051,0l237.41748,411.2198A10,10,0,0,1,567.41753,523.21885ZM330,11.999A19.81282,19.81282,0,0,0,312.67946,21.999L14.64044,538.21885a20,20,0,0,0,17.3206,30H628.039a20.00012,20.00012,0,0,0,17.32062-30L347.32063,21.999A19.81284,19.81284,0,0,0,330,11.999Z" transform="translate(0.08956 0.10891)"/><path d="M462.5,362.38l-.02-.01-.76-.27L281.83,297.5h-.01a53.71566,53.71566,0,0,0-5.85-2.14c-1.3-.4-2.62994-.75-3.97-1.04V276a11,11,0,0,0-22,0v17.91a55.00809,55.00809,0,0,0,0,108.18V508h22V403H455a21.00293,21.00293,0,0,0,7.5-40.62Zm-223.52-8.31a45.94913,45.94913,0,0,0,23.06,39.86c-.68.03-1.37.05-2.06.05a45.98,45.98,0,1,1,22.94-85.84A45.96309,45.96309,0,0,0,238.98,354.07ZM349,397H320.11C303.78,391.78,292,376.91,292,359.37c0-19.97,15.27-36.48,35.14-39.22L353,330c-18.3,2.97-33,17-33,29.3C320,379,333.87,390,349,397Zm59.58-.05L383,397a31.51366,31.51366,0,0,1,6.27-54.54L409,350c-11,3-19,10.25-19,21.5C390,383.3,397,390,408.58,396.95Zm46.71.05a15.06,15.06,0,1,1,15.06-15.06A15.05667,15.05667,0,0,1,455.29,397Z" transform="translate(0.08956 0.10891)"/></svg>