<svg xmlns="http://www.w3.org/2000/svg" width="660.179" height="580.218"><path d="M31.961 579.11a31 31 0 0 1-26.846-46.5L303.153 16.39a31 31 0 0 1 53.694 0L654.886 532.61a31 31 0 0 1-26.848 46.5z" transform="translate(.09 .109)" style="fill:#fff"/><path d="M330.09 2a29.72 29.72 0 0 1 25.98 15L654.11 533.218a30 30 0 0 1-25.981 45H32.051a30 30 0 0 1-25.98-45L304.108 17a29.72 29.72 0 0 1 25.98-15m0-2a31.675 31.675 0 0 0-27.712 16L4.338 532.218a32 32 0 0 0 27.713 48h596.077a32 32 0 0 0 27.713-48L357.802 16A31.675 31.675 0 0 0 330.09 0z"/><path d="M567.418 523.219H92.583a10 10 0 0 1-8.66-15L321.34 96.999a10 10 0 0 1 17.32 0l237.418 411.22a10 10 0 0 1-8.66 15zM330 11.999a19.813 19.813 0 0 0-17.32 10L14.64 538.219a20 20 0 0 0 17.321 30h596.078a20 20 0 0 0 17.32-30L347.322 21.999a19.813 19.813 0 0 0-17.321-10z" transform="translate(.09 .109)" style="fill:#da251d"/><path d="m344.555 456.134 3.56 37.964c13.712-1.617 24.366-4.7 31.438-7.711 7.717-3.285 36.622-17.207 54.573-49.235a107.056 107.056 0 0 0 9.49-21.947c9.294-.396 19.18-.791 28.474-1.187l-51.014-87.197-50.42 89.57h29.658c-4.966 9.27-15.22 28.248-41.522 36.777a67.797 67.797 0 0 1-14.237 2.966zM393.17 321.314l31.098-22.064c-8.257-11.066-16.254-18.751-22.398-23.37-6.703-5.041-33.212-23.113-69.924-22.645a107.056 107.056 0 0 0-23.753 2.754c-4.99-7.85-10.275-16.214-15.264-24.065l-50.009 87.778 102.781-1.12-14.83-25.685c10.512-.333 32.074-.943 52.612 17.571a67.797 67.797 0 0 1 9.687 10.846zM252.633 347.763l-34.657-15.9c-5.455 12.684-8.112 23.452-9.04 31.082-1.014 8.326-3.41 40.32 15.35 71.879a107.057 107.057 0 0 0 14.263 19.193c-4.304 8.246-8.905 17.006-13.21 25.251l101.023-.58-52.36-88.45-14.83 25.685c-5.544-8.936-16.853-27.305-11.088-54.348a67.798 67.798 0 0 1 4.55-13.812z"/></svg>