<svg xmlns="http://www.w3.org/2000/svg" width="304" height="604">
<title>1.31.5 Наближення до залізничного переїзду</title>
<defs><style>.b{fill:#da251d}</style></defs><rect x="1" y="1" width="302" height="602" rx="46" style="fill:#fff"/><path d="M257 2a45 45 0 0 1 45 45v510a45 45 0 0 1-45 45H47a45 45 0 0 1-45-45V47A45 45 0 0 1 47 2h210m0-2H47A47.053 47.053 0 0 0 0 47v510a47.053 47.053 0 0 0 47 47h210a47.053 47.053 0 0 0 47-47V47a47.053 47.053 0 0 0-47-47z"/><path d="M257 22a25.028 25.028 0 0 1 25 25v510a25.028 25.028 0 0 1-25 25H47a25.028 25.028 0 0 1-25-25V47a25.028 25.028 0 0 1 25-25h210m0-10H47a35 35 0 0 0-35 35v510a35 35 0 0 0 35 35h210a35 35 0 0 0 35-35V47a35 35 0 0 0-35-35z"/><g><path class="b" d="M22 137.44v60l260 150.12v-60L22 137.44zM22 252.44v60l260 150.12v-60L22 252.44z"/></g>
</svg>