<svg xmlns="http://www.w3.org/2000/svg" width="660.179" height="580.218" viewBox="0 0 660.179 580.218"><defs><style>.a { fill: rgb(255, 255, 255); }.b { fill: rgb(218, 37, 29); }</style></defs><path class="a" d="M31.961 579.11a31 31 0 0 1-26.845-46.5L303.153 16.39a31 31 0 0 1 53.694.001l298.039 516.22a31 31 0 0 1-26.848 46.5z" transform="translate(0.08956 0.10891)"/><path d="M330 1.891a29.72 29.72 0 0 1 25.98 15.001L654.02 533.11a30 30 0 0 1-25.982 44.999H31.962A30 30 0 0 1 5.98 533.108L304.02 16.89A29.72 29.72 0 0 1 330 1.892m0-1.999a31.675 31.675 0 0 0-27.713 16.001L4.25 532.11a32 32 0 0 0 27.712 47.999h596.076a32 32 0 0 0 27.713-48.001L357.714 15.89A31.675 31.675 0 0 0 330-.108z" transform="translate(0.08956 0.10891)"/><path class="b" d="M567.418 523.219H92.583a10 10 0 0 1-8.66-15.001L321.34 96.999a10 10 0 0 1 17.32 0l237.418 411.219a10 10 0 0 1-8.66 14.999zM330 11.999a19.813 19.813 0 0 0-17.32 10L14.64 538.218a20 20 0 0 0 17.32 29.999h596.08a20 20 0 0 0 17.32-30.001L347.32 21.999A19.813 19.813 0 0 0 330 12z" transform="translate(0.08956 0.10891)"/><path d="M450.59 376.298a61.552 61.552 0 0 0-29.814 6.32l-25.492-36.496 9.686-22.747h4.68a4.5 4.5 0 0 0 4.5-4.5 4.5 4.5 0 0 0-4.5-4.5H359.69a4.5 4.5 0 0 0-4.501 4.5 4.5 4.5 0 0 0 4.499 4.5h35.504l-7.673 18H272.266c2.7-12.139-1.867-20.599-14.085-26.336-4.106-3.646-3.881-9.8-2.385-14.053 1.643-4.702 4.961-7.987 8.055-7.987h33.525a4.5 4.5 0 0 0 4.5-4.5 4.5 4.5 0 0 0-4.5-4.5H263.85c-7.065 0-13.567 5.501-16.549 14.006-3.306 9.428-1.09 19.001 5.637 24.38l.44.36.506.224c10.113 4.601 12.25 9.821 8.38 20.644l-9.348 20.34-1.418 3.082-8.178 17.786a61.973 61.973 0 1 0 7.502 5.22l7.954-17.29 85.017 66.757a30.595 30.595 0 0 0 18.798 6.49h24.155a61.88 61.88 0 1 0 63.846-69.702zm-185.84 61.827A52.9 52.9 0 1 1 239.528 393.07l-10.215 22.206a23.406 23.406 0 0 1-5.592 7.628c-3.282 2.978-9.69 7.918-13.649 10.918a4.494 4.494 0 0 0-1 6.106 4.265 4.265 0 0 0 6.046 1.058c4.226-3.082 11.126-8.22 14.658-11.422a32.49 32.49 0 0 0 7.717-10.52l9.418-20.485A52.75 52.75 0 0 1 264.75 438.124zm-2.081-73.755 6.614-13.995h114.4L348.9 432.06zm94.24 71.854 34.211-80.337 21.871 31.31A61.76 61.76 0 0 0 386.262 437h-23.669a20.98 20.98 0 0 1-5.68-.776zm61.245-41.637L447.788 437h-52.515a52.814 52.814 0 0 1 22.882-42.413zM448.125 491a52.954 52.954 0 0 1-52.29-45h54.113a7.873 7.873 0 0 0 6.446-12.386l-30.386-43.515a52.875 52.875 0 1 1 22.117 100.9z" transform="translate(0.08956 0.10891)"/></svg>