<svg xmlns="http://www.w3.org/2000/svg" width="2254" height="504">
<title>1.4.3 Напрямок повороту</title>
<defs><style>.b{fill:#da251d}</style></defs><path style="fill:#fff" d="M1 1h2252v502H1z"/><path d="M2252 2v500H2V2h2250m2-2H0v504h2254V0z"/><g><path class="b" d="m232 252 240 240h330L562 252 802 12H472L232 252zM12 12v240L252 12zm0 240v240h240z"/><path class="b" d="m1472 252-240 240h-210L782 252l240-240h210l240 240z"/><path class="b" d="m2022 252-240 240h-330l240-240-240-240h330l240 240zM2242 12v240L2002 12zm0 240v240h-240z"/></g>
</svg>