<svg xmlns="http://www.w3.org/2000/svg" width="604" height="604" viewBox="0 0 604 604"><defs><style>.a { fill: rgb(255, 255, 255); fill-rule: evenodd; }.b { fill: rgb(218, 37, 29); }</style></defs><g><path class="a" d="M302 603A301 301 0 0 1 89.16 89.16 301 301 0 1 1 514.84 514.84a299.026 299.026 0 0 1-212.84 88.16z"/><path d="M302 2a300 300 0 0 1 212.132 512.132A300 300 0 1 1 89.868 89.868 298.035 298.035 0 0 1 302 2m0-2A302 302 0 0 0 88.454 515.546 302 302 0 1 0 515.546 88.454 300.02 300.02 0 0 0 302 0z"/></g><path class="b" d="M302 12C141.84 12 12 141.84 12 302s129.84 290 290 290 290-129.84 290-290S462.16 12 302 12zm0 530C169.45 542 62 434.55 62 302S169.45 62 302 62s240 107.45 240 240-107.45 240-240 240z"/><path d="M185 375a40 40 0 1 0 40 40 40.002 40.002 0 0 0-40-40zm29.57 35H190v-24.57A29.957 29.957 0 0 1 214.57 410zM180 385.43V410h-24.57A29.957 29.957 0 0 1 180 385.43zm0 59.14A29.957 29.957 0 0 1 155.43 420H180zm10 0V420h24.57A29.957 29.957 0 0 1 190 444.57z"/><rect x="120.86" y="351.27" width="227" height="10" transform="translate(-112.11558 107.65849) rotate(-21.00136)"/><g><path d="M451.357 454a15.124 15.124 0 0 1-14.524-10.907l-26.198-90.239L434 330l30.802 106.097A14 14 0 0 1 451.357 454z"/><path d="m384 255 4 35-25.118 27.002a12 12 0 0 1-20.397-5.145 18.458 18.458 0 0 1 4.398-17.287z"/><path d="m352.319 356.773-20.124 80.846a14 14 0 0 0 13.585 17.38h.001a17.783 17.783 0 0 0 17.337-13.818l16.6-72.57a20 20 0 0 1 5.354-9.683l47.363-47.363a25 25 0 0 0 7.151-20.6l-7.694-65.399a90 90 0 0 0-3.04-14.879l-1.267-4.308a20 20 0 0 0-5.734-9.156 11.763 11.763 0 0 0-14.512-1.033l-10.997 7.452a20 20 0 0 0-8.58 19.374l10.184 71.56a15 15 0 0 1-4.244 12.72l-30.85 30.85a40 40 0 0 0-10.531 18.623z"/><path d="M372 171c0 19 8.702 23.53 19 24 14.783-.167 31-15 31-34 0-14-11-19-21-19-14 0-29 9-29 29z"/></g></svg>