<svg xmlns="http://www.w3.org/2000/svg" width="604" height="604" viewBox="0 0 604 604"><defs><style>.a { fill: rgb(255, 255, 255); fill-rule: evenodd; }.b { fill: rgb(218, 37, 29); }</style></defs><g><path class="a" d="M302,603A300.99962,300.99962,0,0,1,89.16113,89.16113,300.99962,300.99962,0,1,1,514.83887,514.83887,299.0265,299.0265,0,0,1,302,603Z"/><path d="M302,2A299.99973,299.99973,0,0,1,514.13184,514.13184,299.99973,299.99973,0,1,1,89.86816,89.86816,298.03491,298.03491,0,0,1,302,2m0-2A301.99976,301.99976,0,0,0,88.45393,515.54608,301.99976,301.99976,0,1,0,515.54608,88.45393,300.02142,300.02142,0,0,0,302,0Z"/></g><path class="b" d="M302,12C141.84,12,12,141.84,12,302S141.84,592,302,592,592,462.16,592,302,462.16,12,302,12Zm0,530C169.45,542,62,434.55,62,302S169.45,62,302,62,542,169.45,542,302,434.55,542,302,542Z"/><polygon points="242 82 362 82 302 144 242 82"/><polygon points="362 522 242 522 302 460 362 522"/><path d="M172.80176,192.33887l-31.23194-4.09619c4.35206-26.8794,29.44-46.07911,61.69532-46.07911,33.7915,0,58.11132,20.4795,58.11132,49.66309,0,17.15186-8.44775,30.97559-23.29541,38.14355,16.89551,6.91211,26.8794,22.01563,26.8794,41.72706,0,32-25.59961,54.27148-61.95117,54.27148-34.30371,0-60.67139-19.96777-64.76709-48.127l31.4873-5.12012c3.84033,15.10352,16.64014,24.57617,33.792,24.57617,17.40772,0,28.92725-9.72851,28.92725-25.85644,0-15.87159-11.26367-26.62354-29.18359-26.62354H192.76953V218.19434h10.49561c15.61572,0,25.59961-9.47168,25.59961-24.06348,0-14.33594-10.23975-23.2959-26.11133-23.2959C187.39355,170.835,175.61768,179.02686,172.80176,192.33887Z"/><path d="M357.168,269.95215l3.11523-65.56885h69.54688v19.20361h-51.209l-1.21093,27.50782c4.84375-4.49805,13.14843-7.26661,22.31738-7.26661,23.18262,0,37.71484,15.91651,37.71484,40.31055,0,26.46973-16.78125,42.9043-43.251,42.9043-21.79883,0-37.19532-11.59082-40.82813-30.96777l20.93262-3.80567c2.249,9.51563,10.37988,15.39746,20.415,15.39746,12.80176,0,20.75976-8.82324,20.75976-22.83691,0-13.83985-7.78515-22.49024-19.72265-22.49024a21.20183,21.20183,0,0,0-18.165,9.51563Z"/><path d="M305.32422,296.23633c8.30469,0,14.18652,5.88183,14.18652,16.78125,0,11.24512-6.40136,23.52832-17.64648,31.48633h-9.51514c6.40088-8.47657,9.16895-13.667,9.86133-20.24121-6.57422-1.21094-11.07227-6.57422-11.07227-13.83985C291.13818,302.11816,297.02,296.23633,305.32422,296.23633Z"/><path d="M296.38916,436.73047l-21.79883-36.84961v51.209h-20.5874V364.58789h22.14453l24.73975,41.34766,24.56591-41.34766h22.31836v86.50195H327.18359v-51.209l-21.79882,36.84961Z"/></svg>