<svg xmlns="http://www.w3.org/2000/svg" xmlns:xlink="http://www.w3.org/1999/xlink" width="604" height="604" viewBox="0 0 604 604"><defs><style>.a{fill:none;}.b{fill:#fff;fill-rule:evenodd;}.c{fill:#da251d;}.d{clip-path:url(#a);}</style><clipPath id="a" transform="translate(-0.5 -0.5)"><circle class="a" cx="302.5" cy="302.5" r="235"/></clipPath></defs><path class="b" d="M302.5,603.5A300.99962,300.99962,0,0,1,89.66113,89.66113,300.99962,300.99962,0,1,1,515.33887,515.33887,299.0265,299.0265,0,0,1,302.5,603.5Z" transform="translate(-0.5 -0.5)"/><path d="M302.5,2.5A299.99973,299.99973,0,0,1,514.63184,514.63184,299.99973,299.99973,0,1,1,90.36816,90.36816,298.03491,298.03491,0,0,1,302.5,2.5m0-2A301.99976,301.99976,0,0,0,88.95393,516.04608,301.99976,301.99976,0,1,0,516.04608,88.95393,300.02142,300.02142,0,0,0,302.5.5Z" transform="translate(-0.5 -0.5)"/><path class="c" d="M302.5,12.5c-160.16,0-290,129.84-290,290s129.84,290,290,290,290-129.84,290-290S462.66,12.5,302.5,12.5Zm0,530c-132.55,0-240-107.45-240-240s107.45-240,240-240,240,107.45,240,240S435.05,542.5,302.5,542.5Z" transform="translate(-0.5 -0.5)"/><g class="d"><path d="M401.74,367.29a42.355,42.355,0,1,0,42.36,42.36A42.35758,42.35758,0,0,0,401.74,367.29Zm0,67.06a24.705,24.705,0,1,1,24.71-24.7A24.72753,24.72753,0,0,1,401.74,434.35Z" transform="translate(-0.5 -0.5)"/><path d="M542.5,256.12V242H523.51l-77.65,66.37-88.23,20.1c-12.18,3.07-26.47,7.06-26.47,15.88v30c0,13.79,8.89,27.57,21.21,34.26a49.40036,49.40036,0,0,1,98.79,1.04c0,1.09-.04,2.17005-.12994,3.23l91.47.11V323.18H456.45l71.59-67.06Z" transform="translate(-0.5 -0.5)"/><path d="M170.04,367.29a42.355,42.355,0,1,0,42.35,42.36A42.35761,42.35761,0,0,0,170.04,367.29Zm0,67.06a24.705,24.705,0,1,1,24.71-24.7A24.736,24.736,0,0,1,170.04,434.35Z" transform="translate(-0.5 -0.5)"/><path d="M237.1,303.76,196.35,242H62.5v14.12H177.1L206.34,301.4A14.11785,14.11785,0,0,1,194.48,323.18H62.5v89.86l58.27.07c-.11005-1.15-.14-2.3-.14-3.46a49.41393,49.41393,0,0,1,98.19-7.91C248.69,380.44,258.26,334.17,237.1,303.76Z" transform="translate(-0.5 -0.5)"/></g><rect class="a" x="12" y="255.62" width="50" height="67.06"/><path d="M211.12305,219.8335H191.66992l34.50488-83.63721H177.61133V120.43457h68.30176v15.33594Z" transform="translate(-0.5 -0.5)"/><path d="M288.08691,118.73047c23.28711,0,34.50586,16.898,34.50586,51.26172,0,34.22168-11.21875,51.11914-34.50586,51.11914-23.28808,0-34.50586-16.89746-34.50586-51.11914C253.58105,135.62842,264.79883,118.73047,288.08691,118.73047Zm-16.47265,51.26172c0,22.57763,5.82226,35.21533,16.47265,35.21533,10.64942,0,16.47168-12.6377,16.47168-35.21533,0-22.71973-5.82226-35.35742-16.47168-35.35742C277.43652,134.63477,271.61426,147.27246,271.61426,169.99219Z" transform="translate(-0.5 -0.5)"/><path d="M390.46777,208.04785l-17.8916-30.24609V219.8335H355.67871v-70.999h18.17578l20.30567,33.9375,20.16406-33.9375H432.6416v70.999H415.74414V177.80176l-17.89258,30.24609Z" transform="translate(-0.5 -0.5)"/></svg>