<svg xmlns="http://www.w3.org/2000/svg" width="604" height="904"><rect x="1" y="1" width="602" height="902" rx="46" style="fill:#fff"/><path d="M557 2a45 45 0 0 1 45 45v810a45 45 0 0 1-45 45H47a45 45 0 0 1-45-45V47A45 45 0 0 1 47 2h510m0-2H47A47.053 47.053 0 0 0 0 47v810a47.053 47.053 0 0 0 47 47h510a47.053 47.053 0 0 0 47-47V47a47.053 47.053 0 0 0-47-47z"/><path d="M557 22a25.028 25.028 0 0 1 25 25v810a25.028 25.028 0 0 1-25 25H47a25.028 25.028 0 0 1-25-25V47a25.028 25.028 0 0 1 25-25h510m0-10H47a35 35 0 0 0-35 35v810a35 35 0 0 0 35 35h510a35 35 0 0 0 35-35V47a35 35 0 0 0-35-35z"/><path d="m87.878 108.333-22.023-2.912c2.73-19.84 20.385-32.762 46.412-32.762 26.937 0 45.32 14.015 45.32 35.31 0 12.376-6.007 22.023-16.745 27.3 12.194 5.097 19.293 15.471 19.293 29.668 0 23.115-18.565 38.404-47.14 38.404-26.937 0-46.048-13.65-48.596-34.4l22.387-3.64c2.002 10.01 12.194 16.38 25.845 16.38 14.014 0 22.932-6.916 22.932-18.018 0-10.374-8.372-17.473-21.476-17.473H97.16v-20.202h16.927c11.83 0 19.293-5.825 19.293-15.289 0-10.01-8.555-16.38-22.023-16.38-12.559 0-21.659 5.46-23.48 14.014zM284.26 138c0 41.68-19.84 65.34-54.42 65.34-34.582 0-54.42-23.66-54.42-65.34 0-41.68 19.838-65.34 54.42-65.34 34.58 0 54.42 23.66 54.42 65.34zm-84.27 0c0 28.757 10.011 43.681 29.85 43.681 19.838 0 29.848-14.924 29.848-44.045 0-28.757-10.01-43.318-29.849-43.318-19.838 0-29.849 14.743-29.849 43.682zM332.301 201.702h-24.388V74.298H332.3v51.69h51.508v-51.69h24.389v127.404h-24.389v-54.056h-51.508zM505.748 176.767H458.79l-8.01 24.935h-25.844l44.045-127.404h26.573l44.046 127.404h-25.845zm-6.735-20.384-16.744-52.054-16.927 52.054z"/><path d="M551.98 462.9c-.27-2.1-.57-4.19-.88-6.27q-1.44-9.39-3.55-18.54c-.47-2.03-.97-4.05-1.48-6.06a250.235 250.235 0 0 0-9.55-29.43c-.75-1.9-1.53-3.8-2.32-5.68v-.01q-1.2-2.82-2.46-5.61c-.84-1.87-1.71-3.71-2.59-5.55-.89-1.83-1.79-3.66-2.72-5.47q-3.48-6.795-7.35-13.34l-1.56-2.61q-1.59-2.595-3.22-5.15v-.01q-1.65-2.55-3.34-5.06-1.695-2.52-3.45-4.99-2.64-3.705-5.4-7.31-1.845-2.4-3.74-4.76c-.77-.96-1.55-1.91-2.35-2.86q-.525-.645-1.08-1.29c-.78-.94-1.58-1.88-2.39-2.81v-.01q-2.985-3.435-6.06-6.74c-.69-.74-1.38-1.47-2.08-2.2-1.39-1.46-2.79-2.9-4.22-4.33s-2.87-2.83-4.33-4.22c-.73-.7-1.46-1.39-2.2-2.08q-3.315-3.075-6.74-6.06h-.01c-.93-.81-1.87-1.61-2.81-2.39q-.645-.555-1.29-1.08c-.95-.8-1.9-1.58-2.86-2.35q-2.355-1.89-4.76-3.74-3.615-2.76-7.31-5.4-2.475-1.755-4.99-3.45-2.505-1.695-5.06-3.34h-.01q-2.55-1.635-5.15-3.22l-2.61-1.56q-6.555-3.87-13.34-7.35c-1.81-.93-3.64-1.83-5.47-2.72-1.84-.88-3.68-1.75-5.55-2.59q-2.79-1.26-5.61-2.46h-.01c-1.88-.79-3.78-1.57-5.68-2.32a250.227 250.227 0 0 0-29.43-9.55c-2.01-.51-4.03-1.01-6.06-1.48q-9.15-2.1-18.54-3.55c-2.08-.31-4.17-.61-6.27-.88a256.067 256.067 0 0 0-64.2 0c-2.1.27-4.19.57-6.27.88q-9.39 1.44-18.54 3.55c-2.03.47-4.05.97-6.06 1.48a250.225 250.225 0 0 0-29.43 9.55c-1.9.75-3.8 1.53-5.68 2.32h-.01q-2.82 1.2-5.61 2.46c-1.87.84-3.71 1.71-5.55 2.59-1.83.89-3.66 1.79-5.47 2.72q-6.795 3.48-13.34 7.35l-2.61 1.56q-2.595 1.59-5.15 3.22h-.01q-2.55 1.65-5.06 3.34-2.52 1.695-4.99 3.45-3.705 2.64-7.31 5.4-2.4 1.845-4.76 3.74c-.96.77-1.91 1.55-2.86 2.35q-.645.525-1.29 1.08c-.94.78-1.88 1.58-2.81 2.39h-.01q-3.435 2.985-6.74 6.06c-.74.69-1.47 1.38-2.2 2.08-1.46 1.39-2.9 2.79-4.33 4.22s-2.83 2.87-4.22 4.33c-.7.73-1.39 1.46-2.08 2.2q-3.075 3.315-6.06 6.74v.01c-.81.93-1.61 1.87-2.39 2.81q-.555.645-1.08 1.29c-.8.95-1.58 1.9-2.35 2.86q-1.89 2.355-3.74 4.76-2.76 3.615-5.4 7.31-1.755 2.475-3.45 4.99-1.695 2.505-3.34 5.06v.01q-1.635 2.55-3.22 5.15l-1.56 2.61q-3.87 6.555-7.35 13.34c-.93 1.81-1.83 3.64-2.72 5.47-.88 1.84-1.75 3.68-2.59 5.55q-1.26 2.79-2.46 5.61v.01c-.79 1.88-1.57 3.78-2.32 5.68a250.237 250.237 0 0 0-9.55 29.43c-.51 2.01-1.01 4.03-1.48 6.06q-2.1 9.15-3.55 18.54c-.31 2.08-.61 4.17-.88 6.27a256.06 256.06 0 0 0 0 64.2c.27 2.1.57 4.19.88 6.27q1.44 9.39 3.55 18.54c.47 2.03.97 4.05 1.48 6.06a250.231 250.231 0 0 0 9.55 29.43c.75 1.9 1.53 3.8 2.32 5.68v.01q1.2 2.82 2.46 5.61c.84 1.87 1.71 3.71 2.59 5.55.89 1.83 1.79 3.66 2.72 5.47q3.48 6.795 7.35 13.34l1.56 2.61q1.59 2.595 3.22 5.15v.01q1.65 2.55 3.34 5.06 1.695 2.52 3.45 4.99 2.64 3.705 5.4 7.31 1.845 2.4 3.74 4.76c.77.96 1.55 1.91 2.35 2.86q.525.645 1.08 1.29c.78.94 1.58 1.88 2.39 2.81v.01q2.985 3.435 6.06 6.74c.69.74 1.38 1.47 2.08 2.2 1.39 1.46 2.79 2.9 4.22 4.33s2.87 2.83 4.33 4.22c.73.7 1.46 1.39 2.2 2.08q3.315 3.075 6.74 6.06h.01c.93.81 1.87 1.61 2.81 2.39q.645.555 1.29 1.08c.95.8 1.9 1.58 2.86 2.35q2.355 1.89 4.76 3.74 3.615 2.76 7.31 5.4 2.475 1.755 4.99 3.45 2.505 1.695 5.06 3.34h.01q2.55 1.635 5.15 3.22l2.61 1.56q6.555 3.87 13.34 7.35c1.81.93 3.64 1.83 5.47 2.72 1.84.88 3.68 1.75 5.55 2.59q2.79 1.26 5.61 2.46h.01c1.88.79 3.78 1.57 5.68 2.32a250.238 250.238 0 0 0 29.43 9.55c2.01.51 4.03 1.01 6.06 1.48q9.15 2.1 18.54 3.55c2.08.31 4.17.61 6.27.88a256.06 256.06 0 0 0 64.2 0c2.1-.27 4.19-.57 6.27-.88q9.39-1.44 18.54-3.55c2.03-.47 4.05-.97 6.06-1.48a250.238 250.238 0 0 0 29.43-9.55c1.9-.75 3.8-1.53 5.68-2.32h.01q2.82-1.2 5.61-2.46c1.87-.84 3.71-1.71 5.55-2.59 1.83-.89 3.66-1.79 5.47-2.72q6.795-3.48 13.34-7.35l2.61-1.56q2.595-1.59 5.15-3.22h.01q2.55-1.65 5.06-3.34 2.52-1.695 4.99-3.45 3.705-2.64 7.31-5.4 2.4-1.845 4.76-3.74c.96-.77 1.91-1.55 2.86-2.35q.645-.525 1.29-1.08c.94-.78 1.88-1.58 2.81-2.39h.01q3.435-2.985 6.74-6.06c.74-.69 1.47-1.38 2.2-2.08 1.46-1.39 2.9-2.79 4.33-4.22s2.83-2.87 4.22-4.33c.7-.73 1.39-1.46 2.08-2.2q3.075-3.315 6.06-6.74v-.01c.81-.93 1.61-1.87 2.39-2.81q.555-.645 1.08-1.29c.8-.95 1.58-1.9 2.35-2.86q1.89-2.355 3.74-4.76 2.76-3.615 5.4-7.31 1.755-2.475 3.45-4.99 1.695-2.505 3.34-5.06v-.01q1.635-2.55 3.22-5.15l1.56-2.61q3.87-6.555 7.35-13.34c.93-1.81 1.83-3.64 2.72-5.47.88-1.84 1.75-3.68 2.59-5.55q1.26-2.79 2.46-5.61v-.01c.79-1.88 1.57-3.78 2.32-5.68a250.233 250.233 0 0 0 9.55-29.43c.51-2.01 1.01-4.03 1.48-6.06q2.1-9.15 3.55-18.54c.31-2.08.61-4.17.88-6.27a256.06 256.06 0 0 0 0-64.2zM383.16 687.18a208.563 208.563 0 0 1-243.2-323.51l4.67 4.67 284.03 284.03 4.67 4.67a207.864 207.864 0 0 1-50.17 30.14zm111.02-111.02a207.86 207.86 0 0 1-30.14 50.17L170.67 332.96a208.638 208.638 0 0 1 323.51 243.2z" style="fill:#da251d"/><path d="M140.685 376.732c-57.529 78.247-50.893 188.905 19.898 259.685 70.78 70.79 181.438 77.426 259.685 19.898zm302.732-23.149c-70.78-70.79-181.438-77.426-259.685-19.898l279.583 279.583c57.529-78.247 50.893-188.905-19.898-259.685z" style="fill:#005da2"/></svg>