<svg id="Слой_1" data-name="Слой 1" xmlns="http://www.w3.org/2000/svg" width="600" height="600" viewBox="0 0 600 600">
  <defs>
    <style>
      .cls-1 {
        fill: #fff;
      }

      .cls-2 {
        fill: #d92727;
      }
    </style>
  </defs>
  <g>
    <path class="cls-1" d="M300,599C134.867,599.00012,1.0001,465.13339,1,300.00037A298.99983,298.99983,0,0,1,88.5752,88.5752c116.76669-116.76669,306.08291-116.76669,422.8496,0s116.76667,306.08291,0,422.8496A297.04155,297.04155,0,0,1,300,599Z"/>
    <path d="M300,2c164.62451.10544,297.99359,133.64546,297.88818,298.27A298.07913,298.07913,0,0,1,415.99442,574.58252C264.305,638.54565,89.484,567.42944,25.5208,415.74-38.38345,264.19025,32.53923,89.51913,184.00558,25.4175A296.13172,296.13172,0,0,1,300,2m0-2C134.31459,0,0,134.31459,0,300S134.31459,600,300,600,600,465.68542,600,300,465.68542,0,300,0Z"/>
  </g>
  <path class="cls-2" d="M300,58a242.07656,242.07656,0,0,1,94.18259,465.0022A242.07516,242.07516,0,0,1,205.8174,76.9978,240.44077,240.44077,0,0,1,300,58m0-48C139.8374,10,10,139.8374,10,300S139.8374,590,300,590,590,460.1626,590,300,460.1626,10,300,10Z"/>
  <g>
    <path d="M326.58948,292.66788V253.16079l55.30993,47.40851a15.21123,15.21123,0,0,1-19.31458,22.82632Z"/>
    <path d="M328.34535,146.93059a54.5215,54.5215,0,0,1,.87794,10.53523,63.78032,63.78032,0,0,1-.87794,10.53523c-.69652,2.1717-3.0022,8.517-9.37849,12.31258-3.62863,2.16-8.5611,3.47875-15.2037,2.61232-20.19252-2.63381-35.99536-23.70426-35.99536-35.99536s2.60629-22.209,26.33807-24.58219c5.37288-.53729,14.19312-.95332,22.28827,4.84593C325.6406,133.81836,327.81944,144.381,328.34535,146.93059Z"/>
    <path d="M411.74922,452.45214c3.89512,10.21447-1.69338,21.50449-11.41316,24.58219-8.97116,2.84065-19.22528-2.02288-22.82632-11.41316q-14.09832-40.28088-28.19663-80.56176a26.338,26.338,0,0,0-8.54658-11.97732l-69.657-54.95164a14.02081,14.02081,0,0,1-5.09762-11.28236l2.63381-81.78124-35.85622,26.34334a17.55872,17.55872,0,0,0-7.16262,14.15026V304.959c.53279,8.884-6.912,15.61044-14.047,14.9249a13.03617,13.03617,0,0,1-7.90142-3.51174c-2.67043-2.7486-3.855-6.9713-3.51174-11.41316V247.85051a17.55869,17.55869,0,0,1,6.96891-14.00586l61.49761-46.4982a13.16905,13.16905,0,0,1,7.94235-2.66463s6.23194.6026,9.10525,1.8361a69.06257,69.06257,0,0,1,18.08227,11.33293c4.359,3.79,7.71077,6.627,10.24844,9.59542a8.62017,8.62017,0,0,1,2.0384,5.62643c-.04383,30.00845-.08761,61.55958-.1314,91.46406a8.77936,8.77936,0,0,0,3.1631,6.44972l51.05663,42.42734a39.507,39.507,0,0,1,11.89941,16.9408Z"/>
    <path d="M294.10587,352.3675,266.01193,332.175,190.18559,448.04444a18.77357,18.77357,0,0,0-3.11956,11.87c.71563,8.13381,5.70277,15.19647,12.22281,17.11994,4.03917,1.19161,8.51319,1.4331,12.51762-.66478a20.091,20.091,0,0,0,7.46277-6.9983Z"/>
  </g>
</svg>
