<svg xmlns="http://www.w3.org/2000/svg" width="604" height="604">
<title>4.2 Рух праворуч</title>
<path d="M302 603A301 301 0 0 1 89.161 89.161 301 301 0 1 1 514.84 514.84 299.026 299.026 0 0 1 302 603z" style="fill-rule:evenodd;fill:#fff"/><path d="M302 2a300 300 0 0 1 212.132 512.132A300 300 0 1 1 89.868 89.868 298.035 298.035 0 0 1 302 2m0-2A302 302 0 0 0 88.454 515.546 302 302 0 1 0 515.546 88.454 300.021 300.021 0 0 0 302 0z"/><circle cx="302" cy="302" r="280" style="fill:#005da2"/><path d="M355 304v-50h-66a45.055 45.055 0 0 0-45 45v195h-60V299a105.115 105.115 0 0 1 105-105h66v-50l138.56 80z" style="fill:#fff"/></svg>