<svg id="Слой_1" data-name="Слой 1" xmlns="http://www.w3.org/2000/svg" width="600" height="600" viewBox="0 0 600 600">
  <defs>
    <style>
      .cls-1 {
        fill: #fff;
      }

      .cls-2 {
        fill: #005da2;
      }
    </style>
  </defs>
  <g id="base">
    <path class="cls-1" d="M300,599A298.99982,298.99982,0,0,1,88.5752,88.5752,298.99982,298.99982,0,1,1,511.4248,511.4248,297.04178,297.04178,0,0,1,300,599Z"/>
    <path d="M300,2A298.07912,298.07912,0,0,1,415.99448,574.58246a298.07766,298.07766,0,0,1-231.98886-549.165A296.13213,296.13213,0,0,1,300,2m0-2C134.31462,0,0,134.31454,0,300S134.31462,600,300,600,600,465.68538,600,300,465.68546,0,300,0Z"/>
  </g>
  <circle id="blue_circle" data-name="blue circle" class="cls-2" cx="300" cy="300" r="280"/>
  <path class="cls-1" d="M209,420V365h62a40.00174,40.00174,0,0,1,40,40V540h58V399.45c0-.82-.01-1.64-.03-2.45H369V206h55L340,54,256,206h55V313.67a92.06857,92.06857,0,0,0-34.35-6.63L209,307V252L57,336Z"/>
</svg>
