<svg id="Слой_1" data-name="Слой 1" xmlns="http://www.w3.org/2000/svg" width="600" height="600" viewBox="0 0 600 600">
  <defs>
    <style>
      .cls-1 {
        fill: #fff;
      }

      .cls-2 {
        fill: #055c9d;
      }

      .cls-3 {
        fill: #da251d;
      }
    </style>
  </defs>
  <g>
    <rect class="cls-1" x="0.5" y="0.5" width="599" height="599" rx="34.5"/>
    <path d="M565,1a34.03848,34.03848,0,0,1,34,34V565a34.03849,34.03849,0,0,1-34,34H35A34.03848,34.03848,0,0,1,1,565V35A34.03847,34.03847,0,0,1,35,1H565m0-1H35A35,35,0,0,0,0,35V565a35,35,0,0,0,35,35H565a35.00008,35.00008,0,0,0,35-35V35A35,35,0,0,0,565,0Z"/>
  </g>
  <rect class="cls-2" x="15" y="15" width="570" height="570" rx="25"/>
  <g>
    <path class="cls-1" d="M372,316.5H220a19.9945,19.9945,0,0,0-20,20v150a19.9945,19.9945,0,0,0,20,20H372a19.9945,19.9945,0,0,0,20-20v-150A19.9945,19.9945,0,0,0,372,316.5Zm5,83.5a6.00475,6.00475,0,0,1-6,6H223a6.00475,6.00475,0,0,1-6-6V345a6.00475,6.00475,0,0,1,6-6H371a6.00475,6.00475,0,0,1,6,6Z"/>
    <path class="cls-1" d="M243,541.125c0,17-32,17-32,0v-27h32Z"/>
    <path class="cls-1" d="M381,541.125c0,17-32,17-32,0v-27h32Z"/>
  </g>
  <polygon class="cls-1" points="379 194 324 194 324 298 264 298 264 194 209 194 294 48 379 194"/>
  <path class="cls-3" d="M15,528,528,15h32a25,25,0,0,1,25,25V72L72,585H40a25,25,0,0,1-25-25Z"/>
</svg>
