<svg id="Слой_1" data-name="Слой 1" xmlns="http://www.w3.org/2000/svg" width="1400" height="700" viewBox="0 0 1400 700">
  <defs>
    <style>
      .cls-1 {
        fill: #fff;
      }

      .cls-2 {
        fill: #005da2;
      }

      .cls-3 {
        fill: #da251d;
      }
    </style>
  </defs>
  <g>
    <rect class="cls-1" x="0.5" y="0.5" width="1399" height="699" rx="44.5"/>
    <path d="M1355,1a44.04991,44.04991,0,0,1,44,44V655a44.0499,44.0499,0,0,1-44,44H45A44.04987,44.04987,0,0,1,1,655V45A44.04989,44.04989,0,0,1,45,1H1355m0-1H45A45.00011,45.00011,0,0,0,0,45V655a45,45,0,0,0,45,45H1355a45,45,0,0,0,45-45V45a45.00008,45.00008,0,0,0-45-45Z"/>
  </g>
  <rect class="cls-2" x="20" y="20" width="1360" height="660" rx="35"/>
  <polygon class="cls-1" points="799 256 730 256 730 680 662 680 662 256 593 256 696 73 799 256"/>
  <g>
    <rect class="cls-1" x="925" y="615" width="24" height="65"/>
    <rect class="cls-1" x="925" y="514" width="24" height="70"/>
    <rect class="cls-1" x="925" y="415" width="24" height="70"/>
    <rect class="cls-1" x="925" y="317" width="24" height="70"/>
    <rect class="cls-1" x="925" y="216" width="24" height="70"/>
    <rect class="cls-1" x="925" y="115" width="24" height="70"/>
    <rect class="cls-1" x="925" y="20" width="24" height="68"/>
  </g>
  <rect class="cls-1" x="436" y="20" width="24" height="660"/>
  <polygon class="cls-1" points="1267 257 1198 257 1198 681 1130 681 1130 257 1061 257 1164 74 1267 257"/>
  <polygon class="cls-1" points="328 441 259 441 259 20 191 20 191 441 122 441 225 624 328 441"/>
  <g>
    <circle class="cls-1" cx="696" cy="443" r="111.5"/>
    <path class="cls-3" d="M696,349.90291A93.09709,93.09709,0,1,1,602.90291,443,93.2025,93.2025,0,0,1,696,349.90291m0-12.99029A106.08738,106.08738,0,1,0,802.08738,443,106.08739,106.08739,0,0,0,696,336.91262Z"/>
    <g>
      <path d="M656.93143,464.93a6.26572,6.26572,0,1,1-6.26572,6.26571,6.2728,6.2728,0,0,1,6.26572-6.26571m0-5.16a11.42572,11.42572,0,1,0,11.42571,11.42571A11.42572,11.42572,0,0,0,656.93143,459.77Z"/>
      <path d="M735.43714,464.93a6.26572,6.26572,0,1,1-6.26571,6.26571,6.27281,6.27281,0,0,1,6.26571-6.26571m0-5.16a11.42572,11.42572,0,1,0,11.42572,11.42571A11.42572,11.42572,0,0,0,735.43714,459.77Z"/>
      <path d="M673.51714,459.40143V428.81a5.53057,5.53057,0,0,0-5.52857-5.52857H646.722a3.69156,3.69156,0,0,0-3.05176,1.61434l-11.21563,16.512a5.53475,5.53475,0,0,0-.95461,3.107v21.15232a5.53059,5.53059,0,0,0,5.52857,5.52857H643.11a13.82143,13.82143,0,0,1,27.64286,0h50.03726l6.907-11.79428ZM667.62,440.23571a3.68707,3.68707,0,0,1-3.68571,3.68572H643.91717a3.68736,3.68736,0,0,1-3.0702-5.73128l5.5986-8.39238a5.52775,5.52775,0,0,1,4.59978-2.46206h12.88894a3.68705,3.68705,0,0,1,3.68571,3.68572Z"/>
      <path d="M681.99429,403.37857h71.87143a5.52857,5.52857,0,0,1,5.52857,5.52857v46.07143a0,0,0,0,1,0,0H676.46571a0,0,0,0,1,0,0V408.90714A5.52857,5.52857,0,0,1,681.99429,403.37857Z"/>
      <path d="M760.5,459.40143v11.79428H749.07429a13.62709,13.62709,0,0,0-6.78908-11.79428Z"/>
    </g>
  </g>
</svg>
