<svg xmlns="http://www.w3.org/2000/svg" width="704" height="704">
<title>5.22 Прилягання смуги для розгону транспортних засобів</title>
<defs><style>.a{fill:#fff}</style></defs><rect class="a" x="1" y="1" width="702" height="702" rx="46"/><path d="M657 2a45 45 0 0 1 45 45v610a45 45 0 0 1-45 45H47a45 45 0 0 1-45-45V47A45 45 0 0 1 47 2h610m0-2H47A47.053 47.053 0 0 0 0 47v610a47.053 47.053 0 0 0 47 47h610a47.053 47.053 0 0 0 47-47V47a47.053 47.053 0 0 0-47-47z"/><rect x="12" y="12" width="680" height="680" rx="35" style="fill:#005da2"/><path class="a" d="m672.04 553.02-60.63 35L554 488.58V692h-70V228h-58l93-161.08L612 228h-58v120.58l118.04 204.44zM341 125h22v70h-22zM341 221h22v70h-22zM341 317h22v70h-22zM341 413h22v70h-22zM341 509h22v70h-22zM341 605h22v87h-22zM341 12h22v87h-22zM276 228h-58v464h-70V228H90l93-161.08L276 228z"/></svg>