<svg xmlns="http://www.w3.org/2000/svg" width="704" height="704" viewBox="0 0 704 704"><defs><style>.a { fill: rgb(255, 255, 255); }.b { fill: rgb(5, 92, 157); }</style></defs><g><rect class="a" x="1" y="1" width="702" height="702" rx="46"/><path d="M657,2a45,45,0,0,1,45,45V657a45,45,0,0,1-45,45H47A45,45,0,0,1,2,657V47A45,45,0,0,1,47,2H657m0-2H47A47.0532,47.0532,0,0,0,0,47V657a47.05321,47.05321,0,0,0,47,47H657a47.05323,47.05323,0,0,0,47-47V47A47.05321,47.05321,0,0,0,657,0Z"/></g><rect class="b" x="12" y="12" width="680" height="680" rx="35"/><path class="a" d="M464,692V230c0-42.0339-39.73151-85-87-85-46.10137,0-86,42.9661-86,85V443h80L248,654.64218,125,443h80V230c-1.16712-87.57062,69.87671-165,172-165,109.126,0,173,84.435,173,165V692Z"/></svg>