<svg id="Слой_1" data-name="Слой 1" xmlns="http://www.w3.org/2000/svg" width="600" height="690" viewBox="0 0 600 690">
  <defs>
    <style>
      .cls-1 {
        fill: #fff;
      }
    </style>
  </defs>
  <g>
    <rect class="cls-1" x="0.5" y="0.5" width="599" height="689" rx="44.5"/>
    <path d="M555,1a44.04978,44.04978,0,0,1,44,44V645a44.04978,44.04978,0,0,1-44,44H45A44.04978,44.04978,0,0,1,1,645V45A44.04977,44.04977,0,0,1,45,1H555m0-1H45A45,45,0,0,0,0,45V645a45,45,0,0,0,45,45H555a45,45,0,0,0,45-45V45A45,45,0,0,0,555,0Z"/>
  </g>
  <path d="M590,380V45a34.99993,34.99993,0,0,0-35-35H45A34.99993,34.99993,0,0,0,10,45V380a34.972,34.972,0,0,0,16.97,30A34.97192,34.97192,0,0,0,10,440V645a35,35,0,0,0,35,35H555a35,35,0,0,0,35-35V440a34.97192,34.97192,0,0,0-16.97-30A34.972,34.972,0,0,0,590,380Zm-10,60V645a25.0348,25.0348,0,0,1-25,25H45a25.0348,25.0348,0,0,1-25-25V440a25.02833,25.02833,0,0,1,25-25H555A25.02833,25.02833,0,0,1,580,440Zm-25-35H45a25.02837,25.02837,0,0,1-25-25V45A25.03476,25.03476,0,0,1,45,20H555a25.03476,25.03476,0,0,1,25,25V380A25.02837,25.02837,0,0,1,555,405Z"/>
  <g>
    <path d="M158.86126,308.39529a21.466,21.466,0,1,1-21.466,21.466,21.49027,21.49027,0,0,1,21.466-21.466m0-17.17278A38.63875,38.63875,0,1,0,197.5,329.86126a38.63874,38.63874,0,0,0-38.63874-38.63875Z"/>
    <path d="M419.67277,307.322a21.466,21.466,0,1,1-21.466,21.466,21.49026,21.49026,0,0,1,21.466-21.466m0-17.17278A38.63875,38.63875,0,1,0,458.31152,328.788a38.63873,38.63873,0,0,0-38.63875-38.63875Z"/>
    <path d="M489.20108,169.37091A10.72793,10.72793,0,0,0,479.638,163.5H129.16311a10.74606,10.74606,0,0,0-8.90837,4.744l-33.19717,49.361a32.24475,32.24475,0,0,0-5.4738,17.967v76.04323l10.733,11.80629h19.7594a47.22641,47.22641,0,0,1,93.57021,0H372.7482a47.23113,47.23113,0,0,1,93.84915,0h35.7194A16.10535,16.10535,0,0,0,518.41623,307.322V226.82461Zm-306.72726,50.8075a10.84163,10.84163,0,0,1-10.733,10.93939H110.05841a7.65912,7.65912,0,0,1-6.39688-11.67237l24.14921-40.00529a10.69454,10.69454,0,0,1,9.14452-5.20716h34.78558a10.84159,10.84159,0,0,1,10.733,10.93939Zm99.81676,5.67228a5.31943,5.31943,0,0,1-5.3665,5.26711H207.15969a5.31943,5.31943,0,0,1-5.3665-5.26711V179.5001a5.31943,5.31943,0,0,1,5.3665-5.26712h69.76439a5.31943,5.31943,0,0,1,5.3665,5.26712Zm99.81675,0a5.31943,5.31943,0,0,1-5.36649,5.26711h-69.7644a5.31943,5.31943,0,0,1-5.36649-5.26711V179.5001a5.31943,5.31943,0,0,1,5.36649-5.26712h69.7644a5.31943,5.31943,0,0,1,5.36649,5.26712Zm100.06359,5.26711H411.08639a10.6389,10.6389,0,0,1-10.733-10.53422V184.76721a10.63886,10.63886,0,0,1,10.733-10.53423h49.90837a10.758,10.758,0,0,1,9.81,6.25734l18.23533,40.26178A7.38974,7.38974,0,0,1,482.17092,231.1178Z"/>
  </g>
  <g>
    <path d="M127.94043,520.14941H114.6748v-69.2998h26.82862c14.55273,0,23.95752,8.71289,23.95752,22.17578,0,13.46484-9.50391,22.17578-23.95752,22.17578h-13.563Zm11.68164-57.51855H127.94043v20.79h11.78076c8.11817,0,12.27588-3.46485,12.27588-10.39551C151.99707,466.19531,147.74023,462.63086,139.62207,462.63086Z"/>
    <path d="M194.36914,521.04c-14.751,0-23.06641-9.20606-23.06641-25.64063,0-16.43359,8.31543-25.64062,23.06641-25.64062s23.0669,9.207,23.0669,25.64062C217.436,511.834,209.12012,521.04,194.36914,521.04Zm0-11.08789c6.93018,0,10.49414-4.85059,10.49414-14.55274s-3.564-14.55273-10.49414-14.55273c-6.92969,0-10.49365,4.85059-10.49365,14.55273S187.43945,509.95215,194.36914,509.95215Z"/>
    <path d="M234.166,486.09375l-8.90967-5.14844c4.25683-7.62207,11.08789-11.18652,21.28467-11.18652,12.17675,0,19.50293,5.14844,19.50293,14.25586a11.8496,11.8496,0,0,1-6.03907,10.88965,12.11181,12.11181,0,0,1,7.12793,11.583c0,9.207-7.623,14.55274-20.69092,14.55274-10.59277,0-17.42382-3.56348-21.68066-11.08789l8.90967-5.14746c2.376,4.05859,6.13818,5.93945,11.87988,5.93945,5.84131,0,9.00928-2.07812,9.00928-5.93945,0-3.26758-2.17822-5.24707-6.23682-5.24707h-8.71191v-8.81055h7.91992c3.76172,0,5.93945-1.98047,5.93945-5.14844,0-3.56347-2.77148-5.54394-8.01855-5.54394C240.106,480.05469,236.542,481.93555,234.166,486.09375Z"/>
    <path d="M291.08984,500.34961v19.7998H278.61572v-49.499h12.47412v18.31445h4.65284l12.37451-18.31445h14.65234l-16.83008,23.957,18.31446,25.542h-14.75l-13.76123-19.7998Z"/>
    <path d="M327.126,510.64551c8.415-2.27735,10.19726-8.01856,11.583-39.99512h35.93653v49.499H362.17188V481.24316h-12.375c-1.18848,28.31348-5.44532,36.92676-19.89844,40.19336Z"/>
    <path d="M387.31641,476.58984a31.52646,31.52646,0,0,1,20.39453-6.83105c13.26562,0,20.09668,5.84082,20.09668,17.32519v19.79981a6.10039,6.10039,0,0,0,4.35547,6.13769l-3.76172,7.91993c-5.34571,0-9.207-1.68262-11.28614-5.04883-2.87109,3.2666-8.11718,5.14746-14.45312,5.14746-10.791,0-17.02832-5.44434-17.02832-14.35449,0-9.50391,7.0293-15.44336,18.80957-16.23633l10.89062-.69238v-2.07911c0-4.55371-3.168-7.12793-8.91015-7.12793a20.01332,20.01332,0,0,0-12.67188,4.45508Zm18.11718,22.47266c-5.04882.29688-7.82129,2.67285-7.82129,6.43555,0,3.86035,2.77247,6.03808,8.21778,6.03808,6.23633,0,9.5039-3.06836,9.5039-9.40429v-3.66309Z"/>
    <path d="M436.02441,534.00977V509.457h5.34571c4.45508-3.959,5.44531-13.46289,6.33593-38.80664H484.1377V509.457h7.4248v24.55274h-9.50391l-2.27734-13.86036H447.80469L445.627,534.00977ZM471.66406,509.457V481.24316H458.794c-.49512,13.36426-1.584,22.17579-3.96,28.21387Z"/>
    <path d="M226.74023,569.75879c12.96875,0,20.29493,9.207,20.29493,25.64062,0,16.43457-7.227,25.64063-20.29493,25.64063-5.74169,0-10.19677-1.97949-13.26562-5.64258v22.57129H201.00049V570.65039h11.78076V576.293Q217.53321,569.7583,226.74023,569.75879Zm-2.67285,11.08789c-7.02881,0-10.59277,4.85059-10.59277,14.55273s3.564,14.55274,10.59277,14.55274c6.92969,0,10.49414-4.85059,10.49414-14.45313C234.56152,585.69727,230.99707,580.84668,224.06738,580.84668Z"/>
    <path d="M264.55811,638.86035a19.03757,19.03757,0,0,1-8.2168-1.584l1.188-10.49414a11.81683,11.81683,0,0,0,4.85058.99023c4.05908,0,6.43506-2.0791,8.21729-7.82129l-18.81006-49.30078h13.36523l11.38477,32.37207,11.28564-32.37207H301.1875L280.794,624.40625C276.73486,635.19727,272.57715,638.86035,264.55811,638.86035Z"/>
    <path d="M317.82031,620.14941H303.56445l17.52246-25.542-16.43359-23.957h14.25586l9.40527,14.94824,9.50391-14.94824h14.25586l-16.43457,23.957,17.42383,25.542H338.90723l-10.59278-15.93847Z"/>
    <path d="M368.30859,638.86035a19.03894,19.03894,0,0,1-8.21679-1.584l1.18847-10.49414a11.81688,11.81688,0,0,0,4.85059.99023c4.05957,0,6.43555-2.0791,8.2168-7.82129l-18.80957-49.30078h13.36523l11.38477,32.37207,11.28613-32.37207h13.36426l-20.39356,53.75586C380.48633,635.19727,376.32812,638.86035,368.30859,638.86035Z"/>
  </g>
</svg>
