<?xml version="1.0" encoding="UTF-8" standalone="no"?>
<svg
   width="1020px"
   height="1000px"
   viewBox="0 0 1020 1000"
   version="1.1"
   id="svg149"
   sodipodi:docname="Ukraine_road_sign_5.57A_(2021).svg"
   inkscape:version="1.1.2 (b8e25be833, 2022-02-05)"
   xmlns:inkscape="http://www.inkscape.org/namespaces/inkscape"
   xmlns:sodipodi="http://sodipodi.sourceforge.net/DTD/sodipodi-0.dtd"
   xmlns="http://www.w3.org/2000/svg"
   xmlns:svg="http://www.w3.org/2000/svg">
  <defs
     id="defs153" />
  <sodipodi:namedview
     id="namedview151"
     pagecolor="#ffffff"
     bordercolor="#666666"
     borderopacity="1.0"
     inkscape:pageshadow="2"
     inkscape:pageopacity="0.0"
     inkscape:pagecheckerboard="0"
     showgrid="false"
     inkscape:zoom="0.57134228"
     inkscape:cx="527.70469"
     inkscape:cy="573.21156"
     inkscape:window-width="1920"
     inkscape:window-height="1001"
     inkscape:window-x="-9"
     inkscape:window-y="-9"
     inkscape:window-maximized="1"
     inkscape:current-layer="svg149" />
  <g
     id="surface1">
    <path
       style="fill:#ffffff;fill-opacity:1;fill-rule:nonzero;stroke:none"
       d="M 38.640625,1.410156 H 981.40625 c 20.56245,0 37.23045,16.671875 37.23045,37.234375 V 961.44531 c 0,20.5625 -16.668,37.23047 -37.23045,37.23047 H 38.640625 c -20.558594,0 -37.230469,-16.66797 -37.230469,-37.23047 V 38.644531 c 0,-20.5625 16.671875,-37.234375 37.230469,-37.234375 z m 0,0"
       id="path2" />
    <path
       style="fill:#000000;fill-opacity:1;fill-rule:nonzero;stroke:none"
       d="m 981.40625,2.824219 c 19.77345,0.019531 35.79685,16.042969 35.82035,35.820312 V 961.44531 c -0.024,19.77344 -16.0469,35.79688 -35.82035,35.82031 H 38.640625 C 18.867188,997.24219 2.84375,981.21875 2.824219,961.44531 V 38.644531 C 2.84375,18.867188 18.867188,2.84375 38.640625,2.824219 H 981.40625 M 981.40625,0 H 38.640625 C 17.300781,0 0,17.300781 0,38.644531 V 961.44531 c 0,21.33985 17.300781,38.64059 38.640625,38.64059 H 981.40625 c 21.33985,0 38.64065,-17.30074 38.64065,-38.64059 V 38.644531 C 1020.0469,17.300781 1002.7461,0 981.40625,0 Z m 0,0"
       id="path4" />
    <path
       style="fill:#04ae67;fill-opacity:1;fill-rule:nonzero;stroke:none"
       d="M 45.121094,26 H 974.92578 c 11.66406,0 21.12109,9.457031 21.12109,21.125 v 905.83203 c 0,11.66797 -9.45703,21.125 -21.12109,21.125 H 45.121094 C 33.457031,974.08203 24,964.625 24,952.95703 V 47.125 C 24,35.457031 33.457031,26 45.121094,26 Z m 0,0"
       id="path6" />
    <path
       style="fill:#e30013;fill-opacity:1;fill-rule:nonzero;stroke:#ffffff;stroke-width:12;stroke-linecap:butt;stroke-linejoin:miter;stroke-miterlimit:10;stroke-opacity:1"
       d="m 795.38974,175.37877 h 557.87886 c 18.1586,0 32.8737,14.71454 32.8737,32.87244 v 246.0728 c 0,18.14683 -14.7151,32.86138 -32.8737,32.86138 H 795.38974 c -18.15861,0 -32.87372,-14.71455 -32.87372,-32.86138 v -246.0728 c 0,-18.1579 14.71511,-32.87244 32.87372,-32.87244 z m 0,0"
       transform="matrix(0.352794,0,0,0.352808,5.29191e-4,0)"
       id="path8" />
    <path
       style="fill:#ffffff;fill-opacity:1;fill-rule:nonzero;stroke:none"
       d="m 323.25,130.63672 -12.0625,-19.75781 v 31.17187 h -8.91797 V 95.128906 h 9.11719 l 13.47265,22.789064 13.47266,-22.808595 h 9.11328 v 46.925785 h -8.91015 v -31.17188 l -12.06641,19.75781 z m 0,0"
       id="path10" />
    <path
       style="fill:#ffffff;fill-opacity:1;fill-rule:nonzero;stroke:none"
       d="m 375.40234,127.08594 h -18.43359 v -7.76172 h 18.43359 z m 0,0"
       id="path12" />
    <path
       style="fill:#ffffff;fill-opacity:1;fill-rule:nonzero;stroke:none"
       d="m 399.19922,94.304688 c 10.99219,0 16.28515,7.976562 16.28515,24.199222 0,16.15625 -5.28906,24.13281 -16.28515,24.13281 -11,0 -16.28906,-7.97656 -16.28906,-24.13281 0,-16.22266 5.29296,-24.199222 16.28906,-24.199222 z m -7.76172,24.199222 c 0,10.66015 2.74609,16.625 7.76172,16.625 5.01172,0 7.76172,-5.96485 7.76172,-16.625 0,-10.72657 -2.75,-16.69141 -7.76172,-16.69141 -5.01563,0 -7.77735,5.96484 -7.77735,16.69141 z m 0,0"
       id="path14" />
    <path
       style="fill:#ffffff;fill-opacity:1;fill-rule:nonzero;stroke:none"
       d="m 430.83594,107.64453 -8.17578,-1.05859 c 1.13671,-7.039065 7.70703,-12.066409 16.15234,-12.066409 8.84766,0 15.21484,5.363281 15.21484,13.003909 0,4.49219 -2.21093,8.11719 -6.09765,9.98828 4.42187,1.8125 7.03906,5.76562 7.03906,10.9375 0,8.3789 -6.70313,14.21094 -16.23047,14.21094 -8.98047,0 -15.875,-5.22657 -16.95703,-12.60157 l 8.24219,-1.33984 c 1.01562,3.9375 4.36718,6.40625 8.85156,6.40625 4.55859,0 7.57422,-2.54688 7.57422,-6.76953 0,-4.15625 -2.94922,-6.97266 -7.64063,-6.97266 h -2.7539 v -6.96875 h 2.74609 c 4.08984,0 6.70313,-2.46875 6.70313,-6.30078 0,-3.7539 -2.67969,-6.09765 -6.83594,-6.09765 -4.02344,0 -7.09375,2.14453 -7.83203,5.6289 z m 0,0"
       id="path16" />
    <path
       style="fill:#04ae67;fill-opacity:1;fill-rule:nonzero;stroke:#ffffff;stroke-width:12;stroke-linecap:butt;stroke-linejoin:miter;stroke-miterlimit:10;stroke-opacity:1"
       d="m 795.38974,509.87169 h 557.87886 c 18.1586,0 32.8737,14.71455 32.8737,32.87245 v 246.06173 c 0,18.1579 -14.7151,32.87244 -32.8737,32.87244 H 795.38974 c -18.15861,0 -32.87372,-14.71454 -32.87372,-32.87244 V 542.74414 c 0,-18.1579 14.71511,-32.87245 32.87372,-32.87245 z m 0,0"
       transform="matrix(0.352794,0,0,0.352808,5.29191e-4,0)"
       id="path18" />
    <path
       style="fill:#ffffff;fill-opacity:1;fill-rule:nonzero;stroke:none"
       d="m 347.98437,260.04297 h -32.10156 v -46.92188 h 31.77344 v 7.97657 h -22.79297 v 11.19531 h 19.05078 v 7.96875 h -19.05078 v 11.79687 h 23.125 z m 0,0"
       id="path20" />
    <path
       style="fill:#ffffff;fill-opacity:1;fill-rule:nonzero;stroke:none"
       d="M 388.94141,249.05078 H 367.55859 V 241.8125 L 387,213.12109 h 10.45312 v 28.69141 h 6.03516 v 7.23828 h -6.03516 v 10.99219 h -8.51171 z m -13.33985,-7.23828 h 13.33985 v -19.57422 z m 0,0"
       id="path22" />
    <path
       style="fill:#ffffff;fill-opacity:1;fill-rule:nonzero;stroke:none"
       d="m 425.13672,212.31641 c 10.99609,0 16.28906,7.97656 16.28906,24.19921 0,16.15625 -5.28906,24.13282 -16.28906,24.13282 -10.9961,0 -16.28516,-7.97657 -16.28516,-24.13282 0,-16.22265 5.29297,-24.19921 16.28516,-24.19921 z m -7.75781,24.19921 c 0,10.65625 2.74609,16.625 7.75781,16.625 5.01562,0 7.76172,-5.96875 7.76172,-16.625 0,-10.72656 -2.7461,-16.6914 -7.76172,-16.6914 -5.01172,0 -7.78125,5.97265 -7.78125,16.6914 z m 0,0"
       id="path24" />
    <path
       style="fill:#ffffff;fill-opacity:1;fill-rule:nonzero;stroke:none"
       d="m 289.95312,436.5625 c 0,0 5.94922,-81.28516 -80.9414,-81.99219 -54.65235,-0.4414 -74.35938,41.63281 -81.14453,64.41016 -2.23047,7.51953 -3.35938,15.32031 -3.35156,23.16015 v 293.49219 c 15.57812,-11.76953 34.97656,-21.57031 56.0039,-21.57031 h 114.67188 l -38.17579,-41.00391 h 50 l 56.01172,58 -56.01172,58.01172 h -50 l 37.23829,-40.00781 h -102.7461 c -36.44922,0 -67.0039,29.55078 -67.0039,66.00781 V 940.08203 H 87.492188 V 163.23828 l -39.511719,36.77734 v -50 l 58.023441,-56.007808 58.0039,56.007808 v 50 l -39.51172,-36.77734 v 189.87109 c 34.33203,-32.40625 75.625,-33.22656 84.51563,-33.08203 95.17578,1.5625 115.60937,76.66016 115.23437,116.53516 -0.24218,25.84375 -5.55078,59.11719 -47.39453,91.65625 -26.64453,20.71484 -54.94922,23.98828 -69.57812,24.29687 l 37.75,40.53125 h -50.01563 l -56.00781,-58 56,-58.0039 h 50.01172 l -37.56641,40.375 C 289,515.97266 289.95312,436.5625 289.95312,436.5625 Z m 0,0"
       id="path26" />
    <path
       style="fill:#ffffff;fill-opacity:1;fill-rule:nonzero;stroke:none"
       d="m 539.57422,109.92969 h 11.0625 v 23.19922 h 6.51953 l 14.69531,-23.19922 h 13.05469 L 566.41016,138 l 20.22656,29.71875 h -13.05469 l -16.34375,-24.76563 h -6.60547 v 24.76563 h -11.0625 z m 0,0"
       id="path28" />
    <path
       style="fill:#ffffff;fill-opacity:1;fill-rule:nonzero;stroke:none"
       d="m 620.97266,126.44141 h 9.82421 v 41.28125 h -10.40234 v -24.52344 l -17.17187,24.51953 h -9.82422 V 126.4375 h 10.40234 v 24.51953 z m 0,0"
       id="path30" />
    <path
       style="fill:#ffffff;fill-opacity:1;fill-rule:nonzero;stroke:none"
       d="m 640.70312,108.94141 c 3.05469,0 5.19922,2.22656 5.19922,5.28906 0,3.0625 -2.14453,5.11719 -5.19922,5.11719 -3.05468,0 -5.19921,-2.14453 -5.19921,-5.11719 0,-3.0625 2.22656,-5.28906 5.19921,-5.28906 z m 12.21875,58.77734 H 642.51953 V 126.4375 h 10.40234 z m 1.81641,-58.77734 c 3.05078,0 5.19922,2.22656 5.19922,5.28906 0,3.0625 -2.14844,5.11719 -5.19922,5.11719 -3.05469,0 -5.20312,-2.0625 -5.20312,-5.11719 0,-3.05078 2.14843,-5.28906 5.20312,-5.28906 z m 0,0"
       id="path32" />
    <path
       style="fill:#ffffff;fill-opacity:1;fill-rule:nonzero;stroke:none"
       d="m 698.88672,137.75 c 0,3.88281 -1.65235,6.85547 -4.6211,8.82031 3.87891,1.89844 5.94141,5.1211 5.94141,9.4961 0,7.42968 -5.94141,11.64062 -16.42969,11.64062 h -19.14843 v -41.27734 h 18.49218 c 10.08594,0.0117 15.76563,4.14062 15.76563,11.32031 z m -15.4375,5.44922 c 3.13672,0 4.9414,-1.56641 4.9414,-4.29297 0,-2.64063 -1.8164,-4.20703 -4.9414,-4.20703 h -8.41797 v 8.5 z m 0.91015,16.26172 c 3.38282,0 5.36329,-1.64844 5.36329,-4.53907 0,-2.80468 -1.98047,-4.375 -5.36329,-4.375 h -9.32812 v 8.92188 z m 0,0"
       id="path34" />
    <path
       style="fill:#ffffff;fill-opacity:1;fill-rule:nonzero;stroke:none"
       d="m 546.875,234.87109 h -8.51172 v -44.45312 h 8.51172 v 20.0039 l 17.01953,-20.0039 h 10.41406 l -15.05078,17.52734 16.76563,26.92578 h -9.97266 l -12.69922,-20.64062 -6.47656,7.36719 z m 0,0"
       id="path36" />
    <path
       style="fill:#ffffff;fill-opacity:1;fill-rule:nonzero;stroke:none"
       d="m 583.07031,246.875 c -1.76562,0 -3.74609,-0.25391 -5.26953,-1.01563 l 0.76172,-6.73437 c 0.98047,0.42969 2.03906,0.64453 3.10937,0.63672 2.60547,0 4.12891,-1.33594 5.27344,-5.01563 l -12.0664,-31.6289 h 8.57421 l 7.30079,20.76953 7.23437,-20.76953 h 8.57031 l -13.08203,34.48437 c -2.59375,6.92188 -5.26172,9.27344 -10.40625,9.27344 z m 0,0"
       id="path38" />
    <path
       style="fill:#ffffff;fill-opacity:1;fill-rule:nonzero;stroke:none"
       d="m 615.77344,188.75391 c 2.61328,-0.0195 4.74609,2.08593 4.76172,4.69921 0.0195,2.60938 -2.08594,4.74219 -4.69532,4.76172 -2.61328,0.0156 -4.74609,-2.08593 -4.76562,-4.69922 -0.0312,-1.26171 0.44922,-2.48437 1.33594,-3.38281 0.88671,-0.89844 2.10156,-1.39844 3.36328,-1.3789 z m 4,46.10156 h -8 v -31.75 h 8 z m 0,0"
       id="path40" />
    <path
       style="fill:#ffffff;fill-opacity:1;fill-rule:nonzero;stroke:none"
       d="m 644.91016,234.87109 h -8.25782 l -11.68359,-31.7539 h 8.57422 l 7.30078,21.71875 7.23828,-21.71875 h 8.57422 z m 0,0"
       id="path42" />
    <path
       style="fill:#ffffff;fill-opacity:1;fill-rule:nonzero;stroke:none"
       d="m 754.88281,67.003906 h 114.3086 c 3.5039,0 6.34765,2.613282 6.34765,5.835938 V 236.19141 c 0,3.21875 -2.84375,5.83203 -6.34765,5.83203 h -114.3086 c -3.5039,0 -6.34765,-2.61328 -6.34765,-5.83203 V 72.839844 c 0,-3.222656 2.84375,-5.835938 6.34765,-5.835938 z m 0,0"
       id="path44" />
    <path
       style="fill:#04ae67;fill-opacity:1;fill-rule:nonzero;stroke:none"
       d="m 754.88281,69.597656 c -1.95312,0 -3.52734,1.445313 -3.52734,3.242188 V 116.23438 H 872.71875 V 72.839844 c 0,-1.796875 -1.57422,-3.242188 -3.52734,-3.242188 h -49.21485 l 9.92188,41.164064 h -13.88672 l -1.98047,-41.164064 h -3.96875 l -1.98828,41.164064 H 794.1875 l 9.91797,-41.164064 z m -3.52734,53.925784 V 236.1875 c 0,1.79687 1.57422,3.24219 3.52734,3.24219 h 1.58985 L 788.22266,129 h 19.84765 l -3.97265,110.42969 h 15.8789 L 816.00781,129 h 19.84375 l 31.75,110.42969 h 1.58985 c 1.95312,0 3.52734,-1.44532 3.52734,-3.24219 V 123.52344 h -17.02344 v 12.75781 h -7.92969 l -3.96875,-12.75781 h -63.5039 l -3.96875,12.75781 h -7.9375 v -12.75781 z m 0,0"
       id="path46" />
    <path
       style="fill:#ffffff;fill-opacity:1;fill-rule:nonzero;stroke:none"
       d="m 200.07031,938.28516 c -11.60937,0 -20.17969,-6.88672 -20.17969,-16.4961 -0.0664,-5.8125 3.33204,-11.10156 8.64844,-13.45703 -4.72656,-2.40234 -7.44922,-6.72656 -7.44922,-11.85156 0,-9.12891 8.08985,-15.69922 19.05078,-15.69922 10.8125,0 18.89844,6.48828 18.89844,15.45703 0,5.125 -2.71875,9.61328 -7.44531,12.09375 5.28906,2.24219 8.64844,7.44922 8.64844,13.45703 0.0117,9.625 -8.56641,16.4961 -20.17188,16.4961 z m 0.082,-8.96875 c 5.6875,0 9.92969,-3.60547 9.92969,-8.48829 0,-4.72656 -4.16406,-8.17187 -10.01172,-8.17187 -5.76562,0 -10.00781,3.44531 -10.00781,8.25 0,4.88672 4.32812,8.41016 10.08984,8.41016 z m -0.082,-24.98829 c 5.125,0 8.82031,-3.04296 8.82031,-7.36718 0,-4.16797 -3.76562,-7.20703 -8.82031,-7.20703 -5.05469,0 -8.82031,3.03906 -8.82031,7.20703 0.0117,4.32422 3.77344,7.36718 8.82031,7.36718 z m 0,0"
       id="path48" />
    <path
       style="fill:#ffffff;fill-opacity:1;fill-rule:nonzero;stroke:none"
       d="m 247.30859,880.54297 c 13.13672,0 19.46094,9.52344 19.46094,28.92969 0,19.30078 -6.32422,28.83203 -19.46094,28.83203 -13.13281,0 -19.46093,-9.52735 -19.46093,-28.83203 0.0117,-19.39844 6.33593,-28.92969 19.46093,-28.92969 z m -9.28906,28.92969 c 0,12.73046 3.28516,19.86328 9.28906,19.86328 6.00391,0 9.28907,-7.13282 9.28907,-19.86328 0,-12.81641 -3.28125,-19.94141 -9.28907,-19.94141 -6.00781,0 -9.27734,7.10937 -9.27734,19.92187 z m 0,0"
       id="path50" />
    <path
       style="fill:#ffffff;fill-opacity:1;fill-rule:nonzero;stroke:none"
       d="m 294.58203,880.54297 c 13.13672,0 19.46094,9.52344 19.46094,28.92969 0,19.30078 -6.32422,28.83203 -19.46094,28.83203 -13.13281,0 -19.45703,-9.52735 -19.45703,-28.83203 -0.0156,-19.39844 6.30859,-28.92969 19.45703,-28.92969 z m -9.28906,28.92969 c 0,12.73046 3.28515,19.86328 9.28906,19.86328 6.00781,0 9.28906,-7.13282 9.28906,-19.86328 0,-12.81641 -3.28125,-19.94141 -9.28906,-19.94141 -6.00781,0 -9.30078,7.10937 -9.30078,19.92187 z m 0,0"
       id="path52" />
    <path
       style="fill:#ffffff;fill-opacity:1;fill-rule:nonzero;stroke:none"
       d="m 361.92187,930.91797 -10.09375,-17.0586 v 23.70704 h -9.52734 v -40.04297 h 10.25391 l 11.45312,19.13672 11.3711,-19.13672 h 10.33203 v 40.04297 h -9.52735 v -23.70704 l -10.08984,17.0586 z m 0,0"
       id="path54" />
    <path
       style="fill:#005999;fill-opacity:1;fill-rule:nonzero;stroke:#ffffff;stroke-width:12;stroke-linecap:butt;stroke-linejoin:miter;stroke-miterlimit:10;stroke-opacity:1"
       d="m 1143.7692,955.28283 h 1366.3244 c 32.0876,0 58.0965,26.00788 58.0965,58.09427 v 547.1175 c 0,32.0863 -26.0089,58.0942 -58.0965,58.0942 H 1143.7692 c -32.0875,0 -58.0964,-26.0079 -58.0964,-58.0942 v -547.1175 c 0,-32.08639 26.0089,-58.09427 58.0964,-58.09427 z m 0,0"
       transform="matrix(0.352794,0,0,0.352808,5.29191e-4,0)"
       id="path56" />
    <path
       style="fill:#ffffff;fill-opacity:1;fill-rule:nonzero;stroke:none"
       d="M 682.34375,438.10937 H 671.36719 L 660.375,419.73828 649.4375,438.10937 h -10.99219 l 16.27344,-26.18359 -15.04297,-24.44922 h 10.99219 l 9.6914,16.85547 9.76172,-16.85547 h 10.9961 l -15.04297,24.44922 z m 0,0"
       id="path58" />
    <path
       style="fill:#ffffff;fill-opacity:1;fill-rule:nonzero;stroke:none"
       d="m 686.60937,406.28125 c 4.41407,-3.39453 9.04297,-4.98828 14.89844,-4.98828 9.69141,0 14.6836,4.26562 14.6836,12.65625 v 14.46484 c 0,2.17188 1.15625,3.83594 3.17578,4.48438 l -2.75,5.78906 c -3.90625,0 -6.72657,-1.23047 -8.2461,-3.69141 -2.11718,2.39063 -5.92968,3.76172 -10.55859,3.76172 -7.88281,0 -12.4375,-3.98047 -12.4375,-10.48828 0,-6.94141 5.13281,-11.28906 13.75781,-11.85937 l 7.95703,-0.50782 v -1.51953 c 0,-3.32812 -2.3164,-5.20703 -6.51172,-5.20703 -3.36718,-0.0156 -6.63671,1.13672 -9.25781,3.25781 z m 13.23438,16.42187 c -3.6875,0.21485 -5.71484,1.94922 -5.71484,4.69922 0,2.82032 2.02734,4.41407 6,4.41407 4.55468,0 6.9414,-2.2461 6.9414,-6.875 v -2.67188 z m 0,0"
       id="path60" />
    <path
       style="fill:#ffffff;fill-opacity:1;fill-rule:nonzero;stroke:none"
       d="m 744.83203,401.29297 c 9.46875,0 14.81641,6.72656 14.81641,18.73047 0,12.00781 -5.29297,18.73437 -14.81641,18.73437 -4.19531,0 -7.45312,-1.44531 -9.69141,-4.12109 v 16.49219 h -9.11328 v -49.1836 h 8.60157 v 4.13672 c 2.3164,-3.19141 5.71484,-4.78906 10.20312,-4.78906 z m -1.95703,8.11719 c -5.13281,0 -7.73438,3.52734 -7.73438,10.6289 0,7.10156 2.60157,10.63281 7.73438,10.63281 5.0625,0 7.66797,-3.52734 7.66797,-10.55859 0,-7.17578 -2.61719,-10.71875 -7.66797,-10.71875 z m 0,0"
       id="path62" />
    <path
       style="fill:#ffffff;fill-opacity:1;fill-rule:nonzero;stroke:none"
       d="m 777.01172,423.64062 v 14.46485 h -9.11328 v -36.16016 h 9.11328 v 13.37891 h 3.39844 l 9.04296,-13.37891 h 10.70313 l -12.29688,17.5 13.37891,18.66406 h -10.77344 l -10.05468,-14.46484 z m 0,0"
       id="path64" />
    <path
       style="fill:#ffffff;fill-opacity:1;fill-rule:nonzero;stroke:none"
       d="m 811.87109,385.59766 c 2.97657,-0.0195 5.41016,2.375 5.42969,5.35156 0.0195,2.98047 -2.375,5.41015 -5.35547,5.42969 -2.97656,0.0195 -5.40625,-2.37891 -5.42578,-5.35547 -0.0352,-1.4375 0.51172,-2.82813 1.52344,-3.85157 1.00781,-1.02343 2.39062,-1.58984 3.82812,-1.57421 z m 4.55469,52.51171 h -9.11328 v -36.16406 h 9.11328 z m 0,0"
       id="path66" />
    <path
       style="fill:#ffffff;fill-opacity:1;fill-rule:nonzero;stroke:none"
       d="m 856.71094,411.85547 c 0,3.39453 -1.44532,5.99609 -4.05078,7.73437 3.39843,1.66797 5.20703,4.48438 5.20703,8.32032 0,6.50781 -5.20703,10.19921 -14.39063,10.19921 h -16.78125 v -36.16406 h 16.19922 c 8.82422,0 13.81641,3.61328 13.81641,9.91016 z m -13.53125,4.77344 c 2.74609,0 4.33984,-1.37891 4.33984,-3.76172 0,-2.31641 -1.59375,-3.69141 -4.33984,-3.69141 h -7.37891 v 7.45313 z m 0.79687,14.25 c 2.96094,0 4.69922,-1.45313 4.69922,-3.98047 0,-2.46875 -1.73828,-3.83594 -4.69922,-3.83594 h -8.17578 v 7.81641 z m 0,0"
       id="path68" />
    <path
       style="fill:#ffffff;fill-opacity:1;fill-rule:nonzero;stroke:none"
       d="m 650.74609,520 h -8.03515 v -41.98438 h 8.03515 v 18.89063 l 16.07422,-18.89063 h 9.83985 l -14.21485,16.55079 15.83203,25.42968 h -9.41406 l -11.99609,-19.49218 -6.11719,6.95703 z m 0,0"
       id="path70" />
    <path
       style="fill:#ffffff;fill-opacity:1;fill-rule:nonzero;stroke:none"
       d="m 690.44922,520 h -7.55469 v -41.98438 h 7.55469 V 493.125 c 2.16015,-2.39844 5.03906,-3.65625 8.63672,-3.65625 6.53906,0 10.25781,4.13672 10.25781,11.39453 v 19.13281 h -7.61719 v -18.41015 c 0,-3.47657 -1.98047,-5.39844 -5.45703,-5.39844 -3.66016,0 -5.82031,2.10156 -5.82031,5.82031 z m 0,0"
       id="path72" />
    <path
       style="fill:#ffffff;fill-opacity:1;fill-rule:nonzero;stroke:none"
       d="m 716.48047,493.60937 c 3.65625,-2.82031 7.49609,-4.13671 12.34765,-4.13671 8.03516,0 12.17579,3.52734 12.17579,10.49609 v 11.99609 c 0,1.79688 0.95703,3.17188 2.63671,3.71485 l -2.27734,4.80078 c -3.23828,0 -5.57812,-1.01953 -6.83984,-3.0586 -1.73828,1.97657 -4.91797,3.11719 -8.75391,3.11719 -6.53906,0 -10.31641,-3.29687 -10.31641,-8.69531 0,-5.75781 4.25782,-9.35547 11.39454,-9.83594 l 6.59765,-0.42187 v -1.25782 c 0,-2.75781 -1.91797,-4.32031 -5.39844,-4.32031 -2.79296,-0.0117 -5.5039,0.94141 -7.67578,2.69922 z m 10.97265,13.61719 c -3.05859,0.17969 -4.73437,1.61719 -4.73437,3.87891 0,2.33984 1.67578,3.66015 4.97656,3.66015 3.77735,0 5.75781,-1.85937 5.75781,-5.69921 v -2.21875 z m 0,0"
       id="path74" />
    <path
       style="fill:#ffffff;fill-opacity:1;fill-rule:nonzero;stroke:none"
       d="m 749.16406,490.01172 h 7.14063 v 4.19922 c 2.15625,-3.11719 5.03515,-4.73828 8.93359,-4.73828 1.4375,-0.008 2.86328,0.25781 4.19922,0.77734 l -3,6.89844 c -0.92969,-0.53125 -1.98438,-0.80078 -3.05859,-0.78125 -4.25782,0 -6.65625,3.17578 -6.65625,8.75781 V 520 h -7.5586 z m 0,0"
       id="path76" />
    <path
       style="fill:#ffffff;fill-opacity:1;fill-rule:nonzero;stroke:none"
       d="m 782.14453,520 h -7.55078 v -41.98438 h 7.55078 v 23.92579 l 10.4375,-11.9336 h 9.32031 l -10.97656,12.29688 11.81641,17.6914 h -8.82032 l -8.27734,-12.34765 -3.47656,3.95703 z m 0,0"
       id="path78" />
    <path
       style="fill:#ffffff;fill-opacity:1;fill-rule:nonzero;stroke:none"
       d="m 811.53906,476.46094 c 2.46875,-0.0156 4.48047,1.96875 4.4961,4.4375 0.0156,2.46484 -1.97266,4.48047 -4.4375,4.49609 -2.46875,0.0156 -4.48047,-1.97266 -4.4961,-4.44141 -0.0312,-1.1914 0.42578,-2.34375 1.26172,-3.1914 0.83984,-0.84766 1.98438,-1.31641 3.17578,-1.30078 z M 815.30859,520 H 807.75 v -29.98828 h 7.55859 z m 0,0"
       id="path80" />
    <path
       style="fill:#ffffff;fill-opacity:1;fill-rule:nonzero;stroke:none"
       d="m 839.07031,520 h -7.79687 l -11.03516,-29.98828 h 8.11328 l 6.89453,20.51172 6.83985,-20.51172 h 8.11328 z m 0,0"
       id="path82" />
    <path
       style="fill:#e30013;fill-opacity:1;fill-rule:nonzero;stroke:#ffffff;stroke-width:12;stroke-linecap:butt;stroke-linejoin:miter;stroke-miterlimit:10;stroke-opacity:1"
       d="m 1219.6368,1049.0507 h 458.6709 c 18.1586,0 32.8737,14.7145 32.8737,32.8724 v 160.631 c 0,18.1469 -14.7151,32.8614 -32.8737,32.8614 h -458.6709 c -18.1475,0 -32.8627,-14.7145 -32.8627,-32.8614 v -160.631 c 0,-18.1579 14.7152,-32.8724 32.8627,-32.8724 z m 0,0"
       transform="matrix(0.352794,0,0,0.352808,5.29191e-4,0)"
       id="path84" />
    <path
       style="fill:#ffffff;fill-opacity:1;fill-rule:nonzero;stroke:none"
       d="m 464.39062,420.33594 -10.16406,-16.65235 v 26.2461 h -7.50781 v -39.51172 h 7.67969 l 11.34765,19.1914 11.34375,-19.1914 h 7.67969 v 39.51172 h -7.50781 v -26.2461 l -10.16016,16.65235 z m 0,0"
       id="path86" />
    <path
       style="fill:#ffffff;fill-opacity:1;fill-rule:nonzero;stroke:none"
       d="m 508.30469,417.34375 h -15.52344 v -6.54688 h 15.52344 z m 0,0"
       id="path88" />
    <path
       style="fill:#ffffff;fill-opacity:1;fill-rule:nonzero;stroke:none"
       d="m 528.33984,389.73828 c 9.25782,0 13.71875,6.70313 13.71875,20.37891 0,13.60547 -4.46093,20.32422 -13.71875,20.32422 -9.2539,0 -13.71484,-6.70704 -13.71484,-20.32422 0,-13.66016 4.46094,-20.37891 13.71484,-20.37891 z m -6.55859,20.37891 c 0,8.97656 2.31641,14 6.55078,14 4.23438,0 6.54688,-5.02344 6.54688,-14 0,-9.03125 -2.3125,-14.05469 -6.54688,-14.05469 -4.23437,0 -6.55078,5.02344 -6.55078,14.05469 z m 0,0"
       id="path90" />
    <path
       style="fill:#ffffff;fill-opacity:1;fill-rule:nonzero;stroke:none"
       d="m 554.98437,400.97266 -6.88671,-0.90235 c 0.96093,-5.92578 6.49218,-10.16015 13.60546,-10.16015 7.44922,0 12.8125,4.51562 12.8125,10.9375 0,3.78125 -1.86328,6.82812 -5.13671,8.41015 3.72656,1.52344 5.92578,4.85547 5.92578,9.19922 0,7.05859 -5.64453,11.96875 -13.66016,11.96875 -7.5625,0 -13.37891,-4.40234 -14.28125,-10.61328 l 6.94531,-1.12891 c 0.84375,3.33203 3.66797,5.41797 7.44922,5.41797 3.83985,0 6.37891,-2.14453 6.37891,-5.69922 0,-3.5 -2.46875,-5.87109 -6.4336,-5.87109 h -2.3164 v -5.87109 h 2.3164 c 3.44141,0 5.64454,-2.08985 5.64454,-5.29297 0,-3.17578 -2.25782,-5.13672 -5.75782,-5.13672 -3.38672,0 -5.98437,1.80859 -6.60547,4.74219 z m 0,0"
       id="path92" />
    <path
       style="fill:#04ae67;fill-opacity:1;fill-rule:nonzero;stroke:#ffffff;stroke-width:12;stroke-linecap:butt;stroke-linejoin:miter;stroke-miterlimit:10;stroke-opacity:1"
       d="m 1219.6368,1291.8794 h 458.6709 c 18.1586,0 32.8737,14.7146 32.8737,32.8725 v 160.631 c 0,18.1468 -14.7151,32.8724 -32.8737,32.8724 h -458.6709 c -18.1475,0 -32.8627,-14.7256 -32.8627,-32.8724 v -160.631 c 0,-18.1579 14.7152,-32.8725 32.8627,-32.8725 z m 0,0"
       transform="matrix(0.352794,0,0,0.352808,5.29191e-4,0)"
       id="path94" />
    <path
       style="fill:#ffffff;fill-opacity:1;fill-rule:nonzero;stroke:none"
       d="m 485.21875,515.39062 h -27.03906 v -39.51171 h 26.75781 v 6.70312 h -19.19531 v 9.42578 h 16.03515 v 6.70313 h -16.03515 v 9.9375 h 19.47656 z m 0,0"
       id="path96" />
    <path
       style="fill:#ffffff;fill-opacity:1;fill-rule:nonzero;stroke:none"
       d="m 519.70703,506.13281 h -17.99609 v -6.09765 L 518.08203,475.875 h 8.82031 v 24.16016 h 5.07813 v 6.09765 h -5.07813 v 9.25781 h -7.16797 z m -11.23437,-6.09765 h 11.23437 v -16.48438 z m 0,0"
       id="path98" />
    <path
       style="fill:#ffffff;fill-opacity:1;fill-rule:nonzero;stroke:none"
       d="m 550.1875,475.19531 c 9.25781,0 13.71484,6.70313 13.71484,20.38281 0,13.60547 -4.45703,20.32032 -13.71484,20.32032 -9.25781,0 -13.71875,-6.70313 -13.71875,-20.32032 0,-13.66406 4.46094,-20.38281 13.71875,-20.38281 z m -6.53125,20.38281 c 0,8.97657 2.3125,14 6.54687,14 4.23438,0 6.55079,-5.02343 6.55079,-14 0,-9.03515 -2.31641,-14.05859 -6.55079,-14.05859 -4.23437,0 -6.54687,5.02344 -6.54687,14.05859 z m 0,0"
       id="path100" />
    <path
       style="fill:#005999;fill-opacity:1;fill-rule:nonzero;stroke:#ffffff;stroke-width:12;stroke-linecap:butt;stroke-linejoin:miter;stroke-miterlimit:10;stroke-opacity:1"
       d="m 1143.7692,1774.4921 h 1527.8917 c 32.0876,0 58.0965,26.0079 58.0965,58.0942 v 484.7385 c 0,32.0974 -26.0089,58.1053 -58.0965,58.1053 H 1143.7692 c -32.0875,0 -58.0964,-26.0079 -58.0964,-58.1053 v -484.7385 c 0,-32.0863 26.0089,-58.0942 58.0964,-58.0942 z m 0,0"
       transform="matrix(0.352794,0,0,0.352808,5.29191e-4,0)"
       id="path102" />
    <path
       style="fill:#ffffff;fill-opacity:1;fill-rule:nonzero;stroke:none"
       d="m 671.13281,665.14844 h 9.69141 v 50.63281 h -9.69141 v -20.39844 c -4.00781,1.21094 -8.16406,1.84766 -12.34765,1.88281 -10.70704,0 -16.71094,-5.13671 -16.71094,-14.11328 v -17.99218 h 9.6914 V 681 c 0,4.98828 3.32813,7.52344 9.69141,7.52344 3.32813,0 6.94531,-0.70703 9.69141,-2.02735 z m 0,0"
       id="path104" />
    <path
       style="fill:#ffffff;fill-opacity:1;fill-rule:nonzero;stroke:none"
       d="m 689.78906,697.69922 c 0,-11.79297 6.14844,-18.73438 16.5625,-18.73438 10.41406,0 16.27344,6.8711 16.27344,19.09375 v 2.46875 h -23.79688 c 0.14454,5.35157 3.61719,8.11719 9.17188,8.11719 3.32812,0 6.35156,-1.08594 8.75,-3.53125 l 5.29297,5.64453 c -3.83594,3.61719 -8.03125,5.71485 -14.32031,5.71485 -11.35157,-0.043 -17.9336,-6.625 -17.9336,-18.77344 z m 9.03906,-3.61719 h 15.33204 c -0.4336,-4.91797 -3.17188,-7.59375 -7.51954,-7.59375 -4.55468,0 -7.30468,2.67578 -7.8125,7.59375 z m 0,0"
       id="path106" />
    <path
       style="fill:#ffffff;fill-opacity:1;fill-rule:nonzero;stroke:none"
       d="m 749.60156,678.96484 c 9.47266,0 14.81641,6.72657 14.81641,18.73438 0,12.0039 -5.29297,18.73047 -14.81641,18.73047 -4.19531,0 -7.44922,-1.44532 -9.6914,-4.1211 v 16.48828 h -9.11329 v -49.18359 h 8.60547 v 4.12891 c 2.31641,-3.1836 5.71485,-4.77735 10.19922,-4.77735 z m -1.95312,8.11328 c -5.13672,0 -7.73828,3.52735 -7.73828,10.63282 0,7.10547 2.60156,10.63281 7.73828,10.63281 5.0625,0 7.66797,-3.52734 7.66797,-10.55859 0.0156,-7.17969 -2.60547,-10.71875 -7.66797,-10.71875 z m 0,0"
       id="path108" />
    <path
       style="fill:#ffffff;fill-opacity:1;fill-rule:nonzero;stroke:none"
       d="m 781.79297,715.78125 h -9.11328 v -36.16797 h 9.11328 v 13.96094 H 795.75 v -13.96094 h 9.17187 v 36.16797 H 795.75 v -14.46484 h -13.95703 z m 0,0"
       id="path110" />
    <path
       style="fill:#ffffff;fill-opacity:1;fill-rule:nonzero;stroke:none"
       d="m 819.67969,663.27734 c 2.97656,-0.0195 5.40625,2.375 5.42968,5.35547 0.0195,2.97656 -2.3789,5.40625 -5.35546,5.42578 -2.97657,0.0234 -5.40625,-2.375 -5.42579,-5.35547 -0.0391,-1.43359 0.51172,-2.82421 1.52344,-3.84765 1.00781,-1.02344 2.39063,-1.59375 3.82813,-1.57813 z m 4.55859,52.51172 H 815.125 v -36.17578 h 9.11328 z m 0,0"
       id="path112" />
    <path
       style="fill:#ffffff;fill-opacity:1;fill-rule:nonzero;stroke:none"
       d="m 834.50781,679.61328 h 24.66016 v 7.81641 h -15.54688 v 28.35156 h -9.11328 z m 0,0"
       id="path114" />
    <path
       style="fill:#ffffff;fill-opacity:1;fill-rule:nonzero;stroke:none"
       d="m 870.30469,663.27734 c 2.97656,-0.0195 5.41015,2.375 5.42968,5.35547 0.0195,2.97656 -2.375,5.40625 -5.35546,5.42578 -2.97657,0.0234 -5.40625,-2.375 -5.42579,-5.35547 -0.0352,-1.43359 0.51172,-2.82421 1.52344,-3.84765 1.00781,-1.02344 2.39063,-1.59375 3.82813,-1.57813 z m 4.55859,52.51172 h -9.10547 v -36.17578 h 9.11719 z m 0,0"
       id="path116" />
    <path
       style="fill:#ffffff;fill-opacity:1;fill-rule:nonzero;stroke:none"
       d="m 915.14844,689.52344 c 0,3.40234 -1.44532,6 -4.05078,7.74218 3.39843,1.66016 5.20703,4.48438 5.20703,8.31641 0,6.50781 -5.20703,10.19922 -14.39453,10.19922 h -16.77735 v -36.16797 h 16.19922 c 8.82031,0 13.81641,3.61719 13.81641,9.91016 z m -13.52735,4.77343 c 2.75,0 4.33985,-1.37109 4.33985,-3.76171 0,-2.3125 -1.58985,-3.6875 -4.33985,-3.6875 h -7.375 v 7.44921 z m 0.79688,14.25 c 2.96484,0 4.69922,-1.44531 4.69922,-3.98046 0,-2.46875 -1.73438,-3.83204 -4.69922,-3.83204 h -8.17188 v 7.8125 z m 0,0"
       id="path118" />
    <path
       style="fill:#ffffff;fill-opacity:1;fill-rule:nonzero;stroke:none"
       d="m 650.92969,775.27734 c 0,9.47657 3.17578,14.39453 9.41797,14.39453 4.19531,0 7.19531,-2.27734 8.69531,-6.59765 l 7.79687,1.26172 c -2.03906,8.03515 -7.91797,12.47265 -16.43359,12.47265 -11.21484,0 -17.57422,-7.79687 -17.57422,-21.47265 0,-13.79297 6.35156,-21.58985 17.57422,-21.58985 8.46875,0 14.33594,4.4375 16.43359,12.41407 l -7.79687,1.26171 c -1.5,-4.32031 -4.37891,-6.53906 -8.63672,-6.53906 -6.29688,0 -9.47656,4.91797 -9.47656,14.39453 z m 0,0"
       id="path120" />
    <path
       style="fill:#ffffff;fill-opacity:1;fill-rule:nonzero;stroke:none"
       d="m 690.57422,796.28906 h -7.5625 v -41.98437 h 7.55469 v 15.11328 c 2.16015,-2.39844 5.03906,-3.66016 8.63671,-3.66016 6.53907,0 10.25391,4.14063 10.25391,11.39844 v 19.13281 h -7.60937 V 777.875 c 0,-3.48047 -1.97657,-5.39844 -5.45704,-5.39844 -3.65625,0 -5.8164,2.09766 -5.8164,5.81641 z m 0,0"
       id="path122" />
    <path
       style="fill:#ffffff;fill-opacity:1;fill-rule:nonzero;stroke:none"
       d="m 715.88281,781.27344 c 0,-9.77344 5.09766,-15.52344 13.73438,-15.52344 8.63672,0 13.49609,5.69922 13.49609,15.83594 v 2.03906 h -19.73437 c 0.12109,4.4375 3,6.70312 7.61718,6.70312 2.76172,0 5.29297,-0.89843 7.25782,-2.9375 l 4.3789,4.67579 c -3.17578,3 -6.65625,4.73828 -11.875,4.73828 -9.41797,0.004 -14.875,-5.45703 -14.875,-15.53125 z m 7.4961,-2.9961 h 12.70312 c -0.35547,-4.07812 -2.64062,-6.29687 -6.23828,-6.29687 -3.76563,0 -6.04297,2.21875 -6.46484,6.3125 z m 0,0"
       id="path124" />
    <path
       style="fill:#ffffff;fill-opacity:1;fill-rule:nonzero;stroke:none"
       d="m 749.89062,766.29687 h 7.13672 v 4.19922 c 2.15625,-3.11718 5.03516,-4.73828 8.9336,-4.73828 1.4375,-0.008 2.86328,0.25781 4.19922,0.78125 l -3,6.89844 c -0.92969,-0.53516 -1.98438,-0.80469 -3.0586,-0.78125 -4.25781,0 -6.65625,3.17578 -6.65625,8.75781 v 14.875 h -7.55469 z m 0,0"
       id="path126" />
    <path
       style="fill:#ffffff;fill-opacity:1;fill-rule:nonzero;stroke:none"
       d="m 782.875,796.28906 h -7.55469 v -29.99219 h 7.13672 v 3.1211 c 2.21875,-2.46875 5.09766,-3.66016 8.69531,-3.66016 6.77735,0 10.61328,4.14063 10.61328,11.39844 v 19.13281 h -7.625 V 777.875 c 0,-3.48047 -1.98046,-5.39844 -5.45703,-5.39844 -3.66015,0 -5.82031,2.09766 -5.82031,5.81641 z m 0,0"
       id="path128" />
    <path
       style="fill:#ffffff;fill-opacity:1;fill-rule:nonzero;stroke:none"
       d="m 813.70312,752.72656 c 2.46875,-0.0195 4.48438,1.96875 4.5,4.4375 0.0195,2.46875 -1.96875,4.48438 -4.4375,4.5 -2.47265,0.0195 -4.48437,-1.96875 -4.5,-4.4414 -0.0312,-1.19141 0.42188,-2.34375 1.26172,-3.19141 0.83594,-0.85156 1.98438,-1.32031 3.17578,-1.30469 z m 3.77735,43.5625 h -7.55469 v -29.99219 h 7.55469 z m 0,0"
       id="path130" />
    <path
       style="fill:#ffffff;fill-opacity:1;fill-rule:nonzero;stroke:none"
       d="m 833.55078,796.28906 h -7.55859 v -41.98437 h 7.55859 v 15.11328 c 2.16016,-2.39844 5.03906,-3.66016 8.63672,-3.66016 6.53516,0 10.25391,4.14063 10.25391,11.39844 v 19.13281 h -7.61719 V 777.875 c 0,-3.48047 -1.97656,-5.39844 -5.45703,-5.39844 -3.65625,0 -5.81641,2.09766 -5.81641,5.81641 z m 0,0"
       id="path132" />
    <path
       style="fill:#ffffff;fill-opacity:1;fill-rule:nonzero;stroke:none"
       d="m 864.37891,752.72656 c 2.46875,-0.0195 4.48437,1.96875 4.5,4.4375 0.0156,2.46875 -1.97266,4.48438 -4.44141,4.5 -2.46875,0.0195 -4.48047,-1.96875 -4.49609,-4.4414 -0.0352,-1.19141 0.42187,-2.34375 1.25781,-3.19141 0.83984,-0.85156 1.98828,-1.32031 3.17969,-1.30469 z m 3.77734,43.5625 h -7.55859 v -29.99219 h 7.55859 z m 0,0"
       id="path134" />
    <path
       style="fill:#ffffff;fill-opacity:1;fill-rule:nonzero;stroke:none"
       d="m 891.90625,796.28906 h -7.80469 l -11.03515,-29.99219 h 8.11328 l 6.89843,20.51563 6.83594,-20.51563 h 8.11719 z m 0,0"
       id="path136" />
    <path
       style="fill:#005999;fill-opacity:1;fill-rule:nonzero;stroke:#ffffff;stroke-width:12;stroke-linecap:butt;stroke-linejoin:miter;stroke-miterlimit:10;stroke-opacity:1"
       d="m 1217.2009,1939.8176 h 458.6709 c 18.1475,0 32.8737,14.7146 32.8737,32.8725 v 186.5392 c 0,18.1579 -14.7262,32.8724 -32.8737,32.8724 h -458.6709 c -18.1586,0 -32.8737,-14.7145 -32.8737,-32.8724 v -186.5392 c 0,-18.1579 14.7151,-32.8725 32.8737,-32.8725 z m 0,0"
       transform="matrix(0.352794,0,0,0.352808,5.29191e-4,0)"
       id="path138" />
    <path
       style="fill:#ffffff;fill-opacity:1;fill-rule:nonzero;stroke:none"
       d="m 459.40625,748.44141 h -7.56641 v -39.51172 h 15.30078 c 8.29688,0 13.66016,4.96484 13.66016,12.64453 0,7.67578 -5.42187,12.64453 -13.66016,12.64453 h -7.73437 z m 6.66016,-32.8086 h -6.66016 v 11.85547 h 6.70312 c 4.62891,0 7,-1.97266 7,-5.92578 0.0117,-3.88281 -2.41406,-5.91797 -7.04296,-5.91797 z m 0,0"
       id="path140" />
    <path
       style="fill:#ffffff;fill-opacity:1;fill-rule:nonzero;stroke:none"
       d="M 501.45703,735.85547 H 485.9375 v -6.54688 h 15.51953 z m 0,0"
       id="path142" />
    <path
       style="fill:#ffffff;fill-opacity:1;fill-rule:nonzero;stroke:none"
       d="m 521.49609,708.25 c 9.25782,0 13.71875,6.70312 13.71875,20.37891 0,13.60546 -4.46093,20.32031 -13.71875,20.32031 -9.25781,0 -13.71484,-6.70313 -13.71484,-20.32031 0,-13.66016 4.47656,-20.37891 13.71484,-20.37891 z m -6.54687,20.37891 c 0,8.97656 2.3164,14 6.54687,14 4.23438,0 6.55078,-5.02344 6.55078,-14 0,-9.03125 -2.3164,-14.05469 -6.55078,-14.05469 -4.23047,0 -6.54687,5.02344 -6.54687,14.05469 z m 0,0"
       id="path144" />
    <path
       style="fill:#ffffff;fill-opacity:1;fill-rule:nonzero;stroke:none"
       d="m 548.14062,719.48437 -6.88671,-0.90234 c 0.96093,-5.92969 6.49218,-10.16016 13.60546,-10.16016 7.44922,0 12.8125,4.51563 12.8125,10.9375 0,3.78125 -1.86328,6.82813 -5.13671,8.41016 3.72656,1.52344 5.92578,4.85547 5.92578,9.19922 0,7.05859 -5.64453,11.96875 -13.66016,11.96875 -7.5625,0 -13.37891,-4.40234 -14.28125,-10.61328 l 6.94531,-1.12891 c 0.84375,3.33203 3.66797,5.41797 7.44922,5.41797 3.83985,0 6.37891,-2.14453 6.37891,-5.69922 0,-3.5 -2.46875,-5.87109 -6.4336,-5.87109 h -2.3164 v -5.8711 h 2.3164 c 3.44141,0 5.64454,-2.08984 5.64454,-5.29296 0,-3.17579 -2.25782,-5.13672 -5.75782,-5.13672 -3.38672,0 -5.98437,1.80859 -6.60547,4.74218 z m 0,0"
       id="path146" />
  </g>
</svg>
