<svg id="Слой_1" data-name="Слой 1" xmlns="http://www.w3.org/2000/svg" width="1350" height="1170" viewBox="0 0 1350 1170">
  <defs>
    <style>
      .cls-1 {
        fill: #fff;
      }

      .cls-2 {
        fill: #005999;
      }

      .cls-3 {
        fill: #e30013;
      }

      .cls-3, .cls-4 {
        stroke: #fff;
        stroke-miterlimit: 3.52794;
        stroke-width: 10px;
      }

      .cls-4 {
        fill: #04ae67;
      }
    </style>
  </defs>
  <g>
    <rect class="cls-1" x="0.5" y="0.5" width="1349" height="1169" rx="44.5"/>
    <path d="M1305,1a44.04982,44.04982,0,0,1,44,44V1125a44.04982,44.04982,0,0,1-44,44H45a44.04985,44.04985,0,0,1-44-44V45A44.04985,44.04985,0,0,1,45,1H1305m0-1H45A45,45,0,0,0,0,45V1125a45,45,0,0,0,45,45H1305a45,45,0,0,0,45-45V45a45,45,0,0,0-45-45Z"/>
  </g>
  <rect class="cls-2" x="20" y="20" width="1310" height="1130" rx="25"/>
  <polygon class="cls-1" points="370 755.5 370 825.5 305 760.5 305 954 254 954 254 760.5 189 825.5 189 755.5 279.5 665 370 755.5"/>
  <g>
    <path id="red_number" data-name="red number" class="cls-3" d="M113.31883,195H432.6812c10.395,0,18.8188,8.02251,18.8188,17.92237V347.08365C451.5,356.97747,443.07623,365,432.6812,365H113.31883C102.92377,365,94.5,356.97749,94.5,347.08365V212.92237C94.5,203.02251,102.92377,195,113.31883,195Z"/>
    <g>
      <path class="cls-1" d="M169.626,303.6875l-22.5-36.875v58.125H130.501v-87.5h17l25.125,42.5,25.125-42.5h17v87.5H198.126v-58.125l-22.5,36.875Z"/>
      <path class="cls-1" d="M266.876,297.0625H232.501v-14.5h34.375Z"/>
      <path class="cls-1" d="M311.25,235.9375c20.5,0,30.375,14.875,30.375,45.125,0,30.125-9.875,45-30.375,45s-30.375-14.875-30.375-45C280.875,250.8125,290.75,235.9375,311.25,235.9375Zm-14.5,45.125c0,19.875,5.125,31,14.5,31s14.5-11.125,14.5-31c0-20-5.125-31.125-14.5-31.125S296.75,261.0625,296.75,281.0625Z"/>
      <path class="cls-1" d="M357.499,284.8125l2.25-47.375h50.25v13.875h-37l-.875,19.875c3.5-3.25,9.5-5.25,16.125-5.25,16.75,0,27.25,11.5,27.25,29.125,0,19.125-12.125,31-31.25,31-15.75,0-26.875-8.375-29.5-22.375l15.125-2.75c1.625,6.875,7.5,11.125,14.75,11.125,9.25,0,15-6.375,15-16.5,0-10-5.625-16.25-14.25-16.25a15.3189,15.3189,0,0,0-13.125,6.875Z"/>
    </g>
  </g>
  <g>
    <path id="red_number-2" data-name="red number" class="cls-4" d="M123.15913,380H422.8409A17.79015,17.79015,0,0,1,440.5,397.92237V532.08365A17.78881,17.78881,0,0,1,422.8409,550H123.15913A17.7888,17.7888,0,0,1,105.5,532.08365V397.92237A17.79016,17.79016,0,0,1,123.15913,380Z"/>
    <g>
      <path class="cls-1" d="M215.251,508.75H155.376v-87.5h59.25v14.875h-42.5V457h35.5v14.875h-35.5v22h43.125Z"/>
      <path class="cls-1" d="M285.875,420.125c19.625,0,30.75,14.375,30.75,39.125,0,31.5-18.875,50.625-50,50.625L263.375,496c22.625,0,36.875-11,37-27.375-2.25,5-9,8.5-17.75,8.5-16.125,0-27.25-11.25-27.25-27.625C255.375,432.125,268,420.125,285.875,420.125Zm-.75,14c-8.75,0-13.875,6.125-13.875,14.5,0,8.25,5.125,14.625,13.875,14.625s14-6.375,14-14.625C299.125,440.125,293.625,434.125,285.125,434.125Z"/>
      <path class="cls-1" d="M332.624,468.625l2.25-47.375h50.25v13.875h-37L347.249,455c3.5-3.25,9.5-5.25,16.125-5.25,16.75,0,27.25,11.5,27.25,29.125,0,19.125-12.125,31-31.25,31-15.75,0-26.875-8.375-29.5-22.375l15.125-2.75c1.625,6.875,7.5,11.125,14.75,11.125,9.25,0,15-6.375,15-16.5,0-10-5.625-16.25-14.25-16.25A15.3189,15.3189,0,0,0,347.374,470Z"/>
    </g>
  </g>
  <g>
    <path class="cls-1" d="M672.709,193.84375H650.3584V141.57324H639.44629l-31.67871,52.27051h-26.752l39.95118-63.53418L584.71191,70.64746H610.583l29.74316,49.98242H650.3584V70.64746H672.709v49.98242h9.85645l29.91895-49.98242h25.87109l-36.25488,59.66211,39.95117,63.53418h-26.752l-31.85449-52.27051H672.709Z"/>
    <path class="cls-1" d="M752.44141,116.40625c10.73632-8.272,22-12.144,36.25586-12.144,23.583,0,35.72656,10.38379,35.72656,30.79931v35.19873c0,5.27979,2.81543,9.32764,7.74414,10.91163L825.47949,195.252c-9.5039,0-16.36719-2.99218-20.06347-8.97656-5.10352,5.80859-14.43164,9.15234-25.69532,9.15234-19.18261,0-30.2705-9.67968-30.2705-25.51953,0-16.8955,12.49511-27.45508,33.43847-28.86279l19.35938-1.23193v-3.69629c0-8.09571-5.63184-12.67139-15.83887-12.67139a35.58219,35.58219,0,0,0-22.52734,7.91992Zm32.207,39.95068c-8.97559.52784-13.90332,4.752-13.90332,11.43946,0,6.86377,4.92773,10.73584,14.60742,10.73584,11.08789,0,16.89551-5.45606,16.89551-16.71973v-6.51172Z"/>
    <path class="cls-1" d="M919.99023,105.84619v68.99024h27.27832V105.84619h22.17579v87.99756h-121.084V105.84619h22.17481v68.99024h27.27929V105.84619Z"/>
    <path class="cls-1" d="M1016.6123,158.64453v35.19922H994.4375V105.84619h22.1748v32.55908h8.27149l22-32.55908h26.04687L1043.01172,148.437l32.55859,45.40674h-26.22265l-24.46387-35.19922Z"/>
    <path class="cls-1" d="M1101.44434,66.07129A13.11211,13.11211,0,1,1,1088.4209,79.271,12.85981,12.85981,0,0,1,1101.44434,66.07129Zm11.08789,127.77246h-22.17481V105.84619h22.17481Z"/>
    <path class="cls-1" d="M1210.56055,129.95752c0,8.272-3.51953,14.60791-9.85547,18.83154,8.27148,4.04785,12.67187,10.91162,12.67187,20.23926,0,15.83984-12.67187,24.81543-35.02343,24.81543h-40.83008V105.84619h39.42285C1198.417,105.84619,1210.56055,114.646,1210.56055,129.95752Zm-32.91114,11.61572c6.68848,0,10.56055-3.34375,10.56055-9.15185,0-5.63184-3.87207-8.97559-10.56055-8.97559h-17.95117v18.12744Zm1.93653,34.6709c7.21582,0,11.43945-3.51953,11.43945-9.67969,0-5.98388-4.22363-9.32763-11.43945-9.32763h-19.8877v19.00732Z"/>
  </g>
  <g>
    <path class="cls-1" d="M670.168,436.45117h24.99121L653.7998,531.13574c-9.50292,21.82324-20.415,30.09473-36.60644,30.09473a38.78557,38.78557,0,0,1-21.64746-6.51172l9.32812-17.07129a21.10739,21.10739,0,0,0,11.08692,3.87207c6.16015,0,11.792-5.10351,16.36816-15.31152l-45.40722-89.75684h25.51953l31.15136,65.46875Z"/>
    <path class="cls-1" d="M740.56934,545.03906l-22.17481-37.48633v52.09375H697.45117V471.64941h22.52735l25.167,42.06348,24.99121-42.06348h22.70312v87.99707H771.89648V507.55273l-22.1748,37.48633Z"/>
    <path class="cls-1" d="M815.19434,482.209c10.73632-8.27148,22-12.14355,36.25586-12.14355,23.583,0,35.72656,10.38379,35.72656,30.7998v35.19825c0,5.28027,2.81543,9.32812,7.74414,10.91113l-6.68848,14.08008c-9.5039,0-16.36719-2.99219-20.06347-8.97559-5.10352,5.80762-14.43165,9.15137-25.69532,9.15137-19.18261,0-30.27051-9.67969-30.27051-25.51953,0-16.89453,12.49512-27.45508,33.43848-28.86231l19.35938-1.23144v-3.69727c0-8.0957-5.63184-12.6709-15.83887-12.6709a35.58214,35.58214,0,0,0-22.52734,7.91993Zm32.207,39.95118c-8.97559.52734-13.90332,4.75195-13.90332,11.43945,0,6.86328,4.92773,10.73633,14.60742,10.73633,11.08789,0,16.89551-5.457,16.89551-16.72071v-6.51171Z"/>
    <path class="cls-1" d="M933.28809,559.64648H911.11328V471.64941h22.17481v33.96778h33.96679V471.64941h22.35157v87.99707H967.25488V524.44727H933.28809Z"/>
    <path class="cls-1" d="M1086.93359,531.13574c0,18.12793-12.49609,28.51074-34.84765,28.51074h-37.66211V471.64941h22.1748v30.79981h15.48731C1074.4375,502.44922,1086.93359,512.832,1086.93359,531.13574Zm-34.84765,10.208c8.27246,0,12.49609-3.51953,12.49609-10.208s-4.22363-10.38379-12.49609-10.38379h-15.48731v20.5918Z"/>
  </g>
  <g>
    <path class="cls-1" d="M700.14941,854.04883c0,40.30273-19.18359,63.18164-52.62207,63.18164-33.43945,0-52.623-22.87891-52.623-63.18164s19.18359-63.18164,52.623-63.18164C680.96582,790.86719,700.14941,813.74609,700.14941,854.04883Zm-81.48535,0c0,27.80664,9.67969,42.23828,28.86328,42.23828s28.86328-14.43164,28.86328-42.58984c0-27.80762-9.67968-41.88672-28.86328-41.88672S618.66406,826.06543,618.66406,854.04883Z"/>
    <path class="cls-1" d="M709.127,940.28711V896.63965h9.50391c7.91992-7.04,9.67969-23.93555,11.26367-68.99024h64.76563v68.99024h13.20019v43.64746H790.96484L786.917,915.64648H730.07031l-3.87207,24.64063Zm63.3584-43.64746V846.48047H749.60547c-.87988,23.75976-2.81543,39.42383-7.03906,50.15918Z"/>
    <path class="cls-1" d="M818.59668,871.64844c0-28.6875,14.96-45.583,40.30273-45.583,25.34375,0,39.59864,16.71973,39.59864,46.46289v5.9834H840.59668c.35156,13.02344,8.79883,19.71191,22.35059,19.71191,8.0957,0,15.48828-2.63965,21.29589-8.624l12.84766,13.72754c-9.32812,8.7998-19.53613,13.90332-34.84766,13.90332C834.6123,917.23047,818.59668,901.21484,818.59668,871.64844Zm22-8.79981h37.31055c-1.05567-11.96777-7.74414-18.47949-18.30371-18.47949C848.51562,844.36914,841.82812,850.88086,840.59668,862.84863Z"/>
    <path class="cls-1" d="M935.63574,871.64844c0,16.71875,7.21582,26.04687,19.71094,26.04687,7.39258,0,12.67187-3.34375,16.89551-10.38281l16.36816,11.791c-7.56836,11.96777-19.00781,18.12695-34.49512,18.12695-26.04687,0-40.83105-16.543-40.83105-45.582s14.96-45.583,40.83105-45.583c15.66309,0,26.92676,5.9834,34.49512,18.12793l-16.36816,11.9668c-4.04785-7.03907-9.50293-10.38282-17.07129-10.38282C942.67578,845.77734,935.63574,854.92871,935.63574,871.64844Z"/>
    <path class="cls-1" d="M1003.92383,838.209c10.73633-8.27148,22-12.14355,36.25586-12.14355,23.583,0,35.72656,10.38379,35.72656,30.7998v35.19825c0,5.28027,2.81543,9.32812,7.74414,10.91113l-6.68848,14.08008c-9.5039,0-16.36718-2.99219-20.06347-8.97559-5.10352,5.80762-14.43164,9.15137-25.69532,9.15137-19.18261,0-30.2705-9.67969-30.2705-25.51953,0-16.89453,12.49511-27.45508,33.43847-28.86231l19.35938-1.23144v-3.69727c0-8.0957-5.63184-12.6709-15.83887-12.6709a35.58214,35.58214,0,0,0-22.52734,7.91993Zm32.207,39.95118c-8.97559.52734-13.90332,4.75195-13.90332,11.43945,0,6.86328,4.92773,10.73633,14.60742,10.73633,11.08789,0,16.89551-5.457,16.89551-16.72071v-6.51171Z"/>
  </g>
  <g>
    <path class="cls-1" d="M653.62012,333.64648H586.166v-14.124l44.35351-62.56934H587.75v-15.709h64.68262v14.125l-44.22168,62.56934h45.40918Z"/>
    <path class="cls-1" d="M684.50586,333.64648H667.87305V241.24414h16.63281v33.26563c4.75195-5.28125,11.08789-8.05274,19.00879-8.05274,14.38769,0,22.57226,9.1084,22.57226,25.08008v42.10937H709.32227V293.12109c0-7.65527-4.35645-11.8789-12.01172-11.8789-8.05274,0-12.80469,4.61914-12.80469,12.80371Z"/>
    <path class="cls-1" d="M741.793,275.56543c8.05273-6.2041,16.501-9.1084,27.19336-9.1084,17.68847,0,26.79687,7.78809,26.79687,23.10059V315.959a8.13358,8.13358,0,0,0,5.80762,8.1836l-5.01562,10.56054c-7.12891,0-12.27637-2.24414-15.04883-6.73242-3.82813,4.35645-10.82422,6.86426-19.27246,6.86426-14.38868,0-22.70508-7.26074-22.70508-19.14062,0-12.67286,9.37305-20.59278,25.08105-21.64844l14.52051-.92481v-2.77148c0-6.07227-4.22461-9.50391-11.88086-9.50391a26.69294,26.69294,0,0,0-16.89648,5.93946Zm24.15723,29.96484c-6.73243.39551-10.42872,3.56348-10.42872,8.58008,0,5.14844,3.69629,8.05176,10.95606,8.05176,8.31641,0,12.67285-4.0918,12.67285-12.54v-4.88379Z"/>
    <path class="cls-1" d="M835.90918,334.835c-12.4082,0-21.91211-3.82812-28.249-10.69238l9.37207-10.16406c4.09277,4.48828,11.2207,7.12793,19.40527,7.12793,7.78809,0,12.4082-2.63965,12.4082-6.73145,0-3.82812-3.96-5.54492-13.20019-6.60059-18.2168-2.1123-25.873-8.3164-25.873-20.59277,0-13.46484,9.24024-20.72461,26.26856-20.72461,10.957,0,19.80078,2.9043,25.873,8.71289l-10.03222,9.76758c-3.69629-3.03613-9.63672-4.752-16.1045-4.752-6.73242,0-10.82422,2.11133-10.82422,5.80859,0,3.56348,3.43165,5.543,12.80372,6.46777,18.61328,2.24414,26.26953,7.91993,26.26953,20.32911C864.02637,326.91406,853.99414,334.835,835.90918,334.835Z"/>
    <path class="cls-1" d="M893.19727,333.64648H876.56445V241.24414h16.63282v33.26563c4.75195-5.28125,11.08789-8.05274,19.00878-8.05274,14.3877,0,22.57227,9.1084,22.57227,25.08008v42.10937H918.01367V293.12109c0-7.65527-4.35644-11.8789-12.01172-11.8789-8.05273,0-12.80468,4.61914-12.80468,12.80371Z"/>
    <path class="cls-1" d="M969.36035,333.64648H952.72754V241.24414h16.63281v52.66992l22.96875-26.26953h20.46l-24.15625,27.06152,26.00489,38.94043H995.2334L977.0166,306.4541l-7.65625,8.71192Z"/>
    <path class="cls-1" d="M1034.03906,237.8125a9.8342,9.8342,0,1,1-9.76855,9.90039A9.64535,9.64535,0,0,1,1034.03906,237.8125Zm8.31641,95.834h-16.63281v-66.002h16.63281Z"/>
    <path class="cls-1" d="M1094.627,333.64648H1077.4668l-24.28907-66.002h17.82032l15.18066,45.14649,15.04785-45.14649h17.82129Z"/>
  </g>
  <g>
    <path class="cls-1" d="M653.38525,665.44824V609.082h17.82032V669.4082c0,20.06446-14.51953,33.26563-36.69629,33.26563s-36.56543-13.20117-36.56543-33.26563V609.082h17.68847v56.36621c0,14.917,5.8086,21.5166,19.00879,21.5166C647.57764,686.96484,653.38525,680.36523,653.38525,665.44824Z"/>
    <path class="cls-1" d="M708.03174,701.48535H691.39893v-66.002h15.709v6.73242c3.96-4.88379,10.55957-7.9209,17.68848-7.9209,7.3916,0,14.124,3.30078,17.95215,9.50488,5.0166-6.07226,12.14453-9.50488,20.98828-9.50488,14.78515,0,23.36523,9.10938,23.36523,25.08106v42.10937H770.46924V660.96c0-7.65527-4.0918-11.87988-11.21973-11.87988-7.52441,0-11.61719,4.62012-11.61719,12.80469v39.60058H730.86865V660.96c0-7.65527-4.09277-11.87988-11.2207-11.87988-7.39258,0-11.61621,4.62012-11.61621,12.80469Z"/>
    <path class="cls-1" d="M802.93945,643.4043c8.05274-6.20508,16.5-9.10938,27.19336-9.10938,17.6875,0,26.79688,7.78906,26.79688,23.10156v26.4004a8.13307,8.13307,0,0,0,5.80664,8.18359L857.7207,702.541c-7.1289,0-12.27539-2.24414-15.04882-6.73243-3.82813,4.35743-10.82422,6.86524-19.27149,6.86524-14.38867,0-22.70508-7.26074-22.70508-19.14063,0-12.67285,9.37305-20.59277,25.08008-21.64843l14.52149-.92481V658.1875c0-6.07227-4.22461-9.50391-11.88086-9.50391a26.68464,26.68464,0,0,0-16.89649,5.94043Zm24.15625,29.96484c-6.73242.39551-10.42773,3.56348-10.42773,8.58008,0,5.14844,3.69531,8.05176,10.95508,8.05176,8.3164,0,12.67383-4.09278,12.67383-12.54v-4.88477Z"/>
    <path class="cls-1" d="M891.51172,701.48535H874.87891v-66.002h15.709v6.86426c4.88281-5.41211,11.21875-8.05274,19.14063-8.05274,14.916,0,23.36328,9.10938,23.36328,25.08106v42.10937H916.32812V660.96c0-7.65527-4.35742-11.87988-12.01171-11.87988-8.05274,0-12.80469,4.62012-12.80469,12.80469Z"/>
  </g>
  <g>
    <path class="cls-1" d="M671.59375,1010.2832c0,30.22852-14.25684,47.38965-39.33691,47.38965-25.08106,0-39.46973-17.16113-39.46973-47.38965s14.38867-47.38867,39.46973-47.38867C657.33691,962.89453,671.59375,980.05469,671.59375,1010.2832Zm-60.98633,0c0,20.85742,7.26074,31.68164,21.64942,31.68164,14.38769,0,21.64843-10.82422,21.64843-31.94531,0-20.85644-7.26074-31.417-21.64843-31.417C617.86816,978.60254,610.60742,989.29492,610.60742,1010.2832Z"/>
    <path class="cls-1" d="M710.53027,1057.67285c-17.16015,0-26.92871-12.27637-26.92871-34.18847,0-21.91309,9.76856-34.18946,27.06055-34.18946,7.52441,0,13.46484,2.50781,17.55664,7.52442V964.082H744.9834v92.40235H729.14355v-7.52344C725.05078,1054.63672,718.84668,1057.67285,710.53027,1057.67285Zm3.69629-14.78418c9.24024,0,13.99219-6.46875,13.99219-19.40429,0-12.9375-4.75195-19.4043-13.99219-19.4043s-13.86035,6.4668-13.86035,19.27148C700.36621,1036.41992,704.98633,1042.88867,714.22656,1042.88867Z"/>
    <path class="cls-1" d="M759.76465,1023.48438c0-21.51758,11.2207-34.18946,30.22949-34.18946,19.00781,0,29.7002,12.541,29.7002,34.84961v4.48731H776.26562c.26368,9.76855,6.59961,14.78418,16.76465,14.78418a21.50258,21.50258,0,0,0,15.97168-6.46778l9.63672,10.2959c-6.99609,6.60059-14.65234,10.42871-26.13672,10.42871C771.77734,1057.67285,759.76465,1045.66016,759.76465,1023.48438Zm16.501-6.60059H804.25c-.792-8.97559-5.80762-13.86035-13.72852-13.86035C782.20508,1003.02344,777.18945,1007.9082,776.26562,1016.88379Z"/>
    <path class="cls-1" d="M856.52051,1057.67285c-12.40821,0-21.91211-3.82812-28.249-10.69238l9.37305-10.16406c4.0918,4.48828,11.21973,7.12793,19.4043,7.12793,7.78808,0,12.4082-2.63965,12.4082-6.73145,0-3.82812-3.96-5.54492-13.20019-6.60059-18.2168-2.1123-25.87305-8.3164-25.87305-20.59277,0-13.46484,9.24023-20.72461,26.26855-20.72461,10.957,0,19.80078,2.9043,25.87305,8.71289l-10.03223,9.76758c-3.69628-3.03613-9.63671-4.75195-16.10449-4.75195-6.73242,0-10.82422,2.11133-10.82422,5.80859,0,3.56348,3.43164,5.543,12.80371,6.46777,18.61329,2.24415,26.26954,7.91993,26.26954,20.32911C884.6377,1049.752,874.60547,1057.67285,856.52051,1057.67285Z"/>
    <path class="cls-1" d="M894.93164,998.40332c8.05274-6.2041,16.501-9.1084,27.19336-9.1084,17.68848,0,26.79688,7.78809,26.79688,23.10059v26.40137a8.13356,8.13356,0,0,0,5.80761,8.18359l-5.01562,10.56055c-7.12891,0-12.27637-2.24414-15.04883-6.73243-3.82813,4.35645-10.82422,6.86426-19.27246,6.86426-14.38867,0-22.70508-7.26074-22.70508-19.14062,0-12.67285,9.37305-20.59278,25.08105-21.64844l14.52051-.92481v-2.77148c0-6.07227-4.22461-9.50391-11.88086-9.50391a26.69294,26.69294,0,0,0-16.89648,5.93946Zm24.15723,29.96484c-6.73242.39551-10.42871,3.56348-10.42871,8.58008,0,5.14844,3.69629,8.05176,10.95605,8.05176,8.31641,0,12.67285-4.0918,12.67285-12.54v-4.88379Z"/>
  </g>
</svg>
