<?xml version="1.0" encoding="UTF-8" standalone="no"?>
<svg
   xmlns:dc="http://purl.org/dc/elements/1.1/"
   xmlns:cc="http://creativecommons.org/ns#"
   xmlns:rdf="http://www.w3.org/1999/02/22-rdf-syntax-ns#"
   xmlns:svg="http://www.w3.org/2000/svg"
   xmlns="http://www.w3.org/2000/svg"
   xmlns:sodipodi="http://sodipodi.sourceforge.net/DTD/sodipodi-0.dtd"
   xmlns:inkscape="http://www.inkscape.org/namespaces/inkscape"
   width="2204"
   height="724"
   version="1.1"
   id="svg18"
   sodipodi:docname="UA_road_sign_5.59.4.svg"
   inkscape:version="0.92.4 (5da689c313, 2019-01-14)">
  <metadata
     id="metadata22">
    <rdf:RDF>
      <cc:Work
         rdf:about="">
        <dc:format>image/svg+xml</dc:format>
        <dc:type
           rdf:resource="http://purl.org/dc/dcmitype/StillImage" />
        <dc:title>5.59 Покажчик напрямку</dc:title>
      </cc:Work>
    </rdf:RDF>
  </metadata>
  <sodipodi:namedview
     pagecolor="#ffffff"
     bordercolor="#666666"
     borderopacity="1"
     objecttolerance="10"
     gridtolerance="10"
     guidetolerance="10"
     inkscape:pageopacity="0"
     inkscape:pageshadow="2"
     inkscape:window-width="1920"
     inkscape:window-height="1009"
     id="namedview20"
     showgrid="false"
     inkscape:zoom="0.40296103"
     inkscape:cx="628.75898"
     inkscape:cy="-75.399706"
     inkscape:window-x="-8"
     inkscape:window-y="-8"
     inkscape:window-maximized="1"
     inkscape:current-layer="g1044" />
  <title
     id="title2">5.59 Покажчик напрямку</title>
  <defs
     id="defs6">
    <style
       id="style4">.a{fill:#fff}</style>
  </defs>
  <rect
     class="a"
     x="1"
     y="1"
     width="2202"
     height="722"
     rx="46"
     id="rect8" />
  <path
     d="M2157 2a45 45 0 0 1 45 45v630a45 45 0 0 1-45 45H47a45 45 0 0 1-45-45V47A45 45 0 0 1 47 2h2110m0-2H47A47.053 47.053 0 0 0 0 47v630a47.053 47.053 0 0 0 47 47h2110a47.053 47.053 0 0 0 47-47V47a47.053 47.053 0 0 0-47-47z"
     id="path10" />
  <rect
     x="12"
     y="12"
     width="2180"
     height="700"
     rx="35"
     style="fill:#905649"
     id="rect12" />
  <path
     class="a"
     d="m2042 366-80 80h-60l55-55h-155v-50h155l-55-55h60l80 80zM96 346v104h48V346a24 24 0 0 0-24-24 24 24 0 0 0-24 24zm28 50h-8v-46a4 4 0 0 1 4-4 4 4 0 0 1 4 4zM222 346v104h48V346a24 24 0 0 0-24-24 24 24 0 0 0-24 24zm28 50h-8v-46a4 4 0 0 1 4-4 4 4 0 0 1 4 4zM149 330v120h68V330a34 34 0 0 0-34-34 34 34 0 0 0-34 34zm40 66h-12v-66a6 6 0 0 1 6-6 6 6 0 0 1 6 6z"
     id="path14" />
  <g
     id="g1044">
    <path
       id="path16-1"
       style="fill:#ffffff"
       d="m 714.5095,483.11022 h -14.112 v -78.4 h 14.112 v 28.225 c 4.031,-4.48 9.407,-6.832 16.128,-6.832 12.208,0 19.151,7.728 19.151,21.28 v 35.727 h -14.224 v -34.384 c 0,-6.496 -3.695,-10.08 -10.192,-10.08 -6.832,0 -10.863,3.92 -10.863,10.865 z M 238.5,312.5 c 0,1.5 -0.05,2.99 -0.14,4.46 L 222,328.42 V 328 c 0,-21.54 -17.46,-37 -39,-37 -21.49,0 -38.92,15.38 -39,36.85 l -16.39,-11.48 c -0.07,-1.28 -0.11,-2.57 -0.11,-3.87 0,-32.24 21.67,-57.9 49.5,-61.15 V 241 c -5.5e-4,-2.20937 1.79063,-4.00055 4,-4 v -16 h -16 v -4 h 16 v -16 h 4 v 16 h 16 v 4 h -16 v 16 c 2.20937,-5.5e-4 4.00055,1.79063 4,4 v 10.35 c 27.83,3.25 49.5,28.91 49.5,61.15 z M 347.218,102.075 h 67.2 v 17.731 h -47.233 v 21.308 h 20.413 c 21.754,0 36.058,12.814 36.058,32.631 0,19.817 -14.155,32.632 -36.058,32.632 h -40.38 z m 19.967,56.77 v 29.8 h 17.582 c 12.218,0 18.625,-5.066 18.625,-14.9 0,-9.834 -6.258,-14.9 -18.476,-14.9 z m 101.765,48.872 c -22.2,0 -34.717,-13.857 -34.717,-38.591 0,-24.734 12.517,-38.592 34.718,-38.592 22.201,0 34.717,13.858 34.717,38.592 0,24.734 -12.516,38.591 -34.717,38.591 z m 0,-16.688 c 10.43,0 15.795,-7.301 15.795,-21.903 0,-14.602 -5.364,-21.903 -15.794,-21.903 -10.43,0 -15.795,7.3 -15.795,21.903 0,14.603 5.365,21.903 15.795,21.903 z m 90.293,-60.495 c 19.52,0 30.546,13.858 30.546,38.592 0,24.734 -10.878,38.591 -30.546,38.591 -8.642,0 -15.347,-2.98 -19.966,-8.492 v 33.972 H 520.502 V 131.875 h 17.732 v 8.494 c 4.768,-6.55667 11.77133,-9.835 21.01,-9.835 z m -4.023,16.689 c -10.58,0 -15.943,7.3 -15.943,21.903 0,14.603 5.364,21.903 15.943,21.903 10.43,0 15.794,-7.301 15.794,-21.754 0,-14.751 -5.364,-22.052 -15.794,-22.052 z m 101.32,-15.348 h 17.73 v 74.501 h -18.774 v -44.253 l -30.992,44.253 h -17.732 v -74.5 h 18.775 v 44.253 z m 53.487,37.251 c 0,14.155 6.11,22.052 16.689,22.052 6.258,0 10.728,-2.83 14.304,-8.79 l 13.857,9.982 c -6.407,10.132 -16.092,15.347 -29.204,15.347 -22.052,0 -34.569,-14.006 -34.569,-38.591 0,-24.585 12.665,-38.592 34.569,-38.592 13.261,0 22.797,5.067 29.204,15.348 l -13.857,10.132 c -3.427,-5.96 -8.046,-8.791 -14.453,-8.791 -10.58,0 -16.54,7.748 -16.54,21.903 z m 89.551,38.591 c -22.201,0 -34.717,-13.857 -34.717,-38.591 0,-24.734 12.516,-38.592 34.717,-38.592 22.201,0 34.717,13.858 34.717,38.592 0,24.734 -12.516,38.591 -34.717,38.591 z m 0,-16.688 c 10.43,0 15.795,-7.301 15.795,-21.903 0,-14.602 -5.365,-21.903 -15.795,-21.903 -10.43,0 -15.794,7.3 -15.794,21.903 0,14.603 5.364,21.903 15.794,21.903 z m 51.552,-59.154 h 50.81 v 16.093 h -32.036 v 58.408 H 851.13 Z m 51.702,60.197 c 12.665,-3.427 15.347,-12.07 17.433,-60.197 h 54.088 v 74.501 H 955.579 V 147.82 h -18.626 c -1.788,42.614 -8.195,55.577 -29.95,60.494 z m 102.063,-93.871 c 9.8892,-0.0657 14.9196,11.85663 7.9747,18.89539 -6.9449,7.03876 -18.93366,2.16875 -19.0007,-7.72039 -0.16407,-6.17988 4.84447,-11.256107 11.026,-11.175 z m 9.387,108.175 h -18.774 v -74.5 h 18.774 z m 81.204,-87.762 -26.224,2.533 c -14.602,1.341 -21.158,8.494 -22.201,24.436 3.427,-7.599 12.069,-12.068 23.095,-12.068 19.966,0 31.44,13.111 31.44,36.505 0,24.138 -12.517,37.697 -34.42,37.697 -22.052,0 -35.314,-13.857 -35.314,-51.107 0,-34.27 11.473,-50.96 37.25,-53.343 l 26.374,-2.533 z m -28.31,72.415 c 10.281,0 15.645,-7.003 15.645,-20.711 0,-13.708 -5.364,-20.712 -15.645,-20.712 -10.281,0 -15.645,6.855 -15.645,20.563 0,13.708 5.364,20.86 15.645,20.86 z m 65.708,-21.903 c 0,14.155 6.11,22.052 16.689,22.052 6.258,0 10.728,-2.83 14.304,-8.79 l 13.857,9.982 c -6.407,10.132 -16.092,15.347 -29.204,15.347 -22.052,0 -34.569,-14.006 -34.569,-38.591 0,-24.585 12.665,-38.592 34.569,-38.592 13.261,0 22.797,5.067 29.204,15.348 l -13.857,10.132 c -3.427,-5.96 -8.046,-8.791 -14.453,-8.791 -10.58,0 -16.54,7.748 -16.54,21.903 z m 121.286,13.112 c 0,15.347 -10.578,24.138 -29.501,24.138 h -31.887 v -74.5 h 18.775 v 26.075 h 13.112 c 18.923,0 29.502,8.79 29.502,24.287 z m -29.501,8.642 c 7.003,0 10.579,-2.98 10.579,-8.642 0,-5.662 -3.576,-8.791 -10.58,-8.791 h -13.111 v 17.433 z m 64.814,-14.304 v 29.8 h -18.774 v -74.5 h 18.774 v 27.565 h 7.003 l 18.625,-27.566 h 22.053 l -25.331,36.06 27.565,38.441 h -22.2 l -20.712,-29.8 z m 59.005,-35.761 c 9.09,-7.003 18.625,-10.28 30.695,-10.28 19.966,0 30.247,8.79 30.247,26.075 v 29.8 c -0.2009,4.22109 2.5052,8.0342 6.556,9.238 l -5.662,11.92 c -8.046,0 -13.857,-2.532 -16.986,-7.599 -4.321,4.917 -12.218,7.748 -21.754,7.748 -16.242,0 -25.629,-8.195 -25.629,-21.605 0,-14.304 10.58,-23.244 28.31,-24.436 l 16.39,-1.043 v -3.13 c 0,-6.853 -4.767,-10.728 -13.41,-10.728 -6.94,-0.0281 -13.6768,2.34069 -19.072,6.706 z m 27.268,33.824 c -7.6,0.447 -11.772,4.023 -11.772,9.685 0,5.811 4.173,9.09 12.368,9.09 9.387,0 14.304,-4.62 14.304,-14.156 v -5.513 z m -968.49,187.598 -3.278,-20.86 h -58.409 v -74.502 h 18.775 v 58.41 h 27.267 v -58.41 h 18.923 v 58.41 h 11.175 v 36.952 z m 23.391,-58.111 c 0,-24.288 12.665,-38.592 34.12,-38.592 21.457,0 33.527,14.155 33.527,39.337 v 5.066 h -49.022 c 0.298,11.026 7.45,16.688 18.923,16.688 6.76481,0.18624 13.30028,-2.45985 18.03,-7.3 l 10.876,11.621 c -7.897,7.45 -16.539,11.771 -29.502,11.771 -23.393,0 -36.952,-13.559 -36.952,-38.591 z m 18.625,-7.45 h 31.588 c -0.894,-10.132 -6.556,-15.645 -15.496,-15.645 -9.387,0 -15.05,5.513 -16.092,15.645 z M 553.88,265.534 c 19.518,0 30.545,13.858 30.545,38.592 0,24.734 -10.878,38.591 -30.546,38.591 -8.642,0 -15.347,-2.98 -19.966,-8.492 v 33.972 H 515.14 V 266.875 h 17.731 v 8.494 c 4.768,-6.55667 11.77133,-9.835 21.01,-9.835 z m -4.024,16.689 c -10.58,0 -15.943,7.3 -15.943,21.903 0,14.603 5.364,21.903 15.943,21.903 10.43,0 15.794,-7.301 15.794,-21.754 0,-14.751 -5.364,-22.052 -15.794,-22.052 z m 70.327,29.353 v 29.8 H 601.41 v -74.5 h 18.774 v 27.565 h 7.003 l 18.625,-27.566 h 22.053 l -25.33,36.06 27.565,38.441 h -22.202 l -20.711,-29.8 z M 744.45,287.289 c 0.22369,6.41392 -2.94706,12.47159 -8.345,15.943 7.003,3.427 10.728,9.238 10.728,17.135 0,13.41 -10.728,21.01 -29.651,21.01 h -34.569 v -74.502 h 33.377 c 18.178,0 28.46,7.45 28.46,20.414 z m -27.864,9.834 c 5.662,0 8.94,-2.831 8.94,-7.748 0,-4.769 -3.278,-7.6 -8.94,-7.6 h -15.198 v 15.348 z m 1.639,29.353 c 6.109,0 9.685,-2.98 9.685,-8.195 0,-5.066 -3.576,-7.897 -9.685,-7.897 h -16.837 v 16.092 z m 43.507,-50.661 c 9.089,-7.003 18.625,-10.28 30.694,-10.28 19.967,0 30.248,8.79 30.248,26.075 v 29.8 c -0.20086,4.22109 2.50522,8.0342 6.556,9.238 l -5.662,11.92 c -8.047,0 -13.858,-2.532 -16.986,-7.599 -4.322,4.917 -12.219,7.748 -21.755,7.748 -16.241,0 -25.628,-8.195 -25.628,-21.605 0,-14.304 10.579,-23.244 28.31,-24.436 l 16.39,-1.043 v -3.13 c 0,-6.853 -4.768,-10.728 -13.41,-10.728 -6.93997,-0.0281 -13.67682,2.34069 -19.072,6.706 z m 27.267,33.824 c -7.599,0.447 -11.771,4.023 -11.771,9.685 0,5.811 4.172,9.09 12.367,9.09 9.387,0 14.304,-4.62 14.304,-14.156 v -5.513 z m 891.477,109.976 h -20.414 l 36.208,-87.762 h -50.96 v -16.539 h 71.67 v 16.092 z M 344.185,483.238 v -78.4 h 32.255 c 15.008,0 24.864,8.064 24.864,20.497 0,7.727 -3.92,14.111 -10.304,16.8 8.288,3.471 12.656,9.744 12.656,18.368 0,13.888 -10.528,22.735 -26.656,22.735 z m 31.024,-65.071 h -16.017 v 18.815 h 16.017 c 7.055,0 11.087,-3.359 11.087,-9.407 0,-6.049 -4.032,-9.408 -11.087,-9.408 z m 1.68,31.36 h -17.697 v 20.383 h 17.696 c 7.392,0 11.648,-3.695 11.648,-10.191 0,-6.496 -4.256,-10.193 -11.648,-10.193 z m 63.167,34.719 c -16.688,0 -26.096,-10.416 -26.096,-29.008 0,-18.592 9.408,-29.008 26.096,-29.008 16.688,0 26.095,10.416 26.095,29.008 0,18.592 -9.407,29.008 -26.095,29.008 z m 0,-12.544 c 7.84,0 11.872,-5.487 11.872,-16.464 0,-10.975 -4.032,-16.464 -11.872,-16.464 -7.952,0 -11.872,5.489 -11.872,16.464 0,10.977 3.92,16.464 11.872,16.464 z m 38.751,-44.464 h 13.327 v 7.841 c 4.032,-5.824 9.408,-8.849 16.688,-8.849 2.68175,-0.0133 5.34182,0.48076 7.84,1.456 l -5.6,12.88 c -1.73697,-0.99286 -3.71069,-1.49605 -5.711,-1.456 -7.953,0 -12.433,5.937 -12.433,16.353 v 27.775 h -14.111 z m 55.214,77.168 c -3.1929,0.0995 -6.36794,-0.51263 -9.295,-1.792 l 1.344,-11.872 c 1.72976,0.75654 3.60012,1.13824 5.488,1.12 4.592,0 7.28,-2.351 9.296,-8.847 l -21.28,-55.777 h 15.12 l 12.88,36.624 12.768,-36.624 h 15.12 l -23.072,60.817 c -4.592,12.208 -9.296,16.351 -18.369,16.351 z m 68.993,-20.16 c -10.529,0 -18.593,-3.248 -23.969,-9.071 l 7.953,-8.624 c 3.472,3.807 9.52,6.048 16.463,6.048 6.608,0 10.528,-2.24 10.528,-5.712 0,-3.248 -3.36,-4.704 -11.2,-5.6 -15.455,-1.793 -21.952,-7.057 -21.952,-17.473 0,-11.423 7.84,-17.584 22.288,-17.584 9.296,0 16.8,2.464 21.952,7.393 l -8.512,8.288 c -3.135,-2.576 -8.175,-4.032 -13.664,-4.032 -5.712,0 -9.183,1.792 -9.183,4.928 0,3.024 2.911,4.704 10.864,5.488 15.792,1.903 22.287,6.72 22.287,17.248 0,11.983 -8.512,18.703 -23.855,18.703 z m 57.232,0 c -16.688,0 -26.096,-10.416 -26.096,-29.008 0,-18.592 9.408,-29.008 26.096,-29.008 16.688,0 26.096,10.416 26.096,29.008 0,18.592 -9.408,29.008 -26.096,29.008 z m 0,-12.544 c 7.84,0 11.872,-5.487 11.872,-16.464 0,-10.975 -4.032,-16.464 -11.872,-16.464 -7.952,0 -11.872,5.489 -11.872,16.464 0,10.977 3.92,16.464 11.872,16.464 z m 126.559,-0.112 0.783,11.425 c -2.50976,0.4887 -5.05832,0.75109 -7.615,0.784 -10.305,0 -16.128,-5.153 -16.128,-14.448 v -64.512 h 14.112 v 62.048 c 0,3.584 1.68,5.263 5.264,5.263 1.21314,-0.0386 2.4169,-0.22671 3.584,-0.56 z m 17.694,-69.663 c 7.43397,-0.0497 11.21577,8.91264 5.99507,14.20388 -5.2207,5.29125 -14.23301,1.63009 -14.28307,-5.80388 -0.12304,-4.64516 3.6416,-8.46068 8.288,-8.4 z m 7.056,81.311 h -14.112 v -56 h 14.112 z m 29.231,0 h -13.328 v -78.4 h 14.112 v 27.776 c 3.472,-4.256 8.512,-6.384 14.896,-6.384 14.783,0 22.96,10.416 22.96,29.008 0,18.592 -8.288,29.008 -22.848,29.008 -7.056,0 -12.208,-2.575 -15.792,-7.392 z m 12.656,-44.464 c -7.84,0 -11.872,5.489 -11.872,16.464 0,10.977 4.032,16.464 11.872,16.464 7.84,0 11.871,-5.487 11.871,-16.575 0,-10.864 -4.031,-16.353 -11.871,-16.353 z m 58.463,45.472 c -10.528,0 -18.592,-3.248 -23.968,-9.071 l 7.952,-8.624 c 3.472,3.807 9.52,6.048 16.464,6.048 6.608,0 10.528,-2.24 10.528,-5.712 0,-3.248 -3.36,-4.704 -11.2,-5.6 -15.456,-1.793 -21.952,-7.057 -21.952,-17.473 0,-11.423 7.84,-17.584 22.288,-17.584 9.296,0 16.8,2.464 21.952,7.393 l -8.512,8.288 c -3.136,-2.576 -8.176,-4.032 -13.664,-4.032 -5.712,0 -9.184,1.792 -9.184,4.928 0,3.024 2.912,4.704 10.864,5.488 15.792,1.903 22.288,6.72 22.288,17.248 0,11.983 -8.512,18.703 -23.856,18.703 z m 48.608,-1.008 H 946.4 v -78.4 h 14.112 v 44.688 L 980,427.238 h 17.36 l -20.495,22.96 22.064,33.04 h -16.465 l -15.455,-23.071 -6.496,7.392 z m 44.913,-49.279 c 6.5469,-5.20124 14.7131,-7.93688 23.072,-7.729 15.008,0 22.736,6.609 22.736,19.601 v 22.4 c -0.1509,3.17289 1.8831,6.0391 4.928,6.944 l -4.256,8.96 c -6.048,0 -10.416,-1.904 -12.768,-5.712 -3.248,3.695 -9.184,5.823 -16.352,5.823 -12.208,0 -19.264,-6.159 -19.264,-16.24 0,-10.751 7.952,-17.472 21.28,-18.367 l 12.32,-0.784 v -2.352 c 0,-5.152 -3.584,-8.064 -10.08,-8.064 -5.2165,-0.0213 -10.2805,1.75898 -14.336,5.04 z m 20.496,25.424 c -5.712,0.336 -8.848,3.023 -8.848,7.28 0,4.367 3.136,6.831 9.296,6.831 7.056,0 10.752,-3.472 10.752,-10.64 v -4.143 z M 353.928,573.238 c 0,10.64 4.48,16.576 12.432,16.576 4.816,0 8.176,-2.127 10.864,-6.607 l 10.416,7.504 c -4.816,7.615 -12.096,11.535 -21.952,11.535 -16.576,0 -25.983,-10.527 -25.983,-29.008 0,-18.48 9.407,-29.008 25.983,-29.008 9.856,0 17.024,3.81 21.952,11.537 l -10.416,7.616 c -2.576,-4.48 -6.048,-6.609 -10.864,-6.609 -7.952,0 -12.432,5.825 -12.432,16.464 z m 58.687,28 h -14.112 v -78.4 h 14.112 v 28.225 c 4.031,-4.48 9.407,-6.832 16.128,-6.832 12.208,0 19.152,7.728 19.152,21.28 v 35.727 H 433.67 v -34.384 c 0,-6.496 -3.695,-10.08 -10.191,-10.08 -6.832,0 -10.864,3.92 -10.864,10.865 z m 85.119,-56 h 14.224 v 56 h -13.104 v -5.824 c -4.144,4.48 -9.632,6.832 -16.576,6.832 -12.544,0 -19.712,-7.727 -19.712,-21.28 v -35.728 h 14.112 v 34.385 c 0,6.495 3.808,10.08 10.304,10.08 6.72,0 10.752,-3.92 10.752,-10.976 z m 30.016,0 h 13.328 v 7.841 c 4.032,-5.824 9.408,-8.849 16.688,-8.849 2.68182,-0.0129 5.34189,0.48142 7.84,1.457 l -5.6,12.88 c -1.73716,-0.99338 -3.71126,-1.49693 -5.712,-1.457 -7.952,0 -12.432,5.937 -12.432,16.353 v 27.775 H 527.75 Z m 57.12,28 c 0,10.64 4.48,16.576 12.432,16.576 4.816,0 8.176,-2.127 10.864,-6.607 l 10.416,7.504 c -4.816,7.615 -12.096,11.535 -21.952,11.535 -16.576,0 -25.984,-10.527 -25.984,-29.008 0,-18.48 9.408,-29.008 25.984,-29.008 9.856,0 17.024,3.81 21.952,11.537 l -10.416,7.616 c -2.576,-4.48 -6.048,-6.609 -10.864,-6.609 -7.952,0 -12.432,5.825 -12.432,16.464 z m 58.687,28 h -14.112 v -78.4 h 14.112 v 28.225 c 4.031,-4.48 9.407,-6.832 16.128,-6.832 12.208,0 19.151,7.728 19.151,21.28 v 35.727 h -14.224 v -34.384 c 0,-6.496 -3.695,-10.08 -10.192,-10.08 -6.832,0 -10.863,3.92 -10.863,10.865 z"
       inkscape:connector-curvature="0" />
  </g>
</svg>
