<svg id="Слой_1" data-name="Слой 1" xmlns="http://www.w3.org/2000/svg" width="1820" height="400" viewBox="0 0 1820 400">
  <defs>
    <style>
      .cls-1 {
        fill: #fff;
      }

      .cls-2 {
        fill: #04ae67;
      }
    </style>
  </defs>
  <g>
    <path class="cls-1" d="M35.19336,399A34.13533,34.13533,0,0,1,1,365V35A34.13564,34.13564,0,0,1,35.19336,1H1419.76367l398,199-398,199Z"/>
    <path d="M1419.528,2l396,198-396,198H35.19341A33.13453,33.13453,0,0,1,2,365V35A33.13452,33.13452,0,0,1,35.19341,2H1419.528M1420,0H35.19341A35.09706,35.09706,0,0,0,0,35V365a35.09707,35.09707,0,0,0,35.19341,35H1420l400-200L1420,0Z"/>
  </g>
  <path class="cls-2" d="M20,45V355a25,25,0,0,0,25,25H1415l365-180L1415,20H45A25,25,0,0,0,20,45Z"/>
  <g>
    <path class="cls-1" d="M506,71.19284h65.4695V86.52768H523.25243v24.32963h21.82263c21.23321,0,34.9465,12.53393,34.9465,31.99731,0,19.16949-13.71329,31.55513-35.09372,31.55513H506Zm17.25243,55.14706v32.58726h19.31616c13.12334,0,20.05333-5.60288,20.05333-16.21975s-6.93-16.36751-19.90611-16.36751Z"/>
    <path class="cls-1" d="M625.13792,175.58964c-21.67541,0-33.76661-13.71383-33.76661-38.04292,0-24.33017,12.0912-38.04292,33.76661-38.04292,21.5282,0,33.91384,13.71275,33.91384,38.04292C659.05176,161.87581,646.66612,175.58964,625.13792,175.58964Zm0-14.451c11.35405,0,17.54687-7.96266,17.54687-23.59193,0-15.63034-6.19282-23.59246-17.54687-23.59246-11.50126,0-17.39964,7.96212-17.39964,23.59246C607.73828,153.02877,613.63666,161.13865,625.13792,161.13865Z"/>
    <path class="cls-1" d="M714.19612,99.5038c19.3167,0,30.37524,13.71275,30.37524,38.04292,0,24.32909-11.05854,38.04292-30.52245,38.04292-9.14255,0-16.21976-3.39138-20.791-9.87971v35.24094h-16.367V100.68316H692.2252v9.87971C696.9437,103.33738,704.31641,99.5038,714.19612,99.5038Zm-3.39138,14.45046c-11.50126,0-17.54686,7.96212-17.54686,23.59246,0,15.62927,6.0456,23.59193,17.54686,23.59193,11.354,0,17.39965-7.96266,17.39965-23.44471C728.20439,122.06413,722.15878,113.95426,710.80474,113.95426Z"/>
    <path class="cls-1" d="M812.39688,100.68316h15.33537v73.72659H811.3642V126.92984l-33.6194,47.47991H762.41051V100.68316h16.367v47.4799Z"/>
    <path class="cls-1" d="M862.08344,137.54672c0,15.18762,6.63555,23.74022,18.13681,23.74022,6.93105,0,11.79677-3.09695,15.6298-9.58528l12.09121,8.69983c-6.48726,10.17415-15.62981,15.18815-28.45818,15.18815-21.67541,0-33.76661-13.861-33.76661-38.04292,0-24.18241,12.23842-38.04292,33.76661-38.04292,12.82837,0,21.97092,4.86571,28.45818,15.03986l-12.09121,8.84758c-3.68582-6.34057-8.69875-9.437-15.6298-9.437C868.719,113.95426,862.08344,122.35911,862.08344,137.54672Z"/>
    <path class="cls-1" d="M924.161,174.40975V100.68316h63.69912v73.72659h-16.367V114.69142H940.528v59.71833Z"/>
    <path class="cls-1" d="M1018.38151,68.39087a9.87945,9.87945,0,1,1-9.87972,9.87971A9.7329,9.7329,0,0,1,1018.38151,68.39087Zm8.25709,106.01888h-16.367V100.68316h16.367Z"/>
    <path class="cls-1" d="M1040.64257,162.02411c12.68115-3.53968,15.33537-12.82837,17.39964-61.341h52.05064v73.72659h-16.367V114.54366h-21.08546c-1.76984,43.79355-7.96266,56.62192-28.45925,61.63593Z"/>
    <path class="cls-1" d="M1191.6322,150.9645c0,14.89264-10.32244,23.44525-28.311,23.44525h-30.96518V100.68316h16.367V127.667h14.59821C1181.30976,127.667,1191.6322,136.07186,1191.6322,150.9645Zm-28.311,9.87971c7.81437,0,11.94291-3.39138,11.94291-9.87971,0-6.34-4.12854-9.87918-11.94291-9.87918H1148.723v19.75889Z"/>
  </g>
  <g>
    <path class="cls-1" d="M506,290.56525V212.61618h30.957c15.03289,0,24.60955,7.9061,24.60955,20.26631,0,7.9061-4.12043,14.36446-10.913,16.92626,8.68594,3.22918,13.36287,9.57666,13.36287,18.48488,0,13.58621-10.356,22.27162-26.61433,22.27162Zm29.8435-66.36817H519.02865v21.15756H535.8435c8.01751,0,12.69443-3.89761,12.69443-10.57878S543.861,224.19708,535.8435,224.19708Zm1.44721,32.07H519.02865v22.6053h18.26206c8.686,0,13.58568-4.11936,13.58568-11.35809C550.87639,260.27666,545.97666,256.26711,537.29071,256.26711Z"/>
    <path class="cls-1" d="M600.64825,291.4565c-16.25782,0-25.50026-10.357-25.50026-28.731,0-18.37294,9.24244-28.72891,25.50026-28.72891,16.36923,0,25.61221,10.356,25.61221,28.72891C626.26046,281.09947,617.01748,291.4565,600.64825,291.4565Zm0-10.91353c8.686,0,13.25146-6.01273,13.25146-17.81751,0-11.80371-4.56551-17.81644-13.25146-17.81644-8.57453,0-13.14,6.01273-13.14,17.81644C587.5082,274.4183,592.07372,280.543,600.64825,280.543Z"/>
    <path class="cls-1" d="M639.72993,234.88674h11.5809v8.35172c3.89762-6.12467,9.46525-9.24191,16.92626-9.24191a20.3856,20.3856,0,0,1,8.12892,1.44668l-4.89974,11.35916a11.62237,11.62237,0,0,0-6.12467-1.55969c-8.46313,0-13.25146,6.23661-13.25146,17.261v28.06153H639.72993Z"/>
    <path class="cls-1" d="M693.62329,311.5a21.00879,21.00879,0,0,1-8.79682-1.67056l1.22493-10.46684a11.839,11.839,0,0,0,5.45624,1.22494c4.67692,0,7.461-2.67268,9.91087-10.02229l-21.38037-55.67851h13.14L707.209,273.8618l14.14218-38.97506h13.14l-22.93952,59.90981C706.76334,307.2687,702.30923,311.5,693.62329,311.5Z"/>
    <path class="cls-1" d="M762.32832,291.4565c-10.02228,0-18.03979-3.00743-23.38515-8.79735l7.01538-7.46154c3.5634,3.78674,9.68807,6.12467,16.70345,6.12467,7.34961,0,11.69231-2.67161,11.69231-6.904,0-3.78567-3.67427-5.45623-12.026-6.45835-15.25624-1.78143-21.71459-6.904-21.71459-16.92626,0-11.02441,7.68329-17.03714,21.82546-17.03714,8.90876,0,16.14695,2.33793,21.15809,7.01486l-7.461,7.23872c-3.22917-2.5618-8.46313-4.12042-14.03076-4.12042-6.34749,0-10.2451,2.22705-10.2451,6.01273,0,3.56393,3.34112,5.45623,11.91512,6.45942,15.36711,1.8923,21.826,6.56923,21.826,16.70345C785.60153,284.88621,777.2498,291.4565,762.32832,291.4565Z"/>
    <path class="cls-1" d="M825.35217,233.99655c14.4764,0,22.82812,10.356,22.82812,28.72891,0,18.374-8.24032,28.731-22.82812,28.731-7.01538,0-12.2488-2.56181-15.70132-7.46154v26.61486H797.29064V234.88674h11.5809v7.46154C812.43493,236.891,817.8917,233.99655,825.35217,233.99655ZM822.7909,244.909c-8.574,0-13.14,6.01273-13.14,17.81644,0,11.80478,4.56605,17.81751,13.14,17.81751,8.57454,0,13.02865-6.01273,13.02865-17.70557C835.81955,251.03369,831.36544,244.909,822.7909,244.909Z"/>
    <path class="cls-1" d="M867.88637,210.5a7.461,7.461,0,1,1-7.461,7.46048A7.34944,7.34944,0,0,1,867.88637,210.5Zm6.23554,80.06525H861.7617V234.88674h12.36021Z"/>
    <path class="cls-1" d="M912.53729,280.4321l.55649,9.91034a34.3635,34.3635,0,0,1-6.904.77931c-9.68807,0-15.1443-4.89973-15.1443-13.808V212.61618h12.36021v62.69337c0,3.78567,1.782,5.56817,5.56817,5.56817A14.18094,14.18094,0,0,0,912.53729,280.4321Z"/>
  </g>
  <path class="cls-1" d="M1380.74264,173.216l-15.54443-2.053c2.63972-15.25161,16.57039-25.663,34.75455-25.663,18.91836,0,32.55621,11.292,32.55621,27.86242,0,10.26606-5.133,18.33164-14.07816,22.29122,10.11857,3.66569,16.27757,12.4644,16.27757,24.34315,0,18.03774-14.22457,30.50321-34.902,30.50321-19.0637,0-33.875-10.85171-36.51472-26.69l15.69085-2.63972c2.63972,9.239,10.41247,14.95771,21.11777,14.95771,11.14454,0,18.33057-6.159,18.33057-16.27757s-7.03855-16.71789-18.62447-16.71789h-5.57227V189.64106h5.57227c10.11858,0,16.42506-5.86617,16.42506-15.10519s-6.45289-14.66488-16.57147-14.66488C1389.83418,159.871,1382.64922,165.004,1380.74264,173.216Z"/>
  <g>
    <rect class="cls-1" x="120" y="72" width="256" height="256" rx="15"/>
    <path d="M149.86667,169.06667v10.66666l15.00417,19.2-15.00417,21.33334v10.66666H167.0143l25.72144-20.26666h23.578L160.58394,296h23.54518a21.47876,21.47876,0,0,0,16.0786-7.2257l65.40545-73.841h50.37117c20.90554,0,30.28659-11.73333,30.14747-16s-10.85638-16-30.14747-16H264.54145L199.14377,107.063a21.478,21.478,0,0,0-16.1701-7.32968H166.03576L216.31374,187.2h-23.578L168.086,169.06667Z"/>
  </g>
</svg>
