<svg id="Слой_1" data-name="Слой 1" xmlns="http://www.w3.org/2000/svg" width="1372" height="802" viewBox="0 0 1372 802">
  <defs>
    <style>
      .cls-1, .cls-3 {
        fill: #fff;
      }

      .cls-1 {
        stroke: #000;
      }

      .cls-1, .cls-4, .cls-5, .cls-6, .cls-7, .cls-8 {
        stroke-miterlimit: 10;
      }

      .cls-1, .cls-8 {
        stroke-width: 2px;
      }

      .cls-2, .cls-6 {
        fill: #005999;
      }

      .cls-4 {
        fill: #e30013;
      }

      .cls-4, .cls-5, .cls-6 {
        stroke: #fff;
        stroke-width: 5px;
      }

      .cls-5 {
        fill: #04ae67;
      }

      .cls-7, .cls-8 {
        fill: none;
        stroke: #181716;
      }

      .cls-7 {
        stroke-width: 3px;
      }

      .cls-8 {
        stroke-linecap: round;
      }

      .cls-9 {
        fill: #181716;
      }
    </style>
  </defs>
  <rect class="cls-1" x="1" y="1" width="1370" height="800" rx="35"/>
  <path class="cls-2" d="M1355,40V286H15V40A24.99631,24.99631,0,0,1,40,15H1330A24.99627,24.99627,0,0,1,1355,40Z" transform="translate(1 1)"/>
  <rect class="cls-2" x="16" y="297" width="1340" height="275"/>
  <g>
    <path class="cls-3" d="M620.20605,124.40332c11.53516-2.98633,14.31641-13.49219,16.68555-62.51855h44.082v72.09765H668.92285V72.59668H647.39648c-2.67773,47.584-6.38574,58.08984-24.10058,62.62207Z" transform="translate(1 1)"/>
    <path class="cls-3" d="M739.27148,117.60547c0,10.40332-7.21,16.37695-19.77539,16.37695h-21.6289v-51.498H709.2998V101.332h10.19629C732.06152,101.332,739.27148,107.20312,739.27148,117.60547Zm-19.77539,6.90137c5.459,0,8.34278-2.36914,8.34278-6.90137,0-4.42871-2.88379-6.90039-8.34278-6.90039H709.2998v13.80176Z" transform="translate(1 1)"/>
    <path class="cls-3" d="M793.34473,96.49121c0,4.94434-2.05957,8.65234-5.97364,11.02149a12.55423,12.55423,0,0,1,7.72461,12.0498c0,9.27051-7.209,14.41992-19.87793,14.41992H751.63184v-51.498H774.291C786.44434,82.48438,793.34473,87.63379,793.34473,96.49121Zm-18.64161,7.416c4.53126,0,7.209-2.36914,7.209-6.28223,0-3.708-2.67773-6.07715-7.209-6.07715H763.06445v12.35938Zm1.13282,21.01172c4.94336,0,7.82715-2.36915,7.82715-6.5918,0-4.01758-2.88379-6.38574-7.82715-6.38574H763.06445V124.919Z" transform="translate(1 1)"/>
    <path class="cls-3" d="M813.63672,59.92773a6.90088,6.90088,0,1,1-6.90039,6.90039A6.79789,6.79789,0,0,1,813.63672,59.92773Zm5.76855,74.05469H807.97266v-51.498h11.43261Z" transform="translate(1 1)"/>
    <path class="cls-3" d="M876.77246,96.49121c0,4.94434-2.05957,8.65234-5.97363,11.02149a12.55425,12.55425,0,0,1,7.72461,12.0498c0,9.27051-7.209,14.41992-19.87793,14.41992H835.05957v-51.498h22.65918C869.87207,82.48438,876.77246,87.63379,876.77246,96.49121Zm-18.6416,7.416c4.53125,0,7.209-2.36914,7.209-6.28223,0-3.708-2.67773-6.07715-7.209-6.07715H846.49219v12.35938Zm1.13281,21.01172c4.94336,0,7.82715-2.36915,7.82715-6.5918,0-4.01758-2.88379-6.38574-7.82715-6.38574H846.49219V124.919Z" transform="translate(1 1)"/>
  </g>
  <g>
    <path class="cls-3" d="M659.78027,218.7998H625.06934V164.19727h9.126v46.41211h25.585Z" transform="translate(1 1)"/>
    <path class="cls-3" d="M682.86816,218.7998h-8.89257l-14.58692-39.001h9.20508l9.82813,28.31445,9.90624-28.31445h9.20411Z" transform="translate(1 1)"/>
    <path class="cls-3" d="M708.84082,162.71582a5.22608,5.22608,0,1,1-5.22656,5.22559A5.14771,5.14771,0,0,1,708.84082,162.71582Zm4.36816,56.084h-8.6582v-39.001h8.6582Z" transform="translate(1 1)"/>
    <path class="cls-3" d="M743.70605,218.7998h-8.89257l-14.58692-39.001h9.20508l9.82813,28.31445,9.90625-28.31445h9.2041Z" transform="translate(1 1)"/>
  </g>
  <g>
    <path class="cls-3" d="M1213.72949,186.10547h-12.35937l25.543-62.00391H1190.6582V114.00781h48.82032V123.792Z" transform="translate(1 1)"/>
    <path class="cls-3" d="M1263.169,132.65039l-10.917-1.44238c1.85352-10.71192,11.63867-18.02442,24.41016-18.02442,13.28613,0,22.86523,7.93067,22.86523,19.56934,0,7.21-3.60546,12.875-9.88769,15.65527,7.10644,2.5752,11.43262,8.75489,11.43262,17.09766,0,12.66894-9.99122,21.42383-24.51368,21.42383-13.38964,0-23.792-7.62207-25.6455-18.7461l11.0205-1.85351c1.85352,6.48926,7.3125,10.50586,14.83106,10.50586,7.82812,0,12.875-4.32617,12.875-11.43262,0-7.10742-4.94434-11.74219-13.08106-11.74219h-3.91406v-9.47558h3.91406c7.10743,0,11.53614-4.12012,11.53614-10.6084,0-6.48926-4.53223-10.29981-11.63868-10.29981C1269.55469,123.27734,1264.50781,126.88184,1263.169,132.65039Z" transform="translate(1 1)"/>
  </g>
  <g>
    <path class="cls-3" d="M630.76562,398.64648h7.21c6.07714-7.0039,7.72461-21.11425,9.373-61.59179h44.59766v61.59179h9.06348v25.95508h-9.37305l-2.05957-15.44922H642.19824l-2.05957,15.44922h-9.37305Zm49.12989,0V347.7666h-22.042c-1.44141,27.29395-3.08985,42.22852-7.3125,50.87988Z" transform="translate(1 1)"/>
    <path class="cls-3" d="M737.5752,356.83008c13.49316,0,21.21777,9.57812,21.21777,26.57324,0,16.99414-7.72461,26.57324-21.32031,26.57324-6.38575,0-11.33008-2.36914-14.52246-6.90136v24.61621H711.51758V357.6543h10.71094v6.90039C725.52441,359.50781,730.6748,356.83008,737.5752,356.83008Zm-2.36915,10.09375c-8.0332,0-12.25585,5.56152-12.25585,16.47949s4.22265,16.47949,12.25585,16.47949c7.93165,0,12.1543-5.56152,12.1543-16.377C747.36035,372.58887,743.1377,366.92383,735.20605,366.92383Z" transform="translate(1 1)"/>
    <path class="cls-3" d="M791.752,409.97656c-15.14062,0-23.58593-9.5791-23.58593-26.57324,0-16.99512,8.44531-26.57324,23.58593-26.57324,15.03711,0,23.68946,9.57812,23.68946,26.57324C815.44141,400.39746,806.78906,409.97656,791.752,409.97656Zm0-10.09375c7.93067,0,12.25684-5.56152,12.25684-16.47949s-4.32617-16.47949-12.25684-16.47949c-8.03418,0-12.15332,5.56152-12.15332,16.47949C779.59863,394.21777,783.71777,399.88281,791.752,399.88281Z" transform="translate(1 1)"/>
    <path class="cls-3" d="M827.9043,357.6543h34.5039v9.78418H839.33691v41.71386H827.9043Z" transform="translate(1 1)"/>
    <path class="cls-3" d="M891.55859,409.97656c-15.14062,0-23.58593-9.5791-23.58593-26.57324,0-16.99512,8.44531-26.57324,23.58593-26.57324,15.03711,0,23.68946,9.57812,23.68946,26.57324C915.24805,400.39746,906.5957,409.97656,891.55859,409.97656Zm0-10.09375c7.93067,0,12.25684-5.56152,12.25684-16.47949s-4.32617-16.47949-12.25684-16.47949c-8.03418,0-12.15332,5.56152-12.15332,16.47949C879.40527,394.21777,883.52441,399.88281,891.55859,399.88281Z" transform="translate(1 1)"/>
    <path class="cls-3" d="M968.60059,347.04492l-18.23047,1.751c-10.71192,1.03027-15.34668,6.90137-16.06739,19.56933,2.36817-6.17968,8.54883-9.78418,16.68555-9.78418,13.80078,0,21.73145,9.167,21.73145,25.33692,0,16.68555-8.54785,26.05859-23.48243,26.05859-15.03808,0-24.10156-9.5791-24.10156-35.22558,0-23.58594,7.72461-35.01856,25.13086-36.76953l18.334-1.751ZM949.2373,399.88281c7.82715,0,12.04981-5.459,12.04981-15.75879s-4.22266-15.75879-12.04981-15.75879c-7.93066,0-12.05078,5.35645-12.05078,15.65625C937.18652,394.42383,941.30664,399.88281,949.2373,399.88281Z" transform="translate(1 1)"/>
    <path class="cls-3" d="M1019.89551,357.6543h10.71094v51.498h-11.43262v-33.165l-23.4834,33.165H984.97949v-51.498h11.43262v33.165Z" transform="translate(1 1)"/>
    <path class="cls-3" d="M1076.23438,357.6543H1087.667v51.498h-11.43261v-20.1875a41.37931,41.37931,0,0,1-14.52247,2.88379c-11.22656,0-17.71582-5.87011-17.71582-16.06738v-18.127h11.43262v15.44922c0,5.665,3.502,8.75488,9.8877,8.75488a23.23386,23.23386,0,0,0,10.918-2.78125Z" transform="translate(1 1)"/>
  </g>
  <g>
    <path class="cls-3" d="M636.62891,514.46777V459.86523h21.06054c14.82032,0,21.9961,10.84278,21.9961,27.30176,0,16.53613-7.09766,27.30078-21.9961,27.30078Zm9.125-46.48925v38.29882h9.67382c11.31055,0,15.05469-7.0205,15.05469-19.11035,0-12.09082-3.74414-19.18847-15.05469-19.18847Z" transform="translate(1 1)"/>
    <path class="cls-3" d="M689.666,475.4668h8.11328v5.84961a13.191,13.191,0,0,1,11.85547-6.47461,14.27861,14.27861,0,0,1,5.69531,1.01465l-3.43164,7.95605a8.13992,8.13992,0,0,0-4.291-1.0918c-5.92773,0-9.28125,4.36817-9.28125,12.08985v19.65722H689.666Z" transform="translate(1 1)"/>
    <path class="cls-3" d="M737.16992,515.0918c-11.38867,0-17.86328-7.25391-17.86328-20.125,0-12.87012,6.47461-20.125,17.86328-20.125,11.4668,0,17.94141,7.25488,17.94141,20.125C755.11133,507.83789,748.63672,515.0918,737.16992,515.0918Zm0-7.64453c6.084,0,9.2832-4.21192,9.2832-12.48047,0-8.26758-3.19921-12.48047-9.2832-12.48047-6.00586,0-9.20508,4.21289-9.20508,12.48047C727.96484,503.15723,731.16406,507.44727,737.16992,507.44727Z" transform="translate(1 1)"/>
    <path class="cls-3" d="M773.20508,514.46777h-8.6582V459.86523h8.6582V479.834c2.65234-3.27539,6.63086-4.99218,11.4668-4.99218,8.6582,0,13.57226,5.30468,13.57226,14.665v24.96093h-8.6582V490.209c0-4.91406-2.96485-7.72265-8.03516-7.72265-5.30273,0-8.3457,2.96484-8.3457,8.26855Z" transform="translate(1 1)"/>
    <path class="cls-3" d="M825.23047,515.0918c-11.38867,0-17.86328-7.25391-17.86328-20.125,0-12.87012,6.47461-20.125,17.86328-20.125,11.4668,0,17.94141,7.25488,17.94141,20.125C843.17188,507.83789,836.69727,515.0918,825.23047,515.0918Zm0-7.64453c6.084,0,9.2832-4.21192,9.2832-12.48047,0-8.26758-3.19922-12.48047-9.2832-12.48047-6.00586,0-9.20508,4.21289-9.20508,12.48047C816.02539,503.15723,819.22461,507.44727,825.23047,507.44727Z" transform="translate(1 1)"/>
    <path class="cls-3" d="M860.71875,514.46777h-8.11133V459.86523h8.6582v20.20313c2.418-3.43164,6.084-5.22656,10.99805-5.22656,10.21875,0,15.99024,7.25488,15.99024,20.125,0,12.87109-5.84961,20.125-15.99024,20.125-5.22656,0-9.04883-2.02832-11.54492-5.85059Zm9.75195-31.98144c-6.00781,0-9.20508,4.21289-9.20508,12.48047,0,8.26855,3.19727,12.48047,9.20508,12.48047,6.00586,0,9.125-4.29,9.125-12.5586C879.5957,486.69922,876.47656,482.48633,870.4707,482.48633Z" transform="translate(1 1)"/>
    <path class="cls-3" d="M902.60547,529.13281a14.71532,14.71532,0,0,1-6.16211-1.1709l.85742-7.332a8.28831,8.28831,0,0,0,3.82227.8584c3.27734,0,5.22656-1.87207,6.94336-7.02051l-14.97657-39.001H902.293l9.83008,27.30078,9.90625-27.30078h9.20312l-16.06836,41.96484C911.81055,526.168,908.68945,529.13281,902.60547,529.13281Z" transform="translate(1 1)"/>
    <path class="cls-3" d="M944.02539,494.9668c0,8.03418,3.50977,12.55859,9.67188,12.55859,3.58789,0,6.16211-1.63769,8.1914-5.07031l6.39453,4.60254c-3.35351,5.38183-8.26758,8.03418-15.05273,8.03418-11.38867,0-17.86328-7.332-17.86328-20.125,0-12.792,6.47461-20.125,17.86328-20.125,6.78515,0,11.62109,2.57422,15.05273,7.957l-6.39453,4.67969c-1.95117-3.35352-4.60351-4.99219-8.26953-4.99219C947.53516,482.48633,944.02539,486.93262,944.02539,494.9668Z" transform="translate(1 1)"/>
    <path class="cls-3" d="M985.28711,514.46777H976.627V459.86523h8.66016V479.834c2.65039-3.27539,6.62891-4.99218,11.46484-4.99218,8.65821,0,13.57227,5.30468,13.57227,14.665v24.96093h-8.6582V490.209c0-4.91406-2.9629-7.72265-8.03321-7.72265-5.30469,0-8.3457,2.96484-8.3457,8.26855Z" transform="translate(1 1)"/>
  </g>
  <g>
    <path class="cls-3" d="M1222.09277,444.80273h-33.47363v-9.68164l30.89844-45.1123h14.00781v45.1123h9.5791v9.68164h-9.5791v17.30372h-11.43262Zm-22.55664-9.68164h22.55664V402.47168Z" transform="translate(1 1)"/>
    <path class="cls-3" d="M1276.78516,388.876c16.583,0,24.71972,12.35937,24.71972,37.07812,0,24.61621-8.13672,36.97656-24.71972,36.97656-16.4795,0-24.61621-12.36035-24.61621-36.97656C1252.169,401.23535,1260.30566,388.876,1276.78516,388.876Zm-13.1836,37.07812c0,17.30371,4.63477,26.88281,13.1836,26.88281s13.28711-9.5791,13.28711-26.88281c0-17.40625-4.73829-26.98437-13.28711-26.98437S1263.60156,408.54785,1263.60156,425.9541Z" transform="translate(1 1)"/>
  </g>
  <g>
    <path d="M631.69238,677.56152c0,10.6084,4.63477,16.582,12.668,16.582,4.84082,0,8.24024-2.16308,10.918-6.69433l8.44531,6.07617c-4.53125,7.10742-10.917,10.60938-19.87793,10.60938-15.14062,0-23.58593-9.68165-23.58593-26.57325s8.54785-26.57324,23.58593-26.57324c8.96094,0,15.34668,3.39844,19.87793,10.50586l-8.44531,6.17969c-2.5752-4.42871-6.07715-6.5918-10.918-6.5918C636.32715,661.082,631.69238,666.95312,631.69238,677.56152Z" transform="translate(1 1)"/>
    <path d="M669.08105,651.8125h43.877v9.78418h-16.1709v41.71387H685.35449V661.59668H669.08105Z" transform="translate(1 1)"/>
    <path d="M721.919,687.55176a8.19591,8.19591,0,0,1,8.54882,8.44629,8.27947,8.27947,0,0,1-8.54882,8.54883,8.19623,8.19623,0,0,1-8.44532-8.54883A8.11253,8.11253,0,0,1,721.919,687.55176Z" transform="translate(1 1)"/>
    <path d="M777.43457,667.26172c0,16.99414,6.07617,26.16113,17.50879,26.16113,7.82812,0,13.28711-4.22265,16.06836-12.05078l11.74121,1.85449c-3.708,13.49219-13.49219,20.90821-27.70605,20.90821-19.05469,0-29.76661-13.38965-29.76661-36.77051,0-23.58594,10.81543-36.97559,29.76661-36.97559,14.21386,0,24.10156,7.416,27.70605,20.80567l-11.74121,1.957c-2.67871-7.93067-8.1377-12.05078-15.96484-12.05078C783.51074,641.10059,777.43457,650.16406,777.43457,667.26172Z" transform="translate(1 1)"/>
    <path d="M828.93457,651.8125h43.87695v9.78418h-16.1709v41.71387H845.208V661.59668H828.93457Z" transform="translate(1 1)"/>
    <path d="M908.96289,650.98828c13.49316,0,21.21777,9.57813,21.21777,26.57324,0,16.99414-7.72461,26.57325-21.32031,26.57325-6.38574,0-11.33008-2.36915-14.52246-6.90137v24.61621H882.90527V651.8125h10.71094v6.90039C896.91211,653.666,902.0625,650.98828,908.96289,650.98828ZM906.59375,661.082c-8.0332,0-12.25586,5.56152-12.25586,16.47949s4.22266,16.4795,12.25586,16.4795c7.93164,0,12.1543-5.56153,12.1543-16.377C918.74805,666.74707,914.52539,661.082,906.59375,661.082Z" transform="translate(1 1)"/>
    <path d="M977.55957,651.8125h10.71094v51.49805H976.83789v-33.165l-23.4834,33.165H942.64355V651.8125h11.43262v33.165Z" transform="translate(1 1)"/>
    <path d="M1038.84375,651.8125h10.71094v51.49805h-11.43262v-33.165l-23.4834,33.165h-10.71094V651.8125h11.43262v33.165Zm-27.501-22.65918h8.24024c.20605,4.3252,2.78125,6.69434,7.3125,6.69434,4.53222,0,7.0039-2.36914,7.21-6.69434h8.23926c0,9.26953-5.66407,14.52246-15.44922,14.52246C1017.00781,643.67578,1011.34277,638.42285,1011.34277,629.15332Z" transform="translate(1 1)"/>
  </g>
  <path d="M1291.0918,696.01172v10.09375h-47.99707v-9.68164c14.21386-12.875,35.53418-29.7666,35.53418-43.25879,0-5.87109-4.63477-9.8877-11.74121-9.8877-8.03418,0-12.97754,5.14942-12.97754,13.69825h-11.43262c0-14.21289,9.88769-23.792,24.51269-23.792,13.49317,0,23.07129,8.13672,23.07129,19.56934,0,16.78906-15.75879,29.56055-31.002,43.3623Z" transform="translate(1 1)"/>
  <g>
    <rect class="cls-4" x="288" y="43" width="210" height="100" rx="10"/>
    <g>
      <path class="cls-3" d="M328.41748,106.31348l-15.21094-25.585V119.418h-9.04785V64.81543h9.28223L329.978,93.28711l16.61426-28.47168h9.28222V119.418h-9.04785V80.72852l-15.21094,25.585Z" transform="translate(1 1)"/>
      <path class="cls-3" d="M388.71045,101.71094H367.728V93.75488h20.98242Z" transform="translate(1 1)"/>
      <path class="cls-3" d="M416.71143,63.958c12.55859,0,18.7207,9.36035,18.7207,28.08105,0,18.64258-6.16211,28.00293-18.7207,28.00293-12.48047,0-18.64258-9.36035-18.64258-28.00293C398.06885,73.31836,404.231,63.958,416.71143,63.958Zm-9.98438,28.08105c0,13.10449,3.51074,20.3584,9.98438,20.3584,6.47461,0,10.0625-7.25391,10.0625-20.3584,0-13.18261-3.58789-20.43652-10.0625-20.43652C410.23779,71.60254,406.72705,78.85645,406.72705,92.03906Z" transform="translate(1 1)"/>
      <path class="cls-3" d="M463.04346,120.042c-12.0127,0-18.877-8.58008-18.877-23.86914,0-19.65625,11.93457-31.98047,31.04493-31.98047l1.63769,7.56543c-14.35156,0-23.63476,7.957-23.79,19.11133,1.48145-3.82226,6.00586-6.47461,11.93457-6.47461,9.98438,0,16.84766,7.02051,16.84766,17.31641C481.84131,112.71,474.11963,120.042,463.04346,120.042Zm.46777-7.64453c6.00586,0,9.67188-4.21191,9.67188-10.14062,0-6.00586-3.5879-10.2959-9.59375-10.2959-6.084,0-9.751,4.36816-9.751,10.374C453.83838,108.26367,457.58252,112.39746,463.51123,112.39746Z" transform="translate(1 1)"/>
    </g>
  </g>
  <g>
    <rect class="cls-5" x="288" y="155" width="210" height="100" rx="10"/>
    <g>
      <path class="cls-3" d="M339.71289,231.60156H304.14355V178.39844H339.333v7.90429H313.03613V200.668h22.041v7.9043h-22.041v15.04882h26.67676Z" transform="translate(1 1)"/>
      <path class="cls-3" d="M387.06055,218.833H362.35938v-7.14453l22.80078-33.29h10.33691v33.29h7.06836V218.833h-7.06836v12.76855h-8.43652ZM370.416,211.68848h16.64453V187.5957Z" transform="translate(1 1)"/>
      <path class="cls-3" d="M430.45508,231.60156h-8.43555V188.65918c-2.12891,2.73633-7.29687,5.32031-12.2373,6.30859v-8.209c5.168-1.292,10.26074-4.55957,12.99707-8.36035h7.67578Z" transform="translate(1 1)"/>
      <path class="cls-3" d="M460.85547,231.60156h-9.12109l18.8496-45.75488h-26.7539v-7.44824h36.02637v7.2207Z" transform="translate(1 1)"/>
    </g>
  </g>
  <g>
    <rect class="cls-6" x="286" y="378" width="304" height="108" rx="10"/>
    <g>
      <path class="cls-3" d="M331.04932,457.94824h-9.00879V412.05859H306.18018v-8.00781h40.73046v8.00781H331.04932Z" transform="translate(1 1)"/>
      <path class="cls-3" d="M374.24658,440.46973H353.53467v-7.85352h20.71191Z" transform="translate(1 1)"/>
      <path class="cls-3" d="M404.96826,457.94824h-8.54687V414.44531c-2.15625,2.77246-7.3916,5.38965-12.39649,6.39063v-8.31543c5.23633-1.3086,10.39453-4.61914,13.166-8.46973h7.77734Z" transform="translate(1 1)"/>
      <path class="cls-3" d="M441.85107,445.0127H416.82666v-7.23731l23.09961-33.72461H450.397v33.72461h7.16114v7.23731H450.397v12.93554h-8.5459Zm-16.8623-7.23731h16.8623v-24.4082Z" transform="translate(1 1)"/>
      <path class="cls-3" d="M485.66357,440.46973H464.95166v-7.85352h20.71191Z" transform="translate(1 1)"/>
      <path class="cls-3" d="M516.38623,457.94824h-8.54687V414.44531c-2.15625,2.77246-7.39161,5.38965-12.39649,6.39063v-8.31543c5.23633-1.3086,10.39453-4.61914,13.166-8.46973h7.77734Z" transform="translate(1 1)"/>
      <path class="cls-3" d="M548.7251,458.56445c-11.01074,0-19.09473-6.54492-19.09473-15.63086a14.00762,14.00762,0,0,1,8.77734-13.08886,12.58982,12.58982,0,0,1-7.623-11.70313c0-8.54687,7.623-14.70605,17.94043-14.70605s17.93945,6.082,17.93945,14.55175a13.09007,13.09007,0,0,1-7.62207,11.85743,13.85593,13.85593,0,0,1,8.77734,13.08886C567.81982,452.01953,559.73584,458.56445,548.7251,458.56445Zm.07715-7.5459c6.00586,0,10.47168-3.77246,10.47168-8.93164,0-5.00488-4.46582-8.54589-10.54883-8.54589s-10.54883,3.61816-10.54883,8.623C538.17627,447.32324,542.71924,451.01855,548.80225,451.01855ZM548.7251,426.457c5.46679,0,9.39355-3.31055,9.39355-7.85351,0-4.38868-4.0039-7.623-9.39355-7.623s-9.39356,3.23437-9.39356,7.623C539.33154,423.14648,543.33545,426.457,548.7251,426.457Z" transform="translate(1 1)"/>
    </g>
  </g>
  <path class="cls-3" d="M40,785H39a24.99631,24.99631,0,0,1-25-25V571h1V760A24.99631,24.99631,0,0,0,40,785Z" transform="translate(1 1)"/>
  <g>
    <rect class="cls-1" x="294" y="608" width="148" height="144" rx="10"/>
    <g>
      <path class="cls-7" d="M341,654a18.10511,18.10511,0,0,1-18,18,17.57666,17.57666,0,0,1-18-18,18.10511,18.10511,0,0,1,18-18A17.57666,17.57666,0,0,1,341,654Z" transform="translate(1 1)"/>
      <line class="cls-8" x1="323.66337" y1="656.48223" x2="323.66337" y2="644.78681"/>
      <line class="cls-8" x1="316.33663" y1="649.90354" x2="323.66337" y2="657.21319"/>
      <path class="cls-9" d="M314.57777,620.47564H423.5844s5.22635,0,5.22635,6.86994V641.0854s.74661,5.15242-2.9865,4.2937-116.47283-14.59861-116.47283-14.59861-4.47973-1.71746-4.47973-5.15243a4.25,4.25,0,0,1,4.47973-4.29369h5.22635v-.85873Z" transform="translate(1 1)"/>
      <path class="cls-9" d="M427.08,676.17v46.05h-9.57c-.45,4.13-4.59,8.04-8.75,8.04a8.41219,8.41219,0,0,1-8.76-8.04h-7.4c-.45,4.13-4.59,8.04-8.75,8.04a8.92274,8.92274,0,0,1-8.76-8.04h-5.16l-2.2,3.66H330.37l2.19-2.93s-6.59-4.38-8.79-6.57c-2.2-2.2-5.86005-6.58-5.86005-8.04,0-.74,9.53-14.62,9.53-14.62l15.38-16.09a9.65993,9.65993,0,0,1,6.6-2.19l27.29.33L367,666l24.18-16.87,4.32,6L378,667l9.35,8.83Z" transform="translate(1 1)"/>
      <path class="cls-3" d="M337,693.63766l10.70371-12.77691s2.51852-1.34492,3.14814-.67246c1.25927,0,3.14815,4.0348,3.14815,6.72468s-2.51853,6.05223-5.037,8.0696A7.86142,7.86142,0,0,1,344.55556,697h-6.92593L337,696.32754v-2.68988Z" transform="translate(1 1)"/>
      <path class="cls-3" d="M395.84159,691.33a5.8614,5.8614,0,1,1-5.86138-5.84774,5.77252,5.77252,0,0,1,5.86138,5.84774Z" transform="translate(1 1)"/>
      <path class="cls-3" d="M409.0297,691.33a5.8614,5.8614,0,1,1-5.86138-5.84774A5.77252,5.77252,0,0,1,409.0297,691.33Z" transform="translate(1 1)"/>
      <path class="cls-3" d="M421.95051,691.33a5.8614,5.8614,0,1,1-5.86139-5.84774,5.77254,5.77254,0,0,1,5.86139,5.84774Z" transform="translate(1 1)"/>
      <line class="cls-7" x1="307.82178" y1="737" x2="430.17822" y2="737"/>
    </g>
  </g>
  <polygon class="cls-9" points="211 698 101 698 134 737 94.404 737 41 681 97 627 134 627 101 664 211 664 211 698"/>
  <polygon class="cls-3" points="219 453 109 453 142 492 102.404 492 49 436 105 382 142 382 109 419 219 419 219 453"/>
  <polygon class="cls-3" points="125 236 125 126 86 159 86 119.404 142 66 196 122 196 159 159 126 159 236 125 236"/>
</svg>
