<svg xmlns="http://www.w3.org/2000/svg" width="600" height="900"><path d="M550 0H50C22.5 0 0 22.5 0 50v800c0 27.5 22.5 50 50 50h500c27.5 0 50-22.5 50-50V50c0-27.5-22.5-50-50-50h0z"/><path fill="#fff" d="M550 .5c27.295 0 49.5 22.206 49.5 49.5v800c0 27.295-22.205 49.5-49.5 49.5H50C22.706 899.5.5 877.295.5 850V50C.5 22.706 22.706.5 50 .5h500"/><path fill="#005ca1" d="M587.791 851c0 19.25-15.75 35-35 35H48.209c-19.25 0-35.015-16.75-35.015-36V48.103c0-19.25 14.765-35.641 34.015-35.641h506.582c19.25 0 34 15.4 34 34.641V851z"/><path fill="#fff" d="M534.625 566.463c0 18.461-13.926 33.57-32.39 33.57H98.765c-18.463 0-32.515-15.109-32.515-33.57V164.57c0-18.464 14.052-33.57 32.515-33.57h403.471c18.464 0 32.39 15.1 32.39 33.57l-.001 401.893h0z"/><path d="M92.5 187.128c0-6.5 6.37-12.628 13.12-12.628H496.5c4.4 0 8 3.6 8 8V237c0 4.4-3.58 7.618-7.955 7.15L104.03 201.349c-5.03-.474-11.53-4.471-11.53-14.221z"/><circle cx="146.75" cy="284.5" r="56.25"/><circle fill="#fff" cx="146.75" cy="284.5" r="42.5"/><path d="M471.596 523.834h33.237V366.079H388.58L319.938 323l76.229-43.167H372.5l-78.667 42.957 68.452 43.289H244s-9.75-1.329-19.75 5.671-39.115 27.145-84.702 98.799c-1.744 2.74-4.798 7.951.452 15.951 4.85 7.39 14.75 21.75 45 40.5l-8.5 11h125.25l9.375-14.166h16.726c.32 14.299 10.926 26.061 24.712 28.166H91.5v11.5H503V552h-56.115c13.785-2.105 24.39-13.867 24.711-28.166zM361.438 552c13.785-2.105 24.391-13.867 24.711-28.166h27.149c.32 14.299 11 26.06 24.7 28.166h-76.572z"/><g fill="#fff"><circle cx="375.014" cy="412.25" r="19.017"/><circle cx="419.966" cy="412.25" r="19.017"/><circle cx="465.242" cy="412.25" r="19.017"/><path d="M179.953 428.289s22.809-30.723 47.48-50.041c0 0 1.979-2.094 7.681-2.21s8.03 1.512 10.474 5.818 8.146 15.362 3.84 25.952-20.802 30.024-34.957 30.024h-30.096s-3.608.116-5.354-3.608.932-5.935.932-5.935z"/></g><g fill="none" stroke="#000" stroke-linecap="round" stroke-linejoin="round" stroke-miterlimit="10"><path stroke-width="7" d="M125.455 270.706l21.295 18.461"/><path stroke-width="8" d="M146.75 253.667v34.75"/></g></svg>