<svg id="Слой_1" data-name="Слой 1" xmlns="http://www.w3.org/2000/svg" width="700" height="700" viewBox="0 0 700 700">
  <defs>
    <style>
      .cls-1 {
        fill: #fff;
      }

      .cls-2 {
        fill: #055c9d;
      }
    </style>
  </defs>
  <g>
    <rect class="cls-1" x="0.5" y="0.5" width="699" height="699" rx="44.5"/>
    <path d="M655,1a44.04978,44.04978,0,0,1,44,44V655a44.04978,44.04978,0,0,1-44,44H45A44.04978,44.04978,0,0,1,1,655V45A44.04977,44.04977,0,0,1,45,1H655m0-1H45A45,45,0,0,0,0,45V655a45,45,0,0,0,45,45H655a45,45,0,0,0,45-45V45A45,45,0,0,0,655,0Z"/>
  </g>
  <rect class="cls-2" x="10" y="10" width="680" height="680" rx="35"/>
  <rect class="cls-1" x="340" y="10" width="20" height="680"/>
  <polygon class="cls-1" points="271 488 186 638 101 488 156 488 156 383 216 383 216 488 271 488"/>
  <polygon class="cls-1" points="630 248 560 248 560 690 490 690 490 248 420 248 525 58 630 248"/>
  <g>
    <path class="cls-1" d="M271,63H87A19.9945,19.9945,0,0,0,67,83V264a19.9945,19.9945,0,0,0,20,20H271a19.9945,19.9945,0,0,0,20-20V83A19.9945,19.9945,0,0,0,271,63ZM107,257a20,20,0,1,1,20-20A19.9945,19.9945,0,0,1,107,257Zm145,0a20,20,0,1,1,20-20A19.9945,19.9945,0,0,1,252,257Zm21-101a10.00366,10.00366,0,0,1-10,10H95a10.00366,10.00366,0,0,1-10-10V98A10.00362,10.00362,0,0,1,95,88H263a10.00362,10.00362,0,0,1,10,10Z"/>
    <path class="cls-1" d="M78,294h40a0,0,0,0,1,0,0v25a20,20,0,0,1-20,20h0a20,20,0,0,1-20-20V294a0,0,0,0,1,0,0Z"/>
    <path class="cls-1" d="M244,294h40a0,0,0,0,1,0,0v25a20,20,0,0,1-20,20h0a20,20,0,0,1-20-20V294a0,0,0,0,1,0,0Z"/>
  </g>
</svg>
