<svg id="Слой_1" data-name="Слой 1" xmlns="http://www.w3.org/2000/svg" width="600" height="600" viewBox="0 0 600 600">
  <defs>
    <style>
      .cls-1 {
        fill: #fff;
      }

      .cls-2 {
        fill: #005da2;
      }
    </style>
  </defs>
  <g>
    <rect class="cls-1" x="0.5" y="0.5" width="599" height="599" rx="39.5"/>
    <path d="M560,1a39.04414,39.04414,0,0,1,39,39V560a39.04414,39.04414,0,0,1-39,39H40A39.04414,39.04414,0,0,1,1,560V40A39.04415,39.04415,0,0,1,40,1H560m0-1H40A40,40,0,0,0,0,40V560a40,40,0,0,0,40,40H560a40,40,0,0,0,40-40V40A40,40,0,0,0,560,0Z"/>
  </g>
  <rect class="cls-2" x="15" y="15" width="570" height="570" rx="25"/>
  <path class="cls-1" d="M431.51827,408.97936a72.181,72.181,0,0,0-31.36974,7.1262l-27.26089-38.92124,6.54838-15.32777h4.06065c2.71245,5.36069,10.88189-4.85512,10.88189-10.8578a10.89112,10.89112,0,0,0-10.88189-10.88189H333.66944a10.86985,10.86985,0,0,0,0,21.73969h31.94751l-4.26127,9.9831H236.888a24.48025,24.48025,0,0,0-15.64874-29.54,9.97528,9.97528,0,0,1-6.71692-9.42937,11.77133,11.77133,0,0,1,11.78872-11.76462h34.87666a7.24657,7.24657,0,1,0,0-14.49314H226.31105a26.27053,26.27053,0,0,0-26.2899,26.25776,24.48637,24.48637,0,0,0,16.50743,23.14412,10.00082,10.00082,0,0,1,5.794,13.64249l-1.0352,2.18278L199.47546,418.6334a72.64064,72.64064,0,1,0,11.95726,8.62687l5.74588-12.33441L317.24229,491.4362h42.4763a72.48528,72.48528,0,1,0,71.79968-82.45684ZM224.95482,481.4531a61.61994,61.61994,0,1,1-63.221-61.59185c.52165-.008,1.06734,0,1.605,0a61.31647,61.31647,0,0,1,31.52222,8.68305l-15.2475,32.67777a11.8743,11.8743,0,0,1-4.79095,5.24034l-15.11906,8.72317a7.25337,7.25337,0,1,0,7.24654,12.56713l15.11912-8.75525a26.25065,26.25065,0,0,0,10.68127-11.63625l13.86722-29.74064A61.41141,61.41141,0,0,1,224.95482,481.4531Zm-.6821-81.70249,7.399-11.6122H354.43015l-35.75943,83.789ZM359.2933,475.13743H335.04976l32.75-76.79119,18.52974,26.48249A72.40672,72.40672,0,0,0,359.2933,475.13743Zm33.27963-41.401,28.99432,41.401H370.23132A61.58808,61.58808,0,0,1,392.57293,433.73645ZM431.51827,543.077a61.6242,61.6242,0,0,1-60.78935-51.64084h62.99622a9.98047,9.98047,0,0,0,8.17748-15.69689l-35.40633-50.55748a61.60661,61.60661,0,1,1,25.022,117.89521Z"/>
  <polygon class="cls-1" points="395.143 159.917 395.143 194.203 313.286 113.083 313.286 276.857 286.714 276.857 286.714 113.451 204.857 194.571 204.857 160.286 300 66 300 65.143 395.143 159.917"/>
</svg>
