<svg xmlns="http://www.w3.org/2000/svg" width="604" height="904"><defs><style>.a{fill:#fff}</style></defs><rect class="a" x="1" y="1" width="602" height="902" rx="46"/><path d="M557 2a45 45 0 0 1 45 45v810a45 45 0 0 1-45 45H47a45 45 0 0 1-45-45V47A45 45 0 0 1 47 2h510m0-2H47A47.053 47.053 0 0 0 0 47v810a47.053 47.053 0 0 0 47 47h510a47.053 47.053 0 0 0 47-47V47a47.053 47.053 0 0 0-47-47z"/><path d="M557 22a25.028 25.028 0 0 1 25 25v810a25.028 25.028 0 0 1-25 25H47a25.028 25.028 0 0 1-25-25V47a25.028 25.028 0 0 1 25-25h510m0-10H47a35 35 0 0 0-35 35v810a35 35 0 0 0 35 35h510a35 35 0 0 0 35-35V47a35 35 0 0 0-35-35z"/><rect x="67" y="298" width="470" height="470" rx="25" style="fill:#005da2"/><path d="M103.282 141.56h15.12c13.44 0 18-11.76 18-16.8s-2.88-18.481-21.36-18.481c-23.52 0-33.6 12.96-33.6 12.96l-12.72-19.68s19.44-15.12 46.32-15.12c27.12 0 43.201 16.8 43.201 36.96 0 25.201-23.04 30.241-23.04 30.241s27.6 4.08 27.6 33.6c0 15.841-15.84 40.322-49.441 40.322-28.56 0-49.441-18-49.441-18l14.16-18.96s11.76 15.12 36.961 15.12c13.44 0 23.76-8.4 23.76-20.161 0-13.44-8.64-21.84-20.4-21.84h-15.12zM286.16 155c0 38.88-17.76 70.562-54.721 70.562S176.718 193.88 176.718 155s17.76-70.562 54.721-70.562S286.16 116.12 286.16 155zm-86.641 0c0 30.24 13.44 48.721 31.92 48.721s31.92-18.48 31.92-48.721-13.44-48.721-31.92-48.721-31.92 18.48-31.92 48.721zM306.798 87.799h23.52v53.76h50.4V87.8h23.522v134.403H380.72V161.72h-50.402v60.482h-23.52zM496.398 87.799l43.681 134.403h-25.2l-8.4-26.88h-47.041l-8.4 26.88h-25.201l43.68-134.403zm3.36 87.362-16.8-57.122-16.8 57.122z"/><path class="a" d="M156 640v-95.19a65 65 0 1 0-10 0V650h347v-10zM96 480a55 55 0 1 1 55 55 54.994 54.994 0 0 1-55-55z"/><path class="a" d="m153.44 485.481-42.835 16.884-3.255-7.308 41.209-20.538 4.881 10.962z"/><circle cx="151" cy="480" r="55" style="fill:none"/><path class="a" d="M247 584a26 26 0 1 0 26 26 26 26 0 0 0-26-26zm0 40a14 14 0 1 1 14-14 14.003 14.003 0 0 1-14 14zM449 584a26 26 0 1 0 26 26 26 26 0 0 0-26-26zm0 40a14 14 0 1 1 14-14 14.003 14.003 0 0 1-14 14z"/><path class="a" d="M425.32 590H285v-81h-50.43a14.997 14.997 0 0 0-13.02 7.55l-15.91 27.84a19.957 19.957 0 0 0-2.64 9.92V600a13 13 0 0 0 13 13h.14c-.09-.99-.14-1.99-.14-3a31 31 0 0 1 62 0c0 1.01-.05 2.01-.14 3h140.28c-.09-.99-.14-1.99-.14-3a30.85 30.85 0 0 1 7.32-20zM274 551h-59l15.16-26.95a10.057 10.057 0 0 1 8.78-5.05H274zm198.68 39a30.85 30.85 0 0 1 7.32 20c0 1.01-.05 2.01-.14 3H503v-23z"/><path class="a" d="M303 490h195a5 5 0 0 1 5 5v83H298v-83a5 5 0 0 1 5-5z"/></svg>