<svg xmlns="http://www.w3.org/2000/svg" width="900" height="450" viewBox="0 0 900 450">
  <defs>
    <style>
      .cls-1 {
        fill: #fc0;
      }

      .cls-2 {
        fill-rule: evenodd;
      }
    </style>
  </defs>
  <g>
    <rect class="cls-1" x="5" y="5" width="890" height="440" rx="40"/>
    <path d="M855,10a35.03963,35.03963,0,0,1,35,35V405a35.03964,35.03964,0,0,1-35,35H45a35.03964,35.03964,0,0,1-35-35V45A35.03963,35.03963,0,0,1,45,10H855m0-10H45A45,45,0,0,0,0,45V405a45,45,0,0,0,45,45H855a45,45,0,0,0,45-45V45A45,45,0,0,0,855,0Z"/>
  </g>
  <path class="cls-2" d="M748.92694,58.79836v91.78039l-18.28475-.22647v73.475l54.85738,55.91422v-72.95l-18.28475-37.56779V77.42291Zm-99.768,185.28648L531.70327,257.19531l28.68115,54.37377,117.61351-19.74983ZM452.07963,264.52432,304.04881,278.49253l31.26812,73.25877,148.57293-26.619ZM226.62114,291.634,80.5565,306.29533v88.01626l175.26034-29.34Z"/>
</svg>
