<svg xmlns="http://www.w3.org/2000/svg" width="600" height="300"><rect x="5" y="5" width="590" height="290" rx="40" style="fill:#fff"/><path d="M555 10a35.04 35.04 0 0 1 35 35v210a35.04 35.04 0 0 1-35 35H45a35.04 35.04 0 0 1-35-35V45a35.04 35.04 0 0 1 35-35h510m0-10H45A45 45 0 0 0 0 45v210a45 45 0 0 0 45 45h510a45 45 0 0 0 45-45V45a45 45 0 0 0-45-45z"/><path d="M92.521 162.69h-23.97v23.972H52.756V162.69h-23.83v-15.652h23.83v-23.971H68.55v23.97h23.971zM157.944 175.381l-25.381-41.596v65.567h-18.754v-98.704h19.177l28.342 47.942 28.342-47.942h19.177v98.704h-18.754v-65.567l-25.38 41.596zM299.508 199.352h-67.542v-98.704h66.837v16.78h-47.942v23.548h40.046v16.78H250.86v24.817h48.647zM355.907 199.352h-18.895v-81.925H308.67v-16.779h75.58v16.78h-28.342zM417.662 199.352h-18.895v-98.704h41.315c19.318 0 32.008 11.845 32.008 30.034 0 13.396-6.768 23.266-19.036 27.356l23.549 41.314h-21.574l-20.587-37.789h-16.78zm0-81.925v28.343h18.048c11.422 0 17.204-4.794 17.204-14.1 0-9.448-5.782-14.243-17.204-14.243zM571.073 150c0 32.29-15.229 50.622-42.02 50.622-26.792 0-42.16-18.331-42.16-50.622 0-32.29 15.368-50.622 42.16-50.622 26.791 0 42.02 18.331 42.02 50.622zm-65.146 0c0 22.279 7.756 33.841 23.126 33.841 15.37 0 23.125-11.562 23.125-34.123 0-22.279-7.756-33.56-23.125-33.56-15.37 0-23.126 11.422-23.126 33.842z"/></svg>