<svg xmlns="http://www.w3.org/2000/svg" width="600" height="300" xmlns:v="https://vecta.io/nano"><rect x="5" y="5" width="590" height="290" rx="40" fill="#fff"/><path d="M555 10a35.04 35.04 0 0 1 35 35v210a35.04 35.04 0 0 1-35 35H45a35.04 35.04 0 0 1-35-35V45a35.04 35.04 0 0 1 35-35h510m0-10H45A45 45 0 0 0 0 45v210a45 45 0 0 0 45 45h510a45 45 0 0 0 45-45V45a45 45 0 0 0-45-45zM25.234 70.26h45.063v62.156H59.42V79.584H36.112v52.832H25.234zm105.838 31.078c0 17.98-8.213 32.631-25.306 32.631s-25.306-14.65-25.306-32.631 8.213-32.632 25.306-32.632 25.306 14.651 25.306 32.632zm-40.068 0c0 13.985 6.216 22.531 14.762 22.531s14.762-8.546 14.762-22.531-6.215-22.532-14.762-22.532-14.762 8.546-14.762 22.532zm49.23-31.078h10.877v24.862h23.309V70.26h10.877v62.156H174.42v-27.97h-23.309v27.97h-10.877zm61.719 0h38.848v10.1h-27.97v14.762h22.531v9.323h-22.531v18.647h28.747v9.323h-39.625zm62.058 52.833c3.108-7.77 6.993-28.525 6.993-43.509V70.26h36.517v52.833h6.992v20.201h-9.323v-10.877h-38.847v10.877h-9.324v-20.201zm32.631 0V79.584H281.88c0 14.762-3.107 33.409-7.325 43.509zm34.685-52.833h10.877v62.156h-10.877zm37.565 41.955c.776-4.662.776-27.97.776-41.955h38.848v62.156h-10.877V79.584h-17.093s0 23.309-.777 31.078c-2.22 21.754-20.978 23.308-20.978 23.308l-1.776-10.433s10.434-2.775 11.877-11.321zm106.18-10.877c0 17.98-8.214 32.631-25.307 32.631s-25.307-14.651-25.307-32.631 8.214-32.632 25.307-32.632 25.307 14.651 25.307 32.632zm-40.068 0c0 13.985 6.215 22.531 14.762 22.531s14.762-8.546 14.762-22.531-6.216-22.532-14.762-22.532-14.762 8.546-14.762 22.532zm54.123-31.078h10.877v23.197c.223.222.666.222 1.222.222 11.321 0 14.54-23.419 30.634-24.973l2.331 10.877c-5.994 0-7.548 3.33-10.878 7.77-2.996 3.885-7.88 10.877-10.877 10.877 7.77.777 10.101 6.548 13.985 13.208 4.551 7.88 8.546 16.76 13.984 20.978h-13.541c-1.998-3.885-8.213-13.985-12.098-20.978-2.775-4.884-5.438-7.77-10.101-7.77-1.554 0-4.662.333-4.662.333v28.414h-10.877zM51.726 195.55h36v9h-36zm101.958-11.751l-10.433 3.885c-2.331-7.77-6.336-10.877-12.098-10.877-8.546 0-14.762 8.546-14.762 22.532s6.216 22.531 14.762 22.531c5.762 0 9.767-3.108 12.098-10.877l10.433 3.885c-3.885 10.101-10.723 17.093-22.531 17.093-17.093 0-25.306-14.609-25.306-32.631s8.213-32.632 25.306-32.632c11.809 0 18.646 6.992 22.531 17.093zm21.269-15.539h38.848v10.1h-27.97v14.762h22.531v9.323h-22.531v18.647h28.747v9.323h-39.625zm80.201 0c14.762 0 20.201 11.654 20.201 20.201s-5.439 20.201-20.201 20.201h-10.1v21.754h-10.877V168.26zm-10.1 31.078h6.993c6.215 0 12.431-3.108 12.431-10.877s-6.216-10.877-12.431-10.877h-6.993zm48.9-31.078H332.8v10.1h-27.97v14.762h22.531v9.323H304.83v18.647h28.747v9.323h-39.624zm63.058 52.833c3.107-7.77 6.992-28.525 6.992-43.509v-9.323h36.517v52.833h6.992v20.201h-9.323v-10.877h-38.848v10.877h-9.323v-20.201zm32.631 0v-43.509h-14.762c0 14.762-3.107 33.409-7.325 43.509zm67.339-52.833l20.2 62.156h-11.654l-3.885-12.431h-21.754l-3.885 12.431H424.35l20.2-62.156zm1.554 40.401l-7.77-26.416-7.77 26.416zm84.23-111.325h36v9h-36z"/></svg>