<svg id="Слой_1" data-name="Слой 1" xmlns="http://www.w3.org/2000/svg" width="600" height="300" viewBox="0 0 600 300">
  <defs>
    <style>
      .cls-1 {
        fill: #fff;
      }

      .cls-2 {
        fill: #e6771d;
      }
    </style>
  </defs>
  <g>
    <rect class="cls-1" x="5" y="5" width="590" height="290" rx="40"/>
    <path d="M555,10a35.03961,35.03961,0,0,1,35,35V255a35.03961,35.03961,0,0,1-35,35H45a35.0396,35.0396,0,0,1-35-35V45A35.0396,35.0396,0,0,1,45,10H555m0-10H45A45,45,0,0,0,0,45V255a45,45,0,0,0,45,45H555a45,45,0,0,0,45-45V45A45,45,0,0,0,555,0Z"/>
  </g>
  <g>
    <rect x="215" y="206.5" width="19.33333" height="60"/>
    <path d="M361,206.5v60H341.66667v-22H317.46a18.00347,18.00347,0,0,1-32.25333,0H258.33333v22H239v-60h19.33333v22.66667h26.56a18.00238,18.00238,0,0,1,32.88,0h23.89335V206.5Z"/>
    <rect x="365.66667" y="206.5" width="19.33333" height="60"/>
    <rect x="215" y="191" width="170" height="7"/>
    <g>
      <rect class="cls-2" x="224.5" y="35.6665" width="147" height="147"/>
      <path d="M370,37.16667v144H226v-144H370m3-3H223v150H373v-150Z"/>
    </g>
  </g>
</svg>
