<svg id="Слой_1" data-name="Слой 1" xmlns="http://www.w3.org/2000/svg" width="600" height="300" viewBox="0 0 600 300">
  <defs>
    <style>
      .cls-1 {
        fill: #fff;
      }
    </style>
  </defs>
  <g>
    <rect class="cls-1" x="5" y="5" width="590" height="290" rx="40"/>
    <path d="M555,10a35.03961,35.03961,0,0,1,35,35V255a35.03961,35.03961,0,0,1-35,35H45a35.0396,35.0396,0,0,1-35-35V45A35.0396,35.0396,0,0,1,45,10H555m0-10H45A45,45,0,0,0,0,45V255a45,45,0,0,0,45,45H555a45,45,0,0,0,45-45V45A45,45,0,0,0,555,0Z"/>
  </g>
  <g>
    <path d="M186.73143,213.58a18.16572,18.16572,0,1,1-18.16572,18.16571A18.18627,18.18627,0,0,1,186.73143,213.58m0-14.96a33.12572,33.12572,0,1,0,33.12571,33.12571A33.12572,33.12572,0,0,0,186.73143,198.62Z"/>
    <path d="M414.33714,213.58a18.16572,18.16572,0,1,1-18.16571,18.16571A18.18628,18.18628,0,0,1,414.33714,213.58m0-14.96a33.12572,33.12572,0,1,0,33.12572,33.12571A33.12572,33.12572,0,0,0,414.33714,198.62Z"/>
    <path d="M234.81714,197.55143V108.86a16.03438,16.03438,0,0,0-16.02857-16.02857H157.132a10.70266,10.70266,0,0,0-8.84774,4.68035l-32.51662,47.872A16.04658,16.04658,0,0,0,113,154.39181v61.32533a16.03442,16.03442,0,0,0,16.02857,16.02857H146.66a40.07143,40.07143,0,0,1,80.14286,0H371.87212l20.025-34.19428ZM217.72,141.98571a10.68963,10.68963,0,0,1-10.68571,10.68572H149.00017a10.69048,10.69048,0,0,1-8.90121-16.61627l16.2316-24.3314a16.02621,16.02621,0,0,1,13.33581-7.138h37.36792A10.68959,10.68959,0,0,1,217.72,115.27143Z"/>
    <path d="M258.36571,35.12857H468.79429a15,15,0,0,1,15,15v134.6a0,0,0,0,1,0,0H243.36571a0,0,0,0,1,0,0v-134.6a15,15,0,0,1,15-15Z"/>
    <path d="M487,197.55143v34.19428H453.87429a39.508,39.508,0,0,0-19.68307-34.19428Z"/>
  </g>
</svg>
