<svg id="Слой_1" data-name="Слой 1" xmlns="http://www.w3.org/2000/svg" width="600" height="300" viewBox="0 0 600 300">
  <defs>
    <style>
      .cls-1 {
        fill: #fff;
      }
    </style>
  </defs>
  <g>
    <rect class="cls-1" x="5" y="5" width="590" height="290" rx="40"/>
    <path d="M555,10a35.03961,35.03961,0,0,1,35,35V255a35.03961,35.03961,0,0,1-35,35H45a35.0396,35.0396,0,0,1-35-35V45A35.0396,35.0396,0,0,1,45,10H555m0-10H45A45,45,0,0,0,0,45V255a45,45,0,0,0,45,45H555a45,45,0,0,0,45-45V45A45,45,0,0,0,555,0Z"/>
  </g>
  <path d="M590,200v55a35,35,0,0,1-35,35H45a35,35,0,0,1-35-35V236H311V200Z"/>
  <g>
    <path d="M230.5386,197.00553a14,14,0,1,1-10.4918,16.79053,14.01587,14.01587,0,0,1,10.4918-16.79053m-2.24954-9.74369a24,24,0,1,0,28.78377,17.986,24,24,0,0,0-28.78377-17.986Z"/>
    <path d="M388.38642,160.5629a14,14,0,1,1-10.4918,16.79053,14.01587,14.01587,0,0,1,10.4918-16.79053m-2.24954-9.74369a24,24,0,1,0,28.78377,17.986,24,24,0,0,0-28.78377-17.986Z"/>
    <path d="M405.54711,123.75922l-51.2807.14965-51.33278-26.748L197.78947,121.43568l-14.62481,39.29713c-7.80671,19.48557,3.37267,43.81431,22.58392,51.76642a28.00041,28.00041,0,0,1,55.22173-8.15126c.14846.64306.27518,1.28093.36293,1.92773l103.40008-24.0056c-.18368-.57335-.3404-1.1632-.47987-1.7673a27.993,27.993,0,0,1,54.41244-13.16786c5.94857-5.263,9.10247-14.00661,7.34558-21.61643l-3.82423-16.56428C421.06247,124.28238,412.6617,123.90242,405.54711,123.75922Zm-196.3769,42.259a7.99872,7.99872,0,0,1-9.32374-10.512l10.373-28.72979,92.00968-21.24245,48.07844,27.89963Z"/>
  </g>
</svg>
